<svg xmlns="http://www.w3.org/2000/svg" xmlns:xlink="http://www.w3.org/1999/xlink" width="1080" zoomAndPan="magnify" viewBox="0 0 810 809.999993" height="1080" preserveAspectRatio="xMidYMid meet" version="1.0"><defs><g/><clipPath id="a7b5991a59"><path d="M 79.402344 56.5625 L 730.402344 56.5625 L 730.402344 707.5625 L 79.402344 707.5625 Z M 79.402344 56.5625 " clip-rule="nonzero"/></clipPath><clipPath id="938b604c9e"><path d="M 404 56.5625 L 730.402344 56.5625 L 730.402344 613 L 404 613 Z M 404 56.5625 " clip-rule="nonzero"/></clipPath></defs><g clip-path="url(#a7b5991a59)"><path fill="#4e3ec8" d="M 730.402344 382.0625 C 730.402344 387.390625 730.273438 392.714844 730.011719 398.035156 C 729.75 403.355469 729.359375 408.667969 728.835938 413.96875 C 728.316406 419.269531 727.664062 424.554688 726.882812 429.824219 C 726.097656 435.09375 725.1875 440.339844 724.148438 445.566406 C 723.109375 450.789062 721.945312 455.988281 720.648438 461.152344 C 719.355469 466.320312 717.933594 471.453125 716.386719 476.550781 C 714.839844 481.648438 713.171875 486.707031 711.375 491.722656 C 709.582031 496.738281 707.664062 501.707031 705.625 506.628906 C 703.589844 511.550781 701.429688 516.417969 699.152344 521.234375 C 696.875 526.046875 694.480469 530.804688 691.96875 535.503906 C 689.457031 540.203125 686.832031 544.835938 684.09375 549.40625 C 681.355469 553.972656 678.507812 558.472656 675.546875 562.902344 C 672.585938 567.332031 669.519531 571.683594 666.347656 575.964844 C 663.175781 580.242188 659.898438 584.441406 656.519531 588.558594 C 653.140625 592.675781 649.660156 596.710938 646.082031 600.65625 C 642.507812 604.601562 638.835938 608.460938 635.066406 612.226562 C 631.300781 615.992188 627.445312 619.664062 623.496094 623.242188 C 619.550781 626.820312 615.515625 630.300781 611.398438 633.679688 C 607.28125 637.058594 603.082031 640.335938 598.804688 643.507812 C 594.527344 646.679688 590.171875 649.746094 585.742188 652.707031 C 581.3125 655.667969 576.8125 658.515625 572.246094 661.253906 C 567.675781 663.992188 563.042969 666.617188 558.34375 669.128906 C 553.644531 671.640625 548.890625 674.035156 544.074219 676.3125 C 539.257812 678.589844 534.390625 680.746094 529.46875 682.785156 C 524.546875 684.824219 519.578125 686.742188 514.5625 688.535156 C 509.546875 690.332031 504.488281 692 499.390625 693.546875 C 494.292969 695.09375 489.160156 696.515625 483.992188 697.808594 C 478.828125 699.101562 473.628906 700.269531 468.40625 701.308594 C 463.179688 702.347656 457.933594 703.257812 452.664062 704.039062 C 447.394531 704.824219 442.109375 705.472656 436.808594 705.996094 C 431.507812 706.519531 426.195312 706.910156 420.875 707.171875 C 415.554688 707.433594 410.230469 707.5625 404.902344 707.5625 C 399.578125 707.5625 394.253906 707.433594 388.933594 707.171875 C 383.613281 706.910156 378.300781 706.519531 373 705.996094 C 367.699219 705.472656 362.414062 704.824219 357.144531 704.039062 C 351.875 703.257812 346.625 702.347656 341.402344 701.308594 C 336.175781 700.269531 330.980469 699.101562 325.8125 697.808594 C 320.648438 696.515625 315.515625 695.09375 310.417969 693.546875 C 305.320312 692 300.261719 690.332031 295.246094 688.535156 C 290.230469 686.742188 285.261719 684.824219 280.339844 682.785156 C 275.417969 680.746094 270.550781 678.589844 265.734375 676.3125 C 260.917969 674.035156 256.164062 671.640625 251.464844 669.128906 C 246.765625 666.617188 242.132812 663.992188 237.5625 661.253906 C 232.996094 658.515625 228.496094 655.667969 224.066406 652.707031 C 219.636719 649.746094 215.28125 646.679688 211.003906 643.507812 C 206.726562 640.335938 202.527344 637.058594 198.410156 633.679688 C 194.292969 630.300781 190.257812 626.820312 186.3125 623.242188 C 182.363281 619.664062 178.507812 615.992188 174.742188 612.226562 C 170.972656 608.460938 167.300781 604.601562 163.722656 600.65625 C 160.148438 596.710938 156.667969 592.675781 153.289062 588.558594 C 149.910156 584.441406 146.632812 580.242188 143.460938 575.964844 C 140.285156 571.683594 137.21875 567.332031 134.261719 562.902344 C 131.300781 558.472656 128.453125 553.972656 125.714844 549.402344 C 122.976562 544.835938 120.351562 540.203125 117.839844 535.503906 C 115.328125 530.804688 112.933594 526.046875 110.65625 521.234375 C 108.378906 516.417969 106.21875 511.550781 104.179688 506.628906 C 102.144531 501.707031 100.226562 496.738281 98.429688 491.722656 C 96.636719 486.707031 94.964844 481.648438 93.421875 476.550781 C 91.875 471.453125 90.453125 466.320312 89.160156 461.152344 C 87.863281 455.988281 86.699219 450.789062 85.660156 445.566406 C 84.621094 440.339844 83.707031 435.09375 82.925781 429.824219 C 82.144531 424.554688 81.492188 419.269531 80.972656 413.96875 C 80.449219 408.667969 80.058594 403.355469 79.796875 398.035156 C 79.535156 392.714844 79.402344 387.390625 79.402344 382.0625 C 79.402344 376.738281 79.535156 371.414062 79.796875 366.09375 C 80.058594 360.773438 80.449219 355.460938 80.972656 350.160156 C 81.492188 344.859375 82.144531 339.574219 82.925781 334.304688 C 83.707031 329.035156 84.621094 323.785156 85.660156 318.5625 C 86.699219 313.335938 87.863281 308.140625 89.160156 302.972656 C 90.453125 297.804688 91.875 292.675781 93.421875 287.578125 C 94.964844 282.476562 96.636719 277.421875 98.429688 272.40625 C 100.226562 267.390625 102.144531 262.421875 104.179688 257.5 C 106.21875 252.578125 108.378906 247.710938 110.65625 242.894531 C 112.933594 238.078125 115.328125 233.324219 117.839844 228.625 C 120.351562 223.925781 122.976562 219.292969 125.714844 214.722656 C 128.453125 210.152344 131.300781 205.65625 134.261719 201.226562 C 137.21875 196.796875 140.285156 192.441406 143.460938 188.164062 C 146.632812 183.886719 149.910156 179.6875 153.289062 175.570312 C 156.667969 171.449219 160.148438 167.417969 163.722656 163.472656 C 167.300781 159.523438 170.972656 155.667969 174.742188 151.902344 C 178.507812 148.132812 182.363281 144.460938 186.3125 140.882812 C 190.257812 137.308594 194.292969 133.828125 198.410156 130.449219 C 202.527344 127.070312 206.726562 123.792969 211.003906 120.621094 C 215.28125 117.445312 219.636719 114.378906 224.066406 111.421875 C 228.496094 108.460938 232.996094 105.613281 237.5625 102.875 C 242.132812 100.132812 246.765625 97.507812 251.464844 95 C 256.164062 92.488281 260.917969 90.09375 265.734375 87.816406 C 270.550781 85.539062 275.417969 83.378906 280.339844 81.339844 C 285.261719 79.300781 290.230469 77.386719 295.246094 75.589844 C 300.261719 73.796875 305.320312 72.125 310.417969 70.578125 C 315.515625 69.035156 320.648438 67.613281 325.8125 66.320312 C 330.980469 65.023438 336.175781 63.859375 341.402344 62.816406 C 346.625 61.777344 351.875 60.867188 357.144531 60.085938 C 362.414062 59.304688 367.699219 58.652344 373 58.132812 C 378.300781 57.609375 383.613281 57.21875 388.933594 56.957031 C 394.253906 56.695312 399.578125 56.5625 404.902344 56.5625 C 410.230469 56.5625 415.554688 56.695312 420.875 56.957031 C 426.195312 57.21875 431.507812 57.609375 436.808594 58.132812 C 442.109375 58.652344 447.394531 59.304688 452.664062 60.085938 C 457.933594 60.867188 463.179688 61.777344 468.40625 62.816406 C 473.628906 63.859375 478.828125 65.023438 483.992188 66.320312 C 489.160156 67.613281 494.292969 69.035156 499.390625 70.578125 C 504.488281 72.125 509.546875 73.796875 514.5625 75.589844 C 519.578125 77.386719 524.546875 79.300781 529.46875 81.339844 C 534.390625 83.378906 539.257812 85.539062 544.074219 87.816406 C 548.890625 90.09375 553.644531 92.488281 558.34375 95 C 563.042969 97.507812 567.675781 100.132812 572.246094 102.875 C 576.8125 105.613281 581.3125 108.460938 585.742188 111.421875 C 590.171875 114.378906 594.527344 117.445312 598.804688 120.621094 C 603.082031 123.792969 607.28125 127.070312 611.398438 130.449219 C 615.515625 133.828125 619.550781 137.308594 623.496094 140.882812 C 627.445312 144.460938 631.300781 148.132812 635.066406 151.902344 C 638.835938 155.667969 642.507812 159.523438 646.082031 163.472656 C 649.660156 167.417969 653.140625 171.449219 656.519531 175.570312 C 659.898438 179.6875 663.175781 183.886719 666.347656 188.164062 C 669.519531 192.441406 672.585938 196.796875 675.546875 201.226562 C 678.507812 205.65625 681.355469 210.152344 684.09375 214.722656 C 686.832031 219.292969 689.457031 223.925781 691.96875 228.625 C 694.480469 233.324219 696.875 238.078125 699.152344 242.894531 C 701.429688 247.710938 703.589844 252.578125 705.625 257.5 C 707.664062 262.421875 709.582031 267.390625 711.375 272.40625 C 713.171875 277.421875 714.839844 282.476562 716.386719 287.578125 C 717.933594 292.675781 719.355469 297.804688 720.648438 302.972656 C 721.945312 308.140625 723.109375 313.335938 724.148438 318.5625 C 725.1875 323.785156 726.097656 329.035156 726.882812 334.304688 C 727.664062 339.574219 728.316406 344.859375 728.835938 350.160156 C 729.359375 355.460938 729.75 360.773438 730.011719 366.09375 C 730.273438 371.414062 730.402344 376.738281 730.402344 382.0625 Z M 730.402344 382.0625 " fill-opacity="1" fill-rule="nonzero"/></g><g clip-path="url(#938b604c9e)"><path fill="#634cfd" d="M 730.402344 382.0625 C 730.398438 376.738281 730.261719 371.417969 729.992188 366.097656 C 729.726562 360.777344 729.328125 355.46875 728.800781 350.171875 C 728.273438 344.871094 727.617188 339.589844 726.832031 334.320312 C 726.042969 329.054688 725.128906 323.8125 724.085938 318.589844 C 723.042969 313.367188 721.871094 308.171875 720.574219 303.007812 C 719.273438 297.84375 717.851562 292.714844 716.300781 287.617188 C 714.753906 282.523438 713.078125 277.46875 711.28125 272.457031 C 709.484375 267.445312 707.566406 262.480469 705.523438 257.558594 C 703.484375 252.640625 701.324219 247.777344 699.042969 242.960938 C 696.765625 238.148438 694.367188 233.394531 691.855469 228.699219 C 689.34375 224.003906 686.71875 219.375 683.976562 214.808594 C 681.238281 210.242188 678.390625 205.742188 675.429688 201.316406 C 672.46875 196.890625 669.402344 192.539062 666.230469 188.261719 C 663.054688 183.984375 659.78125 179.789062 656.402344 175.671875 C 653.023438 171.554688 649.542969 167.523438 645.96875 163.578125 C 642.390625 159.632812 638.71875 155.777344 634.953125 152.011719 C 631.1875 148.246094 627.332031 144.578125 623.386719 141 C 619.441406 137.421875 615.410156 133.945312 611.296875 130.566406 C 607.179688 127.1875 602.984375 123.910156 598.707031 120.738281 C 594.429688 117.566406 590.078125 114.5 585.652344 111.539062 C 581.222656 108.578125 576.726562 105.730469 572.160156 102.988281 C 567.59375 100.25 562.964844 97.625 558.265625 95.113281 C 553.570312 92.597656 548.816406 90.203125 544.003906 87.925781 C 539.191406 85.644531 534.328125 83.484375 529.40625 81.445312 C 524.488281 79.402344 519.523438 77.484375 514.511719 75.6875 C 509.496094 73.890625 504.445312 72.214844 499.347656 70.664062 C 494.253906 69.117188 489.125 67.691406 483.960938 66.394531 C 478.792969 65.097656 473.601562 63.925781 468.378906 62.882812 C 463.15625 61.839844 457.914062 60.921875 452.644531 60.136719 C 447.378906 59.351562 442.097656 58.695312 436.796875 58.167969 C 431.496094 57.636719 426.1875 57.242188 420.871094 56.972656 C 415.550781 56.707031 410.230469 56.570312 404.902344 56.5625 L 404.902344 382.0625 L 634.882812 612.074219 C 638.660156 608.316406 642.339844 604.464844 645.921875 600.527344 C 649.507812 596.585938 652.992188 592.5625 656.378906 588.449219 C 659.765625 584.339844 663.046875 580.148438 666.226562 575.875 C 669.410156 571.601562 672.480469 567.253906 675.445312 562.828125 C 678.414062 558.402344 681.269531 553.910156 684.011719 549.34375 C 686.757812 544.78125 689.386719 540.148438 691.902344 535.457031 C 694.421875 530.761719 696.820312 526.007812 699.101562 521.195312 C 701.382812 516.382812 703.546875 511.515625 705.589844 506.597656 C 707.632812 501.679688 709.554688 496.710938 711.351562 491.699219 C 713.148438 486.683594 714.824219 481.628906 716.371094 476.535156 C 717.921875 471.4375 719.34375 466.308594 720.640625 461.140625 C 721.9375 455.976562 723.105469 450.78125 724.148438 445.554688 C 725.1875 440.332031 726.101562 435.085938 726.882812 429.816406 C 727.664062 424.550781 728.316406 419.265625 728.839844 413.964844 C 729.363281 408.664062 729.753906 403.351562 730.015625 398.035156 C 730.277344 392.714844 730.40625 387.390625 730.402344 382.0625 Z M 730.402344 382.0625 " fill-opacity="1" fill-rule="nonzero"/></g><g fill="#1f117b" fill-opacity="1"><g transform="translate(98.338349, 775.055843)"><g><path d="M 28.125 0 L 20.71875 -10.546875 C 19.800781 -10.484375 19.078125 -10.453125 18.546875 -10.453125 L 10.0625 -10.453125 L 10.0625 0 L 5.15625 0 L 5.15625 -34.359375 L 18.546875 -34.359375 C 22.992188 -34.359375 26.492188 -33.289062 29.046875 -31.15625 C 31.597656 -29.03125 32.875 -26.101562 32.875 -22.375 C 32.875 -19.726562 32.21875 -17.472656 30.90625 -15.609375 C 29.601562 -13.742188 27.742188 -12.382812 25.328125 -11.53125 L 33.46875 0 Z M 18.40625 -14.625 C 21.507812 -14.625 23.878906 -15.296875 25.515625 -16.640625 C 27.148438 -17.984375 27.96875 -19.894531 27.96875 -22.375 C 27.96875 -24.863281 27.148438 -26.769531 25.515625 -28.09375 C 23.878906 -29.414062 21.507812 -30.078125 18.40625 -30.078125 L 10.0625 -30.078125 L 10.0625 -14.625 Z M 18.40625 -14.625 "/></g></g></g><g fill="#1f117b" fill-opacity="1"><g transform="translate(134.011286, 775.055843)"><g><path d="M 27.96875 -12.859375 C 27.96875 -12.492188 27.9375 -12.019531 27.875 -11.4375 L 6.765625 -11.4375 C 7.066406 -9.144531 8.078125 -7.300781 9.796875 -5.90625 C 11.515625 -4.519531 13.648438 -3.828125 16.203125 -3.828125 C 19.304688 -3.828125 21.804688 -4.875 23.703125 -6.96875 L 26.3125 -3.921875 C 25.132812 -2.546875 23.664062 -1.5 21.90625 -0.78125 C 20.15625 -0.0625 18.203125 0.296875 16.046875 0.296875 C 13.296875 0.296875 10.859375 -0.265625 8.734375 -1.390625 C 6.609375 -2.523438 4.960938 -4.101562 3.796875 -6.125 C 2.640625 -8.15625 2.0625 -10.445312 2.0625 -13 C 2.0625 -15.519531 2.625 -17.796875 3.75 -19.828125 C 4.882812 -21.859375 6.441406 -23.4375 8.421875 -24.5625 C 10.398438 -25.6875 12.628906 -26.25 15.109375 -26.25 C 17.597656 -26.25 19.816406 -25.6875 21.765625 -24.5625 C 23.710938 -23.4375 25.234375 -21.859375 26.328125 -19.828125 C 27.421875 -17.796875 27.96875 -15.472656 27.96875 -12.859375 Z M 15.109375 -22.28125 C 12.859375 -22.28125 10.972656 -21.59375 9.453125 -20.21875 C 7.929688 -18.84375 7.035156 -17.046875 6.765625 -14.828125 L 23.453125 -14.828125 C 23.191406 -17.015625 22.300781 -18.800781 20.78125 -20.1875 C 19.257812 -21.582031 17.367188 -22.28125 15.109375 -22.28125 Z M 15.109375 -22.28125 "/></g></g></g><g fill="#1f117b" fill-opacity="1"><g transform="translate(164.041326, 775.055843)"><g><path d="M 15.796875 0.296875 C 13.148438 0.296875 10.785156 -0.273438 8.703125 -1.421875 C 6.628906 -2.566406 5.003906 -4.144531 3.828125 -6.15625 C 2.648438 -8.164062 2.0625 -10.445312 2.0625 -13 C 2.0625 -15.550781 2.648438 -17.832031 3.828125 -19.84375 C 5.003906 -21.863281 6.628906 -23.4375 8.703125 -24.5625 C 10.785156 -25.6875 13.148438 -26.25 15.796875 -26.25 C 18.160156 -26.25 20.265625 -25.773438 22.109375 -24.828125 C 23.953125 -23.878906 25.382812 -22.507812 26.40625 -20.71875 L 22.828125 -18.40625 C 22.003906 -19.644531 20.988281 -20.578125 19.78125 -21.203125 C 18.570312 -21.828125 17.226562 -22.140625 15.75 -22.140625 C 14.050781 -22.140625 12.519531 -21.757812 11.15625 -21 C 9.800781 -20.25 8.738281 -19.175781 7.96875 -17.78125 C 7.207031 -16.394531 6.828125 -14.800781 6.828125 -13 C 6.828125 -11.164062 7.207031 -9.550781 7.96875 -8.15625 C 8.738281 -6.769531 9.800781 -5.703125 11.15625 -4.953125 C 12.519531 -4.203125 14.050781 -3.828125 15.75 -3.828125 C 17.226562 -3.828125 18.570312 -4.132812 19.78125 -4.75 C 20.988281 -5.375 22.003906 -6.3125 22.828125 -7.5625 L 26.40625 -5.296875 C 25.382812 -3.492188 23.953125 -2.109375 22.109375 -1.140625 C 20.265625 -0.179688 18.160156 0.296875 15.796875 0.296875 Z M 15.796875 0.296875 "/></g></g></g><g fill="#1f117b" fill-opacity="1"><g transform="translate(192.059549, 775.055843)"><g><path d="M 15.609375 0.296875 C 13.023438 0.296875 10.703125 -0.273438 8.640625 -1.421875 C 6.578125 -2.566406 4.960938 -4.144531 3.796875 -6.15625 C 2.640625 -8.164062 2.0625 -10.445312 2.0625 -13 C 2.0625 -15.550781 2.640625 -17.832031 3.796875 -19.84375 C 4.960938 -21.863281 6.578125 -23.4375 8.640625 -24.5625 C 10.703125 -25.6875 13.023438 -26.25 15.609375 -26.25 C 18.191406 -26.25 20.503906 -25.6875 22.546875 -24.5625 C 24.597656 -23.4375 26.203125 -21.863281 27.359375 -19.84375 C 28.523438 -17.832031 29.109375 -15.550781 29.109375 -13 C 29.109375 -10.445312 28.523438 -8.164062 27.359375 -6.15625 C 26.203125 -4.144531 24.597656 -2.566406 22.546875 -1.421875 C 20.503906 -0.273438 18.191406 0.296875 15.609375 0.296875 Z M 15.609375 -3.828125 C 17.273438 -3.828125 18.769531 -4.210938 20.09375 -4.984375 C 21.414062 -5.753906 22.453125 -6.832031 23.203125 -8.21875 C 23.960938 -9.613281 24.34375 -11.207031 24.34375 -13 C 24.34375 -14.800781 23.960938 -16.394531 23.203125 -17.78125 C 22.453125 -19.175781 21.414062 -20.25 20.09375 -21 C 18.769531 -21.757812 17.273438 -22.140625 15.609375 -22.140625 C 13.941406 -22.140625 12.441406 -21.757812 11.109375 -21 C 9.785156 -20.25 8.738281 -19.175781 7.96875 -17.78125 C 7.207031 -16.394531 6.828125 -14.800781 6.828125 -13 C 6.828125 -11.207031 7.207031 -9.613281 7.96875 -8.21875 C 8.738281 -6.832031 9.785156 -5.753906 11.109375 -4.984375 C 12.441406 -4.210938 13.941406 -3.828125 15.609375 -3.828125 Z M 15.609375 -3.828125 "/></g></g></g><g fill="#1f117b" fill-opacity="1"><g transform="translate(223.218168, 775.055843)"><g><path d="M 8.984375 -21.640625 C 9.796875 -23.148438 11.003906 -24.296875 12.609375 -25.078125 C 14.210938 -25.859375 16.160156 -26.25 18.453125 -26.25 L 18.453125 -21.6875 C 18.191406 -21.71875 17.832031 -21.734375 17.375 -21.734375 C 14.820312 -21.734375 12.816406 -20.972656 11.359375 -19.453125 C 9.898438 -17.929688 9.171875 -15.765625 9.171875 -12.953125 L 9.171875 0 L 4.46875 0 L 4.46875 -26.015625 L 8.984375 -26.015625 Z M 8.984375 -21.640625 "/></g></g></g><g fill="#1f117b" fill-opacity="1"><g transform="translate(243.336335, 775.055843)"><g><path d="M 29 -36.421875 L 29 0 L 24.484375 0 L 24.484375 -4.125 C 23.441406 -2.6875 22.117188 -1.585938 20.515625 -0.828125 C 18.910156 -0.078125 17.144531 0.296875 15.21875 0.296875 C 12.695312 0.296875 10.4375 -0.257812 8.4375 -1.375 C 6.445312 -2.488281 4.882812 -4.050781 3.75 -6.0625 C 2.625 -8.070312 2.0625 -10.382812 2.0625 -13 C 2.0625 -15.625 2.625 -17.929688 3.75 -19.921875 C 4.882812 -21.921875 6.445312 -23.472656 8.4375 -24.578125 C 10.4375 -25.691406 12.695312 -26.25 15.21875 -26.25 C 17.082031 -26.25 18.796875 -25.894531 20.359375 -25.1875 C 21.929688 -24.488281 23.242188 -23.453125 24.296875 -22.078125 L 24.296875 -36.421875 Z M 15.609375 -3.828125 C 17.242188 -3.828125 18.726562 -4.210938 20.0625 -4.984375 C 21.40625 -5.753906 22.453125 -6.832031 23.203125 -8.21875 C 23.960938 -9.613281 24.34375 -11.207031 24.34375 -13 C 24.34375 -14.800781 23.960938 -16.394531 23.203125 -17.78125 C 22.453125 -19.175781 21.40625 -20.25 20.0625 -21 C 18.726562 -21.757812 17.242188 -22.140625 15.609375 -22.140625 C 13.941406 -22.140625 12.441406 -21.757812 11.109375 -21 C 9.785156 -20.25 8.738281 -19.175781 7.96875 -17.78125 C 7.207031 -16.394531 6.828125 -14.800781 6.828125 -13 C 6.828125 -11.207031 7.207031 -9.613281 7.96875 -8.21875 C 8.738281 -6.832031 9.785156 -5.753906 11.109375 -4.984375 C 12.441406 -4.210938 13.941406 -3.828125 15.609375 -3.828125 Z M 15.609375 -3.828125 "/></g></g></g><g fill="#1f117b" fill-opacity="1"><g transform="translate(276.801174, 775.055843)"><g/></g></g><g fill="#1f117b" fill-opacity="1"><g transform="translate(290.000663, 775.055843)"><g><path d="M 18.3125 -11.875 L 18.3125 0 L 13.453125 0 L 13.453125 -11.96875 L -0.203125 -34.359375 L 5.0625 -34.359375 L 16.046875 -16.25 L 27.09375 -34.359375 L 31.953125 -34.359375 Z M 18.3125 -11.875 "/></g></g></g><g fill="#1f117b" fill-opacity="1"><g transform="translate(321.748107, 775.055843)"><g><path d="M 15.609375 0.296875 C 13.023438 0.296875 10.703125 -0.273438 8.640625 -1.421875 C 6.578125 -2.566406 4.960938 -4.144531 3.796875 -6.15625 C 2.640625 -8.164062 2.0625 -10.445312 2.0625 -13 C 2.0625 -15.550781 2.640625 -17.832031 3.796875 -19.84375 C 4.960938 -21.863281 6.578125 -23.4375 8.640625 -24.5625 C 10.703125 -25.6875 13.023438 -26.25 15.609375 -26.25 C 18.191406 -26.25 20.503906 -25.6875 22.546875 -24.5625 C 24.597656 -23.4375 26.203125 -21.863281 27.359375 -19.84375 C 28.523438 -17.832031 29.109375 -15.550781 29.109375 -13 C 29.109375 -10.445312 28.523438 -8.164062 27.359375 -6.15625 C 26.203125 -4.144531 24.597656 -2.566406 22.546875 -1.421875 C 20.503906 -0.273438 18.191406 0.296875 15.609375 0.296875 Z M 15.609375 -3.828125 C 17.273438 -3.828125 18.769531 -4.210938 20.09375 -4.984375 C 21.414062 -5.753906 22.453125 -6.832031 23.203125 -8.21875 C 23.960938 -9.613281 24.34375 -11.207031 24.34375 -13 C 24.34375 -14.800781 23.960938 -16.394531 23.203125 -17.78125 C 22.453125 -19.175781 21.414062 -20.25 20.09375 -21 C 18.769531 -21.757812 17.273438 -22.140625 15.609375 -22.140625 C 13.941406 -22.140625 12.441406 -21.757812 11.109375 -21 C 9.785156 -20.25 8.738281 -19.175781 7.96875 -17.78125 C 7.207031 -16.394531 6.828125 -14.800781 6.828125 -13 C 6.828125 -11.207031 7.207031 -9.613281 7.96875 -8.21875 C 8.738281 -6.832031 9.785156 -5.753906 11.109375 -4.984375 C 12.441406 -4.210938 13.941406 -3.828125 15.609375 -3.828125 Z M 15.609375 -3.828125 "/></g></g></g><g fill="#1f117b" fill-opacity="1"><g transform="translate(352.906726, 775.055843)"><g><path d="M 28.703125 -26.015625 L 28.703125 0 L 24.25 0 L 24.25 -3.921875 C 23.300781 -2.578125 22.046875 -1.535156 20.484375 -0.796875 C 18.929688 -0.0664062 17.238281 0.296875 15.40625 0.296875 C 11.9375 0.296875 9.203125 -0.660156 7.203125 -2.578125 C 5.210938 -4.492188 4.21875 -7.316406 4.21875 -11.046875 L 4.21875 -26.015625 L 8.9375 -26.015625 L 8.9375 -11.578125 C 8.9375 -9.054688 9.539062 -7.148438 10.75 -5.859375 C 11.957031 -4.566406 13.691406 -3.921875 15.953125 -3.921875 C 18.441406 -3.921875 20.40625 -4.671875 21.84375 -6.171875 C 23.28125 -7.679688 24 -9.8125 24 -12.5625 L 24 -26.015625 Z M 28.703125 -26.015625 "/></g></g></g><g fill="#1f117b" fill-opacity="1"><g transform="translate(386.126242, 775.055843)"><g><path d="M 8.984375 -21.640625 C 9.796875 -23.148438 11.003906 -24.296875 12.609375 -25.078125 C 14.210938 -25.859375 16.160156 -26.25 18.453125 -26.25 L 18.453125 -21.6875 C 18.191406 -21.71875 17.832031 -21.734375 17.375 -21.734375 C 14.820312 -21.734375 12.816406 -20.972656 11.359375 -19.453125 C 9.898438 -17.929688 9.171875 -15.765625 9.171875 -12.953125 L 9.171875 0 L 4.46875 0 L 4.46875 -26.015625 L 8.984375 -26.015625 Z M 8.984375 -21.640625 "/></g></g></g><g fill="#1f117b" fill-opacity="1"><g transform="translate(406.244409, 775.055843)"><g/></g></g><g fill="#1f117b" fill-opacity="1"><g transform="translate(419.443898, 775.055843)"><g><path d="M 11.96875 -30.078125 L 0.203125 -30.078125 L 0.203125 -34.359375 L 28.609375 -34.359375 L 28.609375 -30.078125 L 16.828125 -30.078125 L 16.828125 0 L 11.96875 0 Z M 11.96875 -30.078125 "/></g></g></g><g fill="#1f117b" fill-opacity="1"><g transform="translate(448.247238, 775.055843)"><g><path d="M 8.984375 -21.640625 C 9.796875 -23.148438 11.003906 -24.296875 12.609375 -25.078125 C 14.210938 -25.859375 16.160156 -26.25 18.453125 -26.25 L 18.453125 -21.6875 C 18.191406 -21.71875 17.832031 -21.734375 17.375 -21.734375 C 14.820312 -21.734375 12.816406 -20.972656 11.359375 -19.453125 C 9.898438 -17.929688 9.171875 -15.765625 9.171875 -12.953125 L 9.171875 0 L 4.46875 0 L 4.46875 -26.015625 L 8.984375 -26.015625 Z M 8.984375 -21.640625 "/></g></g></g><g fill="#1f117b" fill-opacity="1"><g transform="translate(468.365405, 775.055843)"><g><path d="M 13.9375 -26.25 C 17.539062 -26.25 20.296875 -25.363281 22.203125 -23.59375 C 24.117188 -21.832031 25.078125 -19.203125 25.078125 -15.703125 L 25.078125 0 L 20.609375 0 L 20.609375 -3.4375 C 19.828125 -2.226562 18.707031 -1.300781 17.25 -0.65625 C 15.789062 -0.0195312 14.066406 0.296875 12.078125 0.296875 C 9.160156 0.296875 6.828125 -0.40625 5.078125 -1.8125 C 3.328125 -3.21875 2.453125 -5.066406 2.453125 -7.359375 C 2.453125 -9.648438 3.285156 -11.488281 4.953125 -12.875 C 6.617188 -14.269531 9.269531 -14.96875 12.90625 -14.96875 L 20.375 -14.96875 L 20.375 -15.90625 C 20.375 -17.925781 19.78125 -19.476562 18.59375 -20.5625 C 17.414062 -21.644531 15.679688 -22.1875 13.390625 -22.1875 C 11.859375 -22.1875 10.351562 -21.929688 8.875 -21.421875 C 7.40625 -20.910156 6.164062 -20.234375 5.15625 -19.390625 L 3.1875 -22.921875 C 4.53125 -24.003906 6.132812 -24.828125 8 -25.390625 C 9.863281 -25.960938 11.84375 -26.25 13.9375 -26.25 Z M 12.859375 -3.34375 C 14.660156 -3.34375 16.210938 -3.738281 17.515625 -4.53125 C 18.828125 -5.332031 19.78125 -6.472656 20.375 -7.953125 L 20.375 -11.578125 L 13.109375 -11.578125 C 9.109375 -11.578125 7.109375 -10.238281 7.109375 -7.5625 C 7.109375 -6.25 7.613281 -5.21875 8.625 -4.46875 C 9.644531 -3.71875 11.054688 -3.34375 12.859375 -3.34375 Z M 12.859375 -3.34375 "/></g></g></g><g fill="#1f117b" fill-opacity="1"><g transform="translate(497.708489, 775.055843)"><g><path d="M 18.359375 -26.25 C 21.660156 -26.25 24.285156 -25.289062 26.234375 -23.375 C 28.179688 -21.46875 29.15625 -18.664062 29.15625 -14.96875 L 29.15625 0 L 24.4375 0 L 24.4375 -14.421875 C 24.4375 -16.941406 23.832031 -18.835938 22.625 -20.109375 C 21.414062 -21.390625 19.679688 -22.03125 17.421875 -22.03125 C 14.867188 -22.03125 12.851562 -21.285156 11.375 -19.796875 C 9.90625 -18.304688 9.171875 -16.171875 9.171875 -13.390625 L 9.171875 0 L 4.46875 0 L 4.46875 -26.015625 L 8.984375 -26.015625 L 8.984375 -22.078125 C 9.929688 -23.421875 11.210938 -24.453125 12.828125 -25.171875 C 14.453125 -25.890625 16.296875 -26.25 18.359375 -26.25 Z M 18.359375 -26.25 "/></g></g></g><g fill="#1f117b" fill-opacity="1"><g transform="translate(531.124267, 775.055843)"><g><path d="M 11.921875 0.296875 C 9.796875 0.296875 7.75 0.0078125 5.78125 -0.5625 C 3.820312 -1.132812 2.285156 -1.863281 1.171875 -2.75 L 3.140625 -6.484375 C 4.285156 -5.660156 5.675781 -5.003906 7.3125 -4.515625 C 8.945312 -4.023438 10.597656 -3.78125 12.265625 -3.78125 C 16.390625 -3.78125 18.453125 -4.957031 18.453125 -7.3125 C 18.453125 -8.09375 18.171875 -8.710938 17.609375 -9.171875 C 17.054688 -9.628906 16.363281 -9.960938 15.53125 -10.171875 C 14.695312 -10.390625 13.507812 -10.628906 11.96875 -10.890625 C 9.875 -11.222656 8.164062 -11.597656 6.84375 -12.015625 C 5.519531 -12.441406 4.382812 -13.160156 3.4375 -14.171875 C 2.488281 -15.191406 2.015625 -16.617188 2.015625 -18.453125 C 2.015625 -20.804688 2.992188 -22.691406 4.953125 -24.109375 C 6.921875 -25.535156 9.554688 -26.25 12.859375 -26.25 C 14.585938 -26.25 16.316406 -26.035156 18.046875 -25.609375 C 19.785156 -25.191406 21.210938 -24.625 22.328125 -23.90625 L 20.3125 -20.171875 C 18.1875 -21.546875 15.6875 -22.234375 12.8125 -22.234375 C 10.8125 -22.234375 9.285156 -21.90625 8.234375 -21.25 C 7.191406 -20.59375 6.671875 -19.726562 6.671875 -18.65625 C 6.671875 -17.800781 6.960938 -17.128906 7.546875 -16.640625 C 8.140625 -16.148438 8.867188 -15.789062 9.734375 -15.5625 C 10.609375 -15.332031 11.828125 -15.066406 13.390625 -14.765625 C 15.492188 -14.410156 17.191406 -14.023438 18.484375 -13.609375 C 19.773438 -13.203125 20.878906 -12.507812 21.796875 -11.53125 C 22.710938 -10.550781 23.171875 -9.175781 23.171875 -7.40625 C 23.171875 -5.050781 22.160156 -3.175781 20.140625 -1.78125 C 18.128906 -0.394531 15.390625 0.296875 11.921875 0.296875 Z M 11.921875 0.296875 "/></g></g></g><g fill="#1f117b" fill-opacity="1"><g transform="translate(555.707691, 775.055843)"><g><path d="M 13.9375 -26.25 C 17.539062 -26.25 20.296875 -25.363281 22.203125 -23.59375 C 24.117188 -21.832031 25.078125 -19.203125 25.078125 -15.703125 L 25.078125 0 L 20.609375 0 L 20.609375 -3.4375 C 19.828125 -2.226562 18.707031 -1.300781 17.25 -0.65625 C 15.789062 -0.0195312 14.066406 0.296875 12.078125 0.296875 C 9.160156 0.296875 6.828125 -0.40625 5.078125 -1.8125 C 3.328125 -3.21875 2.453125 -5.066406 2.453125 -7.359375 C 2.453125 -9.648438 3.285156 -11.488281 4.953125 -12.875 C 6.617188 -14.269531 9.269531 -14.96875 12.90625 -14.96875 L 20.375 -14.96875 L 20.375 -15.90625 C 20.375 -17.925781 19.78125 -19.476562 18.59375 -20.5625 C 17.414062 -21.644531 15.679688 -22.1875 13.390625 -22.1875 C 11.859375 -22.1875 10.351562 -21.929688 8.875 -21.421875 C 7.40625 -20.910156 6.164062 -20.234375 5.15625 -19.390625 L 3.1875 -22.921875 C 4.53125 -24.003906 6.132812 -24.828125 8 -25.390625 C 9.863281 -25.960938 11.84375 -26.25 13.9375 -26.25 Z M 12.859375 -3.34375 C 14.660156 -3.34375 16.210938 -3.738281 17.515625 -4.53125 C 18.828125 -5.332031 19.78125 -6.472656 20.375 -7.953125 L 20.375 -11.578125 L 13.109375 -11.578125 C 9.109375 -11.578125 7.109375 -10.238281 7.109375 -7.5625 C 7.109375 -6.25 7.613281 -5.21875 8.625 -4.46875 C 9.644531 -3.71875 11.054688 -3.34375 12.859375 -3.34375 Z M 12.859375 -3.34375 "/></g></g></g><g fill="#1f117b" fill-opacity="1"><g transform="translate(585.050776, 775.055843)"><g><path d="M 15.796875 0.296875 C 13.148438 0.296875 10.785156 -0.273438 8.703125 -1.421875 C 6.628906 -2.566406 5.003906 -4.144531 3.828125 -6.15625 C 2.648438 -8.164062 2.0625 -10.445312 2.0625 -13 C 2.0625 -15.550781 2.648438 -17.832031 3.828125 -19.84375 C 5.003906 -21.863281 6.628906 -23.4375 8.703125 -24.5625 C 10.785156 -25.6875 13.148438 -26.25 15.796875 -26.25 C 18.160156 -26.25 20.265625 -25.773438 22.109375 -24.828125 C 23.953125 -23.878906 25.382812 -22.507812 26.40625 -20.71875 L 22.828125 -18.40625 C 22.003906 -19.644531 20.988281 -20.578125 19.78125 -21.203125 C 18.570312 -21.828125 17.226562 -22.140625 15.75 -22.140625 C 14.050781 -22.140625 12.519531 -21.757812 11.15625 -21 C 9.800781 -20.25 8.738281 -19.175781 7.96875 -17.78125 C 7.207031 -16.394531 6.828125 -14.800781 6.828125 -13 C 6.828125 -11.164062 7.207031 -9.550781 7.96875 -8.15625 C 8.738281 -6.769531 9.800781 -5.703125 11.15625 -4.953125 C 12.519531 -4.203125 14.050781 -3.828125 15.75 -3.828125 C 17.226562 -3.828125 18.570312 -4.132812 19.78125 -4.75 C 20.988281 -5.375 22.003906 -6.3125 22.828125 -7.5625 L 26.40625 -5.296875 C 25.382812 -3.492188 23.953125 -2.109375 22.109375 -1.140625 C 20.265625 -0.179688 18.160156 0.296875 15.796875 0.296875 Z M 15.796875 0.296875 "/></g></g></g><g fill="#1f117b" fill-opacity="1"><g transform="translate(613.068989, 775.055843)"><g><path d="M 19.09375 -1.515625 C 18.40625 -0.929688 17.550781 -0.484375 16.53125 -0.171875 C 15.519531 0.140625 14.472656 0.296875 13.390625 0.296875 C 10.773438 0.296875 8.75 -0.40625 7.3125 -1.8125 C 5.875 -3.21875 5.15625 -5.234375 5.15625 -7.859375 L 5.15625 -22.140625 L 0.734375 -22.140625 L 0.734375 -26.015625 L 5.15625 -26.015625 L 5.15625 -31.703125 L 9.859375 -31.703125 L 9.859375 -26.015625 L 17.328125 -26.015625 L 17.328125 -22.140625 L 9.859375 -22.140625 L 9.859375 -8.046875 C 9.859375 -6.640625 10.207031 -5.5625 10.90625 -4.8125 C 11.613281 -4.0625 12.625 -3.6875 13.9375 -3.6875 C 15.375 -3.6875 16.601562 -4.09375 17.625 -4.90625 Z M 19.09375 -1.515625 "/></g></g></g><g fill="#1f117b" fill-opacity="1"><g transform="translate(633.383438, 775.055843)"><g><path d="M 4.46875 -26.015625 L 9.171875 -26.015625 L 9.171875 0 L 4.46875 0 Z M 6.828125 -31.015625 C 5.910156 -31.015625 5.148438 -31.304688 4.546875 -31.890625 C 3.941406 -32.484375 3.640625 -33.207031 3.640625 -34.0625 C 3.640625 -34.914062 3.941406 -35.644531 4.546875 -36.25 C 5.148438 -36.851562 5.910156 -37.15625 6.828125 -37.15625 C 7.742188 -37.15625 8.503906 -36.867188 9.109375 -36.296875 C 9.710938 -35.722656 10.015625 -35.007812 10.015625 -34.15625 C 10.015625 -33.269531 9.710938 -32.523438 9.109375 -31.921875 C 8.503906 -31.316406 7.742188 -31.015625 6.828125 -31.015625 Z M 6.828125 -31.015625 "/></g></g></g><g fill="#1f117b" fill-opacity="1"><g transform="translate(647.073612, 775.055843)"><g><path d="M 15.609375 0.296875 C 13.023438 0.296875 10.703125 -0.273438 8.640625 -1.421875 C 6.578125 -2.566406 4.960938 -4.144531 3.796875 -6.15625 C 2.640625 -8.164062 2.0625 -10.445312 2.0625 -13 C 2.0625 -15.550781 2.640625 -17.832031 3.796875 -19.84375 C 4.960938 -21.863281 6.578125 -23.4375 8.640625 -24.5625 C 10.703125 -25.6875 13.023438 -26.25 15.609375 -26.25 C 18.191406 -26.25 20.503906 -25.6875 22.546875 -24.5625 C 24.597656 -23.4375 26.203125 -21.863281 27.359375 -19.84375 C 28.523438 -17.832031 29.109375 -15.550781 29.109375 -13 C 29.109375 -10.445312 28.523438 -8.164062 27.359375 -6.15625 C 26.203125 -4.144531 24.597656 -2.566406 22.546875 -1.421875 C 20.503906 -0.273438 18.191406 0.296875 15.609375 0.296875 Z M 15.609375 -3.828125 C 17.273438 -3.828125 18.769531 -4.210938 20.09375 -4.984375 C 21.414062 -5.753906 22.453125 -6.832031 23.203125 -8.21875 C 23.960938 -9.613281 24.34375 -11.207031 24.34375 -13 C 24.34375 -14.800781 23.960938 -16.394531 23.203125 -17.78125 C 22.453125 -19.175781 21.414062 -20.25 20.09375 -21 C 18.769531 -21.757812 17.273438 -22.140625 15.609375 -22.140625 C 13.941406 -22.140625 12.441406 -21.757812 11.109375 -21 C 9.785156 -20.25 8.738281 -19.175781 7.96875 -17.78125 C 7.207031 -16.394531 6.828125 -14.800781 6.828125 -13 C 6.828125 -11.207031 7.207031 -9.613281 7.96875 -8.21875 C 8.738281 -6.832031 9.785156 -5.753906 11.109375 -4.984375 C 12.441406 -4.210938 13.941406 -3.828125 15.609375 -3.828125 Z M 15.609375 -3.828125 "/></g></g></g><g fill="#1f117b" fill-opacity="1"><g transform="translate(678.232251, 775.055843)"><g><path d="M 18.359375 -26.25 C 21.660156 -26.25 24.285156 -25.289062 26.234375 -23.375 C 28.179688 -21.46875 29.15625 -18.664062 29.15625 -14.96875 L 29.15625 0 L 24.4375 0 L 24.4375 -14.421875 C 24.4375 -16.941406 23.832031 -18.835938 22.625 -20.109375 C 21.414062 -21.390625 19.679688 -22.03125 17.421875 -22.03125 C 14.867188 -22.03125 12.851562 -21.285156 11.375 -19.796875 C 9.90625 -18.304688 9.171875 -16.171875 9.171875 -13.390625 L 9.171875 0 L 4.46875 0 L 4.46875 -26.015625 L 8.984375 -26.015625 L 8.984375 -22.078125 C 9.929688 -23.421875 11.210938 -24.453125 12.828125 -25.171875 C 14.453125 -25.890625 16.296875 -26.25 18.359375 -26.25 Z M 18.359375 -26.25 "/></g></g></g></svg>