<svg xmlns="http://www.w3.org/2000/svg" xmlns:xlink="http://www.w3.org/1999/xlink" width="1080" zoomAndPan="magnify" viewBox="0 0 810 809.999993" height="1080" preserveAspectRatio="xMidYMid meet" version="1.0"><defs><clipPath id="2b8d7c5318"><path d="M 79.402344 56.5625 L 730.402344 56.5625 L 730.402344 707.5625 L 79.402344 707.5625 Z M 79.402344 56.5625 " clip-rule="nonzero"/></clipPath><clipPath id="5a43a02049"><path d="M 404 56.5625 L 730.402344 56.5625 L 730.402344 613 L 404 613 Z M 404 56.5625 " clip-rule="nonzero"/></clipPath></defs><g clip-path="url(#2b8d7c5318)"><path fill="#4e3ec8" d="M 730.402344 382.0625 C 730.402344 387.390625 730.273438 392.714844 730.011719 398.035156 C 729.75 403.355469 729.359375 408.667969 728.835938 413.96875 C 728.316406 419.269531 727.664062 424.554688 726.882812 429.824219 C 726.097656 435.09375 725.1875 440.339844 724.148438 445.566406 C 723.109375 450.789062 721.945312 455.988281 720.648438 461.152344 C 719.355469 466.320312 717.933594 471.453125 716.386719 476.550781 C 714.839844 481.648438 713.171875 486.707031 711.375 491.722656 C 709.582031 496.738281 707.664062 501.707031 705.625 506.628906 C 703.589844 511.550781 701.429688 516.417969 699.152344 521.234375 C 696.875 526.046875 694.480469 530.804688 691.96875 535.503906 C 689.457031 540.203125 686.832031 544.835938 684.09375 549.40625 C 681.355469 553.972656 678.507812 558.472656 675.546875 562.902344 C 672.585938 567.332031 669.519531 571.683594 666.347656 575.964844 C 663.175781 580.242188 659.898438 584.441406 656.519531 588.558594 C 653.140625 592.675781 649.660156 596.710938 646.082031 600.65625 C 642.507812 604.601562 638.835938 608.460938 635.066406 612.226562 C 631.300781 615.992188 627.445312 619.664062 623.496094 623.242188 C 619.550781 626.820312 615.515625 630.300781 611.398438 633.679688 C 607.28125 637.058594 603.082031 640.335938 598.804688 643.507812 C 594.527344 646.679688 590.171875 649.746094 585.742188 652.707031 C 581.3125 655.667969 576.8125 658.515625 572.246094 661.253906 C 567.675781 663.992188 563.042969 666.617188 558.34375 669.128906 C 553.644531 671.640625 548.890625 674.035156 544.074219 676.3125 C 539.257812 678.589844 534.390625 680.746094 529.46875 682.785156 C 524.546875 684.824219 519.578125 686.742188 514.5625 688.535156 C 509.546875 690.332031 504.488281 692 499.390625 693.546875 C 494.292969 695.09375 489.160156 696.515625 483.992188 697.808594 C 478.828125 699.101562 473.628906 700.269531 468.40625 701.308594 C 463.179688 702.347656 457.933594 703.257812 452.664062 704.039062 C 447.394531 704.824219 442.109375 705.472656 436.808594 705.996094 C 431.507812 706.519531 426.195312 706.910156 420.875 707.171875 C 415.554688 707.433594 410.230469 707.5625 404.902344 707.5625 C 399.578125 707.5625 394.253906 707.433594 388.933594 707.171875 C 383.613281 706.910156 378.300781 706.519531 373 705.996094 C 367.699219 705.472656 362.414062 704.824219 357.144531 704.039062 C 351.875 703.257812 346.625 702.347656 341.402344 701.308594 C 336.175781 700.269531 330.980469 699.101562 325.8125 697.808594 C 320.648438 696.515625 315.515625 695.09375 310.417969 693.546875 C 305.320312 692 300.261719 690.332031 295.246094 688.535156 C 290.230469 686.742188 285.261719 684.824219 280.339844 682.785156 C 275.417969 680.746094 270.550781 678.589844 265.734375 676.3125 C 260.917969 674.035156 256.164062 671.640625 251.464844 669.128906 C 246.765625 666.617188 242.132812 663.992188 237.5625 661.253906 C 232.996094 658.515625 228.496094 655.667969 224.066406 652.707031 C 219.636719 649.746094 215.28125 646.679688 211.003906 643.507812 C 206.726562 640.335938 202.527344 637.058594 198.410156 633.679688 C 194.292969 630.300781 190.257812 626.820312 186.3125 623.242188 C 182.363281 619.664062 178.507812 615.992188 174.742188 612.226562 C 170.972656 608.460938 167.300781 604.601562 163.722656 600.65625 C 160.148438 596.710938 156.667969 592.675781 153.289062 588.558594 C 149.910156 584.441406 146.632812 580.242188 143.460938 575.964844 C 140.285156 571.683594 137.21875 567.332031 134.261719 562.902344 C 131.300781 558.472656 128.453125 553.972656 125.714844 549.402344 C 122.976562 544.835938 120.351562 540.203125 117.839844 535.503906 C 115.328125 530.804688 112.933594 526.046875 110.65625 521.234375 C 108.378906 516.417969 106.21875 511.550781 104.179688 506.628906 C 102.144531 501.707031 100.226562 496.738281 98.429688 491.722656 C 96.636719 486.707031 94.964844 481.648438 93.421875 476.550781 C 91.875 471.453125 90.453125 466.320312 89.160156 461.152344 C 87.863281 455.988281 86.699219 450.789062 85.660156 445.566406 C 84.621094 440.339844 83.707031 435.09375 82.925781 429.824219 C 82.144531 424.554688 81.492188 419.269531 80.972656 413.96875 C 80.449219 408.667969 80.058594 403.355469 79.796875 398.035156 C 79.535156 392.714844 79.402344 387.390625 79.402344 382.0625 C 79.402344 376.738281 79.535156 371.414062 79.796875 366.09375 C 80.058594 360.773438 80.449219 355.460938 80.972656 350.160156 C 81.492188 344.859375 82.144531 339.574219 82.925781 334.304688 C 83.707031 329.035156 84.621094 323.785156 85.660156 318.5625 C 86.699219 313.335938 87.863281 308.140625 89.160156 302.972656 C 90.453125 297.804688 91.875 292.675781 93.421875 287.578125 C 94.964844 282.476562 96.636719 277.421875 98.429688 272.40625 C 100.226562 267.390625 102.144531 262.421875 104.179688 257.5 C 106.21875 252.578125 108.378906 247.710938 110.65625 242.894531 C 112.933594 238.078125 115.328125 233.324219 117.839844 228.625 C 120.351562 223.925781 122.976562 219.292969 125.714844 214.722656 C 128.453125 210.152344 131.300781 205.65625 134.261719 201.226562 C 137.21875 196.796875 140.285156 192.441406 143.460938 188.164062 C 146.632812 183.886719 149.910156 179.6875 153.289062 175.570312 C 156.667969 171.449219 160.148438 167.417969 163.722656 163.472656 C 167.300781 159.523438 170.972656 155.667969 174.742188 151.902344 C 178.507812 148.132812 182.363281 144.460938 186.3125 140.882812 C 190.257812 137.308594 194.292969 133.828125 198.410156 130.449219 C 202.527344 127.070312 206.726562 123.792969 211.003906 120.621094 C 215.28125 117.445312 219.636719 114.378906 224.066406 111.421875 C 228.496094 108.460938 232.996094 105.613281 237.5625 102.875 C 242.132812 100.132812 246.765625 97.507812 251.464844 95 C 256.164062 92.488281 260.917969 90.09375 265.734375 87.816406 C 270.550781 85.539062 275.417969 83.378906 280.339844 81.339844 C 285.261719 79.300781 290.230469 77.386719 295.246094 75.589844 C 300.261719 73.796875 305.320312 72.125 310.417969 70.578125 C 315.515625 69.035156 320.648438 67.613281 325.8125 66.320312 C 330.980469 65.023438 336.175781 63.859375 341.402344 62.816406 C 346.625 61.777344 351.875 60.867188 357.144531 60.085938 C 362.414062 59.304688 367.699219 58.652344 373 58.132812 C 378.300781 57.609375 383.613281 57.21875 388.933594 56.957031 C 394.253906 56.695312 399.578125 56.5625 404.902344 56.5625 C 410.230469 56.5625 415.554688 56.695312 420.875 56.957031 C 426.195312 57.21875 431.507812 57.609375 436.808594 58.132812 C 442.109375 58.652344 447.394531 59.304688 452.664062 60.085938 C 457.933594 60.867188 463.179688 61.777344 468.40625 62.816406 C 473.628906 63.859375 478.828125 65.023438 483.992188 66.320312 C 489.160156 67.613281 494.292969 69.035156 499.390625 70.578125 C 504.488281 72.125 509.546875 73.796875 514.5625 75.589844 C 519.578125 77.386719 524.546875 79.300781 529.46875 81.339844 C 534.390625 83.378906 539.257812 85.539062 544.074219 87.816406 C 548.890625 90.09375 553.644531 92.488281 558.34375 95 C 563.042969 97.507812 567.675781 100.132812 572.246094 102.875 C 576.8125 105.613281 581.3125 108.460938 585.742188 111.421875 C 590.171875 114.378906 594.527344 117.445312 598.804688 120.621094 C 603.082031 123.792969 607.28125 127.070312 611.398438 130.449219 C 615.515625 133.828125 619.550781 137.308594 623.496094 140.882812 C 627.445312 144.460938 631.300781 148.132812 635.066406 151.902344 C 638.835938 155.667969 642.507812 159.523438 646.082031 163.472656 C 649.660156 167.417969 653.140625 171.449219 656.519531 175.570312 C 659.898438 179.6875 663.175781 183.886719 666.347656 188.164062 C 669.519531 192.441406 672.585938 196.796875 675.546875 201.226562 C 678.507812 205.65625 681.355469 210.152344 684.09375 214.722656 C 686.832031 219.292969 689.457031 223.925781 691.96875 228.625 C 694.480469 233.324219 696.875 238.078125 699.152344 242.894531 C 701.429688 247.710938 703.589844 252.578125 705.625 257.5 C 707.664062 262.421875 709.582031 267.390625 711.375 272.40625 C 713.171875 277.421875 714.839844 282.476562 716.386719 287.578125 C 717.933594 292.675781 719.355469 297.804688 720.648438 302.972656 C 721.945312 308.140625 723.109375 313.335938 724.148438 318.5625 C 725.1875 323.785156 726.097656 329.035156 726.882812 334.304688 C 727.664062 339.574219 728.316406 344.859375 728.835938 350.160156 C 729.359375 355.460938 729.75 360.773438 730.011719 366.09375 C 730.273438 371.414062 730.402344 376.738281 730.402344 382.0625 Z M 730.402344 382.0625 " fill-opacity="1" fill-rule="nonzero"/></g><g clip-path="url(#5a43a02049)"><path fill="#634cfd" d="M 730.402344 382.0625 C 730.398438 376.738281 730.261719 371.417969 729.992188 366.097656 C 729.726562 360.777344 729.328125 355.46875 728.800781 350.171875 C 728.273438 344.871094 727.617188 339.589844 726.832031 334.320312 C 726.042969 329.054688 725.128906 323.8125 724.085938 318.589844 C 723.042969 313.367188 721.871094 308.171875 720.574219 303.007812 C 719.273438 297.84375 717.851562 292.714844 716.300781 287.617188 C 714.753906 282.523438 713.078125 277.46875 711.28125 272.457031 C 709.484375 267.445312 707.566406 262.480469 705.523438 257.558594 C 703.484375 252.640625 701.324219 247.777344 699.042969 242.960938 C 696.765625 238.148438 694.367188 233.394531 691.855469 228.699219 C 689.34375 224.003906 686.71875 219.375 683.976562 214.808594 C 681.238281 210.242188 678.390625 205.742188 675.429688 201.316406 C 672.46875 196.890625 669.402344 192.539062 666.230469 188.261719 C 663.054688 183.984375 659.78125 179.789062 656.402344 175.671875 C 653.023438 171.554688 649.542969 167.523438 645.96875 163.578125 C 642.390625 159.632812 638.71875 155.777344 634.953125 152.011719 C 631.1875 148.246094 627.332031 144.578125 623.386719 141 C 619.441406 137.421875 615.410156 133.945312 611.296875 130.566406 C 607.179688 127.1875 602.984375 123.910156 598.707031 120.738281 C 594.429688 117.566406 590.078125 114.5 585.652344 111.539062 C 581.222656 108.578125 576.726562 105.730469 572.160156 102.988281 C 567.59375 100.25 562.964844 97.625 558.265625 95.113281 C 553.570312 92.597656 548.816406 90.203125 544.003906 87.925781 C 539.191406 85.644531 534.328125 83.484375 529.40625 81.445312 C 524.488281 79.402344 519.523438 77.484375 514.511719 75.6875 C 509.496094 73.890625 504.445312 72.214844 499.347656 70.664062 C 494.253906 69.117188 489.125 67.691406 483.960938 66.394531 C 478.792969 65.097656 473.601562 63.925781 468.378906 62.882812 C 463.15625 61.839844 457.914062 60.921875 452.644531 60.136719 C 447.378906 59.351562 442.097656 58.695312 436.796875 58.167969 C 431.496094 57.636719 426.1875 57.242188 420.871094 56.972656 C 415.550781 56.707031 410.230469 56.570312 404.902344 56.5625 L 404.902344 382.0625 L 634.882812 612.074219 C 638.660156 608.316406 642.339844 604.464844 645.921875 600.527344 C 649.507812 596.585938 652.992188 592.5625 656.378906 588.449219 C 659.765625 584.339844 663.046875 580.148438 666.226562 575.875 C 669.410156 571.601562 672.480469 567.253906 675.445312 562.828125 C 678.414062 558.402344 681.269531 553.910156 684.011719 549.34375 C 686.757812 544.78125 689.386719 540.148438 691.902344 535.457031 C 694.421875 530.761719 696.820312 526.007812 699.101562 521.195312 C 701.382812 516.382812 703.546875 511.515625 705.589844 506.597656 C 707.632812 501.679688 709.554688 496.710938 711.351562 491.699219 C 713.148438 486.683594 714.824219 481.628906 716.371094 476.535156 C 717.921875 471.4375 719.34375 466.308594 720.640625 461.140625 C 721.9375 455.976562 723.105469 450.78125 724.148438 445.554688 C 725.1875 440.332031 726.101562 435.085938 726.882812 429.816406 C 727.664062 424.550781 728.316406 419.265625 728.839844 413.964844 C 729.363281 408.664062 729.753906 403.351562 730.015625 398.035156 C 730.277344 392.714844 730.40625 387.390625 730.402344 382.0625 Z M 730.402344 382.0625 " fill-opacity="1" fill-rule="nonzero"/></g></svg>