<svg xmlns="http://www.w3.org/2000/svg" xmlns:xlink="http://www.w3.org/1999/xlink" width="1080" zoomAndPan="magnify" viewBox="0 0 810 809.999993" height="1080" preserveAspectRatio="xMidYMid meet" version="1.0"><defs><clipPath id="5b582af80d"><path d="M 74 99.453125 L 726 99.453125 L 726 695 L 74 695 Z M 74 99.453125 " clip-rule="nonzero"/></clipPath></defs><path fill="#1c0140" d="M 494.105469 213.679688 L 494.105469 367.445312 L 385.949219 469.171875 L 364.273438 329.472656 L 473.679688 217.328125 Z M 494.105469 213.679688 " fill-opacity="1" fill-rule="nonzero"/><path fill="#9fcdff" d="M 409.371094 475.1875 L 409.371094 375.804688 L 538.554688 557.839844 L 538.554688 656.441406 Z M 409.371094 475.1875 " fill-opacity="1" fill-rule="nonzero"/><path fill="#1c0140" d="M 520.171875 578.503906 L 520.171875 677.886719 C 398.011719 710.636719 254.933594 683.707031 164.875 634.472656 C 111.8125 605.472656 77.734375 554.191406 76.835938 499.316406 L 76.835938 394.855469 Z M 520.171875 578.503906 " fill-opacity="1" fill-rule="nonzero"/><path fill="#5284ff" d="M 723.46875 371.558594 C 723.496094 372.769531 723.523438 474.875 723.523438 474.875 C 722.898438 524.617188 693.933594 576.015625 631.527344 616.085938 C 603.03125 634.382812 571.554688 647.585938 538.554688 656.441406 L 538.554688 557.839844 Z M 690.378906 188.9375 L 456.554688 280.523438 L 494.105469 213.679688 C 383.285156 188.820312 252.992188 197.859375 161.585938 260.011719 C 32.402344 347.859375 65.023438 481.308594 164.875 535.894531 C 254.933594 585.132812 398.011719 612.046875 520.171875 579.285156 L 390.988281 397.25 L 444.503906 301.96875 L 444.503906 384.621094 C 444.503906 384.621094 582.199219 338.898438 723.523438 291.578125 L 723.523438 192.195312 Z M 690.378906 188.9375 " fill-opacity="1" fill-rule="nonzero"/><path fill="#f0f7fe" d="M 688.375 282.761719 C 746.644531 352.339844 735.597656 450.679688 631.527344 517.507812 C 603.03125 535.804688 571.554688 548.996094 538.554688 557.839844 L 409.371094 375.804688 C 409.371094 375.816406 547.066406 330.097656 688.375 282.761719 Z M 688.375 282.761719 " fill-opacity="1" fill-rule="nonzero"/><path fill="#9fcdff" d="M 723.523438 192.195312 C 582.210938 239.515625 444.503906 285.238281 444.503906 285.238281 L 547.625 101.667969 C 593.0625 111.863281 635.25 127.734375 670.121094 148.011719 C 691.683594 160.539062 709.574219 175.539062 723.523438 192.195312 Z M 723.523438 192.195312 " fill-opacity="1" fill-rule="nonzero"/><g clip-path="url(#5b582af80d)"><path fill="#1c0140" d="M 725.460938 292.972656 L 725.460938 191.492188 L 724.109375 189.890625 C 709.871094 173.15625 692.03125 158.507812 671.109375 146.34375 C 636.355469 126.148438 593.804688 110.039062 548.066406 99.792969 L 546.648438 99.453125 L 484.726562 209.695312 C 363.089844 184.835938 241.972656 203.003906 160.503906 258.410156 C 106.320312 295.25 76.265625 343.378906 74.921875 394.855469 L 74.898438 394.855469 L 74.898438 398.03125 C 74.898438 398.851562 74.886719 399.671875 74.898438 400.480469 L 74.898438 499.34375 C 75.796875 554.203125 109.914062 606.632812 163.9375 636.179688 C 223.9375 668.980469 312.914062 694.320312 405.195312 694.320312 C 443.722656 694.320312 482.851562 689.90625 520.664062 679.761719 L 522.109375 679.371094 L 522.109375 636.710938 L 535.746094 655.839844 L 537.75 658.652344 L 539.050781 658.300781 C 573.585938 649.042969 605.046875 635.382812 632.566406 617.714844 C 691.785156 579.6875 724.769531 528.96875 725.449219 474.863281 C 725.449219 471.253906 725.433594 397.367188 725.410156 376.78125 C 725.433594 375.269531 725.433594 373.761719 725.394531 372.25 C 725.394531 371.804688 725.394531 371.546875 725.394531 371.492188 L 725.371094 371.492188 C 724.757812 346.84375 717.277344 322.503906 703.472656 300.304688 Z M 701.335938 296.957031 C 697.863281 291.683594 694.050781 286.527344 689.859375 281.527344 L 689.015625 280.507812 L 687.765625 280.925781 C 592.035156 312.988281 497.152344 344.578125 446.445312 361.441406 L 446.445312 286.550781 C 446.652344 286.539062 446.859375 286.5 447.066406 286.433594 C 461.34375 281.695312 589.941406 238.984375 721.570312 194.890625 L 721.570312 290.171875 Z M 721.542969 376.792969 C 721.453125 382.613281 720.972656 388.449219 720.085938 394.269531 C 713.007812 440.730469 682.015625 482.78125 630.472656 515.882812 C 603.65625 533.097656 573 546.457031 539.351562 555.609375 L 412.46875 376.820312 C 431.621094 370.453125 558.75 328.222656 687.738281 285.027344 C 709.339844 311.226562 720.972656 341.621094 721.542969 372.457031 C 721.53125 373.332031 721.542969 374.816406 721.542969 376.792969 Z M 407.433594 417.070312 L 393.289062 397.132812 L 442.578125 309.390625 L 442.578125 362.730469 C 421.628906 369.695312 409.175781 373.824219 408.773438 373.96875 L 407.445312 374.410156 L 407.445312 417.070312 Z M 548.613281 103.878906 C 593.441406 114.0625 635.09375 129.898438 669.15625 149.691406 C 689.234375 161.359375 706.398438 175.34375 720.191406 191.269531 C 594.898438 233.226562 472.390625 273.933594 448.667969 281.8125 Z M 162.675781 261.628906 C 243.027344 206.988281 362.488281 188.976562 482.722656 213.265625 L 443.839844 282.488281 L 442.578125 284.742188 L 442.578125 301.476562 L 388.710938 397.382812 L 516.980469 578.140625 C 390.257812 611.125 249.324219 579.859375 165.8125 534.203125 C 114.714844 506.269531 81.429688 456.761719 78.917969 405 C 78.839844 403.476562 78.800781 401.953125 78.789062 400.429688 L 78.789062 398.03125 C 78.945312 346.6875 108.496094 298.46875 162.675781 261.628906 Z M 165.800781 632.765625 C 112.996094 603.910156 79.660156 552.757812 78.773438 499.316406 L 78.773438 431.082031 C 82.953125 448.492188 90.40625 465.394531 100.910156 480.957031 C 116.433594 503.964844 138.226562 523.550781 163.9375 537.601562 C 223.78125 570.324219 312.863281 595.707031 405.273438 595.707031 C 442.957031 595.707031 481.199219 591.488281 518.21875 581.8125 L 518.21875 676.390625 C 391.246094 709.921875 249.859375 678.722656 165.800781 632.765625 Z M 522.109375 630.03125 L 522.109375 577.605469 L 520.195312 575.964844 L 411.3125 422.527344 L 411.3125 381.898438 L 536.617188 558.476562 L 536.617188 650.386719 Z M 630.472656 614.457031 C 603.941406 631.503906 573.675781 644.757812 540.496094 653.886719 L 540.496094 559.324219 C 574.480469 550.0625 605.464844 536.558594 632.582031 519.148438 C 680.660156 488.273438 711.1875 449.625 721.570312 406.785156 C 721.582031 436.472656 721.597656 474.25 721.597656 474.863281 C 720.917969 527.589844 688.558594 577.164062 630.472656 614.457031 Z M 630.472656 614.457031 " fill-opacity="1" fill-rule="nonzero"/></g></svg>