<svg xmlns="http://www.w3.org/2000/svg" xmlns:xlink="http://www.w3.org/1999/xlink" width="1080" zoomAndPan="magnify" viewBox="0 0 810 809.999993" height="1080" preserveAspectRatio="xMidYMid meet" version="1.0"><defs><clipPath id="1508c32e4b"><path d="M 148 254 L 748.75 254 L 748.75 454 L 148 454 Z M 148 254 " clip-rule="nonzero"/></clipPath><clipPath id="d432c26c77"><path d="M 61 229.433594 L 452 229.433594 L 452 421 L 61 421 Z M 61 229.433594 " clip-rule="nonzero"/></clipPath><clipPath id="77efc3c075"><path d="M 389 229.433594 L 748.75 229.433594 L 748.75 449 L 389 449 Z M 389 229.433594 " clip-rule="nonzero"/></clipPath><clipPath id="eb629d412b"><path d="M 61.140625 343.203125 L 748.75 343.203125 L 748.75 580.359375 L 61.140625 580.359375 Z M 61.140625 343.203125 " clip-rule="nonzero"/></clipPath></defs><g clip-path="url(#1508c32e4b)"><path fill="#5284ff" d="M 404.945312 341.527344 L 620.980469 254.328125 C 701.78125 275.609375 748.75 307.664062 748.75 341.527344 C 748.75 403.4375 594.820312 453.617188 404.945312 453.617188 C 307.113281 453.617188 213.917969 440.03125 148.699219 416.257812 L 404.945312 341.527344 " fill-opacity="1" fill-rule="evenodd"/></g><g clip-path="url(#d432c26c77)"><path fill="#4e3ec8" d="M 404.945312 341.527344 L 159.980469 420.179688 C 96.640625 399.203125 61.140625 370.957031 61.140625 341.527344 C 61.140625 279.621094 215.070312 229.433594 404.945312 229.433594 C 420.566406 229.433594 436.171875 229.785156 451.648438 230.476562 L 404.945312 341.527344 " fill-opacity="1" fill-rule="evenodd"/></g><g clip-path="url(#77efc3c075)"><path fill="#634cfd" d="M 404.945312 341.527344 L 389.039062 229.550781 C 394.335938 229.476562 399.640625 229.433594 404.945312 229.433594 C 594.820312 229.433594 748.75 279.621094 748.75 341.527344 C 748.75 390.308594 651.996094 433.480469 509.472656 448.3125 L 404.945312 341.527344 " fill-opacity="1" fill-rule="evenodd"/></g><g clip-path="url(#eb629d412b)"><path fill="#2b3582" d="M 279.1875 440.628906 C 320.738281 446.71875 362.957031 449.488281 404.945312 449.488281 C 461.472656 449.488281 519.207031 444.527344 574.558594 432.824219 L 607.5 425.859375 L 608.761719 424.601562 L 614.4375 422.984375 C 625.570312 419.800781 636.613281 416.257812 647.476562 412.257812 C 681.78125 399.640625 726.6875 377.375 748.75 343.703125 L 748.75 456.671875 L 747.546875 456.671875 C 740.414062 491.808594 701.746094 522.289062 642.84375 543.960938 C 581.714844 566.453125 497.589844 580.359375 404.945312 580.359375 C 312.300781 580.359375 228.167969 566.453125 167.046875 543.960938 C 108.144531 522.289062 69.476562 491.808594 62.34375 456.671875 L 61.140625 456.671875 L 61.140625 343.703125 C 83.203125 377.371094 128.101562 399.640625 162.40625 412.257812 C 188.25 421.765625 215.207031 428.832031 242.1875 434.238281 L 248.664062 435.535156 L 279.1875 440.628906 " fill-opacity="1" fill-rule="nonzero"/></g></svg>