<svg xmlns="http://www.w3.org/2000/svg" xmlns:xlink="http://www.w3.org/1999/xlink" width="1080" zoomAndPan="magnify" viewBox="0 0 810 809.999993" height="1080" preserveAspectRatio="xMidYMid meet" version="1.0"><defs><clipPath id="985c826c7f"><path d="M 444 200 L 717.226562 200 L 717.226562 394 L 444 394 Z M 444 200 " clip-rule="nonzero"/></clipPath><clipPath id="1fd338978f"><path d="M 427 102.246094 L 621 102.246094 L 621 366 L 427 366 Z M 427 102.246094 " clip-rule="nonzero"/></clipPath></defs><g clip-path="url(#985c826c7f)"><path fill="#ffbd59" d="M 637.40625 200.539062 L 444.722656 393.234375 L 717.222656 393.234375 C 717.21875 323.492188 690.617188 253.75 637.40625 200.539062 Z M 637.40625 200.539062 " fill-opacity="1" fill-rule="evenodd"/></g><g clip-path="url(#1fd338978f)"><path fill="#ffbd59" d="M 498.1875 102.316406 L 427.648438 365.585938 L 620.335938 172.890625 C 585.230469 137.789062 542.933594 114.261719 498.1875 102.316406 Z M 498.1875 102.316406 " fill-opacity="1" fill-rule="evenodd"/></g><path fill="#4e3ec8" d="M 716.644531 427.140625 L 444.144531 427.140625 L 636.832031 619.832031 C 690.039062 566.621094 716.644531 496.878906 716.644531 427.140625 Z M 716.644531 427.140625 " fill-opacity="1" fill-rule="evenodd"/><path fill="#4e3ec8" d="M 198.972656 215.519531 C 270.285156 144.203125 371.292969 120.683594 462.195312 144.953125 L 391.65625 408.214844 L 584.34375 600.90625 C 477.925781 707.328125 305.390625 707.328125 198.972656 600.90625 C 92.554688 494.484375 92.554688 321.941406 198.972656 215.519531 Z M 198.972656 215.519531 " fill-opacity="1" fill-rule="evenodd"/></svg>