<svg xmlns="http://www.w3.org/2000/svg" xmlns:xlink="http://www.w3.org/1999/xlink" width="1080" zoomAndPan="magnify" viewBox="0 0 810 809.999993" height="1080" preserveAspectRatio="xMidYMid meet" version="1.0"><defs><g/><clipPath id="0d1bc03a4f"><path d="M 378 63.59375 L 758.699219 63.59375 L 758.699219 425 L 378 425 Z M 378 63.59375 " clip-rule="nonzero"/></clipPath><clipPath id="ba3b399ee6"><path d="M 51.355469 67 L 746 67 L 746 723.527344 L 51.355469 723.527344 Z M 51.355469 67 " clip-rule="nonzero"/></clipPath></defs><path fill="#ffffff" d="M 420.210938 377.027344 C 419.683594 380.722656 419.683594 383.890625 419.949219 386.132812 C 420.34375 390.492188 420.609375 394.054688 423.25 396.429688 C 424.835938 397.882812 426.683594 398.410156 427.871094 398.542969 L 427.871094 403.164062 C 427.605469 408.046875 430.378906 412.007812 433.550781 412.929688 C 437.640625 413.984375 443.585938 410.027344 444.113281 403.164062 C 443.585938 401.050781 443.054688 398.277344 442.921875 395.109375 C 442.792969 391.148438 443.453125 387.71875 444.113281 385.34375 C 446.355469 384.417969 447.28125 382.175781 446.621094 380.722656 C 446.09375 379.402344 444.375 379.007812 444.113281 379.007812 C 442.394531 378.476562 439.886719 377.554688 437.246094 375.574219 C 435.265625 373.992188 433.8125 372.40625 433.019531 371.085938 C 432.359375 372.140625 430.511719 374.519531 427.210938 375.96875 C 424.175781 377.421875 421.402344 377.289062 420.210938 377.027344 Z M 229.28125 416.496094 L 198.515625 586.90625 C 201.816406 587.832031 206.171875 588.753906 211.191406 589.148438 C 216.738281 589.546875 221.359375 589.019531 224.921875 588.359375 C 230.207031 567.371094 235.355469 545.457031 240.109375 522.492188 C 245.390625 496.75 249.878906 471.933594 253.578125 448.175781 C 255.820312 494.109375 257.933594 539.914062 260.179688 585.851562 C 263.347656 586.640625 267.042969 587.171875 271.136719 587.566406 C 277.34375 587.960938 282.890625 587.433594 287.113281 586.773438 C 288.304688 563.144531 288.832031 538.460938 288.832031 512.722656 C 288.699219 478.136719 287.378906 445.269531 285.132812 414.382812 C 276.550781 415.703125 266.78125 416.757812 256.085938 417.152344 C 246.3125 417.417969 237.335938 417.152344 229.28125 416.496094 Z M 271.007812 303.503906 C 269.421875 305.480469 269.15625 307.460938 269.023438 308.386719 C 267.441406 307.726562 265.59375 308.519531 264.933594 310.234375 C 264.273438 311.816406 265.0625 313.667969 266.78125 314.328125 C 266.914062 315.644531 267.042969 318.8125 264.800781 321.191406 C 263.082031 323.039062 260.839844 323.566406 257.667969 324.09375 C 254.632812 324.621094 251.992188 324.492188 250.40625 324.359375 L 250.40625 332.015625 C 251.992188 332.804688 255.027344 333.863281 258.988281 333.863281 C 262.6875 333.863281 265.59375 332.804688 267.308594 332.015625 L 267.308594 325.941406 C 271.007812 326.339844 272.855469 325.28125 273.648438 324.621094 C 276.289062 322.378906 276.023438 318.285156 275.628906 310.628906 C 275.363281 306.539062 274.96875 303.238281 274.570312 300.996094 C 273.515625 301.125 272.195312 301.917969 271.007812 303.503906 Z M 468.671875 426.394531 L 452.828125 429.5625 L 382.449219 445.929688 L 375.054688 456.359375 L 376.375 463.089844 L 477.386719 463.75 L 479.101562 454.246094 Z M 447.808594 475.628906 L 411.496094 477.875 C 388.917969 475.367188 383.109375 483.417969 380.070312 486.851562 C 377.035156 490.28125 375.1875 503.21875 375.1875 503.21875 L 375.980469 546.382812 L 375.054688 585.980469 L 398.292969 587.039062 L 401.726562 504.40625 L 409.386719 506.386719 L 411.894531 587.039062 L 435.398438 587.039062 L 435.398438 506.386719 L 449.65625 505.460938 L 463.125 495.296875 L 468.011719 479.0625 Z M 320.523438 463.882812 L 320.523438 595.222656 L 325.011719 595.222656 L 325.011719 471.933594 L 503.925781 471.933594 L 503.925781 595.222656 L 549.746094 595.222656 L 549.746094 463.882812 Z M 433.152344 334.390625 L 308.109375 334.390625 L 308.109375 247.269531 L 433.152344 247.269531 Z M 309.035156 358.148438 C 306.65625 358.148438 304.675781 360.128906 304.675781 362.507812 L 304.675781 390.621094 C 304.675781 393 306.65625 394.976562 309.035156 394.976562 L 388.917969 394.976562 C 389.316406 394.976562 389.578125 395.109375 389.84375 395.375 L 396.445312 403.691406 L 396.179688 396.167969 C 396.179688 395.902344 396.3125 395.507812 396.445312 395.375 C 396.710938 395.109375 396.972656 394.976562 397.238281 394.976562 C 399.613281 394.976562 401.59375 393 401.59375 390.621094 L 401.59375 362.507812 C 401.59375 360.128906 399.613281 358.148438 397.238281 358.148438 L 309.035156 358.148438 " fill-opacity="1" fill-rule="nonzero"/><path fill="#0f0e0c" d="M 308.636719 333.203125 L 431.4375 333.203125 L 431.4375 248.328125 L 308.636719 248.328125 Z M 432.625 335.578125 L 307.582031 335.578125 C 306.921875 335.578125 306.394531 335.050781 306.394531 334.390625 L 306.394531 247.269531 C 306.394531 246.609375 306.921875 246.082031 307.582031 246.082031 L 432.625 246.082031 C 433.285156 246.082031 433.8125 246.609375 433.8125 247.269531 L 433.8125 334.390625 C 433.679688 335.050781 433.152344 335.578125 432.625 335.578125 Z M 403.3125 544.796875 L 410.175781 511.269531 L 410.175781 510.875 L 451.902344 510.875 L 451.902344 511.269531 L 459.691406 544.796875 Z M 475.140625 594.828125 L 455.601562 511.007812 L 466.03125 511.007812 C 467.484375 510.476562 468.539062 509.289062 468.671875 507.96875 C 468.9375 505.992188 467.085938 503.746094 464.183594 503.480469 C 461.011719 502.953125 457.84375 502.558594 454.808594 502.03125 L 405.425781 502.03125 L 399.878906 504.671875 L 401.59375 511.007812 L 406.746094 511.007812 L 398.160156 552.851562 C 398.03125 553.773438 398.558594 554.699219 399.480469 554.832031 L 399.878906 554.832031 C 400.671875 554.832031 401.332031 554.300781 401.59375 553.511719 L 402.652344 548.363281 L 460.75 548.363281 L 471.839844 595.75 C 471.972656 596.542969 472.765625 597.070312 473.558594 597.070312 L 473.953125 597.070312 C 474.746094 596.675781 475.273438 595.75 475.140625 594.828125 " fill-opacity="1" fill-rule="nonzero"/><g clip-path="url(#0d1bc03a4f)"><path fill="#634cfd" d="M 541.558594 120.683594 C 508.019531 101.804688 476.992188 93.886719 456.128906 90.324219 C 457.582031 84.78125 458.902344 79.238281 460.351562 73.6875 C 450.976562 69.996094 437.511719 65.769531 421.003906 64.183594 C 403.445312 62.601562 388.785156 64.449219 378.75 66.5625 C 380.070312 107.617188 381.261719 148.664062 382.582031 189.71875 C 390.238281 189.847656 398.820312 190.507812 408.066406 191.828125 C 415.988281 193.019531 423.25 194.46875 429.851562 196.054688 C 444.773438 199.75 464.578125 206.351562 485.96875 218.625 C 504.058594 229.054688 517.921875 240.539062 527.957031 250.175781 C 554.367188 224.300781 580.773438 198.429688 607.183594 172.6875 C 593.449219 157.777344 571.929688 137.84375 541.558594 120.683594 Z M 758.238281 424.679688 L 594.375 414.515625 C 595.035156 395.242188 593.714844 360.128906 576.8125 321.058594 C 561.894531 286.472656 541.292969 263.109375 527.828125 250.304688 C 566.648438 212.289062 605.335938 174.40625 644.15625 136.386719 C 667.660156 158.960938 707.402344 203.183594 733.546875 270.761719 C 758.632812 335.445312 759.824219 392.46875 758.238281 424.675781 " fill-opacity="1" fill-rule="nonzero"/></g><path fill="#634cfd" d="M 464.84375 342.707031 L 464.84375 367.257812 L 470.386719 361.1875 L 500.230469 361.1875 L 500.230469 342.707031 Z M 308.769531 389.300781 L 399.21875 389.300781 C 396.972656 384.152344 393.277344 377.949219 388.65625 377.816406 C 383.375 377.6875 381.789062 385.34375 376.242188 385.871094 C 367.132812 386.792969 362.378906 365.9375 353.136719 366.597656 C 345.34375 367.125 340.722656 377.027344 336.761719 382.570312 C 336.101562 383.496094 335.441406 384.417969 334.519531 384.945312 C 327.652344 389.566406 320.652344 375.308594 313.257812 378.875 C 310.089844 380.589844 309.035156 385.472656 308.769531 389.300781 Z M 368.453125 301.523438 L 357.097656 301.523438 L 357.097656 318.152344 L 368.453125 318.152344 Z M 384.429688 296.902344 L 373.074219 296.902344 L 373.074219 318.152344 L 384.429688 318.152344 Z M 400.011719 287.265625 L 388.65625 287.265625 L 388.65625 318.152344 L 400.011719 318.152344 Z M 416.25 268.785156 L 404.894531 268.785156 L 404.894531 318.023438 L 416.25 318.023438 Z M 351.550781 317.230469 L 340.195312 317.230469 L 340.195312 288.585938 L 351.550781 288.585938 L 351.550781 317.230469 " fill-opacity="1" fill-rule="nonzero"/><path fill="#ffffff" d="M 337.027344 289.378906 C 343.101562 280.929688 346.402344 276.839844 347.0625 277.234375 C 347.589844 277.5 346.136719 281.195312 342.574219 288.058594 C 343.234375 288.191406 349.703125 289.378906 349.964844 292.148438 C 350.097656 292.941406 349.570312 293.734375 346.796875 296.636719 C 344.816406 298.75 343.101562 300.464844 341.78125 301.652344 C 340.855469 300.863281 339.800781 300.070312 338.347656 299.277344 C 337.289062 298.484375 336.101562 298.089844 335.046875 297.695312 C 334.914062 296.375 334.78125 294.527344 334.519531 292.148438 C 333.859375 286.210938 333.199219 283.4375 333.726562 283.304688 C 333.988281 283.175781 334.78125 284.230469 337.027344 289.378906 " fill-opacity="1" fill-rule="nonzero"/><g clip-path="url(#ba3b399ee6)"><path fill="#0f0e0c" d="M 471.445312 356.699219 L 495.210938 356.699219 L 495.210938 355.511719 L 471.445312 355.511719 Z M 471.445312 353.132812 L 495.210938 353.132812 L 495.210938 351.945312 L 471.445312 351.945312 Z M 495.210938 348.382812 L 471.445312 348.382812 L 471.445312 349.570312 L 495.210938 349.570312 Z M 311.410156 374.121094 C 316.296875 372.40625 321.183594 371.878906 326.066406 372.273438 C 333.066406 372.933594 337.027344 375.707031 340.855469 378.347656 C 344.554688 380.855469 347.984375 383.363281 353.664062 383.363281 L 353.796875 383.363281 C 359.339844 383.363281 362.773438 380.984375 366.472656 378.476562 C 370.433594 375.839844 374.394531 373.066406 381.65625 372.40625 C 386.277344 372.011719 390.898438 372.539062 395.652344 373.992188 C 396.3125 374.121094 396.839844 373.859375 397.105469 373.199219 C 397.238281 372.539062 396.972656 372.011719 396.3125 371.746094 C 391.296875 370.164062 386.277344 369.632812 381.390625 370.03125 C 373.601562 370.691406 369.113281 373.859375 365.152344 376.5 C 361.585938 378.875 358.550781 381.117188 353.664062 380.984375 C 348.777344 380.984375 345.742188 378.875 342.175781 376.367188 C 338.347656 373.726562 333.859375 370.558594 326.199219 369.898438 C 321.050781 369.371094 315.898438 370.03125 310.617188 371.878906 C 309.957031 372.140625 309.695312 372.671875 309.957031 373.332031 C 310.222656 373.992188 310.882812 374.386719 311.410156 374.121094 Z M 397.371094 358.148438 L 309.035156 358.148438 C 306.65625 358.148438 304.675781 360.128906 304.675781 362.507812 L 304.675781 390.621094 C 304.675781 393 306.65625 394.976562 309.035156 394.976562 L 388.917969 394.976562 C 389.316406 394.976562 389.578125 395.109375 389.84375 395.375 L 396.445312 403.691406 L 396.179688 396.167969 C 396.179688 395.902344 396.3125 395.507812 396.445312 395.375 C 396.710938 395.109375 396.972656 394.976562 397.238281 394.976562 C 399.613281 394.976562 401.59375 393 401.59375 390.621094 L 401.59375 362.507812 C 401.726562 360 399.746094 358.148438 397.371094 358.148438 Z M 309.035156 355.773438 L 397.371094 355.773438 C 401.066406 355.773438 404.105469 358.808594 404.105469 362.507812 L 404.105469 390.621094 C 404.105469 393.921875 401.726562 396.695312 398.558594 397.222656 L 398.820312 407.121094 C 398.820312 407.648438 398.558594 408.046875 398.03125 408.179688 C 397.898438 408.179688 397.765625 408.308594 397.632812 408.308594 C 397.238281 408.308594 396.972656 408.179688 396.710938 407.914062 L 388.257812 397.355469 L 308.902344 397.355469 C 305.203125 397.355469 302.167969 394.316406 302.167969 390.621094 L 302.167969 362.507812 C 302.300781 358.808594 305.335938 355.773438 309.035156 355.773438 Z M 434.078125 586.113281 L 434.078125 583.472656 L 412.6875 583.472656 C 412.6875 584.398438 412.820312 585.191406 412.820312 586.113281 Z M 427.210938 581.097656 L 433.945312 581.097656 L 433.8125 501.503906 C 433.8125 500.84375 434.339844 500.3125 435 500.3125 C 435.660156 500.3125 436.191406 500.84375 436.191406 501.503906 L 436.191406 505.460938 C 440.941406 505.992188 445.695312 505.332031 449.789062 503.480469 C 454.675781 501.371094 458.242188 497.804688 460.75 494.109375 L 436.058594 494.375 C 435 494.375 431.304688 494.375 428.664062 497.144531 C 427.34375 498.464844 426.683594 500.050781 426.417969 501.105469 Z M 408.460938 505.199219 C 408.328125 502.691406 408.195312 500.183594 407.800781 497.675781 L 407.800781 497.542969 C 407.800781 497.015625 407.667969 496.484375 407.535156 495.828125 C 405.160156 494.769531 402.121094 493.976562 399.746094 495.167969 C 396.839844 496.75 395.917969 500.972656 395.652344 504.40625 C 394.464844 515.625 393.539062 544.929688 393.144531 581.230469 L 397.371094 581.230469 L 400.671875 500.84375 C 400.671875 500.183594 401.332031 499.652344 401.859375 499.785156 C 402.519531 499.785156 403.046875 500.3125 402.914062 500.972656 L 402.78125 503.878906 Z M 397.105469 586.113281 L 397.238281 583.472656 L 376.242188 583.472656 C 376.242188 584.398438 376.242188 585.191406 376.109375 586.113281 Z M 436.191406 507.839844 L 436.320312 582.285156 L 436.320312 587.300781 C 436.320312 587.566406 436.191406 587.960938 435.925781 588.09375 C 435.660156 588.359375 435.398438 588.488281 435.132812 588.488281 L 433.945312 588.488281 L 433.945312 595.355469 L 403.3125 595.355469 C 403.707031 594.429688 404.234375 593.109375 405.425781 592.1875 C 406.875 591 408.328125 590.601562 409.914062 590.207031 C 411.101562 589.808594 412.6875 589.28125 414.402344 588.621094 L 411.496094 588.621094 C 410.835938 588.621094 410.441406 588.09375 410.308594 587.566406 C 409.648438 573.96875 408.855469 560.507812 407.933594 547.570312 C 407.40625 540.179688 407.667969 532.652344 407.933594 525.261719 C 408.195312 519.585938 408.328125 513.644531 408.195312 507.839844 L 402.386719 506.386719 L 399.085938 587.566406 C 399.085938 588.226562 398.558594 588.621094 397.898438 588.621094 L 395.785156 588.621094 L 395.785156 595.484375 L 365.152344 595.484375 C 365.546875 594.5625 366.074219 593.242188 367.265625 592.316406 C 368.714844 591.128906 370.167969 590.734375 371.753906 590.339844 C 372.941406 589.941406 374.527344 589.414062 376.242188 588.753906 L 374.527344 588.753906 C 374.261719 588.753906 373.867188 588.621094 373.734375 588.359375 C 373.46875 588.09375 373.339844 587.832031 373.46875 587.566406 C 374.527344 563.675781 374.660156 540.441406 374.128906 518.53125 L 374.128906 516.945312 C 373.734375 502.820312 373.339844 490.679688 382.050781 483.023438 C 387.996094 477.609375 397.371094 475.628906 408.855469 477.347656 C 409.515625 477.476562 409.914062 478.007812 409.78125 478.667969 C 409.648438 479.328125 409.121094 479.722656 408.460938 479.589844 C 400.933594 478.535156 390.371094 478.402344 383.503906 484.738281 C 375.714844 491.734375 375.980469 503.480469 376.375 516.945312 L 376.375 518.53125 C 376.902344 538.59375 376.769531 559.847656 375.980469 581.625 L 390.503906 581.625 C 390.898438 545.328125 391.824219 515.890625 393.011719 504.539062 C 393.277344 501.898438 393.9375 495.828125 398.425781 493.582031 C 400.800781 492.394531 403.707031 492.394531 407.140625 493.714844 C 407.007812 490.414062 407.535156 486.320312 410.308594 482.890625 C 413.082031 479.328125 417.835938 477.214844 424.042969 476.6875 C 424.703125 476.6875 425.230469 477.082031 425.230469 477.742188 C 425.230469 478.402344 424.835938 478.929688 424.175781 478.929688 C 418.628906 479.328125 414.402344 481.175781 412.027344 484.210938 C 409.515625 487.511719 409.253906 491.601562 409.515625 494.636719 C 409.914062 495.035156 409.914062 495.429688 409.78125 495.957031 C 409.78125 495.957031 409.78125 496.089844 409.648438 496.089844 C 409.648438 496.617188 409.78125 497.015625 409.78125 497.410156 L 409.78125 497.675781 C 410.96875 506.914062 410.574219 516.285156 410.308594 525.394531 C 410.046875 532.652344 409.78125 540.179688 410.308594 547.4375 C 411.101562 558.527344 411.761719 569.878906 412.289062 581.496094 L 424.703125 581.496094 L 423.777344 501.371094 L 423.777344 501.105469 C 424.304688 499.125 425.363281 497.410156 426.683594 495.957031 C 430.117188 492.527344 434.472656 492.527344 435.792969 492.527344 L 461.9375 492.261719 C 465.503906 486.058594 466.296875 479.855469 466.425781 479.457031 C 466.558594 478.796875 467.085938 478.402344 467.746094 478.402344 C 468.40625 478.535156 468.804688 479.0625 468.804688 479.722656 C 468.804688 480.25 467.878906 486.851562 463.917969 493.714844 C 463.917969 493.847656 463.785156 493.976562 463.652344 494.109375 C 460.882812 498.730469 456.789062 503.21875 450.714844 505.859375 C 447.148438 507.441406 443.320312 508.234375 439.359375 508.234375 C 438.300781 507.96875 437.246094 507.839844 436.191406 507.839844 Z M 548.6875 465.070312 L 321.710938 465.070312 L 321.710938 594.035156 L 323.953125 594.035156 L 323.953125 471.933594 C 323.953125 471.273438 324.484375 470.746094 325.144531 470.746094 L 504.058594 470.746094 C 504.71875 470.746094 505.246094 471.273438 505.246094 471.933594 L 505.246094 594.035156 L 548.820312 594.035156 Z M 377.429688 462.828125 L 388.523438 462.828125 L 383.109375 448.042969 C 381.65625 449.625 380.335938 451.34375 379.015625 453.058594 C 376.640625 456.09375 376.375 456.886719 376.242188 457.679688 C 375.847656 459.527344 376.640625 461.375 377.429688 462.828125 Z M 470.257812 427.316406 C 471.972656 431.675781 473.425781 434.972656 474.085938 436.558594 L 474.746094 438.011719 C 479.234375 448.703125 480.6875 452.398438 480.160156 457.546875 C 480.027344 459.261719 479.632812 460.976562 478.972656 462.695312 L 549.878906 462.695312 C 550.539062 462.695312 551.066406 463.222656 551.066406 463.882812 L 551.066406 595.222656 C 551.066406 595.882812 550.539062 596.410156 549.878906 596.410156 L 504.058594 596.410156 C 503.398438 596.410156 502.871094 595.882812 502.871094 595.222656 L 502.871094 473.121094 L 326.199219 473.121094 L 326.199219 595.222656 C 326.199219 595.882812 325.671875 596.410156 325.011719 596.410156 L 320.519531 596.410156 C 319.859375 596.410156 319.332031 595.882812 319.332031 595.222656 L 319.332031 463.882812 C 319.332031 463.222656 319.859375 462.695312 320.519531 462.695312 L 374.789062 462.695312 C 373.867188 460.714844 373.601562 458.867188 374 457.019531 C 374.261719 455.832031 374.789062 454.773438 377.167969 451.472656 C 378.621094 449.496094 380.203125 447.644531 381.789062 445.796875 C 381.921875 445.667969 382.050781 445.535156 382.316406 445.535156 L 372.679688 418.738281 C 389.050781 418.605469 405.292969 418.605469 421.664062 418.472656 C 426.15625 432.730469 430.644531 447.117188 435.132812 461.375 L 464.050781 461.636719 L 464.050781 462.5625 L 476.726562 462.5625 C 477.386719 460.847656 477.78125 459 478.046875 457.148438 C 478.441406 452.53125 476.992188 449.097656 472.765625 438.800781 L 472.105469 437.351562 C 471.445312 435.632812 469.992188 432.335938 468.277344 428.109375 C 468.011719 427.582031 468.277344 426.789062 468.9375 426.660156 C 469.332031 426.527344 469.992188 426.789062 470.257812 427.316406 Z M 454.675781 380.328125 C 453.75 378.476562 451.507812 375.96875 445.828125 374.648438 C 444.113281 368.183594 439.359375 363.296875 433.679688 362.507812 C 428.796875 361.714844 424.964844 364.222656 423.910156 364.882812 C 417.703125 369.105469 417.308594 376.5 417.308594 377.289062 C 417.703125 378.875 418.230469 380.328125 418.628906 381.910156 C 418.628906 383.363281 418.628906 384.8125 418.761719 386.265625 C 419.15625 390.753906 419.421875 394.582031 422.457031 397.355469 C 423.644531 398.410156 425.097656 399.203125 426.683594 399.597656 L 426.683594 403.292969 C 426.683594 403.953125 427.210938 404.480469 427.871094 404.480469 C 428.53125 404.480469 429.058594 403.953125 429.058594 403.292969 L 429.058594 398.675781 C 429.058594 398.144531 428.664062 397.617188 428.136719 397.484375 C 426.550781 397.222656 425.097656 396.5625 424.042969 395.636719 C 421.664062 393.527344 421.53125 390.359375 421.136719 386.003906 C 420.871094 383.496094 421.003906 380.855469 421.269531 378.214844 C 422.984375 378.347656 425.363281 378.082031 427.738281 377.027344 C 430.117188 375.96875 431.964844 374.386719 433.019531 373.066406 C 434.078125 374.386719 435.265625 375.441406 436.585938 376.5 C 438.699219 378.214844 441.207031 379.402344 443.847656 380.0625 C 443.847656 380.0625 445.167969 380.328125 445.433594 381.117188 C 445.828125 382.042969 445.167969 383.625 443.585938 384.285156 C 443.320312 384.417969 443.054688 384.683594 442.921875 385.078125 C 442 388.378906 441.601562 391.808594 441.734375 395.242188 C 441.867188 398.015625 442.261719 400.785156 442.921875 403.558594 C 443.054688 404.085938 443.585938 404.351562 443.980469 404.351562 L 444.246094 404.351562 C 444.773438 404.21875 445.035156 403.820312 445.035156 403.425781 C 448.207031 403.820312 454.148438 405.140625 459.824219 409.761719 C 462.332031 411.875 464.316406 414.117188 465.765625 416.363281 C 469.066406 415.304688 469.859375 414.25 469.992188 413.457031 C 470.257812 411.742188 467.085938 411.082031 465.371094 407.78125 C 463.390625 404.085938 465.898438 401.84375 464.050781 398.804688 C 461.9375 395.242188 458.109375 396.957031 455.730469 393.527344 C 453.089844 389.566406 457.183594 385.078125 454.675781 380.328125 Z M 420.871094 258.359375 C 413.480469 256.378906 406.347656 256.246094 399.878906 258.09375 C 391.164062 260.46875 386.675781 265.355469 382.582031 269.710938 C 378.882812 273.671875 375.714844 277.101562 370.035156 277.761719 C 364.09375 278.554688 360 275.78125 355.117188 272.613281 C 349.964844 269.183594 344.15625 265.355469 335.308594 265.75 C 329.105469 266.015625 323.03125 268.390625 317.089844 272.613281 C 316.558594 273.011719 316.429688 273.671875 316.824219 274.199219 C 317.21875 274.726562 317.878906 274.859375 318.410156 274.460938 C 323.953125 270.503906 329.632812 268.390625 335.441406 268.125 C 343.496094 267.730469 348.777344 271.292969 353.929688 274.59375 C 358.417969 277.5 362.644531 280.269531 368.1875 280.269531 C 368.847656 280.269531 369.640625 280.269531 370.433594 280.136719 C 376.902344 279.347656 380.46875 275.519531 384.296875 271.292969 C 388.257812 266.9375 392.484375 262.582031 400.539062 260.339844 C 406.613281 258.621094 413.347656 258.753906 420.34375 260.601562 C 421.003906 260.734375 421.53125 260.339844 421.796875 259.808594 C 421.796875 259.148438 421.402344 258.492188 420.871094 258.359375 Z M 365.945312 317.496094 L 354.589844 317.496094 C 353.929688 317.496094 353.398438 318.023438 353.398438 318.683594 C 353.398438 319.34375 353.929688 319.871094 354.589844 319.871094 L 365.945312 319.871094 C 366.605469 319.871094 367.132812 319.34375 367.132812 318.683594 C 367.132812 318.023438 366.605469 317.496094 365.945312 317.496094 Z M 381.789062 317.496094 L 370.433594 317.496094 C 369.773438 317.496094 369.246094 318.023438 369.246094 318.683594 C 369.246094 319.34375 369.773438 319.871094 370.433594 319.871094 L 381.789062 319.871094 C 382.449219 319.871094 382.976562 319.34375 382.976562 318.683594 C 382.976562 318.023438 382.449219 317.496094 381.789062 317.496094 Z M 397.5 317.496094 L 386.144531 317.496094 C 385.484375 317.496094 384.957031 318.023438 384.957031 318.683594 C 384.957031 319.34375 385.484375 319.871094 386.144531 319.871094 L 397.5 319.871094 C 398.160156 319.871094 398.691406 319.34375 398.691406 318.683594 C 398.691406 318.023438 398.03125 317.496094 397.5 317.496094 Z M 402.386719 319.738281 L 413.742188 319.738281 C 414.402344 319.738281 414.929688 319.210938 414.929688 318.550781 C 414.929688 317.890625 414.402344 317.363281 413.742188 317.363281 L 402.386719 317.363281 C 401.726562 317.363281 401.199219 317.890625 401.199219 318.550781 C 401.199219 319.210938 401.726562 319.738281 402.386719 319.738281 Z M 364.753906 299.410156 L 355.777344 299.410156 L 355.777344 313.796875 L 364.753906 313.796875 Z M 367.132812 314.855469 C 367.132812 315.515625 366.605469 316.042969 365.945312 316.042969 L 354.589844 316.042969 C 353.929688 316.042969 353.398438 315.515625 353.398438 314.855469 L 353.398438 298.222656 C 353.398438 297.5625 353.929688 297.035156 354.589844 297.035156 L 365.945312 297.035156 C 366.605469 297.035156 367.132812 297.5625 367.132812 298.222656 Z M 380.730469 294.789062 L 371.753906 294.789062 L 371.753906 313.667969 L 380.730469 313.667969 Z M 382.976562 314.855469 C 382.976562 315.515625 382.449219 316.042969 381.789062 316.042969 L 370.433594 316.042969 C 369.773438 316.042969 369.246094 315.515625 369.246094 314.855469 L 369.246094 293.601562 C 369.246094 292.941406 369.773438 292.414062 370.433594 292.414062 L 381.789062 292.414062 C 382.449219 292.414062 382.976562 292.941406 382.976562 293.601562 Z M 396.3125 285.152344 L 387.335938 285.152344 L 387.335938 313.667969 L 396.3125 313.667969 Z M 398.558594 314.855469 C 398.558594 315.515625 398.03125 316.042969 397.371094 316.042969 L 386.015625 316.042969 C 385.355469 316.042969 384.824219 315.515625 384.824219 314.855469 L 384.824219 283.964844 C 384.824219 283.304688 385.355469 282.777344 386.015625 282.777344 L 397.371094 282.777344 C 398.03125 282.777344 398.558594 283.304688 398.558594 283.964844 Z M 403.574219 313.667969 L 412.554688 313.667969 L 412.554688 266.675781 L 403.574219 266.675781 Z M 401.199219 314.855469 L 401.199219 265.617188 C 401.199219 264.957031 401.726562 264.429688 402.386719 264.429688 L 413.742188 264.429688 C 414.402344 264.429688 414.929688 264.957031 414.929688 265.617188 L 414.929688 314.855469 C 414.929688 315.515625 414.402344 316.042969 413.742188 316.042969 L 402.386719 316.042969 C 401.726562 316.042969 401.199219 315.515625 401.199219 314.855469 Z M 229.414062 415.304688 C 228.753906 415.175781 228.222656 415.570312 228.09375 416.230469 L 197.328125 586.640625 C 197.195312 587.171875 197.589844 587.832031 198.117188 587.960938 L 202.871094 589.148438 C 202.871094 590.339844 202.871094 591.527344 202.742188 592.714844 C 204.324219 593.375 206.4375 594.167969 208.8125 594.5625 C 212.378906 595.222656 215.546875 595.222656 217.792969 595.089844 C 218.1875 593.507812 218.71875 591.789062 219.113281 590.207031 C 221.09375 590.074219 223.074219 589.808594 225.054688 589.414062 C 225.453125 589.28125 225.847656 589.019531 225.980469 588.621094 C 231.527344 566.84375 236.542969 544.667969 241.164062 522.753906 C 245.523438 501.765625 249.484375 480.515625 252.917969 459.261719 L 258.988281 585.851562 C 258.988281 586.378906 259.386719 586.773438 259.914062 586.90625 C 261.5 587.300781 263.214844 587.566406 264.933594 587.832031 L 264.933594 595.089844 C 276.417969 595.089844 288.039062 594.957031 299.527344 594.957031 C 299.261719 593.769531 298.867188 592.054688 297.414062 591 C 295.828125 589.679688 293.847656 589.941406 292 589.941406 C 290.019531 589.941406 287.378906 589.546875 284.078125 588.09375 C 285.132812 587.960938 286.324219 587.832031 287.378906 587.566406 C 287.90625 587.433594 288.304688 587.039062 288.304688 586.511719 C 289.492188 561.957031 290.019531 537.011719 290.019531 512.328125 C 289.886719 479.589844 288.699219 446.457031 286.324219 413.855469 C 286.324219 413.195312 285.792969 412.796875 285.132812 412.796875 C 284.472656 412.796875 284.078125 413.328125 284.078125 413.984375 C 286.453125 446.589844 287.644531 479.589844 287.773438 512.195312 C 287.90625 536.480469 287.378906 561.035156 286.191406 585.320312 C 281.304688 586.113281 276.289062 586.378906 271.402344 585.980469 C 268.101562 585.71875 264.667969 585.320312 261.367188 584.53125 L 254.765625 447.777344 C 254.765625 447.25 254.238281 446.722656 253.707031 446.722656 C 253.046875 446.722656 252.652344 447.117188 252.519531 447.644531 C 248.691406 472.460938 244.070312 497.410156 239.050781 521.960938 C 234.5625 543.609375 229.542969 565.523438 224.132812 587.039062 C 219.90625 587.699219 215.679688 587.960938 211.324219 587.699219 C 207.492188 587.433594 203.664062 586.773438 199.835938 585.851562 L 230.335938 416.363281 C 230.46875 416.097656 230.074219 415.4375 229.414062 415.304688 Z M 276.949219 287.398438 C 275.363281 286.738281 274.175781 288.320312 270.347656 288.851562 C 267.703125 289.246094 266.78125 288.71875 263.742188 288.585938 C 261.761719 288.453125 255.6875 288.191406 250.671875 291.492188 C 249.21875 292.414062 246.710938 294.394531 244.863281 298.222656 C 243.9375 298.75 242.617188 299.542969 241.824219 301.125 C 240.371094 304.292969 242.882812 307.726562 245.785156 314.589844 C 246.710938 316.703125 247.898438 319.871094 249.085938 323.960938 L 249.085938 331.882812 C 249.085938 332.542969 249.613281 333.070312 250.277344 333.070312 C 250.9375 333.070312 251.464844 332.542969 251.464844 331.882812 L 251.464844 325.414062 C 253.578125 325.546875 255.6875 325.414062 257.800781 325.019531 C 261.101562 324.492188 263.613281 323.960938 265.59375 321.71875 C 267.835938 319.210938 267.96875 315.777344 267.835938 313.929688 C 267.835938 313.535156 267.574219 313.136719 267.175781 313.007812 C 266.121094 312.609375 265.59375 311.421875 265.988281 310.367188 C 266.121094 309.839844 266.515625 309.441406 267.042969 309.308594 C 267.574219 309.046875 268.101562 309.046875 268.628906 309.308594 C 269.023438 309.441406 269.289062 309.441406 269.683594 309.179688 C 269.949219 309.046875 270.214844 308.648438 270.214844 308.253906 C 270.347656 307.199219 270.742188 305.613281 271.929688 304.03125 C 272.328125 303.503906 272.855469 302.972656 273.515625 302.578125 C 273.910156 305.21875 274.175781 307.859375 274.308594 310.5 C 274.835938 318.023438 274.96875 321.851562 272.722656 323.566406 C 271.535156 324.621094 269.683594 325.019531 267.308594 324.621094 C 267.042969 324.621094 266.648438 324.621094 266.382812 324.886719 C 266.121094 325.148438 265.988281 325.414062 265.988281 325.679688 L 265.988281 331.75 C 265.988281 332.410156 266.515625 332.9375 267.175781 332.9375 C 267.835938 332.9375 268.363281 332.410156 268.363281 331.75 L 268.363281 326.867188 C 270.875 327 272.855469 326.339844 274.308594 325.148438 C 277.34375 322.511719 277.078125 317.890625 276.683594 310.101562 C 276.550781 307.066406 276.15625 304.03125 275.628906 301.125 C 276.949219 299.675781 278.53125 297.429688 278.929688 294.394531 C 279.191406 292.546875 279.058594 288.324219 276.949219 287.398438 Z M 718.496094 275.914062 C 699.214844 226.019531 668.714844 180.082031 630.160156 142.726562 L 577.210938 194.601562 L 515.414062 255.058594 L 516.472656 256.113281 C 517.132812 256.773438 517.792969 257.433594 518.453125 257.960938 C 518.980469 258.492188 519.375 259.019531 519.902344 259.414062 C 520.695312 260.207031 521.488281 261.128906 522.28125 261.921875 C 522.675781 262.316406 522.941406 262.714844 523.335938 263.109375 C 524.261719 264.035156 525.1875 265.089844 525.976562 266.144531 L 526.769531 266.9375 C 527.828125 268.125 528.75 269.183594 529.808594 270.371094 C 529.9375 270.503906 530.070312 270.632812 530.203125 270.898438 C 532.449219 273.539062 534.691406 276.308594 536.804688 279.082031 C 536.9375 279.214844 536.9375 279.347656 537.070312 279.476562 C 537.992188 280.667969 538.917969 281.984375 539.84375 283.175781 C 540.105469 283.4375 540.371094 283.835938 540.503906 284.097656 C 541.292969 285.152344 542.085938 286.34375 542.878906 287.398438 C 543.144531 287.792969 543.273438 288.058594 543.539062 288.453125 C 544.332031 289.640625 545.125 290.699219 545.785156 291.886719 C 545.917969 292.148438 546.179688 292.414062 546.3125 292.679688 C 547.105469 294 548.027344 295.316406 548.820312 296.636719 C 548.820312 296.769531 548.953125 296.902344 548.953125 296.902344 C 571.136719 332.804688 582.753906 374.78125 581.433594 418.210938 L 743.054688 428.242188 C 745.5625 376.761719 737.113281 324.09375 718.496094 275.914062 Z M 591.46875 177.578125 C 572.71875 157.378906 551.066406 140.21875 527.035156 126.621094 C 500.890625 111.96875 472.632812 101.804688 443.054688 96.523438 L 436.980469 120.417969 L 417.175781 200.144531 C 419.289062 200.675781 421.402344 201.335938 423.515625 201.863281 C 424.304688 202.125 424.964844 202.257812 425.757812 202.523438 C 426.945312 202.917969 428.265625 203.3125 429.457031 203.710938 C 430.511719 203.972656 431.566406 204.371094 432.625 204.765625 C 433.152344 204.898438 433.550781 205.03125 434.078125 205.292969 C 436.585938 206.21875 439.09375 207.011719 441.601562 208.066406 C 442.261719 208.332031 442.792969 208.59375 443.453125 208.726562 C 444.773438 209.253906 445.960938 209.78125 447.28125 210.308594 C 447.808594 210.441406 448.207031 210.707031 448.734375 210.96875 C 450.976562 211.894531 453.222656 212.949219 455.46875 213.875 C 456.128906 214.269531 456.921875 214.535156 457.582031 214.929688 C 458.636719 215.457031 459.824219 215.984375 460.882812 216.515625 C 461.804688 217.042969 462.730469 217.4375 463.65625 217.964844 C 465.105469 218.757812 466.558594 219.417969 468.011719 220.210938 C 469.066406 220.871094 470.257812 221.398438 471.3125 222.058594 C 471.707031 222.320312 472.238281 222.585938 472.632812 222.71875 C 473.027344 222.980469 473.558594 223.246094 473.953125 223.511719 C 474.746094 224.039062 475.539062 224.433594 476.332031 224.960938 C 477.121094 225.492188 477.914062 225.886719 478.707031 226.414062 C 480.292969 227.339844 481.742188 228.394531 483.328125 229.316406 C 483.855469 229.582031 484.253906 229.976562 484.78125 230.242188 L 488.347656 232.617188 C 488.875 233.015625 489.402344 233.410156 489.929688 233.675781 C 491.117188 234.464844 492.308594 235.390625 493.363281 236.183594 C 493.757812 236.445312 494.289062 236.84375 494.683594 237.105469 L 499.4375 240.671875 L 499.570312 240.800781 L 503.925781 244.367188 C 504.457031 244.761719 504.851562 245.160156 505.378906 245.554688 C 506.4375 246.476562 507.359375 247.269531 508.417969 248.195312 C 508.945312 248.722656 509.472656 249.117188 510 249.644531 C 511.058594 250.570312 511.980469 251.496094 513.039062 252.417969 C 513.433594 252.8125 513.828125 253.078125 514.09375 253.472656 Z M 441.074219 94.941406 L 445.035156 79.238281 C 432.757812 74.480469 419.949219 71.445312 406.875 70.257812 C 393.144531 68.9375 379.410156 69.726562 365.8125 72.503906 L 369.507812 193.546875 C 384.5625 193.941406 399.746094 196.054688 414.535156 199.617188 L 414.800781 199.617188 Z M 745.429688 429.695312 C 745.429688 429.957031 745.296875 430.222656 745.035156 430.484375 C 744.769531 430.617188 744.507812 430.75 744.242188 430.75 L 744.109375 430.75 L 675.183594 426.527344 C 673.730469 457.546875 667.527344 488.171875 656.832031 517.605469 C 628.441406 595.882812 571.269531 658.582031 495.871094 693.957031 C 453.75 713.625 408.855469 723.527344 363.699219 723.527344 C 327.914062 723.527344 292 717.320312 257.40625 704.78125 C 179.109375 676.402344 116.386719 619.246094 81 543.875 C 45.613281 468.503906 41.78125 383.757812 70.175781 305.480469 C 92.355469 243.96875 132.367188 192.097656 185.839844 155.132812 C 238.128906 118.964844 299.261719 99.695312 362.644531 99.5625 C 363.304688 99.5625 363.832031 100.085938 363.832031 100.746094 C 363.832031 101.40625 363.304688 101.941406 362.644531 101.941406 C 233.109375 102.203125 116.519531 184.304688 72.414062 306.144531 C 14.320312 466.65625 97.636719 644.460938 258.199219 702.539062 C 335.96875 730.65625 420.082031 726.828125 494.949219 691.714844 C 569.816406 656.601562 626.59375 594.429688 654.71875 516.683594 C 665.28125 487.378906 671.488281 457.019531 672.941406 426.132812 L 581.433594 420.457031 C 580.90625 433.65625 579.058594 447.121094 576.023438 460.453125 C 575.890625 461.113281 575.230469 461.507812 574.703125 461.242188 C 574.042969 461.113281 573.644531 460.453125 573.910156 459.921875 C 577.078125 446.328125 578.792969 432.863281 579.324219 419.398438 L 579.324219 419.265625 C 580.378906 387.457031 574.4375 355.378906 561.894531 326.207031 C 557.667969 316.308594 552.648438 306.804688 547.105469 297.695312 C 547.105469 297.5625 546.972656 297.5625 546.972656 297.429688 C 546.179688 296.113281 545.257812 294.660156 544.332031 293.339844 C 544.199219 293.207031 544.066406 292.945312 543.9375 292.8125 C 543.144531 291.492188 542.21875 290.304688 541.292969 288.984375 C 541.164062 288.851562 541.03125 288.585938 540.898438 288.457031 C 538.917969 285.550781 536.804688 282.78125 534.691406 279.875 C 534.691406 279.742188 534.5625 279.742188 534.5625 279.613281 C 533.503906 278.292969 532.578125 277.105469 531.523438 275.785156 C 531.257812 275.519531 530.996094 275.253906 530.863281 274.992188 C 529.9375 273.933594 529.148438 272.878906 528.222656 271.824219 C 527.957031 271.425781 527.695312 271.164062 527.296875 270.765625 C 526.507812 269.84375 525.582031 268.789062 524.789062 267.863281 C 524.527344 267.46875 524.128906 267.203125 523.867188 266.808594 C 523.074219 265.882812 522.148438 264.960938 521.355469 264.035156 L 517.792969 260.472656 C 517.261719 259.945312 516.867188 259.414062 516.339844 259.019531 L 514.621094 257.304688 C 513.960938 256.644531 513.300781 255.984375 512.507812 255.324219 C 511.1875 254.136719 509.867188 252.816406 508.546875 251.628906 C 508.152344 251.230469 507.625 250.835938 507.226562 250.441406 L 504.058594 247.667969 C 503.53125 247.273438 503.136719 246.875 502.605469 246.480469 C 501.417969 245.421875 500.230469 244.5 499.042969 243.574219 C 498.777344 243.3125 498.382812 243.046875 498.117188 242.785156 C 496.53125 241.59375 495.082031 240.40625 493.496094 239.21875 C 493.101562 238.957031 492.835938 238.691406 492.4375 238.425781 C 491.25 237.503906 489.929688 236.578125 488.742188 235.65625 C 488.214844 235.257812 487.6875 234.863281 487.15625 234.597656 C 485.96875 233.808594 484.914062 233.015625 483.726562 232.222656 C 483.195312 231.828125 482.667969 231.5625 482.140625 231.167969 C 480.6875 230.113281 479.101562 229.1875 477.519531 228.261719 C 476.726562 227.734375 475.933594 227.339844 475.273438 226.945312 C 474.480469 226.414062 473.558594 225.886719 472.765625 225.359375 C 471.972656 224.832031 471.046875 224.433594 470.257812 223.90625 C 469.066406 223.246094 467.878906 222.585938 466.824219 221.925781 C 465.503906 221.265625 464.183594 220.476562 462.730469 219.816406 C 461.804688 219.289062 460.75 218.757812 459.824219 218.363281 L 456.65625 216.78125 C 455.863281 216.382812 455.070312 216.121094 454.410156 215.722656 C 452.429688 214.800781 450.316406 213.875 448.335938 213.082031 C 447.675781 212.820312 447.015625 212.554688 446.488281 212.292969 C 445.300781 211.761719 443.980469 211.234375 442.792969 210.839844 L 440.8125 210.046875 C 439.753906 209.652344 438.566406 209.253906 437.511719 208.859375 C 436.453125 208.464844 435.398438 208.199219 434.472656 207.804688 C 433.679688 207.539062 432.757812 207.277344 431.964844 206.878906 C 430.90625 206.484375 429.851562 206.21875 428.925781 205.824219 C 427.605469 205.425781 426.15625 205.03125 424.835938 204.503906 C 424.175781 204.371094 423.644531 204.109375 422.984375 203.976562 C 420.742188 203.316406 418.496094 202.789062 416.121094 202.128906 C 408.988281 200.410156 401.726562 198.960938 394.464844 197.902344 C 386.144531 196.714844 377.5625 196.054688 369.113281 195.792969 L 368.847656 195.792969 C 335.96875 195 303.222656 201.863281 272.589844 216.25 C 219.773438 240.671875 180.296875 283.96875 160.621094 338.085938 C 134.082031 411.480469 149.394531 493.847656 200.496094 552.851562 C 200.890625 553.378906 200.890625 554.039062 200.363281 554.433594 C 200.101562 554.566406 199.835938 554.699219 199.570312 554.699219 C 199.308594 554.699219 198.910156 554.566406 198.648438 554.304688 C 146.890625 494.640625 131.441406 411.480469 158.375 337.296875 C 178.183594 282.515625 218.191406 238.824219 270.875 214.140625 C 301.507812 199.75 334.253906 192.886719 367.132812 193.417969 L 363.304688 71.445312 C 363.304688 70.921875 363.699219 70.390625 364.226562 70.261719 C 378.222656 67.359375 392.617188 66.5625 406.875 67.882812 C 420.476562 69.203125 433.8125 72.371094 446.621094 77.386719 C 447.148438 77.648438 447.414062 78.179688 447.28125 78.707031 L 443.585938 94.285156 C 473.425781 99.5625 501.8125 109.726562 528.089844 124.644531 C 552.253906 138.242188 574.171875 155.527344 593.054688 175.988281 L 629.367188 140.484375 C 629.761719 140.085938 630.554688 140.085938 630.949219 140.484375 C 670.035156 178.105469 701.066406 224.699219 720.605469 275.253906 C 739.488281 323.964844 748.070312 377.292969 745.429688 429.695312 Z M 322.371094 303.105469 C 321.710938 303.105469 321.183594 303.632812 321.183594 304.292969 L 321.183594 310.367188 C 321.183594 311.027344 321.710938 311.554688 322.371094 311.554688 C 323.03125 311.554688 323.558594 311.027344 323.558594 310.367188 L 323.558594 305.351562 L 326.726562 305.351562 C 327.386719 305.351562 327.914062 304.824219 327.914062 304.164062 C 327.914062 303.503906 327.386719 302.972656 326.726562 302.972656 Z M 344.289062 287.132812 C 345.34375 287.398438 346.664062 287.792969 347.722656 288.324219 L 347.722656 285.152344 L 345.214844 285.152344 C 344.949219 285.8125 344.683594 286.472656 344.289062 287.132812 Z M 350.097656 314.855469 C 350.097656 315.515625 349.570312 316.042969 348.910156 316.042969 L 339.402344 316.042969 C 338.742188 316.042969 338.214844 315.515625 338.214844 314.855469 C 338.214844 314.195312 338.742188 313.667969 339.402344 313.667969 L 347.855469 313.667969 L 347.855469 297.167969 C 346.269531 298.882812 344.554688 300.597656 342.835938 302.3125 C 342.574219 302.578125 342.308594 302.578125 342.042969 302.578125 C 341.78125 302.578125 341.382812 302.445312 341.253906 302.183594 C 340.855469 301.785156 340.855469 300.996094 341.253906 300.597656 C 342.96875 299.015625 344.554688 297.296875 346.136719 295.582031 C 347.589844 294 349.042969 292.414062 348.910156 292.019531 C 348.777344 290.832031 345.476562 289.511719 342.441406 288.980469 C 342.042969 288.980469 341.78125 288.71875 341.648438 288.324219 C 341.515625 288.058594 341.515625 287.664062 341.648438 287.265625 C 343.101562 284.363281 344.15625 282.25 344.816406 280.796875 C 343.363281 282.515625 341.253906 285.285156 338.082031 289.773438 C 337.820312 290.171875 337.421875 290.300781 337.027344 290.300781 C 336.628906 290.300781 336.234375 290.039062 336.101562 289.640625 C 335.839844 288.980469 335.574219 288.453125 335.308594 287.925781 C 335.441406 288.980469 335.574219 290.300781 335.839844 291.886719 C 336.101562 293.734375 336.234375 295.714844 336.367188 297.5625 C 336.367188 298.222656 335.96875 298.75 335.308594 298.75 C 334.648438 298.75 334.121094 298.355469 334.121094 297.695312 C 333.988281 295.847656 333.859375 294 333.59375 292.148438 C 333.328125 290.039062 333.199219 288.324219 332.933594 286.871094 C 332.40625 283.304688 332.273438 282.382812 333.59375 281.984375 C 334.519531 281.722656 335.179688 282.117188 336.628906 285.023438 L 336.628906 283.964844 C 336.628906 283.304688 337.160156 282.777344 337.820312 282.777344 L 340.460938 282.777344 C 346.269531 275.121094 346.929688 275.386719 347.855469 276.046875 C 348.777344 276.574219 349.175781 277.234375 346.535156 282.777344 L 349.042969 282.777344 C 349.703125 282.777344 350.230469 283.304688 350.230469 283.964844 L 350.230469 289.773438 C 350.890625 290.300781 351.285156 291.09375 351.285156 291.886719 C 351.417969 292.679688 351.15625 293.46875 350.230469 294.660156 Z M 350.097656 318.550781 C 350.097656 319.210938 349.570312 319.738281 348.910156 319.738281 L 337.554688 319.738281 C 336.894531 319.738281 336.367188 319.210938 336.367188 318.550781 C 336.367188 317.890625 336.894531 317.363281 337.554688 317.363281 L 348.910156 317.363281 C 349.570312 317.496094 350.097656 318.023438 350.097656 318.550781 " fill-opacity="1" fill-rule="nonzero"/></g><path fill="#634cfd" d="M 250.277344 331.882812 C 244.730469 332.144531 232.976562 333.730469 224.660156 342.574219 C 222.28125 345.214844 219.378906 349.042969 215.285156 362.902344 C 212.777344 371.085938 209.871094 382.703125 208.152344 397.355469 C 210.265625 399.070312 213.304688 401.183594 217.265625 402.898438 C 222.019531 404.878906 226.242188 405.671875 229.28125 405.933594 L 229.28125 416.363281 C 237.335938 417.023438 246.3125 417.285156 256.085938 416.890625 C 266.78125 416.496094 276.550781 415.4375 285.132812 414.117188 C 284.078125 395.636719 283.023438 377.289062 281.964844 358.808594 C 290.8125 356.566406 298.074219 354.324219 303.355469 352.605469 C 316.957031 348.117188 319.859375 345.875 321.710938 344.421875 C 324.613281 342.046875 326.992188 339.140625 332.667969 328.1875 C 335.839844 322.113281 339.929688 313.796875 344.289062 303.632812 C 343.101562 302.3125 340.988281 300.335938 337.949219 298.617188 C 335.308594 297.296875 333.066406 296.636719 331.347656 296.375 C 324.21875 307.332031 317.089844 318.285156 309.824219 329.109375 C 302.960938 330.5625 294.640625 331.75 285.265625 332.144531 C 278.53125 332.410156 272.457031 332.144531 267.042969 331.617188 C 265.460938 332.277344 262.554688 333.335938 258.726562 333.464844 C 254.898438 333.730469 251.992188 332.675781 250.277344 331.882812 Z M 412.554688 471.933594 C 412.554688 472.59375 412.289062 473.914062 411.496094 475.367188 C 410.707031 476.816406 409.648438 477.609375 408.988281 478.007812 C 417.703125 477.476562 427.078125 477.082031 437.113281 477.347656 C 448.207031 477.476562 458.371094 478.269531 467.878906 479.328125 L 465.503906 472.066406 C 447.808594 471.933594 430.246094 471.933594 412.554688 471.933594 Z M 435 412.269531 C 439.492188 412.796875 444.246094 408.839844 444.113281 403.292969 C 446.753906 403.558594 453.621094 404.613281 459.957031 409.761719 C 467.351562 415.835938 469.464844 423.621094 470.125 426.128906 L 452.695312 429.695312 L 459.691406 452.265625 L 432.359375 453.585938 L 421.53125 418.871094 L 399.878906 419.003906 C 402.652344 416.230469 406.875 412.402344 412.6875 409.234375 C 418.628906 405.933594 424.042969 404.351562 427.871094 403.558594 C 427.738281 407.914062 431.039062 411.875 435 412.269531 " fill-opacity="1" fill-rule="nonzero"/><g fill="#1f117b" fill-opacity="1"><g transform="translate(98.338349, 775.055675)"><g><path d="M 28.125 0 L 20.71875 -10.546875 C 19.800781 -10.484375 19.078125 -10.453125 18.546875 -10.453125 L 10.0625 -10.453125 L 10.0625 0 L 5.15625 0 L 5.15625 -34.359375 L 18.546875 -34.359375 C 22.992188 -34.359375 26.492188 -33.289062 29.046875 -31.15625 C 31.597656 -29.03125 32.875 -26.101562 32.875 -22.375 C 32.875 -19.726562 32.21875 -17.472656 30.90625 -15.609375 C 29.601562 -13.742188 27.742188 -12.382812 25.328125 -11.53125 L 33.46875 0 Z M 18.40625 -14.625 C 21.507812 -14.625 23.878906 -15.296875 25.515625 -16.640625 C 27.148438 -17.984375 27.96875 -19.894531 27.96875 -22.375 C 27.96875 -24.863281 27.148438 -26.769531 25.515625 -28.09375 C 23.878906 -29.414062 21.507812 -30.078125 18.40625 -30.078125 L 10.0625 -30.078125 L 10.0625 -14.625 Z M 18.40625 -14.625 "/></g></g></g><g fill="#1f117b" fill-opacity="1"><g transform="translate(134.011286, 775.055675)"><g><path d="M 27.96875 -12.859375 C 27.96875 -12.492188 27.9375 -12.019531 27.875 -11.4375 L 6.765625 -11.4375 C 7.066406 -9.144531 8.078125 -7.300781 9.796875 -5.90625 C 11.515625 -4.519531 13.648438 -3.828125 16.203125 -3.828125 C 19.304688 -3.828125 21.804688 -4.875 23.703125 -6.96875 L 26.3125 -3.921875 C 25.132812 -2.546875 23.664062 -1.5 21.90625 -0.78125 C 20.15625 -0.0625 18.203125 0.296875 16.046875 0.296875 C 13.296875 0.296875 10.859375 -0.265625 8.734375 -1.390625 C 6.609375 -2.523438 4.960938 -4.101562 3.796875 -6.125 C 2.640625 -8.15625 2.0625 -10.445312 2.0625 -13 C 2.0625 -15.519531 2.625 -17.796875 3.75 -19.828125 C 4.882812 -21.859375 6.441406 -23.4375 8.421875 -24.5625 C 10.398438 -25.6875 12.628906 -26.25 15.109375 -26.25 C 17.597656 -26.25 19.816406 -25.6875 21.765625 -24.5625 C 23.710938 -23.4375 25.234375 -21.859375 26.328125 -19.828125 C 27.421875 -17.796875 27.96875 -15.472656 27.96875 -12.859375 Z M 15.109375 -22.28125 C 12.859375 -22.28125 10.972656 -21.59375 9.453125 -20.21875 C 7.929688 -18.84375 7.035156 -17.046875 6.765625 -14.828125 L 23.453125 -14.828125 C 23.191406 -17.015625 22.300781 -18.800781 20.78125 -20.1875 C 19.257812 -21.582031 17.367188 -22.28125 15.109375 -22.28125 Z M 15.109375 -22.28125 "/></g></g></g><g fill="#1f117b" fill-opacity="1"><g transform="translate(164.041326, 775.055675)"><g><path d="M 15.796875 0.296875 C 13.148438 0.296875 10.785156 -0.273438 8.703125 -1.421875 C 6.628906 -2.566406 5.003906 -4.144531 3.828125 -6.15625 C 2.648438 -8.164062 2.0625 -10.445312 2.0625 -13 C 2.0625 -15.550781 2.648438 -17.832031 3.828125 -19.84375 C 5.003906 -21.863281 6.628906 -23.4375 8.703125 -24.5625 C 10.785156 -25.6875 13.148438 -26.25 15.796875 -26.25 C 18.160156 -26.25 20.265625 -25.773438 22.109375 -24.828125 C 23.953125 -23.878906 25.382812 -22.507812 26.40625 -20.71875 L 22.828125 -18.40625 C 22.003906 -19.644531 20.988281 -20.578125 19.78125 -21.203125 C 18.570312 -21.828125 17.226562 -22.140625 15.75 -22.140625 C 14.050781 -22.140625 12.519531 -21.757812 11.15625 -21 C 9.800781 -20.25 8.738281 -19.175781 7.96875 -17.78125 C 7.207031 -16.394531 6.828125 -14.800781 6.828125 -13 C 6.828125 -11.164062 7.207031 -9.550781 7.96875 -8.15625 C 8.738281 -6.769531 9.800781 -5.703125 11.15625 -4.953125 C 12.519531 -4.203125 14.050781 -3.828125 15.75 -3.828125 C 17.226562 -3.828125 18.570312 -4.132812 19.78125 -4.75 C 20.988281 -5.375 22.003906 -6.3125 22.828125 -7.5625 L 26.40625 -5.296875 C 25.382812 -3.492188 23.953125 -2.109375 22.109375 -1.140625 C 20.265625 -0.179688 18.160156 0.296875 15.796875 0.296875 Z M 15.796875 0.296875 "/></g></g></g><g fill="#1f117b" fill-opacity="1"><g transform="translate(192.059549, 775.055675)"><g><path d="M 15.609375 0.296875 C 13.023438 0.296875 10.703125 -0.273438 8.640625 -1.421875 C 6.578125 -2.566406 4.960938 -4.144531 3.796875 -6.15625 C 2.640625 -8.164062 2.0625 -10.445312 2.0625 -13 C 2.0625 -15.550781 2.640625 -17.832031 3.796875 -19.84375 C 4.960938 -21.863281 6.578125 -23.4375 8.640625 -24.5625 C 10.703125 -25.6875 13.023438 -26.25 15.609375 -26.25 C 18.191406 -26.25 20.503906 -25.6875 22.546875 -24.5625 C 24.597656 -23.4375 26.203125 -21.863281 27.359375 -19.84375 C 28.523438 -17.832031 29.109375 -15.550781 29.109375 -13 C 29.109375 -10.445312 28.523438 -8.164062 27.359375 -6.15625 C 26.203125 -4.144531 24.597656 -2.566406 22.546875 -1.421875 C 20.503906 -0.273438 18.191406 0.296875 15.609375 0.296875 Z M 15.609375 -3.828125 C 17.273438 -3.828125 18.769531 -4.210938 20.09375 -4.984375 C 21.414062 -5.753906 22.453125 -6.832031 23.203125 -8.21875 C 23.960938 -9.613281 24.34375 -11.207031 24.34375 -13 C 24.34375 -14.800781 23.960938 -16.394531 23.203125 -17.78125 C 22.453125 -19.175781 21.414062 -20.25 20.09375 -21 C 18.769531 -21.757812 17.273438 -22.140625 15.609375 -22.140625 C 13.941406 -22.140625 12.441406 -21.757812 11.109375 -21 C 9.785156 -20.25 8.738281 -19.175781 7.96875 -17.78125 C 7.207031 -16.394531 6.828125 -14.800781 6.828125 -13 C 6.828125 -11.207031 7.207031 -9.613281 7.96875 -8.21875 C 8.738281 -6.832031 9.785156 -5.753906 11.109375 -4.984375 C 12.441406 -4.210938 13.941406 -3.828125 15.609375 -3.828125 Z M 15.609375 -3.828125 "/></g></g></g><g fill="#1f117b" fill-opacity="1"><g transform="translate(223.218168, 775.055675)"><g><path d="M 8.984375 -21.640625 C 9.796875 -23.148438 11.003906 -24.296875 12.609375 -25.078125 C 14.210938 -25.859375 16.160156 -26.25 18.453125 -26.25 L 18.453125 -21.6875 C 18.191406 -21.71875 17.832031 -21.734375 17.375 -21.734375 C 14.820312 -21.734375 12.816406 -20.972656 11.359375 -19.453125 C 9.898438 -17.929688 9.171875 -15.765625 9.171875 -12.953125 L 9.171875 0 L 4.46875 0 L 4.46875 -26.015625 L 8.984375 -26.015625 Z M 8.984375 -21.640625 "/></g></g></g><g fill="#1f117b" fill-opacity="1"><g transform="translate(243.336335, 775.055675)"><g><path d="M 29 -36.421875 L 29 0 L 24.484375 0 L 24.484375 -4.125 C 23.441406 -2.6875 22.117188 -1.585938 20.515625 -0.828125 C 18.910156 -0.078125 17.144531 0.296875 15.21875 0.296875 C 12.695312 0.296875 10.4375 -0.257812 8.4375 -1.375 C 6.445312 -2.488281 4.882812 -4.050781 3.75 -6.0625 C 2.625 -8.070312 2.0625 -10.382812 2.0625 -13 C 2.0625 -15.625 2.625 -17.929688 3.75 -19.921875 C 4.882812 -21.921875 6.445312 -23.472656 8.4375 -24.578125 C 10.4375 -25.691406 12.695312 -26.25 15.21875 -26.25 C 17.082031 -26.25 18.796875 -25.894531 20.359375 -25.1875 C 21.929688 -24.488281 23.242188 -23.453125 24.296875 -22.078125 L 24.296875 -36.421875 Z M 15.609375 -3.828125 C 17.242188 -3.828125 18.726562 -4.210938 20.0625 -4.984375 C 21.40625 -5.753906 22.453125 -6.832031 23.203125 -8.21875 C 23.960938 -9.613281 24.34375 -11.207031 24.34375 -13 C 24.34375 -14.800781 23.960938 -16.394531 23.203125 -17.78125 C 22.453125 -19.175781 21.40625 -20.25 20.0625 -21 C 18.726562 -21.757812 17.242188 -22.140625 15.609375 -22.140625 C 13.941406 -22.140625 12.441406 -21.757812 11.109375 -21 C 9.785156 -20.25 8.738281 -19.175781 7.96875 -17.78125 C 7.207031 -16.394531 6.828125 -14.800781 6.828125 -13 C 6.828125 -11.207031 7.207031 -9.613281 7.96875 -8.21875 C 8.738281 -6.832031 9.785156 -5.753906 11.109375 -4.984375 C 12.441406 -4.210938 13.941406 -3.828125 15.609375 -3.828125 Z M 15.609375 -3.828125 "/></g></g></g><g fill="#1f117b" fill-opacity="1"><g transform="translate(276.801174, 775.055675)"><g/></g></g><g fill="#1f117b" fill-opacity="1"><g transform="translate(290.000663, 775.055675)"><g><path d="M 18.3125 -11.875 L 18.3125 0 L 13.453125 0 L 13.453125 -11.96875 L -0.203125 -34.359375 L 5.0625 -34.359375 L 16.046875 -16.25 L 27.09375 -34.359375 L 31.953125 -34.359375 Z M 18.3125 -11.875 "/></g></g></g><g fill="#1f117b" fill-opacity="1"><g transform="translate(321.748107, 775.055675)"><g><path d="M 15.609375 0.296875 C 13.023438 0.296875 10.703125 -0.273438 8.640625 -1.421875 C 6.578125 -2.566406 4.960938 -4.144531 3.796875 -6.15625 C 2.640625 -8.164062 2.0625 -10.445312 2.0625 -13 C 2.0625 -15.550781 2.640625 -17.832031 3.796875 -19.84375 C 4.960938 -21.863281 6.578125 -23.4375 8.640625 -24.5625 C 10.703125 -25.6875 13.023438 -26.25 15.609375 -26.25 C 18.191406 -26.25 20.503906 -25.6875 22.546875 -24.5625 C 24.597656 -23.4375 26.203125 -21.863281 27.359375 -19.84375 C 28.523438 -17.832031 29.109375 -15.550781 29.109375 -13 C 29.109375 -10.445312 28.523438 -8.164062 27.359375 -6.15625 C 26.203125 -4.144531 24.597656 -2.566406 22.546875 -1.421875 C 20.503906 -0.273438 18.191406 0.296875 15.609375 0.296875 Z M 15.609375 -3.828125 C 17.273438 -3.828125 18.769531 -4.210938 20.09375 -4.984375 C 21.414062 -5.753906 22.453125 -6.832031 23.203125 -8.21875 C 23.960938 -9.613281 24.34375 -11.207031 24.34375 -13 C 24.34375 -14.800781 23.960938 -16.394531 23.203125 -17.78125 C 22.453125 -19.175781 21.414062 -20.25 20.09375 -21 C 18.769531 -21.757812 17.273438 -22.140625 15.609375 -22.140625 C 13.941406 -22.140625 12.441406 -21.757812 11.109375 -21 C 9.785156 -20.25 8.738281 -19.175781 7.96875 -17.78125 C 7.207031 -16.394531 6.828125 -14.800781 6.828125 -13 C 6.828125 -11.207031 7.207031 -9.613281 7.96875 -8.21875 C 8.738281 -6.832031 9.785156 -5.753906 11.109375 -4.984375 C 12.441406 -4.210938 13.941406 -3.828125 15.609375 -3.828125 Z M 15.609375 -3.828125 "/></g></g></g><g fill="#1f117b" fill-opacity="1"><g transform="translate(352.906726, 775.055675)"><g><path d="M 28.703125 -26.015625 L 28.703125 0 L 24.25 0 L 24.25 -3.921875 C 23.300781 -2.578125 22.046875 -1.535156 20.484375 -0.796875 C 18.929688 -0.0664062 17.238281 0.296875 15.40625 0.296875 C 11.9375 0.296875 9.203125 -0.660156 7.203125 -2.578125 C 5.210938 -4.492188 4.21875 -7.316406 4.21875 -11.046875 L 4.21875 -26.015625 L 8.9375 -26.015625 L 8.9375 -11.578125 C 8.9375 -9.054688 9.539062 -7.148438 10.75 -5.859375 C 11.957031 -4.566406 13.691406 -3.921875 15.953125 -3.921875 C 18.441406 -3.921875 20.40625 -4.671875 21.84375 -6.171875 C 23.28125 -7.679688 24 -9.8125 24 -12.5625 L 24 -26.015625 Z M 28.703125 -26.015625 "/></g></g></g><g fill="#1f117b" fill-opacity="1"><g transform="translate(386.126242, 775.055675)"><g><path d="M 8.984375 -21.640625 C 9.796875 -23.148438 11.003906 -24.296875 12.609375 -25.078125 C 14.210938 -25.859375 16.160156 -26.25 18.453125 -26.25 L 18.453125 -21.6875 C 18.191406 -21.71875 17.832031 -21.734375 17.375 -21.734375 C 14.820312 -21.734375 12.816406 -20.972656 11.359375 -19.453125 C 9.898438 -17.929688 9.171875 -15.765625 9.171875 -12.953125 L 9.171875 0 L 4.46875 0 L 4.46875 -26.015625 L 8.984375 -26.015625 Z M 8.984375 -21.640625 "/></g></g></g><g fill="#1f117b" fill-opacity="1"><g transform="translate(406.244409, 775.055675)"><g/></g></g><g fill="#1f117b" fill-opacity="1"><g transform="translate(419.443898, 775.055675)"><g><path d="M 11.96875 -30.078125 L 0.203125 -30.078125 L 0.203125 -34.359375 L 28.609375 -34.359375 L 28.609375 -30.078125 L 16.828125 -30.078125 L 16.828125 0 L 11.96875 0 Z M 11.96875 -30.078125 "/></g></g></g><g fill="#1f117b" fill-opacity="1"><g transform="translate(448.247238, 775.055675)"><g><path d="M 8.984375 -21.640625 C 9.796875 -23.148438 11.003906 -24.296875 12.609375 -25.078125 C 14.210938 -25.859375 16.160156 -26.25 18.453125 -26.25 L 18.453125 -21.6875 C 18.191406 -21.71875 17.832031 -21.734375 17.375 -21.734375 C 14.820312 -21.734375 12.816406 -20.972656 11.359375 -19.453125 C 9.898438 -17.929688 9.171875 -15.765625 9.171875 -12.953125 L 9.171875 0 L 4.46875 0 L 4.46875 -26.015625 L 8.984375 -26.015625 Z M 8.984375 -21.640625 "/></g></g></g><g fill="#1f117b" fill-opacity="1"><g transform="translate(468.365405, 775.055675)"><g><path d="M 13.9375 -26.25 C 17.539062 -26.25 20.296875 -25.363281 22.203125 -23.59375 C 24.117188 -21.832031 25.078125 -19.203125 25.078125 -15.703125 L 25.078125 0 L 20.609375 0 L 20.609375 -3.4375 C 19.828125 -2.226562 18.707031 -1.300781 17.25 -0.65625 C 15.789062 -0.0195312 14.066406 0.296875 12.078125 0.296875 C 9.160156 0.296875 6.828125 -0.40625 5.078125 -1.8125 C 3.328125 -3.21875 2.453125 -5.066406 2.453125 -7.359375 C 2.453125 -9.648438 3.285156 -11.488281 4.953125 -12.875 C 6.617188 -14.269531 9.269531 -14.96875 12.90625 -14.96875 L 20.375 -14.96875 L 20.375 -15.90625 C 20.375 -17.925781 19.78125 -19.476562 18.59375 -20.5625 C 17.414062 -21.644531 15.679688 -22.1875 13.390625 -22.1875 C 11.859375 -22.1875 10.351562 -21.929688 8.875 -21.421875 C 7.40625 -20.910156 6.164062 -20.234375 5.15625 -19.390625 L 3.1875 -22.921875 C 4.53125 -24.003906 6.132812 -24.828125 8 -25.390625 C 9.863281 -25.960938 11.84375 -26.25 13.9375 -26.25 Z M 12.859375 -3.34375 C 14.660156 -3.34375 16.210938 -3.738281 17.515625 -4.53125 C 18.828125 -5.332031 19.78125 -6.472656 20.375 -7.953125 L 20.375 -11.578125 L 13.109375 -11.578125 C 9.109375 -11.578125 7.109375 -10.238281 7.109375 -7.5625 C 7.109375 -6.25 7.613281 -5.21875 8.625 -4.46875 C 9.644531 -3.71875 11.054688 -3.34375 12.859375 -3.34375 Z M 12.859375 -3.34375 "/></g></g></g><g fill="#1f117b" fill-opacity="1"><g transform="translate(497.708489, 775.055675)"><g><path d="M 18.359375 -26.25 C 21.660156 -26.25 24.285156 -25.289062 26.234375 -23.375 C 28.179688 -21.46875 29.15625 -18.664062 29.15625 -14.96875 L 29.15625 0 L 24.4375 0 L 24.4375 -14.421875 C 24.4375 -16.941406 23.832031 -18.835938 22.625 -20.109375 C 21.414062 -21.390625 19.679688 -22.03125 17.421875 -22.03125 C 14.867188 -22.03125 12.851562 -21.285156 11.375 -19.796875 C 9.90625 -18.304688 9.171875 -16.171875 9.171875 -13.390625 L 9.171875 0 L 4.46875 0 L 4.46875 -26.015625 L 8.984375 -26.015625 L 8.984375 -22.078125 C 9.929688 -23.421875 11.210938 -24.453125 12.828125 -25.171875 C 14.453125 -25.890625 16.296875 -26.25 18.359375 -26.25 Z M 18.359375 -26.25 "/></g></g></g><g fill="#1f117b" fill-opacity="1"><g transform="translate(531.124267, 775.055675)"><g><path d="M 11.921875 0.296875 C 9.796875 0.296875 7.75 0.0078125 5.78125 -0.5625 C 3.820312 -1.132812 2.285156 -1.863281 1.171875 -2.75 L 3.140625 -6.484375 C 4.285156 -5.660156 5.675781 -5.003906 7.3125 -4.515625 C 8.945312 -4.023438 10.597656 -3.78125 12.265625 -3.78125 C 16.390625 -3.78125 18.453125 -4.957031 18.453125 -7.3125 C 18.453125 -8.09375 18.171875 -8.710938 17.609375 -9.171875 C 17.054688 -9.628906 16.363281 -9.960938 15.53125 -10.171875 C 14.695312 -10.390625 13.507812 -10.628906 11.96875 -10.890625 C 9.875 -11.222656 8.164062 -11.597656 6.84375 -12.015625 C 5.519531 -12.441406 4.382812 -13.160156 3.4375 -14.171875 C 2.488281 -15.191406 2.015625 -16.617188 2.015625 -18.453125 C 2.015625 -20.804688 2.992188 -22.691406 4.953125 -24.109375 C 6.921875 -25.535156 9.554688 -26.25 12.859375 -26.25 C 14.585938 -26.25 16.316406 -26.035156 18.046875 -25.609375 C 19.785156 -25.191406 21.210938 -24.625 22.328125 -23.90625 L 20.3125 -20.171875 C 18.1875 -21.546875 15.6875 -22.234375 12.8125 -22.234375 C 10.8125 -22.234375 9.285156 -21.90625 8.234375 -21.25 C 7.191406 -20.59375 6.671875 -19.726562 6.671875 -18.65625 C 6.671875 -17.800781 6.960938 -17.128906 7.546875 -16.640625 C 8.140625 -16.148438 8.867188 -15.789062 9.734375 -15.5625 C 10.609375 -15.332031 11.828125 -15.066406 13.390625 -14.765625 C 15.492188 -14.410156 17.191406 -14.023438 18.484375 -13.609375 C 19.773438 -13.203125 20.878906 -12.507812 21.796875 -11.53125 C 22.710938 -10.550781 23.171875 -9.175781 23.171875 -7.40625 C 23.171875 -5.050781 22.160156 -3.175781 20.140625 -1.78125 C 18.128906 -0.394531 15.390625 0.296875 11.921875 0.296875 Z M 11.921875 0.296875 "/></g></g></g><g fill="#1f117b" fill-opacity="1"><g transform="translate(555.707691, 775.055675)"><g><path d="M 13.9375 -26.25 C 17.539062 -26.25 20.296875 -25.363281 22.203125 -23.59375 C 24.117188 -21.832031 25.078125 -19.203125 25.078125 -15.703125 L 25.078125 0 L 20.609375 0 L 20.609375 -3.4375 C 19.828125 -2.226562 18.707031 -1.300781 17.25 -0.65625 C 15.789062 -0.0195312 14.066406 0.296875 12.078125 0.296875 C 9.160156 0.296875 6.828125 -0.40625 5.078125 -1.8125 C 3.328125 -3.21875 2.453125 -5.066406 2.453125 -7.359375 C 2.453125 -9.648438 3.285156 -11.488281 4.953125 -12.875 C 6.617188 -14.269531 9.269531 -14.96875 12.90625 -14.96875 L 20.375 -14.96875 L 20.375 -15.90625 C 20.375 -17.925781 19.78125 -19.476562 18.59375 -20.5625 C 17.414062 -21.644531 15.679688 -22.1875 13.390625 -22.1875 C 11.859375 -22.1875 10.351562 -21.929688 8.875 -21.421875 C 7.40625 -20.910156 6.164062 -20.234375 5.15625 -19.390625 L 3.1875 -22.921875 C 4.53125 -24.003906 6.132812 -24.828125 8 -25.390625 C 9.863281 -25.960938 11.84375 -26.25 13.9375 -26.25 Z M 12.859375 -3.34375 C 14.660156 -3.34375 16.210938 -3.738281 17.515625 -4.53125 C 18.828125 -5.332031 19.78125 -6.472656 20.375 -7.953125 L 20.375 -11.578125 L 13.109375 -11.578125 C 9.109375 -11.578125 7.109375 -10.238281 7.109375 -7.5625 C 7.109375 -6.25 7.613281 -5.21875 8.625 -4.46875 C 9.644531 -3.71875 11.054688 -3.34375 12.859375 -3.34375 Z M 12.859375 -3.34375 "/></g></g></g><g fill="#1f117b" fill-opacity="1"><g transform="translate(585.050776, 775.055675)"><g><path d="M 15.796875 0.296875 C 13.148438 0.296875 10.785156 -0.273438 8.703125 -1.421875 C 6.628906 -2.566406 5.003906 -4.144531 3.828125 -6.15625 C 2.648438 -8.164062 2.0625 -10.445312 2.0625 -13 C 2.0625 -15.550781 2.648438 -17.832031 3.828125 -19.84375 C 5.003906 -21.863281 6.628906 -23.4375 8.703125 -24.5625 C 10.785156 -25.6875 13.148438 -26.25 15.796875 -26.25 C 18.160156 -26.25 20.265625 -25.773438 22.109375 -24.828125 C 23.953125 -23.878906 25.382812 -22.507812 26.40625 -20.71875 L 22.828125 -18.40625 C 22.003906 -19.644531 20.988281 -20.578125 19.78125 -21.203125 C 18.570312 -21.828125 17.226562 -22.140625 15.75 -22.140625 C 14.050781 -22.140625 12.519531 -21.757812 11.15625 -21 C 9.800781 -20.25 8.738281 -19.175781 7.96875 -17.78125 C 7.207031 -16.394531 6.828125 -14.800781 6.828125 -13 C 6.828125 -11.164062 7.207031 -9.550781 7.96875 -8.15625 C 8.738281 -6.769531 9.800781 -5.703125 11.15625 -4.953125 C 12.519531 -4.203125 14.050781 -3.828125 15.75 -3.828125 C 17.226562 -3.828125 18.570312 -4.132812 19.78125 -4.75 C 20.988281 -5.375 22.003906 -6.3125 22.828125 -7.5625 L 26.40625 -5.296875 C 25.382812 -3.492188 23.953125 -2.109375 22.109375 -1.140625 C 20.265625 -0.179688 18.160156 0.296875 15.796875 0.296875 Z M 15.796875 0.296875 "/></g></g></g><g fill="#1f117b" fill-opacity="1"><g transform="translate(613.068989, 775.055675)"><g><path d="M 19.09375 -1.515625 C 18.40625 -0.929688 17.550781 -0.484375 16.53125 -0.171875 C 15.519531 0.140625 14.472656 0.296875 13.390625 0.296875 C 10.773438 0.296875 8.75 -0.40625 7.3125 -1.8125 C 5.875 -3.21875 5.15625 -5.234375 5.15625 -7.859375 L 5.15625 -22.140625 L 0.734375 -22.140625 L 0.734375 -26.015625 L 5.15625 -26.015625 L 5.15625 -31.703125 L 9.859375 -31.703125 L 9.859375 -26.015625 L 17.328125 -26.015625 L 17.328125 -22.140625 L 9.859375 -22.140625 L 9.859375 -8.046875 C 9.859375 -6.640625 10.207031 -5.5625 10.90625 -4.8125 C 11.613281 -4.0625 12.625 -3.6875 13.9375 -3.6875 C 15.375 -3.6875 16.601562 -4.09375 17.625 -4.90625 Z M 19.09375 -1.515625 "/></g></g></g><g fill="#1f117b" fill-opacity="1"><g transform="translate(633.383438, 775.055675)"><g><path d="M 4.46875 -26.015625 L 9.171875 -26.015625 L 9.171875 0 L 4.46875 0 Z M 6.828125 -31.015625 C 5.910156 -31.015625 5.148438 -31.304688 4.546875 -31.890625 C 3.941406 -32.484375 3.640625 -33.207031 3.640625 -34.0625 C 3.640625 -34.914062 3.941406 -35.644531 4.546875 -36.25 C 5.148438 -36.851562 5.910156 -37.15625 6.828125 -37.15625 C 7.742188 -37.15625 8.503906 -36.867188 9.109375 -36.296875 C 9.710938 -35.722656 10.015625 -35.007812 10.015625 -34.15625 C 10.015625 -33.269531 9.710938 -32.523438 9.109375 -31.921875 C 8.503906 -31.316406 7.742188 -31.015625 6.828125 -31.015625 Z M 6.828125 -31.015625 "/></g></g></g><g fill="#1f117b" fill-opacity="1"><g transform="translate(647.073612, 775.055675)"><g><path d="M 15.609375 0.296875 C 13.023438 0.296875 10.703125 -0.273438 8.640625 -1.421875 C 6.578125 -2.566406 4.960938 -4.144531 3.796875 -6.15625 C 2.640625 -8.164062 2.0625 -10.445312 2.0625 -13 C 2.0625 -15.550781 2.640625 -17.832031 3.796875 -19.84375 C 4.960938 -21.863281 6.578125 -23.4375 8.640625 -24.5625 C 10.703125 -25.6875 13.023438 -26.25 15.609375 -26.25 C 18.191406 -26.25 20.503906 -25.6875 22.546875 -24.5625 C 24.597656 -23.4375 26.203125 -21.863281 27.359375 -19.84375 C 28.523438 -17.832031 29.109375 -15.550781 29.109375 -13 C 29.109375 -10.445312 28.523438 -8.164062 27.359375 -6.15625 C 26.203125 -4.144531 24.597656 -2.566406 22.546875 -1.421875 C 20.503906 -0.273438 18.191406 0.296875 15.609375 0.296875 Z M 15.609375 -3.828125 C 17.273438 -3.828125 18.769531 -4.210938 20.09375 -4.984375 C 21.414062 -5.753906 22.453125 -6.832031 23.203125 -8.21875 C 23.960938 -9.613281 24.34375 -11.207031 24.34375 -13 C 24.34375 -14.800781 23.960938 -16.394531 23.203125 -17.78125 C 22.453125 -19.175781 21.414062 -20.25 20.09375 -21 C 18.769531 -21.757812 17.273438 -22.140625 15.609375 -22.140625 C 13.941406 -22.140625 12.441406 -21.757812 11.109375 -21 C 9.785156 -20.25 8.738281 -19.175781 7.96875 -17.78125 C 7.207031 -16.394531 6.828125 -14.800781 6.828125 -13 C 6.828125 -11.207031 7.207031 -9.613281 7.96875 -8.21875 C 8.738281 -6.832031 9.785156 -5.753906 11.109375 -4.984375 C 12.441406 -4.210938 13.941406 -3.828125 15.609375 -3.828125 Z M 15.609375 -3.828125 "/></g></g></g><g fill="#1f117b" fill-opacity="1"><g transform="translate(678.232251, 775.055675)"><g><path d="M 18.359375 -26.25 C 21.660156 -26.25 24.285156 -25.289062 26.234375 -23.375 C 28.179688 -21.46875 29.15625 -18.664062 29.15625 -14.96875 L 29.15625 0 L 24.4375 0 L 24.4375 -14.421875 C 24.4375 -16.941406 23.832031 -18.835938 22.625 -20.109375 C 21.414062 -21.390625 19.679688 -22.03125 17.421875 -22.03125 C 14.867188 -22.03125 12.851562 -21.285156 11.375 -19.796875 C 9.90625 -18.304688 9.171875 -16.171875 9.171875 -13.390625 L 9.171875 0 L 4.46875 0 L 4.46875 -26.015625 L 8.984375 -26.015625 L 8.984375 -22.078125 C 9.929688 -23.421875 11.210938 -24.453125 12.828125 -25.171875 C 14.453125 -25.890625 16.296875 -26.25 18.359375 -26.25 Z M 18.359375 -26.25 "/></g></g></g></svg>