<svg xmlns="http://www.w3.org/2000/svg" xmlns:xlink="http://www.w3.org/1999/xlink" width="1080" zoomAndPan="magnify" viewBox="0 0 810 809.999993" height="1080" preserveAspectRatio="xMidYMid meet" version="1.0"><defs><clipPath id="59a19b2037"><path d="M 295 221 L 571 221 L 571 669.867188 L 295 669.867188 Z M 295 221 " clip-rule="nonzero"/></clipPath><clipPath id="20dbd017bd"><path d="M 378 140.367188 L 422 140.367188 L 422 669.867188 L 378 669.867188 Z M 378 140.367188 " clip-rule="nonzero"/></clipPath><clipPath id="a5ff876d01"><path d="M 227 221 L 503 221 L 503 669.867188 L 227 669.867188 Z M 227 221 " clip-rule="nonzero"/></clipPath><clipPath id="4595868d6a"><path d="M 185 663 L 612 663 L 612 669.867188 L 185 669.867188 Z M 185 663 " clip-rule="nonzero"/></clipPath><clipPath id="09016459dc"><path d="M 30.519531 421 L 41 421 L 41 431 L 30.519531 431 Z M 30.519531 421 " clip-rule="nonzero"/></clipPath><clipPath id="7c9fa4baaa"><path d="M 770 318 L 779.769531 318 L 779.769531 328 L 770 328 Z M 770 318 " clip-rule="nonzero"/></clipPath></defs><path fill="#621d23" d="M 138.027344 359.210938 L 129.292969 358.863281 L 129.496094 353.625 L 138.234375 353.972656 Z M 155.484375 359.902344 L 146.746094 359.550781 L 146.949219 354.3125 L 155.6875 354.664062 Z M 172.941406 360.59375 L 164.203125 360.246094 L 164.410156 355.003906 L 173.144531 355.355469 Z M 117.210938 365.730469 L 113.421875 362.113281 L 119.464844 355.789062 L 123.25 359.410156 Z M 105.148438 378.367188 L 101.359375 374.75 L 107.398438 368.425781 L 111.183594 372.046875 Z M 93.082031 391.003906 L 89.292969 387.382812 L 95.316406 381.0625 L 99.105469 384.679688 Z M 81 403.636719 L 77.214844 400.019531 L 83.253906 393.703125 L 87.039062 397.316406 Z M 68.941406 416.273438 L 65.148438 412.65625 L 71.191406 406.335938 L 74.976562 409.953125 Z M 56.875 428.914062 L 53.082031 425.292969 L 59.125 418.980469 L 62.914062 422.597656 L 56.875 428.914062 " fill-opacity="1" fill-rule="nonzero"/><path fill="#621d23" d="M 735.667969 340.746094 L 731.949219 337.042969 L 732.699219 336.292969 L 736.421875 339.996094 Z M 723.316406 353.101562 L 719.59375 349.398438 L 725.769531 343.222656 L 729.492188 346.925781 Z M 181.78125 360.59375 L 173.046875 360.59375 L 173.046875 355.355469 L 181.78125 355.355469 Z M 199.253906 360.59375 L 190.519531 360.59375 L 190.519531 355.355469 L 199.253906 355.355469 Z M 216.726562 360.59375 L 207.988281 360.59375 L 207.988281 355.355469 L 216.726562 355.355469 Z M 234.199219 360.59375 L 225.460938 360.59375 L 225.460938 355.355469 L 234.199219 355.355469 Z M 251.675781 360.59375 L 242.9375 360.59375 L 242.9375 355.355469 L 251.675781 355.355469 Z M 269.148438 360.59375 L 260.410156 360.59375 L 260.410156 355.355469 L 269.148438 355.355469 Z M 286.617188 360.59375 L 277.882812 360.59375 L 277.882812 355.355469 L 286.617188 355.355469 Z M 304.09375 360.59375 L 295.355469 360.59375 L 295.355469 355.355469 L 304.09375 355.355469 Z M 321.566406 360.59375 L 312.832031 360.59375 L 312.832031 355.355469 L 321.566406 355.355469 Z M 339.039062 360.59375 L 330.304688 360.59375 L 330.304688 355.355469 L 339.039062 355.355469 Z M 356.511719 360.59375 L 347.773438 360.59375 L 347.773438 355.355469 L 356.511719 355.355469 Z M 373.988281 360.59375 L 365.25 360.59375 L 365.25 355.355469 L 373.988281 355.355469 Z M 391.460938 360.59375 L 382.722656 360.59375 L 382.722656 355.355469 L 391.460938 355.355469 Z M 408.933594 360.59375 L 400.195312 360.59375 L 400.195312 355.355469 L 408.933594 355.355469 Z M 426.402344 360.59375 L 417.667969 360.59375 L 417.667969 355.355469 L 426.402344 355.355469 Z M 443.878906 360.59375 L 435.144531 360.59375 L 435.144531 355.355469 L 443.878906 355.355469 Z M 461.351562 360.59375 L 452.617188 360.59375 L 452.617188 355.355469 L 461.351562 355.355469 Z M 478.824219 360.59375 L 470.089844 360.59375 L 470.089844 355.355469 L 478.824219 355.355469 Z M 496.296875 360.59375 L 487.5625 360.59375 L 487.5625 355.355469 L 496.296875 355.355469 Z M 513.773438 360.59375 L 505.035156 360.59375 L 505.035156 355.355469 L 513.773438 355.355469 Z M 531.246094 360.59375 L 522.507812 360.59375 L 522.507812 355.355469 L 531.246094 355.355469 Z M 548.71875 360.59375 L 539.980469 360.59375 L 539.980469 355.355469 L 548.71875 355.355469 Z M 566.195312 360.59375 L 557.453125 360.59375 L 557.453125 355.355469 L 566.195312 355.355469 Z M 583.664062 360.59375 L 574.929688 360.59375 L 574.929688 355.355469 L 583.664062 355.355469 Z M 601.136719 360.59375 L 592.402344 360.59375 L 592.402344 355.355469 L 601.136719 355.355469 Z M 618.609375 360.59375 L 609.875 360.59375 L 609.875 355.355469 L 618.609375 355.355469 Z M 710.960938 365.457031 L 707.238281 361.753906 L 713.417969 355.578125 L 717.136719 359.277344 Z M 622.023438 374.660156 L 616.769531 374.660156 L 616.769531 365.925781 L 622.023438 365.925781 Z M 698.589844 377.8125 L 694.867188 374.109375 L 701.046875 367.929688 L 704.765625 371.636719 Z M 686.234375 390.167969 L 682.515625 386.460938 L 688.695312 380.285156 L 692.410156 383.988281 Z M 622.023438 392.136719 L 616.769531 392.136719 L 616.769531 383.398438 L 622.023438 383.398438 Z M 673.882812 402.523438 L 670.164062 398.820312 L 676.335938 392.640625 L 680.058594 396.34375 Z M 628.335938 403.289062 L 619.601562 403.289062 L 619.601562 398.050781 L 628.335938 398.050781 Z M 645.808594 403.289062 L 637.070312 403.289062 L 637.070312 398.050781 L 645.808594 398.050781 Z M 663.285156 403.289062 L 654.550781 403.289062 L 654.550781 398.050781 L 663.285156 398.050781 L 663.285156 403.289062 " fill-opacity="1" fill-rule="nonzero"/><path fill="#feb856" d="M 551.261719 666.421875 C 545.335938 666.421875 539.574219 663.351562 536.398438 657.855469 L 300.726562 249.636719 C 295.996094 241.433594 298.804688 230.953125 307.003906 226.222656 C 315.195312 221.488281 325.683594 224.296875 330.414062 232.492188 L 566.085938 640.710938 C 570.820312 648.910156 568.007812 659.394531 559.8125 664.128906 C 557.117188 665.683594 554.167969 666.421875 551.261719 666.421875 " fill-opacity="1" fill-rule="nonzero"/><g clip-path="url(#59a19b2037)"><path fill="#621d23" d="M 315.542969 226.550781 C 313.066406 226.550781 310.574219 227.175781 308.308594 228.488281 C 304.945312 230.425781 302.542969 233.554688 301.550781 237.304688 C 300.539062 241.046875 301.054688 244.964844 303 248.316406 L 538.664062 656.539062 C 542.488281 663.207031 551.773438 665.75 558.492188 661.859375 C 565.4375 657.859375 567.8125 648.960938 563.816406 642.015625 L 328.136719 233.8125 C 325.457031 229.152344 320.558594 226.550781 315.542969 226.550781 Z M 551.261719 669.042969 C 544.214844 669.042969 537.640625 665.253906 534.128906 659.15625 L 298.460938 250.941406 C 295.8125 246.371094 295.117188 241.046875 296.480469 235.945312 C 297.847656 230.851562 301.109375 226.59375 305.679688 223.949219 C 315.132812 218.496094 327.230469 221.75 332.671875 231.195312 L 568.359375 639.394531 C 573.800781 648.839844 570.558594 660.957031 561.125 666.402344 C 558.121094 668.132812 554.707031 669.042969 551.261719 669.042969 " fill-opacity="1" fill-rule="nonzero"/></g><path fill="#feb856" d="M 393.269531 664.964844 C 388.117188 662.042969 384.625 656.519531 384.582031 650.171875 L 381.238281 160.226562 C 381.171875 150.761719 388.785156 143.035156 398.25 142.96875 C 407.71875 142.902344 415.449219 150.519531 415.511719 159.984375 L 418.859375 649.929688 C 418.929688 659.394531 411.308594 667.125 401.839844 667.191406 C 398.726562 667.210938 395.796875 666.40625 393.269531 664.964844 " fill-opacity="1" fill-rule="nonzero"/><g clip-path="url(#20dbd017bd)"><path fill="#621d23" d="M 394.5625 662.6875 C 396.730469 663.914062 399.222656 664.574219 401.730469 664.574219 C 401.765625 664.574219 401.796875 664.574219 401.816406 664.574219 C 405.6875 664.546875 409.339844 663.003906 412.054688 660.25 C 414.785156 657.484375 416.269531 653.824219 416.234375 649.949219 L 412.890625 160 C 412.839844 152.03125 406.335938 145.585938 398.371094 145.585938 C 398.335938 145.585938 398.300781 145.585938 398.265625 145.585938 C 394.394531 145.613281 390.757812 147.148438 388.03125 149.914062 C 385.316406 152.667969 383.832031 156.332031 383.863281 160.214844 L 387.210938 650.152344 C 387.246094 655.328125 390.058594 660.128906 394.5625 662.6875 Z M 401.746094 669.8125 C 398.320312 669.8125 394.941406 668.925781 391.972656 667.246094 C 385.863281 663.769531 382.023438 657.234375 381.957031 650.1875 L 378.609375 160.246094 C 378.539062 149.351562 387.328125 140.425781 398.230469 140.347656 C 398.285156 140.347656 398.335938 140.347656 398.371094 140.347656 C 409.207031 140.347656 418.058594 149.121094 418.144531 159.964844 L 421.488281 649.914062 C 421.527344 655.1875 419.496094 660.171875 415.789062 663.925781 C 412.085938 667.6875 407.140625 669.78125 401.847656 669.8125 C 401.816406 669.8125 401.785156 669.8125 401.746094 669.8125 " fill-opacity="1" fill-rule="nonzero"/></g><path fill="#feb856" d="M 246.996094 666.421875 C 244.085938 666.421875 241.140625 665.683594 238.441406 664.128906 C 230.246094 659.394531 227.4375 648.910156 232.171875 640.710938 L 467.839844 232.492188 C 472.574219 224.292969 483.058594 221.492188 491.253906 226.222656 C 499.449219 230.953125 502.261719 241.433594 497.527344 249.636719 L 261.855469 657.855469 C 258.679688 663.351562 252.921875 666.421875 246.996094 666.421875 " fill-opacity="1" fill-rule="nonzero"/><g clip-path="url(#a5ff876d01)"><path fill="#621d23" d="M 482.714844 226.550781 C 477.699219 226.550781 472.800781 229.152344 470.105469 233.8125 L 234.4375 642.023438 C 230.445312 648.960938 232.820312 657.859375 239.761719 661.859375 C 246.488281 665.769531 255.769531 663.207031 259.59375 656.546875 L 495.257812 248.316406 C 497.203125 244.964844 497.714844 241.054688 496.707031 237.316406 C 495.714844 233.5625 493.3125 230.433594 489.933594 228.488281 C 487.664062 227.175781 485.171875 226.550781 482.714844 226.550781 Z M 246.996094 669.042969 C 243.550781 669.042969 240.136719 668.132812 237.132812 666.402344 C 227.699219 660.957031 224.457031 648.839844 229.902344 639.402344 L 465.566406 231.183594 C 471.042969 221.773438 483.105469 218.515625 492.5625 223.949219 C 497.136719 226.59375 500.410156 230.859375 501.777344 235.960938 C 503.140625 241.054688 502.441406 246.382812 499.796875 250.941406 L 264.128906 659.164062 C 260.613281 665.253906 254.042969 669.042969 246.996094 669.042969 " fill-opacity="1" fill-rule="nonzero"/></g><path fill="#634cfd" d="M 606.003906 543.574219 L 192.25 543.574219 C 182.785156 543.574219 175.109375 535.898438 175.109375 526.433594 L 175.109375 209.648438 C 175.109375 200.183594 182.785156 192.511719 192.25 192.511719 L 606.003906 192.511719 C 615.472656 192.511719 623.144531 200.183594 623.144531 209.648438 L 623.144531 526.433594 C 623.144531 535.898438 615.472656 543.574219 606.003906 543.574219 " fill-opacity="1" fill-rule="nonzero"/><path fill="#621d23" d="M 192.257812 195.125 C 184.253906 195.125 177.734375 201.644531 177.734375 209.648438 L 177.734375 526.433594 C 177.734375 534.441406 184.253906 540.957031 192.257812 540.957031 L 606 540.957031 C 614.003906 540.957031 620.519531 534.441406 620.519531 526.433594 L 620.519531 209.648438 C 620.519531 201.644531 614.003906 195.125 606 195.125 Z M 606 546.199219 L 192.257812 546.199219 C 181.351562 546.199219 172.476562 537.328125 172.476562 526.433594 L 172.476562 209.648438 C 172.476562 198.75 181.351562 189.886719 192.257812 189.886719 L 606 189.886719 C 616.90625 189.886719 625.777344 198.75 625.777344 209.648438 L 625.777344 526.433594 C 625.777344 537.328125 616.90625 546.199219 606 546.199219 " fill-opacity="1" fill-rule="nonzero"/><path fill="#ffffff" d="M 587.261719 523.464844 L 210.992188 523.464844 C 201.527344 523.464844 193.851562 515.792969 193.851562 506.324219 L 193.851562 229.757812 C 193.851562 220.289062 201.527344 212.613281 210.992188 212.613281 L 587.261719 212.613281 C 596.726562 212.613281 604.402344 220.289062 604.402344 229.757812 L 604.402344 506.324219 C 604.402344 515.792969 596.726562 523.464844 587.261719 523.464844 " fill-opacity="1" fill-rule="nonzero"/><path fill="#feb856" d="M 408.34375 313.5625 C 408.34375 279.75 380.929688 252.332031 347.113281 252.332031 L 347.113281 313.5625 L 408.34375 313.5625 " fill-opacity="1" fill-rule="nonzero"/><path fill="#621d23" d="M 349.738281 310.945312 L 405.671875 310.945312 C 404.34375 280.703125 379.972656 256.355469 349.738281 255.015625 Z M 410.984375 316.179688 L 344.480469 316.179688 L 344.480469 249.714844 L 347.109375 249.714844 C 382.332031 249.714844 410.984375 278.359375 410.984375 313.566406 L 410.984375 316.179688 " fill-opacity="1" fill-rule="nonzero"/><path fill="#ffffff" d="M 347.847656 392.210938 C 381.664062 392.210938 409.074219 364.792969 409.074219 330.984375 L 347.847656 330.984375 L 347.847656 392.210938 " fill-opacity="1" fill-rule="nonzero"/><path fill="#621d23" d="M 350.472656 333.605469 L 350.472656 389.535156 C 380.707031 388.195312 405.058594 363.84375 406.386719 333.605469 Z M 347.84375 394.832031 L 345.21875 394.832031 L 345.21875 328.367188 L 411.695312 328.367188 L 411.695312 330.988281 C 411.695312 366.191406 383.046875 394.832031 347.84375 394.832031 " fill-opacity="1" fill-rule="nonzero"/><path fill="#634cfd" d="M 329.691406 390.648438 C 295.875 390.648438 268.46875 363.234375 268.46875 329.421875 L 329.691406 329.421875 L 329.691406 390.648438 " fill-opacity="1" fill-rule="nonzero"/><path fill="#621d23" d="M 271.140625 332.046875 C 272.472656 362.273438 296.824219 386.628906 327.058594 387.964844 L 327.058594 332.046875 Z M 332.316406 393.261719 L 329.6875 393.261719 C 294.488281 393.261719 265.835938 364.628906 265.835938 329.425781 L 265.835938 326.804688 L 332.316406 326.804688 L 332.316406 393.261719 " fill-opacity="1" fill-rule="nonzero"/><path fill="#ffffff" d="M 329.691406 252.332031 C 295.875 252.332031 268.46875 279.75 268.46875 313.5625 L 329.691406 313.5625 L 329.691406 252.332031 " fill-opacity="1" fill-rule="nonzero"/><path fill="#621d23" d="M 271.140625 310.945312 L 327.058594 310.945312 L 327.058594 255.015625 C 296.824219 256.355469 272.472656 280.703125 271.140625 310.945312 Z M 332.316406 316.179688 L 265.835938 316.179688 L 265.835938 313.566406 C 265.835938 278.359375 294.488281 249.714844 329.6875 249.714844 L 332.316406 249.714844 L 332.316406 316.179688 " fill-opacity="1" fill-rule="nonzero"/><path fill="#621d23" d="M 365.898438 291.175781 C 365.234375 291.175781 364.546875 290.917969 364.035156 290.40625 C 363.011719 289.382812 363.011719 287.726562 364.035156 286.703125 L 375.964844 274.777344 L 443.675781 274.777344 C 445.125 274.777344 446.300781 275.945312 446.300781 277.394531 C 446.300781 278.84375 445.125 280.015625 443.675781 280.015625 L 378.148438 280.015625 L 367.757812 290.40625 C 367.246094 290.917969 366.5625 291.175781 365.898438 291.175781 " fill-opacity="1" fill-rule="nonzero"/><path fill="#621d23" d="M 371.75 368.929688 C 371.085938 368.929688 370.402344 368.675781 369.890625 368.160156 C 368.867188 367.136719 368.867188 365.484375 369.890625 364.460938 L 381.785156 352.566406 L 465.15625 352.566406 C 466.609375 352.566406 467.785156 353.734375 467.785156 355.1875 C 467.785156 356.632812 466.609375 357.804688 465.15625 357.804688 L 383.96875 357.804688 L 373.609375 368.160156 C 373.097656 368.675781 372.414062 368.929688 371.75 368.929688 " fill-opacity="1" fill-rule="nonzero"/><path fill="#621d23" d="M 288.820312 392.523438 L 257.183594 392.523438 C 255.734375 392.523438 254.554688 391.355469 254.554688 389.902344 C 254.554688 388.453125 255.734375 387.285156 257.183594 387.285156 L 286.636719 387.285156 L 304.039062 369.867188 C 305.066406 368.84375 306.738281 368.84375 307.761719 369.867188 C 308.785156 370.890625 308.785156 372.546875 307.761719 373.570312 L 288.820312 392.523438 " fill-opacity="1" fill-rule="nonzero"/><path fill="#621d23" d="M 295 286.351562 L 239.726562 286.351562 C 238.28125 286.351562 237.101562 285.183594 237.101562 283.734375 C 237.101562 282.285156 238.28125 281.117188 239.726562 281.117188 L 295 281.117188 C 296.449219 281.117188 297.625 282.285156 297.625 283.734375 C 297.625 285.183594 296.449219 286.351562 295 286.351562 " fill-opacity="1" fill-rule="nonzero"/><path fill="#621d23" d="M 491.949219 280.398438 L 486.042969 280.398438 C 484.59375 280.398438 483.414062 279.230469 483.414062 277.777344 C 483.414062 276.332031 484.59375 275.160156 486.042969 275.160156 L 491.949219 275.160156 C 493.398438 275.160156 494.574219 276.332031 494.574219 277.777344 C 494.574219 279.230469 493.398438 280.398438 491.949219 280.398438 " fill-opacity="1" fill-rule="nonzero"/><path fill="#621d23" d="M 554.996094 280.398438 L 507.304688 280.398438 C 505.851562 280.398438 504.675781 279.230469 504.675781 277.777344 C 504.675781 276.332031 505.851562 275.160156 507.304688 275.160156 L 554.996094 275.160156 C 556.449219 275.160156 557.625 276.332031 557.625 277.777344 C 557.625 279.230469 556.449219 280.398438 554.996094 280.398438 " fill-opacity="1" fill-rule="nonzero"/><path fill="#621d23" d="M 554.996094 301.660156 L 549.09375 301.660156 C 547.644531 301.660156 546.464844 300.492188 546.464844 299.042969 C 546.464844 297.59375 547.644531 296.421875 549.09375 296.421875 L 554.996094 296.421875 C 556.449219 296.421875 557.625 297.59375 557.625 299.042969 C 557.625 300.492188 556.449219 301.660156 554.996094 301.660156 " fill-opacity="1" fill-rule="nonzero"/><path fill="#621d23" d="M 533.738281 301.660156 L 486.042969 301.660156 C 484.59375 301.660156 483.414062 300.492188 483.414062 299.042969 C 483.414062 297.59375 484.59375 296.421875 486.042969 296.421875 L 533.738281 296.421875 C 535.1875 296.421875 536.363281 297.59375 536.363281 299.042969 C 536.363281 300.492188 535.1875 301.660156 533.738281 301.660156 " fill-opacity="1" fill-rule="nonzero"/><path fill="#621d23" d="M 491.949219 357.929688 L 486.042969 357.929688 C 484.59375 357.929688 483.414062 356.761719 483.414062 355.3125 C 483.414062 353.863281 484.59375 352.691406 486.042969 352.691406 L 491.949219 352.691406 C 493.398438 352.691406 494.574219 353.863281 494.574219 355.3125 C 494.574219 356.761719 493.398438 357.929688 491.949219 357.929688 " fill-opacity="1" fill-rule="nonzero"/><path fill="#621d23" d="M 554.996094 357.929688 L 507.304688 357.929688 C 505.851562 357.929688 504.675781 356.761719 504.675781 355.3125 C 504.675781 353.863281 505.851562 352.691406 507.304688 352.691406 L 554.996094 352.691406 C 556.449219 352.691406 557.625 353.863281 557.625 355.3125 C 557.625 356.761719 556.449219 357.929688 554.996094 357.929688 " fill-opacity="1" fill-rule="nonzero"/><path fill="#621d23" d="M 554.996094 379.191406 L 549.09375 379.191406 C 547.644531 379.191406 546.464844 378.023438 546.464844 376.574219 C 546.464844 375.125 547.644531 373.953125 549.09375 373.953125 L 554.996094 373.953125 C 556.449219 373.953125 557.625 375.125 557.625 376.574219 C 557.625 378.023438 556.449219 379.191406 554.996094 379.191406 " fill-opacity="1" fill-rule="nonzero"/><path fill="#621d23" d="M 533.738281 379.191406 L 486.042969 379.191406 C 484.59375 379.191406 483.414062 378.023438 483.414062 376.574219 C 483.414062 375.125 484.59375 373.953125 486.042969 373.953125 L 533.738281 373.953125 C 535.1875 373.953125 536.363281 375.125 536.363281 376.574219 C 536.363281 378.023438 535.1875 379.191406 533.738281 379.191406 " fill-opacity="1" fill-rule="nonzero"/><path fill="#ffffff" d="M 295.511719 483.410156 L 269.867188 483.410156 L 269.867188 437.6875 L 295.511719 437.6875 L 295.511719 483.410156 " fill-opacity="1" fill-rule="nonzero"/><path fill="#621d23" d="M 272.488281 480.785156 L 292.882812 480.785156 L 292.882812 440.3125 L 272.488281 440.3125 Z M 298.136719 486.027344 L 267.238281 486.027344 L 267.238281 435.074219 L 298.136719 435.074219 L 298.136719 486.027344 " fill-opacity="1" fill-rule="nonzero"/><path fill="#634cfd" d="M 376.050781 483.410156 L 350.40625 483.410156 L 350.40625 437.6875 L 376.050781 437.6875 L 376.050781 483.410156 " fill-opacity="1" fill-rule="nonzero"/><path fill="#621d23" d="M 353.03125 480.785156 L 373.421875 480.785156 L 373.421875 440.3125 L 353.03125 440.3125 Z M 378.675781 486.027344 L 347.773438 486.027344 L 347.773438 435.074219 L 378.675781 435.074219 L 378.675781 486.027344 " fill-opacity="1" fill-rule="nonzero"/><path fill="#feb856" d="M 337 483.410156 L 311.351562 483.410156 L 311.351562 451.25 L 337 451.25 L 337 483.410156 " fill-opacity="1" fill-rule="nonzero"/><path fill="#621d23" d="M 313.972656 480.785156 L 334.363281 480.785156 L 334.363281 453.871094 L 313.972656 453.871094 Z M 339.621094 486.027344 L 308.714844 486.027344 L 308.714844 448.628906 L 339.621094 448.628906 L 339.621094 486.027344 " fill-opacity="1" fill-rule="nonzero"/><path fill="#621d23" d="M 389.789062 486.027344 L 257.917969 486.027344 C 256.46875 486.027344 255.289062 484.859375 255.289062 483.40625 C 255.289062 481.953125 256.46875 480.785156 257.917969 480.785156 L 389.789062 480.785156 C 391.234375 480.785156 392.414062 481.953125 392.414062 483.40625 C 392.414062 484.859375 391.234375 486.027344 389.789062 486.027344 " fill-opacity="1" fill-rule="nonzero"/><path fill="#621d23" d="M 512.527344 475.960938 L 476.179688 439.613281 L 450.824219 464.96875 L 436.832031 450.976562 L 422.550781 465.269531 C 421.527344 466.292969 419.855469 466.292969 418.828125 465.269531 C 417.804688 464.246094 417.804688 462.585938 418.828125 461.5625 L 436.832031 443.570312 L 450.824219 457.5625 L 476.179688 432.1875 L 512.527344 468.550781 L 539.417969 441.660156 C 540.441406 440.636719 542.113281 440.636719 543.136719 441.660156 C 544.164062 442.683594 544.164062 444.339844 543.136719 445.363281 L 512.527344 475.960938 " fill-opacity="1" fill-rule="nonzero"/><path fill="#621d23" d="M 525.957031 431.808594 L 552.976562 458.832031 L 552.972656 431.816406 Z M 525.957031 431.808594 " fill-opacity="1" fill-rule="nonzero"/><g clip-path="url(#4595868d6a)"><path fill="#621d23" d="M 608.644531 669.042969 L 188.179688 669.042969 C 186.726562 669.042969 185.550781 667.875 185.550781 666.421875 C 185.550781 664.976562 186.726562 663.808594 188.179688 663.808594 L 608.644531 663.808594 C 610.097656 663.808594 611.277344 664.976562 611.277344 666.421875 C 611.277344 667.875 610.097656 669.042969 608.644531 669.042969 " fill-opacity="1" fill-rule="nonzero"/></g><path fill="#ffffff" d="M 150.425781 346.9375 C 153.539062 362.292969 143.617188 377.265625 128.261719 380.378906 C 112.90625 383.496094 97.929688 373.570312 94.816406 358.214844 C 91.699219 342.859375 101.625 327.886719 116.980469 324.773438 C 132.335938 321.65625 147.308594 331.582031 150.425781 346.9375 " fill-opacity="1" fill-rule="nonzero"/><path fill="#621d23" d="M 125.5625 329.257812 C 125.75 331.8125 123.824219 334.042969 121.269531 334.230469 C 118.707031 334.417969 116.484375 332.496094 116.296875 329.9375 C 116.105469 327.378906 118.027344 325.152344 120.582031 324.964844 C 123.144531 324.777344 125.371094 326.695312 125.5625 329.257812 " fill-opacity="1" fill-rule="nonzero"/><path fill="#621d23" d="M 140.332031 336.734375 C 138.832031 338.8125 135.929688 339.289062 133.847656 337.785156 C 131.769531 336.285156 131.296875 333.382812 132.796875 331.300781 C 134.296875 329.21875 137.199219 328.746094 139.28125 330.246094 C 141.363281 331.746094 141.832031 334.652344 140.332031 336.734375 " fill-opacity="1" fill-rule="nonzero"/><path fill="#621d23" d="M 146.84375 351.957031 C 144.355469 352.589844 141.828125 351.082031 141.199219 348.597656 C 140.570312 346.109375 142.074219 343.582031 144.558594 342.949219 C 147.046875 342.320312 149.578125 343.828125 150.207031 346.3125 C 150.832031 348.800781 149.332031 351.328125 146.84375 351.957031 " fill-opacity="1" fill-rule="nonzero"/><path fill="#621d23" d="M 142.042969 367.808594 C 139.734375 366.691406 138.765625 363.914062 139.878906 361.605469 C 140.996094 359.292969 143.773438 358.320312 146.085938 359.441406 C 148.394531 360.558594 149.363281 363.335938 148.246094 365.644531 C 147.132812 367.957031 144.351562 368.921875 142.042969 367.808594 " fill-opacity="1" fill-rule="nonzero"/><path fill="#621d23" d="M 128.179688 376.859375 C 127.125 374.519531 128.171875 371.773438 130.511719 370.71875 C 132.851562 369.667969 135.605469 370.710938 136.652344 373.050781 C 137.707031 375.390625 136.660156 378.140625 134.320312 379.191406 C 131.980469 380.246094 129.234375 379.203125 128.179688 376.859375 " fill-opacity="1" fill-rule="nonzero"/><path fill="#621d23" d="M 111.742188 374.886719 C 112.4375 372.417969 115.003906 370.980469 117.472656 371.679688 C 119.945312 372.375 121.378906 374.945312 120.683594 377.414062 C 119.984375 379.886719 117.414062 381.320312 114.945312 380.621094 C 112.476562 379.925781 111.042969 377.355469 111.742188 374.886719 " fill-opacity="1" fill-rule="nonzero"/><path fill="#621d23" d="M 100.417969 362.804688 C 102.539062 361.363281 105.425781 361.914062 106.871094 364.035156 C 108.316406 366.15625 107.761719 369.046875 105.640625 370.492188 C 103.519531 371.933594 100.628906 371.382812 99.1875 369.261719 C 97.746094 367.136719 98.292969 364.25 100.417969 362.804688 " fill-opacity="1" fill-rule="nonzero"/><path fill="#621d23" d="M 99.507812 346.273438 C 102.058594 346.53125 103.921875 348.808594 103.664062 351.363281 C 103.402344 353.914062 101.121094 355.777344 98.570312 355.519531 C 96.019531 355.257812 94.15625 352.980469 94.414062 350.425781 C 94.671875 347.871094 96.953125 346.015625 99.507812 346.273438 " fill-opacity="1" fill-rule="nonzero"/><path fill="#621d23" d="M 109.433594 333.019531 C 111.226562 334.859375 111.183594 337.804688 109.347656 339.59375 C 107.503906 341.382812 104.566406 341.339844 102.777344 339.503906 C 100.988281 337.664062 101.027344 334.71875 102.867188 332.933594 C 104.703125 331.140625 107.644531 331.183594 109.433594 333.019531 " fill-opacity="1" fill-rule="nonzero"/><path fill="#ffffff" d="M 699.832031 385.835938 C 702.945312 401.191406 693.023438 416.164062 677.667969 419.28125 C 662.3125 422.394531 647.339844 412.46875 644.226562 397.113281 C 641.109375 381.757812 651.03125 366.785156 666.390625 363.667969 C 681.746094 360.554688 696.71875 370.480469 699.832031 385.835938 " fill-opacity="1" fill-rule="nonzero"/><path fill="#621d23" d="M 674.96875 368.15625 C 675.15625 370.710938 673.234375 372.941406 670.675781 373.128906 C 668.117188 373.316406 665.890625 371.398438 665.699219 368.835938 C 665.511719 366.28125 667.4375 364.050781 669.992188 363.863281 C 672.550781 363.675781 674.777344 365.59375 674.96875 368.15625 " fill-opacity="1" fill-rule="nonzero"/><path fill="#621d23" d="M 689.742188 375.632812 C 688.242188 377.714844 685.335938 378.183594 683.253906 376.683594 C 681.175781 375.183594 680.703125 372.28125 682.207031 370.199219 C 683.707031 368.117188 686.609375 367.644531 688.691406 369.144531 C 690.769531 370.648438 691.242188 373.550781 689.742188 375.632812 " fill-opacity="1" fill-rule="nonzero"/><path fill="#621d23" d="M 696.25 390.855469 C 693.761719 391.488281 691.234375 389.984375 690.605469 387.492188 C 689.976562 385.007812 691.480469 382.480469 693.96875 381.847656 C 696.457031 381.21875 698.984375 382.726562 699.613281 385.214844 C 700.242188 387.699219 698.738281 390.226562 696.25 390.855469 " fill-opacity="1" fill-rule="nonzero"/><path fill="#621d23" d="M 691.449219 406.707031 C 689.140625 405.585938 688.175781 402.8125 689.289062 400.5 C 690.40625 398.1875 693.179688 397.222656 695.496094 398.339844 C 697.804688 399.457031 698.773438 402.230469 697.65625 404.542969 C 696.535156 406.855469 693.761719 407.824219 691.449219 406.707031 " fill-opacity="1" fill-rule="nonzero"/><path fill="#621d23" d="M 677.589844 415.757812 C 676.535156 413.417969 677.578125 410.671875 679.921875 409.617188 C 682.261719 408.5625 685.007812 409.609375 686.0625 411.949219 C 687.117188 414.289062 686.070312 417.039062 683.730469 418.089844 C 681.390625 419.144531 678.640625 418.097656 677.589844 415.757812 " fill-opacity="1" fill-rule="nonzero"/><path fill="#621d23" d="M 661.148438 413.785156 C 661.847656 411.316406 664.414062 409.878906 666.882812 410.578125 C 669.351562 411.277344 670.789062 413.84375 670.089844 416.3125 C 669.390625 418.78125 666.824219 420.21875 664.351562 419.519531 C 661.886719 418.820312 660.449219 416.257812 661.148438 413.785156 " fill-opacity="1" fill-rule="nonzero"/><path fill="#621d23" d="M 649.828125 401.703125 C 651.945312 400.261719 654.835938 400.8125 656.277344 402.933594 C 657.722656 405.054688 657.171875 407.945312 655.050781 409.390625 C 652.929688 410.828125 650.035156 410.28125 648.59375 408.160156 C 647.152344 406.035156 647.703125 403.148438 649.828125 401.703125 " fill-opacity="1" fill-rule="nonzero"/><path fill="#621d23" d="M 648.914062 385.171875 C 651.464844 385.429688 653.324219 387.710938 653.066406 390.261719 C 652.808594 392.8125 650.53125 394.675781 647.976562 394.417969 C 645.425781 394.160156 643.5625 391.878906 643.824219 389.324219 C 644.082031 386.769531 646.363281 384.914062 648.914062 385.171875 " fill-opacity="1" fill-rule="nonzero"/><path fill="#621d23" d="M 658.84375 371.921875 C 660.632812 373.757812 660.59375 376.703125 658.753906 378.488281 C 656.914062 380.28125 653.972656 380.238281 652.183594 378.402344 C 650.394531 376.5625 650.433594 373.617188 652.277344 371.832031 C 654.113281 370.042969 657.054688 370.082031 658.84375 371.921875 " fill-opacity="1" fill-rule="nonzero"/><path fill="#feb856" d="M 81.335938 423.273438 C 83.824219 435.519531 75.910156 447.460938 63.664062 449.945312 C 51.414062 452.429688 39.472656 444.515625 36.992188 432.269531 C 34.507812 420.023438 42.421875 408.078125 54.667969 405.59375 C 66.914062 403.109375 78.855469 411.023438 81.335938 423.273438 " fill-opacity="1" fill-rule="nonzero"/><path fill="#621d23" d="M 62.105469 404.449219 C 62.292969 407.007812 60.375 409.234375 57.8125 409.425781 C 55.253906 409.613281 53.027344 407.691406 52.835938 405.128906 C 52.648438 402.574219 54.570312 400.34375 57.128906 400.15625 C 59.6875 399.96875 61.914062 401.890625 62.105469 404.449219 " fill-opacity="1" fill-rule="nonzero"/><path fill="#621d23" d="M 76.878906 411.929688 C 75.375 414.007812 72.472656 414.480469 70.390625 412.980469 C 68.308594 411.476562 67.839844 408.574219 69.339844 406.492188 C 70.839844 404.410156 73.742188 403.941406 75.824219 405.445312 C 77.90625 406.941406 78.378906 409.847656 76.878906 411.929688 " fill-opacity="1" fill-rule="nonzero"/><path fill="#621d23" d="M 83.386719 427.15625 C 80.898438 427.785156 78.375 426.277344 77.746094 423.792969 C 77.109375 421.304688 78.617188 418.777344 81.105469 418.148438 C 83.589844 417.515625 86.117188 419.019531 86.75 421.507812 C 87.378906 423.996094 85.875 426.523438 83.386719 427.15625 " fill-opacity="1" fill-rule="nonzero"/><path fill="#621d23" d="M 78.589844 443 C 76.277344 441.882812 75.308594 439.105469 76.425781 436.796875 C 77.542969 434.488281 80.316406 433.519531 82.628906 434.632812 C 84.941406 435.75 85.910156 438.527344 84.792969 440.839844 C 83.675781 443.148438 80.898438 444.117188 78.589844 443 " fill-opacity="1" fill-rule="nonzero"/><path fill="#621d23" d="M 64.726562 452.058594 C 63.675781 449.71875 64.71875 446.964844 67.058594 445.910156 C 69.398438 444.863281 72.144531 445.902344 73.199219 448.242188 C 74.253906 450.582031 73.207031 453.335938 70.867188 454.390625 C 68.527344 455.4375 65.773438 454.398438 64.726562 452.058594 " fill-opacity="1" fill-rule="nonzero"/><path fill="#621d23" d="M 48.28125 450.082031 C 48.984375 447.613281 51.550781 446.175781 54.019531 446.875 C 56.488281 447.574219 57.925781 450.140625 57.222656 452.609375 C 56.527344 455.078125 53.960938 456.515625 51.492188 455.816406 C 49.023438 455.117188 47.585938 452.550781 48.28125 450.082031 " fill-opacity="1" fill-rule="nonzero"/><path fill="#621d23" d="M 36.960938 438 C 39.082031 436.558594 41.972656 437.105469 43.417969 439.226562 C 44.855469 441.351562 44.308594 444.242188 42.1875 445.683594 C 40.0625 447.128906 37.175781 446.574219 35.730469 444.457031 C 34.289062 442.335938 34.839844 439.441406 36.960938 438 " fill-opacity="1" fill-rule="nonzero"/><g clip-path="url(#09016459dc)"><path fill="#621d23" d="M 36.050781 421.464844 C 38.605469 421.722656 40.460938 424.003906 40.203125 426.558594 C 39.945312 429.109375 37.667969 430.972656 35.117188 430.710938 C 32.5625 430.453125 30.703125 428.175781 30.960938 425.621094 C 31.21875 423.070312 33.5 421.207031 36.050781 421.464844 " fill-opacity="1" fill-rule="nonzero"/></g><path fill="#621d23" d="M 45.980469 408.214844 C 47.769531 410.054688 47.730469 412.996094 45.890625 414.785156 C 44.054688 416.574219 41.109375 416.535156 39.320312 414.699219 C 37.53125 412.855469 37.574219 409.917969 39.410156 408.125 C 41.25 406.335938 44.195312 406.375 45.980469 408.214844 " fill-opacity="1" fill-rule="nonzero"/><path fill="#634cfd" d="M 768.703125 308.550781 C 776.347656 318.4375 774.527344 332.648438 764.644531 340.289062 C 754.757812 347.933594 740.546875 346.117188 732.90625 336.230469 C 725.261719 326.339844 727.082031 312.132812 736.964844 304.488281 C 746.855469 296.84375 761.058594 298.664062 768.703125 308.550781 " fill-opacity="1" fill-rule="nonzero"/><path fill="#621d23" d="M 743.128906 300.171875 C 744.429688 302.382812 743.691406 305.234375 741.484375 306.535156 C 739.269531 307.832031 736.421875 307.09375 735.121094 304.882812 C 733.820312 302.671875 734.558594 299.820312 736.769531 298.523438 C 738.984375 297.226562 741.828125 297.960938 743.128906 300.171875 " fill-opacity="1" fill-rule="nonzero"/><path fill="#621d23" d="M 759.691406 300.347656 C 759.261719 302.878906 756.867188 304.585938 754.335938 304.160156 C 751.804688 303.734375 750.101562 301.339844 750.523438 298.808594 C 750.949219 296.277344 753.34375 294.570312 755.875 294.996094 C 758.40625 295.421875 760.113281 297.816406 759.691406 300.347656 " fill-opacity="1" fill-rule="nonzero"/><path fill="#621d23" d="M 772.257812 311.125 C 770.308594 312.789062 767.375 312.558594 765.710938 310.605469 C 764.042969 308.652344 764.277344 305.722656 766.230469 304.058594 C 768.179688 302.390625 771.113281 302.625 772.777344 304.578125 C 774.445312 306.53125 774.207031 309.460938 772.257812 311.125 " fill-opacity="1" fill-rule="nonzero"/><g clip-path="url(#7c9fa4baaa)"><path fill="#621d23" d="M 774.960938 327.460938 C 772.390625 327.484375 770.296875 325.421875 770.277344 322.855469 C 770.253906 320.292969 772.324219 318.191406 774.886719 318.171875 C 777.453125 318.152344 779.546875 320.214844 779.570312 322.78125 C 779.589844 325.347656 777.523438 327.441406 774.960938 327.460938 " fill-opacity="1" fill-rule="nonzero"/></g><path fill="#621d23" d="M 766.527344 341.714844 C 764.550781 340.082031 764.269531 337.15625 765.90625 335.175781 C 767.535156 333.199219 770.464844 332.917969 772.445312 334.550781 C 774.421875 336.1875 774.703125 339.113281 773.066406 341.09375 C 771.433594 343.070312 768.507812 343.347656 766.527344 341.714844 " fill-opacity="1" fill-rule="nonzero"/><path fill="#621d23" d="M 750.910156 347.214844 C 750.441406 344.691406 752.113281 342.269531 754.636719 341.800781 C 757.160156 341.335938 759.582031 343.003906 760.046875 345.527344 C 760.515625 348.050781 758.847656 350.472656 756.324219 350.9375 C 753.796875 351.40625 751.375 349.738281 750.910156 347.214844 " fill-opacity="1" fill-rule="nonzero"/><path fill="#621d23" d="M 735.410156 341.382812 C 736.679688 339.152344 739.511719 338.371094 741.746094 339.632812 C 743.976562 340.898438 744.761719 343.734375 743.496094 345.96875 C 742.230469 348.199219 739.394531 348.980469 737.160156 347.71875 C 734.929688 346.453125 734.148438 343.617188 735.410156 341.382812 " fill-opacity="1" fill-rule="nonzero"/><path fill="#621d23" d="M 727.289062 326.957031 C 729.691406 326.0625 732.363281 327.28125 733.261719 329.6875 C 734.160156 332.09375 732.9375 334.769531 730.535156 335.664062 C 728.128906 336.5625 725.453125 335.339844 724.558594 332.933594 C 723.660156 330.53125 724.882812 327.851562 727.289062 326.957031 " fill-opacity="1" fill-rule="nonzero"/><path fill="#621d23" d="M 730.335938 310.679688 C 732.75 311.539062 734.015625 314.195312 733.15625 316.613281 C 732.296875 319.03125 729.644531 320.296875 727.226562 319.4375 C 724.808594 318.578125 723.546875 315.921875 724.402344 313.503906 C 725.257812 311.085938 727.914062 309.824219 730.335938 310.679688 " fill-opacity="1" fill-rule="nonzero"/></svg>