<svg xmlns="http://www.w3.org/2000/svg" xmlns:xlink="http://www.w3.org/1999/xlink" width="1080" zoomAndPan="magnify" viewBox="0 0 810 809.999993" height="1080" preserveAspectRatio="xMidYMid meet" version="1.0"><defs><clipPath id="dfdad612df"><path d="M 286 57.847656 L 710 57.847656 L 710 333 L 286 333 Z M 286 57.847656 " clip-rule="nonzero"/></clipPath><clipPath id="a6812796ea"><path d="M 88 739 L 214 739 L 214 752.347656 L 88 752.347656 Z M 88 739 " clip-rule="nonzero"/></clipPath><clipPath id="de2c0f5941"><path d="M 55.664062 419 L 270 419 L 270 553 L 55.664062 553 Z M 55.664062 419 " clip-rule="nonzero"/></clipPath><clipPath id="874b689fe0"><path d="M 136 495 L 260 495 L 260 752.347656 L 136 752.347656 Z M 136 495 " clip-rule="nonzero"/></clipPath><clipPath id="57b05213a1"><path d="M 392 495 L 516 495 L 516 752.347656 L 392 752.347656 Z M 392 495 " clip-rule="nonzero"/></clipPath></defs><path fill="#8c7bff" d="M 708.648438 98.433594 L 286.90625 98.433594 L 286.90625 58.683594 L 708.648438 58.683594 L 708.648438 98.433594 " fill-opacity="1" fill-rule="nonzero"/><path fill="#ffffff" d="M 695.855469 78.425781 C 695.855469 83.273438 691.761719 87.199219 686.714844 87.199219 C 681.664062 87.199219 677.570312 83.273438 677.570312 78.425781 C 677.570312 73.578125 681.664062 69.648438 686.714844 69.648438 C 691.761719 69.648438 695.855469 73.578125 695.855469 78.425781 " fill-opacity="1" fill-rule="nonzero"/><path fill="#ffffff" d="M 665.785156 78.425781 C 665.785156 83.273438 661.6875 87.199219 656.640625 87.199219 C 651.589844 87.199219 647.496094 83.273438 647.496094 78.425781 C 647.496094 73.578125 651.589844 69.648438 656.640625 69.648438 C 661.6875 69.648438 665.785156 73.578125 665.785156 78.425781 " fill-opacity="1" fill-rule="nonzero"/><path fill="#ffffff" d="M 635.710938 78.425781 C 635.710938 83.273438 631.613281 87.199219 626.566406 87.199219 C 621.515625 87.199219 617.421875 83.273438 617.421875 78.425781 C 617.421875 73.578125 621.515625 69.648438 626.566406 69.648438 C 631.613281 69.648438 635.710938 73.578125 635.710938 78.425781 " fill-opacity="1" fill-rule="nonzero"/><g clip-path="url(#dfdad612df)"><path fill="#000000" d="M 287.742188 330.375 L 707.808594 330.375 L 707.808594 59.519531 L 287.742188 59.519531 Z M 708.652344 332.046875 L 286.90625 332.046875 C 286.445312 332.046875 286.070312 331.667969 286.070312 331.207031 L 286.070312 58.683594 C 286.070312 58.21875 286.445312 57.847656 286.90625 57.847656 L 708.652344 57.847656 C 709.109375 57.847656 709.484375 58.21875 709.484375 58.683594 L 709.484375 331.207031 C 709.484375 331.667969 709.109375 332.046875 708.652344 332.046875 " fill-opacity="1" fill-rule="nonzero"/></g><path fill="#fda4ff" d="M 579.035156 190.777344 C 592.539062 192.460938 603.238281 203.1875 604.914062 216.722656 L 680.816406 216.722656 C 678.902344 161.230469 634.382812 116.59375 579.035156 114.671875 L 579.035156 190.777344 " fill-opacity="1" fill-rule="nonzero"/><path fill="#8c7bff" d="M 638.726562 272.558594 C 650.03125 258.980469 657.050781 241.695312 657.707031 222.789062 L 598.730469 222.789062 C 598.257812 226.601562 596.859375 230.121094 594.777344 233.128906 L 638.726562 272.558594 " fill-opacity="1" fill-rule="nonzero"/><path fill="#fcb503" d="M 560.496094 202.382812 C 563.886719 199.414062 568.148438 197.421875 572.84375 196.835938 L 572.84375 137.703125 C 550.738281 138.472656 530.851562 148.007812 516.542969 162.957031 L 560.496094 202.382812 " fill-opacity="1" fill-rule="nonzero"/><path fill="#000000" d="M 524.398438 282.964844 C 538.84375 294.792969 557.042969 301.304688 575.730469 301.304688 C 597.734375 301.304688 618.269531 292.652344 633.664062 276.917969 L 590.894531 238.554688 C 586.621094 242.054688 581.265625 243.972656 575.730469 243.972656 C 571.054688 243.972656 566.554688 242.632812 562.65625 240.085938 Z M 575.730469 302.976562 C 556.359375 302.976562 537.511719 296.128906 522.660156 283.695312 L 521.996094 283.144531 L 562.386719 237.875 L 563 238.300781 C 566.753906 240.917969 571.152344 242.300781 575.730469 242.300781 C 581.105469 242.300781 586.304688 240.351562 590.363281 236.816406 L 590.921875 236.332031 L 636.070312 276.832031 L 635.472656 277.453125 C 619.699219 293.914062 598.480469 302.976562 575.730469 302.976562 " fill-opacity="1" fill-rule="nonzero"/><path fill="#fed101" d="M 518.894531 279.1875 L 558.226562 235.109375 C 554.695312 231.035156 552.554688 225.714844 552.554688 219.894531 C 552.554688 214.996094 554.070312 210.449219 556.648438 206.707031 L 512.691406 167.277344 C 500.839844 181.535156 493.710938 199.878906 493.710938 219.894531 C 493.710938 243.191406 503.371094 264.226562 518.894531 279.1875 " fill-opacity="1" fill-rule="nonzero"/><path fill="#fed101" d="M 325.75 179.695312 C 328.648438 169.152344 342.792969 159.441406 352.300781 161 C 360.015625 162.273438 359.914062 170.191406 366.484375 170.605469 C 375.300781 171.167969 380.171875 157.1875 389.027344 157.628906 C 396.722656 158.015625 398.140625 168.808594 405.03125 169.050781 C 414.597656 169.386719 419.132812 148.84375 430.488281 148.546875 C 438.984375 148.324219 442.1875 159.679688 450.855469 159.96875 C 456.707031 160.164062 464.644531 155.28125 474.855469 135.828125 C 474.855469 152.703125 474.855469 169.578125 474.855469 186.460938 C 425.03125 186.460938 375.207031 186.460938 325.382812 186.460938 C 325.125 184.816406 324.996094 182.441406 325.75 179.695312 " fill-opacity="1" fill-rule="nonzero"/><path fill="#000000" d="M 325.179688 164.105469 C 324.71875 164.105469 324.34375 163.734375 324.34375 163.269531 L 324.34375 123.703125 C 324.34375 123.242188 324.71875 122.867188 325.179688 122.867188 L 394.050781 122.867188 C 394.515625 122.867188 394.890625 123.242188 394.890625 123.703125 C 394.890625 124.167969 394.515625 124.539062 394.050781 124.539062 L 326.019531 124.539062 L 326.019531 163.269531 C 326.019531 163.734375 325.644531 164.105469 325.179688 164.105469 " fill-opacity="1" fill-rule="nonzero"/><path fill="#000000" d="M 474.859375 187.292969 L 405.03125 187.292969 C 404.570312 187.292969 404.195312 186.917969 404.195312 186.457031 C 404.195312 185.996094 404.570312 185.621094 405.03125 185.621094 L 474.015625 185.621094 L 474.015625 135.828125 C 474.015625 135.367188 474.390625 134.992188 474.859375 134.992188 C 475.316406 134.992188 475.6875 135.367188 475.6875 135.828125 L 475.6875 186.457031 C 475.6875 186.917969 475.316406 187.292969 474.859375 187.292969 " fill-opacity="1" fill-rule="nonzero"/><path fill="#000000" d="M 265.621094 478.445312 L 343.546875 478.445312 L 378.3125 426.730469 L 300.390625 426.730469 Z M 344.4375 480.117188 L 262.480469 480.117188 L 299.496094 425.054688 L 381.453125 425.054688 L 344.4375 480.117188 " fill-opacity="1" fill-rule="nonzero"/><path fill="#000000" d="M 219.367188 485.578125 L 343.03125 485.578125 L 343.03125 480.117188 L 219.367188 480.117188 Z M 344.703125 487.25 L 217.695312 487.25 L 217.695312 478.445312 L 344.703125 478.445312 L 344.703125 487.25 " fill-opacity="1" fill-rule="nonzero"/><path fill="#000000" d="M 320.699219 451.011719 C 318.691406 451.011719 317.054688 452.652344 317.054688 454.671875 C 317.054688 456.6875 318.691406 458.328125 320.699219 458.328125 C 322.710938 458.328125 324.347656 456.6875 324.347656 454.671875 C 324.347656 452.652344 322.710938 451.011719 320.699219 451.011719 Z M 320.699219 460 C 317.769531 460 315.382812 457.609375 315.382812 454.671875 C 315.382812 451.730469 317.769531 449.339844 320.699219 449.339844 C 323.632812 449.339844 326.019531 451.730469 326.019531 454.671875 C 326.019531 457.609375 323.632812 460 320.699219 460 " fill-opacity="1" fill-rule="nonzero"/><path fill="#8c7bff" d="M 155.960938 741.246094 L 146.457031 741.246094 C 145.996094 741.246094 145.621094 740.875 145.621094 740.410156 L 145.621094 551.59375 C 145.621094 551.132812 145.996094 550.757812 146.457031 550.757812 C 146.921875 550.757812 147.292969 551.132812 147.292969 551.59375 L 147.292969 739.578125 L 155.121094 739.578125 L 155.121094 552.050781 C 155.121094 551.585938 155.496094 551.210938 155.960938 551.210938 C 156.421875 551.210938 156.796875 551.585938 156.796875 552.050781 L 156.796875 740.410156 C 156.796875 740.875 156.421875 741.246094 155.960938 741.246094 " fill-opacity="1" fill-rule="nonzero"/><g clip-path="url(#a6812796ea)"><path fill="#8c7bff" d="M 90.1875 750.644531 L 211.925781 750.644531 L 211.925781 746.105469 L 155.886719 741.246094 L 146.457031 741.246094 L 90.1875 746.105469 Z M 212.761719 752.320312 L 89.351562 752.320312 C 88.886719 752.320312 88.511719 751.945312 88.511719 751.484375 L 88.511719 745.332031 C 88.511719 744.898438 88.84375 744.539062 89.277344 744.5 L 146.386719 739.578125 L 155.960938 739.578125 L 212.835938 744.5 C 213.265625 744.539062 213.597656 744.898438 213.597656 745.332031 L 213.597656 751.484375 C 213.597656 751.945312 213.226562 752.320312 212.761719 752.320312 " fill-opacity="1" fill-rule="nonzero"/></g><g clip-path="url(#de2c0f5941)"><path fill="#8c7bff" d="M 57.429688 421.429688 L 57.429688 463.902344 C 57.429688 511.933594 95.375 551.003906 142.019531 551.003906 L 268.28125 551.003906 L 268.28125 546.613281 C 268.28125 515.8125 239.9375 488.789062 207.621094 488.789062 C 207.398438 488.789062 207.199219 488.703125 207.046875 488.5625 C 177.539062 485.90625 154.3125 460.335938 154.3125 429.292969 L 154.3125 421.429688 Z M 269.117188 552.679688 L 142.019531 552.679688 C 94.453125 552.679688 55.753906 512.855469 55.753906 463.902344 L 55.753906 420.59375 C 55.753906 420.132812 56.128906 419.757812 56.59375 419.757812 L 155.148438 419.757812 C 155.609375 419.757812 155.984375 420.132812 155.984375 420.59375 L 155.984375 429.292969 C 155.984375 461.175781 181.171875 487.117188 212.132812 487.117188 C 212.347656 487.117188 212.546875 487.199219 212.695312 487.332031 C 243.738281 489.976562 269.957031 516.542969 269.957031 546.613281 L 269.957031 551.839844 C 269.957031 552.304688 269.582031 552.679688 269.117188 552.679688 " fill-opacity="1" fill-rule="nonzero"/></g><path fill="#8c7bff" d="M 155.363281 431.9375 L 150.695312 501.371094 L 104.296875 501.371094 L 108.964844 431.9375 L 155.363281 431.9375 " fill-opacity="1" fill-rule="nonzero"/><path fill="#955b50" d="M 280.792969 647.355469 L 315.847656 635.960938 L 338.917969 707.308594 L 303.863281 718.703125 L 280.792969 647.355469 " fill-opacity="1" fill-rule="nonzero"/><path fill="#020202" d="M 322.320312 655.976562 L 290.054688 676 L 280.792969 647.355469 L 315.847656 635.960938 L 322.320312 655.976562 " fill-opacity="1" fill-rule="nonzero"/><path fill="#020202" d="M 292.496094 683.554688 L 327.550781 672.160156 L 338.917969 707.308594 L 303.863281 718.703125 L 292.496094 683.554688 " fill-opacity="1" fill-rule="nonzero"/><path fill="#8c7bff" d="M 295.808594 695.292969 L 295.242188 696.007812 C 288.761719 704.203125 289.007812 711.28125 285.609375 722.964844 L 328.890625 738.734375 L 393.628906 739.546875 L 404.6875 733.03125 L 400.953125 723.828125 L 365.148438 711.964844 L 340.527344 696.347656 L 335.449219 688.738281 L 328.625 688.738281 L 322.894531 694.097656 L 322.894531 700.792969 C 316.414062 704.683594 315.242188 706.535156 312.023438 706.535156 C 311.953125 706.515625 306.566406 707.054688 304.851562 701.890625 L 303.085938 696.578125 C 302.027344 693.40625 297.882812 692.671875 295.808594 695.292969 " fill-opacity="1" fill-rule="nonzero"/><path fill="#020202" d="M 404.6875 733.03125 L 384.492188 736.910156 L 330.96875 735.824219 L 285.609375 722.964844 L 279.085938 728.898438 L 276.355469 743.804688 L 293.800781 751.480469 C 293.800781 751.480469 306.355469 751.425781 322.285156 751.480469 L 326.136719 747.664062 L 332.109375 747.664062 L 336.003906 751.480469 C 360.898438 751.550781 387.863281 751.480469 387.863281 751.480469 L 402.355469 744.03125 L 404.6875 739.507812 L 404.6875 733.03125 " fill-opacity="1" fill-rule="nonzero"/><path fill="#000000" d="M 339.320312 705.707031 C 339.054688 705.707031 338.792969 705.585938 338.632812 705.351562 C 338.367188 704.972656 338.464844 704.449219 338.84375 704.1875 L 345.980469 699.238281 C 346.359375 698.976562 346.882812 699.070312 347.144531 699.449219 C 347.40625 699.832031 347.3125 700.347656 346.929688 700.613281 L 339.796875 705.558594 C 339.652344 705.664062 339.484375 705.707031 339.320312 705.707031 " fill-opacity="1" fill-rule="nonzero"/><path fill="#000000" d="M 345.488281 709.863281 C 345.222656 709.863281 344.960938 709.738281 344.800781 709.503906 C 344.535156 709.125 344.632812 708.601562 345.011719 708.339844 L 352.152344 703.390625 C 352.527344 703.128906 353.050781 703.222656 353.3125 703.601562 C 353.578125 703.980469 353.484375 704.5 353.101562 704.765625 L 345.964844 709.710938 C 345.820312 709.816406 345.652344 709.863281 345.488281 709.863281 " fill-opacity="1" fill-rule="nonzero"/><path fill="#000000" d="M 351.65625 714.015625 C 351.390625 714.015625 351.128906 713.890625 350.96875 713.65625 C 350.707031 713.277344 350.800781 712.757812 351.179688 712.492188 L 358.320312 707.542969 C 358.695312 707.28125 359.21875 707.375 359.480469 707.753906 C 359.746094 708.132812 359.652344 708.652344 359.273438 708.917969 L 352.132812 713.863281 C 351.988281 713.96875 351.820312 714.015625 351.65625 714.015625 " fill-opacity="1" fill-rule="nonzero"/><path fill="#fed101" d="M 283.835938 667.328125 L 223.078125 499.882812 L 236.925781 494.832031 C 255.792969 487.945312 276.652344 497.703125 283.515625 516.617188 L 331.84375 649.8125 L 283.835938 667.328125 " fill-opacity="1" fill-rule="nonzero"/><path fill="#955b50" d="M 184.105469 616.902344 L 214.753906 632.691406 L 181.523438 697.554688 L 150.875 681.769531 L 184.105469 616.902344 " fill-opacity="1" fill-rule="nonzero"/><path fill="#020202" d="M 207.484375 646.882812 L 168.75 646.882812 L 184.109375 616.902344 L 214.753906 632.691406 L 207.484375 646.882812 " fill-opacity="1" fill-rule="nonzero"/><path fill="#020202" d="M 166.738281 650.804688 L 197.386719 666.589844 L 181.523438 697.554688 L 150.875 681.769531 L 166.738281 650.804688 " fill-opacity="1" fill-rule="nonzero"/><path fill="#8c7bff" d="M 131.402344 687.394531 C 139.75 678.558594 142.757812 672.148438 152.253906 667.832031 L 153.082031 667.453125 C 156.121094 666.070312 159.476562 668.625 158.972656 671.929688 L 158.121094 677.464844 C 157.292969 682.84375 162.328125 684.832031 162.382812 684.882812 C 165.246094 686.359375 167.132812 685.246094 174.667969 684.753906 L 177.71875 678.800781 L 185.261719 676.65625 L 191.332031 679.785156 L 192.382812 688.878906 L 208.464844 713.324219 L 233.324219 724.378906 L 237.785156 733.253906 L 227.28125 740.367188 L 186.121094 740.367188 L 162.710938 721.25 L 131.402344 687.394531 " fill-opacity="1" fill-rule="nonzero"/><path fill="#000000" d="M 186.417969 739.527344 L 227.023438 739.527344 L 236.707031 732.972656 L 232.707031 725.027344 L 207.902344 713.988281 L 191.578125 689.171875 L 190.554688 680.324219 L 185.171875 677.554688 L 178.296875 679.507812 L 175.195312 685.558594 L 174.722656 685.589844 C 172.289062 685.746094 170.449219 685.972656 168.96875 686.152344 C 165.867188 686.527344 164.15625 686.738281 162 685.625 L 161.976562 685.613281 C 160.621094 684.972656 156.492188 682.5625 157.292969 677.335938 L 158.144531 671.804688 C 158.335938 670.554688 157.847656 669.355469 156.84375 668.59375 C 155.84375 667.835938 154.570312 667.695312 153.429688 668.210938 L 152.601562 668.589844 C 145.996094 671.59375 142.546875 675.710938 138.179688 680.929688 C 136.546875 682.878906 134.714844 685.0625 132.542969 687.398438 L 163.285156 720.636719 Z M 227.539062 741.199219 L 185.820312 741.199219 L 162.097656 721.820312 L 130.257812 687.390625 L 130.792969 686.820312 C 133.167969 684.308594 135.148438 681.941406 136.894531 679.855469 C 141.402344 674.476562 144.957031 670.230469 151.90625 667.066406 L 152.734375 666.691406 C 154.445312 665.914062 156.355469 666.125 157.855469 667.261719 C 159.355469 668.394531 160.082031 670.191406 159.796875 672.058594 L 158.945312 677.589844 C 158.332031 681.582031 161.347656 683.46875 162.671875 684.089844 L 162.8125 684.164062 C 164.488281 685.011719 165.753906 684.859375 168.769531 684.488281 C 170.171875 684.320312 171.894531 684.109375 174.140625 683.953125 L 177.140625 678.097656 L 185.347656 675.761719 L 192.113281 679.246094 L 193.191406 688.585938 L 209.03125 712.660156 L 233.9375 723.738281 L 238.863281 733.535156 L 227.539062 741.199219 " fill-opacity="1" fill-rule="nonzero"/><path fill="#020202" d="M 122.894531 689.683594 L 131.402344 687.394531 L 165.886719 719.617188 L 194.285156 736.324219 L 217.589844 736.957031 L 237.816406 733.234375 L 237.765625 739.707031 L 235.398438 744.214844 L 220.851562 751.449219 C 220.851562 751.449219 212.367188 751.582031 195.640625 751.449219 C 195.640625 751.449219 169.691406 739.195312 163.234375 735.84375 L 161.507812 730.667969 L 156.191406 727.933594 L 151.027344 729.5625 C 136.882812 722.214844 125.695312 716.511719 125.695312 716.511719 L 113.671875 701.695312 L 122.894531 689.683594 " fill-opacity="1" fill-rule="nonzero"/><path fill="#000000" d="M 187.421875 696.746094 C 187.007812 696.746094 186.648438 696.441406 186.589844 696.019531 C 186.53125 695.5625 186.855469 695.140625 187.3125 695.078125 L 195.917969 693.949219 C 196.378906 693.886719 196.792969 694.214844 196.851562 694.667969 C 196.914062 695.128906 196.59375 695.550781 196.132812 695.605469 L 187.53125 696.738281 C 187.492188 696.746094 187.457031 696.746094 187.421875 696.746094 " fill-opacity="1" fill-rule="nonzero"/><path fill="#000000" d="M 191.015625 703.265625 C 190.601562 703.265625 190.242188 702.960938 190.1875 702.539062 C 190.125 702.082031 190.449219 701.660156 190.90625 701.597656 L 199.507812 700.46875 C 199.972656 700.40625 200.386719 700.734375 200.449219 701.1875 C 200.507812 701.648438 200.1875 702.070312 199.726562 702.128906 L 191.125 703.257812 C 191.085938 703.265625 191.050781 703.265625 191.015625 703.265625 " fill-opacity="1" fill-rule="nonzero"/><path fill="#000000" d="M 194.609375 709.785156 C 194.195312 709.785156 193.835938 709.480469 193.78125 709.058594 C 193.71875 708.601562 194.042969 708.179688 194.5 708.117188 L 203.105469 706.988281 C 203.558594 706.925781 203.984375 707.253906 204.042969 707.707031 C 204.105469 708.167969 203.78125 708.589844 203.324219 708.648438 L 194.71875 709.777344 C 194.679688 709.785156 194.644531 709.785156 194.609375 709.785156 " fill-opacity="1" fill-rule="nonzero"/><path fill="#fed101" d="M 252.695312 492.292969 L 162.535156 492.292969 L 163.558594 477.023438 L 106.074219 477.023438 L 104.242188 504.097656 C 102.789062 525.671875 119.851562 543.96875 141.414062 543.96875 L 208.773438 543.96875 L 167.875 623.578125 L 213.734375 647.160156 L 274.664062 528.394531 C 283.121094 511.910156 271.183594 492.292969 252.695312 492.292969 " fill-opacity="1" fill-rule="nonzero"/><path fill="#fcb503" d="M 252.769531 492.296875 C 251.816406 494.90625 251.292969 497.726562 251.292969 500.667969 C 251.292969 514.1875 262.222656 525.144531 275.703125 525.144531 C 275.820312 525.144531 275.941406 525.136719 276.058594 525.136719 C 281.523438 509.453125 270.011719 492.34375 252.769531 492.296875 " fill-opacity="1" fill-rule="nonzero"/><path fill="#000000" d="M 162.695312 489.914062 L 163.558594 477.023438 L 106.074219 477.023438 L 104.84375 495.179688 C 113.6875 498.003906 125.21875 496.824219 129.957031 493.785156 C 135.480469 490.238281 146.839844 485.96875 162.695312 489.914062 " fill-opacity="1" fill-rule="nonzero"/><path fill="#000000" d="M 214.097656 648.289062 L 166.75 623.945312 L 207.402344 544.804688 L 141.414062 544.804688 C 130.773438 544.804688 120.902344 540.515625 113.625 532.734375 C 106.316406 524.917969 102.6875 514.726562 103.40625 504.042969 L 105.238281 476.96875 C 105.269531 476.507812 105.675781 476.164062 106.132812 476.1875 C 106.589844 476.21875 106.941406 476.617188 106.910156 477.082031 L 105.074219 504.152344 C 104.390625 514.375 107.859375 524.117188 114.847656 531.589844 C 121.804688 539.035156 131.242188 543.128906 141.414062 543.128906 L 210.144531 543.128906 L 169 623.21875 L 213.371094 646.039062 L 273.921875 528.015625 C 277.765625 520.515625 277.441406 511.746094 273.046875 504.558594 C 268.671875 497.398438 261.066406 493.128906 252.695312 493.128906 L 146.082031 493.128906 C 145.617188 493.128906 145.246094 492.753906 145.246094 492.292969 C 145.246094 491.828125 145.617188 491.457031 146.082031 491.457031 L 252.695312 491.457031 C 261.652344 491.457031 269.796875 496.027344 274.476562 503.6875 C 279.175781 511.378906 279.523438 520.757812 275.410156 528.777344 L 214.097656 648.289062 " fill-opacity="1" fill-rule="nonzero"/><path fill="#000000" d="M 107.425781 369.875 C 111.539062 374.101562 111.453125 380.875 107.234375 384.996094 C 103.019531 389.117188 96.265625 389.03125 92.15625 384.804688 C 88.042969 380.578125 88.128906 373.804688 92.347656 369.683594 C 96.5625 365.558594 103.316406 365.648438 107.425781 369.875 " fill-opacity="1" fill-rule="nonzero"/><path fill="#000000" d="M 88.355469 369.632812 C 92.46875 373.863281 92.382812 380.628906 88.164062 384.753906 C 83.949219 388.878906 77.199219 388.789062 73.085938 384.5625 C 68.972656 380.332031 69.058594 373.5625 73.277344 369.441406 C 77.492188 365.320312 84.246094 365.402344 88.355469 369.632812 " fill-opacity="1" fill-rule="nonzero"/><path fill="#000000" d="M 126.496094 370.117188 C 130.609375 374.34375 130.523438 381.113281 126.308594 385.238281 C 122.089844 389.363281 115.335938 389.273438 111.226562 385.046875 C 107.113281 380.820312 107.199219 374.050781 111.417969 369.925781 C 115.632812 365.800781 122.386719 365.890625 126.496094 370.117188 " fill-opacity="1" fill-rule="nonzero"/><path fill="#000000" d="M 164.636719 370.601562 C 168.75 374.832031 168.664062 381.601562 164.445312 385.722656 C 160.230469 389.84375 153.480469 389.761719 149.367188 385.53125 C 145.257812 381.300781 145.339844 374.535156 149.558594 370.410156 C 153.773438 366.289062 160.527344 366.375 164.636719 370.601562 " fill-opacity="1" fill-rule="nonzero"/><path fill="#000000" d="M 202.78125 371.085938 C 206.890625 375.316406 206.804688 382.082031 202.589844 386.207031 C 198.371094 390.328125 191.621094 390.242188 187.507812 386.015625 C 183.394531 381.785156 183.480469 375.015625 187.699219 370.894531 C 191.914062 366.773438 198.667969 366.855469 202.78125 371.085938 " fill-opacity="1" fill-rule="nonzero"/><path fill="#000000" d="M 183.707031 370.847656 C 187.820312 375.074219 187.734375 381.84375 183.519531 385.964844 C 179.300781 390.085938 172.550781 390.003906 168.4375 385.769531 C 164.328125 381.542969 164.410156 374.773438 168.628906 370.652344 C 172.84375 366.53125 179.597656 366.613281 183.707031 370.847656 " fill-opacity="1" fill-rule="nonzero"/><path fill="#955b50" d="M 135.949219 417.773438 L 120.570312 416.875 L 122.648438 381.222656 L 138.023438 382.121094 L 135.949219 417.773438 " fill-opacity="1" fill-rule="nonzero"/><path fill="#955b50" d="M 122.902344 381.320312 C 122.429688 389.414062 128.023438 396.328125 135.398438 396.757812 C 142.769531 397.191406 149.128906 390.980469 149.597656 382.878906 C 150.070312 374.785156 144.476562 367.875 137.105469 367.441406 C 129.730469 367.007812 123.375 373.222656 122.902344 381.320312 " fill-opacity="1" fill-rule="nonzero"/><path fill="#ffffff" d="M 132.710938 390.195312 C 133.625 391.136719 134.835938 391.808594 136.234375 392.039062 C 139.347656 392.539062 142.289062 390.664062 143.238281 387.75 L 132.710938 390.195312 " fill-opacity="1" fill-rule="nonzero"/><path fill="#000000" d="M 136.355469 397.632812 C 136.101562 397.632812 135.847656 397.625 135.589844 397.609375 C 134.171875 397.527344 132.78125 397.210938 131.464844 396.671875 C 131.035156 396.496094 130.832031 396.011719 131.007812 395.582031 C 131.183594 395.152344 131.667969 394.949219 132.097656 395.121094 C 133.246094 395.59375 134.453125 395.867188 135.6875 395.941406 C 138.941406 396.132812 142.105469 394.910156 144.566406 392.5 C 147.050781 390.078125 148.535156 386.738281 148.746094 383.101562 C 149.183594 375.625 144.03125 369.222656 137.265625 368.828125 C 130.953125 368.460938 125.398438 373.378906 124.355469 380.273438 C 124.285156 380.726562 123.855469 381.042969 123.402344 380.976562 C 122.945312 380.90625 122.628906 380.476562 122.699219 380.023438 C 123.875 372.265625 130.183594 366.738281 137.367188 367.15625 C 145.050781 367.605469 150.90625 374.800781 150.417969 383.199219 C 150.183594 387.253906 148.519531 390.980469 145.734375 393.699219 C 143.125 396.25 139.820312 397.632812 136.355469 397.632812 " fill-opacity="1" fill-rule="nonzero"/><path fill="#000000" d="M 137.140625 376.632812 L 149.5 383.660156 C 149.546875 383.289062 149.597656 382.917969 149.621094 382.535156 C 150.089844 374.472656 144.515625 367.589844 137.175781 367.160156 C 129.835938 366.730469 123.011719 373.214844 122.542969 381.273438 C 122.511719 381.820312 122.511719 382.359375 122.535156 382.894531 L 137.140625 376.632812 " fill-opacity="1" fill-rule="nonzero"/><path fill="#8c7bff" d="M 96.441406 480.757812 L 114.429688 405.15625 L 139.777344 405.15625 C 147.839844 405.15625 154.566406 411.242188 155.488281 419.078125 L 155.832031 420.835938 C 156.574219 424.617188 159.089844 427.738281 162.5 429.519531 C 166.441406 431.570312 169.117188 435.703125 169.085938 440.460938 C 169.070312 443.515625 167.933594 446.300781 166.070312 448.433594 C 163.523438 451.355469 162.589844 455.359375 163.332031 459.171875 L 167.28125 480.761719 L 96.441406 480.757812 " fill-opacity="1" fill-rule="nonzero"/><path fill="#000000" d="M 167.277344 481.597656 C 166.882812 481.597656 166.53125 481.316406 166.457031 480.910156 L 162.511719 459.320312 C 161.703125 455.191406 162.796875 450.910156 165.441406 447.882812 C 167.234375 445.824219 168.234375 443.1875 168.25 440.457031 C 168.277344 436.152344 165.925781 432.246094 162.113281 430.257812 C 158.371094 428.308594 155.78125 424.933594 155.015625 420.996094 L 154.667969 419.238281 C 153.773438 411.664062 147.375 405.996094 139.777344 405.996094 L 136.667969 405.996094 C 136.203125 405.996094 135.828125 405.621094 135.828125 405.15625 C 135.828125 404.699219 136.203125 404.324219 136.667969 404.324219 L 139.777344 404.324219 C 148.222656 404.324219 155.335938 410.621094 156.320312 418.976562 L 156.65625 420.675781 C 157.324219 424.109375 159.597656 427.0625 162.886719 428.773438 C 167.257812 431.054688 169.957031 435.53125 169.925781 440.464844 C 169.90625 443.601562 168.761719 446.625 166.703125 448.984375 C 164.394531 451.625 163.445312 455.375 164.15625 459.007812 L 168.101562 480.609375 C 168.1875 481.066406 167.882812 481.503906 167.429688 481.582031 C 167.378906 481.59375 167.328125 481.597656 167.277344 481.597656 " fill-opacity="1" fill-rule="nonzero"/><path fill="#000000" d="M 146.222656 451.550781 C 145.957031 451.550781 145.699219 451.425781 145.535156 451.191406 C 145.273438 450.8125 145.367188 450.292969 145.75 450.027344 C 148.929688 447.828125 150.773438 444.207031 150.675781 440.347656 C 150.550781 435.402344 147.292969 431.128906 142.570312 429.707031 C 142.128906 429.574219 141.875 429.109375 142.011719 428.664062 C 142.144531 428.222656 142.609375 427.96875 143.050781 428.105469 C 148.46875 429.734375 152.207031 434.636719 152.347656 440.308594 C 152.457031 444.734375 150.347656 448.882812 146.699219 451.402344 C 146.554688 451.507812 146.386719 451.550781 146.222656 451.550781 " fill-opacity="1" fill-rule="nonzero"/><path fill="#955b50" d="M 193.015625 460.507812 L 193.015625 483.511719 L 235.070312 483.511719 C 236.339844 483.511719 237.554688 484.054688 238.402344 485.003906 L 240.179688 486.996094 C 241.78125 488.785156 244.625 488.632812 246.027344 486.679688 C 246.964844 485.378906 246.957031 483.648438 246.074219 482.355469 L 247.066406 480.976562 C 248.203125 479.394531 248.074219 477.226562 246.75 475.792969 L 245.75 474.710938 C 246.753906 473.144531 246.585938 471.085938 245.3125 469.707031 L 243.644531 467.902344 L 243.671875 467.882812 C 244.367188 466.394531 244.117188 464.597656 242.96875 463.355469 L 241.488281 461.75 C 238.652344 458.679688 234.671875 456.933594 230.5 456.933594 L 216.441406 456.933594 C 210.613281 456.933594 209.117188 460.507812 206.53125 460.507812 L 193.015625 460.507812 " fill-opacity="1" fill-rule="nonzero"/><path fill="#000000" d="M 245.75 475.546875 C 245.59375 475.546875 245.4375 475.503906 245.296875 475.414062 C 244.910156 475.164062 244.796875 474.648438 245.046875 474.257812 C 245.851562 473.007812 245.707031 471.367188 244.699219 470.273438 L 242.078125 467.4375 C 240.136719 465.332031 237.378906 464.125 234.515625 464.125 L 227.3125 464.125 C 226.847656 464.125 226.476562 463.75 226.476562 463.285156 C 226.476562 462.824219 226.847656 462.453125 227.3125 462.453125 L 234.515625 462.453125 C 237.84375 462.453125 241.046875 463.855469 243.308594 466.304688 L 245.925781 469.136719 C 247.453125 470.792969 247.667969 473.265625 246.453125 475.160156 C 246.292969 475.414062 246.023438 475.546875 245.75 475.546875 " fill-opacity="1" fill-rule="nonzero"/><path fill="#000000" d="M 246.066406 483.207031 C 245.894531 483.207031 245.726562 483.152344 245.578125 483.046875 C 245.203125 482.777344 245.117188 482.257812 245.386719 481.882812 L 246.386719 480.488281 C 247.289062 479.234375 247.183594 477.496094 246.132812 476.359375 L 242.992188 472.960938 C 241.382812 471.210938 239.09375 470.207031 236.71875 470.207031 L 227.246094 470.207031 C 226.78125 470.207031 226.410156 469.832031 226.410156 469.375 C 226.410156 468.910156 226.78125 468.535156 227.246094 468.535156 L 236.71875 468.535156 C 239.558594 468.535156 242.292969 469.734375 244.222656 471.824219 L 247.363281 475.226562 C 248.949219 476.941406 249.109375 479.566406 247.746094 481.464844 L 246.746094 482.855469 C 246.582031 483.085938 246.324219 483.207031 246.066406 483.207031 " fill-opacity="1" fill-rule="nonzero"/><path fill="#000000" d="M 220.320312 484.34375 L 192.179688 484.34375 L 192.179688 459.671875 L 206.53125 459.671875 C 207.3125 459.671875 208.054688 459.175781 208.992188 458.554688 C 210.550781 457.519531 212.691406 456.097656 216.445312 456.097656 L 230.5 456.097656 C 234.890625 456.097656 239.121094 457.949219 242.101562 461.179688 L 243.585938 462.785156 C 244.953125 464.269531 245.285156 466.410156 244.429688 468.234375 C 244.234375 468.65625 243.734375 468.835938 243.316406 468.640625 C 242.898438 468.445312 242.71875 467.945312 242.914062 467.527344 C 243.480469 466.320312 243.257812 464.902344 242.355469 463.921875 L 240.875 462.316406 C 238.207031 459.425781 234.425781 457.773438 230.5 457.773438 L 216.445312 457.773438 C 213.195312 457.773438 211.453125 458.925781 209.917969 459.949219 C 208.839844 460.664062 207.816406 461.34375 206.53125 461.34375 L 193.851562 461.34375 L 193.851562 482.675781 L 220.320312 482.675781 C 220.785156 482.675781 221.160156 483.046875 221.160156 483.511719 C 221.160156 483.972656 220.785156 484.34375 220.320312 484.34375 " fill-opacity="1" fill-rule="nonzero"/><path fill="#000000" d="M 242.976562 489.082031 C 241.667969 489.082031 240.433594 488.53125 239.558594 487.550781 L 237.78125 485.558594 C 237.089844 484.789062 236.101562 484.34375 235.070312 484.34375 L 212.550781 484.34375 C 208.351562 484.34375 204.441406 482.265625 202.082031 478.777344 C 201.824219 478.398438 201.925781 477.878906 202.304688 477.617188 C 202.6875 477.359375 203.207031 477.460938 203.46875 477.839844 C 205.515625 480.871094 208.910156 482.675781 212.550781 482.675781 L 235.070312 482.675781 C 236.578125 482.675781 238.019531 483.320312 239.027344 484.449219 L 240.804688 486.4375 C 241.398438 487.101562 242.25 487.453125 243.136719 487.402344 C 244.023438 487.359375 244.828125 486.914062 245.347656 486.195312 C 246.160156 485.066406 246.0625 483.507812 245.121094 482.488281 L 241.847656 478.9375 C 240.199219 477.15625 237.871094 476.136719 235.449219 476.136719 L 227.5625 476.136719 C 227.101562 476.136719 226.726562 475.761719 226.726562 475.296875 C 226.726562 474.835938 227.101562 474.464844 227.5625 474.464844 L 235.449219 474.464844 C 238.335938 474.464844 241.117188 475.679688 243.074219 477.800781 L 246.351562 481.351562 C 247.828125 482.953125 247.980469 485.402344 246.707031 487.167969 C 245.890625 488.308594 244.621094 489.003906 243.222656 489.078125 C 243.140625 489.082031 243.058594 489.082031 242.976562 489.082031 " fill-opacity="1" fill-rule="nonzero"/><path fill="#8c7bff" d="M 197.535156 457.0625 L 149.902344 457.0625 L 119.980469 405.15625 L 110.914062 405.15625 C 99.980469 405.15625 93.140625 417.023438 98.597656 426.523438 L 123.484375 469.84375 C 129.375 480.09375 140.273438 486.414062 152.070312 486.414062 L 197.535156 486.414062 L 197.535156 457.0625 " fill-opacity="1" fill-rule="nonzero"/><path fill="#6155ff" d="M 135.9375 468 C 131.71875 468 127.832031 469.441406 124.742188 471.859375 C 130.847656 480.914062 141.066406 486.414062 152.070312 486.414062 L 154.171875 486.414062 C 154.171875 486.371094 154.175781 486.332031 154.175781 486.285156 C 154.175781 476.1875 146.011719 468 135.9375 468 " fill-opacity="1" fill-rule="nonzero"/><path fill="#000000" d="M 198.371094 487.25 L 152.070312 487.25 C 140.011719 487.25 128.777344 480.742188 122.761719 470.261719 L 97.871094 426.941406 C 95.152344 422.207031 95.164062 416.5625 97.898438 411.835938 C 100.621094 407.128906 105.488281 404.324219 110.914062 404.324219 L 121.253906 404.324219 C 121.714844 404.324219 122.089844 404.699219 122.089844 405.15625 C 122.089844 405.621094 121.714844 405.996094 121.253906 405.996094 L 110.914062 405.996094 C 106.09375 405.996094 101.765625 408.492188 99.347656 412.675781 C 96.914062 416.875 96.90625 421.898438 99.324219 426.105469 L 124.210938 469.429688 C 129.933594 479.390625 140.609375 485.578125 152.070312 485.578125 L 196.699219 485.578125 L 196.699219 457.902344 L 149.421875 457.902344 L 131.988281 427.664062 C 131.757812 427.257812 131.894531 426.75 132.296875 426.519531 C 132.695312 426.289062 133.207031 426.425781 133.4375 426.828125 L 150.386719 456.226562 L 198.371094 456.226562 L 198.371094 487.25 " fill-opacity="1" fill-rule="nonzero"/><path fill="#000000" d="M 505.824219 496.777344 L 136.199219 496.777344 L 136.199219 485.578125 L 239.546875 485.578125 C 240.011719 485.578125 240.382812 485.949219 240.382812 486.414062 C 240.382812 486.875 240.011719 487.25 239.546875 487.25 L 137.875 487.25 L 137.875 495.105469 L 504.148438 495.105469 L 504.148438 487.25 L 246.203125 487.25 C 245.738281 487.25 245.367188 486.875 245.367188 486.414062 C 245.367188 485.949219 245.738281 485.578125 246.203125 485.578125 L 505.824219 485.578125 L 505.824219 496.777344 " fill-opacity="1" fill-rule="nonzero"/><g clip-path="url(#874b689fe0)"><path fill="#000000" d="M 247.433594 750.671875 L 256.992188 750.671875 L 201.457031 496.777344 L 193.613281 496.777344 L 138.078125 750.671875 L 147.636719 750.671875 L 197.535156 522.546875 Z M 259.070312 752.347656 L 246.085938 752.347656 L 197.535156 530.375 L 148.980469 752.347656 L 136 752.347656 L 136.21875 751.328125 L 192.265625 495.105469 L 202.804688 495.105469 L 259.070312 752.347656 " fill-opacity="1" fill-rule="nonzero"/></g><g clip-path="url(#57b05213a1)"><path fill="#000000" d="M 503.59375 750.671875 L 513.148438 750.671875 L 457.613281 496.777344 L 449.765625 496.777344 L 394.234375 750.671875 L 403.792969 750.671875 L 453.691406 522.546875 Z M 515.230469 752.347656 L 502.242188 752.347656 L 453.691406 530.375 L 405.140625 752.347656 L 392.15625 752.347656 L 392.378906 751.328125 L 448.425781 495.105469 L 458.960938 495.105469 L 515.230469 752.347656 " fill-opacity="1" fill-rule="nonzero"/></g><path fill="#000000" d="M 650.765625 741.351562 L 637.472656 741.351562 L 637.472656 594.636719 C 637.472656 594.175781 637.84375 593.800781 638.304688 593.800781 C 638.769531 593.800781 639.140625 594.175781 639.140625 594.636719 L 639.140625 739.679688 L 649.089844 739.679688 L 649.089844 594.421875 C 649.089844 593.960938 649.464844 593.585938 649.929688 593.585938 C 650.390625 593.585938 650.765625 593.960938 650.765625 594.421875 L 650.765625 741.351562 " fill-opacity="1" fill-rule="nonzero"/><path fill="#000000" d="M 590.496094 748.269531 L 697.460938 748.269531 L 697.460938 745.480469 L 649.859375 741.351562 L 638.304688 741.351562 L 590.496094 745.480469 Z M 699.136719 749.945312 L 588.824219 749.945312 L 588.824219 743.945312 L 638.234375 739.683594 L 649.929688 739.679688 L 699.136719 743.945312 L 699.136719 749.945312 " fill-opacity="1" fill-rule="nonzero"/><path fill="#000000" d="M 531.574219 593.585938 L 672.925781 593.585938 C 714.742188 593.585938 748.757812 558.558594 748.757812 515.5 L 748.757812 426.882812 L 633.859375 426.882812 L 633.859375 484.4375 C 633.859375 512.527344 612.707031 535.628906 585.929688 537.761719 L 585.929688 537.921875 C 556.980469 537.921875 531.574219 562.132812 531.574219 589.730469 Z M 672.925781 595.261719 L 529.898438 595.261719 L 529.898438 589.730469 C 529.898438 562.535156 553.753906 538.527344 581.878906 536.402344 L 581.878906 536.246094 C 609.621094 536.246094 632.191406 513.007812 632.191406 484.4375 L 632.191406 425.207031 L 750.429688 425.207031 L 750.429688 515.5 C 750.429688 559.480469 715.664062 595.261719 672.925781 595.261719 " fill-opacity="1" fill-rule="nonzero"/><path fill="#fed101" d="M 525.996094 662.71875 L 507.742188 579.277344 L 525.996094 662.71875 " fill-opacity="1" fill-rule="nonzero"/><path fill="#955b50" d="M 490.28125 716.175781 L 522 708.242188 L 522.214844 691.34375 L 512.898438 647.820312 L 477.289062 655.484375 L 490.28125 716.175781 " fill-opacity="1" fill-rule="nonzero"/><path fill="#020202" d="M 483.65625 685.230469 L 477.289062 655.484375 L 512.898438 647.820312 L 517.507812 669.335938 L 483.65625 685.230469 " fill-opacity="1" fill-rule="nonzero"/><path fill="#8c7bff" d="M 530.652344 738.816406 L 431.023438 738.816406 L 427.589844 729.40625 C 427.589844 723.761719 431.730469 718.980469 437.304688 718.195312 L 452.878906 715.992188 C 455.351562 715.644531 457.699219 714.675781 459.699219 713.175781 L 468.078125 708.066406 C 474.625 704.070312 479.15625 697.453125 480.535156 689.890625 L 480.933594 687.6875 L 526.402344 687.6875 L 530.652344 738.816406 " fill-opacity="1" fill-rule="nonzero"/><path fill="#fed101" d="M 437.304688 718.195312 L 452.582031 716.035156 L 452.582031 738.816406 L 427.910156 738.816406 L 427.589844 729.40625 C 427.589844 723.761719 431.730469 718.980469 437.304688 718.195312 " fill-opacity="1" fill-rule="nonzero"/><path fill="#000000" d="M 534.882812 736.1875 L 534.925781 751.269531 L 502.144531 751.269531 L 502.144531 745.925781 L 480.101562 745.925781 L 480.101562 751.269531 L 421.140625 751.269531 L 421.140625 736.191406 L 534.882812 736.1875 " fill-opacity="1" fill-rule="nonzero"/><path fill="#000000" d="M 427.5625 737.023438 C 427.121094 737.023438 426.753906 736.679688 426.726562 736.230469 L 426.410156 730.699219 C 426.042969 724.304688 430.527344 718.761719 436.847656 717.796875 L 455.550781 714.949219 C 456.265625 714.84375 456.980469 715.164062 457.378906 715.765625 L 467.027344 730.480469 C 467.28125 730.867188 467.171875 731.382812 466.785156 731.636719 C 466.394531 731.890625 465.878906 731.78125 465.625 731.394531 L 455.980469 716.683594 C 455.941406 716.625 455.882812 716.597656 455.804688 716.605469 L 437.097656 719.449219 C 431.636719 720.28125 427.761719 725.074219 428.082031 730.605469 L 428.398438 736.136719 C 428.425781 736.601562 428.074219 736.996094 427.609375 737.023438 C 427.597656 737.023438 427.578125 737.023438 427.5625 737.023438 " fill-opacity="1" fill-rule="nonzero"/><path fill="#000000" d="M 473.273438 718.753906 C 473.128906 718.753906 472.984375 718.71875 472.851562 718.636719 L 462.632812 712.660156 C 462.234375 712.429688 462.097656 711.917969 462.335938 711.519531 C 462.566406 711.117188 463.082031 710.984375 463.476562 711.21875 L 473.695312 717.195312 C 474.097656 717.425781 474.230469 717.941406 473.996094 718.339844 C 473.839844 718.605469 473.5625 718.753906 473.273438 718.753906 " fill-opacity="1" fill-rule="nonzero"/><path fill="#020202" d="M 508.097656 736.6875 C 511.34375 723.550781 523.464844 717.628906 528.75 715.925781 L 530.433594 736.238281 C 530.984375 736.238281 508.097656 736.6875 508.097656 736.6875 " fill-opacity="1" fill-rule="nonzero"/><path fill="#fed101" d="M 614.992188 518.234375 L 468.800781 518.234375 C 450.871094 518.234375 437.539062 534.863281 441.394531 552.421875 L 468.683594 676.808594 L 525.996094 658.523438 L 507.738281 575.082031 L 614.992188 575.082031 L 614.992188 518.234375 " fill-opacity="1" fill-rule="nonzero"/><path fill="#955b50" d="M 684.429688 695.164062 L 702.289062 668.761719 L 659.582031 639.722656 L 641.730469 666.125 L 684.429688 695.164062 " fill-opacity="1" fill-rule="nonzero"/><path fill="#020202" d="M 661.054688 679.265625 L 641.726562 666.125 L 659.585938 639.722656 L 672.9375 648.804688 L 661.054688 679.265625 " fill-opacity="1" fill-rule="nonzero"/><path fill="#8c7bff" d="M 664.183594 716.335938 C 666.519531 716.042969 668.679688 714.933594 670.292969 713.207031 L 674.726562 705.671875 C 675.613281 704.15625 675.683594 702.296875 674.894531 700.730469 L 668.878906 688.738281 L 695.050781 659.765625 L 732.507812 684.671875 L 690.777344 730.941406 C 687.445312 734.632812 682.71875 736.738281 677.75 736.738281 L 647.492188 738.867188 L 647.492188 737.472656 C 647.492188 720.636719 658.484375 717.050781 664.183594 716.335938 " fill-opacity="1" fill-rule="nonzero"/><path fill="#fed101" d="M 664.183594 716.335938 C 664.25 716.328125 664.308594 716.3125 664.371094 716.304688 L 677.75 736.734375 L 677.742188 736.734375 L 647.496094 738.644531 L 647.496094 737.472656 C 647.496094 720.636719 658.492188 717.050781 664.183594 716.335938 " fill-opacity="1" fill-rule="nonzero"/><path fill="#020202" d="M 716.601562 674.09375 C 714.371094 678.464844 713.703125 682.398438 713.703125 686.003906 C 713.703125 691.578125 715.015625 696.832031 717.332031 701.5 L 732.507812 684.671875 L 716.601562 674.09375 " fill-opacity="1" fill-rule="nonzero"/><path fill="#000000" d="M 681.484375 728.53125 C 681.304688 728.53125 681.125 728.476562 680.976562 728.359375 L 666.179688 716.984375 C 665.8125 716.699219 665.742188 716.175781 666.027344 715.8125 C 666.304688 715.445312 666.832031 715.375 667.195312 715.65625 L 681.996094 727.027344 C 682.359375 727.3125 682.429688 727.839844 682.148438 728.207031 C 681.980469 728.417969 681.734375 728.53125 681.484375 728.53125 " fill-opacity="1" fill-rule="nonzero"/><path fill="#000000" d="M 685.34375 718.742188 C 685.234375 718.742188 685.125 718.722656 685.023438 718.675781 L 671.683594 713.054688 C 671.257812 712.875 671.058594 712.386719 671.242188 711.964844 C 671.417969 711.53125 671.910156 711.335938 672.335938 711.515625 L 685.667969 717.136719 C 686.097656 717.3125 686.296875 717.804688 686.121094 718.230469 C 685.980469 718.550781 685.667969 718.742188 685.34375 718.742188 " fill-opacity="1" fill-rule="nonzero"/><path fill="#000000" d="M 664.183594 716.335938 L 664.1875 716.335938 Z M 664.285156 717.167969 C 658.328125 717.914062 648.332031 721.546875 648.332031 737.472656 L 648.332031 737.972656 L 677.691406 735.902344 C 682.464844 735.898438 686.988281 733.886719 690.148438 730.382812 L 731.230469 684.832031 L 695.183594 660.863281 L 669.882812 688.875 L 675.644531 700.355469 C 676.554688 702.183594 676.480469 704.332031 675.445312 706.09375 L 670.898438 713.78125 C 669.15625 715.648438 666.804688 716.847656 664.285156 717.167969 Z M 646.65625 739.765625 L 646.65625 737.472656 C 646.65625 719.621094 658.84375 716.164062 664.078125 715.503906 C 666.183594 715.242188 668.144531 714.246094 669.617188 712.703125 L 674.003906 705.246094 C 674.753906 703.976562 674.808594 702.425781 674.144531 701.105469 L 667.871094 688.601562 L 694.910156 658.667969 L 733.777344 684.515625 L 691.394531 731.503906 C 687.914062 735.359375 682.9375 737.574219 677.746094 737.574219 L 646.65625 739.765625 " fill-opacity="1" fill-rule="nonzero"/><path fill="#020202" d="M 677.75 736.738281 C 682.710938 736.738281 687.445312 734.632812 690.777344 730.941406 L 733.957031 682.375 L 744.113281 688.734375 L 721.40625 715.535156 L 717.203125 711.640625 L 700.589844 730.039062 L 704.585938 733.742188 L 697.480469 741.4375 C 692.671875 746.632812 685.925781 749.589844 678.855469 749.589844 L 641.539062 749.589844 L 641.539062 736.738281 L 677.75 736.738281 " fill-opacity="1" fill-rule="nonzero"/><path fill="#fed101" d="M 675.265625 636.46875 L 591.976562 579.273438 L 623.808594 579.273438 C 645.582031 579.273438 666.023438 568.726562 678.675781 550.953125 L 698.980469 522.429688 L 508.960938 522.429688 C 478.800781 522.429688 466.789062 561.535156 491.726562 578.550781 L 644.125 682.523438 L 675.265625 636.46875 " fill-opacity="1" fill-rule="nonzero"/><path fill="#fcb503" d="M 508.746094 541.144531 C 508.746094 534.492188 507.058594 528.246094 504.101562 522.789062 C 479.179688 526.484375 469.378906 558.273438 487.820312 575.429688 C 500.242188 569.054688 508.746094 556.097656 508.746094 541.144531 " fill-opacity="1" fill-rule="nonzero"/><path fill="#000000" d="M 508.960938 523.269531 C 495.613281 523.269531 484.4375 531.527344 480.492188 544.3125 C 476.527344 557.140625 481.128906 570.308594 492.199219 577.859375 L 643.902344 681.359375 L 674.101562 636.691406 L 589.28125 578.441406 L 623.800781 578.441406 C 645.265625 578.441406 665.527344 567.984375 677.992188 550.46875 L 697.355469 523.269531 Z M 644.34375 683.6875 L 643.648438 683.214844 L 491.253906 579.242188 C 479.5625 571.269531 474.710938 557.363281 478.890625 543.820312 C 483.058594 530.316406 494.863281 521.59375 508.960938 521.59375 L 700.601562 521.59375 L 679.355469 551.441406 C 666.574219 569.394531 645.804688 580.113281 623.800781 580.113281 L 594.675781 580.113281 L 676.417969 636.253906 L 644.34375 683.6875 " fill-opacity="1" fill-rule="nonzero"/><path fill="#fda4ff" d="M 686.105469 434.855469 L 668.410156 434.855469 L 668.410156 409.269531 L 686.105469 409.269531 L 686.105469 434.855469 " fill-opacity="1" fill-rule="nonzero"/><path fill="#000000" d="M 644.796875 359.40625 L 644.796875 382.964844 C 644.796875 391.589844 651.777344 398.589844 660.386719 398.589844 L 667.414062 398.589844 L 689.210938 402.851562 L 689.210938 395.605469 C 689.210938 387.886719 684.964844 380.792969 678.160156 377.175781 L 644.796875 359.40625 " fill-opacity="1" fill-rule="nonzero"/><path fill="#fda4ff" d="M 689.210938 404.027344 C 689.210938 413.679688 682.015625 421.503906 673.132812 421.503906 C 664.25 421.503906 657.050781 413.679688 657.050781 404.027344 C 657.050781 394.375 664.25 386.550781 673.132812 386.550781 C 682.015625 386.550781 689.210938 394.375 689.210938 404.027344 " fill-opacity="1" fill-rule="nonzero"/><path fill="#000000" d="M 673.132812 422.34375 C 663.804688 422.34375 656.214844 413.976562 656.214844 403.6875 C 656.214844 393.398438 663.804688 385.03125 673.132812 385.03125 C 679.058594 385.03125 684.625 388.519531 687.667969 394.132812 C 687.886719 394.535156 687.734375 395.042969 687.328125 395.265625 C 686.921875 395.484375 686.414062 395.332031 686.195312 394.925781 C 683.40625 389.777344 678.523438 386.703125 673.132812 386.703125 C 664.726562 386.703125 657.886719 394.320312 657.886719 403.6875 C 657.886719 413.046875 664.726562 420.667969 673.132812 420.667969 C 677.972656 420.667969 680.964844 419.921875 684.832031 415.675781 C 685.144531 415.335938 685.671875 415.308594 686.015625 415.617188 C 686.359375 415.929688 686.378906 416.460938 686.070312 416.804688 C 681.804688 421.484375 678.359375 422.34375 673.132812 422.34375 " fill-opacity="1" fill-rule="nonzero"/><path fill="#000000" d="M 673.132812 385.871094 C 682.015625 385.871094 689.210938 393.847656 689.210938 403.6875 C 689.210938 404.570312 689.15625 405.441406 689.039062 406.292969 L 678.628906 398.589844 L 657.722656 398.589844 C 659.703125 391.230469 665.851562 385.871094 673.132812 385.871094 " fill-opacity="1" fill-rule="nonzero"/><path fill="#ffffff" d="M 664.191406 412.882812 C 665.007812 414.152344 666.21875 415.1875 667.742188 415.753906 C 671.136719 417.027344 674.867188 415.582031 676.59375 412.507812 L 664.191406 412.882812 " fill-opacity="1" fill-rule="nonzero"/><path fill="#000000" d="M 492.808594 410.222656 L 316.21875 410.222656 L 316.21875 213.195312 L 492.808594 213.195312 L 492.808594 410.222656 " fill-opacity="1" fill-rule="nonzero"/><path fill="#ffffff" d="M 500.902344 272.210938 C 498.441406 272.910156 496.964844 275.421875 497.546875 277.917969 L 499.804688 286.324219 L 499.367188 286.457031 C 496.808594 287.253906 495.230469 289.820312 495.667969 292.46875 L 498.300781 308.410156 C 499.027344 312.34375 498.652344 316.402344 497.210938 320.132812 L 494.394531 327.40625 L 482.019531 317.171875 C 480.101562 315.582031 477.265625 315.820312 475.640625 317.707031 L 475.296875 318.105469 C 473.691406 319.96875 473.835938 322.769531 475.625 324.457031 L 479.183594 327.8125 C 482.289062 330.742188 485 334.066406 487.234375 337.707031 C 489.203125 340.90625 491.578125 344.671875 492.882812 346.386719 C 496.0625 350.566406 499.914062 351.804688 502.664062 352.09375 L 502.664062 272.050781 C 502.089844 271.996094 501.488281 272.039062 500.902344 272.210938 " fill-opacity="1" fill-rule="nonzero"/><path fill="#955b50" d="M 500.160156 272.179688 C 500.183594 272.179688 500.207031 272.179688 500.222656 272.167969 C 500.207031 272.179688 500.183594 272.179688 500.160156 272.179688 " fill-opacity="1" fill-rule="nonzero"/><path fill="#ffffff" d="M 501.640625 401.304688 L 325.179688 401.304688 L 325.179688 204.429688 L 501.640625 204.429688 L 501.640625 401.304688 " fill-opacity="1" fill-rule="nonzero"/><path fill="#000000" d="M 502.523438 402.070312 L 324.261719 402.070312 L 324.261719 203.371094 L 502.519531 203.371094 L 503.0625 291.660156 C 503.0625 292.121094 502.695312 292.5 502.230469 292.5 C 502.226562 292.5 502.226562 292.5 502.222656 292.5 C 501.765625 292.5 501.390625 292.128906 501.386719 291.667969 L 500.855469 205.042969 L 325.933594 205.042969 L 325.933594 400.398438 L 500.855469 400.398438 L 501.296875 311.703125 C 501.300781 311.242188 501.671875 310.871094 502.128906 310.871094 C 502.132812 310.871094 502.132812 310.871094 502.132812 310.871094 C 502.597656 310.875 502.972656 311.25 502.972656 311.710938 L 502.523438 402.070312 " fill-opacity="1" fill-rule="nonzero"/><path fill="#8c7bff" d="M 469.847656 381.101562 L 456.496094 381.101562 L 456.496094 323.523438 L 469.847656 323.523438 L 469.847656 381.101562 " fill-opacity="1" fill-rule="nonzero"/><path fill="#8c7bff" d="M 443.371094 381.101562 L 430.023438 381.101562 L 430.023438 341.183594 L 443.371094 341.183594 L 443.371094 381.101562 " fill-opacity="1" fill-rule="nonzero"/><path fill="#fda4ff" d="M 416.894531 381.101562 L 403.546875 381.101562 L 403.546875 352.910156 L 416.894531 352.910156 L 416.894531 381.101562 " fill-opacity="1" fill-rule="nonzero"/><path fill="#8c7bff" d="M 390.425781 381.101562 L 377.074219 381.101562 L 377.074219 341.183594 L 390.425781 341.183594 L 390.425781 381.101562 " fill-opacity="1" fill-rule="nonzero"/><path fill="#4ada85" d="M 363.953125 381.101562 L 350.597656 381.101562 L 350.597656 329.976562 L 363.953125 329.976562 L 363.953125 381.101562 " fill-opacity="1" fill-rule="nonzero"/><path fill="#fda4ff" d="M 382.90625 302.558594 L 413.382812 271.996094 L 382.90625 241.433594 C 366.070312 258.3125 366.070312 285.679688 382.90625 302.558594 " fill-opacity="1" fill-rule="nonzero"/><path fill="#4ada85" d="M 377.308594 227.984375 L 407.789062 258.542969 L 407.789062 215.324219 C 395.882812 215.324219 385.109375 220.160156 377.308594 227.984375 " fill-opacity="1" fill-rule="nonzero"/><path fill="#8c7bff" d="M 413.382812 271.996094 L 382.902344 302.558594 C 399.738281 319.4375 427.027344 319.4375 443.863281 302.558594 C 460.695312 285.679688 460.695312 258.316406 443.863281 241.4375 C 435.449219 233 424.414062 228.777344 413.382812 228.777344 L 413.382812 271.996094 " fill-opacity="1" fill-rule="nonzero"/><path fill="#fda4ff" d="M 527.09375 331.917969 L 506.699219 275.195312 C 505.953125 273.117188 503.917969 271.859375 501.800781 272.042969 C 502.097656 272.019531 502.390625 272.023438 502.683594 272.054688 L 502.683594 332.015625 L 502.164062 331.84375 C 499.519531 330.96875 497.0625 329.613281 494.921875 327.835938 L 494.394531 327.40625 L 482.027344 317.171875 C 480.105469 315.582031 477.265625 315.820312 475.640625 317.707031 L 475.300781 318.101562 C 473.691406 319.964844 473.839844 322.773438 475.625 324.457031 L 479.183594 327.8125 C 482.292969 330.738281 484.996094 334.058594 487.230469 337.695312 C 489.203125 340.894531 491.582031 344.667969 492.882812 346.386719 C 498.511719 353.789062 506.257812 351.972656 506.257812 351.972656 C 506.257812 351.972656 532.960938 423.898438 545.316406 437.273438 C 554.152344 446.84375 631.691406 473.003906 631.691406 473.003906 L 648.894531 438.636719 L 567.394531 407.695312 L 527.09375 331.917969 " fill-opacity="1" fill-rule="nonzero"/><path fill="#000000" d="M 502.570312 272.886719 C 502.566406 272.886719 502.566406 272.882812 502.5625 272.882812 C 502.316406 272.863281 502.089844 272.859375 501.867188 272.878906 L 501.726562 271.214844 C 502.046875 271.183594 502.367188 271.1875 502.726562 271.21875 L 502.570312 272.886719 " fill-opacity="1" fill-rule="nonzero"/><path fill="#000000" d="M 556.382812 444.160156 L 630.445312 471.957031 L 646.894531 439.085938 L 566.808594 408.367188 L 566.65625 408.09375 L 525.496094 332.261719 L 525.472656 332.203125 L 505.074219 275.476562 C 504.566406 274.058594 503.261719 273.042969 501.765625 272.890625 C 501.242188 272.839844 500.757812 272.882812 500.292969 273.015625 C 498.257812 273.59375 497.042969 275.664062 497.523438 277.726562 L 499.988281 286.882812 L 498.78125 287.257812 C 496.632812 287.929688 495.292969 290.105469 495.660156 292.335938 L 498.289062 308.273438 C 499.046875 312.34375 498.652344 316.558594 497.152344 320.433594 L 494.378906 328.425781 L 480.671875 317.832031 C 479.070312 316.507812 476.777344 316.699219 475.4375 318.253906 L 475.097656 318.652344 C 473.777344 320.179688 473.890625 322.464844 475.363281 323.847656 L 478.921875 327.207031 C 482.089844 330.1875 484.847656 333.578125 487.113281 337.269531 C 488.941406 340.238281 491.394531 344.140625 492.714844 345.878906 C 497.929688 352.734375 504.933594 351.222656 505.230469 351.160156 L 505.914062 351.007812 L 506.191406 351.648438 L 537.117188 424.398438 C 541.144531 432.90625 547.988281 439.925781 556.382812 444.160156 Z M 631.269531 474.054688 L 555.667969 445.671875 C 546.921875 441.269531 539.792969 433.964844 535.59375 425.097656 L 535.585938 425.066406 L 504.910156 352.910156 C 502.785156 353.183594 496.335938 353.402344 491.378906 346.890625 C 490.023438 345.101562 487.535156 341.148438 485.6875 338.144531 C 483.496094 334.578125 480.832031 331.308594 477.777344 328.425781 L 474.214844 325.066406 C 472.097656 323.0625 471.921875 319.765625 473.828125 317.5625 L 474.171875 317.164062 C 476.078125 314.949219 479.464844 314.660156 481.71875 316.527344 L 493.558594 325.675781 L 495.582031 319.855469 C 496.980469 316.242188 497.34375 312.34375 496.640625 308.5625 L 494.007812 292.605469 C 493.519531 289.679688 495.207031 286.800781 497.953125 285.773438 L 495.90625 278.132812 C 495.207031 275.171875 496.941406 272.230469 499.832031 271.40625 C 500.496094 271.214844 501.183594 271.15625 501.886719 271.21875 L 502.015625 271.238281 C 504.070312 271.445312 505.925781 272.890625 506.648438 274.910156 L 527.023438 331.574219 L 567.984375 407.027344 L 649.214844 438.1875 L 631.269531 474.054688 " fill-opacity="1" fill-rule="nonzero"/><path fill="#000000" d="M 504.996094 333.457031 C 502 333.457031 499.042969 332.414062 496.664062 330.410156 L 493.675781 327.894531 C 493.324219 327.59375 493.277344 327.066406 493.574219 326.714844 C 493.875 326.359375 494.402344 326.316406 494.753906 326.609375 L 497.742188 329.125 C 500.9375 331.816406 505.320312 332.523438 509.199219 330.972656 C 509.621094 330.800781 510.113281 331.003906 510.285156 331.433594 C 510.457031 331.863281 510.25 332.351562 509.820312 332.523438 C 508.257812 333.148438 506.621094 333.457031 504.996094 333.457031 " fill-opacity="1" fill-rule="nonzero"/><path fill="#fda4ff" d="M 503.941406 310.835938 L 502.832031 306.308594 C 502.125 303.425781 500.605469 300.8125 498.449219 298.785156 L 486.636719 287.667969 C 484.9375 286.070312 484.832031 283.398438 486.402344 281.671875 C 487.894531 280.03125 490.398438 279.808594 492.152344 281.167969 L 506.523438 292.273438 C 507.683594 293.171875 508.652344 294.292969 509.371094 295.574219 L 513.253906 302.464844 L 503.941406 310.835938 " fill-opacity="1" fill-rule="nonzero"/><path fill="#000000" d="M 495.742188 297.003906 C 495.535156 297.003906 495.332031 296.929688 495.171875 296.777344 L 486.066406 288.28125 C 484.042969 286.378906 483.917969 283.164062 485.78125 281.113281 C 487.558594 279.160156 490.578125 278.894531 492.667969 280.507812 L 507.035156 291.613281 C 508.289062 292.585938 509.324219 293.777344 510.101562 295.160156 C 510.328125 295.566406 510.183594 296.074219 509.78125 296.300781 C 509.378906 296.53125 508.871094 296.386719 508.644531 295.984375 C 507.976562 294.796875 507.085938 293.773438 506.007812 292.9375 L 491.644531 281.832031 C 490.242188 280.746094 488.210938 280.925781 487.023438 282.238281 C 485.765625 283.621094 485.847656 285.78125 487.210938 287.058594 L 496.316406 295.554688 C 496.652344 295.871094 496.667969 296.402344 496.355469 296.738281 C 496.191406 296.914062 495.964844 297.003906 495.742188 297.003906 " fill-opacity="1" fill-rule="nonzero"/><path fill="#fda4ff" d="M 509.191406 322.019531 L 507.355469 317.734375 C 506.183594 315.007812 504.246094 312.683594 501.789062 311.039062 L 488.304688 302.035156 C 486.367188 300.738281 485.824219 298.125 487.085938 296.164062 C 488.289062 294.292969 490.71875 293.660156 492.679688 294.707031 L 508.675781 303.277344 C 509.96875 303.972656 511.109375 304.917969 512.03125 306.058594 L 516.996094 312.214844 L 509.191406 322.019531 " fill-opacity="1" fill-rule="nonzero"/><path fill="#000000" d="M 509.011719 323.398438 C 508.664062 323.398438 508.339844 323.183594 508.21875 322.839844 L 506.558594 318.003906 C 505.472656 315.480469 503.65625 313.292969 501.320312 311.734375 L 487.84375 302.730469 C 485.539062 301.191406 484.882812 298.042969 486.386719 295.707031 C 487.8125 293.492188 490.75 292.726562 493.074219 293.972656 L 507.199219 301.042969 C 510.386719 302.640625 513.246094 304.957031 515.464844 307.75 C 515.753906 308.109375 515.691406 308.636719 515.332031 308.925781 C 514.96875 309.210938 514.445312 309.148438 514.15625 308.789062 C 512.085938 306.1875 509.421875 304.027344 506.453125 302.542969 L 492.300781 295.457031 C 490.722656 294.609375 488.75 295.121094 487.789062 296.613281 C 486.777344 298.183594 487.21875 300.304688 488.773438 301.339844 L 502.25 310.339844 C 504.855469 312.082031 506.886719 314.523438 508.121094 317.402344 L 509.800781 322.292969 C 509.953125 322.730469 509.71875 323.207031 509.28125 323.355469 C 509.191406 323.386719 509.097656 323.398438 509.011719 323.398438 " fill-opacity="1" fill-rule="nonzero"/><path fill="#8c7bff" d="M 698.5 523.054688 L 732.753906 474.167969 C 744.347656 457.621094 732.542969 434.835938 712.371094 434.835938 L 659.195312 434.835938 C 651.492188 434.835938 644.269531 438.570312 639.8125 444.859375 L 584.316406 523.054688 L 698.5 523.054688 " fill-opacity="1" fill-rule="nonzero"/><path fill="#8c7bff" d="M 672.148438 434.914062 L 639.777344 434.394531 L 596.726562 415.722656 L 597.050781 469.085938 L 616.910156 477.125 L 672.148438 434.914062 " fill-opacity="1" fill-rule="nonzero"/><path fill="#000000" d="M 601.769531 499.300781 C 601.601562 499.300781 601.429688 499.246094 601.28125 499.144531 C 600.902344 498.875 600.820312 498.355469 601.082031 497.976562 L 625.089844 464.152344 C 625.355469 463.777344 625.875 463.691406 626.253906 463.957031 C 626.632812 464.222656 626.71875 464.746094 626.449219 465.121094 L 602.449219 498.945312 C 602.285156 499.175781 602.03125 499.300781 601.769531 499.300781 " fill-opacity="1" fill-rule="nonzero"/><path fill="#fda4ff" d="M 576.335938 499.644531 L 576.335938 499.15625 C 576.335938 495.582031 580.460938 493.589844 583.25 495.8125 L 586.6875 498.554688 L 600.699219 498.554688 C 607.765625 498.554688 614.460938 501.753906 618.914062 507.261719 L 624.683594 514.417969 L 604.039062 508.601562 L 589.878906 508.601562 C 586.851562 508.601562 583.90625 507.597656 581.511719 505.742188 L 577.996094 503.027344 C 576.949219 502.21875 576.335938 500.96875 576.335938 499.644531 " fill-opacity="1" fill-rule="nonzero"/><path fill="#000000" d="M 553.085938 539.003906 L 600.351562 539.003906 L 573.085938 474.394531 L 525.828125 474.394531 Z M 602.871094 540.675781 L 551.976562 540.675781 L 523.304688 472.722656 L 574.195312 472.722656 L 602.871094 540.675781 " fill-opacity="1" fill-rule="nonzero"/><path fill="#000000" d="M 607.144531 540.675781 L 599.609375 540.675781 C 599.148438 540.675781 598.773438 540.300781 598.773438 539.839844 C 598.773438 539.378906 599.148438 539.003906 599.609375 539.003906 L 604.621094 539.003906 L 577.359375 474.398438 L 571.640625 474.398438 C 571.179688 474.398438 570.808594 474.023438 570.808594 473.5625 C 570.808594 473.097656 571.179688 472.722656 571.640625 472.722656 L 578.46875 472.722656 L 607.144531 540.675781 " fill-opacity="1" fill-rule="nonzero"/><path fill="#fda4ff" d="M 733.34375 480.046875 L 691.789062 480.046875 L 668.140625 513.78125 L 608.785156 513.765625 L 608.785156 543.667969 L 675.355469 543.679688 C 683.71875 543.679688 691.558594 539.597656 696.375 532.738281 L 733.34375 480.046875 " fill-opacity="1" fill-rule="nonzero"/><path fill="#fda4ff" d="M 568.371094 532.777344 L 564.554688 528.636719 C 562.628906 526.546875 562.433594 523.382812 564.089844 521.070312 L 567.84375 515.847656 L 576.933594 526.019531 L 634.058594 526.019531 L 634.058594 538.003906 L 580.316406 538.003906 C 575.78125 538.003906 571.457031 536.113281 568.371094 532.777344 " fill-opacity="1" fill-rule="nonzero"/><path fill="#fda4ff" d="M 570.132812 540.25 L 567.972656 537.910156 C 566.042969 535.820312 565.847656 532.65625 567.507812 530.34375 L 571.261719 525.121094 L 580.355469 535.292969 L 634.058594 535.292969 L 634.058594 543.632812 L 624.945312 543.632812 C 621.171875 543.632812 614.445312 547.28125 605.941406 547.28125 L 586.175781 547.28125 C 580.085938 547.28125 574.269531 544.734375 570.132812 540.25 " fill-opacity="1" fill-rule="nonzero"/><path fill="#fda4ff" d="M 567.042969 524.71875 L 562.457031 519.753906 C 560.527344 517.660156 560.335938 514.496094 561.996094 512.183594 L 565.746094 506.964844 L 574.839844 517.136719 L 610.230469 517.136719 L 610.230469 529.125 L 577.097656 529.125 C 573.277344 529.125 569.636719 527.523438 567.042969 524.71875 " fill-opacity="1" fill-rule="nonzero"/><path fill="#fda4ff" d="M 568.714844 515.988281 L 563.933594 510.8125 C 562.164062 508.894531 561.984375 505.988281 563.507812 503.859375 C 565.554688 501.015625 569.703125 500.789062 572.039062 503.40625 L 574.632812 506.308594 C 575.878906 507.695312 577.644531 508.488281 579.503906 508.488281 L 606.683594 508.488281 C 614.453125 508.488281 619.921875 508.933594 627.40625 520.484375 L 578.953125 520.476562 C 575.0625 520.476562 571.355469 518.851562 568.714844 515.988281 " fill-opacity="1" fill-rule="nonzero"/><path fill="#000000" d="M 691.789062 480.046875 L 683.214844 492.28125 C 685.515625 492.15625 688.378906 491.855469 690.664062 491.171875 C 694.484375 490.015625 698.242188 489.480469 701.917969 494.40625 C 705.785156 499.578125 713.664062 500.464844 719.429688 499.871094 L 733.34375 480.046875 L 691.789062 480.046875 " fill-opacity="1" fill-rule="nonzero"/><path fill="#000000" d="M 590.832031 538.84375 L 580.316406 538.84375 C 575.566406 538.84375 570.988281 536.839844 567.761719 533.34375 L 563.9375 529.203125 C 561.75 526.832031 561.527344 523.203125 563.414062 520.582031 C 563.683594 520.210938 564.207031 520.121094 564.582031 520.390625 C 564.957031 520.660156 565.039062 521.183594 564.773438 521.558594 C 563.347656 523.542969 563.515625 526.277344 565.171875 528.070312 L 568.988281 532.210938 C 571.898438 535.363281 576.027344 537.167969 580.316406 537.167969 L 590.832031 537.167969 C 591.292969 537.167969 591.664062 537.546875 591.664062 538.007812 C 591.664062 538.46875 591.292969 538.84375 590.832031 538.84375 " fill-opacity="1" fill-rule="nonzero"/><path fill="#000000" d="M 590.925781 529.960938 L 577.097656 529.960938 C 573.058594 529.960938 569.167969 528.257812 566.425781 525.285156 L 561.839844 520.320312 C 559.652344 517.945312 559.433594 514.324219 561.3125 511.699219 L 562.777344 509.664062 C 563.042969 509.289062 563.570312 509.203125 563.945312 509.472656 C 564.316406 509.742188 564.40625 510.265625 564.136719 510.640625 L 562.671875 512.675781 C 561.25 514.65625 561.417969 517.390625 563.070312 519.183594 L 567.65625 524.148438 C 570.082031 526.777344 573.523438 528.289062 577.097656 528.289062 L 590.925781 528.289062 C 591.386719 528.289062 591.761719 528.660156 591.761719 529.125 C 591.761719 529.585938 591.386719 529.960938 590.925781 529.960938 " fill-opacity="1" fill-rule="nonzero"/><path fill="#000000" d="M 590.457031 521.308594 L 578.953125 521.308594 C 574.84375 521.308594 570.890625 519.578125 568.101562 516.558594 L 563.320312 511.378906 C 561.289062 509.175781 561.078125 505.808594 562.828125 503.375 C 563.957031 501.808594 565.699219 500.851562 567.625 500.746094 C 569.554688 500.644531 571.382812 501.410156 572.667969 502.847656 L 575.265625 505.75 C 576.339844 506.957031 577.886719 507.652344 579.503906 507.652344 L 596.847656 507.652344 C 597.308594 507.652344 597.683594 508.027344 597.683594 508.484375 C 597.683594 508.949219 597.308594 509.324219 596.847656 509.324219 L 579.503906 509.324219 C 577.410156 509.324219 575.410156 508.429688 574.011719 506.867188 L 571.421875 503.964844 C 570.472656 502.90625 569.113281 502.339844 567.710938 502.417969 C 566.300781 502.492188 565.015625 503.199219 564.191406 504.351562 C 562.902344 506.144531 563.054688 508.621094 564.550781 510.242188 L 569.328125 515.421875 C 571.804688 518.101562 575.3125 519.640625 578.953125 519.640625 L 590.457031 519.640625 C 590.917969 519.640625 591.296875 520.011719 591.296875 520.472656 C 591.296875 520.9375 590.917969 521.308594 590.457031 521.308594 " fill-opacity="1" fill-rule="nonzero"/><path fill="#000000" d="M 603.347656 547.90625 L 585.734375 547.90625 C 579.707031 547.90625 573.898438 545.363281 569.804688 540.925781 L 567.734375 538.6875 C 565.925781 536.71875 565.480469 533.882812 566.617188 531.453125 C 566.816406 531.035156 567.316406 530.855469 567.730469 531.050781 C 568.148438 531.246094 568.332031 531.742188 568.136719 532.164062 C 567.285156 533.972656 567.617188 536.085938 568.96875 537.554688 L 571.03125 539.789062 C 574.816406 543.886719 580.171875 546.230469 585.734375 546.230469 L 603.347656 546.230469 C 608.75 546.230469 612.207031 545.277344 615.550781 544.351562 C 618.347656 543.578125 620.992188 542.847656 624.390625 542.847656 L 675.359375 542.839844 C 683.441406 542.839844 691.042969 538.882812 695.695312 532.257812 L 727.523438 486.894531 C 727.785156 486.519531 728.308594 486.425781 728.6875 486.6875 C 729.0625 486.953125 729.15625 487.480469 728.890625 487.855469 L 697.058594 533.21875 C 692.097656 540.289062 683.992188 544.515625 675.359375 544.515625 L 624.390625 544.519531 C 621.21875 544.519531 618.800781 545.191406 615.996094 545.964844 C 612.707031 546.875 608.976562 547.90625 603.347656 547.90625 " fill-opacity="1" fill-rule="nonzero"/><path fill="#000000" d="M 668.574219 514.621094 L 623.757812 514.605469 L 618.253906 507.792969 C 613.945312 502.453125 607.542969 499.390625 600.695312 499.390625 L 586.390625 499.390625 L 582.726562 496.46875 C 581.675781 495.632812 580.324219 495.476562 579.113281 496.0625 C 577.898438 496.648438 577.171875 497.804688 577.171875 499.160156 L 577.171875 499.644531 C 577.171875 500.703125 577.671875 501.722656 578.503906 502.367188 L 582.015625 505.082031 C 583.816406 506.476562 585.957031 507.363281 588.207031 507.660156 C 588.667969 507.722656 588.988281 508.136719 588.929688 508.597656 C 588.875 509.054688 588.445312 509.378906 587.992188 509.320312 C 585.445312 508.984375 583.027344 507.980469 580.996094 506.40625 L 577.480469 503.691406 C 576.242188 502.730469 575.5 501.214844 575.5 499.644531 L 575.5 499.160156 C 575.5 497.175781 576.609375 495.414062 578.386719 494.554688 C 580.167969 493.699219 582.226562 493.933594 583.765625 495.164062 L 586.980469 497.71875 L 600.695312 497.71875 C 608.050781 497.71875 614.929688 501.007812 619.558594 506.742188 L 624.558594 512.933594 L 667.707031 512.945312 L 685.925781 486.957031 C 686.195312 486.578125 686.710938 486.488281 687.09375 486.753906 C 687.464844 487.019531 687.558594 487.539062 687.296875 487.917969 L 668.574219 514.621094 " fill-opacity="1" fill-rule="nonzero"/><path fill="#8c7bff" d="M 734.703125 487.378906 L 742.304688 476.527344 C 754.582031 459 742.058594 434.875 720.699219 434.914062 L 716.46875 434.917969 L 679.710938 487.378906 L 734.703125 487.378906 " fill-opacity="1" fill-rule="nonzero"/><path fill="#000000" d="M 735.136719 488.214844 L 678.09375 488.214844 L 694.746094 464.449219 C 695.015625 464.074219 695.539062 463.976562 695.917969 464.242188 C 696.292969 464.507812 696.382812 465.03125 696.117188 465.410156 L 681.3125 486.539062 L 734.265625 486.539062 L 741.621094 476.046875 C 747.210938 468.0625 747.863281 458.128906 743.347656 449.476562 C 738.859375 440.863281 730.414062 435.75 720.699219 435.75 L 686.476562 435.757812 C 686.011719 435.757812 685.640625 435.382812 685.640625 434.917969 C 685.640625 434.460938 686.011719 434.085938 686.476562 434.085938 L 720.699219 434.078125 C 720.714844 434.078125 720.726562 434.078125 720.742188 434.078125 C 731.054688 434.078125 740.054688 439.542969 744.835938 448.707031 C 749.640625 457.921875 748.949219 468.5 742.992188 477.007812 L 735.136719 488.214844 " fill-opacity="1" fill-rule="nonzero"/><path fill="#4ada85" d="M 136.238281 311.671875 L 175.027344 311.671875 L 175.027344 342.53125 L 201.273438 311.671875 L 252.980469 311.671875 L 252.980469 248.59375 L 136.238281 248.59375 L 136.238281 311.671875 " fill-opacity="1" fill-rule="nonzero"/><path fill="#ffffff" d="M 212.007812 280.238281 C 212.007812 283.660156 214.773438 286.433594 218.1875 286.433594 C 221.601562 286.433594 224.367188 283.660156 224.367188 280.238281 C 224.367188 276.816406 221.601562 274.042969 218.1875 274.042969 C 214.773438 274.042969 212.007812 276.816406 212.007812 280.238281 " fill-opacity="1" fill-rule="nonzero"/><path fill="#ffffff" d="M 188.660156 280.238281 C 188.660156 283.660156 191.429688 286.433594 194.839844 286.433594 C 198.253906 286.433594 201.019531 283.660156 201.019531 280.238281 C 201.019531 276.816406 198.253906 274.042969 194.839844 274.042969 C 191.429688 274.042969 188.660156 276.816406 188.660156 280.238281 " fill-opacity="1" fill-rule="nonzero"/><path fill="#ffffff" d="M 165.3125 280.238281 C 165.3125 283.660156 168.082031 286.433594 171.496094 286.433594 C 174.90625 286.433594 177.675781 283.660156 177.675781 280.238281 C 177.675781 276.816406 174.90625 274.042969 171.496094 274.042969 C 168.082031 274.042969 165.3125 276.816406 165.3125 280.238281 " fill-opacity="1" fill-rule="nonzero"/><path fill="#000000" d="M 100.140625 117.144531 L 263.15625 117.144531 L 263.15625 213.75 L 99.804688 213.75 L 100.140625 117.144531 " fill-opacity="1" fill-rule="nonzero"/><path fill="#ffffff" d="M 94.1875 112.785156 L 257.199219 112.785156 L 257.199219 209.390625 L 93.851562 209.390625 L 94.1875 112.785156 " fill-opacity="1" fill-rule="nonzero"/><path fill="#000000" d="M 94.691406 208.554688 L 256.363281 208.554688 L 256.363281 113.621094 L 95.019531 113.621094 Z M 257.199219 210.226562 L 93.851562 210.226562 C 93.628906 210.226562 93.414062 210.140625 93.257812 209.980469 C 93.101562 209.828125 93.011719 209.609375 93.011719 209.390625 L 93.351562 112.785156 C 93.351562 112.324219 93.726562 111.949219 94.1875 111.949219 L 257.199219 111.949219 C 257.660156 111.949219 258.035156 112.328125 258.035156 112.789062 L 258.035156 209.394531 C 258.035156 209.855469 257.660156 210.226562 257.199219 210.226562 " fill-opacity="1" fill-rule="nonzero"/><path fill="#fed101" d="M 119.449219 199.484375 L 106.160156 199.484375 L 106.160156 171.75 L 119.449219 171.75 L 119.449219 199.484375 " fill-opacity="1" fill-rule="nonzero"/><path fill="#fed101" d="M 144.558594 199.484375 L 131.265625 199.484375 L 131.265625 150.0625 L 144.558594 150.0625 L 144.558594 199.484375 " fill-opacity="1" fill-rule="nonzero"/><path fill="#fed101" d="M 169.660156 199.484375 L 156.371094 199.484375 L 156.371094 158.921875 L 169.660156 158.921875 L 169.660156 199.484375 " fill-opacity="1" fill-rule="nonzero"/><path fill="#fed101" d="M 194.769531 199.484375 L 181.476562 199.484375 L 181.476562 149.054688 L 194.769531 149.054688 L 194.769531 199.484375 " fill-opacity="1" fill-rule="nonzero"/><path fill="#fed101" d="M 219.875 199.484375 L 206.585938 199.484375 L 206.585938 137.628906 L 219.875 137.628906 L 219.875 199.484375 " fill-opacity="1" fill-rule="nonzero"/><path fill="#fed101" d="M 244.980469 199.484375 L 231.691406 199.484375 L 231.691406 123.015625 L 244.980469 123.015625 L 244.980469 199.484375 " fill-opacity="1" fill-rule="nonzero"/><path fill="#1ec15f" d="M 127.007812 191.335938 C 126.816406 191.335938 126.628906 191.277344 126.472656 191.148438 L 105.628906 173.984375 C 105.269531 173.691406 105.222656 173.164062 105.515625 172.804688 C 105.808594 172.449219 106.335938 172.398438 106.691406 172.691406 L 127.039062 189.445312 L 154.28125 169.792969 C 154.617188 169.550781 155.078125 169.589844 155.371094 169.882812 L 165.714844 180.480469 L 200.988281 152.554688 C 201.335938 152.277344 201.835938 152.324219 202.132812 152.652344 L 211.765625 163.484375 L 244.4375 135.679688 C 244.792969 135.382812 245.320312 135.421875 245.617188 135.773438 C 245.917969 136.125 245.875 136.65625 245.523438 136.957031 L 212.230469 165.289062 C 211.882812 165.582031 211.363281 165.546875 211.0625 165.207031 L 201.40625 154.355469 L 166.164062 182.261719 C 165.828125 182.527344 165.34375 182.492188 165.046875 182.1875 L 154.675781 171.570312 L 127.496094 191.179688 C 127.347656 191.285156 127.175781 191.335938 127.007812 191.335938 " fill-opacity="1" fill-rule="nonzero"/></svg>