<svg xmlns="http://www.w3.org/2000/svg" xmlns:xlink="http://www.w3.org/1999/xlink" width="1080" zoomAndPan="magnify" viewBox="0 0 810 809.999993" height="1080" preserveAspectRatio="xMidYMid meet" version="1.0"><defs><g/><clipPath id="c621bb2a65"><path d="M 290 38.628906 L 699 38.628906 L 699 303 L 290 303 Z M 290 38.628906 " clip-rule="nonzero"/></clipPath><clipPath id="b6cc2162c4"><path d="M 99 695 L 221 695 L 221 707.628906 L 99 707.628906 Z M 99 695 " clip-rule="nonzero"/></clipPath><clipPath id="aed79d1c8b"><path d="M 68.332031 387 L 275 387 L 275 516 L 68.332031 516 Z M 68.332031 387 " clip-rule="nonzero"/></clipPath><clipPath id="b655a1624e"><path d="M 145 459 L 265 459 L 265 707.628906 L 145 707.628906 Z M 145 459 " clip-rule="nonzero"/></clipPath><clipPath id="a323809ce5"><path d="M 392 459 L 512 459 L 512 707.628906 L 392 707.628906 Z M 392 459 " clip-rule="nonzero"/></clipPath></defs><path fill="#8c7bff" d="M 697.492188 77.722656 L 291.140625 77.722656 L 291.140625 39.433594 L 697.492188 39.433594 L 697.492188 77.722656 " fill-opacity="1" fill-rule="nonzero"/><path fill="#ffffff" d="M 685.167969 58.449219 C 685.167969 63.121094 681.222656 66.902344 676.359375 66.902344 C 671.496094 66.902344 667.546875 63.121094 667.546875 58.449219 C 667.546875 53.78125 671.496094 49.996094 676.359375 49.996094 C 681.222656 49.996094 685.167969 53.78125 685.167969 58.449219 " fill-opacity="1" fill-rule="nonzero"/><path fill="#ffffff" d="M 656.191406 58.449219 C 656.191406 63.121094 652.246094 66.902344 647.382812 66.902344 C 642.519531 66.902344 638.570312 63.121094 638.570312 58.449219 C 638.570312 53.78125 642.519531 49.996094 647.382812 49.996094 C 652.246094 49.996094 656.191406 53.78125 656.191406 58.449219 " fill-opacity="1" fill-rule="nonzero"/><path fill="#ffffff" d="M 627.214844 58.449219 C 627.214844 63.121094 623.269531 66.902344 618.40625 66.902344 C 613.542969 66.902344 609.597656 63.121094 609.597656 58.449219 C 609.597656 53.78125 613.542969 49.996094 618.40625 49.996094 C 623.269531 49.996094 627.214844 53.78125 627.214844 58.449219 " fill-opacity="1" fill-rule="nonzero"/><g clip-path="url(#c621bb2a65)"><path fill="#000000" d="M 291.945312 301.148438 L 696.683594 301.148438 L 696.683594 40.238281 L 291.945312 40.238281 Z M 697.496094 302.757812 L 291.140625 302.757812 C 290.695312 302.757812 290.332031 302.394531 290.332031 301.949219 L 290.332031 39.433594 C 290.332031 38.988281 290.695312 38.628906 291.140625 38.628906 L 697.496094 38.628906 C 697.9375 38.628906 698.296875 38.988281 698.296875 39.433594 L 698.296875 301.949219 C 698.296875 302.394531 697.9375 302.757812 697.496094 302.757812 " fill-opacity="1" fill-rule="nonzero"/></g><path fill="#fda4ff" d="M 572.609375 166.675781 C 585.617188 168.300781 595.929688 178.632812 597.542969 191.671875 L 670.675781 191.671875 C 668.832031 138.214844 625.9375 95.21875 572.609375 93.367188 L 572.609375 166.675781 " fill-opacity="1" fill-rule="nonzero"/><path fill="#8c7bff" d="M 630.125 245.453125 C 641.011719 232.375 647.78125 215.726562 648.410156 197.511719 L 591.585938 197.511719 C 591.128906 201.1875 589.785156 204.578125 587.777344 207.476562 L 630.125 245.453125 " fill-opacity="1" fill-rule="nonzero"/><path fill="#fcb503" d="M 554.746094 177.855469 C 558.015625 174.996094 562.121094 173.078125 566.644531 172.511719 L 566.644531 115.550781 C 545.347656 116.292969 526.183594 125.480469 512.394531 139.878906 L 554.746094 177.855469 " fill-opacity="1" fill-rule="nonzero"/><path fill="#000000" d="M 519.964844 255.480469 C 533.886719 266.875 551.421875 273.144531 569.425781 273.144531 C 590.625 273.144531 610.414062 264.808594 625.246094 249.652344 L 584.039062 212.703125 C 579.917969 216.070312 574.757812 217.917969 569.425781 217.917969 C 564.917969 217.917969 560.582031 216.628906 556.828125 214.175781 Z M 569.425781 274.753906 C 550.757812 274.753906 532.601562 268.160156 518.292969 256.183594 L 517.652344 255.652344 L 556.566406 212.046875 L 557.15625 212.453125 C 560.773438 214.976562 565.015625 216.308594 569.425781 216.308594 C 574.605469 216.308594 579.613281 214.433594 583.523438 211.023438 L 584.0625 210.558594 L 627.5625 249.570312 L 626.988281 250.171875 C 611.789062 266.027344 591.34375 274.753906 569.425781 274.753906 " fill-opacity="1" fill-rule="nonzero"/><path fill="#fed101" d="M 514.664062 251.84375 L 552.558594 209.382812 C 549.15625 205.457031 547.09375 200.332031 547.09375 194.722656 C 547.09375 190.007812 548.554688 185.628906 551.039062 182.019531 L 508.6875 144.039062 C 497.269531 157.773438 490.398438 175.441406 490.398438 194.722656 C 490.398438 217.164062 499.707031 237.429688 514.664062 251.84375 " fill-opacity="1" fill-rule="nonzero"/><path fill="#fed101" d="M 328.566406 156 C 331.355469 145.84375 344.988281 136.492188 354.148438 137.996094 C 361.582031 139.222656 361.484375 146.847656 367.8125 147.246094 C 376.308594 147.785156 381 134.320312 389.535156 134.746094 C 396.949219 135.117188 398.316406 145.515625 404.953125 145.746094 C 414.171875 146.074219 418.539062 126.285156 429.484375 125.996094 C 437.667969 125.78125 440.757812 136.722656 449.105469 136.996094 C 454.746094 137.1875 462.390625 132.484375 472.230469 113.746094 C 472.230469 130 472.230469 146.257812 472.230469 162.519531 C 424.226562 162.519531 376.21875 162.519531 328.210938 162.519531 C 327.964844 160.9375 327.839844 158.648438 328.566406 156 " fill-opacity="1" fill-rule="nonzero"/><path fill="#000000" d="M 328.019531 140.984375 C 327.570312 140.984375 327.210938 140.625 327.210938 140.179688 L 327.210938 102.066406 C 327.210938 101.621094 327.570312 101.261719 328.019531 101.261719 L 394.375 101.261719 C 394.824219 101.261719 395.183594 101.621094 395.183594 102.066406 C 395.183594 102.511719 394.824219 102.871094 394.375 102.871094 L 328.824219 102.871094 L 328.824219 140.179688 C 328.824219 140.625 328.464844 140.984375 328.019531 140.984375 " fill-opacity="1" fill-rule="nonzero"/><path fill="#000000" d="M 472.234375 163.320312 L 404.957031 163.320312 C 404.511719 163.320312 404.148438 162.960938 404.148438 162.515625 C 404.148438 162.074219 404.511719 161.710938 404.957031 161.710938 L 471.421875 161.710938 L 471.421875 113.746094 C 471.421875 113.300781 471.785156 112.941406 472.234375 112.941406 C 472.671875 112.941406 473.035156 113.300781 473.035156 113.746094 L 473.035156 162.515625 C 473.035156 162.960938 472.671875 163.320312 472.234375 163.320312 " fill-opacity="1" fill-rule="nonzero"/><path fill="#000000" d="M 270.632812 443.78125 L 345.714844 443.78125 L 379.210938 393.964844 L 304.132812 393.964844 Z M 346.570312 445.394531 L 267.605469 445.394531 L 303.273438 392.351562 L 382.238281 392.351562 L 346.570312 445.394531 " fill-opacity="1" fill-rule="nonzero"/><path fill="#000000" d="M 226.066406 450.65625 L 345.214844 450.65625 L 345.214844 445.394531 L 226.066406 445.394531 Z M 346.828125 452.261719 L 224.453125 452.261719 L 224.453125 443.78125 L 346.828125 443.78125 L 346.828125 452.261719 " fill-opacity="1" fill-rule="nonzero"/><path fill="#000000" d="M 323.699219 417.355469 C 321.765625 417.355469 320.1875 418.9375 320.1875 420.882812 C 320.1875 422.824219 321.765625 424.402344 323.699219 424.402344 C 325.636719 424.402344 327.214844 422.824219 327.214844 420.882812 C 327.214844 418.9375 325.636719 417.355469 323.699219 417.355469 Z M 323.699219 426.015625 C 320.875 426.015625 318.578125 423.710938 318.578125 420.882812 C 318.578125 418.046875 320.875 415.746094 323.699219 415.746094 C 326.527344 415.746094 328.828125 418.046875 328.828125 420.882812 C 328.828125 423.710938 326.527344 426.015625 323.699219 426.015625 " fill-opacity="1" fill-rule="nonzero"/><path fill="#8c7bff" d="M 164.972656 696.933594 L 155.816406 696.933594 C 155.371094 696.933594 155.011719 696.574219 155.011719 696.128906 L 155.011719 514.246094 C 155.011719 513.804688 155.371094 513.441406 155.816406 513.441406 C 156.261719 513.441406 156.621094 513.804688 156.621094 514.246094 L 156.621094 695.324219 L 164.164062 695.324219 L 164.164062 514.683594 C 164.164062 514.238281 164.527344 513.878906 164.972656 513.878906 C 165.417969 513.878906 165.777344 514.238281 165.777344 514.683594 L 165.777344 696.128906 C 165.777344 696.574219 165.417969 696.933594 164.972656 696.933594 " fill-opacity="1" fill-rule="nonzero"/><g clip-path="url(#b6cc2162c4)"><path fill="#8c7bff" d="M 101.597656 705.988281 L 218.894531 705.988281 L 218.894531 701.613281 L 164.902344 696.933594 L 155.816406 696.933594 L 101.597656 701.613281 Z M 219.703125 707.601562 L 100.792969 707.601562 C 100.347656 707.601562 99.984375 707.238281 99.984375 706.796875 L 99.984375 700.871094 C 99.984375 700.453125 100.304688 700.105469 100.722656 700.070312 L 155.746094 695.324219 L 164.972656 695.324219 L 219.769531 700.070312 C 220.1875 700.105469 220.507812 700.453125 220.507812 700.871094 L 220.507812 706.796875 C 220.507812 707.238281 220.148438 707.601562 219.703125 707.601562 " fill-opacity="1" fill-rule="nonzero"/></g><g clip-path="url(#aed79d1c8b)"><path fill="#8c7bff" d="M 70.035156 388.859375 L 70.035156 429.773438 C 70.035156 476.039062 106.597656 513.679688 151.539062 513.679688 L 273.195312 513.679688 L 273.195312 509.449219 C 273.195312 479.777344 245.882812 453.746094 214.75 453.746094 C 214.535156 453.746094 214.339844 453.664062 214.195312 453.527344 C 185.761719 450.96875 163.382812 426.339844 163.382812 396.4375 L 163.382812 388.859375 Z M 274 515.292969 L 151.539062 515.292969 C 105.710938 515.292969 68.425781 476.929688 68.425781 429.773438 L 68.425781 388.058594 C 68.425781 387.613281 68.785156 387.25 69.230469 387.25 L 164.191406 387.25 C 164.636719 387.25 164.996094 387.613281 164.996094 388.058594 L 164.996094 396.4375 C 164.996094 427.148438 189.265625 452.136719 219.097656 452.136719 C 219.304688 452.136719 219.492188 452.214844 219.636719 452.34375 C 249.546875 454.890625 274.808594 480.480469 274.808594 509.449219 L 274.808594 514.484375 C 274.808594 514.929688 274.445312 515.292969 274 515.292969 " fill-opacity="1" fill-rule="nonzero"/></g><path fill="#8c7bff" d="M 164.398438 398.984375 L 159.898438 465.867188 L 115.191406 465.867188 L 119.691406 398.984375 L 164.398438 398.984375 " fill-opacity="1" fill-rule="nonzero"/><path fill="#955b50" d="M 285.25 606.492188 L 319.023438 595.511719 L 341.25 664.242188 L 307.476562 675.21875 L 285.25 606.492188 " fill-opacity="1" fill-rule="nonzero"/><path fill="#020202" d="M 325.261719 614.796875 L 294.171875 634.082031 L 285.25 606.492188 L 319.023438 595.511719 L 325.261719 614.796875 " fill-opacity="1" fill-rule="nonzero"/><path fill="#020202" d="M 296.527344 641.359375 L 330.300781 630.386719 L 341.25 664.242188 L 307.476562 675.21875 L 296.527344 641.359375 " fill-opacity="1" fill-rule="nonzero"/><path fill="#8c7bff" d="M 299.714844 652.667969 L 299.171875 653.359375 C 292.929688 661.25 293.164062 668.066406 289.890625 679.324219 L 331.59375 694.511719 L 393.964844 695.296875 L 404.625 689.019531 L 401.023438 680.15625 L 366.527344 668.726562 L 342.804688 653.683594 L 337.910156 646.351562 L 331.335938 646.351562 L 325.8125 651.519531 L 325.8125 657.96875 C 319.570312 661.714844 318.441406 663.5 315.339844 663.5 C 315.273438 663.480469 310.082031 664 308.429688 659.023438 L 306.726562 653.90625 C 305.710938 650.851562 301.714844 650.144531 299.714844 652.667969 " fill-opacity="1" fill-rule="nonzero"/><path fill="#020202" d="M 404.625 689.019531 L 385.164062 692.753906 L 333.597656 691.714844 L 289.890625 679.324219 L 283.605469 685.039062 L 280.972656 699.398438 L 297.785156 706.792969 C 297.785156 706.792969 309.878906 706.738281 325.226562 706.792969 L 328.9375 703.117188 L 334.691406 703.117188 L 338.445312 706.792969 C 362.433594 706.859375 388.414062 706.792969 388.414062 706.792969 L 402.375 699.617188 L 404.625 695.261719 L 404.625 689.019531 " fill-opacity="1" fill-rule="nonzero"/><path fill="#000000" d="M 341.640625 662.703125 C 341.386719 662.703125 341.132812 662.582031 340.976562 662.359375 C 340.726562 661.992188 340.816406 661.488281 341.183594 661.238281 L 348.058594 656.46875 C 348.421875 656.21875 348.929688 656.308594 349.179688 656.675781 C 349.433594 657.039062 349.339844 657.539062 348.976562 657.792969 L 342.097656 662.558594 C 341.960938 662.65625 341.800781 662.703125 341.640625 662.703125 " fill-opacity="1" fill-rule="nonzero"/><path fill="#000000" d="M 347.585938 666.703125 C 347.328125 666.703125 347.078125 666.585938 346.921875 666.355469 C 346.667969 665.992188 346.757812 665.488281 347.125 665.234375 L 354.003906 660.46875 C 354.367188 660.214844 354.871094 660.308594 355.125 660.671875 C 355.378906 661.039062 355.289062 661.539062 354.917969 661.792969 L 348.042969 666.558594 C 347.902344 666.65625 347.742188 666.703125 347.585938 666.703125 " fill-opacity="1" fill-rule="nonzero"/><path fill="#000000" d="M 353.527344 670.703125 C 353.273438 670.703125 353.019531 670.585938 352.863281 670.355469 C 352.609375 669.992188 352.703125 669.492188 353.066406 669.234375 L 359.945312 664.46875 C 360.308594 664.214844 360.8125 664.304688 361.066406 664.671875 C 361.324219 665.039062 361.230469 665.539062 360.867188 665.792969 L 353.984375 670.558594 C 353.847656 670.65625 353.6875 670.703125 353.527344 670.703125 " fill-opacity="1" fill-rule="nonzero"/><path fill="#fed101" d="M 288.183594 625.730469 L 229.640625 464.433594 L 242.984375 459.566406 C 261.160156 452.933594 281.261719 462.335938 287.871094 480.554688 L 334.4375 608.859375 L 288.183594 625.730469 " fill-opacity="1" fill-rule="nonzero"/><path fill="#955b50" d="M 192.089844 577.15625 L 221.621094 592.367188 L 189.601562 654.847656 L 160.070312 639.640625 L 192.089844 577.15625 " fill-opacity="1" fill-rule="nonzero"/><path fill="#020202" d="M 214.617188 606.035156 L 177.292969 606.035156 L 192.09375 577.15625 L 221.621094 592.367188 L 214.617188 606.035156 " fill-opacity="1" fill-rule="nonzero"/><path fill="#020202" d="M 175.359375 609.816406 L 204.886719 625.019531 L 189.601562 654.847656 L 160.070312 639.640625 L 175.359375 609.816406 " fill-opacity="1" fill-rule="nonzero"/><path fill="#8c7bff" d="M 141.3125 645.058594 C 149.351562 636.546875 152.25 630.375 161.402344 626.214844 L 162.199219 625.851562 C 165.128906 624.519531 168.359375 626.976562 167.871094 630.164062 L 167.054688 635.496094 C 166.257812 640.675781 171.109375 642.59375 171.160156 642.640625 C 173.917969 644.0625 175.738281 642.992188 182.996094 642.519531 L 185.9375 636.78125 L 193.203125 634.714844 L 199.054688 637.730469 L 200.066406 646.488281 L 215.558594 670.035156 L 239.511719 680.6875 L 243.808594 689.234375 L 233.691406 696.085938 L 194.03125 696.085938 L 171.476562 677.671875 L 141.3125 645.058594 " fill-opacity="1" fill-rule="nonzero"/><path fill="#000000" d="M 194.316406 695.277344 L 233.445312 695.277344 L 242.769531 688.964844 L 238.917969 681.308594 L 215.015625 670.675781 L 199.289062 646.769531 L 198.300781 638.25 L 193.117188 635.582031 L 186.492188 637.460938 L 183.507812 643.292969 L 183.050781 643.324219 C 180.707031 643.472656 178.933594 643.6875 177.507812 643.863281 C 174.519531 644.226562 172.871094 644.425781 170.789062 643.355469 L 170.765625 643.34375 C 169.464844 642.726562 165.484375 640.40625 166.253906 635.371094 L 167.074219 630.042969 C 167.261719 628.839844 166.792969 627.683594 165.824219 626.949219 C 164.863281 626.222656 163.632812 626.085938 162.535156 626.582031 L 161.734375 626.945312 C 155.371094 629.839844 152.046875 633.808594 147.839844 638.832031 C 146.269531 640.707031 144.503906 642.816406 142.410156 645.0625 L 172.03125 677.082031 Z M 233.9375 696.890625 L 193.742188 696.890625 L 170.886719 678.21875 L 140.207031 645.054688 L 140.722656 644.507812 C 143.011719 642.085938 144.917969 639.808594 146.605469 637.796875 C 150.945312 632.613281 154.371094 628.523438 161.066406 625.480469 L 161.867188 625.117188 C 163.511719 624.367188 165.355469 624.570312 166.796875 625.664062 C 168.246094 626.757812 168.945312 628.488281 168.667969 630.285156 L 167.847656 635.617188 C 167.257812 639.460938 170.164062 641.28125 171.4375 641.878906 L 171.574219 641.949219 C 173.191406 642.761719 174.40625 642.617188 177.3125 642.261719 C 178.664062 642.097656 180.324219 641.898438 182.488281 641.742188 L 185.378906 636.101562 L 193.289062 633.855469 L 199.804688 637.210938 L 200.84375 646.207031 L 216.105469 669.394531 L 240.101562 680.070312 L 244.847656 689.503906 L 233.9375 696.890625 " fill-opacity="1" fill-rule="nonzero"/><path fill="#020202" d="M 133.113281 647.261719 L 141.3125 645.058594 L 174.539062 676.101562 L 201.898438 692.191406 L 224.355469 692.804688 L 243.84375 689.21875 L 243.792969 695.453125 L 241.511719 699.796875 L 227.496094 706.765625 C 227.496094 706.765625 219.320312 706.890625 203.207031 706.765625 C 203.207031 706.765625 178.203125 694.960938 171.980469 691.730469 L 170.316406 686.746094 L 165.195312 684.109375 L 160.21875 685.679688 C 146.59375 678.601562 135.808594 673.109375 135.808594 673.109375 L 124.226562 658.835938 L 133.113281 647.261719 " fill-opacity="1" fill-rule="nonzero"/><path fill="#000000" d="M 195.285156 654.066406 C 194.886719 654.066406 194.539062 653.773438 194.484375 653.367188 C 194.429688 652.925781 194.738281 652.519531 195.179688 652.460938 L 203.46875 651.371094 C 203.914062 651.316406 204.3125 651.628906 204.371094 652.066406 C 204.429688 652.507812 204.121094 652.914062 203.679688 652.96875 L 195.390625 654.058594 C 195.355469 654.066406 195.316406 654.066406 195.285156 654.066406 " fill-opacity="1" fill-rule="nonzero"/><path fill="#000000" d="M 198.746094 660.347656 C 198.351562 660.347656 198.003906 660.054688 197.949219 659.648438 C 197.890625 659.207031 198.203125 658.800781 198.644531 658.742188 L 206.929688 657.652344 C 207.378906 657.59375 207.777344 657.910156 207.835938 658.347656 C 207.894531 658.789062 207.585938 659.195312 207.144531 659.25 L 198.855469 660.339844 C 198.816406 660.347656 198.78125 660.347656 198.746094 660.347656 " fill-opacity="1" fill-rule="nonzero"/><path fill="#000000" d="M 202.210938 666.628906 C 201.8125 666.628906 201.464844 666.335938 201.410156 665.929688 C 201.351562 665.488281 201.664062 665.082031 202.105469 665.023438 L 210.394531 663.933594 C 210.835938 663.875 211.242188 664.191406 211.300781 664.628906 C 211.359375 665.070312 211.046875 665.476562 210.605469 665.53125 L 202.316406 666.621094 C 202.28125 666.628906 202.246094 666.628906 202.210938 666.628906 " fill-opacity="1" fill-rule="nonzero"/><path fill="#fed101" d="M 258.175781 457.121094 L 171.304688 457.121094 L 172.292969 442.414062 L 116.90625 442.414062 L 115.140625 468.496094 C 113.742188 489.273438 130.179688 506.898438 150.957031 506.898438 L 215.859375 506.898438 L 176.453125 583.585938 L 220.636719 606.304688 L 279.34375 491.898438 C 287.496094 476.015625 275.992188 457.121094 258.175781 457.121094 " fill-opacity="1" fill-rule="nonzero"/><path fill="#fcb503" d="M 258.246094 457.125 C 257.332031 459.640625 256.824219 462.355469 256.824219 465.1875 C 256.824219 478.210938 267.355469 488.765625 280.34375 488.765625 C 280.460938 488.765625 280.574219 488.757812 280.691406 488.757812 C 285.953125 473.652344 274.859375 457.167969 258.246094 457.125 " fill-opacity="1" fill-rule="nonzero"/><path fill="#000000" d="M 171.460938 454.828125 L 172.292969 442.414062 L 116.90625 442.414062 L 115.722656 459.902344 C 124.242188 462.621094 135.351562 461.484375 139.917969 458.558594 C 145.242188 455.144531 156.183594 451.03125 171.460938 454.828125 " fill-opacity="1" fill-rule="nonzero"/><path fill="#000000" d="M 220.984375 607.390625 L 175.367188 583.9375 L 214.535156 507.707031 L 150.957031 507.707031 C 140.703125 507.707031 131.195312 503.574219 124.183594 496.078125 C 117.140625 488.550781 113.644531 478.734375 114.335938 468.4375 L 116.101562 442.359375 C 116.132812 441.917969 116.523438 441.585938 116.960938 441.609375 C 117.402344 441.640625 117.742188 442.023438 117.710938 442.46875 L 115.945312 468.546875 C 115.28125 478.394531 118.625 487.777344 125.359375 494.976562 C 132.066406 502.144531 141.15625 506.09375 150.957031 506.09375 L 217.175781 506.09375 L 177.539062 583.242188 L 220.289062 605.222656 L 278.628906 491.53125 C 282.335938 484.308594 282.019531 475.859375 277.785156 468.9375 C 273.574219 462.042969 266.242188 457.925781 258.175781 457.925781 L 155.453125 457.925781 C 155.007812 457.925781 154.648438 457.566406 154.648438 457.121094 C 154.648438 456.675781 155.007812 456.316406 155.453125 456.316406 L 258.175781 456.316406 C 266.808594 456.316406 274.652344 460.71875 279.164062 468.097656 C 283.691406 475.507812 284.027344 484.539062 280.0625 492.265625 L 220.984375 607.390625 " fill-opacity="1" fill-rule="nonzero"/><path fill="#000000" d="M 118.210938 339.199219 C 122.171875 343.269531 122.089844 349.792969 118.027344 353.765625 C 113.960938 357.734375 107.457031 357.652344 103.496094 353.582031 C 99.535156 349.507812 99.617188 342.984375 103.679688 339.015625 C 107.742188 335.042969 114.25 335.125 118.210938 339.199219 " fill-opacity="1" fill-rule="nonzero"/><path fill="#000000" d="M 99.835938 338.964844 C 103.796875 343.039062 103.714844 349.558594 99.652344 353.53125 C 95.585938 357.503906 89.082031 357.417969 85.121094 353.347656 C 81.160156 349.273438 81.242188 342.75 85.304688 338.78125 C 89.367188 334.8125 95.875 334.890625 99.835938 338.964844 " fill-opacity="1" fill-rule="nonzero"/><path fill="#000000" d="M 136.585938 339.429688 C 140.546875 343.503906 140.464844 350.027344 136.402344 353.996094 C 132.335938 357.96875 125.832031 357.886719 121.871094 353.816406 C 117.910156 349.742188 117.992188 343.21875 122.054688 339.25 C 126.117188 335.277344 132.625 335.359375 136.585938 339.429688 " fill-opacity="1" fill-rule="nonzero"/><path fill="#000000" d="M 173.332031 339.898438 C 177.292969 343.972656 177.214844 350.496094 173.148438 354.464844 C 169.085938 358.433594 162.582031 358.355469 158.621094 354.28125 C 154.660156 350.207031 154.738281 343.6875 158.804688 339.714844 C 162.867188 335.742188 169.371094 335.828125 173.332031 339.898438 " fill-opacity="1" fill-rule="nonzero"/><path fill="#000000" d="M 210.082031 340.363281 C 214.042969 344.441406 213.960938 350.957031 209.898438 354.933594 C 205.835938 358.902344 199.328125 358.816406 195.367188 354.746094 C 191.40625 350.671875 191.488281 344.152344 195.550781 340.179688 C 199.617188 336.210938 206.121094 336.292969 210.082031 340.363281 " fill-opacity="1" fill-rule="nonzero"/><path fill="#000000" d="M 191.707031 340.132812 C 195.667969 344.207031 195.585938 350.730469 191.523438 354.699219 C 187.460938 358.667969 180.957031 358.589844 176.996094 354.511719 C 173.03125 350.441406 173.113281 343.917969 177.175781 339.945312 C 181.242188 335.976562 187.746094 336.058594 191.707031 340.132812 " fill-opacity="1" fill-rule="nonzero"/><path fill="#955b50" d="M 145.6875 385.335938 L 130.875 384.472656 L 132.875 350.128906 L 147.691406 350.996094 L 145.6875 385.335938 " fill-opacity="1" fill-rule="nonzero"/><path fill="#955b50" d="M 133.121094 350.222656 C 132.667969 358.023438 138.054688 364.679688 145.160156 365.097656 C 152.261719 365.511719 158.386719 359.527344 158.84375 351.726562 C 159.296875 343.929688 153.90625 337.273438 146.804688 336.855469 C 139.699219 336.4375 133.574219 342.421875 133.121094 350.222656 " fill-opacity="1" fill-rule="nonzero"/><path fill="#ffffff" d="M 142.570312 358.769531 C 143.453125 359.679688 144.621094 360.328125 145.964844 360.546875 C 148.964844 361.03125 151.800781 359.222656 152.714844 356.417969 L 142.570312 358.769531 " fill-opacity="1" fill-rule="nonzero"/><path fill="#000000" d="M 146.082031 365.9375 C 145.839844 365.9375 145.59375 365.929688 145.347656 365.914062 C 143.976562 365.835938 142.640625 365.53125 141.371094 365.011719 C 140.957031 364.84375 140.761719 364.375 140.929688 363.960938 C 141.097656 363.550781 141.566406 363.351562 141.980469 363.519531 C 143.085938 363.972656 144.25 364.234375 145.441406 364.304688 C 148.574219 364.492188 151.621094 363.316406 153.996094 360.992188 C 156.386719 358.660156 157.820312 355.441406 158.023438 351.9375 C 158.441406 344.738281 153.480469 338.570312 146.960938 338.1875 C 140.878906 337.835938 135.523438 342.574219 134.519531 349.214844 C 134.453125 349.652344 134.039062 349.957031 133.601562 349.890625 C 133.160156 349.824219 132.859375 349.410156 132.925781 348.972656 C 134.058594 341.5 140.136719 336.175781 147.054688 336.582031 C 154.460938 337.011719 160.101562 343.945312 159.632812 352.035156 C 159.40625 355.9375 157.800781 359.527344 155.121094 362.148438 C 152.605469 364.605469 149.417969 365.9375 146.082031 365.9375 " fill-opacity="1" fill-rule="nonzero"/><path fill="#000000" d="M 146.839844 345.710938 L 158.75 352.480469 C 158.792969 352.121094 158.839844 351.761719 158.863281 351.394531 C 159.3125 343.628906 153.945312 337 146.875 336.585938 C 139.800781 336.171875 133.226562 342.414062 132.773438 350.179688 C 132.746094 350.707031 132.746094 351.226562 132.765625 351.742188 L 146.839844 345.710938 " fill-opacity="1" fill-rule="nonzero"/><path fill="#8c7bff" d="M 107.625 446.011719 L 124.957031 373.1875 L 149.378906 373.1875 C 157.148438 373.1875 163.628906 379.046875 164.519531 386.59375 L 164.851562 388.285156 C 165.5625 391.933594 167.988281 394.9375 171.273438 396.652344 C 175.070312 398.628906 177.648438 402.609375 177.621094 407.191406 C 177.601562 410.132812 176.507812 412.816406 174.714844 414.871094 C 172.257812 417.6875 171.359375 421.542969 172.074219 425.21875 L 175.878906 446.015625 L 107.625 446.011719 " fill-opacity="1" fill-rule="nonzero"/><path fill="#000000" d="M 175.878906 446.820312 C 175.496094 446.820312 175.15625 446.550781 175.085938 446.15625 L 171.28125 425.359375 C 170.503906 421.382812 171.558594 417.257812 174.105469 414.339844 C 175.835938 412.359375 176.796875 409.820312 176.8125 407.1875 C 176.839844 403.042969 174.574219 399.28125 170.902344 397.363281 C 167.292969 395.484375 164.800781 392.234375 164.058594 388.445312 L 163.726562 386.75 C 162.867188 379.453125 156.703125 373.992188 149.378906 373.992188 L 146.382812 373.992188 C 145.9375 373.992188 145.574219 373.632812 145.574219 373.1875 C 145.574219 372.742188 145.9375 372.382812 146.382812 372.382812 L 149.378906 372.382812 C 157.519531 372.382812 164.371094 378.449219 165.320312 386.5 L 165.640625 388.132812 C 166.289062 391.441406 168.476562 394.285156 171.648438 395.933594 C 175.859375 398.132812 178.457031 402.445312 178.425781 407.199219 C 178.40625 410.21875 177.304688 413.132812 175.320312 415.402344 C 173.101562 417.945312 172.183594 421.558594 172.867188 425.058594 L 176.671875 445.871094 C 176.75 446.308594 176.460938 446.726562 176.023438 446.804688 C 175.976562 446.816406 175.925781 446.820312 175.878906 446.820312 " fill-opacity="1" fill-rule="nonzero"/><path fill="#000000" d="M 155.589844 417.878906 C 155.335938 417.878906 155.085938 417.753906 154.925781 417.53125 C 154.675781 417.164062 154.765625 416.664062 155.132812 416.40625 C 158.195312 414.292969 159.972656 410.800781 159.878906 407.085938 C 159.761719 402.320312 156.621094 398.203125 152.070312 396.835938 C 151.644531 396.707031 151.402344 396.257812 151.53125 395.828125 C 151.660156 395.40625 152.109375 395.160156 152.535156 395.292969 C 157.753906 396.859375 161.355469 401.582031 161.492188 407.046875 C 161.597656 411.308594 159.5625 415.304688 156.046875 417.734375 C 155.910156 417.832031 155.75 417.878906 155.589844 417.878906 " fill-opacity="1" fill-rule="nonzero"/><path fill="#955b50" d="M 200.675781 426.503906 L 200.675781 448.664062 L 241.195312 448.664062 C 242.417969 448.664062 243.589844 449.183594 244.40625 450.101562 L 246.121094 452.019531 C 247.664062 453.742188 250.402344 453.597656 251.753906 451.714844 C 252.65625 450.460938 252.648438 448.796875 251.796875 447.550781 L 252.753906 446.21875 C 253.851562 444.695312 253.722656 442.609375 252.449219 441.226562 L 251.484375 440.183594 C 252.453125 438.675781 252.289062 436.691406 251.0625 435.367188 L 249.457031 433.625 L 249.480469 433.609375 C 250.15625 432.175781 249.910156 430.441406 248.804688 429.246094 L 247.378906 427.699219 C 244.648438 424.742188 240.8125 423.0625 236.792969 423.0625 L 223.246094 423.0625 C 217.628906 423.0625 216.1875 426.503906 213.699219 426.503906 L 200.675781 426.503906 " fill-opacity="1" fill-rule="nonzero"/><path fill="#000000" d="M 251.484375 440.992188 C 251.335938 440.992188 251.183594 440.949219 251.050781 440.863281 C 250.675781 440.621094 250.566406 440.125 250.808594 439.75 C 251.582031 438.542969 251.441406 436.964844 250.472656 435.910156 L 247.949219 433.179688 C 246.074219 431.152344 243.417969 429.988281 240.660156 429.988281 L 233.71875 429.988281 C 233.273438 429.988281 232.914062 429.625 232.914062 429.179688 C 232.914062 428.734375 233.273438 428.375 233.71875 428.375 L 240.660156 428.375 C 243.867188 428.375 246.957031 429.726562 249.132812 432.085938 L 251.65625 434.816406 C 253.125 436.410156 253.335938 438.792969 252.164062 440.621094 C 252.011719 440.859375 251.75 440.992188 251.484375 440.992188 " fill-opacity="1" fill-rule="nonzero"/><path fill="#000000" d="M 251.789062 448.371094 C 251.625 448.371094 251.460938 448.316406 251.320312 448.214844 C 250.957031 447.957031 250.875 447.457031 251.132812 447.09375 L 252.097656 445.753906 C 252.96875 444.542969 252.867188 442.867188 251.855469 441.773438 L 248.832031 438.5 C 247.277344 436.8125 245.070312 435.847656 242.785156 435.847656 L 233.65625 435.847656 C 233.210938 435.847656 232.847656 435.484375 232.847656 435.042969 C 232.847656 434.597656 233.210938 434.238281 233.65625 434.238281 L 242.785156 434.238281 C 245.519531 434.238281 248.15625 435.390625 250.015625 437.40625 L 253.042969 440.679688 C 254.566406 442.332031 254.722656 444.863281 253.410156 446.691406 L 252.445312 448.03125 C 252.289062 448.253906 252.039062 448.371094 251.789062 448.371094 " fill-opacity="1" fill-rule="nonzero"/><path fill="#000000" d="M 226.984375 449.464844 L 199.867188 449.464844 L 199.867188 425.695312 L 213.699219 425.695312 C 214.449219 425.695312 215.164062 425.222656 216.070312 424.621094 C 217.570312 423.625 219.632812 422.257812 223.25 422.257812 L 236.792969 422.257812 C 241.019531 422.257812 245.097656 424.039062 247.972656 427.152344 L 249.398438 428.699219 C 250.71875 430.128906 251.039062 432.1875 250.210938 433.949219 C 250.023438 434.355469 249.542969 434.523438 249.140625 434.339844 C 248.738281 434.148438 248.5625 433.667969 248.753906 433.265625 C 249.296875 432.101562 249.085938 430.738281 248.214844 429.792969 L 246.789062 428.246094 C 244.21875 425.460938 240.574219 423.867188 236.792969 423.867188 L 223.25 423.867188 C 220.117188 423.867188 218.441406 424.980469 216.960938 425.964844 C 215.921875 426.65625 214.9375 427.308594 213.699219 427.308594 L 201.480469 427.308594 L 201.480469 447.859375 L 226.984375 447.859375 C 227.429688 447.859375 227.792969 448.214844 227.792969 448.664062 C 227.792969 449.109375 227.429688 449.464844 226.984375 449.464844 " fill-opacity="1" fill-rule="nonzero"/><path fill="#000000" d="M 248.8125 454.027344 C 247.554688 454.027344 246.363281 453.5 245.519531 452.554688 L 243.804688 450.636719 C 243.140625 449.894531 242.191406 449.464844 241.195312 449.464844 L 219.496094 449.464844 C 215.453125 449.464844 211.683594 447.460938 209.410156 444.101562 C 209.160156 443.738281 209.257812 443.238281 209.625 442.984375 C 209.996094 442.734375 210.496094 442.835938 210.746094 443.199219 C 212.71875 446.117188 215.992188 447.859375 219.496094 447.859375 L 241.195312 447.859375 C 242.648438 447.859375 244.039062 448.480469 245.007812 449.566406 L 246.71875 451.480469 C 247.292969 452.121094 248.113281 452.460938 248.964844 452.414062 C 249.820312 452.371094 250.597656 451.941406 251.097656 451.246094 C 251.878906 450.160156 251.789062 448.65625 250.878906 447.675781 L 247.722656 444.257812 C 246.136719 442.542969 243.894531 441.558594 241.558594 441.558594 L 233.960938 441.558594 C 233.519531 441.558594 233.15625 441.195312 233.15625 440.75 C 233.15625 440.304688 233.519531 439.945312 233.960938 439.945312 L 241.558594 439.945312 C 244.339844 439.945312 247.019531 441.121094 248.910156 443.164062 L 252.066406 446.582031 C 253.488281 448.125 253.632812 450.484375 252.40625 452.1875 C 251.621094 453.285156 250.398438 453.953125 249.050781 454.023438 C 248.972656 454.027344 248.890625 454.027344 248.8125 454.027344 " fill-opacity="1" fill-rule="nonzero"/><path fill="#8c7bff" d="M 205.027344 423.183594 L 159.136719 423.183594 L 130.304688 373.1875 L 121.570312 373.1875 C 111.035156 373.1875 104.445312 384.617188 109.703125 393.769531 L 133.683594 435.496094 C 139.355469 445.371094 149.859375 451.457031 161.226562 451.457031 L 205.027344 451.457031 L 205.027344 423.183594 " fill-opacity="1" fill-rule="nonzero"/><path fill="#6155ff" d="M 145.679688 433.722656 C 141.613281 433.722656 137.871094 435.109375 134.894531 437.441406 C 140.773438 446.160156 150.621094 451.457031 161.226562 451.457031 L 163.25 451.457031 C 163.25 451.417969 163.253906 451.378906 163.253906 451.335938 C 163.253906 441.605469 155.386719 433.722656 145.679688 433.722656 " fill-opacity="1" fill-rule="nonzero"/><path fill="#000000" d="M 205.835938 452.261719 L 161.226562 452.261719 C 149.605469 452.261719 138.78125 445.992188 132.984375 435.898438 L 109.003906 394.167969 C 106.382812 389.609375 106.394531 384.171875 109.03125 379.621094 C 111.652344 375.085938 116.339844 372.382812 121.570312 372.382812 L 131.53125 372.382812 C 131.976562 372.382812 132.339844 372.742188 132.339844 373.1875 C 132.339844 373.632812 131.976562 373.992188 131.53125 373.992188 L 121.570312 373.992188 C 116.925781 373.992188 112.757812 376.398438 110.425781 380.425781 C 108.082031 384.472656 108.074219 389.3125 110.402344 393.363281 L 134.382812 435.097656 C 139.894531 444.691406 150.179688 450.65625 161.226562 450.65625 L 204.222656 450.65625 L 204.222656 423.992188 L 158.671875 423.992188 L 141.875 394.863281 C 141.652344 394.476562 141.785156 393.984375 142.171875 393.761719 C 142.554688 393.539062 143.050781 393.671875 143.269531 394.058594 L 159.601562 422.382812 L 205.835938 422.382812 L 205.835938 452.261719 " fill-opacity="1" fill-rule="nonzero"/><path fill="#000000" d="M 502.070312 461.441406 L 145.933594 461.441406 L 145.933594 450.65625 L 245.511719 450.65625 C 245.957031 450.65625 246.316406 451.011719 246.316406 451.457031 C 246.316406 451.902344 245.957031 452.261719 245.511719 452.261719 L 147.546875 452.261719 L 147.546875 459.832031 L 500.457031 459.832031 L 500.457031 452.261719 L 251.921875 452.261719 C 251.476562 452.261719 251.117188 451.902344 251.117188 451.457031 C 251.117188 451.011719 251.476562 450.65625 251.921875 450.65625 L 502.070312 450.65625 L 502.070312 461.441406 " fill-opacity="1" fill-rule="nonzero"/><g clip-path="url(#b655a1624e)"><path fill="#000000" d="M 253.105469 706.015625 L 262.316406 706.015625 L 208.808594 461.441406 L 201.25 461.441406 L 147.742188 706.015625 L 156.953125 706.015625 L 205.027344 486.265625 Z M 264.320312 707.628906 L 251.808594 707.628906 L 205.027344 493.804688 L 158.25 707.628906 L 145.738281 707.628906 L 145.953125 706.648438 L 199.953125 459.832031 L 210.105469 459.832031 L 264.320312 707.628906 " fill-opacity="1" fill-rule="nonzero"/></g><g clip-path="url(#a323809ce5)"><path fill="#000000" d="M 499.917969 706.015625 L 509.128906 706.015625 L 455.617188 461.441406 L 448.058594 461.441406 L 394.550781 706.015625 L 403.761719 706.015625 L 451.839844 486.265625 Z M 511.132812 707.628906 L 498.621094 707.628906 L 451.839844 493.804688 L 405.058594 707.628906 L 392.546875 707.628906 L 392.761719 706.648438 L 446.765625 459.832031 L 456.914062 459.832031 L 511.132812 707.628906 " fill-opacity="1" fill-rule="nonzero"/></g><path fill="#000000" d="M 641.722656 697.035156 L 628.914062 697.035156 L 628.914062 555.710938 C 628.914062 555.265625 629.273438 554.902344 629.71875 554.902344 C 630.164062 554.902344 630.523438 555.265625 630.523438 555.710938 L 630.523438 695.425781 L 640.105469 695.425781 L 640.105469 555.5 C 640.105469 555.058594 640.46875 554.699219 640.917969 554.699219 C 641.363281 554.699219 641.722656 555.058594 641.722656 555.5 L 641.722656 697.035156 " fill-opacity="1" fill-rule="nonzero"/><path fill="#000000" d="M 583.652344 703.699219 L 686.714844 703.699219 L 686.714844 701.015625 L 640.847656 697.035156 L 629.71875 697.035156 L 583.652344 701.015625 Z M 688.328125 705.3125 L 582.039062 705.3125 L 582.039062 699.53125 L 629.648438 695.425781 L 640.917969 695.425781 L 688.328125 699.53125 L 688.328125 705.3125 " fill-opacity="1" fill-rule="nonzero"/><path fill="#000000" d="M 526.878906 554.699219 L 663.074219 554.699219 C 703.363281 554.699219 736.136719 520.953125 736.136719 479.476562 L 736.136719 394.113281 L 625.433594 394.113281 L 625.433594 449.554688 C 625.433594 476.613281 605.050781 498.867188 579.25 500.921875 L 579.25 501.074219 C 551.359375 501.074219 526.878906 524.398438 526.878906 550.984375 Z M 663.074219 556.308594 L 525.265625 556.308594 L 525.265625 550.984375 C 525.265625 524.785156 548.25 501.660156 575.351562 499.613281 L 575.351562 499.460938 C 602.078125 499.460938 623.824219 477.074219 623.824219 449.554688 L 623.824219 392.5 L 737.75 392.5 L 737.75 479.476562 C 737.75 521.84375 704.253906 556.308594 663.074219 556.308594 " fill-opacity="1" fill-rule="nonzero"/><path fill="#fed101" d="M 521.507812 621.289062 L 503.917969 540.910156 L 521.507812 621.289062 " fill-opacity="1" fill-rule="nonzero"/><path fill="#955b50" d="M 487.09375 672.785156 L 517.65625 665.140625 L 517.863281 648.867188 L 508.886719 606.9375 L 474.578125 614.320312 L 487.09375 672.785156 " fill-opacity="1" fill-rule="nonzero"/><path fill="#020202" d="M 480.710938 642.976562 L 474.578125 614.320312 L 508.886719 606.9375 L 513.328125 627.664062 L 480.710938 642.976562 " fill-opacity="1" fill-rule="nonzero"/><path fill="#8c7bff" d="M 525.992188 694.59375 L 429.996094 694.59375 L 426.6875 685.527344 C 426.6875 680.09375 430.679688 675.484375 436.050781 674.730469 L 451.058594 672.609375 C 453.4375 672.273438 455.703125 671.339844 457.628906 669.894531 L 465.699219 664.972656 C 472.007812 661.121094 476.375 654.75 477.703125 647.464844 L 478.089844 645.339844 L 521.898438 645.339844 L 525.992188 694.59375 " fill-opacity="1" fill-rule="nonzero"/><path fill="#fed101" d="M 436.050781 674.730469 L 450.769531 672.648438 L 450.769531 694.59375 L 427 694.59375 L 426.6875 685.527344 C 426.6875 680.09375 430.679688 675.484375 436.050781 674.730469 " fill-opacity="1" fill-rule="nonzero"/><path fill="#000000" d="M 530.070312 692.0625 L 530.109375 706.589844 L 498.523438 706.589844 L 498.523438 701.441406 L 477.285156 701.441406 L 477.285156 706.589844 L 420.472656 706.589844 L 420.472656 692.066406 L 530.070312 692.0625 " fill-opacity="1" fill-rule="nonzero"/><path fill="#000000" d="M 426.664062 692.867188 C 426.238281 692.867188 425.882812 692.535156 425.859375 692.105469 L 425.550781 686.773438 C 425.199219 680.613281 429.519531 675.273438 435.609375 674.34375 L 453.632812 671.605469 C 454.320312 671.5 455.011719 671.808594 455.390625 672.390625 L 464.6875 686.5625 C 464.933594 686.933594 464.824219 687.433594 464.453125 687.675781 C 464.082031 687.921875 463.582031 687.816406 463.335938 687.445312 L 454.042969 673.273438 C 454.007812 673.21875 453.949219 673.191406 453.878906 673.199219 L 435.847656 675.9375 C 430.589844 676.742188 426.855469 681.355469 427.164062 686.683594 L 427.46875 692.011719 C 427.496094 692.460938 427.15625 692.839844 426.710938 692.867188 C 426.695312 692.867188 426.675781 692.867188 426.664062 692.867188 " fill-opacity="1" fill-rule="nonzero"/><path fill="#000000" d="M 470.707031 675.265625 C 470.570312 675.265625 470.429688 675.234375 470.300781 675.15625 L 460.457031 669.398438 C 460.070312 669.175781 459.941406 668.683594 460.167969 668.300781 C 460.390625 667.910156 460.886719 667.785156 461.265625 668.007812 L 471.113281 673.765625 C 471.5 673.988281 471.628906 674.484375 471.402344 674.867188 C 471.253906 675.125 470.984375 675.265625 470.707031 675.265625 " fill-opacity="1" fill-rule="nonzero"/><path fill="#020202" d="M 504.257812 692.542969 C 507.386719 679.886719 519.066406 674.183594 524.15625 672.542969 L 525.78125 692.113281 C 526.3125 692.113281 504.257812 692.542969 504.257812 692.542969 " fill-opacity="1" fill-rule="nonzero"/><path fill="#fed101" d="M 607.253906 482.113281 L 466.398438 482.113281 C 449.121094 482.113281 436.277344 498.128906 439.988281 515.042969 L 466.285156 634.863281 L 521.507812 617.25 L 503.914062 536.871094 L 607.253906 536.871094 L 607.253906 482.113281 " fill-opacity="1" fill-rule="nonzero"/><path fill="#955b50" d="M 674.15625 652.542969 L 691.367188 627.113281 L 650.21875 599.140625 L 633.015625 624.570312 L 674.15625 652.542969 " fill-opacity="1" fill-rule="nonzero"/><path fill="#020202" d="M 651.632812 637.230469 L 633.011719 624.570312 L 650.222656 599.140625 L 663.085938 607.886719 L 651.632812 637.230469 " fill-opacity="1" fill-rule="nonzero"/><path fill="#8c7bff" d="M 654.648438 672.9375 C 656.902344 672.65625 658.984375 671.589844 660.539062 669.925781 L 664.808594 662.664062 C 665.664062 661.207031 665.730469 659.414062 664.96875 657.90625 L 659.171875 646.351562 L 684.390625 618.445312 L 720.480469 642.4375 L 680.273438 687.007812 C 677.0625 690.5625 672.507812 692.589844 667.722656 692.589844 L 638.570312 694.640625 L 638.570312 693.300781 C 638.570312 677.082031 649.160156 673.628906 654.648438 672.9375 " fill-opacity="1" fill-rule="nonzero"/><path fill="#fed101" d="M 654.652344 672.9375 C 654.714844 672.929688 654.769531 672.914062 654.832031 672.90625 L 667.722656 692.589844 L 667.714844 692.589844 L 638.574219 694.429688 L 638.574219 693.300781 C 638.574219 677.082031 649.164062 673.628906 654.652344 672.9375 " fill-opacity="1" fill-rule="nonzero"/><path fill="#020202" d="M 705.15625 632.25 C 703.007812 636.457031 702.363281 640.246094 702.363281 643.722656 C 702.363281 649.089844 703.628906 654.152344 705.859375 658.648438 L 720.480469 642.4375 L 705.15625 632.25 " fill-opacity="1" fill-rule="nonzero"/><path fill="#000000" d="M 671.320312 684.6875 C 671.148438 684.6875 670.976562 684.632812 670.832031 684.519531 L 656.574219 673.5625 C 656.222656 673.289062 656.152344 672.785156 656.425781 672.433594 C 656.691406 672.078125 657.203125 672.011719 657.554688 672.285156 L 671.8125 683.238281 C 672.164062 683.511719 672.230469 684.019531 671.957031 684.375 C 671.800781 684.578125 671.5625 684.6875 671.320312 684.6875 " fill-opacity="1" fill-rule="nonzero"/><path fill="#000000" d="M 675.039062 675.253906 C 674.933594 675.253906 674.828125 675.238281 674.730469 675.191406 L 661.875 669.777344 C 661.46875 669.605469 661.277344 669.132812 661.449219 668.726562 C 661.621094 668.3125 662.09375 668.121094 662.507812 668.292969 L 675.351562 673.707031 C 675.761719 673.878906 675.957031 674.351562 675.785156 674.765625 C 675.652344 675.074219 675.351562 675.253906 675.039062 675.253906 " fill-opacity="1" fill-rule="nonzero"/><path fill="#000000" d="M 654.648438 672.9375 L 654.652344 672.9375 Z M 654.75 673.738281 C 649.007812 674.457031 639.375 677.957031 639.375 693.300781 L 639.375 693.78125 L 667.664062 691.789062 C 672.261719 691.785156 676.625 689.84375 679.667969 686.472656 L 719.253906 642.59375 L 684.519531 619.503906 L 660.140625 646.484375 L 665.691406 657.542969 C 666.570312 659.304688 666.5 661.375 665.5 663.074219 L 661.121094 670.480469 C 659.441406 672.277344 657.175781 673.433594 654.75 673.738281 Z M 637.761719 695.507812 L 637.761719 693.300781 C 637.761719 676.101562 649.503906 672.773438 654.550781 672.136719 C 656.578125 671.886719 658.464844 670.925781 659.882812 669.441406 L 664.113281 662.257812 C 664.835938 661.03125 664.886719 659.539062 664.25 658.265625 L 658.203125 646.222656 L 684.257812 617.390625 L 721.703125 642.285156 L 680.867188 687.550781 C 677.511719 691.265625 672.71875 693.394531 667.71875 693.394531 L 637.761719 695.507812 " fill-opacity="1" fill-rule="nonzero"/><path fill="#020202" d="M 667.722656 692.589844 C 672.503906 692.589844 677.0625 690.5625 680.273438 687.007812 L 721.878906 640.226562 L 731.664062 646.347656 L 709.785156 672.167969 L 705.734375 668.414062 L 689.726562 686.136719 L 693.578125 689.707031 L 686.734375 697.121094 C 682.101562 702.125 675.597656 704.972656 668.789062 704.972656 L 632.832031 704.972656 L 632.832031 692.589844 L 667.722656 692.589844 " fill-opacity="1" fill-rule="nonzero"/><path fill="#fed101" d="M 665.328125 596.003906 L 585.078125 540.910156 L 615.746094 540.910156 C 636.730469 540.910156 656.425781 530.746094 668.613281 513.628906 L 688.175781 486.152344 L 505.089844 486.152344 C 476.03125 486.152344 464.460938 523.824219 488.484375 540.214844 L 635.324219 640.367188 L 665.328125 596.003906 " fill-opacity="1" fill-rule="nonzero"/><path fill="#fcb503" d="M 504.882812 504.179688 C 504.882812 497.773438 503.261719 491.753906 500.410156 486.5 C 476.398438 490.058594 466.953125 520.679688 484.722656 537.207031 C 496.691406 531.066406 504.882812 518.585938 504.882812 504.179688 " fill-opacity="1" fill-rule="nonzero"/><path fill="#000000" d="M 505.089844 486.960938 C 492.234375 486.960938 481.464844 494.914062 477.664062 507.230469 C 473.84375 519.589844 478.273438 532.273438 488.941406 539.546875 L 635.109375 639.246094 L 664.207031 596.21875 L 582.480469 540.105469 L 615.742188 540.105469 C 636.421875 540.105469 655.945312 530.03125 667.953125 513.160156 L 686.613281 486.960938 Z M 635.535156 641.488281 L 634.867188 641.035156 L 488.03125 540.878906 C 476.769531 533.199219 472.089844 519.804688 476.121094 506.753906 C 480.136719 493.75 491.507812 485.347656 505.089844 485.347656 L 689.738281 485.347656 L 669.269531 514.097656 C 656.953125 531.390625 636.941406 541.71875 615.742188 541.71875 L 587.675781 541.71875 L 666.4375 595.796875 L 635.535156 641.488281 " fill-opacity="1" fill-rule="nonzero"/><path fill="#fda4ff" d="M 675.773438 401.792969 L 658.722656 401.792969 L 658.722656 377.144531 L 675.773438 377.144531 L 675.773438 401.792969 " fill-opacity="1" fill-rule="nonzero"/><path fill="#000000" d="M 635.972656 329.113281 L 635.972656 351.808594 C 635.972656 360.117188 642.699219 366.859375 650.992188 366.859375 L 657.765625 366.859375 L 678.761719 370.964844 L 678.761719 363.988281 C 678.761719 356.550781 674.671875 349.71875 668.117188 346.230469 L 635.972656 329.113281 " fill-opacity="1" fill-rule="nonzero"/><path fill="#fda4ff" d="M 678.761719 372.097656 C 678.761719 381.394531 671.832031 388.933594 663.273438 388.933594 C 654.714844 388.933594 647.777344 381.394531 647.777344 372.097656 C 647.777344 362.800781 654.714844 355.265625 663.273438 355.265625 C 671.832031 355.265625 678.761719 362.800781 678.761719 372.097656 " fill-opacity="1" fill-rule="nonzero"/><path fill="#000000" d="M 663.273438 389.742188 C 654.285156 389.742188 646.972656 381.679688 646.972656 371.769531 C 646.972656 361.859375 654.285156 353.796875 663.273438 353.796875 C 668.984375 353.796875 674.347656 357.15625 677.277344 362.5625 C 677.488281 362.953125 677.339844 363.445312 676.949219 363.65625 C 676.558594 363.871094 676.070312 363.722656 675.859375 363.332031 C 673.171875 358.367188 668.46875 355.410156 663.273438 355.410156 C 655.175781 355.410156 648.585938 362.75 648.585938 371.769531 C 648.585938 380.785156 655.175781 388.128906 663.273438 388.128906 C 667.9375 388.128906 670.820312 387.410156 674.542969 383.316406 C 674.84375 382.988281 675.355469 382.964844 675.683594 383.261719 C 676.015625 383.5625 676.035156 384.074219 675.738281 384.402344 C 671.628906 388.914062 668.308594 389.742188 663.273438 389.742188 " fill-opacity="1" fill-rule="nonzero"/><path fill="#000000" d="M 663.273438 354.605469 C 671.832031 354.605469 678.761719 362.292969 678.761719 371.769531 C 678.761719 372.621094 678.710938 373.460938 678.597656 374.277344 L 668.566406 366.859375 L 648.425781 366.859375 C 650.332031 359.769531 656.257812 354.605469 663.273438 354.605469 " fill-opacity="1" fill-rule="nonzero"/><path fill="#ffffff" d="M 654.660156 380.628906 C 655.445312 381.851562 656.613281 382.847656 658.078125 383.394531 C 661.351562 384.617188 664.945312 383.226562 666.609375 380.265625 L 654.660156 380.628906 " fill-opacity="1" fill-rule="nonzero"/><path fill="#000000" d="M 489.527344 378.066406 L 319.382812 378.066406 L 319.382812 188.273438 L 489.527344 188.273438 L 489.527344 378.066406 " fill-opacity="1" fill-rule="nonzero"/><path fill="#ffffff" d="M 497.324219 245.121094 C 494.957031 245.792969 493.53125 248.214844 494.09375 250.621094 L 496.269531 258.714844 L 495.847656 258.84375 C 493.382812 259.613281 491.863281 262.085938 492.285156 264.636719 L 494.820312 279.988281 C 495.519531 283.78125 495.160156 287.6875 493.769531 291.28125 L 491.058594 298.289062 L 479.132812 288.429688 C 477.285156 286.898438 474.554688 287.128906 472.988281 288.945312 L 472.65625 289.332031 C 471.109375 291.125 471.25 293.824219 472.96875 295.449219 L 476.402344 298.679688 C 479.394531 301.503906 482.003906 304.707031 484.160156 308.210938 C 486.058594 311.292969 488.34375 314.921875 489.601562 316.574219 C 492.664062 320.597656 496.375 321.792969 499.027344 322.070312 L 499.027344 244.96875 C 498.46875 244.914062 497.890625 244.957031 497.324219 245.121094 " fill-opacity="1" fill-rule="nonzero"/><path fill="#955b50" d="M 496.613281 245.09375 C 496.632812 245.089844 496.65625 245.089844 496.675781 245.082031 C 496.65625 245.089844 496.632812 245.089844 496.613281 245.09375 " fill-opacity="1" fill-rule="nonzero"/><path fill="#ffffff" d="M 498.039062 369.472656 L 328.019531 369.472656 L 328.019531 179.828125 L 498.039062 179.828125 L 498.039062 369.472656 " fill-opacity="1" fill-rule="nonzero"/><path fill="#000000" d="M 498.890625 370.210938 L 327.132812 370.210938 L 327.132812 178.808594 L 498.886719 178.808594 L 499.410156 263.855469 C 499.410156 264.300781 499.054688 264.664062 498.605469 264.664062 C 498.601562 264.664062 498.601562 264.664062 498.597656 264.664062 C 498.160156 264.664062 497.796875 264.308594 497.792969 263.863281 L 497.28125 180.417969 L 328.746094 180.417969 L 328.746094 368.601562 L 497.28125 368.601562 L 497.707031 283.164062 C 497.710938 282.71875 498.070312 282.359375 498.511719 282.359375 C 498.515625 282.359375 498.515625 282.359375 498.515625 282.359375 C 498.960938 282.363281 499.320312 282.726562 499.320312 283.171875 L 498.890625 370.210938 " fill-opacity="1" fill-rule="nonzero"/><path fill="#8c7bff" d="M 467.40625 350.011719 L 454.542969 350.011719 L 454.542969 294.550781 L 467.40625 294.550781 L 467.40625 350.011719 " fill-opacity="1" fill-rule="nonzero"/><path fill="#8c7bff" d="M 441.894531 350.011719 L 429.035156 350.011719 L 429.035156 311.5625 L 441.894531 311.5625 L 441.894531 350.011719 " fill-opacity="1" fill-rule="nonzero"/><path fill="#fda4ff" d="M 416.386719 350.011719 L 403.523438 350.011719 L 403.523438 322.855469 L 416.386719 322.855469 L 416.386719 350.011719 " fill-opacity="1" fill-rule="nonzero"/><path fill="#8c7bff" d="M 390.878906 350.011719 L 378.015625 350.011719 L 378.015625 311.5625 L 390.878906 311.5625 L 390.878906 350.011719 " fill-opacity="1" fill-rule="nonzero"/><path fill="#4ada85" d="M 365.375 350.011719 L 352.507812 350.011719 L 352.507812 300.765625 L 365.375 300.765625 L 365.375 350.011719 " fill-opacity="1" fill-rule="nonzero"/><path fill="#fda4ff" d="M 383.636719 274.355469 L 413.003906 244.910156 L 383.636719 215.476562 C 367.414062 231.734375 367.414062 258.09375 383.636719 274.355469 " fill-opacity="1" fill-rule="nonzero"/><path fill="#4ada85" d="M 378.242188 202.515625 L 407.609375 231.953125 L 407.609375 190.320312 C 396.140625 190.320312 385.757812 194.980469 378.242188 202.515625 " fill-opacity="1" fill-rule="nonzero"/><path fill="#8c7bff" d="M 413 244.914062 L 383.632812 274.355469 C 399.855469 290.613281 426.148438 290.613281 442.367188 274.355469 C 458.585938 258.09375 458.585938 231.734375 442.367188 215.476562 C 434.261719 207.347656 423.628906 203.28125 413 203.28125 L 413 244.914062 " fill-opacity="1" fill-rule="nonzero"/><path fill="#fda4ff" d="M 522.5625 302.636719 L 502.914062 247.996094 C 502.195312 245.996094 500.230469 244.78125 498.191406 244.960938 C 498.476562 244.933594 498.761719 244.9375 499.042969 244.96875 L 499.042969 302.730469 L 498.542969 302.5625 C 495.996094 301.71875 493.628906 300.414062 491.5625 298.703125 L 491.058594 298.289062 L 479.140625 288.429688 C 477.289062 286.898438 474.554688 287.128906 472.988281 288.945312 L 472.660156 289.328125 C 471.109375 291.121094 471.25 293.824219 472.96875 295.445312 L 476.402344 298.679688 C 479.394531 301.5 482 304.699219 484.15625 308.203125 C 486.054688 311.285156 488.34375 314.917969 489.601562 316.574219 C 495.027344 323.703125 502.488281 321.953125 502.488281 321.953125 C 502.488281 321.953125 528.21875 391.238281 540.121094 404.125 C 548.632812 413.34375 623.34375 438.542969 623.34375 438.542969 L 639.921875 405.4375 L 561.390625 375.632812 L 522.5625 302.636719 " fill-opacity="1" fill-rule="nonzero"/><path fill="#000000" d="M 498.933594 245.773438 C 498.929688 245.773438 498.929688 245.769531 498.925781 245.769531 C 498.6875 245.75 498.472656 245.746094 498.257812 245.765625 L 498.121094 244.160156 C 498.429688 244.132812 498.738281 244.132812 499.085938 244.167969 L 498.933594 245.773438 " fill-opacity="1" fill-rule="nonzero"/><path fill="#000000" d="M 550.785156 410.753906 L 622.144531 437.535156 L 637.992188 405.871094 L 560.828125 376.277344 L 560.683594 376.015625 L 521.023438 302.96875 L 521.003906 302.910156 L 501.347656 248.269531 C 500.859375 246.898438 499.601562 245.921875 498.160156 245.777344 C 497.65625 245.726562 497.1875 245.765625 496.738281 245.894531 C 494.78125 246.453125 493.609375 248.445312 494.074219 250.433594 L 496.445312 259.253906 L 495.28125 259.613281 C 493.210938 260.261719 491.921875 262.359375 492.277344 264.507812 L 494.808594 279.859375 C 495.539062 283.78125 495.160156 287.839844 493.714844 291.574219 L 491.042969 299.269531 L 477.835938 289.066406 C 476.292969 287.792969 474.082031 287.976562 472.792969 289.472656 L 472.464844 289.855469 C 471.191406 291.328125 471.300781 293.53125 472.71875 294.859375 L 476.148438 298.097656 C 479.199219 300.96875 481.855469 304.234375 484.042969 307.789062 C 485.800781 310.652344 488.164062 314.410156 489.4375 316.085938 C 494.460938 322.6875 501.210938 321.230469 501.496094 321.171875 L 502.15625 321.023438 L 502.421875 321.640625 L 532.222656 391.71875 C 536.101562 399.914062 542.695312 406.675781 550.785156 410.753906 Z M 622.9375 439.550781 L 550.09375 412.214844 C 541.667969 407.972656 534.796875 400.9375 530.753906 392.394531 L 530.742188 392.367188 L 501.1875 322.859375 C 499.140625 323.121094 492.925781 323.332031 488.152344 317.058594 C 486.84375 315.335938 484.445312 311.527344 482.667969 308.632812 C 480.558594 305.199219 477.988281 302.046875 475.046875 299.269531 L 471.613281 296.035156 C 469.570312 294.105469 469.40625 290.929688 471.242188 288.804688 L 471.570312 288.421875 C 473.410156 286.289062 476.671875 286.011719 478.84375 287.808594 L 490.253906 296.621094 L 492.203125 291.015625 C 493.550781 287.535156 493.898438 283.78125 493.222656 280.136719 L 490.683594 264.765625 C 490.214844 261.945312 491.839844 259.175781 494.488281 258.183594 L 492.515625 250.824219 C 491.839844 247.972656 493.511719 245.136719 496.296875 244.347656 C 496.9375 244.164062 497.601562 244.105469 498.277344 244.167969 L 498.402344 244.183594 C 500.382812 244.382812 502.164062 245.777344 502.863281 247.722656 L 522.496094 302.304688 L 561.960938 374.988281 L 640.230469 405.003906 L 622.9375 439.550781 " fill-opacity="1" fill-rule="nonzero"/><path fill="#000000" d="M 501.273438 304.117188 C 498.386719 304.117188 495.539062 303.113281 493.246094 301.183594 L 490.367188 298.757812 C 490.027344 298.46875 489.980469 297.960938 490.265625 297.621094 C 490.554688 297.28125 491.0625 297.238281 491.402344 297.523438 L 494.28125 299.945312 C 497.363281 302.539062 501.585938 303.21875 505.320312 301.722656 C 505.730469 301.558594 506.203125 301.757812 506.367188 302.167969 C 506.535156 302.582031 506.332031 303.054688 505.921875 303.21875 C 504.414062 303.824219 502.835938 304.117188 501.273438 304.117188 " fill-opacity="1" fill-rule="nonzero"/><path fill="#fda4ff" d="M 500.253906 282.328125 L 499.1875 277.964844 C 498.503906 275.191406 497.039062 272.671875 494.960938 270.71875 L 483.582031 260.011719 C 481.945312 258.472656 481.84375 255.898438 483.359375 254.234375 C 484.796875 252.652344 487.207031 252.441406 488.898438 253.75 L 502.742188 264.445312 C 503.859375 265.3125 504.792969 266.390625 505.488281 267.625 L 509.230469 274.265625 L 500.253906 282.328125 " fill-opacity="1" fill-rule="nonzero"/><path fill="#000000" d="M 492.355469 269.003906 C 492.15625 269.003906 491.960938 268.929688 491.804688 268.785156 L 483.03125 260.601562 C 481.082031 258.769531 480.960938 255.671875 482.757812 253.695312 C 484.46875 251.816406 487.382812 251.558594 489.394531 253.113281 L 503.234375 263.808594 C 504.445312 264.746094 505.441406 265.898438 506.191406 267.226562 C 506.410156 267.617188 506.269531 268.109375 505.882812 268.328125 C 505.496094 268.546875 505.007812 268.410156 504.785156 268.019531 C 504.140625 266.875 503.285156 265.890625 502.246094 265.085938 L 488.40625 254.386719 C 487.054688 253.34375 485.097656 253.515625 483.953125 254.78125 C 482.742188 256.109375 482.824219 258.195312 484.132812 259.421875 L 492.90625 267.609375 C 493.234375 267.910156 493.246094 268.421875 492.945312 268.75 C 492.785156 268.917969 492.570312 269.003906 492.355469 269.003906 " fill-opacity="1" fill-rule="nonzero"/><path fill="#fda4ff" d="M 505.3125 293.097656 L 503.542969 288.972656 C 502.414062 286.347656 500.550781 284.105469 498.179688 282.523438 L 485.191406 273.847656 C 483.320312 272.601562 482.796875 270.082031 484.015625 268.191406 C 485.175781 266.390625 487.515625 265.785156 489.402344 266.792969 L 504.820312 275.046875 C 506.0625 275.714844 507.164062 276.628906 508.050781 277.726562 L 512.835938 283.65625 L 505.3125 293.097656 " fill-opacity="1" fill-rule="nonzero"/><path fill="#000000" d="M 505.140625 294.429688 C 504.804688 294.429688 504.492188 294.222656 504.375 293.890625 L 502.777344 289.230469 C 501.730469 286.800781 499.980469 284.695312 497.730469 283.191406 L 484.742188 274.519531 C 482.523438 273.035156 481.890625 270.003906 483.339844 267.753906 C 484.714844 265.621094 487.546875 264.882812 489.785156 266.082031 L 503.394531 272.894531 C 506.464844 274.433594 509.21875 276.664062 511.359375 279.351562 C 511.636719 279.703125 511.578125 280.207031 511.230469 280.488281 C 510.878906 280.761719 510.375 280.703125 510.097656 280.355469 C 508.101562 277.851562 505.535156 275.765625 502.675781 274.339844 L 489.042969 267.511719 C 487.519531 266.699219 485.617188 267.191406 484.691406 268.628906 C 483.71875 270.140625 484.144531 272.179688 485.640625 273.179688 L 498.628906 281.851562 C 501.136719 283.527344 503.09375 285.878906 504.28125 288.652344 L 505.902344 293.363281 C 506.046875 293.785156 505.820312 294.242188 505.398438 294.386719 C 505.3125 294.417969 505.226562 294.429688 505.140625 294.429688 " fill-opacity="1" fill-rule="nonzero"/><path fill="#8c7bff" d="M 687.714844 486.753906 L 720.71875 439.660156 C 731.890625 423.722656 720.515625 401.773438 701.078125 401.773438 L 649.84375 401.773438 C 642.421875 401.773438 635.464844 405.371094 631.167969 411.429688 L 577.699219 486.753906 L 687.714844 486.753906 " fill-opacity="1" fill-rule="nonzero"/><path fill="#8c7bff" d="M 662.324219 401.851562 L 631.136719 401.347656 L 589.65625 383.363281 L 589.96875 434.765625 L 609.101562 442.507812 L 662.324219 401.851562 " fill-opacity="1" fill-rule="nonzero"/><path fill="#000000" d="M 594.511719 463.871094 C 594.351562 463.871094 594.1875 463.820312 594.042969 463.722656 C 593.679688 463.460938 593.597656 462.960938 593.851562 462.597656 L 616.984375 430.015625 C 617.238281 429.652344 617.742188 429.570312 618.105469 429.824219 C 618.472656 430.082031 618.554688 430.585938 618.292969 430.949219 L 595.167969 463.53125 C 595.011719 463.75 594.765625 463.871094 594.511719 463.871094 " fill-opacity="1" fill-rule="nonzero"/><path fill="#fda4ff" d="M 570.007812 464.203125 L 570.007812 463.734375 C 570.007812 460.289062 573.984375 458.371094 576.671875 460.511719 L 579.984375 463.152344 L 593.480469 463.152344 C 600.292969 463.152344 606.742188 466.234375 611.03125 471.542969 L 616.59375 478.433594 L 596.699219 472.832031 L 583.054688 472.832031 C 580.136719 472.832031 577.304688 471.863281 574.996094 470.078125 L 571.609375 467.460938 C 570.601562 466.683594 570.007812 465.476562 570.007812 464.203125 " fill-opacity="1" fill-rule="nonzero"/><path fill="#000000" d="M 547.609375 502.117188 L 593.144531 502.117188 L 566.878906 439.882812 L 521.34375 439.882812 Z M 595.574219 503.726562 L 546.539062 503.726562 L 518.914062 438.269531 L 567.945312 438.269531 L 595.574219 503.726562 " fill-opacity="1" fill-rule="nonzero"/><path fill="#000000" d="M 599.691406 503.730469 L 592.433594 503.730469 C 591.988281 503.730469 591.628906 503.367188 591.628906 502.921875 C 591.628906 502.480469 591.988281 502.117188 592.433594 502.117188 L 597.261719 502.117188 L 570.996094 439.882812 L 565.484375 439.882812 C 565.039062 439.882812 564.683594 439.523438 564.683594 439.078125 C 564.683594 438.632812 565.039062 438.269531 565.484375 438.269531 L 572.0625 438.269531 L 599.691406 503.730469 " fill-opacity="1" fill-rule="nonzero"/><path fill="#fda4ff" d="M 721.285156 445.324219 L 681.246094 445.324219 L 658.464844 477.820312 L 601.273438 477.808594 L 601.273438 506.609375 L 665.414062 506.621094 C 673.472656 506.621094 681.023438 502.691406 685.667969 496.082031 L 721.285156 445.324219 " fill-opacity="1" fill-rule="nonzero"/><path fill="#fda4ff" d="M 562.332031 496.117188 L 558.65625 492.132812 C 556.800781 490.117188 556.613281 487.070312 558.210938 484.84375 L 561.824219 479.8125 L 570.585938 489.609375 L 625.625 489.609375 L 625.625 501.15625 L 573.84375 501.15625 C 569.472656 501.15625 565.308594 499.332031 562.332031 496.117188 " fill-opacity="1" fill-rule="nonzero"/><path fill="#fda4ff" d="M 564.03125 503.320312 L 561.949219 501.0625 C 560.089844 499.050781 559.902344 496 561.503906 493.773438 L 565.121094 488.742188 L 573.878906 498.542969 L 625.625 498.542969 L 625.625 506.578125 L 616.84375 506.578125 C 613.207031 506.578125 606.726562 510.089844 598.53125 510.089844 L 579.488281 510.089844 C 573.621094 510.089844 568.015625 507.636719 564.03125 503.320312 " fill-opacity="1" fill-rule="nonzero"/><path fill="#fda4ff" d="M 561.054688 488.355469 L 556.636719 483.574219 C 554.777344 481.558594 554.59375 478.507812 556.191406 476.28125 L 559.804688 471.253906 L 568.566406 481.054688 L 602.667969 481.054688 L 602.667969 492.601562 L 570.742188 492.601562 C 567.0625 492.601562 563.554688 491.058594 561.054688 488.355469 " fill-opacity="1" fill-rule="nonzero"/><path fill="#fda4ff" d="M 562.664062 479.949219 L 558.058594 474.960938 C 556.351562 473.113281 556.179688 470.3125 557.648438 468.265625 C 559.621094 465.523438 563.617188 465.308594 565.871094 467.828125 L 568.367188 470.621094 C 569.566406 471.960938 571.269531 472.722656 573.0625 472.722656 L 599.25 472.722656 C 606.734375 472.722656 612.003906 473.152344 619.214844 484.277344 L 572.527344 484.269531 C 568.78125 484.269531 565.207031 482.703125 562.664062 479.949219 " fill-opacity="1" fill-rule="nonzero"/><path fill="#000000" d="M 681.246094 445.324219 L 672.984375 457.113281 C 675.203125 456.992188 677.960938 456.703125 680.164062 456.039062 C 683.84375 454.929688 687.464844 454.414062 691.007812 459.160156 C 694.734375 464.140625 702.324219 464.992188 707.882812 464.421875 L 721.285156 445.324219 L 681.246094 445.324219 " fill-opacity="1" fill-rule="nonzero"/><path fill="#000000" d="M 583.972656 501.964844 L 573.84375 501.964844 C 569.265625 501.964844 564.855469 500.03125 561.746094 496.664062 L 558.0625 492.675781 C 555.953125 490.390625 555.738281 486.898438 557.558594 484.371094 C 557.816406 484.011719 558.320312 483.929688 558.683594 484.1875 C 559.042969 484.449219 559.125 484.953125 558.867188 485.3125 C 557.496094 487.222656 557.65625 489.859375 559.25 491.585938 L 562.929688 495.574219 C 565.734375 498.609375 569.710938 500.351562 573.84375 500.351562 L 583.972656 500.351562 C 584.421875 500.351562 584.777344 500.710938 584.777344 501.15625 C 584.777344 501.601562 584.421875 501.964844 583.972656 501.964844 " fill-opacity="1" fill-rule="nonzero"/><path fill="#000000" d="M 584.066406 493.40625 L 570.742188 493.40625 C 566.851562 493.40625 563.101562 491.765625 560.460938 488.902344 L 556.042969 484.117188 C 553.933594 481.832031 553.722656 478.34375 555.53125 475.816406 L 556.945312 473.855469 C 557.203125 473.496094 557.707031 473.410156 558.070312 473.671875 C 558.429688 473.929688 558.511719 474.433594 558.253906 474.796875 L 556.84375 476.753906 C 555.472656 478.664062 555.636719 481.300781 557.226562 483.027344 L 561.644531 487.808594 C 563.984375 490.339844 567.300781 491.796875 570.742188 491.796875 L 584.066406 491.796875 C 584.511719 491.796875 584.875 492.152344 584.875 492.601562 C 584.875 493.046875 584.511719 493.40625 584.066406 493.40625 " fill-opacity="1" fill-rule="nonzero"/><path fill="#000000" d="M 583.613281 485.074219 L 572.527344 485.074219 C 568.574219 485.074219 564.761719 483.40625 562.074219 480.496094 L 557.46875 475.507812 C 555.507812 473.386719 555.308594 470.144531 556.992188 467.796875 C 558.082031 466.285156 559.761719 465.363281 561.617188 465.265625 C 563.476562 465.167969 565.234375 465.90625 566.472656 467.289062 L 568.976562 470.085938 C 570.011719 471.246094 571.503906 471.917969 573.0625 471.917969 L 589.773438 471.917969 C 590.214844 471.917969 590.578125 472.277344 590.578125 472.71875 C 590.578125 473.164062 590.214844 473.527344 589.773438 473.527344 L 573.0625 473.527344 C 571.042969 473.527344 569.117188 472.664062 567.769531 471.160156 L 565.273438 468.363281 C 564.359375 467.347656 563.046875 466.800781 561.699219 466.875 C 560.339844 466.949219 559.101562 467.628906 558.304688 468.734375 C 557.0625 470.464844 557.210938 472.851562 558.652344 474.414062 L 563.257812 479.402344 C 565.640625 481.984375 569.023438 483.464844 572.527344 483.464844 L 583.613281 483.464844 C 584.058594 483.464844 584.425781 483.824219 584.425781 484.269531 C 584.425781 484.714844 584.058594 485.074219 583.613281 485.074219 " fill-opacity="1" fill-rule="nonzero"/><path fill="#000000" d="M 596.035156 510.691406 L 579.066406 510.691406 C 573.253906 510.691406 567.660156 508.242188 563.714844 503.96875 L 561.722656 501.816406 C 559.976562 499.917969 559.550781 497.183594 560.644531 494.84375 C 560.839844 494.441406 561.316406 494.269531 561.71875 494.457031 C 562.121094 494.644531 562.296875 495.125 562.105469 495.527344 C 561.289062 497.269531 561.609375 499.308594 562.910156 500.722656 L 564.898438 502.875 C 568.542969 506.820312 573.703125 509.078125 579.066406 509.078125 L 596.035156 509.078125 C 601.242188 509.078125 604.570312 508.160156 607.792969 507.269531 C 610.488281 506.523438 613.035156 505.820312 616.3125 505.820312 L 665.421875 505.816406 C 673.203125 505.816406 680.53125 502 685.011719 495.617188 L 715.679688 451.921875 C 715.929688 451.558594 716.4375 451.46875 716.800781 451.722656 C 717.160156 451.980469 717.25 452.484375 716.996094 452.847656 L 686.328125 496.542969 C 681.546875 503.355469 673.734375 507.425781 665.421875 507.425781 L 616.3125 507.429688 C 613.253906 507.429688 610.921875 508.078125 608.21875 508.824219 C 605.054688 509.699219 601.457031 510.691406 596.035156 510.691406 " fill-opacity="1" fill-rule="nonzero"/><path fill="#000000" d="M 658.882812 478.628906 L 615.699219 478.613281 L 610.394531 472.054688 C 606.246094 466.910156 600.078125 463.960938 593.480469 463.960938 L 579.695312 463.960938 L 576.167969 461.144531 C 575.152344 460.339844 573.851562 460.1875 572.6875 460.753906 C 571.515625 461.316406 570.816406 462.429688 570.816406 463.738281 L 570.816406 464.203125 C 570.816406 465.222656 571.296875 466.203125 572.097656 466.824219 L 575.480469 469.441406 C 577.21875 470.785156 579.28125 471.640625 581.449219 471.925781 C 581.890625 471.984375 582.199219 472.382812 582.144531 472.828125 C 582.089844 473.269531 581.675781 473.578125 581.238281 473.523438 C 578.789062 473.199219 576.453125 472.230469 574.5 470.71875 L 571.109375 468.101562 C 569.917969 467.175781 569.203125 465.71875 569.203125 464.203125 L 569.203125 463.738281 C 569.203125 461.828125 570.273438 460.128906 571.984375 459.300781 C 573.699219 458.476562 575.683594 458.703125 577.167969 459.886719 L 580.261719 462.351562 L 593.480469 462.351562 C 600.566406 462.351562 607.191406 465.515625 611.652344 471.039062 L 616.46875 477.003906 L 658.042969 477.015625 L 675.597656 451.984375 C 675.859375 451.617188 676.355469 451.53125 676.722656 451.785156 C 677.082031 452.042969 677.171875 452.542969 676.921875 452.90625 L 658.882812 478.628906 " fill-opacity="1" fill-rule="nonzero"/><path fill="#8c7bff" d="M 722.597656 452.386719 L 729.921875 441.933594 C 741.75 425.054688 729.683594 401.8125 709.101562 401.851562 L 705.027344 401.851562 L 669.609375 452.386719 L 722.597656 452.386719 " fill-opacity="1" fill-rule="nonzero"/><path fill="#000000" d="M 723.015625 453.191406 L 668.054688 453.191406 L 684.097656 430.300781 C 684.355469 429.9375 684.859375 429.847656 685.226562 430.101562 C 685.589844 430.359375 685.675781 430.863281 685.417969 431.226562 L 671.15625 451.578125 L 722.175781 451.578125 L 729.261719 441.472656 C 734.648438 433.78125 735.277344 424.214844 730.925781 415.878906 C 726.601562 407.582031 718.464844 402.65625 709.101562 402.65625 L 676.128906 402.664062 C 675.683594 402.664062 675.324219 402.300781 675.324219 401.855469 C 675.324219 401.410156 675.683594 401.050781 676.128906 401.050781 L 709.101562 401.042969 C 709.117188 401.042969 709.132812 401.042969 709.144531 401.042969 C 719.082031 401.042969 727.753906 406.308594 732.359375 415.136719 C 736.988281 424.011719 736.324219 434.203125 730.582031 442.394531 L 723.015625 453.191406 " fill-opacity="1" fill-rule="nonzero"/><path fill="#4ada85" d="M 145.96875 283.132812 L 183.34375 283.132812 L 183.34375 312.859375 L 208.632812 283.132812 L 258.453125 283.132812 L 258.453125 222.371094 L 145.96875 222.371094 L 145.96875 283.132812 " fill-opacity="1" fill-rule="nonzero"/><path fill="#ffffff" d="M 218.972656 252.851562 C 218.972656 256.148438 221.640625 258.820312 224.929688 258.820312 C 228.21875 258.820312 230.882812 256.148438 230.882812 252.851562 C 230.882812 249.554688 228.21875 246.882812 224.929688 246.882812 C 221.640625 246.882812 218.972656 249.554688 218.972656 252.851562 " fill-opacity="1" fill-rule="nonzero"/><path fill="#ffffff" d="M 196.480469 252.851562 C 196.480469 256.148438 199.144531 258.820312 202.433594 258.820312 C 205.722656 258.820312 208.390625 256.148438 208.390625 252.851562 C 208.390625 249.554688 205.722656 246.882812 202.433594 246.882812 C 199.144531 246.882812 196.480469 249.554688 196.480469 252.851562 " fill-opacity="1" fill-rule="nonzero"/><path fill="#ffffff" d="M 173.984375 252.851562 C 173.984375 256.148438 176.652344 258.820312 179.9375 258.820312 C 183.226562 258.820312 185.894531 256.148438 185.894531 252.851562 C 185.894531 249.554688 183.226562 246.882812 179.9375 246.882812 C 176.652344 246.882812 173.984375 249.554688 173.984375 252.851562 " fill-opacity="1" fill-rule="nonzero"/><path fill="#000000" d="M 111.191406 95.75 L 268.253906 95.75 L 268.253906 188.808594 L 110.867188 188.808594 L 111.191406 95.75 " fill-opacity="1" fill-rule="nonzero"/><path fill="#ffffff" d="M 105.453125 91.546875 L 262.519531 91.546875 L 262.519531 184.605469 L 105.128906 184.605469 L 105.453125 91.546875 " fill-opacity="1" fill-rule="nonzero"/><path fill="#000000" d="M 105.9375 183.804688 L 261.710938 183.804688 L 261.710938 92.355469 L 106.257812 92.355469 Z M 262.515625 185.414062 L 105.128906 185.414062 C 104.914062 185.414062 104.710938 185.332031 104.558594 185.175781 C 104.40625 185.027344 104.320312 184.816406 104.320312 184.605469 L 104.648438 91.546875 C 104.648438 91.101562 105.007812 90.746094 105.453125 90.746094 L 262.515625 90.746094 C 262.960938 90.746094 263.324219 91.105469 263.324219 91.550781 L 263.324219 184.609375 C 263.324219 185.054688 262.960938 185.414062 262.515625 185.414062 " fill-opacity="1" fill-rule="nonzero"/><path fill="#fed101" d="M 129.792969 175.066406 L 116.988281 175.066406 L 116.988281 148.347656 L 129.792969 148.347656 L 129.792969 175.066406 " fill-opacity="1" fill-rule="nonzero"/><path fill="#fed101" d="M 153.984375 175.0625 L 141.179688 175.0625 L 141.179688 127.457031 L 153.984375 127.457031 L 153.984375 175.0625 " fill-opacity="1" fill-rule="nonzero"/><path fill="#fed101" d="M 178.171875 175.0625 L 165.367188 175.0625 L 165.367188 135.988281 L 178.171875 135.988281 L 178.171875 175.0625 " fill-opacity="1" fill-rule="nonzero"/><path fill="#fed101" d="M 202.363281 175.066406 L 189.558594 175.066406 L 189.558594 126.484375 L 202.363281 126.484375 L 202.363281 175.066406 " fill-opacity="1" fill-rule="nonzero"/><path fill="#fed101" d="M 226.554688 175.0625 L 213.75 175.0625 L 213.75 115.480469 L 226.554688 115.480469 L 226.554688 175.0625 " fill-opacity="1" fill-rule="nonzero"/><path fill="#fed101" d="M 250.742188 175.066406 L 237.9375 175.066406 L 237.9375 101.40625 L 250.742188 101.40625 L 250.742188 175.066406 " fill-opacity="1" fill-rule="nonzero"/><path fill="#1ec15f" d="M 137.074219 167.214844 C 136.890625 167.214844 136.710938 167.15625 136.5625 167.035156 L 116.476562 150.5 C 116.132812 150.21875 116.085938 149.707031 116.367188 149.367188 C 116.652344 149.023438 117.160156 148.976562 117.503906 149.257812 L 137.105469 165.394531 L 163.355469 146.464844 C 163.675781 146.230469 164.121094 146.265625 164.402344 146.550781 L 174.371094 156.757812 L 208.355469 129.859375 C 208.691406 129.589844 209.171875 129.636719 209.457031 129.953125 L 218.742188 140.386719 L 250.222656 113.601562 C 250.5625 113.316406 251.070312 113.355469 251.359375 113.695312 C 251.648438 114.03125 251.605469 114.542969 251.265625 114.832031 L 219.1875 142.121094 C 218.851562 142.410156 218.351562 142.375 218.0625 142.042969 L 208.761719 131.589844 L 174.804688 158.472656 C 174.480469 158.726562 174.015625 158.695312 173.726562 158.402344 L 163.734375 148.171875 L 137.546875 167.066406 C 137.40625 167.167969 137.238281 167.214844 137.074219 167.214844 " fill-opacity="1" fill-rule="nonzero"/><g fill="#1f117b" fill-opacity="1"><g transform="translate(98.338349, 775.055843)"><g><path d="M 28.125 0 L 20.71875 -10.546875 C 19.800781 -10.484375 19.078125 -10.453125 18.546875 -10.453125 L 10.0625 -10.453125 L 10.0625 0 L 5.15625 0 L 5.15625 -34.359375 L 18.546875 -34.359375 C 22.992188 -34.359375 26.492188 -33.289062 29.046875 -31.15625 C 31.597656 -29.03125 32.875 -26.101562 32.875 -22.375 C 32.875 -19.726562 32.21875 -17.472656 30.90625 -15.609375 C 29.601562 -13.742188 27.742188 -12.382812 25.328125 -11.53125 L 33.46875 0 Z M 18.40625 -14.625 C 21.507812 -14.625 23.878906 -15.296875 25.515625 -16.640625 C 27.148438 -17.984375 27.96875 -19.894531 27.96875 -22.375 C 27.96875 -24.863281 27.148438 -26.769531 25.515625 -28.09375 C 23.878906 -29.414062 21.507812 -30.078125 18.40625 -30.078125 L 10.0625 -30.078125 L 10.0625 -14.625 Z M 18.40625 -14.625 "/></g></g></g><g fill="#1f117b" fill-opacity="1"><g transform="translate(134.011286, 775.055843)"><g><path d="M 27.96875 -12.859375 C 27.96875 -12.492188 27.9375 -12.019531 27.875 -11.4375 L 6.765625 -11.4375 C 7.066406 -9.144531 8.078125 -7.300781 9.796875 -5.90625 C 11.515625 -4.519531 13.648438 -3.828125 16.203125 -3.828125 C 19.304688 -3.828125 21.804688 -4.875 23.703125 -6.96875 L 26.3125 -3.921875 C 25.132812 -2.546875 23.664062 -1.5 21.90625 -0.78125 C 20.15625 -0.0625 18.203125 0.296875 16.046875 0.296875 C 13.296875 0.296875 10.859375 -0.265625 8.734375 -1.390625 C 6.609375 -2.523438 4.960938 -4.101562 3.796875 -6.125 C 2.640625 -8.15625 2.0625 -10.445312 2.0625 -13 C 2.0625 -15.519531 2.625 -17.796875 3.75 -19.828125 C 4.882812 -21.859375 6.441406 -23.4375 8.421875 -24.5625 C 10.398438 -25.6875 12.628906 -26.25 15.109375 -26.25 C 17.597656 -26.25 19.816406 -25.6875 21.765625 -24.5625 C 23.710938 -23.4375 25.234375 -21.859375 26.328125 -19.828125 C 27.421875 -17.796875 27.96875 -15.472656 27.96875 -12.859375 Z M 15.109375 -22.28125 C 12.859375 -22.28125 10.972656 -21.59375 9.453125 -20.21875 C 7.929688 -18.84375 7.035156 -17.046875 6.765625 -14.828125 L 23.453125 -14.828125 C 23.191406 -17.015625 22.300781 -18.800781 20.78125 -20.1875 C 19.257812 -21.582031 17.367188 -22.28125 15.109375 -22.28125 Z M 15.109375 -22.28125 "/></g></g></g><g fill="#1f117b" fill-opacity="1"><g transform="translate(164.041326, 775.055843)"><g><path d="M 15.796875 0.296875 C 13.148438 0.296875 10.785156 -0.273438 8.703125 -1.421875 C 6.628906 -2.566406 5.003906 -4.144531 3.828125 -6.15625 C 2.648438 -8.164062 2.0625 -10.445312 2.0625 -13 C 2.0625 -15.550781 2.648438 -17.832031 3.828125 -19.84375 C 5.003906 -21.863281 6.628906 -23.4375 8.703125 -24.5625 C 10.785156 -25.6875 13.148438 -26.25 15.796875 -26.25 C 18.160156 -26.25 20.265625 -25.773438 22.109375 -24.828125 C 23.953125 -23.878906 25.382812 -22.507812 26.40625 -20.71875 L 22.828125 -18.40625 C 22.003906 -19.644531 20.988281 -20.578125 19.78125 -21.203125 C 18.570312 -21.828125 17.226562 -22.140625 15.75 -22.140625 C 14.050781 -22.140625 12.519531 -21.757812 11.15625 -21 C 9.800781 -20.25 8.738281 -19.175781 7.96875 -17.78125 C 7.207031 -16.394531 6.828125 -14.800781 6.828125 -13 C 6.828125 -11.164062 7.207031 -9.550781 7.96875 -8.15625 C 8.738281 -6.769531 9.800781 -5.703125 11.15625 -4.953125 C 12.519531 -4.203125 14.050781 -3.828125 15.75 -3.828125 C 17.226562 -3.828125 18.570312 -4.132812 19.78125 -4.75 C 20.988281 -5.375 22.003906 -6.3125 22.828125 -7.5625 L 26.40625 -5.296875 C 25.382812 -3.492188 23.953125 -2.109375 22.109375 -1.140625 C 20.265625 -0.179688 18.160156 0.296875 15.796875 0.296875 Z M 15.796875 0.296875 "/></g></g></g><g fill="#1f117b" fill-opacity="1"><g transform="translate(192.059549, 775.055843)"><g><path d="M 15.609375 0.296875 C 13.023438 0.296875 10.703125 -0.273438 8.640625 -1.421875 C 6.578125 -2.566406 4.960938 -4.144531 3.796875 -6.15625 C 2.640625 -8.164062 2.0625 -10.445312 2.0625 -13 C 2.0625 -15.550781 2.640625 -17.832031 3.796875 -19.84375 C 4.960938 -21.863281 6.578125 -23.4375 8.640625 -24.5625 C 10.703125 -25.6875 13.023438 -26.25 15.609375 -26.25 C 18.191406 -26.25 20.503906 -25.6875 22.546875 -24.5625 C 24.597656 -23.4375 26.203125 -21.863281 27.359375 -19.84375 C 28.523438 -17.832031 29.109375 -15.550781 29.109375 -13 C 29.109375 -10.445312 28.523438 -8.164062 27.359375 -6.15625 C 26.203125 -4.144531 24.597656 -2.566406 22.546875 -1.421875 C 20.503906 -0.273438 18.191406 0.296875 15.609375 0.296875 Z M 15.609375 -3.828125 C 17.273438 -3.828125 18.769531 -4.210938 20.09375 -4.984375 C 21.414062 -5.753906 22.453125 -6.832031 23.203125 -8.21875 C 23.960938 -9.613281 24.34375 -11.207031 24.34375 -13 C 24.34375 -14.800781 23.960938 -16.394531 23.203125 -17.78125 C 22.453125 -19.175781 21.414062 -20.25 20.09375 -21 C 18.769531 -21.757812 17.273438 -22.140625 15.609375 -22.140625 C 13.941406 -22.140625 12.441406 -21.757812 11.109375 -21 C 9.785156 -20.25 8.738281 -19.175781 7.96875 -17.78125 C 7.207031 -16.394531 6.828125 -14.800781 6.828125 -13 C 6.828125 -11.207031 7.207031 -9.613281 7.96875 -8.21875 C 8.738281 -6.832031 9.785156 -5.753906 11.109375 -4.984375 C 12.441406 -4.210938 13.941406 -3.828125 15.609375 -3.828125 Z M 15.609375 -3.828125 "/></g></g></g><g fill="#1f117b" fill-opacity="1"><g transform="translate(223.218168, 775.055843)"><g><path d="M 8.984375 -21.640625 C 9.796875 -23.148438 11.003906 -24.296875 12.609375 -25.078125 C 14.210938 -25.859375 16.160156 -26.25 18.453125 -26.25 L 18.453125 -21.6875 C 18.191406 -21.71875 17.832031 -21.734375 17.375 -21.734375 C 14.820312 -21.734375 12.816406 -20.972656 11.359375 -19.453125 C 9.898438 -17.929688 9.171875 -15.765625 9.171875 -12.953125 L 9.171875 0 L 4.46875 0 L 4.46875 -26.015625 L 8.984375 -26.015625 Z M 8.984375 -21.640625 "/></g></g></g><g fill="#1f117b" fill-opacity="1"><g transform="translate(243.336335, 775.055843)"><g><path d="M 29 -36.421875 L 29 0 L 24.484375 0 L 24.484375 -4.125 C 23.441406 -2.6875 22.117188 -1.585938 20.515625 -0.828125 C 18.910156 -0.078125 17.144531 0.296875 15.21875 0.296875 C 12.695312 0.296875 10.4375 -0.257812 8.4375 -1.375 C 6.445312 -2.488281 4.882812 -4.050781 3.75 -6.0625 C 2.625 -8.070312 2.0625 -10.382812 2.0625 -13 C 2.0625 -15.625 2.625 -17.929688 3.75 -19.921875 C 4.882812 -21.921875 6.445312 -23.472656 8.4375 -24.578125 C 10.4375 -25.691406 12.695312 -26.25 15.21875 -26.25 C 17.082031 -26.25 18.796875 -25.894531 20.359375 -25.1875 C 21.929688 -24.488281 23.242188 -23.453125 24.296875 -22.078125 L 24.296875 -36.421875 Z M 15.609375 -3.828125 C 17.242188 -3.828125 18.726562 -4.210938 20.0625 -4.984375 C 21.40625 -5.753906 22.453125 -6.832031 23.203125 -8.21875 C 23.960938 -9.613281 24.34375 -11.207031 24.34375 -13 C 24.34375 -14.800781 23.960938 -16.394531 23.203125 -17.78125 C 22.453125 -19.175781 21.40625 -20.25 20.0625 -21 C 18.726562 -21.757812 17.242188 -22.140625 15.609375 -22.140625 C 13.941406 -22.140625 12.441406 -21.757812 11.109375 -21 C 9.785156 -20.25 8.738281 -19.175781 7.96875 -17.78125 C 7.207031 -16.394531 6.828125 -14.800781 6.828125 -13 C 6.828125 -11.207031 7.207031 -9.613281 7.96875 -8.21875 C 8.738281 -6.832031 9.785156 -5.753906 11.109375 -4.984375 C 12.441406 -4.210938 13.941406 -3.828125 15.609375 -3.828125 Z M 15.609375 -3.828125 "/></g></g></g><g fill="#1f117b" fill-opacity="1"><g transform="translate(276.801174, 775.055843)"><g/></g></g><g fill="#1f117b" fill-opacity="1"><g transform="translate(290.000663, 775.055843)"><g><path d="M 18.3125 -11.875 L 18.3125 0 L 13.453125 0 L 13.453125 -11.96875 L -0.203125 -34.359375 L 5.0625 -34.359375 L 16.046875 -16.25 L 27.09375 -34.359375 L 31.953125 -34.359375 Z M 18.3125 -11.875 "/></g></g></g><g fill="#1f117b" fill-opacity="1"><g transform="translate(321.748107, 775.055843)"><g><path d="M 15.609375 0.296875 C 13.023438 0.296875 10.703125 -0.273438 8.640625 -1.421875 C 6.578125 -2.566406 4.960938 -4.144531 3.796875 -6.15625 C 2.640625 -8.164062 2.0625 -10.445312 2.0625 -13 C 2.0625 -15.550781 2.640625 -17.832031 3.796875 -19.84375 C 4.960938 -21.863281 6.578125 -23.4375 8.640625 -24.5625 C 10.703125 -25.6875 13.023438 -26.25 15.609375 -26.25 C 18.191406 -26.25 20.503906 -25.6875 22.546875 -24.5625 C 24.597656 -23.4375 26.203125 -21.863281 27.359375 -19.84375 C 28.523438 -17.832031 29.109375 -15.550781 29.109375 -13 C 29.109375 -10.445312 28.523438 -8.164062 27.359375 -6.15625 C 26.203125 -4.144531 24.597656 -2.566406 22.546875 -1.421875 C 20.503906 -0.273438 18.191406 0.296875 15.609375 0.296875 Z M 15.609375 -3.828125 C 17.273438 -3.828125 18.769531 -4.210938 20.09375 -4.984375 C 21.414062 -5.753906 22.453125 -6.832031 23.203125 -8.21875 C 23.960938 -9.613281 24.34375 -11.207031 24.34375 -13 C 24.34375 -14.800781 23.960938 -16.394531 23.203125 -17.78125 C 22.453125 -19.175781 21.414062 -20.25 20.09375 -21 C 18.769531 -21.757812 17.273438 -22.140625 15.609375 -22.140625 C 13.941406 -22.140625 12.441406 -21.757812 11.109375 -21 C 9.785156 -20.25 8.738281 -19.175781 7.96875 -17.78125 C 7.207031 -16.394531 6.828125 -14.800781 6.828125 -13 C 6.828125 -11.207031 7.207031 -9.613281 7.96875 -8.21875 C 8.738281 -6.832031 9.785156 -5.753906 11.109375 -4.984375 C 12.441406 -4.210938 13.941406 -3.828125 15.609375 -3.828125 Z M 15.609375 -3.828125 "/></g></g></g><g fill="#1f117b" fill-opacity="1"><g transform="translate(352.906726, 775.055843)"><g><path d="M 28.703125 -26.015625 L 28.703125 0 L 24.25 0 L 24.25 -3.921875 C 23.300781 -2.578125 22.046875 -1.535156 20.484375 -0.796875 C 18.929688 -0.0664062 17.238281 0.296875 15.40625 0.296875 C 11.9375 0.296875 9.203125 -0.660156 7.203125 -2.578125 C 5.210938 -4.492188 4.21875 -7.316406 4.21875 -11.046875 L 4.21875 -26.015625 L 8.9375 -26.015625 L 8.9375 -11.578125 C 8.9375 -9.054688 9.539062 -7.148438 10.75 -5.859375 C 11.957031 -4.566406 13.691406 -3.921875 15.953125 -3.921875 C 18.441406 -3.921875 20.40625 -4.671875 21.84375 -6.171875 C 23.28125 -7.679688 24 -9.8125 24 -12.5625 L 24 -26.015625 Z M 28.703125 -26.015625 "/></g></g></g><g fill="#1f117b" fill-opacity="1"><g transform="translate(386.126242, 775.055843)"><g><path d="M 8.984375 -21.640625 C 9.796875 -23.148438 11.003906 -24.296875 12.609375 -25.078125 C 14.210938 -25.859375 16.160156 -26.25 18.453125 -26.25 L 18.453125 -21.6875 C 18.191406 -21.71875 17.832031 -21.734375 17.375 -21.734375 C 14.820312 -21.734375 12.816406 -20.972656 11.359375 -19.453125 C 9.898438 -17.929688 9.171875 -15.765625 9.171875 -12.953125 L 9.171875 0 L 4.46875 0 L 4.46875 -26.015625 L 8.984375 -26.015625 Z M 8.984375 -21.640625 "/></g></g></g><g fill="#1f117b" fill-opacity="1"><g transform="translate(406.244409, 775.055843)"><g/></g></g><g fill="#1f117b" fill-opacity="1"><g transform="translate(419.443898, 775.055843)"><g><path d="M 11.96875 -30.078125 L 0.203125 -30.078125 L 0.203125 -34.359375 L 28.609375 -34.359375 L 28.609375 -30.078125 L 16.828125 -30.078125 L 16.828125 0 L 11.96875 0 Z M 11.96875 -30.078125 "/></g></g></g><g fill="#1f117b" fill-opacity="1"><g transform="translate(448.247238, 775.055843)"><g><path d="M 8.984375 -21.640625 C 9.796875 -23.148438 11.003906 -24.296875 12.609375 -25.078125 C 14.210938 -25.859375 16.160156 -26.25 18.453125 -26.25 L 18.453125 -21.6875 C 18.191406 -21.71875 17.832031 -21.734375 17.375 -21.734375 C 14.820312 -21.734375 12.816406 -20.972656 11.359375 -19.453125 C 9.898438 -17.929688 9.171875 -15.765625 9.171875 -12.953125 L 9.171875 0 L 4.46875 0 L 4.46875 -26.015625 L 8.984375 -26.015625 Z M 8.984375 -21.640625 "/></g></g></g><g fill="#1f117b" fill-opacity="1"><g transform="translate(468.365405, 775.055843)"><g><path d="M 13.9375 -26.25 C 17.539062 -26.25 20.296875 -25.363281 22.203125 -23.59375 C 24.117188 -21.832031 25.078125 -19.203125 25.078125 -15.703125 L 25.078125 0 L 20.609375 0 L 20.609375 -3.4375 C 19.828125 -2.226562 18.707031 -1.300781 17.25 -0.65625 C 15.789062 -0.0195312 14.066406 0.296875 12.078125 0.296875 C 9.160156 0.296875 6.828125 -0.40625 5.078125 -1.8125 C 3.328125 -3.21875 2.453125 -5.066406 2.453125 -7.359375 C 2.453125 -9.648438 3.285156 -11.488281 4.953125 -12.875 C 6.617188 -14.269531 9.269531 -14.96875 12.90625 -14.96875 L 20.375 -14.96875 L 20.375 -15.90625 C 20.375 -17.925781 19.78125 -19.476562 18.59375 -20.5625 C 17.414062 -21.644531 15.679688 -22.1875 13.390625 -22.1875 C 11.859375 -22.1875 10.351562 -21.929688 8.875 -21.421875 C 7.40625 -20.910156 6.164062 -20.234375 5.15625 -19.390625 L 3.1875 -22.921875 C 4.53125 -24.003906 6.132812 -24.828125 8 -25.390625 C 9.863281 -25.960938 11.84375 -26.25 13.9375 -26.25 Z M 12.859375 -3.34375 C 14.660156 -3.34375 16.210938 -3.738281 17.515625 -4.53125 C 18.828125 -5.332031 19.78125 -6.472656 20.375 -7.953125 L 20.375 -11.578125 L 13.109375 -11.578125 C 9.109375 -11.578125 7.109375 -10.238281 7.109375 -7.5625 C 7.109375 -6.25 7.613281 -5.21875 8.625 -4.46875 C 9.644531 -3.71875 11.054688 -3.34375 12.859375 -3.34375 Z M 12.859375 -3.34375 "/></g></g></g><g fill="#1f117b" fill-opacity="1"><g transform="translate(497.708489, 775.055843)"><g><path d="M 18.359375 -26.25 C 21.660156 -26.25 24.285156 -25.289062 26.234375 -23.375 C 28.179688 -21.46875 29.15625 -18.664062 29.15625 -14.96875 L 29.15625 0 L 24.4375 0 L 24.4375 -14.421875 C 24.4375 -16.941406 23.832031 -18.835938 22.625 -20.109375 C 21.414062 -21.390625 19.679688 -22.03125 17.421875 -22.03125 C 14.867188 -22.03125 12.851562 -21.285156 11.375 -19.796875 C 9.90625 -18.304688 9.171875 -16.171875 9.171875 -13.390625 L 9.171875 0 L 4.46875 0 L 4.46875 -26.015625 L 8.984375 -26.015625 L 8.984375 -22.078125 C 9.929688 -23.421875 11.210938 -24.453125 12.828125 -25.171875 C 14.453125 -25.890625 16.296875 -26.25 18.359375 -26.25 Z M 18.359375 -26.25 "/></g></g></g><g fill="#1f117b" fill-opacity="1"><g transform="translate(531.124267, 775.055843)"><g><path d="M 11.921875 0.296875 C 9.796875 0.296875 7.75 0.0078125 5.78125 -0.5625 C 3.820312 -1.132812 2.285156 -1.863281 1.171875 -2.75 L 3.140625 -6.484375 C 4.285156 -5.660156 5.675781 -5.003906 7.3125 -4.515625 C 8.945312 -4.023438 10.597656 -3.78125 12.265625 -3.78125 C 16.390625 -3.78125 18.453125 -4.957031 18.453125 -7.3125 C 18.453125 -8.09375 18.171875 -8.710938 17.609375 -9.171875 C 17.054688 -9.628906 16.363281 -9.960938 15.53125 -10.171875 C 14.695312 -10.390625 13.507812 -10.628906 11.96875 -10.890625 C 9.875 -11.222656 8.164062 -11.597656 6.84375 -12.015625 C 5.519531 -12.441406 4.382812 -13.160156 3.4375 -14.171875 C 2.488281 -15.191406 2.015625 -16.617188 2.015625 -18.453125 C 2.015625 -20.804688 2.992188 -22.691406 4.953125 -24.109375 C 6.921875 -25.535156 9.554688 -26.25 12.859375 -26.25 C 14.585938 -26.25 16.316406 -26.035156 18.046875 -25.609375 C 19.785156 -25.191406 21.210938 -24.625 22.328125 -23.90625 L 20.3125 -20.171875 C 18.1875 -21.546875 15.6875 -22.234375 12.8125 -22.234375 C 10.8125 -22.234375 9.285156 -21.90625 8.234375 -21.25 C 7.191406 -20.59375 6.671875 -19.726562 6.671875 -18.65625 C 6.671875 -17.800781 6.960938 -17.128906 7.546875 -16.640625 C 8.140625 -16.148438 8.867188 -15.789062 9.734375 -15.5625 C 10.609375 -15.332031 11.828125 -15.066406 13.390625 -14.765625 C 15.492188 -14.410156 17.191406 -14.023438 18.484375 -13.609375 C 19.773438 -13.203125 20.878906 -12.507812 21.796875 -11.53125 C 22.710938 -10.550781 23.171875 -9.175781 23.171875 -7.40625 C 23.171875 -5.050781 22.160156 -3.175781 20.140625 -1.78125 C 18.128906 -0.394531 15.390625 0.296875 11.921875 0.296875 Z M 11.921875 0.296875 "/></g></g></g><g fill="#1f117b" fill-opacity="1"><g transform="translate(555.707691, 775.055843)"><g><path d="M 13.9375 -26.25 C 17.539062 -26.25 20.296875 -25.363281 22.203125 -23.59375 C 24.117188 -21.832031 25.078125 -19.203125 25.078125 -15.703125 L 25.078125 0 L 20.609375 0 L 20.609375 -3.4375 C 19.828125 -2.226562 18.707031 -1.300781 17.25 -0.65625 C 15.789062 -0.0195312 14.066406 0.296875 12.078125 0.296875 C 9.160156 0.296875 6.828125 -0.40625 5.078125 -1.8125 C 3.328125 -3.21875 2.453125 -5.066406 2.453125 -7.359375 C 2.453125 -9.648438 3.285156 -11.488281 4.953125 -12.875 C 6.617188 -14.269531 9.269531 -14.96875 12.90625 -14.96875 L 20.375 -14.96875 L 20.375 -15.90625 C 20.375 -17.925781 19.78125 -19.476562 18.59375 -20.5625 C 17.414062 -21.644531 15.679688 -22.1875 13.390625 -22.1875 C 11.859375 -22.1875 10.351562 -21.929688 8.875 -21.421875 C 7.40625 -20.910156 6.164062 -20.234375 5.15625 -19.390625 L 3.1875 -22.921875 C 4.53125 -24.003906 6.132812 -24.828125 8 -25.390625 C 9.863281 -25.960938 11.84375 -26.25 13.9375 -26.25 Z M 12.859375 -3.34375 C 14.660156 -3.34375 16.210938 -3.738281 17.515625 -4.53125 C 18.828125 -5.332031 19.78125 -6.472656 20.375 -7.953125 L 20.375 -11.578125 L 13.109375 -11.578125 C 9.109375 -11.578125 7.109375 -10.238281 7.109375 -7.5625 C 7.109375 -6.25 7.613281 -5.21875 8.625 -4.46875 C 9.644531 -3.71875 11.054688 -3.34375 12.859375 -3.34375 Z M 12.859375 -3.34375 "/></g></g></g><g fill="#1f117b" fill-opacity="1"><g transform="translate(585.050776, 775.055843)"><g><path d="M 15.796875 0.296875 C 13.148438 0.296875 10.785156 -0.273438 8.703125 -1.421875 C 6.628906 -2.566406 5.003906 -4.144531 3.828125 -6.15625 C 2.648438 -8.164062 2.0625 -10.445312 2.0625 -13 C 2.0625 -15.550781 2.648438 -17.832031 3.828125 -19.84375 C 5.003906 -21.863281 6.628906 -23.4375 8.703125 -24.5625 C 10.785156 -25.6875 13.148438 -26.25 15.796875 -26.25 C 18.160156 -26.25 20.265625 -25.773438 22.109375 -24.828125 C 23.953125 -23.878906 25.382812 -22.507812 26.40625 -20.71875 L 22.828125 -18.40625 C 22.003906 -19.644531 20.988281 -20.578125 19.78125 -21.203125 C 18.570312 -21.828125 17.226562 -22.140625 15.75 -22.140625 C 14.050781 -22.140625 12.519531 -21.757812 11.15625 -21 C 9.800781 -20.25 8.738281 -19.175781 7.96875 -17.78125 C 7.207031 -16.394531 6.828125 -14.800781 6.828125 -13 C 6.828125 -11.164062 7.207031 -9.550781 7.96875 -8.15625 C 8.738281 -6.769531 9.800781 -5.703125 11.15625 -4.953125 C 12.519531 -4.203125 14.050781 -3.828125 15.75 -3.828125 C 17.226562 -3.828125 18.570312 -4.132812 19.78125 -4.75 C 20.988281 -5.375 22.003906 -6.3125 22.828125 -7.5625 L 26.40625 -5.296875 C 25.382812 -3.492188 23.953125 -2.109375 22.109375 -1.140625 C 20.265625 -0.179688 18.160156 0.296875 15.796875 0.296875 Z M 15.796875 0.296875 "/></g></g></g><g fill="#1f117b" fill-opacity="1"><g transform="translate(613.068989, 775.055843)"><g><path d="M 19.09375 -1.515625 C 18.40625 -0.929688 17.550781 -0.484375 16.53125 -0.171875 C 15.519531 0.140625 14.472656 0.296875 13.390625 0.296875 C 10.773438 0.296875 8.75 -0.40625 7.3125 -1.8125 C 5.875 -3.21875 5.15625 -5.234375 5.15625 -7.859375 L 5.15625 -22.140625 L 0.734375 -22.140625 L 0.734375 -26.015625 L 5.15625 -26.015625 L 5.15625 -31.703125 L 9.859375 -31.703125 L 9.859375 -26.015625 L 17.328125 -26.015625 L 17.328125 -22.140625 L 9.859375 -22.140625 L 9.859375 -8.046875 C 9.859375 -6.640625 10.207031 -5.5625 10.90625 -4.8125 C 11.613281 -4.0625 12.625 -3.6875 13.9375 -3.6875 C 15.375 -3.6875 16.601562 -4.09375 17.625 -4.90625 Z M 19.09375 -1.515625 "/></g></g></g><g fill="#1f117b" fill-opacity="1"><g transform="translate(633.383438, 775.055843)"><g><path d="M 4.46875 -26.015625 L 9.171875 -26.015625 L 9.171875 0 L 4.46875 0 Z M 6.828125 -31.015625 C 5.910156 -31.015625 5.148438 -31.304688 4.546875 -31.890625 C 3.941406 -32.484375 3.640625 -33.207031 3.640625 -34.0625 C 3.640625 -34.914062 3.941406 -35.644531 4.546875 -36.25 C 5.148438 -36.851562 5.910156 -37.15625 6.828125 -37.15625 C 7.742188 -37.15625 8.503906 -36.867188 9.109375 -36.296875 C 9.710938 -35.722656 10.015625 -35.007812 10.015625 -34.15625 C 10.015625 -33.269531 9.710938 -32.523438 9.109375 -31.921875 C 8.503906 -31.316406 7.742188 -31.015625 6.828125 -31.015625 Z M 6.828125 -31.015625 "/></g></g></g><g fill="#1f117b" fill-opacity="1"><g transform="translate(647.073612, 775.055843)"><g><path d="M 15.609375 0.296875 C 13.023438 0.296875 10.703125 -0.273438 8.640625 -1.421875 C 6.578125 -2.566406 4.960938 -4.144531 3.796875 -6.15625 C 2.640625 -8.164062 2.0625 -10.445312 2.0625 -13 C 2.0625 -15.550781 2.640625 -17.832031 3.796875 -19.84375 C 4.960938 -21.863281 6.578125 -23.4375 8.640625 -24.5625 C 10.703125 -25.6875 13.023438 -26.25 15.609375 -26.25 C 18.191406 -26.25 20.503906 -25.6875 22.546875 -24.5625 C 24.597656 -23.4375 26.203125 -21.863281 27.359375 -19.84375 C 28.523438 -17.832031 29.109375 -15.550781 29.109375 -13 C 29.109375 -10.445312 28.523438 -8.164062 27.359375 -6.15625 C 26.203125 -4.144531 24.597656 -2.566406 22.546875 -1.421875 C 20.503906 -0.273438 18.191406 0.296875 15.609375 0.296875 Z M 15.609375 -3.828125 C 17.273438 -3.828125 18.769531 -4.210938 20.09375 -4.984375 C 21.414062 -5.753906 22.453125 -6.832031 23.203125 -8.21875 C 23.960938 -9.613281 24.34375 -11.207031 24.34375 -13 C 24.34375 -14.800781 23.960938 -16.394531 23.203125 -17.78125 C 22.453125 -19.175781 21.414062 -20.25 20.09375 -21 C 18.769531 -21.757812 17.273438 -22.140625 15.609375 -22.140625 C 13.941406 -22.140625 12.441406 -21.757812 11.109375 -21 C 9.785156 -20.25 8.738281 -19.175781 7.96875 -17.78125 C 7.207031 -16.394531 6.828125 -14.800781 6.828125 -13 C 6.828125 -11.207031 7.207031 -9.613281 7.96875 -8.21875 C 8.738281 -6.832031 9.785156 -5.753906 11.109375 -4.984375 C 12.441406 -4.210938 13.941406 -3.828125 15.609375 -3.828125 Z M 15.609375 -3.828125 "/></g></g></g><g fill="#1f117b" fill-opacity="1"><g transform="translate(678.232251, 775.055843)"><g><path d="M 18.359375 -26.25 C 21.660156 -26.25 24.285156 -25.289062 26.234375 -23.375 C 28.179688 -21.46875 29.15625 -18.664062 29.15625 -14.96875 L 29.15625 0 L 24.4375 0 L 24.4375 -14.421875 C 24.4375 -16.941406 23.832031 -18.835938 22.625 -20.109375 C 21.414062 -21.390625 19.679688 -22.03125 17.421875 -22.03125 C 14.867188 -22.03125 12.851562 -21.285156 11.375 -19.796875 C 9.90625 -18.304688 9.171875 -16.171875 9.171875 -13.390625 L 9.171875 0 L 4.46875 0 L 4.46875 -26.015625 L 8.984375 -26.015625 L 8.984375 -22.078125 C 9.929688 -23.421875 11.210938 -24.453125 12.828125 -25.171875 C 14.453125 -25.890625 16.296875 -26.25 18.359375 -26.25 Z M 18.359375 -26.25 "/></g></g></g></svg>