<svg xmlns="http://www.w3.org/2000/svg" xmlns:xlink="http://www.w3.org/1999/xlink" width="1080" zoomAndPan="magnify" viewBox="0 0 810 809.999993" height="1080" preserveAspectRatio="xMidYMid meet" version="1.0"><defs><g/><clipPath id="70ca8bc915"><path d="M 108.058594 256 L 236 256 L 236 549 L 108.058594 549 Z M 108.058594 256 " clip-rule="nonzero"/></clipPath><clipPath id="f80c6f78f0"><path d="M 108.058594 255 L 236 255 L 236 550 L 108.058594 550 Z M 108.058594 255 " clip-rule="nonzero"/></clipPath><clipPath id="d03079a8ac"><path d="M 240 529 L 435 529 L 435 702.566406 L 240 702.566406 Z M 240 529 " clip-rule="nonzero"/></clipPath><clipPath id="b471326d3e"><path d="M 547 561 L 694 561 L 694 702.566406 L 547 702.566406 Z M 547 561 " clip-rule="nonzero"/></clipPath></defs><path fill="#8c7bff" d="M 698.796875 148.792969 L 324.0625 148.792969 L 324.0625 112.011719 L 698.796875 112.011719 L 698.796875 148.792969 " fill-opacity="1" fill-rule="nonzero"/><path fill="#ffffff" d="M 687.433594 130.273438 C 687.433594 134.757812 683.796875 138.394531 679.308594 138.394531 C 674.820312 138.394531 671.183594 134.757812 671.183594 130.273438 C 671.183594 125.792969 674.820312 122.15625 679.308594 122.15625 C 683.796875 122.15625 687.433594 125.792969 687.433594 130.273438 " fill-opacity="1" fill-rule="nonzero"/><path fill="#ffffff" d="M 660.710938 130.273438 C 660.710938 134.757812 657.074219 138.394531 652.585938 138.394531 C 648.097656 138.394531 644.460938 134.757812 644.460938 130.273438 C 644.460938 125.792969 648.097656 122.15625 652.585938 122.15625 C 657.074219 122.15625 660.710938 125.792969 660.710938 130.273438 " fill-opacity="1" fill-rule="nonzero"/><path fill="#ffffff" d="M 633.988281 130.273438 C 633.988281 134.757812 630.351562 138.394531 625.863281 138.394531 C 621.378906 138.394531 617.738281 134.757812 617.738281 130.273438 C 617.738281 125.792969 621.378906 122.15625 625.863281 122.15625 C 630.351562 122.15625 633.988281 125.792969 633.988281 130.273438 " fill-opacity="1" fill-rule="nonzero"/><path fill="#000000" d="M 324.773438 363.453125 L 698.085938 363.453125 L 698.085938 112.726562 L 324.773438 112.726562 Z M 698.796875 364.878906 L 324.0625 364.878906 C 323.667969 364.878906 323.347656 364.558594 323.347656 364.164062 L 323.347656 112.011719 C 323.347656 111.621094 323.667969 111.300781 324.0625 111.300781 L 698.796875 111.300781 C 699.191406 111.300781 699.511719 111.621094 699.511719 112.011719 L 699.511719 364.164062 C 699.511719 364.558594 699.191406 364.878906 698.796875 364.878906 " fill-opacity="1" fill-rule="nonzero"/><path fill="#fed101" d="M 578.453125 234.234375 C 590.988281 235.792969 600.921875 245.714844 602.480469 258.242188 L 672.953125 258.242188 C 671.175781 206.898438 629.839844 165.59375 578.453125 163.816406 L 578.453125 234.234375 " fill-opacity="1" fill-rule="nonzero"/><path fill="#fda4ff" d="M 633.871094 309.902344 C 644.363281 297.339844 650.886719 281.347656 651.492188 263.851562 L 596.738281 263.851562 C 596.296875 267.378906 595 270.640625 593.0625 273.425781 L 633.871094 309.902344 " fill-opacity="1" fill-rule="nonzero"/><path fill="#fcb503" d="M 561.238281 244.976562 C 564.386719 242.230469 568.34375 240.382812 572.707031 239.839844 L 572.707031 185.125 C 552.175781 185.835938 533.714844 194.667969 520.429688 208.496094 L 561.238281 244.976562 " fill-opacity="1" fill-rule="nonzero"/><path fill="#8c7bff" d="M 589.480469 277.414062 C 585.707031 280.6875 580.78125 282.675781 575.386719 282.675781 C 570.824219 282.675781 566.601562 281.253906 563.117188 278.835938 L 526.609375 319.609375 C 539.824219 330.632812 556.828125 337.269531 575.386719 337.269531 C 596.964844 337.269531 616.4375 328.300781 630.292969 313.894531 L 589.480469 277.414062 " fill-opacity="1" fill-rule="nonzero"/><path fill="#ffffff" d="M 522.617188 316.035156 L 559.128906 275.257812 C 555.855469 271.480469 553.863281 266.558594 553.863281 261.171875 C 553.863281 256.636719 555.269531 252.4375 557.667969 248.972656 L 516.855469 212.488281 C 505.851562 225.683594 499.226562 242.652344 499.226562 261.171875 C 499.226562 282.726562 508.199219 302.1875 522.617188 316.035156 " fill-opacity="1" fill-rule="nonzero"/><path fill="#000000" d="M 516.933594 213.511719 C 505.96875 226.925781 499.941406 243.820312 499.941406 261.171875 C 499.941406 281.621094 507.972656 300.710938 522.582031 315.007812 L 558.183594 275.238281 C 554.933594 271.277344 553.152344 266.308594 553.152344 261.171875 C 553.152344 256.855469 554.386719 252.691406 556.730469 249.089844 Z M 522.617188 316.746094 C 522.433594 316.746094 522.253906 316.675781 522.121094 316.546875 C 506.898438 301.925781 498.515625 282.261719 498.515625 261.171875 C 498.515625 243.242188 504.832031 225.789062 516.308594 212.03125 C 516.429688 211.886719 516.613281 211.792969 516.804688 211.777344 C 516.992188 211.769531 517.1875 211.828125 517.328125 211.957031 L 558.140625 248.441406 C 558.410156 248.679688 558.457031 249.082031 558.25 249.375 C 555.847656 252.855469 554.578125 256.933594 554.578125 261.171875 C 554.578125 266.171875 556.382812 271.007812 559.667969 274.785156 C 559.902344 275.058594 559.898438 275.460938 559.660156 275.730469 L 523.148438 316.511719 C 523.015625 316.65625 522.835938 316.738281 522.640625 316.746094 C 522.632812 316.746094 522.625 316.746094 522.617188 316.746094 " fill-opacity="1" fill-rule="nonzero"/><path fill="#fda4ff" d="M 341.789062 240.152344 C 344.503906 227.484375 357.78125 215.816406 366.703125 217.695312 C 373.945312 219.222656 373.847656 228.734375 380.015625 229.234375 C 388.289062 229.910156 392.863281 213.109375 401.175781 213.640625 C 408.394531 214.101562 409.726562 227.070312 416.191406 227.367188 C 425.171875 227.773438 429.421875 203.082031 440.085938 202.722656 C 448.0625 202.453125 451.070312 216.101562 459.199219 216.445312 C 464.695312 216.683594 472.140625 210.820312 481.726562 187.4375 C 481.726562 207.722656 481.726562 228 481.726562 248.285156 C 434.960938 248.285156 388.199219 248.285156 341.4375 248.285156 C 341.199219 246.308594 341.078125 243.457031 341.789062 240.152344 " fill-opacity="1" fill-rule="nonzero"/><path fill="#000000" d="M 341.25 221.128906 C 340.855469 221.128906 340.539062 220.8125 340.539062 220.417969 L 340.539062 172.867188 C 340.539062 172.476562 340.855469 172.15625 341.25 172.15625 L 405.890625 172.15625 C 406.285156 172.15625 406.601562 172.476562 406.601562 172.867188 C 406.601562 173.261719 406.285156 173.582031 405.890625 173.582031 L 341.964844 173.582031 L 341.964844 220.417969 C 341.964844 220.8125 341.644531 221.128906 341.25 221.128906 " fill-opacity="1" fill-rule="nonzero"/><path fill="#000000" d="M 481.726562 248.992188 L 416.191406 248.992188 C 415.800781 248.992188 415.480469 248.675781 415.480469 248.285156 C 415.480469 247.890625 415.800781 247.570312 416.191406 247.570312 L 481.011719 247.570312 L 481.011719 187.4375 C 481.011719 187.046875 481.332031 186.730469 481.726562 186.730469 C 482.117188 186.730469 482.4375 187.046875 482.4375 187.4375 L 482.4375 248.285156 C 482.4375 248.675781 482.117188 248.992188 481.726562 248.992188 " fill-opacity="1" fill-rule="nonzero"/><path fill="#fed101" d="M 341.25 326.867188 C 341.019531 326.867188 340.796875 326.757812 340.660156 326.554688 C 340.4375 326.226562 340.527344 325.785156 340.851562 325.566406 L 366.164062 308.550781 C 366.472656 308.34375 366.890625 308.410156 367.117188 308.703125 L 377.671875 322.101562 L 404.5 299.984375 C 404.78125 299.753906 405.1875 299.765625 405.449219 300.019531 L 422.941406 316.78125 L 435.058594 305.359375 C 435.316406 305.117188 435.71875 305.101562 435.996094 305.324219 L 445.925781 313.332031 L 460.660156 295.59375 C 460.78125 295.445312 460.960938 295.351562 461.152344 295.335938 C 461.351562 295.320312 461.539062 295.386719 461.683594 295.519531 L 469.980469 302.996094 L 481.191406 290.128906 C 481.445312 289.832031 481.894531 289.804688 482.191406 290.0625 C 482.488281 290.316406 482.519531 290.769531 482.261719 291.0625 L 470.578125 304.476562 C 470.457031 304.621094 470.273438 304.707031 470.082031 304.71875 C 469.894531 304.734375 469.707031 304.667969 469.566406 304.539062 L 461.277344 297.070312 L 446.570312 314.777344 C 446.324219 315.078125 445.878906 315.125 445.574219 314.878906 L 435.585938 306.824219 L 423.421875 318.285156 C 423.148438 318.542969 422.714844 318.539062 422.441406 318.277344 L 404.917969 301.484375 L 378.015625 323.664062 C 377.871094 323.785156 377.679688 323.839844 377.488281 323.820312 C 377.296875 323.800781 377.121094 323.703125 377.003906 323.554688 L 366.40625 310.105469 L 341.648438 326.746094 C 341.523438 326.828125 341.390625 326.867188 341.25 326.867188 " fill-opacity="1" fill-rule="nonzero"/><path fill="#4ada85" d="M 362.34375 323.359375 C 362.175781 323.359375 362.003906 323.296875 361.867188 323.175781 L 340.773438 304.226562 C 340.480469 303.964844 340.460938 303.515625 340.71875 303.222656 C 340.984375 302.929688 341.433594 302.90625 341.726562 303.167969 L 362.375 321.714844 L 390 299.972656 C 390.292969 299.742188 390.71875 299.777344 390.96875 300.058594 L 401.507812 311.828125 L 437.265625 280.933594 C 437.410156 280.808594 437.605469 280.75 437.792969 280.761719 C 437.988281 280.78125 438.160156 280.875 438.285156 281.023438 L 448.109375 293.070312 L 481.242188 262.300781 C 481.53125 262.03125 481.976562 262.050781 482.246094 262.339844 C 482.515625 262.628906 482.5 263.074219 482.210938 263.34375 L 448.519531 294.625 C 448.375 294.761719 448.183594 294.832031 447.984375 294.816406 C 447.785156 294.804688 447.605469 294.707031 447.484375 294.554688 L 437.644531 282.492188 L 401.910156 313.359375 C 401.617188 313.613281 401.171875 313.585938 400.914062 313.296875 L 390.355469 301.503906 L 362.789062 323.203125 C 362.660156 323.308594 362.5 323.359375 362.34375 323.359375 " fill-opacity="1" fill-rule="nonzero"/><path fill="#000000" d="M 416.191406 338.949219 L 341.25 338.949219 C 340.855469 338.949219 340.539062 338.632812 340.539062 338.238281 L 340.539062 283.113281 C 340.539062 282.71875 340.855469 282.398438 341.25 282.398438 C 341.644531 282.398438 341.964844 282.71875 341.964844 283.113281 L 341.964844 337.527344 L 416.191406 337.527344 C 416.585938 337.527344 416.90625 337.84375 416.90625 338.238281 C 416.90625 338.632812 416.585938 338.949219 416.191406 338.949219 " fill-opacity="1" fill-rule="nonzero"/><path fill="#000000" d="M 481.726562 321.484375 C 481.332031 321.484375 481.011719 321.167969 481.011719 320.773438 L 481.011719 263.535156 L 400.507812 263.535156 C 400.113281 263.535156 399.792969 263.21875 399.792969 262.824219 C 399.792969 262.429688 400.113281 262.109375 400.507812 262.109375 L 481.726562 262.109375 C 482.117188 262.109375 482.4375 262.429688 482.4375 262.824219 L 482.4375 320.773438 C 482.4375 321.167969 482.117188 321.484375 481.726562 321.484375 " fill-opacity="1" fill-rule="nonzero"/><path fill="#fda4ff" d="M 296.75 590.664062 L 254.636719 590.664062 L 269.609375 500.808594 L 311.722656 500.808594 L 296.75 590.664062 " fill-opacity="1" fill-rule="nonzero"/><path fill="#000000" d="M 303.742188 548.703125 L 258.164062 569.476562 L 269.609375 500.808594 L 311.722656 500.808594 L 303.742188 548.703125 " fill-opacity="1" fill-rule="nonzero"/><path fill="#ffffff" d="M 369.898438 605.632812 L 249.394531 605.632812 L 254.636719 569.476562 L 302.175781 569.476562 L 334.734375 579.921875 L 341.496094 580.441406 C 357.601562 581.683594 369.898438 592.589844 369.898438 605.632812 " fill-opacity="1" fill-rule="nonzero"/><path fill="#000000" d="M 250.21875 604.917969 L 369.175781 604.917969 C 368.742188 592.503906 356.964844 582.347656 341.441406 581.152344 L 334.679688 580.632812 C 334.625 580.628906 334.570312 580.617188 334.515625 580.601562 L 302.066406 570.191406 L 255.253906 570.191406 Z M 369.898438 606.34375 L 249.394531 606.34375 C 249.191406 606.34375 248.992188 606.253906 248.859375 606.097656 C 248.722656 605.941406 248.664062 605.734375 248.691406 605.53125 L 253.929688 569.378906 C 253.984375 569.023438 254.28125 568.765625 254.636719 568.765625 L 302.175781 568.765625 C 302.253906 568.765625 302.324219 568.773438 302.394531 568.796875 L 334.871094 579.21875 L 341.550781 579.734375 C 358.117188 581.011719 370.613281 592.144531 370.613281 605.632812 C 370.613281 606.023438 370.292969 606.34375 369.898438 606.34375 " fill-opacity="1" fill-rule="nonzero"/><path fill="#ffffff" d="M 373.257812 614.527344 L 245.273438 614.527344 L 245.273438 605.632812 L 372.511719 605.632812 L 373.257812 614.527344 " fill-opacity="1" fill-rule="nonzero"/><path fill="#000000" d="M 245.988281 613.8125 L 372.488281 613.8125 L 371.855469 606.34375 L 245.988281 606.34375 Z M 373.257812 615.238281 L 245.273438 615.238281 C 244.882812 615.238281 244.5625 614.917969 244.5625 614.527344 L 244.5625 605.632812 C 244.5625 605.238281 244.882812 604.917969 245.273438 604.917969 L 372.511719 604.917969 C 372.878906 604.917969 373.191406 605.203125 373.21875 605.574219 L 373.96875 614.464844 C 373.988281 614.664062 373.917969 614.859375 373.785156 615.007812 C 373.652344 615.152344 373.460938 615.238281 373.257812 615.238281 " fill-opacity="1" fill-rule="nonzero"/><path fill="#ffffff" d="M 327.082031 577.464844 L 319.316406 586.523438 L 327.082031 577.464844 " fill-opacity="1" fill-rule="nonzero"/><path fill="#000000" d="M 319.3125 587.234375 C 319.148438 587.234375 318.984375 587.175781 318.851562 587.066406 C 318.550781 586.808594 318.515625 586.355469 318.773438 586.058594 L 326.542969 577.003906 C 326.800781 576.707031 327.246094 576.671875 327.546875 576.925781 C 327.847656 577.183594 327.878906 577.628906 327.621094 577.933594 L 319.855469 586.988281 C 319.714844 587.152344 319.515625 587.234375 319.3125 587.234375 " fill-opacity="1" fill-rule="nonzero"/><path fill="#ffffff" d="M 319.597656 575.222656 L 311.828125 584.28125 L 319.597656 575.222656 " fill-opacity="1" fill-rule="nonzero"/><path fill="#000000" d="M 311.828125 584.992188 C 311.664062 584.992188 311.5 584.9375 311.363281 584.820312 C 311.066406 584.5625 311.03125 584.113281 311.289062 583.816406 L 319.054688 574.761719 C 319.3125 574.464844 319.761719 574.429688 320.058594 574.683594 C 320.359375 574.941406 320.394531 575.390625 320.136719 575.691406 L 312.371094 584.746094 C 312.226562 584.910156 312.027344 584.992188 311.828125 584.992188 " fill-opacity="1" fill-rule="nonzero"/><path fill="#ffffff" d="M 312.109375 572.984375 L 304.34375 582.035156 L 312.109375 572.984375 " fill-opacity="1" fill-rule="nonzero"/><path fill="#000000" d="M 304.34375 582.75 C 304.179688 582.75 304.011719 582.691406 303.878906 582.578125 C 303.578125 582.320312 303.546875 581.871094 303.800781 581.574219 L 311.570312 572.519531 C 311.828125 572.222656 312.277344 572.1875 312.574219 572.441406 C 312.875 572.699219 312.90625 573.148438 312.652344 573.445312 L 304.882812 582.503906 C 304.742188 582.664062 304.542969 582.75 304.34375 582.75 " fill-opacity="1" fill-rule="nonzero"/><path fill="#fda4ff" d="M 183.714844 590.664062 L 141.597656 590.664062 L 156.570312 500.808594 L 198.683594 500.808594 L 183.714844 590.664062 " fill-opacity="1" fill-rule="nonzero"/><path fill="#000000" d="M 190.703125 548.703125 L 145.128906 569.476562 L 156.570312 500.808594 L 198.683594 500.808594 L 190.703125 548.703125 " fill-opacity="1" fill-rule="nonzero"/><path fill="#ffffff" d="M 257.613281 605.632812 L 137.105469 605.632812 L 142.347656 569.476562 L 189.886719 569.476562 L 222.445312 579.921875 L 229.207031 580.441406 C 245.3125 581.683594 257.613281 592.589844 257.613281 605.632812 " fill-opacity="1" fill-rule="nonzero"/><path fill="#000000" d="M 137.929688 604.917969 L 256.886719 604.917969 C 256.449219 592.503906 244.675781 582.347656 229.152344 581.152344 L 222.390625 580.632812 C 222.335938 580.628906 222.28125 580.617188 222.226562 580.601562 L 189.777344 570.191406 L 142.964844 570.191406 Z M 257.609375 606.34375 L 137.105469 606.34375 C 136.902344 606.34375 136.703125 606.253906 136.570312 606.097656 C 136.433594 605.941406 136.371094 605.734375 136.402344 605.53125 L 141.644531 569.378906 C 141.691406 569.023438 141.992188 568.765625 142.347656 568.765625 L 189.886719 568.765625 C 189.960938 568.765625 190.035156 568.773438 190.105469 568.796875 L 222.582031 579.21875 L 229.261719 579.734375 C 245.828125 581.011719 258.324219 592.144531 258.324219 605.632812 C 258.324219 606.023438 258.003906 606.34375 257.609375 606.34375 " fill-opacity="1" fill-rule="nonzero"/><path fill="#ffffff" d="M 260.972656 614.527344 L 132.984375 614.527344 L 132.984375 605.632812 L 260.222656 605.632812 L 260.972656 614.527344 " fill-opacity="1" fill-rule="nonzero"/><path fill="#000000" d="M 133.699219 613.8125 L 260.195312 613.8125 L 259.566406 606.34375 L 133.699219 606.34375 Z M 260.972656 615.238281 L 132.984375 615.238281 C 132.59375 615.238281 132.273438 614.917969 132.273438 614.527344 L 132.273438 605.632812 C 132.273438 605.238281 132.59375 604.917969 132.984375 604.917969 L 260.222656 604.917969 C 260.59375 604.917969 260.902344 605.203125 260.933594 605.574219 L 261.679688 614.464844 C 261.695312 614.664062 261.628906 614.859375 261.496094 615.007812 C 261.359375 615.152344 261.171875 615.238281 260.972656 615.238281 " fill-opacity="1" fill-rule="nonzero"/><path fill="#ffffff" d="M 214.792969 577.464844 L 207.023438 586.523438 L 214.792969 577.464844 " fill-opacity="1" fill-rule="nonzero"/><path fill="#000000" d="M 207.023438 587.234375 C 206.859375 587.234375 206.695312 587.175781 206.5625 587.066406 C 206.261719 586.808594 206.226562 586.355469 206.484375 586.058594 L 214.253906 577.003906 C 214.507812 576.707031 214.957031 576.671875 215.257812 576.925781 C 215.554688 577.183594 215.589844 577.628906 215.335938 577.933594 L 207.566406 586.988281 C 207.425781 587.152344 207.226562 587.234375 207.023438 587.234375 " fill-opacity="1" fill-rule="nonzero"/><path fill="#ffffff" d="M 207.308594 575.222656 L 199.539062 584.28125 L 207.308594 575.222656 " fill-opacity="1" fill-rule="nonzero"/><path fill="#000000" d="M 199.539062 584.992188 C 199.375 584.992188 199.210938 584.9375 199.074219 584.820312 C 198.777344 584.5625 198.742188 584.113281 198.996094 583.816406 L 206.765625 574.761719 C 207.023438 574.464844 207.472656 574.429688 207.769531 574.683594 C 208.070312 574.941406 208.105469 575.390625 207.847656 575.691406 L 200.078125 584.746094 C 199.9375 584.910156 199.738281 584.992188 199.539062 584.992188 " fill-opacity="1" fill-rule="nonzero"/><path fill="#ffffff" d="M 199.820312 572.984375 L 192.054688 582.035156 L 199.820312 572.984375 " fill-opacity="1" fill-rule="nonzero"/><path fill="#000000" d="M 192.050781 582.75 C 191.886719 582.75 191.722656 582.691406 191.589844 582.578125 C 191.289062 582.320312 191.257812 581.871094 191.511719 581.574219 L 199.28125 572.519531 C 199.535156 572.222656 199.988281 572.1875 200.285156 572.441406 C 200.582031 572.699219 200.617188 573.148438 200.363281 573.445312 L 192.59375 582.503906 C 192.453125 582.664062 192.253906 582.75 192.050781 582.75 " fill-opacity="1" fill-rule="nonzero"/><path fill="#fed101" d="M 332.324219 548.703125 L 228.574219 548.703125 L 247.027344 411.492188 L 198.628906 256.105469 L 257.464844 256.105469 L 299.609375 353.71875 C 312.164062 382.796875 320.023438 413.671875 322.894531 445.207031 L 332.324219 548.703125 " fill-opacity="1" fill-rule="nonzero"/><path fill="#000000" d="M 260.972656 413.140625 L 223.019531 314.9375 L 225.921875 343.734375 L 247.027344 411.492188 L 228.574219 548.703125 L 246.183594 548.703125 L 260.972656 413.140625 " fill-opacity="1" fill-rule="nonzero"/><g clip-path="url(#70ca8bc915)"><path fill="#fed101" d="M 212.546875 548.703125 L 108.796875 548.703125 L 183.65625 256.105469 L 235.003906 256.105469 L 212.546875 548.703125 " fill-opacity="1" fill-rule="nonzero"/></g><g clip-path="url(#f80c6f78f0)"><path fill="#000000" d="M 109.714844 547.992188 L 211.886719 547.992188 L 234.238281 256.820312 L 184.210938 256.820312 Z M 212.546875 549.417969 L 108.796875 549.417969 C 108.578125 549.417969 108.371094 549.316406 108.234375 549.140625 C 108.101562 548.96875 108.054688 548.742188 108.105469 548.53125 L 182.964844 255.929688 C 183.046875 255.613281 183.332031 255.394531 183.65625 255.394531 L 235.003906 255.394531 C 235.203125 255.394531 235.394531 255.476562 235.527344 255.625 C 235.664062 255.769531 235.730469 255.960938 235.714844 256.160156 L 213.257812 548.757812 C 213.230469 549.128906 212.921875 549.417969 212.546875 549.417969 " fill-opacity="1" fill-rule="nonzero"/></g><path fill="#ffffff" d="M 132.984375 549.417969 C 132.933594 549.417969 132.882812 549.410156 132.828125 549.398438 C 132.445312 549.316406 132.203125 548.933594 132.289062 548.550781 L 197.933594 255.949219 C 198.019531 255.566406 198.402344 255.324219 198.785156 255.410156 C 199.167969 255.5 199.410156 255.878906 199.324219 256.261719 L 133.679688 548.859375 C 133.605469 549.191406 133.3125 549.417969 132.984375 549.417969 " fill-opacity="1" fill-rule="nonzero"/><path fill="#ffffff" d="M 140.472656 549.417969 C 140.421875 549.417969 140.367188 549.410156 140.316406 549.398438 C 139.929688 549.316406 139.691406 548.933594 139.777344 548.550781 L 205.417969 255.949219 C 205.503906 255.566406 205.886719 255.324219 206.269531 255.410156 C 206.65625 255.5 206.894531 255.878906 206.808594 256.261719 L 141.167969 548.859375 C 141.09375 549.191406 140.796875 549.417969 140.472656 549.417969 " fill-opacity="1" fill-rule="nonzero"/><path fill="#000000" d="M 238 139.4375 C 238 147.789062 231.21875 154.5625 222.855469 154.5625 C 214.488281 154.5625 207.707031 147.789062 207.707031 139.4375 C 207.707031 131.085938 214.488281 124.3125 222.855469 124.3125 C 231.21875 124.3125 238 131.085938 238 139.4375 " fill-opacity="1" fill-rule="nonzero"/><path fill="#fda4ff" d="M 213.511719 177.910156 L 230.503906 177.910156 L 230.503906 152.039062 L 213.511719 152.039062 L 213.511719 177.910156 " fill-opacity="1" fill-rule="nonzero"/><path fill="#000000" d="M 213.511719 158.472656 L 213.511719 152.039062 L 230.503906 152.039062 L 230.503906 166.234375 C 228.96875 166.539062 225.914062 166.925781 222.402344 165.769531 C 216.910156 163.964844 214.214844 159.671875 213.511719 158.472656 " fill-opacity="1" fill-rule="nonzero"/><path fill="#fda4ff" d="M 234.757812 135.90625 L 234.503906 135.90625 L 234.503906 142.3125 L 214.082031 142.3125 L 214.082031 135.90625 L 213.863281 135.90625 C 211.859375 138.527344 210.644531 141.914062 210.644531 145.613281 C 210.644531 153.941406 216.761719 160.695312 224.308594 160.695312 C 231.855469 160.695312 237.972656 153.941406 237.972656 145.613281 C 237.972656 141.914062 236.761719 138.527344 234.757812 135.90625 " fill-opacity="1" fill-rule="nonzero"/><path fill="#ffffff" d="M 218.371094 152.234375 C 219.691406 153.445312 221.390625 154.257812 223.3125 154.453125 C 227.589844 154.886719 231.445312 152.113281 232.507812 148.089844 L 218.371094 152.234375 " fill-opacity="1" fill-rule="nonzero"/><path fill="#000000" d="M 205.945312 112.625 C 188.785156 107.089844 167.375 125.757812 158.125 154.324219 C 155.800781 161.515625 154.46875 168.648438 154.050781 175.386719 L 165.863281 175.386719 C 166.367188 173.367188 166.945312 171.339844 167.601562 169.300781 C 176.847656 140.734375 198.257812 122.066406 215.421875 127.601562 C 217.832031 128.382812 220.035156 129.597656 222.007812 131.191406 C 219.050781 121.886719 213.558594 115.082031 205.945312 112.625 " fill-opacity="1" fill-rule="nonzero"/><path fill="#fda4ff" d="M 346.03125 148.050781 C 346.03125 148.050781 345.4375 140.023438 354.34375 136.09375 C 356.40625 135.183594 360.8125 133.597656 364.550781 132.375 C 368.796875 130.980469 372.933594 128.914062 376.671875 126.464844 L 380.910156 123.695312 C 383.066406 122.289062 386.84375 122.757812 388.347656 124.847656 L 388.667969 125.292969 C 390.191406 127.414062 388.589844 130.605469 386.503906 132.171875 L 373.933594 141.960938 L 379.445312 146.3125 C 382.886719 148.6875 386.925781 150.0625 391.105469 150.277344 L 407.972656 151.484375 C 410.773438 151.683594 413 153.914062 413.1875 156.714844 L 413.21875 157.191406 L 422.324219 156.941406 C 425.003906 156.957031 428.160156 158.988281 428.269531 161.664062 C 428.378906 164.292969 426.492188 166.550781 422.859375 166.929688 L 366.992188 173.539062 L 352.824219 200.617188 L 337.132812 231.796875 C 337.132812 231.796875 333.265625 239.378906 331.28125 241.253906 C 323.769531 248.328125 317.226562 247.019531 313.40625 245.859375 C 297.109375 240.933594 246.378906 208.90625 246.378906 208.90625 L 272.382812 186.449219 L 311.339844 210.035156 L 323.429688 189.140625 L 346.03125 148.050781 " fill-opacity="1" fill-rule="nonzero"/><path fill="#000000" d="M 345.558594 148.324219 L 345.566406 148.324219 Z M 251.78125 211.710938 C 257.652344 215.082031 291.746094 234.632812 307.730469 243.355469 C 320.113281 250.117188 329.601562 243.828125 334.355469 235.691406 C 335.441406 233.828125 337.195312 230.339844 338.480469 227.796875 L 339.253906 226.269531 C 345.914062 213.140625 365.683594 173.882812 365.882812 173.488281 C 365.988281 173.273438 366.199219 173.128906 366.441406 173.101562 L 423.515625 166.78125 C 425.75 166.535156 427.433594 164.582031 427.335938 162.335938 C 427.242188 160.039062 425.359375 158.230469 423.054688 158.214844 L 413.972656 158.464844 C 413.589844 158.488281 413.265625 158.183594 413.242188 157.800781 L 413.207031 157.324219 C 413.046875 154.890625 411.089844 152.925781 408.652344 152.753906 L 391.789062 151.546875 C 387.488281 151.328125 383.328125 149.914062 379.773438 147.457031 L 373.054688 142.816406 C 372.867188 142.6875 372.753906 142.476562 372.75 142.246094 C 372.746094 142.015625 372.851562 141.800781 373.035156 141.664062 L 386.472656 131.558594 C 388.234375 130.234375 388.621094 127.703125 387.332031 125.914062 L 387.011719 125.46875 C 385.726562 123.679688 383.277344 123.226562 381.441406 124.433594 L 377.152344 127.242188 C 373.355469 129.726562 369.25 131.703125 364.949219 133.105469 C 359.960938 134.742188 356.449219 135.988281 354.800781 136.71875 C 346.414062 140.417969 346.269531 148.25 346.269531 148.328125 C 346.269531 148.445312 346.242188 148.558594 346.1875 148.660156 C 346.023438 148.960938 329.800781 178.953125 324.136719 188.789062 C 320.996094 194.25 311.484375 210.667969 311.484375 210.667969 C 311.386719 210.832031 311.226562 210.953125 311.042969 211 C 310.855469 211.046875 310.65625 211.015625 310.496094 210.917969 L 276.683594 190.054688 Z M 317.84375 247.613281 C 314.535156 247.613281 310.914062 246.71875 307.046875 244.609375 C 289.597656 235.082031 250.597656 212.671875 250.203125 212.445312 C 250.003906 212.332031 249.871094 212.128906 249.851562 211.902344 C 249.828125 211.671875 249.917969 211.445312 250.09375 211.292969 L 276.144531 188.636719 C 276.378906 188.433594 276.71875 188.40625 276.984375 188.570312 L 310.621094 209.320312 C 312.394531 206.25 320.128906 192.898438 322.902344 188.078125 C 328.359375 178.605469 343.628906 150.394531 344.855469 148.128906 C 344.9375 146.820312 345.765625 139.148438 354.226562 135.417969 C 355.941406 134.660156 359.398438 133.425781 364.503906 131.757812 C 368.6875 130.386719 372.679688 128.464844 376.371094 126.046875 L 380.65625 123.242188 C 383.136719 121.617188 386.4375 122.226562 388.171875 124.636719 L 388.492188 125.082031 C 390.226562 127.496094 389.707031 130.910156 387.332031 132.695312 L 374.679688 142.207031 L 380.585938 146.285156 C 383.921875 148.589844 387.824219 149.917969 391.875 150.128906 L 408.757812 151.335938 C 411.828125 151.554688 414.3125 153.984375 414.617188 157.023438 L 423.039062 156.792969 C 426.128906 156.808594 428.632812 159.21875 428.761719 162.28125 C 428.886719 165.269531 426.648438 167.867188 423.671875 168.199219 L 366.980469 174.476562 C 365.003906 178.398438 346.851562 214.441406 340.523438 226.910156 L 339.75 228.4375 C 338.460938 231 336.695312 234.503906 335.585938 236.410156 C 332.144531 242.304688 325.917969 247.613281 317.84375 247.613281 " fill-opacity="1" fill-rule="nonzero"/><path fill="#000000" d="M 369.5625 145.839844 C 369.34375 145.839844 369.132812 145.738281 368.992188 145.550781 C 368.757812 145.234375 368.824219 144.789062 369.136719 144.554688 L 373.238281 141.515625 C 373.554688 141.28125 374 141.347656 374.234375 141.664062 C 374.46875 141.980469 374.402344 142.425781 374.085938 142.660156 L 369.988281 145.695312 C 369.859375 145.792969 369.710938 145.839844 369.5625 145.839844 " fill-opacity="1" fill-rule="nonzero"/><path fill="#fda4ff" d="M 387.988281 155.988281 L 392.871094 155.96875 C 395.976562 155.949219 399.007812 155.035156 401.601562 153.332031 L 415.796875 144.015625 C 417.84375 142.675781 420.585938 143.222656 421.957031 145.242188 C 423.265625 147.164062 422.878906 149.765625 421.066406 151.222656 L 406.253906 163.140625 C 405.058594 164.109375 403.679688 164.824219 402.199219 165.242188 L 394.234375 167.515625 L 387.988281 155.988281 " fill-opacity="1" fill-rule="nonzero"/><path fill="#000000" d="M 402.199219 165.957031 C 401.890625 165.957031 401.605469 165.753906 401.515625 165.4375 C 401.40625 165.0625 401.628906 164.667969 402.007812 164.558594 C 403.398438 164.160156 404.679688 163.496094 405.808594 162.589844 L 420.621094 150.667969 C 422.128906 149.449219 422.457031 147.246094 421.371094 145.636719 C 420.21875 143.953125 417.894531 143.492188 416.1875 144.609375 L 405.320312 151.8125 C 404.992188 152.027344 404.550781 151.941406 404.332031 151.613281 C 404.113281 151.285156 404.203125 150.84375 404.53125 150.625 L 415.402344 143.421875 C 417.761719 141.875 420.964844 142.511719 422.546875 144.835938 C 424.050781 147.050781 423.597656 150.097656 421.515625 151.773438 L 406.703125 163.699219 C 405.421875 164.726562 403.976562 165.476562 402.398438 165.925781 C 402.332031 165.945312 402.265625 165.957031 402.199219 165.957031 " fill-opacity="1" fill-rule="nonzero"/><path fill="#fda4ff" d="M 375.332031 158.613281 L 380.144531 157.785156 C 383.203125 157.257812 386.039062 155.859375 388.316406 153.75 L 400.769531 142.214844 C 402.5625 140.558594 405.359375 140.640625 407.046875 142.40625 C 408.652344 144.085938 408.703125 146.714844 407.160156 148.453125 L 394.527344 162.65625 C 393.507812 163.804688 392.261719 164.734375 390.875 165.398438 L 383.398438 168.953125 L 375.332031 158.613281 " fill-opacity="1" fill-rule="nonzero"/><path fill="#000000" d="M 387.949219 168.398438 C 387.683594 168.398438 387.425781 168.246094 387.308594 167.988281 C 387.140625 167.632812 387.292969 167.207031 387.648438 167.042969 C 390.824219 165.558594 393.691406 163.359375 395.945312 160.675781 L 406.613281 147.992188 C 407.914062 146.53125 407.875 144.296875 406.53125 142.898438 C 405.117188 141.421875 402.753906 141.351562 401.253906 142.738281 L 388.796875 154.269531 C 386.417969 156.476562 383.46875 157.933594 380.261719 158.484375 L 370.242188 159.449219 C 369.847656 159.480469 369.507812 159.199219 369.46875 158.808594 C 369.429688 158.417969 369.714844 158.070312 370.105469 158.03125 L 380.074219 157.074219 C 382.949219 156.582031 385.652344 155.246094 387.832031 153.226562 L 400.285156 141.695312 C 402.351562 139.78125 405.613281 139.882812 407.558594 141.914062 C 409.414062 143.84375 409.46875 146.929688 407.691406 148.925781 L 397.039062 161.59375 C 394.652344 164.429688 391.613281 166.761719 388.253906 168.332031 C 388.15625 168.375 388.054688 168.398438 387.949219 168.398438 " fill-opacity="1" fill-rule="nonzero"/><path fill="#000000" d="M 261.191406 216.480469 L 279.902344 228.371094 C 282.183594 221.472656 275.359375 218.527344 278.628906 210.53125 C 282.921875 200.019531 278.550781 189.4375 278.550781 189.4375 L 261.191406 216.480469 " fill-opacity="1" fill-rule="nonzero"/><path fill="#fda4ff" d="M 154.160156 277.605469 L 126.714844 249.050781 L 160.707031 190.300781 L 201.222656 196.210938 L 154.160156 277.605469 " fill-opacity="1" fill-rule="nonzero"/><path fill="#000000" d="M 126.714844 249.761719 C 126.59375 249.761719 126.472656 249.730469 126.359375 249.664062 C 126.019531 249.46875 125.902344 249.035156 126.097656 248.691406 L 160.09375 189.945312 C 160.289062 189.605469 160.726562 189.492188 161.0625 189.6875 C 161.40625 189.882812 161.523438 190.316406 161.324219 190.660156 L 127.332031 249.402344 C 127.199219 249.632812 126.960938 249.761719 126.714844 249.761719 " fill-opacity="1" fill-rule="nonzero"/><path fill="#000000" d="M 174.886719 218.332031 L 152.398438 204.664062 L 160.707031 190.300781 L 201.222656 196.210938 L 174.886719 218.332031 " fill-opacity="1" fill-rule="nonzero"/><path fill="#8c7bff" d="M 281.800781 188.402344 L 279.964844 187.15625 C 267.605469 178.808594 253.023438 174.34375 238.101562 174.34375 L 204.304688 174.34375 C 187.535156 174.34375 171.253906 179.980469 158.078125 190.339844 L 174.886719 218.332031 L 165.75 257.570312 L 265.910156 257.570312 L 264.617188 229.523438 C 268.230469 227.191406 270.628906 223.140625 270.628906 218.523438 C 270.628906 215.386719 269.519531 212.507812 267.679688 210.253906 L 281.800781 188.402344 " fill-opacity="1" fill-rule="nonzero"/><path fill="#000000" d="M 262.621094 231.304688 C 262.339844 231.304688 262.078125 231.144531 261.960938 230.867188 C 261.808594 230.503906 261.980469 230.089844 262.339844 229.9375 C 266.945312 227.992188 269.917969 223.511719 269.917969 218.523438 C 269.917969 213.445312 266.867188 208.933594 262.152344 207.035156 C 261.914062 206.9375 261.746094 206.726562 261.710938 206.472656 L 260.484375 197.683594 C 260.433594 197.292969 260.703125 196.933594 261.09375 196.878906 C 261.476562 196.824219 261.84375 197.09375 261.898438 197.488281 L 263.066406 205.875 C 268.109375 208.078125 271.339844 213 271.339844 218.523438 C 271.339844 224.085938 268.027344 229.082031 262.894531 231.25 C 262.804688 231.285156 262.710938 231.304688 262.621094 231.304688 " fill-opacity="1" fill-rule="nonzero"/><path fill="#8c7bff" d="M 233.53125 179.910156 L 210.644531 179.910156 L 210.644531 170.898438 L 233.53125 170.898438 L 233.53125 179.910156 " fill-opacity="1" fill-rule="nonzero"/><path fill="#000000" d="M 267.335938 264.101562 C 277.308594 288.84375 265.304688 316.96875 240.523438 326.921875 C 215.746094 336.878906 187.578125 324.894531 177.605469 300.152344 C 167.636719 275.414062 179.640625 247.289062 204.417969 237.335938 C 229.199219 227.378906 257.367188 239.363281 267.335938 264.101562 " fill-opacity="1" fill-rule="nonzero"/><path fill="#ffffff" d="M 262.273438 264.140625 C 272.246094 288.882812 260.242188 317.011719 235.464844 326.964844 C 210.683594 336.917969 182.515625 324.933594 172.546875 300.195312 C 162.574219 275.457031 174.578125 247.332031 199.359375 237.375 C 224.136719 227.421875 252.304688 239.40625 262.273438 264.140625 " fill-opacity="1" fill-rule="nonzero"/><path fill="#000000" d="M 217.351562 234.59375 C 211.4375 234.59375 205.433594 235.699219 199.621094 238.03125 C 187.816406 242.777344 178.566406 251.828125 173.574219 263.519531 C 168.585938 275.210938 168.457031 288.140625 173.207031 299.925781 C 183.015625 324.265625 210.824219 336.09375 235.199219 326.300781 C 247.003906 321.558594 256.253906 312.511719 261.246094 300.820312 C 266.234375 289.128906 266.363281 276.199219 261.613281 264.410156 C 254.144531 245.878906 236.230469 234.59375 217.351562 234.59375 Z M 217.472656 331.167969 C 198.023438 331.167969 179.578125 319.546875 171.882812 300.460938 C 166.992188 288.316406 167.125 275 172.265625 262.960938 C 177.402344 250.917969 186.929688 241.597656 199.089844 236.714844 C 224.195312 226.628906 252.832031 238.816406 262.9375 263.878906 C 267.828125 276.019531 267.695312 289.339844 262.554688 301.378906 C 257.414062 313.417969 247.890625 322.738281 235.730469 327.625 C 229.746094 330.03125 223.558594 331.167969 217.472656 331.167969 " fill-opacity="1" fill-rule="nonzero"/><path fill="#fed101" d="M 225.984375 310.519531 L 223.347656 304.195312 C 218.902344 305.960938 214.167969 306.671875 211.085938 306.324219 L 209.789062 297.652344 C 213.164062 297.949219 217.589844 297.617188 221.820312 295.707031 C 225.53125 294.035156 227.460938 291.425781 226.351562 288.761719 C 225.296875 286.234375 222.546875 285.574219 217.035156 286.082031 C 209.066406 286.828125 202.929688 285.640625 200.234375 279.183594 C 197.792969 273.324219 199.914062 266.910156 206.300781 262.371094 L 203.664062 256.046875 L 210.042969 253.167969 L 212.484375 259.027344 L 212.488281 259.027344 C 216.933594 257.261719 220.25 256.871094 222.84375 256.96875 L 224.09375 265.339844 C 222.09375 265.375 218.460938 265.191406 213.773438 267.304688 C 209.539062 269.214844 208.949219 271.695312 209.726562 273.558594 C 210.640625 275.757812 213.503906 276.128906 219.925781 275.761719 C 228.839844 275.066406 233.492188 277.316406 235.988281 283.308594 C 238.460938 289.234375 236.46875 296.144531 229.535156 300.851562 L 232.363281 307.644531 L 225.984375 310.519531 " fill-opacity="1" fill-rule="nonzero"/><path fill="#000000" d="M 216.71875 336.773438 C 216.554688 336.773438 216.390625 336.71875 216.257812 336.605469 L 198.285156 321.378906 C 198.070312 321.199219 197.984375 320.902344 198.0625 320.636719 L 206.488281 292.179688 C 206.597656 291.800781 206.996094 291.585938 207.375 291.695312 C 207.75 291.808594 207.964844 292.203125 207.855469 292.582031 L 199.5625 320.59375 L 216.71875 335.128906 L 242.507812 313.359375 C 242.8125 313.105469 243.257812 313.144531 243.511719 313.445312 C 243.765625 313.746094 243.730469 314.195312 243.429688 314.445312 L 217.179688 336.605469 C 217.046875 336.71875 216.882812 336.773438 216.71875 336.773438 " fill-opacity="1" fill-rule="nonzero"/><path fill="#fda4ff" d="M 209.9375 292.453125 L 198.746094 320.835938 L 135.417969 282.773438 C 123.785156 275.785156 119.914062 260.777344 126.714844 249.050781 L 135.574219 233.773438 L 209.9375 292.453125 " fill-opacity="1" fill-rule="nonzero"/><path fill="#fda4ff" d="M 248.121094 310.457031 L 247.707031 309.902344 L 245.394531 306.847656 L 244.773438 306.027344 L 244.726562 306.003906 C 240.984375 301.460938 235.792969 298.320312 230.003906 297.117188 L 207.171875 292.382812 L 198.746094 320.835938 L 216.71875 336.0625 L 242.96875 313.902344 L 246.53125 318.796875 L 247.078125 318.371094 C 249.535156 316.457031 249.996094 312.933594 248.121094 310.457031 " fill-opacity="1" fill-rule="nonzero"/><path fill="#fda4ff" d="M 244.402344 329.324219 L 229.109375 309.097656 L 235.800781 304.054688 L 251.089844 324.273438 C 252.425781 326.042969 252.074219 328.5625 250.304688 329.902344 L 250.03125 330.109375 C 248.257812 331.441406 245.738281 331.089844 244.402344 329.324219 " fill-opacity="1" fill-rule="nonzero"/><path fill="#fda4ff" d="M 240.007812 337.40625 L 223.914062 316.121094 L 230.605469 311.078125 L 246.695312 332.355469 C 248.042969 334.136719 247.691406 336.671875 245.90625 338.019531 L 245.671875 338.191406 C 243.890625 339.539062 241.355469 339.183594 240.007812 337.40625 " fill-opacity="1" fill-rule="nonzero"/><path fill="#fda4ff" d="M 226.605469 347.460938 L 210.769531 326.519531 L 217.460938 321.476562 L 233.292969 342.414062 C 234.652344 344.210938 234.296875 346.769531 232.496094 348.128906 L 232.320312 348.257812 C 230.523438 349.613281 227.964844 349.257812 226.605469 347.460938 " fill-opacity="1" fill-rule="nonzero"/><path fill="#fda4ff" d="M 211.335938 337.644531 L 198.851562 321.007812 L 205.574219 315.9375 L 226.757812 344.082031 L 218.988281 342.476562 C 215.933594 341.847656 213.214844 340.128906 211.335938 337.644531 " fill-opacity="1" fill-rule="nonzero"/><path fill="#fda4ff" d="M 238.132812 341.488281 L 237.769531 341.761719 C 236.019531 343.082031 233.347656 342.488281 231.800781 340.4375 L 216.328125 319.980469 L 223.019531 314.9375 L 238.488281 335.394531 C 240.039062 337.445312 239.878906 340.171875 238.132812 341.488281 " fill-opacity="1" fill-rule="nonzero"/><path fill="#fda4ff" d="M 200.285156 322.246094 L 171.042969 302.453125 L 195.691406 282.148438 L 226.289062 302.640625 L 200.285156 322.246094 " fill-opacity="1" fill-rule="nonzero"/><path fill="#000000" d="M 243.242188 339.71875 C 241.800781 339.71875 240.375 339.066406 239.441406 337.832031 L 234.007812 330.652344 C 233.773438 330.335938 233.832031 329.890625 234.148438 329.652344 C 234.460938 329.417969 234.910156 329.476562 235.144531 329.792969 L 240.578125 336.972656 C 241.683594 338.4375 243.777344 338.730469 245.246094 337.625 L 245.476562 337.449219 C 246.1875 336.914062 246.648438 336.132812 246.773438 335.253906 C 246.894531 334.371094 246.667969 333.496094 246.128906 332.789062 L 239.960938 324.632812 C 239.722656 324.316406 239.789062 323.871094 240.101562 323.632812 C 240.414062 323.398438 240.863281 323.457031 241.097656 323.773438 L 247.265625 331.929688 C 248.035156 332.941406 248.359375 334.195312 248.183594 335.449219 C 248.007812 336.707031 247.351562 337.820312 246.335938 338.585938 L 246.105469 338.757812 C 245.25 339.40625 244.242188 339.71875 243.242188 339.71875 " fill-opacity="1" fill-rule="nonzero"/><path fill="#000000" d="M 235.386719 343.273438 C 233.96875 343.273438 232.566406 342.632812 231.648438 341.417969 L 226.523438 334.640625 C 226.285156 334.328125 226.347656 333.882812 226.660156 333.644531 C 226.976562 333.40625 227.421875 333.46875 227.660156 333.78125 L 232.785156 340.5625 C 233.867188 341.988281 235.910156 342.273438 237.339844 341.195312 L 237.703125 340.921875 C 238.398438 340.398438 238.84375 339.636719 238.964844 338.777344 C 239.082031 337.921875 238.863281 337.066406 238.339844 336.375 L 233.390625 329.832031 C 233.15625 329.519531 233.21875 329.074219 233.53125 328.839844 C 233.847656 328.597656 234.292969 328.664062 234.53125 328.976562 L 239.476562 335.515625 C 240.226562 336.511719 240.546875 337.742188 240.375 338.976562 C 240.203125 340.210938 239.558594 341.304688 238.5625 342.058594 L 238.199219 342.332031 C 237.355469 342.964844 236.367188 343.273438 235.386719 343.273438 " fill-opacity="1" fill-rule="nonzero"/><path fill="#000000" d="M 247.613281 331.625 C 246.179688 331.625 244.761719 330.976562 243.832031 329.75 L 238.867188 323.183594 C 238.628906 322.871094 238.691406 322.425781 239.007812 322.1875 C 239.320312 321.949219 239.765625 322.011719 240.003906 322.324219 L 244.96875 328.890625 C 246.066406 330.34375 248.148438 330.632812 249.601562 329.535156 L 249.875 329.332031 C 250.582031 328.800781 251.035156 328.023438 251.15625 327.152344 C 251.28125 326.277344 251.054688 325.410156 250.523438 324.707031 L 236.640625 306.351562 C 236.40625 306.035156 236.46875 305.589844 236.78125 305.351562 C 237.097656 305.117188 237.542969 305.175781 237.777344 305.492188 L 251.660156 323.847656 C 252.421875 324.855469 252.742188 326.097656 252.570312 327.347656 C 252.394531 328.597656 251.742188 329.707031 250.734375 330.464844 L 250.460938 330.671875 C 249.609375 331.316406 248.609375 331.625 247.613281 331.625 " fill-opacity="1" fill-rule="nonzero"/><path fill="#000000" d="M 229.871094 349.792969 C 228.414062 349.792969 226.976562 349.136719 226.039062 347.890625 L 223.015625 344.039062 L 218.84375 343.175781 C 215.621094 342.511719 212.75 340.695312 210.765625 338.074219 L 198.5625 321.894531 C 198.324219 321.578125 198.390625 321.132812 198.703125 320.894531 C 199.019531 320.660156 199.464844 320.722656 199.699219 321.035156 L 211.902344 337.214844 C 213.679688 339.5625 216.246094 341.183594 219.132812 341.78125 L 223.816406 342.75 L 227.167969 347.023438 C 228.292969 348.511719 230.410156 348.804688 231.894531 347.6875 L 232.070312 347.554688 C 232.785156 347.015625 233.25 346.226562 233.375 345.335938 C 233.5 344.449219 233.269531 343.5625 232.726562 342.847656 L 225.734375 333.597656 C 225.496094 333.28125 225.558594 332.835938 225.871094 332.601562 C 226.1875 332.363281 226.632812 332.425781 226.871094 332.742188 L 233.863281 341.988281 C 234.636719 343.007812 234.964844 344.265625 234.789062 345.535156 C 234.609375 346.800781 233.949219 347.925781 232.925781 348.691406 L 232.75 348.824219 C 231.890625 349.476562 230.875 349.792969 229.871094 349.792969 " fill-opacity="1" fill-rule="nonzero"/><path fill="#000000" d="M 246.886719 319.425781 C 246.675781 319.425781 246.464844 319.332031 246.324219 319.15625 C 246.082031 318.847656 246.140625 318.398438 246.449219 318.15625 C 248.625 316.460938 249.148438 312.996094 247.554688 310.886719 L 244.277344 306.550781 C 244.238281 306.519531 244.203125 306.488281 244.175781 306.457031 C 240.542969 302.046875 235.457031 298.976562 229.859375 297.816406 L 207.027344 293.078125 C 206.640625 292.996094 206.394531 292.621094 206.472656 292.234375 C 206.550781 291.851562 206.929688 291.601562 207.316406 291.683594 L 230.148438 296.421875 C 236.027344 297.640625 241.371094 300.851562 245.207031 305.46875 C 245.257812 305.507812 245.308594 305.550781 245.339844 305.597656 L 248.691406 310.027344 C 250.765625 312.773438 250.128906 317.09375 247.324219 319.277344 C 247.195312 319.378906 247.039062 319.425781 246.886719 319.425781 " fill-opacity="1" fill-rule="nonzero"/><path fill="#000000" d="M 198.746094 321.550781 C 198.621094 321.550781 198.496094 321.515625 198.378906 321.445312 L 135.046875 283.382812 C 123.164062 276.242188 119.148438 260.679688 126.097656 248.691406 L 134.957031 233.414062 C 135.152344 233.074219 135.589844 232.957031 135.929688 233.15625 C 136.269531 233.351562 136.386719 233.789062 136.1875 234.128906 L 127.332031 249.402344 C 120.769531 260.726562 124.5625 275.421875 135.785156 282.164062 L 199.113281 320.226562 C 199.449219 320.429688 199.5625 320.867188 199.359375 321.203125 C 199.222656 321.425781 198.988281 321.550781 198.746094 321.550781 " fill-opacity="1" fill-rule="nonzero"/><path fill="#000000" d="M 211.816406 294.054688 C 211.664062 294.054688 211.507812 294.007812 211.378906 293.90625 L 150.453125 246.417969 C 150.140625 246.175781 150.085938 245.730469 150.328125 245.421875 C 150.570312 245.109375 151.019531 245.058594 151.328125 245.300781 L 212.253906 292.78125 C 212.5625 293.023438 212.621094 293.472656 212.378906 293.78125 C 212.238281 293.960938 212.027344 294.054688 211.816406 294.054688 " fill-opacity="1" fill-rule="nonzero"/><path fill="#000000" d="M 434.785156 355.214844 L 605.824219 350.90625 L 611.136719 482.496094 L 434.785156 483.128906 L 434.785156 355.214844 " fill-opacity="1" fill-rule="nonzero"/><path fill="#ffffff" d="M 427.132812 350.90625 L 605.824219 350.90625 L 605.824219 477.019531 L 427.375 477.644531 L 427.132812 350.90625 " fill-opacity="1" fill-rule="nonzero"/><path fill="#000000" d="M 437.1875 478.964844 L 427.375 478.964844 C 426.980469 478.964844 426.660156 478.644531 426.660156 478.253906 L 426.417969 350.910156 C 426.417969 350.71875 426.492188 350.539062 426.625 350.40625 C 426.757812 350.269531 426.9375 350.195312 427.128906 350.195312 L 605.824219 350.195312 C 606.21875 350.195312 606.539062 350.515625 606.539062 350.90625 L 606.539062 477.019531 C 606.539062 477.410156 606.21875 477.734375 605.824219 477.734375 C 605.433594 477.734375 605.113281 477.410156 605.113281 477.019531 L 605.113281 351.621094 L 427.84375 351.621094 L 428.085938 477.542969 L 437.1875 477.542969 C 437.578125 477.542969 437.898438 477.859375 437.898438 478.253906 C 437.898438 478.644531 437.578125 478.964844 437.1875 478.964844 " fill-opacity="1" fill-rule="nonzero"/><path fill="#6155ff" d="M 572.707031 371.679688 C 576.066406 371.679688 579.183594 372.730469 581.746094 374.523438 L 587.125 367.117188 C 583.054688 364.234375 578.078125 362.542969 572.707031 362.542969 C 568.589844 362.542969 564.710938 363.535156 561.292969 365.292969 L 565.648438 373.34375 C 567.769531 372.285156 570.167969 371.679688 572.707031 371.679688 " fill-opacity="1" fill-rule="nonzero"/><path fill="#8c7bff" d="M 557.832031 407.425781 L 563.210938 400.023438 C 559.386719 397.148438 556.914062 392.582031 556.914062 387.4375 C 556.914062 382.273438 559.398438 377.695312 563.246094 374.824219 L 558.863281 366.722656 C 552.167969 371.183594 547.753906 378.796875 547.753906 387.4375 C 547.753906 395.625 551.714844 402.886719 557.832031 407.425781 " fill-opacity="1" fill-rule="nonzero"/><path fill="#fed101" d="M 597.515625 384.789062 C 596.847656 378.480469 593.820312 372.878906 589.328125 368.875 L 583.90625 376.335938 C 586.414062 378.851562 588.070312 382.207031 588.425781 385.941406 L 597.515625 384.789062 " fill-opacity="1" fill-rule="nonzero"/><path fill="#fcb503" d="M 588.433594 388.773438 C 587.753906 396.847656 580.976562 403.191406 572.707031 403.191406 C 570.148438 403.191406 567.742188 402.582031 565.605469 401.511719 L 560.183594 408.972656 C 563.863281 411.109375 568.140625 412.328125 572.707031 412.328125 C 586.429688 412.328125 597.5625 401.273438 597.65625 387.601562 L 588.433594 388.773438 " fill-opacity="1" fill-rule="nonzero"/><path fill="#000000" d="M 592.109375 425.628906 L 547.753906 425.628906 C 547.359375 425.628906 547.039062 425.308594 547.039062 424.914062 C 547.039062 424.523438 547.359375 424.203125 547.753906 424.203125 L 592.109375 424.203125 C 592.503906 424.203125 592.824219 424.523438 592.824219 424.914062 C 592.824219 425.308594 592.503906 425.628906 592.109375 425.628906 " fill-opacity="1" fill-rule="nonzero"/><path fill="#000000" d="M 592.109375 435.859375 L 579.234375 435.859375 C 578.839844 435.859375 578.519531 435.539062 578.519531 435.148438 C 578.519531 434.753906 578.839844 434.433594 579.234375 434.433594 L 592.109375 434.433594 C 592.503906 434.433594 592.824219 434.753906 592.824219 435.148438 C 592.824219 435.539062 592.503906 435.859375 592.109375 435.859375 " fill-opacity="1" fill-rule="nonzero"/><path fill="#000000" d="M 575.90625 435.859375 L 547.753906 435.859375 C 547.359375 435.859375 547.039062 435.539062 547.039062 435.148438 C 547.039062 434.753906 547.359375 434.433594 547.753906 434.433594 L 575.90625 434.433594 C 576.300781 434.433594 576.621094 434.753906 576.621094 435.148438 C 576.621094 435.539062 576.300781 435.859375 575.90625 435.859375 " fill-opacity="1" fill-rule="nonzero"/><path fill="#000000" d="M 592.109375 446.09375 L 565.15625 446.09375 C 564.765625 446.09375 564.445312 445.769531 564.445312 445.378906 C 564.445312 444.988281 564.765625 444.667969 565.15625 444.667969 L 592.109375 444.667969 C 592.503906 444.667969 592.824219 444.988281 592.824219 445.378906 C 592.824219 445.769531 592.503906 446.09375 592.109375 446.09375 " fill-opacity="1" fill-rule="nonzero"/><path fill="#000000" d="M 561.832031 446.09375 L 547.753906 446.09375 C 547.359375 446.09375 547.039062 445.769531 547.039062 445.378906 C 547.039062 444.988281 547.359375 444.667969 547.753906 444.667969 L 561.832031 444.667969 C 562.222656 444.667969 562.542969 444.988281 562.542969 445.378906 C 562.542969 445.769531 562.222656 446.09375 561.832031 446.09375 " fill-opacity="1" fill-rule="nonzero"/><path fill="#4ada85" d="M 529.292969 424.441406 L 441.488281 424.441406 L 441.488281 364.53125 L 529.292969 364.53125 L 529.292969 424.441406 " fill-opacity="1" fill-rule="nonzero"/><path fill="#000000" d="M 437.117188 418.527344 C 436.988281 418.527344 436.859375 418.492188 436.742188 418.417969 C 436.410156 418.210938 436.308594 417.773438 436.515625 417.4375 L 459.460938 380.78125 C 459.578125 380.589844 459.785156 380.464844 460.015625 380.449219 C 460.242188 380.429688 460.464844 380.53125 460.609375 380.707031 L 472.964844 395.613281 L 481.496094 383.632812 C 481.632812 383.445312 481.84375 383.332031 482.085938 383.335938 C 482.324219 383.339844 482.542969 383.457031 482.671875 383.652344 L 499.117188 408.234375 L 526.261719 367.765625 C 526.484375 367.4375 526.925781 367.347656 527.253906 367.570312 C 527.578125 367.789062 527.667969 368.230469 527.445312 368.558594 L 499.707031 409.910156 C 499.574219 410.109375 499.355469 410.230469 499.113281 410.230469 C 498.878906 410.230469 498.65625 410.109375 498.523438 409.910156 L 482.058594 385.300781 L 473.585938 397.195312 C 473.460938 397.375 473.253906 397.484375 473.03125 397.492188 C 472.804688 397.496094 472.597656 397.402344 472.457031 397.234375 L 460.144531 382.375 L 437.722656 418.191406 C 437.589844 418.410156 437.359375 418.527344 437.117188 418.527344 " fill-opacity="1" fill-rule="nonzero"/><path fill="#000000" d="M 526.09375 378.273438 C 526.074219 378.273438 526.050781 378.273438 526.035156 378.273438 C 525.640625 378.238281 525.347656 377.894531 525.378906 377.503906 L 526.046875 369.324219 L 518.152344 372.988281 C 517.796875 373.152344 517.371094 372.996094 517.207031 372.640625 C 517.039062 372.285156 517.195312 371.859375 517.554688 371.695312 L 526.558594 367.515625 C 526.785156 367.410156 527.054688 367.433594 527.261719 367.578125 C 527.472656 367.722656 527.585938 367.964844 527.566406 368.21875 L 526.800781 377.621094 C 526.769531 377.992188 526.457031 378.273438 526.09375 378.273438 " fill-opacity="1" fill-rule="nonzero"/><path fill="#000000" d="M 498.703125 435.859375 L 441.945312 435.859375 C 441.550781 435.859375 441.230469 435.539062 441.230469 435.148438 C 441.230469 434.753906 441.550781 434.433594 441.945312 434.433594 L 498.703125 434.433594 C 499.097656 434.433594 499.414062 434.753906 499.414062 435.148438 C 499.414062 435.539062 499.097656 435.859375 498.703125 435.859375 " fill-opacity="1" fill-rule="nonzero"/><path fill="#000000" d="M 470.324219 446.09375 L 441.945312 446.09375 C 441.550781 446.09375 441.230469 445.769531 441.230469 445.378906 C 441.230469 444.988281 441.550781 444.667969 441.945312 444.667969 L 470.324219 444.667969 C 470.71875 444.667969 471.035156 444.988281 471.035156 445.378906 C 471.035156 445.769531 470.71875 446.09375 470.324219 446.09375 " fill-opacity="1" fill-rule="nonzero"/><path fill="#fed101" d="M 454.902344 658.335938 C 441.246094 634.964844 374.371094 623.953125 374.371094 623.953125 L 313.113281 619.632812 L 259.402344 619.632812 L 260.617188 652.433594 C 260.617188 662.488281 264.71875 672.109375 271.976562 679.082031 C 278.878906 685.714844 303.4375 694.871094 313.019531 694.871094 L 432.519531 701.144531 L 464.773438 701.144531 C 464.414062 692.871094 463.839844 673.621094 454.902344 658.335938 " fill-opacity="1" fill-rule="nonzero"/><path fill="#000000" d="M 464.773438 701.855469 C 464.378906 701.855469 464.058594 701.535156 464.058594 701.144531 C 464.058594 695.503906 463.449219 666.789062 451.367188 655.28125 C 433.058594 637.84375 380 624.773438 379.46875 624.644531 C 379.085938 624.550781 378.847656 624.167969 378.941406 623.785156 C 379.039062 623.402344 379.425781 623.167969 379.808594 623.257812 C 382 623.796875 433.765625 636.546875 452.351562 654.25 C 464.851562 666.15625 465.484375 695.402344 465.484375 701.144531 C 465.484375 701.535156 465.164062 701.855469 464.773438 701.855469 " fill-opacity="1" fill-rule="nonzero"/><path fill="#000000" d="M 260.617188 652.433594 L 259.402344 619.632812 L 378.457031 619.632812 Z M 260.617188 652.433594 " fill-opacity="1" fill-rule="nonzero"/><path fill="#fda4ff" d="M 415.996094 446.933594 L 408.019531 467.433594 L 406.152344 455.359375 L 408.074219 450.125 C 409.152344 447.195312 412.386719 445.671875 415.335938 446.703125 L 415.996094 446.933594 " fill-opacity="1" fill-rule="nonzero"/><path fill="#fda4ff" d="M 446.800781 462.691406 L 443.695312 486.117188 L 415.042969 494.480469 L 406.640625 472.652344 C 404.382812 466.785156 404.332031 460.289062 406.503906 454.386719 L 407.835938 450.777344 L 446.800781 462.691406 " fill-opacity="1" fill-rule="nonzero"/><path fill="#fda4ff" d="M 433.074219 423.738281 L 417.261719 466.894531 L 409.363281 463.996094 L 425.171875 420.835938 C 425.945312 418.746094 428.261719 417.675781 430.355469 418.445312 L 430.675781 418.5625 C 432.773438 419.328125 433.847656 421.644531 433.074219 423.738281 " fill-opacity="1" fill-rule="nonzero"/><path fill="#fda4ff" d="M 435.277344 442.324219 L 426.023438 467.460938 L 418.121094 464.558594 L 427.375 439.421875 C 428.148438 437.316406 430.484375 436.238281 432.589844 437.011719 L 432.867188 437.113281 C 434.972656 437.886719 436.050781 440.222656 435.277344 442.324219 " fill-opacity="1" fill-rule="nonzero"/><path fill="#fda4ff" d="M 451.070312 448.160156 L 441.964844 472.894531 L 434.0625 469.992188 L 443.167969 445.253906 C 443.949219 443.132812 446.304688 442.046875 448.425781 442.824219 L 448.636719 442.902344 C 450.761719 443.679688 451.851562 446.035156 451.070312 448.160156 " fill-opacity="1" fill-rule="nonzero"/><path fill="#fda4ff" d="M 451.066406 466.371094 L 443.777344 485.9375 L 435.839844 483.023438 L 448.128906 449.863281 L 450.996094 457.289062 C 452.121094 460.207031 452.148438 463.433594 451.066406 466.371094 " fill-opacity="1" fill-rule="nonzero"/><path fill="#fda4ff" d="M 439.753906 441.683594 L 440.1875 441.839844 C 442.25 442.597656 443.199219 445.175781 442.308594 447.59375 L 433.414062 471.757812 L 425.507812 468.859375 L 434.40625 444.691406 C 435.296875 442.273438 437.691406 440.925781 439.753906 441.683594 " fill-opacity="1" fill-rule="nonzero"/><path fill="#000000" d="M 432.15625 451.515625 C 432.074219 451.515625 431.988281 451.503906 431.910156 451.46875 C 431.539062 451.335938 431.347656 450.925781 431.488281 450.558594 L 434.609375 442.078125 C 434.921875 441.234375 434.878906 440.328125 434.503906 439.515625 C 434.128906 438.707031 433.460938 438.089844 432.621094 437.78125 L 432.347656 437.683594 C 430.613281 437.046875 428.683594 437.933594 428.046875 439.667969 L 424.5 449.304688 C 424.363281 449.671875 423.953125 449.859375 423.582031 449.722656 C 423.214844 449.589844 423.023438 449.179688 423.160156 448.8125 L 426.707031 439.175781 C 427.617188 436.707031 430.367188 435.4375 432.835938 436.34375 L 433.113281 436.445312 C 434.308594 436.882812 435.261719 437.761719 435.800781 438.921875 C 436.335938 440.074219 436.386719 441.371094 435.949219 442.566406 L 432.824219 451.050781 C 432.71875 451.335938 432.445312 451.515625 432.15625 451.515625 " fill-opacity="1" fill-rule="nonzero"/><path fill="#000000" d="M 439.601562 455.660156 C 439.519531 455.660156 439.4375 455.648438 439.355469 455.617188 C 438.984375 455.480469 438.796875 455.074219 438.933594 454.703125 L 441.878906 446.695312 C 442.179688 445.878906 442.144531 444.992188 441.777344 444.203125 C 441.410156 443.410156 440.757812 442.808594 439.941406 442.507812 L 439.511719 442.351562 C 437.816406 441.730469 435.933594 442.601562 435.3125 444.285156 L 432.46875 452.011719 C 432.332031 452.382812 431.921875 452.570312 431.554688 452.4375 C 431.183594 452.300781 430.996094 451.890625 431.132812 451.523438 L 433.976562 443.796875 C 434.871094 441.371094 437.570312 440.121094 440.003906 441.015625 L 440.429688 441.171875 C 441.609375 441.605469 442.542969 442.46875 443.070312 443.605469 C 443.597656 444.742188 443.648438 446.011719 443.214844 447.1875 L 440.269531 455.195312 C 440.164062 455.484375 439.890625 455.660156 439.601562 455.660156 " fill-opacity="1" fill-rule="nonzero"/><path fill="#fda4ff" d="M 444.046875 484.058594 L 443.199219 519.472656 L 412.628906 509.722656 L 413.332031 472.785156 L 444.046875 484.058594 " fill-opacity="1" fill-rule="nonzero"/><path fill="#000000" d="M 443.757812 496.128906 L 443.199219 519.472656 L 412.628906 509.722656 L 412.824219 499.503906 L 431.800781 497.429688 L 443.757812 496.128906 " fill-opacity="1" fill-rule="nonzero"/><path fill="#000000" d="M 410.167969 462.507812 C 410.089844 462.507812 410.007812 462.488281 409.925781 462.460938 C 409.554688 462.324219 409.367188 461.917969 409.5 461.546875 L 424.5 420.59375 C 425.40625 418.136719 428.144531 416.871094 430.601562 417.777344 L 430.921875 417.890625 C 432.113281 418.332031 433.0625 419.203125 433.597656 420.351562 C 434.128906 421.503906 434.183594 422.792969 433.746094 423.984375 L 423.867188 451.007812 C 423.738281 451.378906 423.324219 451.566406 422.957031 451.433594 C 422.585938 451.300781 422.398438 450.890625 422.53125 450.519531 L 432.40625 423.496094 C 432.714844 422.660156 432.675781 421.757812 432.304688 420.953125 C 431.933594 420.148438 431.265625 419.535156 430.429688 419.230469 L 430.113281 419.113281 C 428.386719 418.480469 426.472656 419.363281 425.839844 421.082031 L 410.839844 462.039062 C 410.734375 462.324219 410.460938 462.507812 410.167969 462.507812 " fill-opacity="1" fill-rule="nonzero"/><path fill="#000000" d="M 443.199219 520.183594 C 443.125 520.183594 443.054688 520.175781 442.984375 520.152344 L 412.414062 510.402344 C 412.113281 510.308594 411.914062 510.027344 411.917969 509.710938 L 412.304688 489.351562 L 405.976562 472.90625 C 403.882812 467.476562 403.640625 461.40625 405.28125 455.824219 C 405.394531 455.445312 405.792969 455.226562 406.167969 455.339844 C 406.546875 455.449219 406.761719 455.847656 406.648438 456.226562 C 405.09375 461.511719 405.328125 467.253906 407.308594 472.398438 L 413.683594 488.972656 C 413.71875 489.058594 413.734375 489.148438 413.734375 489.242188 L 413.355469 509.207031 L 442.511719 518.507812 L 443.304688 485.4375 C 443.304688 485.359375 443.320312 485.28125 443.34375 485.207031 L 450.398438 466.121094 C 451.421875 463.347656 451.394531 460.300781 450.332031 457.542969 L 448.699219 453.3125 C 448.636719 453.15625 448.632812 452.980469 448.691406 452.824219 L 450.394531 447.921875 C 450.714844 447.0625 450.679688 446.144531 450.296875 445.324219 C 449.917969 444.503906 449.242188 443.882812 448.390625 443.570312 L 448.183594 443.496094 C 446.433594 442.851562 444.480469 443.753906 443.835938 445.5 L 439.8125 456.425781 C 439.679688 456.792969 439.269531 456.984375 438.898438 456.851562 C 438.53125 456.714844 438.34375 456.304688 438.480469 455.933594 L 442.5 445.007812 C 443.414062 442.523438 446.1875 441.242188 448.675781 442.160156 L 448.882812 442.234375 C 450.089844 442.675781 451.050781 443.5625 451.589844 444.730469 C 452.128906 445.890625 452.183594 447.195312 451.738281 448.402344 L 450.121094 453.042969 L 451.660156 457.03125 C 452.851562 460.113281 452.875 463.519531 451.734375 466.617188 L 444.722656 485.589844 L 443.910156 519.488281 C 443.90625 519.714844 443.792969 519.921875 443.613281 520.054688 C 443.492188 520.140625 443.34375 520.183594 443.199219 520.183594 " fill-opacity="1" fill-rule="nonzero"/><path fill="#8c7bff" d="M 428.253906 604.855469 C 413.804688 604.605469 402.289062 592.707031 402.539062 578.28125 L 403.601562 504.554688 L 456.15625 504.660156 L 454.867188 579.179688 C 454.621094 593.609375 442.703125 605.105469 428.253906 604.855469 " fill-opacity="1" fill-rule="nonzero"/><path fill="#000000" d="M 428.265625 604.144531 C 442.308594 604.414062 453.914062 593.179688 454.15625 579.167969 L 455.429688 505.367188 L 404.304688 505.265625 L 403.253906 578.289062 C 403.132812 585.082031 405.671875 591.507812 410.394531 596.390625 C 415.121094 601.273438 421.464844 604.023438 428.265625 604.144531 Z M 428.710938 605.570312 C 428.554688 605.570312 428.398438 605.570312 428.238281 605.566406 C 421.0625 605.441406 414.359375 602.535156 409.371094 597.378906 C 404.382812 592.222656 401.707031 585.433594 401.828125 578.269531 L 402.890625 504.542969 C 402.898438 504.15625 403.214844 503.839844 403.601562 503.839844 L 403.605469 503.839844 L 456.15625 503.949219 C 456.347656 503.949219 456.53125 504.023438 456.664062 504.160156 C 456.796875 504.296875 456.871094 504.480469 456.867188 504.671875 L 455.582031 579.191406 C 455.332031 593.832031 443.320312 605.570312 428.710938 605.570312 " fill-opacity="1" fill-rule="nonzero"/><path fill="#8c7bff" d="M 447.488281 560.539062 L 400.691406 513.796875 C 381.683594 494.808594 355.898438 484.140625 329.007812 484.140625 L 298.714844 484.140625 C 277.832031 484.140625 258.789062 496.082031 249.71875 514.863281 L 226.664062 562.609375 C 220.308594 575.808594 224.152344 595.222656 237.371094 601.570312 C 246.308594 605.859375 253.777344 605.535156 262.070312 601.5625 L 259.429688 631.234375 L 387 625.90625 L 380.183594 572.652344 L 410.480469 597.488281 L 447.488281 560.539062 " fill-opacity="1" fill-rule="nonzero"/><path fill="#000000" d="M 410.480469 598.203125 C 410.320312 598.203125 410.160156 598.148438 410.027344 598.039062 L 354.121094 552.207031 C 353.820312 551.957031 353.773438 551.507812 354.023438 551.207031 C 354.273438 550.902344 354.722656 550.859375 355.027344 551.109375 L 410.933594 596.941406 C 411.238281 597.1875 411.28125 597.636719 411.03125 597.941406 C 410.890625 598.113281 410.6875 598.203125 410.480469 598.203125 " fill-opacity="1" fill-rule="nonzero"/><path fill="#000000" d="M 447.488281 561.25 C 447.304688 561.25 447.125 561.179688 446.984375 561.042969 L 400.1875 514.300781 C 380.902344 495.039062 356.003906 484.855469 328.179688 484.855469 C 327.789062 484.855469 327.46875 484.535156 327.46875 484.140625 C 327.46875 483.75 327.789062 483.429688 328.179688 483.429688 C 356.390625 483.429688 381.636719 493.757812 401.199219 513.292969 L 447.992188 560.035156 C 448.273438 560.3125 448.273438 560.765625 447.992188 561.042969 C 447.855469 561.179688 447.671875 561.25 447.488281 561.25 " fill-opacity="1" fill-rule="nonzero"/><path fill="#000000" d="M 259.402344 596.234375 C 259.363281 596.234375 259.328125 596.230469 259.289062 596.222656 C 258.898438 596.160156 258.636719 595.796875 258.699219 595.410156 L 270.214844 523.5625 C 270.277344 523.175781 270.644531 522.910156 271.03125 522.972656 C 271.421875 523.039062 271.683594 523.402344 271.621094 523.789062 L 260.105469 595.632812 C 260.050781 595.984375 259.746094 596.234375 259.402344 596.234375 " fill-opacity="1" fill-rule="nonzero"/><path fill="#000000" d="M 269.34375 529.460938 L 252.542969 604.496094 C 252.542969 604.496094 255.09375 604.28125 257.765625 603.402344 C 259.664062 602.777344 262.070312 601.5625 262.070312 601.5625 L 269.34375 529.460938 " fill-opacity="1" fill-rule="nonzero"/><path fill="#fda4ff" d="M 338.351562 455.304688 C 338.351562 464.574219 338.949219 477.429688 329.664062 477.429688 C 320.382812 477.429688 304.734375 464.574219 304.734375 455.304688 C 304.734375 446.039062 312.261719 438.523438 321.542969 438.523438 C 330.824219 438.523438 338.351562 446.039062 338.351562 455.304688 " fill-opacity="1" fill-rule="nonzero"/><path fill="#000000" d="M 344.519531 451.199219 C 341.957031 442.652344 334.023438 436.421875 324.625 436.421875 C 315.234375 436.421875 307.589844 442.152344 305.242188 451.199219 L 344.519531 451.199219 " fill-opacity="1" fill-rule="nonzero"/><path fill="#fda4ff" d="M 327.566406 484.140625 L 308.125 484.140625 L 308.125 455.304688 L 327.566406 455.304688 L 327.566406 484.140625 " fill-opacity="1" fill-rule="nonzero"/><path fill="#000000" d="M 327.566406 485.148438 C 327.175781 485.148438 326.851562 484.828125 326.851562 484.4375 L 326.851562 468.191406 C 326.851562 467.800781 327.175781 467.480469 327.566406 467.480469 C 327.960938 467.480469 328.277344 467.800781 328.277344 468.191406 L 328.277344 484.4375 C 328.277344 484.828125 327.960938 485.148438 327.566406 485.148438 " fill-opacity="1" fill-rule="nonzero"/><path fill="#ffffff" d="M 308.125 701.785156 C 308.125 701.785156 294.898438 699.1875 291.871094 697.910156 C 263.707031 686.035156 261.527344 670.003906 256.292969 644.679688 L 241.289062 530.53125 L 367.425781 530.53125 L 382.335938 644.625 C 387.574219 669.953125 397.710938 684.742188 422.078125 696.8125 C 425.019531 698.269531 434.171875 701.726562 434.171875 701.726562 L 310.078125 701.785156 L 308.125 701.785156 " fill-opacity="1" fill-rule="nonzero"/><g clip-path="url(#d03079a8ac)"><path fill="#000000" d="M 308.128906 702.496094 C 308.09375 702.496094 308.058594 702.492188 308.023438 702.488281 C 307.65625 702.433594 298.984375 701.175781 295.847656 700.109375 C 268.539062 690.824219 261.558594 677.546875 255.589844 644.804688 L 240.582031 530.621094 C 240.554688 530.421875 240.617188 530.214844 240.753906 530.058594 C 240.886719 529.910156 241.082031 529.816406 241.289062 529.816406 L 367.421875 529.816406 C 367.78125 529.816406 368.085938 530.082031 368.132812 530.4375 L 383.046875 644.53125 C 388.4375 670.628906 399.105469 684.644531 422.394531 696.175781 C 425.273438 697.601562 434.332031 701.03125 434.425781 701.0625 C 434.792969 701.199219 434.976562 701.613281 434.839844 701.976562 C 434.699219 702.347656 434.289062 702.53125 433.921875 702.394531 C 433.546875 702.253906 424.703125 698.90625 421.761719 697.449219 C 398.019531 685.691406 387.144531 671.414062 381.640625 644.765625 L 366.800781 531.242188 L 242.101562 531.242188 L 257 644.582031 C 262.949219 677.21875 269.464844 689.636719 296.308594 698.761719 C 299.316406 699.78125 308.140625 701.066406 308.226562 701.082031 C 308.617188 701.136719 308.886719 701.496094 308.832031 701.886719 C 308.78125 702.242188 308.476562 702.496094 308.128906 702.496094 " fill-opacity="1" fill-rule="nonzero"/></g><path fill="#8c7bff" d="M 658.847656 697.441406 C 659.765625 657.242188 671.144531 661.660156 655.398438 621.078125 L 648.324219 602.84375 L 598.941406 610.285156 L 605.496094 697.441406 L 658.847656 697.441406 " fill-opacity="1" fill-rule="nonzero"/><path fill="#8c7bff" d="M 606.476562 701.644531 L 607.984375 606.53125 L 558.230469 606.53125 L 550.511719 642.960938 C 549.4375 647.226562 541.714844 649.980469 535.367188 653.425781 C 511.152344 666.550781 492.441406 672.824219 490.984375 700.679688 C 490.964844 701.046875 490.949219 701.441406 490.949219 701.441406 L 606.476562 701.644531 " fill-opacity="1" fill-rule="nonzero"/><path fill="#000000" d="M 650.535156 608.539062 L 559 602.84375 L 554.3125 625.019531 Z M 650.535156 608.539062 " fill-opacity="1" fill-rule="nonzero"/><path fill="#6155ff" d="M 597.507812 665.582031 L 597.519531 665.582031 C 605.84375 663.042969 610.535156 654.246094 607.996094 645.929688 L 602.25 627.113281 L 572.101562 636.292969 L 577.847656 655.121094 C 580.390625 663.429688 589.191406 668.117188 597.507812 665.582031 " fill-opacity="1" fill-rule="nonzero"/><path fill="#000000" d="M 559.566406 650.785156 C 559.484375 650.785156 559.398438 650.769531 559.3125 650.738281 L 548.816406 646.726562 C 548.539062 646.621094 548.355469 646.347656 548.363281 646.046875 C 548.367188 645.746094 548.558594 645.484375 548.839844 645.386719 L 557.660156 642.367188 C 558.03125 642.234375 558.4375 642.4375 558.566406 642.808594 C 558.691406 643.179688 558.496094 643.585938 558.125 643.710938 L 551.160156 646.097656 L 559.824219 649.410156 C 560.1875 649.546875 560.375 649.960938 560.234375 650.328125 C 560.125 650.609375 559.855469 650.785156 559.566406 650.785156 " fill-opacity="1" fill-rule="nonzero"/><path fill="#4ada85" d="M 512.878906 573.601562 L 517.050781 605.644531 L 574.300781 605.644531 L 576.898438 568.28125 L 512.878906 573.601562 " fill-opacity="1" fill-rule="nonzero"/><path fill="#4ada85" d="M 690.691406 603.667969 C 700.730469 595.9375 702.058594 580.859375 693.660156 569.988281 L 655.804688 521.019531 L 620.589844 550.453125 L 657.308594 597.984375 C 665.703125 608.855469 680.652344 611.398438 690.691406 603.667969 " fill-opacity="1" fill-rule="nonzero"/><path fill="#4ada85" d="M 501.695312 561.25 L 540.34375 526.398438 C 552.0625 517.210938 559.945312 510.714844 572.160156 508.601562 L 606.269531 502.703125 L 635.660156 507.726562 C 649.539062 510.101562 659.679688 522.113281 659.679688 536.167969 L 659.679688 609.25 L 553.171875 610.160156 L 553.171875 586.808594 C 553.171875 586.808594 543.113281 593.246094 537.222656 597.007812 C 526.039062 604.144531 515.960938 611.890625 498.566406 595.390625 C 489.292969 579.234375 493.949219 571.273438 501.695312 561.25 " fill-opacity="1" fill-rule="nonzero"/><path fill="#000000" d="M 518.359375 605.664062 C 510.65625 605.664062 503.042969 602.253906 498.007812 595.828125 C 489.628906 585.140625 491.039062 569.714844 501.222656 560.714844 C 513.765625 549.632812 530.386719 534.832031 538.367188 527.265625 C 544.886719 521.082031 557.933594 510.339844 572.039062 507.898438 L 606.144531 502 C 606.535156 501.933594 606.902344 502.191406 606.96875 502.578125 C 607.039062 502.964844 606.777344 503.335938 606.386719 503.402344 L 572.28125 509.304688 C 558.546875 511.679688 545.75 522.226562 539.34375 528.300781 C 531.355469 535.878906 514.71875 550.691406 502.167969 561.78125 C 492.546875 570.285156 491.214844 584.855469 499.128906 594.953125 C 506.925781 604.898438 521.273438 607.199219 531.796875 600.191406 L 552.777344 586.21875 C 553.105469 586 553.546875 586.089844 553.765625 586.414062 C 553.984375 586.742188 553.898438 587.183594 553.566406 587.398438 L 532.589844 601.375 C 528.246094 604.269531 523.285156 605.664062 518.359375 605.664062 " fill-opacity="1" fill-rule="nonzero"/><path fill="#000000" d="M 553.171875 610.160156 C 552.78125 610.160156 552.460938 609.839844 552.460938 609.449219 L 552.460938 586.808594 C 552.460938 586.414062 552.777344 586.097656 553.171875 586.097656 C 553.566406 586.097656 553.882812 586.414062 553.882812 586.808594 L 553.886719 608.734375 L 633.046875 608.734375 L 658.96875 607.851562 L 658.96875 553.730469 C 658.96875 553.335938 659.285156 553.019531 659.679688 553.019531 C 660.074219 553.019531 660.390625 553.335938 660.390625 553.730469 L 660.390625 608.539062 C 660.390625 608.917969 660.089844 609.234375 659.707031 609.25 L 633.070312 610.160156 L 553.171875 610.160156 " fill-opacity="1" fill-rule="nonzero"/><path fill="#000000" d="M 553.171875 587.519531 C 552.949219 587.519531 552.730469 587.417969 552.589844 587.21875 C 552.363281 586.898438 552.4375 586.457031 552.761719 586.226562 L 584.105469 563.996094 C 584.425781 563.773438 584.867188 563.847656 585.097656 564.167969 C 585.324219 564.488281 585.25 564.929688 584.929688 565.160156 L 553.585938 587.390625 C 553.460938 587.476562 553.320312 587.519531 553.171875 587.519531 " fill-opacity="1" fill-rule="nonzero"/><path fill="#955b50" d="M 588.476562 472.996094 C 586.636719 485.308594 592.066406 494.683594 604.214844 495.851562 C 614.679688 496.855469 624.53125 488.671875 626.371094 476.359375 C 628.210938 464.042969 621.273438 452.804688 610.875 451.257812 C 600.476562 449.710938 590.316406 460.679688 588.476562 472.996094 " fill-opacity="1" fill-rule="nonzero"/><path fill="#000000" d="M 598.011719 472.007812 C 592.648438 466.375 590.550781 459.6875 593.324219 454.976562 C 597.117188 448.535156 609.625 448.121094 618.960938 454.320312 C 638.90625 467.550781 630.289062 481.96875 631.285156 484.269531 C 632.769531 487.695312 639.015625 489.515625 640.546875 493.496094 C 641.925781 497.089844 638.515625 502.585938 639.824219 506.53125 C 641.0625 510.25 647.105469 512.632812 648.191406 516.574219 C 649.242188 520.402344 645.261719 525.503906 646.089844 529.460938 C 646.914062 533.382812 652.609375 536.496094 653.128906 540.472656 C 653.65625 544.472656 648.957031 548.90625 649.101562 552.886719 C 649.25 556.941406 654.253906 561.078125 653.921875 565.023438 C 653.585938 569.078125 647.976562 572.25 647.046875 576.101562 L 588.582031 576.101562 C 586.339844 572.621094 586.914062 568.300781 587.585938 566.386719 C 588.902344 562.628906 594.902344 560.214844 595.871094 556.296875 C 596.839844 552.40625 592.671875 547.429688 593.34375 543.480469 C 594.019531 539.496094 599.585938 536.191406 600.003906 532.246094 C 600.4375 528.179688 595.679688 523.761719 595.886719 519.847656 C 596.105469 515.699219 601.292969 511.820312 601.320312 507.972656 C 601.351562 503.710938 596.199219 499.738281 596.066406 496.015625 C 595.910156 491.492188 600.734375 487.152344 600.46875 483.71875 C 600.113281 479.078125 598.882812 474.664062 598.011719 472.007812 " fill-opacity="1" fill-rule="nonzero"/><path fill="#ffffff" d="M 669.714844 701.804688 L 692.550781 562.171875 L 574.160156 562.171875 L 548.183594 701.757812 L 669.714844 701.804688 " fill-opacity="1" fill-rule="nonzero"/><g clip-path="url(#b471326d3e)"><path fill="#000000" d="M 670.292969 702.214844 C 670.253906 702.214844 670.21875 702.210938 670.179688 702.207031 C 669.789062 702.144531 669.523438 701.777344 669.585938 701.390625 L 690.996094 567.386719 C 690.996094 567.375 690.996094 567.359375 691 567.347656 L 691.714844 562.886719 L 574.75 562.886719 L 558.628906 649.535156 C 558.628906 649.550781 558.625 649.5625 558.625 649.578125 L 548.949219 701.539062 C 548.878906 701.925781 548.503906 702.183594 548.121094 702.109375 C 547.730469 702.035156 547.476562 701.664062 547.550781 701.28125 L 557.214844 649.347656 C 557.21875 649.335938 557.222656 649.320312 557.222656 649.308594 L 573.460938 562.042969 C 573.523438 561.707031 573.816406 561.460938 574.160156 561.460938 L 692.550781 561.460938 C 692.761719 561.460938 692.960938 561.550781 693.097656 561.710938 C 693.230469 561.871094 693.289062 562.082031 693.253906 562.285156 L 692.414062 567.542969 C 692.410156 567.558594 692.410156 567.570312 692.40625 567.582031 L 670.992188 701.613281 C 670.9375 701.964844 670.632812 702.214844 670.292969 702.214844 " fill-opacity="1" fill-rule="nonzero"/></g><g fill="#1f117b" fill-opacity="1"><g transform="translate(98.338349, 753.811645)"><g><path d="M 28.125 0 L 20.71875 -10.546875 C 19.800781 -10.484375 19.078125 -10.453125 18.546875 -10.453125 L 10.0625 -10.453125 L 10.0625 0 L 5.15625 0 L 5.15625 -34.359375 L 18.546875 -34.359375 C 22.992188 -34.359375 26.492188 -33.289062 29.046875 -31.15625 C 31.597656 -29.03125 32.875 -26.101562 32.875 -22.375 C 32.875 -19.726562 32.21875 -17.472656 30.90625 -15.609375 C 29.601562 -13.742188 27.742188 -12.382812 25.328125 -11.53125 L 33.46875 0 Z M 18.40625 -14.625 C 21.507812 -14.625 23.878906 -15.296875 25.515625 -16.640625 C 27.148438 -17.984375 27.96875 -19.894531 27.96875 -22.375 C 27.96875 -24.863281 27.148438 -26.769531 25.515625 -28.09375 C 23.878906 -29.414062 21.507812 -30.078125 18.40625 -30.078125 L 10.0625 -30.078125 L 10.0625 -14.625 Z M 18.40625 -14.625 "/></g></g></g><g fill="#1f117b" fill-opacity="1"><g transform="translate(134.011286, 753.811645)"><g><path d="M 27.96875 -12.859375 C 27.96875 -12.492188 27.9375 -12.019531 27.875 -11.4375 L 6.765625 -11.4375 C 7.066406 -9.144531 8.078125 -7.300781 9.796875 -5.90625 C 11.515625 -4.519531 13.648438 -3.828125 16.203125 -3.828125 C 19.304688 -3.828125 21.804688 -4.875 23.703125 -6.96875 L 26.3125 -3.921875 C 25.132812 -2.546875 23.664062 -1.5 21.90625 -0.78125 C 20.15625 -0.0625 18.203125 0.296875 16.046875 0.296875 C 13.296875 0.296875 10.859375 -0.265625 8.734375 -1.390625 C 6.609375 -2.523438 4.960938 -4.101562 3.796875 -6.125 C 2.640625 -8.15625 2.0625 -10.445312 2.0625 -13 C 2.0625 -15.519531 2.625 -17.796875 3.75 -19.828125 C 4.882812 -21.859375 6.441406 -23.4375 8.421875 -24.5625 C 10.398438 -25.6875 12.628906 -26.25 15.109375 -26.25 C 17.597656 -26.25 19.816406 -25.6875 21.765625 -24.5625 C 23.710938 -23.4375 25.234375 -21.859375 26.328125 -19.828125 C 27.421875 -17.796875 27.96875 -15.472656 27.96875 -12.859375 Z M 15.109375 -22.28125 C 12.859375 -22.28125 10.972656 -21.59375 9.453125 -20.21875 C 7.929688 -18.84375 7.035156 -17.046875 6.765625 -14.828125 L 23.453125 -14.828125 C 23.191406 -17.015625 22.300781 -18.800781 20.78125 -20.1875 C 19.257812 -21.582031 17.367188 -22.28125 15.109375 -22.28125 Z M 15.109375 -22.28125 "/></g></g></g><g fill="#1f117b" fill-opacity="1"><g transform="translate(164.041326, 753.811645)"><g><path d="M 15.796875 0.296875 C 13.148438 0.296875 10.785156 -0.273438 8.703125 -1.421875 C 6.628906 -2.566406 5.003906 -4.144531 3.828125 -6.15625 C 2.648438 -8.164062 2.0625 -10.445312 2.0625 -13 C 2.0625 -15.550781 2.648438 -17.832031 3.828125 -19.84375 C 5.003906 -21.863281 6.628906 -23.4375 8.703125 -24.5625 C 10.785156 -25.6875 13.148438 -26.25 15.796875 -26.25 C 18.160156 -26.25 20.265625 -25.773438 22.109375 -24.828125 C 23.953125 -23.878906 25.382812 -22.507812 26.40625 -20.71875 L 22.828125 -18.40625 C 22.003906 -19.644531 20.988281 -20.578125 19.78125 -21.203125 C 18.570312 -21.828125 17.226562 -22.140625 15.75 -22.140625 C 14.050781 -22.140625 12.519531 -21.757812 11.15625 -21 C 9.800781 -20.25 8.738281 -19.175781 7.96875 -17.78125 C 7.207031 -16.394531 6.828125 -14.800781 6.828125 -13 C 6.828125 -11.164062 7.207031 -9.550781 7.96875 -8.15625 C 8.738281 -6.769531 9.800781 -5.703125 11.15625 -4.953125 C 12.519531 -4.203125 14.050781 -3.828125 15.75 -3.828125 C 17.226562 -3.828125 18.570312 -4.132812 19.78125 -4.75 C 20.988281 -5.375 22.003906 -6.3125 22.828125 -7.5625 L 26.40625 -5.296875 C 25.382812 -3.492188 23.953125 -2.109375 22.109375 -1.140625 C 20.265625 -0.179688 18.160156 0.296875 15.796875 0.296875 Z M 15.796875 0.296875 "/></g></g></g><g fill="#1f117b" fill-opacity="1"><g transform="translate(192.059549, 753.811645)"><g><path d="M 15.609375 0.296875 C 13.023438 0.296875 10.703125 -0.273438 8.640625 -1.421875 C 6.578125 -2.566406 4.960938 -4.144531 3.796875 -6.15625 C 2.640625 -8.164062 2.0625 -10.445312 2.0625 -13 C 2.0625 -15.550781 2.640625 -17.832031 3.796875 -19.84375 C 4.960938 -21.863281 6.578125 -23.4375 8.640625 -24.5625 C 10.703125 -25.6875 13.023438 -26.25 15.609375 -26.25 C 18.191406 -26.25 20.503906 -25.6875 22.546875 -24.5625 C 24.597656 -23.4375 26.203125 -21.863281 27.359375 -19.84375 C 28.523438 -17.832031 29.109375 -15.550781 29.109375 -13 C 29.109375 -10.445312 28.523438 -8.164062 27.359375 -6.15625 C 26.203125 -4.144531 24.597656 -2.566406 22.546875 -1.421875 C 20.503906 -0.273438 18.191406 0.296875 15.609375 0.296875 Z M 15.609375 -3.828125 C 17.273438 -3.828125 18.769531 -4.210938 20.09375 -4.984375 C 21.414062 -5.753906 22.453125 -6.832031 23.203125 -8.21875 C 23.960938 -9.613281 24.34375 -11.207031 24.34375 -13 C 24.34375 -14.800781 23.960938 -16.394531 23.203125 -17.78125 C 22.453125 -19.175781 21.414062 -20.25 20.09375 -21 C 18.769531 -21.757812 17.273438 -22.140625 15.609375 -22.140625 C 13.941406 -22.140625 12.441406 -21.757812 11.109375 -21 C 9.785156 -20.25 8.738281 -19.175781 7.96875 -17.78125 C 7.207031 -16.394531 6.828125 -14.800781 6.828125 -13 C 6.828125 -11.207031 7.207031 -9.613281 7.96875 -8.21875 C 8.738281 -6.832031 9.785156 -5.753906 11.109375 -4.984375 C 12.441406 -4.210938 13.941406 -3.828125 15.609375 -3.828125 Z M 15.609375 -3.828125 "/></g></g></g><g fill="#1f117b" fill-opacity="1"><g transform="translate(223.218168, 753.811645)"><g><path d="M 8.984375 -21.640625 C 9.796875 -23.148438 11.003906 -24.296875 12.609375 -25.078125 C 14.210938 -25.859375 16.160156 -26.25 18.453125 -26.25 L 18.453125 -21.6875 C 18.191406 -21.71875 17.832031 -21.734375 17.375 -21.734375 C 14.820312 -21.734375 12.816406 -20.972656 11.359375 -19.453125 C 9.898438 -17.929688 9.171875 -15.765625 9.171875 -12.953125 L 9.171875 0 L 4.46875 0 L 4.46875 -26.015625 L 8.984375 -26.015625 Z M 8.984375 -21.640625 "/></g></g></g><g fill="#1f117b" fill-opacity="1"><g transform="translate(243.336335, 753.811645)"><g><path d="M 29 -36.421875 L 29 0 L 24.484375 0 L 24.484375 -4.125 C 23.441406 -2.6875 22.117188 -1.585938 20.515625 -0.828125 C 18.910156 -0.078125 17.144531 0.296875 15.21875 0.296875 C 12.695312 0.296875 10.4375 -0.257812 8.4375 -1.375 C 6.445312 -2.488281 4.882812 -4.050781 3.75 -6.0625 C 2.625 -8.070312 2.0625 -10.382812 2.0625 -13 C 2.0625 -15.625 2.625 -17.929688 3.75 -19.921875 C 4.882812 -21.921875 6.445312 -23.472656 8.4375 -24.578125 C 10.4375 -25.691406 12.695312 -26.25 15.21875 -26.25 C 17.082031 -26.25 18.796875 -25.894531 20.359375 -25.1875 C 21.929688 -24.488281 23.242188 -23.453125 24.296875 -22.078125 L 24.296875 -36.421875 Z M 15.609375 -3.828125 C 17.242188 -3.828125 18.726562 -4.210938 20.0625 -4.984375 C 21.40625 -5.753906 22.453125 -6.832031 23.203125 -8.21875 C 23.960938 -9.613281 24.34375 -11.207031 24.34375 -13 C 24.34375 -14.800781 23.960938 -16.394531 23.203125 -17.78125 C 22.453125 -19.175781 21.40625 -20.25 20.0625 -21 C 18.726562 -21.757812 17.242188 -22.140625 15.609375 -22.140625 C 13.941406 -22.140625 12.441406 -21.757812 11.109375 -21 C 9.785156 -20.25 8.738281 -19.175781 7.96875 -17.78125 C 7.207031 -16.394531 6.828125 -14.800781 6.828125 -13 C 6.828125 -11.207031 7.207031 -9.613281 7.96875 -8.21875 C 8.738281 -6.832031 9.785156 -5.753906 11.109375 -4.984375 C 12.441406 -4.210938 13.941406 -3.828125 15.609375 -3.828125 Z M 15.609375 -3.828125 "/></g></g></g><g fill="#1f117b" fill-opacity="1"><g transform="translate(276.801174, 753.811645)"><g/></g></g><g fill="#1f117b" fill-opacity="1"><g transform="translate(290.000663, 753.811645)"><g><path d="M 18.3125 -11.875 L 18.3125 0 L 13.453125 0 L 13.453125 -11.96875 L -0.203125 -34.359375 L 5.0625 -34.359375 L 16.046875 -16.25 L 27.09375 -34.359375 L 31.953125 -34.359375 Z M 18.3125 -11.875 "/></g></g></g><g fill="#1f117b" fill-opacity="1"><g transform="translate(321.748107, 753.811645)"><g><path d="M 15.609375 0.296875 C 13.023438 0.296875 10.703125 -0.273438 8.640625 -1.421875 C 6.578125 -2.566406 4.960938 -4.144531 3.796875 -6.15625 C 2.640625 -8.164062 2.0625 -10.445312 2.0625 -13 C 2.0625 -15.550781 2.640625 -17.832031 3.796875 -19.84375 C 4.960938 -21.863281 6.578125 -23.4375 8.640625 -24.5625 C 10.703125 -25.6875 13.023438 -26.25 15.609375 -26.25 C 18.191406 -26.25 20.503906 -25.6875 22.546875 -24.5625 C 24.597656 -23.4375 26.203125 -21.863281 27.359375 -19.84375 C 28.523438 -17.832031 29.109375 -15.550781 29.109375 -13 C 29.109375 -10.445312 28.523438 -8.164062 27.359375 -6.15625 C 26.203125 -4.144531 24.597656 -2.566406 22.546875 -1.421875 C 20.503906 -0.273438 18.191406 0.296875 15.609375 0.296875 Z M 15.609375 -3.828125 C 17.273438 -3.828125 18.769531 -4.210938 20.09375 -4.984375 C 21.414062 -5.753906 22.453125 -6.832031 23.203125 -8.21875 C 23.960938 -9.613281 24.34375 -11.207031 24.34375 -13 C 24.34375 -14.800781 23.960938 -16.394531 23.203125 -17.78125 C 22.453125 -19.175781 21.414062 -20.25 20.09375 -21 C 18.769531 -21.757812 17.273438 -22.140625 15.609375 -22.140625 C 13.941406 -22.140625 12.441406 -21.757812 11.109375 -21 C 9.785156 -20.25 8.738281 -19.175781 7.96875 -17.78125 C 7.207031 -16.394531 6.828125 -14.800781 6.828125 -13 C 6.828125 -11.207031 7.207031 -9.613281 7.96875 -8.21875 C 8.738281 -6.832031 9.785156 -5.753906 11.109375 -4.984375 C 12.441406 -4.210938 13.941406 -3.828125 15.609375 -3.828125 Z M 15.609375 -3.828125 "/></g></g></g><g fill="#1f117b" fill-opacity="1"><g transform="translate(352.906726, 753.811645)"><g><path d="M 28.703125 -26.015625 L 28.703125 0 L 24.25 0 L 24.25 -3.921875 C 23.300781 -2.578125 22.046875 -1.535156 20.484375 -0.796875 C 18.929688 -0.0664062 17.238281 0.296875 15.40625 0.296875 C 11.9375 0.296875 9.203125 -0.660156 7.203125 -2.578125 C 5.210938 -4.492188 4.21875 -7.316406 4.21875 -11.046875 L 4.21875 -26.015625 L 8.9375 -26.015625 L 8.9375 -11.578125 C 8.9375 -9.054688 9.539062 -7.148438 10.75 -5.859375 C 11.957031 -4.566406 13.691406 -3.921875 15.953125 -3.921875 C 18.441406 -3.921875 20.40625 -4.671875 21.84375 -6.171875 C 23.28125 -7.679688 24 -9.8125 24 -12.5625 L 24 -26.015625 Z M 28.703125 -26.015625 "/></g></g></g><g fill="#1f117b" fill-opacity="1"><g transform="translate(386.126242, 753.811645)"><g><path d="M 8.984375 -21.640625 C 9.796875 -23.148438 11.003906 -24.296875 12.609375 -25.078125 C 14.210938 -25.859375 16.160156 -26.25 18.453125 -26.25 L 18.453125 -21.6875 C 18.191406 -21.71875 17.832031 -21.734375 17.375 -21.734375 C 14.820312 -21.734375 12.816406 -20.972656 11.359375 -19.453125 C 9.898438 -17.929688 9.171875 -15.765625 9.171875 -12.953125 L 9.171875 0 L 4.46875 0 L 4.46875 -26.015625 L 8.984375 -26.015625 Z M 8.984375 -21.640625 "/></g></g></g><g fill="#1f117b" fill-opacity="1"><g transform="translate(406.244409, 753.811645)"><g/></g></g><g fill="#1f117b" fill-opacity="1"><g transform="translate(419.443898, 753.811645)"><g><path d="M 11.96875 -30.078125 L 0.203125 -30.078125 L 0.203125 -34.359375 L 28.609375 -34.359375 L 28.609375 -30.078125 L 16.828125 -30.078125 L 16.828125 0 L 11.96875 0 Z M 11.96875 -30.078125 "/></g></g></g><g fill="#1f117b" fill-opacity="1"><g transform="translate(448.247238, 753.811645)"><g><path d="M 8.984375 -21.640625 C 9.796875 -23.148438 11.003906 -24.296875 12.609375 -25.078125 C 14.210938 -25.859375 16.160156 -26.25 18.453125 -26.25 L 18.453125 -21.6875 C 18.191406 -21.71875 17.832031 -21.734375 17.375 -21.734375 C 14.820312 -21.734375 12.816406 -20.972656 11.359375 -19.453125 C 9.898438 -17.929688 9.171875 -15.765625 9.171875 -12.953125 L 9.171875 0 L 4.46875 0 L 4.46875 -26.015625 L 8.984375 -26.015625 Z M 8.984375 -21.640625 "/></g></g></g><g fill="#1f117b" fill-opacity="1"><g transform="translate(468.365405, 753.811645)"><g><path d="M 13.9375 -26.25 C 17.539062 -26.25 20.296875 -25.363281 22.203125 -23.59375 C 24.117188 -21.832031 25.078125 -19.203125 25.078125 -15.703125 L 25.078125 0 L 20.609375 0 L 20.609375 -3.4375 C 19.828125 -2.226562 18.707031 -1.300781 17.25 -0.65625 C 15.789062 -0.0195312 14.066406 0.296875 12.078125 0.296875 C 9.160156 0.296875 6.828125 -0.40625 5.078125 -1.8125 C 3.328125 -3.21875 2.453125 -5.066406 2.453125 -7.359375 C 2.453125 -9.648438 3.285156 -11.488281 4.953125 -12.875 C 6.617188 -14.269531 9.269531 -14.96875 12.90625 -14.96875 L 20.375 -14.96875 L 20.375 -15.90625 C 20.375 -17.925781 19.78125 -19.476562 18.59375 -20.5625 C 17.414062 -21.644531 15.679688 -22.1875 13.390625 -22.1875 C 11.859375 -22.1875 10.351562 -21.929688 8.875 -21.421875 C 7.40625 -20.910156 6.164062 -20.234375 5.15625 -19.390625 L 3.1875 -22.921875 C 4.53125 -24.003906 6.132812 -24.828125 8 -25.390625 C 9.863281 -25.960938 11.84375 -26.25 13.9375 -26.25 Z M 12.859375 -3.34375 C 14.660156 -3.34375 16.210938 -3.738281 17.515625 -4.53125 C 18.828125 -5.332031 19.78125 -6.472656 20.375 -7.953125 L 20.375 -11.578125 L 13.109375 -11.578125 C 9.109375 -11.578125 7.109375 -10.238281 7.109375 -7.5625 C 7.109375 -6.25 7.613281 -5.21875 8.625 -4.46875 C 9.644531 -3.71875 11.054688 -3.34375 12.859375 -3.34375 Z M 12.859375 -3.34375 "/></g></g></g><g fill="#1f117b" fill-opacity="1"><g transform="translate(497.708489, 753.811645)"><g><path d="M 18.359375 -26.25 C 21.660156 -26.25 24.285156 -25.289062 26.234375 -23.375 C 28.179688 -21.46875 29.15625 -18.664062 29.15625 -14.96875 L 29.15625 0 L 24.4375 0 L 24.4375 -14.421875 C 24.4375 -16.941406 23.832031 -18.835938 22.625 -20.109375 C 21.414062 -21.390625 19.679688 -22.03125 17.421875 -22.03125 C 14.867188 -22.03125 12.851562 -21.285156 11.375 -19.796875 C 9.90625 -18.304688 9.171875 -16.171875 9.171875 -13.390625 L 9.171875 0 L 4.46875 0 L 4.46875 -26.015625 L 8.984375 -26.015625 L 8.984375 -22.078125 C 9.929688 -23.421875 11.210938 -24.453125 12.828125 -25.171875 C 14.453125 -25.890625 16.296875 -26.25 18.359375 -26.25 Z M 18.359375 -26.25 "/></g></g></g><g fill="#1f117b" fill-opacity="1"><g transform="translate(531.124267, 753.811645)"><g><path d="M 11.921875 0.296875 C 9.796875 0.296875 7.75 0.0078125 5.78125 -0.5625 C 3.820312 -1.132812 2.285156 -1.863281 1.171875 -2.75 L 3.140625 -6.484375 C 4.285156 -5.660156 5.675781 -5.003906 7.3125 -4.515625 C 8.945312 -4.023438 10.597656 -3.78125 12.265625 -3.78125 C 16.390625 -3.78125 18.453125 -4.957031 18.453125 -7.3125 C 18.453125 -8.09375 18.171875 -8.710938 17.609375 -9.171875 C 17.054688 -9.628906 16.363281 -9.960938 15.53125 -10.171875 C 14.695312 -10.390625 13.507812 -10.628906 11.96875 -10.890625 C 9.875 -11.222656 8.164062 -11.597656 6.84375 -12.015625 C 5.519531 -12.441406 4.382812 -13.160156 3.4375 -14.171875 C 2.488281 -15.191406 2.015625 -16.617188 2.015625 -18.453125 C 2.015625 -20.804688 2.992188 -22.691406 4.953125 -24.109375 C 6.921875 -25.535156 9.554688 -26.25 12.859375 -26.25 C 14.585938 -26.25 16.316406 -26.035156 18.046875 -25.609375 C 19.785156 -25.191406 21.210938 -24.625 22.328125 -23.90625 L 20.3125 -20.171875 C 18.1875 -21.546875 15.6875 -22.234375 12.8125 -22.234375 C 10.8125 -22.234375 9.285156 -21.90625 8.234375 -21.25 C 7.191406 -20.59375 6.671875 -19.726562 6.671875 -18.65625 C 6.671875 -17.800781 6.960938 -17.128906 7.546875 -16.640625 C 8.140625 -16.148438 8.867188 -15.789062 9.734375 -15.5625 C 10.609375 -15.332031 11.828125 -15.066406 13.390625 -14.765625 C 15.492188 -14.410156 17.191406 -14.023438 18.484375 -13.609375 C 19.773438 -13.203125 20.878906 -12.507812 21.796875 -11.53125 C 22.710938 -10.550781 23.171875 -9.175781 23.171875 -7.40625 C 23.171875 -5.050781 22.160156 -3.175781 20.140625 -1.78125 C 18.128906 -0.394531 15.390625 0.296875 11.921875 0.296875 Z M 11.921875 0.296875 "/></g></g></g><g fill="#1f117b" fill-opacity="1"><g transform="translate(555.707691, 753.811645)"><g><path d="M 13.9375 -26.25 C 17.539062 -26.25 20.296875 -25.363281 22.203125 -23.59375 C 24.117188 -21.832031 25.078125 -19.203125 25.078125 -15.703125 L 25.078125 0 L 20.609375 0 L 20.609375 -3.4375 C 19.828125 -2.226562 18.707031 -1.300781 17.25 -0.65625 C 15.789062 -0.0195312 14.066406 0.296875 12.078125 0.296875 C 9.160156 0.296875 6.828125 -0.40625 5.078125 -1.8125 C 3.328125 -3.21875 2.453125 -5.066406 2.453125 -7.359375 C 2.453125 -9.648438 3.285156 -11.488281 4.953125 -12.875 C 6.617188 -14.269531 9.269531 -14.96875 12.90625 -14.96875 L 20.375 -14.96875 L 20.375 -15.90625 C 20.375 -17.925781 19.78125 -19.476562 18.59375 -20.5625 C 17.414062 -21.644531 15.679688 -22.1875 13.390625 -22.1875 C 11.859375 -22.1875 10.351562 -21.929688 8.875 -21.421875 C 7.40625 -20.910156 6.164062 -20.234375 5.15625 -19.390625 L 3.1875 -22.921875 C 4.53125 -24.003906 6.132812 -24.828125 8 -25.390625 C 9.863281 -25.960938 11.84375 -26.25 13.9375 -26.25 Z M 12.859375 -3.34375 C 14.660156 -3.34375 16.210938 -3.738281 17.515625 -4.53125 C 18.828125 -5.332031 19.78125 -6.472656 20.375 -7.953125 L 20.375 -11.578125 L 13.109375 -11.578125 C 9.109375 -11.578125 7.109375 -10.238281 7.109375 -7.5625 C 7.109375 -6.25 7.613281 -5.21875 8.625 -4.46875 C 9.644531 -3.71875 11.054688 -3.34375 12.859375 -3.34375 Z M 12.859375 -3.34375 "/></g></g></g><g fill="#1f117b" fill-opacity="1"><g transform="translate(585.050776, 753.811645)"><g><path d="M 15.796875 0.296875 C 13.148438 0.296875 10.785156 -0.273438 8.703125 -1.421875 C 6.628906 -2.566406 5.003906 -4.144531 3.828125 -6.15625 C 2.648438 -8.164062 2.0625 -10.445312 2.0625 -13 C 2.0625 -15.550781 2.648438 -17.832031 3.828125 -19.84375 C 5.003906 -21.863281 6.628906 -23.4375 8.703125 -24.5625 C 10.785156 -25.6875 13.148438 -26.25 15.796875 -26.25 C 18.160156 -26.25 20.265625 -25.773438 22.109375 -24.828125 C 23.953125 -23.878906 25.382812 -22.507812 26.40625 -20.71875 L 22.828125 -18.40625 C 22.003906 -19.644531 20.988281 -20.578125 19.78125 -21.203125 C 18.570312 -21.828125 17.226562 -22.140625 15.75 -22.140625 C 14.050781 -22.140625 12.519531 -21.757812 11.15625 -21 C 9.800781 -20.25 8.738281 -19.175781 7.96875 -17.78125 C 7.207031 -16.394531 6.828125 -14.800781 6.828125 -13 C 6.828125 -11.164062 7.207031 -9.550781 7.96875 -8.15625 C 8.738281 -6.769531 9.800781 -5.703125 11.15625 -4.953125 C 12.519531 -4.203125 14.050781 -3.828125 15.75 -3.828125 C 17.226562 -3.828125 18.570312 -4.132812 19.78125 -4.75 C 20.988281 -5.375 22.003906 -6.3125 22.828125 -7.5625 L 26.40625 -5.296875 C 25.382812 -3.492188 23.953125 -2.109375 22.109375 -1.140625 C 20.265625 -0.179688 18.160156 0.296875 15.796875 0.296875 Z M 15.796875 0.296875 "/></g></g></g><g fill="#1f117b" fill-opacity="1"><g transform="translate(613.068989, 753.811645)"><g><path d="M 19.09375 -1.515625 C 18.40625 -0.929688 17.550781 -0.484375 16.53125 -0.171875 C 15.519531 0.140625 14.472656 0.296875 13.390625 0.296875 C 10.773438 0.296875 8.75 -0.40625 7.3125 -1.8125 C 5.875 -3.21875 5.15625 -5.234375 5.15625 -7.859375 L 5.15625 -22.140625 L 0.734375 -22.140625 L 0.734375 -26.015625 L 5.15625 -26.015625 L 5.15625 -31.703125 L 9.859375 -31.703125 L 9.859375 -26.015625 L 17.328125 -26.015625 L 17.328125 -22.140625 L 9.859375 -22.140625 L 9.859375 -8.046875 C 9.859375 -6.640625 10.207031 -5.5625 10.90625 -4.8125 C 11.613281 -4.0625 12.625 -3.6875 13.9375 -3.6875 C 15.375 -3.6875 16.601562 -4.09375 17.625 -4.90625 Z M 19.09375 -1.515625 "/></g></g></g><g fill="#1f117b" fill-opacity="1"><g transform="translate(633.383438, 753.811645)"><g><path d="M 4.46875 -26.015625 L 9.171875 -26.015625 L 9.171875 0 L 4.46875 0 Z M 6.828125 -31.015625 C 5.910156 -31.015625 5.148438 -31.304688 4.546875 -31.890625 C 3.941406 -32.484375 3.640625 -33.207031 3.640625 -34.0625 C 3.640625 -34.914062 3.941406 -35.644531 4.546875 -36.25 C 5.148438 -36.851562 5.910156 -37.15625 6.828125 -37.15625 C 7.742188 -37.15625 8.503906 -36.867188 9.109375 -36.296875 C 9.710938 -35.722656 10.015625 -35.007812 10.015625 -34.15625 C 10.015625 -33.269531 9.710938 -32.523438 9.109375 -31.921875 C 8.503906 -31.316406 7.742188 -31.015625 6.828125 -31.015625 Z M 6.828125 -31.015625 "/></g></g></g><g fill="#1f117b" fill-opacity="1"><g transform="translate(647.073612, 753.811645)"><g><path d="M 15.609375 0.296875 C 13.023438 0.296875 10.703125 -0.273438 8.640625 -1.421875 C 6.578125 -2.566406 4.960938 -4.144531 3.796875 -6.15625 C 2.640625 -8.164062 2.0625 -10.445312 2.0625 -13 C 2.0625 -15.550781 2.640625 -17.832031 3.796875 -19.84375 C 4.960938 -21.863281 6.578125 -23.4375 8.640625 -24.5625 C 10.703125 -25.6875 13.023438 -26.25 15.609375 -26.25 C 18.191406 -26.25 20.503906 -25.6875 22.546875 -24.5625 C 24.597656 -23.4375 26.203125 -21.863281 27.359375 -19.84375 C 28.523438 -17.832031 29.109375 -15.550781 29.109375 -13 C 29.109375 -10.445312 28.523438 -8.164062 27.359375 -6.15625 C 26.203125 -4.144531 24.597656 -2.566406 22.546875 -1.421875 C 20.503906 -0.273438 18.191406 0.296875 15.609375 0.296875 Z M 15.609375 -3.828125 C 17.273438 -3.828125 18.769531 -4.210938 20.09375 -4.984375 C 21.414062 -5.753906 22.453125 -6.832031 23.203125 -8.21875 C 23.960938 -9.613281 24.34375 -11.207031 24.34375 -13 C 24.34375 -14.800781 23.960938 -16.394531 23.203125 -17.78125 C 22.453125 -19.175781 21.414062 -20.25 20.09375 -21 C 18.769531 -21.757812 17.273438 -22.140625 15.609375 -22.140625 C 13.941406 -22.140625 12.441406 -21.757812 11.109375 -21 C 9.785156 -20.25 8.738281 -19.175781 7.96875 -17.78125 C 7.207031 -16.394531 6.828125 -14.800781 6.828125 -13 C 6.828125 -11.207031 7.207031 -9.613281 7.96875 -8.21875 C 8.738281 -6.832031 9.785156 -5.753906 11.109375 -4.984375 C 12.441406 -4.210938 13.941406 -3.828125 15.609375 -3.828125 Z M 15.609375 -3.828125 "/></g></g></g><g fill="#1f117b" fill-opacity="1"><g transform="translate(678.232251, 753.811645)"><g><path d="M 18.359375 -26.25 C 21.660156 -26.25 24.285156 -25.289062 26.234375 -23.375 C 28.179688 -21.46875 29.15625 -18.664062 29.15625 -14.96875 L 29.15625 0 L 24.4375 0 L 24.4375 -14.421875 C 24.4375 -16.941406 23.832031 -18.835938 22.625 -20.109375 C 21.414062 -21.390625 19.679688 -22.03125 17.421875 -22.03125 C 14.867188 -22.03125 12.851562 -21.285156 11.375 -19.796875 C 9.90625 -18.304688 9.171875 -16.171875 9.171875 -13.390625 L 9.171875 0 L 4.46875 0 L 4.46875 -26.015625 L 8.984375 -26.015625 L 8.984375 -22.078125 C 9.929688 -23.421875 11.210938 -24.453125 12.828125 -25.171875 C 14.453125 -25.890625 16.296875 -26.25 18.359375 -26.25 Z M 18.359375 -26.25 "/></g></g></g></svg>