<svg xmlns="http://www.w3.org/2000/svg" xmlns:xlink="http://www.w3.org/1999/xlink" width="1080" zoomAndPan="magnify" viewBox="0 0 810 809.999993" height="1080" preserveAspectRatio="xMidYMid meet" version="1.0"><defs><clipPath id="19960715a2"><path d="M 54.027344 229 L 205 229 L 205 576 L 54.027344 576 Z M 54.027344 229 " clip-rule="nonzero"/></clipPath><clipPath id="907c9980c9"><path d="M 54.027344 228 L 205 228 L 205 576 L 54.027344 576 Z M 54.027344 228 " clip-rule="nonzero"/></clipPath><clipPath id="654a4aeb71"><path d="M 210 552 L 441 552 L 441 757.105469 L 210 757.105469 Z M 210 552 " clip-rule="nonzero"/></clipPath></defs><path fill="#8c7bff" d="M 752.171875 102.203125 L 309.308594 102.203125 L 309.308594 58.707031 L 752.171875 58.707031 L 752.171875 102.203125 " fill-opacity="1" fill-rule="nonzero"/><path fill="#ffffff" d="M 738.746094 80.304688 C 738.746094 85.605469 734.449219 89.910156 729.144531 89.910156 C 723.839844 89.910156 719.542969 85.605469 719.542969 80.304688 C 719.542969 75.003906 723.839844 70.703125 729.144531 70.703125 C 734.449219 70.703125 738.746094 75.003906 738.746094 80.304688 " fill-opacity="1" fill-rule="nonzero"/><path fill="#ffffff" d="M 707.164062 80.304688 C 707.164062 85.605469 702.867188 89.910156 697.5625 89.910156 C 692.257812 89.910156 687.960938 85.605469 687.960938 80.304688 C 687.960938 75.003906 692.257812 70.703125 697.5625 70.703125 C 702.867188 70.703125 707.164062 75.003906 707.164062 80.304688 " fill-opacity="1" fill-rule="nonzero"/><path fill="#ffffff" d="M 675.585938 80.304688 C 675.585938 85.605469 671.285156 89.910156 665.980469 89.910156 C 660.679688 89.910156 656.378906 85.605469 656.378906 80.304688 C 656.378906 75.003906 660.679688 70.703125 665.980469 70.703125 C 671.285156 70.703125 675.585938 75.003906 675.585938 80.304688 " fill-opacity="1" fill-rule="nonzero"/><path fill="#000000" d="M 310.148438 356.066406 L 751.332031 356.066406 L 751.332031 59.550781 L 310.148438 59.550781 Z M 752.171875 357.75 L 309.308594 357.75 C 308.84375 357.75 308.464844 357.375 308.464844 356.90625 L 308.464844 58.707031 C 308.464844 58.246094 308.84375 57.867188 309.308594 57.867188 L 752.171875 57.867188 C 752.640625 57.867188 753.019531 58.246094 753.019531 58.707031 L 753.019531 356.90625 C 753.019531 357.375 752.640625 357.75 752.171875 357.75 " fill-opacity="1" fill-rule="nonzero"/><path fill="#fed101" d="M 609.949219 203.25 C 624.765625 205.089844 636.503906 216.828125 638.34375 231.644531 L 721.632812 231.644531 C 719.53125 170.917969 670.683594 122.074219 609.949219 119.972656 L 609.949219 203.25 " fill-opacity="1" fill-rule="nonzero"/><path fill="#fda4ff" d="M 675.445312 292.738281 C 687.847656 277.878906 695.554688 258.96875 696.273438 238.277344 L 631.558594 238.277344 C 631.039062 242.445312 629.507812 246.300781 627.21875 249.59375 L 675.445312 292.738281 " fill-opacity="1" fill-rule="nonzero"/><path fill="#fcb503" d="M 589.609375 215.953125 C 593.328125 212.707031 598.003906 210.519531 603.15625 209.878906 L 603.15625 145.171875 C 578.898438 146.011719 557.078125 156.457031 541.378906 172.8125 L 589.609375 215.953125 " fill-opacity="1" fill-rule="nonzero"/><path fill="#8c7bff" d="M 622.984375 254.316406 C 618.527344 258.1875 612.703125 260.539062 606.324219 260.539062 C 600.9375 260.539062 595.941406 258.855469 591.828125 255.996094 L 548.679688 304.21875 C 564.296875 317.253906 584.394531 325.101562 606.324219 325.101562 C 631.824219 325.101562 654.839844 314.496094 671.21875 297.457031 L 622.984375 254.316406 " fill-opacity="1" fill-rule="nonzero"/><path fill="#ffffff" d="M 543.960938 299.988281 L 587.113281 251.761719 C 583.242188 247.300781 580.890625 241.476562 580.890625 235.105469 C 580.890625 229.742188 582.554688 224.777344 585.386719 220.675781 L 537.152344 177.53125 C 524.148438 193.136719 516.320312 213.207031 516.320312 235.105469 C 516.320312 260.597656 526.921875 283.613281 543.960938 299.988281 " fill-opacity="1" fill-rule="nonzero"/><path fill="#000000" d="M 537.246094 178.746094 C 524.289062 194.605469 517.164062 214.585938 517.164062 235.105469 C 517.164062 259.292969 526.65625 281.867188 543.917969 298.773438 L 585.996094 251.742188 C 582.15625 247.054688 580.050781 241.179688 580.050781 235.105469 C 580.050781 230 581.511719 225.074219 584.277344 220.820312 Z M 543.960938 300.828125 C 543.742188 300.828125 543.53125 300.746094 543.375 300.59375 C 525.386719 283.304688 515.480469 260.046875 515.480469 235.105469 C 515.480469 213.902344 522.945312 193.261719 536.507812 176.992188 C 536.652344 176.820312 536.867188 176.710938 537.089844 176.691406 C 537.316406 176.679688 537.546875 176.753906 537.714844 176.90625 L 585.945312 220.050781 C 586.265625 220.335938 586.316406 220.808594 586.078125 221.15625 C 583.234375 225.269531 581.734375 230.097656 581.734375 235.105469 C 581.734375 241.019531 583.867188 246.738281 587.75 251.207031 C 588.027344 251.527344 588.019531 252.007812 587.738281 252.324219 L 544.589844 300.550781 C 544.433594 300.722656 544.222656 300.820312 543.992188 300.828125 C 543.980469 300.828125 543.972656 300.828125 543.960938 300.828125 " fill-opacity="1" fill-rule="nonzero"/><path fill="#fda4ff" d="M 330.253906 210.25 C 333.464844 195.269531 349.15625 181.46875 359.699219 183.691406 C 368.261719 185.496094 368.144531 196.746094 375.433594 197.339844 C 385.210938 198.132812 390.617188 178.265625 400.441406 178.894531 C 408.972656 179.441406 410.546875 194.777344 418.1875 195.125 C 428.800781 195.609375 433.824219 166.410156 446.425781 165.984375 C 455.851562 165.667969 459.40625 181.804688 469.011719 182.210938 C 475.507812 182.492188 484.308594 175.558594 495.636719 147.910156 C 495.636719 171.894531 495.636719 195.878906 495.636719 219.863281 C 440.371094 219.863281 385.105469 219.863281 329.84375 219.863281 C 329.558594 217.53125 329.414062 214.15625 330.253906 210.25 " fill-opacity="1" fill-rule="nonzero"/><path fill="#000000" d="M 329.621094 187.75 C 329.152344 187.75 328.78125 187.375 328.78125 186.910156 L 328.78125 130.675781 C 328.78125 130.210938 329.152344 129.835938 329.621094 129.835938 L 406.015625 129.835938 C 406.480469 129.835938 406.855469 130.210938 406.855469 130.675781 C 406.855469 131.144531 406.480469 131.519531 406.015625 131.519531 L 330.464844 131.519531 L 330.464844 186.910156 C 330.464844 187.375 330.085938 187.75 329.621094 187.75 " fill-opacity="1" fill-rule="nonzero"/><path fill="#000000" d="M 495.636719 220.703125 L 418.1875 220.703125 C 417.726562 220.703125 417.347656 220.328125 417.347656 219.863281 C 417.347656 219.398438 417.726562 219.019531 418.1875 219.019531 L 494.792969 219.019531 L 494.792969 147.910156 C 494.792969 147.441406 495.171875 147.070312 495.636719 147.070312 C 496.097656 147.070312 496.476562 147.441406 496.476562 147.910156 L 496.476562 219.863281 C 496.476562 220.328125 496.097656 220.703125 495.636719 220.703125 " fill-opacity="1" fill-rule="nonzero"/><path fill="#fed101" d="M 329.621094 312.796875 C 329.347656 312.796875 329.085938 312.667969 328.921875 312.429688 C 328.660156 312.042969 328.765625 311.519531 329.152344 311.257812 L 359.0625 291.140625 C 359.429688 290.890625 359.921875 290.972656 360.191406 291.316406 L 372.664062 307.164062 L 404.371094 281.003906 C 404.699219 280.734375 405.183594 280.746094 405.492188 281.046875 L 426.164062 300.871094 L 440.484375 287.363281 C 440.789062 287.078125 441.265625 287.058594 441.59375 287.324219 L 453.328125 296.792969 L 470.738281 275.8125 C 470.882812 275.636719 471.097656 275.527344 471.324219 275.511719 C 471.558594 275.492188 471.777344 275.570312 471.949219 275.722656 L 481.753906 284.570312 L 495.003906 269.351562 C 495.304688 269 495.835938 268.964844 496.1875 269.269531 C 496.539062 269.574219 496.578125 270.109375 496.273438 270.457031 L 482.460938 286.320312 C 482.316406 286.492188 482.101562 286.59375 481.878906 286.605469 C 481.65625 286.625 481.433594 286.542969 481.265625 286.390625 L 471.472656 277.5625 L 454.089844 298.503906 C 453.796875 298.859375 453.273438 298.910156 452.914062 298.621094 L 441.105469 289.097656 L 426.730469 302.648438 C 426.40625 302.953125 425.894531 302.949219 425.574219 302.640625 L 404.863281 282.78125 L 373.070312 309.007812 C 372.898438 309.152344 372.671875 309.21875 372.445312 309.195312 C 372.222656 309.171875 372.015625 309.058594 371.875 308.878906 L 359.351562 292.972656 L 330.089844 312.652344 C 329.945312 312.753906 329.785156 312.796875 329.621094 312.796875 " fill-opacity="1" fill-rule="nonzero"/><path fill="#4ada85" d="M 354.550781 308.648438 C 354.351562 308.648438 354.148438 308.578125 353.988281 308.433594 L 329.058594 286.023438 C 328.710938 285.710938 328.683594 285.179688 328.996094 284.835938 C 329.308594 284.488281 329.839844 284.460938 330.183594 284.769531 L 354.585938 306.703125 L 387.234375 280.992188 C 387.582031 280.71875 388.082031 280.761719 388.378906 281.09375 L 400.835938 295.011719 L 443.09375 258.476562 C 443.265625 258.328125 443.496094 258.261719 443.714844 258.277344 C 443.945312 258.292969 444.152344 258.40625 444.296875 258.582031 L 455.90625 272.828125 L 495.0625 236.441406 C 495.40625 236.125 495.933594 236.148438 496.253906 236.488281 C 496.570312 236.828125 496.550781 237.359375 496.210938 237.675781 L 456.390625 274.667969 C 456.222656 274.832031 455.996094 274.910156 455.761719 274.894531 C 455.527344 274.878906 455.3125 274.765625 455.167969 274.585938 L 443.542969 260.320312 L 401.308594 296.824219 C 400.964844 297.121094 400.4375 297.09375 400.128906 296.75 L 387.65625 282.804688 L 355.074219 308.464844 C 354.921875 308.589844 354.734375 308.648438 354.550781 308.648438 " fill-opacity="1" fill-rule="nonzero"/><path fill="#000000" d="M 418.1875 327.089844 L 329.621094 327.089844 C 329.152344 327.089844 328.78125 326.714844 328.78125 326.246094 L 328.78125 261.054688 C 328.78125 260.585938 329.152344 260.210938 329.621094 260.210938 C 330.085938 260.210938 330.464844 260.585938 330.464844 261.054688 L 330.464844 325.40625 L 418.1875 325.40625 C 418.652344 325.40625 419.035156 325.78125 419.035156 326.246094 C 419.035156 326.714844 418.652344 327.089844 418.1875 327.089844 " fill-opacity="1" fill-rule="nonzero"/><path fill="#000000" d="M 495.636719 306.433594 C 495.171875 306.433594 494.792969 306.058594 494.792969 305.59375 L 494.792969 237.902344 L 399.652344 237.902344 C 399.1875 237.902344 398.808594 237.527344 398.808594 237.0625 C 398.808594 236.59375 399.1875 236.214844 399.652344 236.214844 L 495.636719 236.214844 C 496.097656 236.214844 496.476562 236.59375 496.476562 237.0625 L 496.476562 305.59375 C 496.476562 306.058594 496.097656 306.433594 495.636719 306.433594 " fill-opacity="1" fill-rule="nonzero"/><path fill="#fda4ff" d="M 277.03125 624.765625 L 227.257812 624.765625 L 244.953125 518.503906 L 294.722656 518.503906 L 277.03125 624.765625 " fill-opacity="1" fill-rule="nonzero"/><path fill="#000000" d="M 285.292969 575.144531 L 231.429688 599.710938 L 244.953125 518.503906 L 294.722656 518.503906 L 285.292969 575.144531 " fill-opacity="1" fill-rule="nonzero"/><path fill="#ffffff" d="M 363.480469 642.472656 L 221.066406 642.472656 L 227.257812 599.710938 L 283.441406 599.710938 L 321.921875 612.0625 L 329.910156 612.679688 C 348.945312 614.148438 363.480469 627.042969 363.480469 642.472656 " fill-opacity="1" fill-rule="nonzero"/><path fill="#000000" d="M 222.039062 641.628906 L 362.625 641.628906 C 362.109375 626.945312 348.191406 614.933594 329.847656 613.519531 L 321.855469 612.90625 C 321.789062 612.902344 321.726562 612.886719 321.660156 612.867188 L 283.308594 600.558594 L 227.988281 600.558594 Z M 363.480469 643.3125 L 221.066406 643.3125 C 220.820312 643.3125 220.589844 643.203125 220.429688 643.019531 C 220.269531 642.835938 220.199219 642.589844 220.230469 642.351562 L 226.425781 599.59375 C 226.484375 599.179688 226.839844 598.871094 227.257812 598.871094 L 283.441406 598.871094 C 283.53125 598.871094 283.617188 598.882812 283.699219 598.910156 L 322.082031 611.234375 L 329.976562 611.84375 C 349.554688 613.351562 364.324219 626.515625 364.324219 642.472656 C 364.324219 642.933594 363.945312 643.3125 363.480469 643.3125 " fill-opacity="1" fill-rule="nonzero"/><path fill="#ffffff" d="M 367.449219 652.988281 L 216.195312 652.988281 L 216.195312 642.472656 L 366.566406 642.472656 L 367.449219 652.988281 " fill-opacity="1" fill-rule="nonzero"/><path fill="#000000" d="M 217.035156 652.144531 L 366.535156 652.144531 L 365.792969 643.3125 L 217.035156 643.3125 Z M 367.449219 653.828125 L 216.195312 653.828125 C 215.730469 653.828125 215.351562 653.453125 215.351562 652.988281 L 215.351562 642.472656 C 215.351562 642.003906 215.730469 641.628906 216.195312 641.628906 L 366.566406 641.628906 C 367 641.628906 367.367188 641.964844 367.402344 642.398438 L 368.289062 652.917969 C 368.308594 653.152344 368.226562 653.382812 368.070312 653.558594 C 367.910156 653.730469 367.6875 653.828125 367.449219 653.828125 " fill-opacity="1" fill-rule="nonzero"/><path fill="#ffffff" d="M 312.878906 609.160156 L 303.695312 619.871094 L 312.878906 609.160156 " fill-opacity="1" fill-rule="nonzero"/><path fill="#000000" d="M 303.695312 620.714844 C 303.5 620.714844 303.308594 620.644531 303.148438 620.511719 C 302.792969 620.207031 302.753906 619.675781 303.054688 619.320312 L 312.238281 608.613281 C 312.542969 608.261719 313.070312 608.21875 313.421875 608.523438 C 313.777344 608.824219 313.816406 609.355469 313.515625 609.710938 L 304.335938 620.417969 C 304.167969 620.613281 303.933594 620.714844 303.695312 620.714844 " fill-opacity="1" fill-rule="nonzero"/><path fill="#ffffff" d="M 304.027344 606.507812 L 294.847656 617.21875 L 304.027344 606.507812 " fill-opacity="1" fill-rule="nonzero"/><path fill="#000000" d="M 294.847656 618.0625 C 294.652344 618.0625 294.457031 617.992188 294.300781 617.859375 C 293.949219 617.554688 293.90625 617.023438 294.210938 616.671875 L 303.390625 605.960938 C 303.691406 605.613281 304.226562 605.570312 304.578125 605.871094 C 304.929688 606.171875 304.972656 606.703125 304.667969 607.058594 L 295.488281 617.769531 C 295.320312 617.960938 295.085938 618.0625 294.847656 618.0625 " fill-opacity="1" fill-rule="nonzero"/><path fill="#ffffff" d="M 295.183594 603.859375 L 286 614.566406 L 295.183594 603.859375 " fill-opacity="1" fill-rule="nonzero"/><path fill="#000000" d="M 286 615.410156 C 285.808594 615.410156 285.613281 615.34375 285.453125 615.207031 C 285.101562 614.902344 285.058594 614.371094 285.363281 614.019531 L 294.542969 603.3125 C 294.847656 602.960938 295.378906 602.917969 295.730469 603.21875 C 296.085938 603.519531 296.125 604.050781 295.820312 604.40625 L 286.640625 615.117188 C 286.476562 615.308594 286.238281 615.410156 286 615.410156 " fill-opacity="1" fill-rule="nonzero"/><path fill="#fda4ff" d="M 143.441406 624.765625 L 93.667969 624.765625 L 111.363281 518.503906 L 161.132812 518.503906 L 143.441406 624.765625 " fill-opacity="1" fill-rule="nonzero"/><path fill="#000000" d="M 151.703125 575.144531 L 97.839844 599.710938 L 111.363281 518.503906 L 161.132812 518.503906 L 151.703125 575.144531 " fill-opacity="1" fill-rule="nonzero"/><path fill="#ffffff" d="M 230.773438 642.472656 L 88.359375 642.472656 L 94.554688 599.710938 L 150.738281 599.710938 L 189.214844 612.0625 L 197.207031 612.679688 C 216.238281 614.148438 230.773438 627.042969 230.773438 642.472656 " fill-opacity="1" fill-rule="nonzero"/><path fill="#000000" d="M 89.332031 641.628906 L 229.917969 641.628906 C 229.402344 626.945312 215.484375 614.933594 197.140625 613.519531 L 189.148438 612.90625 C 189.082031 612.902344 189.019531 612.886719 188.957031 612.867188 L 150.605469 600.558594 L 95.28125 600.558594 Z M 230.773438 643.3125 L 88.359375 643.3125 C 88.117188 643.3125 87.882812 643.203125 87.722656 643.019531 C 87.5625 642.835938 87.492188 642.589844 87.527344 642.351562 L 93.71875 599.59375 C 93.78125 599.179688 94.136719 598.871094 94.554688 598.871094 L 150.738281 598.871094 C 150.824219 598.871094 150.910156 598.882812 150.992188 598.910156 L 189.378906 611.234375 L 197.269531 611.84375 C 216.851562 613.351562 231.617188 626.515625 231.617188 642.472656 C 231.617188 642.933594 231.238281 643.3125 230.773438 643.3125 " fill-opacity="1" fill-rule="nonzero"/><path fill="#ffffff" d="M 234.746094 652.988281 L 83.488281 652.988281 L 83.488281 642.472656 L 233.859375 642.472656 L 234.746094 652.988281 " fill-opacity="1" fill-rule="nonzero"/><path fill="#000000" d="M 84.332031 652.144531 L 233.828125 652.144531 L 233.085938 643.3125 L 84.332031 643.3125 Z M 234.746094 653.828125 L 83.488281 653.828125 C 83.023438 653.828125 82.648438 653.453125 82.648438 652.988281 L 82.648438 642.472656 C 82.648438 642.003906 83.023438 641.628906 83.488281 641.628906 L 233.859375 641.628906 C 234.296875 641.628906 234.664062 641.964844 234.699219 642.398438 L 235.582031 652.917969 C 235.601562 653.152344 235.523438 653.382812 235.363281 653.558594 C 235.203125 653.730469 234.980469 653.828125 234.746094 653.828125 " fill-opacity="1" fill-rule="nonzero"/><path fill="#ffffff" d="M 180.171875 609.160156 L 170.988281 619.871094 L 180.171875 609.160156 " fill-opacity="1" fill-rule="nonzero"/><path fill="#000000" d="M 170.988281 620.714844 C 170.796875 620.714844 170.601562 620.644531 170.441406 620.511719 C 170.089844 620.207031 170.046875 619.675781 170.351562 619.320312 L 179.53125 608.613281 C 179.835938 608.261719 180.367188 608.21875 180.71875 608.523438 C 181.074219 608.824219 181.113281 609.355469 180.8125 609.710938 L 171.628906 620.417969 C 171.464844 620.613281 171.226562 620.714844 170.988281 620.714844 " fill-opacity="1" fill-rule="nonzero"/><path fill="#ffffff" d="M 171.324219 606.507812 L 162.144531 617.21875 L 171.324219 606.507812 " fill-opacity="1" fill-rule="nonzero"/><path fill="#000000" d="M 162.140625 618.0625 C 161.949219 618.0625 161.753906 617.992188 161.59375 617.859375 C 161.242188 617.554688 161.203125 617.023438 161.503906 616.671875 L 170.6875 605.960938 C 170.988281 605.613281 171.519531 605.570312 171.871094 605.871094 C 172.226562 606.171875 172.265625 606.703125 171.964844 607.058594 L 162.78125 617.769531 C 162.613281 617.960938 162.378906 618.0625 162.140625 618.0625 " fill-opacity="1" fill-rule="nonzero"/><path fill="#ffffff" d="M 162.476562 603.859375 L 153.296875 614.566406 L 162.476562 603.859375 " fill-opacity="1" fill-rule="nonzero"/><path fill="#000000" d="M 153.296875 615.410156 C 153.101562 615.410156 152.90625 615.34375 152.746094 615.207031 C 152.394531 614.902344 152.355469 614.371094 152.65625 614.019531 L 161.835938 603.3125 C 162.140625 602.960938 162.671875 602.917969 163.027344 603.21875 C 163.378906 603.519531 163.417969 604.050781 163.117188 604.40625 L 153.9375 615.117188 C 153.769531 615.308594 153.53125 615.410156 153.296875 615.410156 " fill-opacity="1" fill-rule="nonzero"/><path fill="#fed101" d="M 319.070312 575.144531 L 196.457031 575.144531 L 218.265625 412.875 L 161.066406 229.113281 L 230.601562 229.113281 L 280.410156 344.554688 C 295.246094 378.941406 304.535156 415.457031 307.929688 452.746094 L 319.070312 575.144531 " fill-opacity="1" fill-rule="nonzero"/><path fill="#000000" d="M 234.746094 414.828125 L 189.890625 298.6875 L 193.324219 332.746094 L 218.265625 412.875 L 196.457031 575.144531 L 217.269531 575.144531 L 234.746094 414.828125 " fill-opacity="1" fill-rule="nonzero"/><g clip-path="url(#19960715a2)"><path fill="#fed101" d="M 177.515625 575.144531 L 54.902344 575.144531 L 143.375 229.113281 L 204.058594 229.113281 L 177.515625 575.144531 " fill-opacity="1" fill-rule="nonzero"/></g><g clip-path="url(#907c9980c9)"><path fill="#000000" d="M 55.988281 574.304688 L 176.738281 574.304688 L 203.148438 229.957031 L 144.027344 229.957031 Z M 177.515625 575.992188 L 54.902344 575.992188 C 54.644531 575.992188 54.398438 575.867188 54.238281 575.664062 C 54.078125 575.460938 54.023438 575.191406 54.085938 574.941406 L 142.558594 228.90625 C 142.652344 228.535156 142.988281 228.273438 143.375 228.273438 L 204.058594 228.273438 C 204.292969 228.273438 204.515625 228.371094 204.675781 228.542969 C 204.835938 228.71875 204.914062 228.945312 204.898438 229.179688 L 178.355469 575.210938 C 178.324219 575.648438 177.957031 575.992188 177.515625 575.992188 " fill-opacity="1" fill-rule="nonzero"/></g><path fill="#ffffff" d="M 83.488281 575.992188 C 83.429688 575.992188 83.367188 575.984375 83.304688 575.96875 C 82.851562 575.867188 82.566406 575.417969 82.667969 574.960938 L 160.246094 228.929688 C 160.347656 228.476562 160.796875 228.1875 161.253906 228.292969 C 161.707031 228.394531 161.992188 228.847656 161.890625 229.296875 L 84.3125 575.328125 C 84.222656 575.722656 83.875 575.992188 83.488281 575.992188 " fill-opacity="1" fill-rule="nonzero"/><path fill="#ffffff" d="M 92.335938 575.992188 C 92.273438 575.992188 92.214844 575.984375 92.152344 575.96875 C 91.699219 575.867188 91.414062 575.417969 91.515625 574.960938 L 169.09375 228.929688 C 169.195312 228.476562 169.644531 228.1875 170.097656 228.292969 C 170.550781 228.394531 170.835938 228.847656 170.734375 229.296875 L 93.15625 575.328125 C 93.070312 575.722656 92.722656 575.992188 92.335938 575.992188 " fill-opacity="1" fill-rule="nonzero"/><path fill="#000000" d="M 207.597656 91.140625 C 207.597656 101.019531 199.582031 109.027344 189.695312 109.027344 C 179.808594 109.027344 171.796875 101.019531 171.796875 91.140625 C 171.796875 81.261719 179.808594 73.257812 189.695312 73.257812 C 199.582031 73.257812 207.597656 81.261719 207.597656 91.140625 " fill-opacity="1" fill-rule="nonzero"/><path fill="#fda4ff" d="M 178.65625 136.636719 L 198.738281 136.636719 L 198.738281 106.042969 L 178.65625 106.042969 L 178.65625 136.636719 " fill-opacity="1" fill-rule="nonzero"/><path fill="#000000" d="M 178.65625 113.652344 L 178.65625 106.042969 L 198.738281 106.042969 L 198.738281 122.832031 C 196.921875 123.191406 193.3125 123.648438 189.164062 122.28125 C 182.675781 120.144531 179.484375 115.070312 178.65625 113.652344 " fill-opacity="1" fill-rule="nonzero"/><path fill="#fda4ff" d="M 203.765625 86.964844 L 203.464844 86.964844 L 203.464844 94.539062 L 179.328125 94.539062 L 179.328125 86.964844 L 179.070312 86.964844 C 176.703125 90.066406 175.269531 94.070312 175.269531 98.445312 C 175.269531 108.292969 182.496094 116.277344 191.417969 116.277344 C 200.335938 116.277344 207.566406 108.292969 207.566406 98.445312 C 207.566406 94.070312 206.132812 90.066406 203.765625 86.964844 " fill-opacity="1" fill-rule="nonzero"/><path fill="#ffffff" d="M 184.398438 106.277344 C 185.960938 107.703125 187.96875 108.667969 190.238281 108.898438 C 195.292969 109.414062 199.851562 106.128906 201.105469 101.371094 L 184.398438 106.277344 " fill-opacity="1" fill-rule="nonzero"/><path fill="#000000" d="M 169.714844 59.433594 C 149.433594 52.886719 124.128906 74.964844 113.203125 108.746094 C 110.449219 117.253906 108.878906 125.683594 108.382812 133.65625 L 122.347656 133.65625 C 122.9375 131.265625 123.621094 128.867188 124.398438 126.460938 C 135.328125 92.675781 160.628906 70.597656 180.914062 77.144531 C 183.761719 78.066406 186.363281 79.507812 188.695312 81.390625 C 185.203125 70.386719 178.710938 62.335938 169.714844 59.433594 " fill-opacity="1" fill-rule="nonzero"/><path fill="#fda4ff" d="M 335.273438 101.328125 C 335.273438 101.328125 334.570312 91.835938 345.097656 87.183594 C 347.535156 86.113281 352.738281 84.234375 357.15625 82.789062 C 362.175781 81.140625 367.0625 78.695312 371.484375 75.800781 L 376.492188 72.527344 C 379.039062 70.859375 383.503906 71.414062 385.28125 73.886719 L 385.660156 74.414062 C 387.460938 76.921875 385.566406 80.695312 383.101562 82.546875 L 368.246094 94.128906 L 374.757812 99.269531 C 378.828125 102.082031 383.601562 103.707031 388.542969 103.960938 L 408.472656 105.386719 C 411.785156 105.625 414.414062 108.261719 414.632812 111.570312 L 414.671875 112.136719 L 425.433594 111.84375 C 428.601562 111.863281 432.332031 114.261719 432.460938 117.425781 C 432.589844 120.535156 430.363281 123.203125 426.066406 123.652344 L 360.039062 131.46875 L 343.296875 163.492188 L 324.753906 200.367188 C 324.753906 200.367188 320.183594 209.335938 317.835938 211.550781 C 308.960938 219.917969 301.230469 218.367188 296.710938 217 C 277.453125 211.171875 217.496094 173.296875 217.496094 173.296875 L 248.230469 146.738281 L 294.273438 174.632812 L 308.558594 149.921875 L 335.273438 101.328125 " fill-opacity="1" fill-rule="nonzero"/><path fill="#000000" d="M 334.714844 101.652344 L 334.722656 101.652344 Z M 223.882812 176.613281 C 230.824219 180.601562 271.113281 203.722656 290.003906 214.039062 C 304.636719 222.03125 315.851562 214.597656 321.46875 204.972656 C 322.753906 202.765625 324.828125 198.644531 326.347656 195.636719 L 327.261719 193.828125 C 335.128906 178.304688 358.496094 131.878906 358.730469 131.410156 C 358.855469 131.15625 359.105469 130.984375 359.390625 130.953125 L 426.84375 123.480469 C 429.484375 123.1875 431.472656 120.878906 431.359375 118.222656 C 431.246094 115.503906 429.023438 113.363281 426.296875 113.347656 L 415.5625 113.640625 C 415.113281 113.671875 414.730469 113.308594 414.699219 112.859375 L 414.660156 112.292969 C 414.46875 109.417969 412.160156 107.09375 409.277344 106.886719 L 389.347656 105.460938 C 384.265625 105.203125 379.347656 103.53125 375.148438 100.625 L 367.210938 95.140625 C 366.988281 94.988281 366.851562 94.734375 366.84375 94.464844 C 366.84375 94.191406 366.96875 93.9375 367.183594 93.773438 L 383.066406 81.824219 C 385.148438 80.257812 385.601562 77.261719 384.082031 75.148438 L 383.703125 74.621094 C 382.183594 72.507812 379.289062 71.96875 377.117188 73.394531 L 372.050781 76.71875 C 367.5625 79.65625 362.710938 81.992188 357.628906 83.65625 C 351.734375 85.585938 347.582031 87.0625 345.636719 87.925781 C 335.722656 92.300781 335.554688 101.5625 335.554688 101.652344 C 335.554688 101.796875 335.519531 101.929688 335.457031 102.050781 C 335.261719 102.40625 316.089844 137.871094 309.394531 149.503906 C 305.679688 155.964844 294.441406 175.378906 294.441406 175.378906 C 294.328125 175.574219 294.140625 175.71875 293.917969 175.773438 C 293.699219 175.828125 293.464844 175.789062 293.273438 175.671875 L 253.3125 151.003906 Z M 301.957031 219.070312 C 298.046875 219.070312 293.765625 218.011719 289.195312 215.515625 C 268.574219 204.253906 222.484375 177.75 222.019531 177.484375 C 221.785156 177.347656 221.628906 177.109375 221.601562 176.835938 C 221.574219 176.566406 221.679688 176.296875 221.886719 176.121094 L 252.675781 149.328125 C 252.953125 149.085938 253.355469 149.050781 253.667969 149.246094 L 293.417969 173.785156 C 295.519531 170.15625 304.660156 154.363281 307.9375 148.664062 C 314.382812 137.464844 332.433594 104.097656 333.882812 101.421875 C 333.976562 99.871094 334.957031 90.800781 344.953125 86.386719 C 346.984375 85.488281 351.066406 84.03125 357.101562 82.058594 C 362.046875 80.4375 366.765625 78.164062 371.125 75.308594 L 376.191406 71.988281 C 379.121094 70.066406 383.023438 70.789062 385.074219 73.636719 L 385.449219 74.164062 C 387.503906 77.019531 386.886719 81.058594 384.078125 83.164062 L 369.128906 94.417969 L 376.109375 99.238281 C 380.050781 101.96875 384.664062 103.535156 389.449219 103.785156 L 409.398438 105.210938 C 413.03125 105.472656 415.964844 108.34375 416.324219 111.9375 L 426.277344 111.667969 C 429.929688 111.6875 432.890625 114.53125 433.042969 118.15625 C 433.191406 121.6875 430.546875 124.765625 427.027344 125.152344 L 360.027344 132.578125 C 357.695312 137.21875 336.238281 179.839844 328.761719 194.585938 L 327.847656 196.394531 C 326.324219 199.425781 324.238281 203.570312 322.925781 205.820312 C 318.855469 212.792969 311.5 219.070312 301.957031 219.070312 " fill-opacity="1" fill-rule="nonzero"/><path fill="#000000" d="M 363.082031 98.710938 C 362.824219 98.710938 362.570312 98.59375 362.40625 98.367188 C 362.125 97.996094 362.207031 97.46875 362.578125 97.191406 L 367.421875 93.601562 C 367.800781 93.320312 368.324219 93.402344 368.601562 93.773438 C 368.878906 94.148438 368.800781 94.671875 368.425781 94.953125 L 363.582031 98.542969 C 363.429688 98.65625 363.257812 98.710938 363.082031 98.710938 " fill-opacity="1" fill-rule="nonzero"/><path fill="#fda4ff" d="M 384.855469 110.714844 L 390.628906 110.691406 C 394.296875 110.671875 397.878906 109.589844 400.945312 107.574219 L 417.722656 96.558594 C 420.136719 94.972656 423.378906 95.617188 425.003906 98.003906 C 426.546875 100.277344 426.089844 103.351562 423.945312 105.078125 L 406.441406 119.175781 C 405.027344 120.316406 403.402344 121.160156 401.652344 121.65625 L 392.238281 124.347656 L 384.855469 110.714844 " fill-opacity="1" fill-rule="nonzero"/><path fill="#000000" d="M 401.652344 122.503906 C 401.289062 122.503906 400.949219 122.261719 400.84375 121.890625 C 400.714844 121.445312 400.972656 120.976562 401.421875 120.847656 C 403.070312 120.378906 404.582031 119.59375 405.914062 118.523438 L 423.421875 104.421875 C 425.203125 102.984375 425.59375 100.375 424.304688 98.476562 C 422.945312 96.480469 420.203125 95.933594 418.183594 97.261719 L 405.339844 105.777344 C 404.949219 106.03125 404.429688 105.929688 404.171875 105.539062 C 403.914062 105.152344 404.019531 104.628906 404.40625 104.375 L 417.253906 95.855469 C 420.042969 94.023438 423.828125 94.777344 425.695312 97.527344 C 427.472656 100.144531 426.9375 103.746094 424.476562 105.730469 L 406.972656 119.832031 C 405.460938 121.046875 403.75 121.9375 401.886719 122.46875 C 401.808594 122.488281 401.726562 122.503906 401.652344 122.503906 " fill-opacity="1" fill-rule="nonzero"/><path fill="#fda4ff" d="M 369.898438 113.816406 L 375.582031 112.839844 C 379.199219 112.21875 382.554688 110.558594 385.242188 108.066406 L 399.960938 94.425781 C 402.078125 92.464844 405.382812 92.566406 407.378906 94.652344 C 409.277344 96.636719 409.339844 99.746094 407.511719 101.800781 L 392.582031 118.601562 C 391.378906 119.957031 389.910156 121.058594 388.269531 121.839844 L 379.433594 126.046875 L 369.898438 113.816406 " fill-opacity="1" fill-rule="nonzero"/><path fill="#000000" d="M 384.8125 125.390625 C 384.496094 125.390625 384.191406 125.210938 384.050781 124.90625 C 383.851562 124.484375 384.035156 123.984375 384.457031 123.785156 C 388.207031 122.03125 391.597656 119.429688 394.261719 116.257812 L 406.867188 101.257812 C 408.40625 99.53125 408.355469 96.890625 406.773438 95.234375 C 405.101562 93.488281 402.304688 93.40625 400.535156 95.042969 L 385.8125 108.683594 C 383 111.292969 379.511719 113.015625 375.726562 113.667969 L 363.882812 114.808594 C 363.417969 114.847656 363.011719 114.511719 362.96875 114.050781 C 362.921875 113.589844 363.261719 113.175781 363.722656 113.128906 L 375.503906 112 C 378.902344 111.414062 382.09375 109.835938 384.671875 107.449219 L 399.390625 93.808594 C 401.832031 91.546875 405.6875 91.667969 407.988281 94.070312 C 410.175781 96.355469 410.242188 100 408.144531 102.359375 L 395.554688 117.34375 C 392.730469 120.699219 389.140625 123.453125 385.171875 125.3125 C 385.054688 125.363281 384.933594 125.390625 384.8125 125.390625 " fill-opacity="1" fill-rule="nonzero"/><path fill="#000000" d="M 235.003906 182.253906 L 257.121094 196.3125 C 259.816406 188.160156 251.75 184.671875 255.609375 175.21875 C 260.6875 162.785156 255.519531 150.273438 255.519531 150.273438 L 235.003906 182.253906 " fill-opacity="1" fill-rule="nonzero"/><path fill="#fda4ff" d="M 108.511719 254.539062 L 76.078125 220.769531 L 116.253906 151.292969 L 164.132812 158.28125 L 108.511719 254.539062 " fill-opacity="1" fill-rule="nonzero"/><path fill="#000000" d="M 76.078125 221.609375 C 75.9375 221.609375 75.792969 221.574219 75.660156 221.496094 C 75.253906 221.265625 75.117188 220.75 75.351562 220.347656 L 115.523438 150.875 C 115.757812 150.472656 116.273438 150.335938 116.671875 150.566406 C 117.078125 150.796875 117.214844 151.3125 116.980469 151.71875 L 76.808594 221.191406 C 76.652344 221.460938 76.367188 221.609375 76.078125 221.609375 " fill-opacity="1" fill-rule="nonzero"/><path fill="#000000" d="M 133.007812 184.441406 L 106.429688 168.28125 L 116.253906 151.292969 L 164.132812 158.28125 L 133.007812 184.441406 " fill-opacity="1" fill-rule="nonzero"/><path fill="#8c7bff" d="M 259.363281 149.046875 L 257.191406 147.574219 C 242.582031 137.703125 225.351562 132.421875 207.714844 132.421875 L 167.773438 132.421875 C 147.957031 132.421875 128.714844 139.085938 113.144531 151.339844 L 133.007812 184.441406 L 122.210938 230.84375 L 240.582031 230.84375 L 239.054688 197.679688 C 243.324219 194.921875 246.160156 190.128906 246.160156 184.667969 C 246.160156 180.960938 244.847656 177.554688 242.671875 174.890625 L 259.363281 149.046875 " fill-opacity="1" fill-rule="nonzero"/><path fill="#000000" d="M 236.691406 199.785156 C 236.363281 199.785156 236.050781 199.59375 235.917969 199.269531 C 235.734375 198.839844 235.9375 198.347656 236.363281 198.167969 C 241.804688 195.867188 245.316406 190.570312 245.316406 184.667969 C 245.316406 178.664062 241.714844 173.328125 236.140625 171.082031 C 235.859375 170.96875 235.664062 170.71875 235.621094 170.417969 L 234.171875 160.023438 C 234.105469 159.5625 234.429688 159.136719 234.890625 159.070312 C 235.34375 159.007812 235.773438 159.328125 235.839844 159.792969 L 237.222656 169.710938 C 243.179688 172.316406 247 178.136719 247 184.667969 C 247 191.25 243.082031 197.15625 237.019531 199.71875 C 236.914062 199.761719 236.800781 199.785156 236.691406 199.785156 " fill-opacity="1" fill-rule="nonzero"/><path fill="#8c7bff" d="M 202.316406 139.003906 L 175.269531 139.003906 L 175.269531 128.347656 L 202.316406 128.347656 L 202.316406 139.003906 " fill-opacity="1" fill-rule="nonzero"/><path fill="#000000" d="M 242.265625 238.574219 C 254.050781 267.832031 239.863281 301.09375 210.582031 312.863281 C 181.296875 324.640625 148.007812 310.464844 136.222656 281.207031 C 124.441406 251.949219 138.625 218.6875 167.910156 206.917969 C 197.195312 195.140625 230.484375 209.316406 242.265625 238.574219 " fill-opacity="1" fill-rule="nonzero"/><path fill="#ffffff" d="M 236.285156 238.621094 C 248.070312 267.878906 233.882812 301.144531 204.597656 312.914062 C 175.316406 324.683594 142.023438 310.511719 130.242188 281.257812 C 118.457031 252 132.644531 218.738281 161.929688 206.960938 C 191.210938 195.191406 224.503906 209.367188 236.285156 238.621094 " fill-opacity="1" fill-rule="nonzero"/><path fill="#000000" d="M 183.195312 203.675781 C 176.207031 203.675781 169.109375 204.984375 162.242188 207.742188 C 148.289062 213.355469 137.355469 224.054688 131.457031 237.882812 C 125.5625 251.707031 125.40625 267 131.023438 280.9375 C 142.613281 309.71875 175.476562 323.710938 204.285156 312.128906 C 218.238281 306.519531 229.171875 295.820312 235.070312 281.992188 C 240.964844 268.167969 241.121094 252.878906 235.503906 238.9375 C 226.675781 217.019531 205.507812 203.675781 183.195312 203.675781 Z M 183.335938 317.882812 C 160.351562 317.882812 138.554688 304.140625 129.460938 281.570312 C 123.679688 267.207031 123.835938 251.460938 129.910156 237.222656 C 135.984375 222.980469 147.242188 211.960938 161.613281 206.183594 C 191.28125 194.253906 225.128906 208.667969 237.066406 238.304688 C 242.847656 252.667969 242.691406 268.417969 236.617188 282.65625 C 230.542969 296.894531 219.285156 307.914062 204.914062 313.691406 C 197.839844 316.539062 190.53125 317.882812 183.335938 317.882812 " fill-opacity="1" fill-rule="nonzero"/><path fill="#fed101" d="M 193.394531 293.46875 L 190.28125 285.984375 C 185.027344 288.074219 179.433594 288.917969 175.789062 288.503906 L 174.257812 278.25 C 178.246094 278.601562 183.472656 278.207031 188.476562 275.949219 C 192.863281 273.972656 195.140625 270.882812 193.832031 267.734375 C 192.582031 264.742188 189.335938 263.964844 182.820312 264.5625 C 173.40625 265.445312 166.148438 264.046875 162.964844 256.410156 C 160.082031 249.476562 162.589844 241.894531 170.132812 236.523438 L 167.019531 229.046875 L 174.558594 225.640625 L 177.445312 232.570312 C 182.699219 230.480469 186.621094 230.019531 189.683594 230.132812 L 191.160156 240.035156 C 188.800781 240.074219 184.503906 239.859375 178.964844 242.359375 C 173.960938 244.617188 173.265625 247.550781 174.183594 249.757812 C 175.265625 252.355469 178.648438 252.792969 186.238281 252.359375 C 196.773438 251.539062 202.269531 254.199219 205.222656 261.285156 C 208.140625 268.292969 205.785156 276.464844 197.59375 282.03125 L 200.9375 290.0625 L 193.394531 293.46875 " fill-opacity="1" fill-rule="nonzero"/><path fill="#000000" d="M 182.445312 324.511719 C 182.253906 324.511719 182.058594 324.449219 181.902344 324.3125 L 160.664062 306.308594 C 160.40625 306.09375 160.304688 305.746094 160.398438 305.429688 L 170.355469 271.773438 C 170.488281 271.328125 170.957031 271.074219 171.402344 271.203125 C 171.847656 271.339844 172.101562 271.804688 171.96875 272.25 L 162.167969 305.378906 L 182.445312 322.566406 L 212.925781 296.824219 C 213.28125 296.523438 213.8125 296.570312 214.113281 296.925781 C 214.414062 297.277344 214.371094 297.808594 214.015625 298.109375 L 182.992188 324.3125 C 182.832031 324.449219 182.640625 324.511719 182.445312 324.511719 " fill-opacity="1" fill-rule="nonzero"/><path fill="#fda4ff" d="M 174.433594 272.097656 L 161.207031 305.667969 L 86.363281 260.652344 C 72.617188 252.386719 68.042969 234.640625 76.078125 220.769531 L 86.546875 202.703125 L 174.433594 272.097656 " fill-opacity="1" fill-rule="nonzero"/><path fill="#fda4ff" d="M 219.558594 293.390625 L 219.066406 292.738281 L 216.335938 289.125 L 215.601562 288.152344 L 215.546875 288.125 C 211.121094 282.753906 204.988281 279.035156 198.148438 277.617188 L 171.164062 272.015625 L 161.207031 305.667969 L 182.445312 323.671875 L 213.46875 297.46875 L 217.679688 303.253906 L 218.328125 302.75 C 221.226562 300.488281 221.777344 296.320312 219.558594 293.390625 " fill-opacity="1" fill-rule="nonzero"/><path fill="#fda4ff" d="M 215.164062 315.703125 L 197.089844 291.785156 L 204.996094 285.820312 L 223.066406 309.730469 C 224.648438 311.824219 224.230469 314.804688 222.136719 316.386719 L 221.8125 316.632812 C 219.722656 318.207031 216.742188 317.792969 215.164062 315.703125 " fill-opacity="1" fill-rule="nonzero"/><path fill="#fda4ff" d="M 209.972656 325.261719 L 190.949219 300.085938 L 198.855469 294.125 L 217.875 319.289062 C 219.46875 321.394531 219.046875 324.394531 216.941406 325.988281 L 216.664062 326.191406 C 214.558594 327.78125 211.5625 327.367188 209.972656 325.261719 " fill-opacity="1" fill-rule="nonzero"/><path fill="#fda4ff" d="M 194.132812 337.152344 L 175.414062 312.386719 L 183.324219 306.421875 L 202.035156 331.183594 C 203.640625 333.3125 203.21875 336.335938 201.09375 337.941406 L 200.886719 338.097656 C 198.757812 339.699219 195.738281 339.277344 194.132812 337.152344 " fill-opacity="1" fill-rule="nonzero"/><path fill="#fda4ff" d="M 176.085938 325.542969 L 161.328125 305.867188 L 169.277344 299.875 L 194.3125 333.15625 L 185.128906 331.257812 C 181.519531 330.515625 178.304688 328.480469 176.085938 325.542969 " fill-opacity="1" fill-rule="nonzero"/><path fill="#fda4ff" d="M 207.753906 330.089844 L 207.324219 330.414062 C 205.257812 331.972656 202.101562 331.269531 200.269531 328.84375 L 181.984375 304.652344 L 189.890625 298.6875 L 208.175781 322.882812 C 210.007812 325.308594 209.816406 328.53125 207.753906 330.089844 " fill-opacity="1" fill-rule="nonzero"/><path fill="#fda4ff" d="M 163.023438 307.332031 L 128.464844 283.921875 L 157.59375 259.914062 L 193.757812 284.148438 L 163.023438 307.332031 " fill-opacity="1" fill-rule="nonzero"/><path fill="#000000" d="M 213.792969 327.996094 C 212.089844 327.996094 210.402344 327.226562 209.300781 325.765625 L 202.878906 317.273438 C 202.601562 316.902344 202.671875 316.375 203.046875 316.09375 C 203.417969 315.8125 203.945312 315.886719 204.222656 316.257812 L 210.640625 324.75 C 211.953125 326.484375 214.425781 326.828125 216.160156 325.519531 L 216.433594 325.3125 C 217.273438 324.679688 217.816406 323.753906 217.964844 322.71875 C 218.109375 321.671875 217.839844 320.636719 217.207031 319.800781 L 209.914062 310.15625 C 209.632812 309.785156 209.710938 309.257812 210.078125 308.976562 C 210.449219 308.695312 210.980469 308.765625 211.257812 309.140625 L 218.546875 318.785156 C 219.453125 319.980469 219.839844 321.464844 219.628906 322.949219 C 219.421875 324.4375 218.648438 325.75 217.449219 326.65625 L 217.175781 326.859375 C 216.164062 327.625 214.972656 327.996094 213.792969 327.996094 " fill-opacity="1" fill-rule="nonzero"/><path fill="#000000" d="M 204.507812 332.199219 C 202.832031 332.199219 201.175781 331.441406 200.089844 330.003906 L 194.03125 321.988281 C 193.753906 321.621094 193.824219 321.09375 194.195312 320.8125 C 194.570312 320.53125 195.09375 320.605469 195.375 320.976562 L 201.433594 328.992188 C 202.710938 330.683594 205.125 331.019531 206.816406 329.742188 L 207.246094 329.417969 C 208.066406 328.796875 208.59375 327.902344 208.734375 326.886719 C 208.878906 325.871094 208.617188 324.859375 207.996094 324.042969 L 202.152344 316.304688 C 201.871094 315.933594 201.945312 315.410156 202.316406 315.128906 C 202.6875 314.847656 203.214844 314.921875 203.496094 315.292969 L 209.339844 323.027344 C 210.230469 324.207031 210.609375 325.660156 210.402344 327.117188 C 210.199219 328.582031 209.4375 329.871094 208.261719 330.761719 L 207.832031 331.085938 C 206.835938 331.835938 205.664062 332.199219 204.507812 332.199219 " fill-opacity="1" fill-rule="nonzero"/><path fill="#000000" d="M 218.960938 318.425781 C 217.265625 318.425781 215.585938 317.65625 214.488281 316.207031 L 208.621094 308.445312 C 208.34375 308.070312 208.414062 307.546875 208.785156 307.261719 C 209.160156 306.984375 209.683594 307.054688 209.964844 307.425781 L 215.832031 315.191406 C 217.132812 316.910156 219.589844 317.253906 221.308594 315.953125 L 221.632812 315.714844 C 222.464844 315.082031 223.003906 314.167969 223.148438 313.132812 C 223.292969 312.101562 223.023438 311.078125 222.394531 310.242188 L 205.992188 288.535156 C 205.710938 288.164062 205.785156 287.636719 206.15625 287.355469 C 206.527344 287.074219 207.054688 287.148438 207.335938 287.519531 L 223.738281 309.226562 C 224.640625 310.417969 225.023438 311.890625 224.816406 313.367188 C 224.609375 314.847656 223.839844 316.15625 222.644531 317.054688 L 222.324219 317.300781 C 221.316406 318.058594 220.132812 318.425781 218.960938 318.425781 " fill-opacity="1" fill-rule="nonzero"/><path fill="#000000" d="M 197.988281 339.910156 C 196.269531 339.910156 194.570312 339.132812 193.460938 337.660156 L 189.890625 333.105469 L 184.960938 332.085938 C 181.148438 331.296875 177.757812 329.152344 175.414062 326.050781 L 160.988281 306.914062 C 160.710938 306.542969 160.785156 306.015625 161.152344 305.734375 C 161.527344 305.457031 162.054688 305.53125 162.335938 305.902344 L 176.757812 325.035156 C 178.855469 327.8125 181.890625 329.730469 185.300781 330.433594 L 190.835938 331.582031 L 194.792969 336.636719 C 196.125 338.394531 198.625 338.742188 200.378906 337.421875 L 200.589844 337.265625 C 201.4375 336.628906 201.984375 335.695312 202.132812 334.640625 C 202.277344 333.589844 202.007812 332.542969 201.367188 331.695312 L 193.101562 320.757812 C 192.820312 320.386719 192.894531 319.859375 193.265625 319.578125 C 193.636719 319.296875 194.164062 319.375 194.445312 319.742188 L 202.710938 330.679688 C 203.621094 331.886719 204.007812 333.375 203.800781 334.875 C 203.589844 336.371094 202.8125 337.699219 201.601562 338.609375 L 201.394531 338.765625 C 200.375 339.535156 199.175781 339.910156 197.988281 339.910156 " fill-opacity="1" fill-rule="nonzero"/><path fill="#000000" d="M 218.101562 304 C 217.851562 304 217.601562 303.890625 217.4375 303.679688 C 217.148438 303.3125 217.214844 302.78125 217.582031 302.496094 C 220.152344 300.492188 220.773438 296.394531 218.886719 293.898438 L 215.015625 288.769531 C 214.96875 288.738281 214.925781 288.699219 214.894531 288.660156 C 210.601562 283.445312 204.589844 279.816406 197.976562 278.441406 L 170.992188 272.835938 C 170.535156 272.746094 170.242188 272.296875 170.335938 271.84375 C 170.433594 271.386719 170.878906 271.09375 171.332031 271.1875 L 198.316406 276.792969 C 205.265625 278.234375 211.582031 282.03125 216.113281 287.492188 C 216.175781 287.535156 216.234375 287.589844 216.273438 287.644531 L 220.230469 292.882812 C 222.683594 296.128906 221.929688 301.242188 218.617188 303.824219 C 218.464844 303.941406 218.28125 304 218.101562 304 " fill-opacity="1" fill-rule="nonzero"/><path fill="#000000" d="M 161.207031 306.507812 C 161.058594 306.507812 160.910156 306.46875 160.773438 306.386719 L 85.925781 261.375 C 71.882812 252.925781 67.136719 234.523438 75.351562 220.347656 L 85.816406 202.277344 C 86.050781 201.878906 86.566406 201.738281 86.96875 201.972656 C 87.371094 202.207031 87.507812 202.722656 87.273438 203.121094 L 76.808594 221.191406 C 69.050781 234.578125 73.53125 251.957031 86.796875 259.933594 L 161.640625 304.945312 C 162.039062 305.183594 162.167969 305.699219 161.929688 306.101562 C 161.769531 306.363281 161.492188 306.507812 161.207031 306.507812 " fill-opacity="1" fill-rule="nonzero"/><path fill="#000000" d="M 176.652344 273.992188 C 176.472656 273.992188 176.289062 273.9375 176.136719 273.816406 L 104.132812 217.660156 C 103.765625 217.375 103.699219 216.847656 103.984375 216.480469 C 104.273438 216.113281 104.800781 216.046875 105.167969 216.335938 L 177.171875 272.488281 C 177.535156 272.777344 177.601562 273.304688 177.316406 273.671875 C 177.148438 273.882812 176.902344 273.992188 176.652344 273.992188 " fill-opacity="1" fill-rule="nonzero"/><path fill="#000000" d="M 440.160156 346.320312 L 642.300781 341.226562 L 648.578125 496.847656 L 440.160156 497.597656 L 440.160156 346.320312 " fill-opacity="1" fill-rule="nonzero"/><path fill="#ffffff" d="M 431.117188 341.226562 L 642.300781 341.226562 L 642.300781 490.371094 L 431.402344 491.109375 L 431.117188 341.226562 " fill-opacity="1" fill-rule="nonzero"/><path fill="#000000" d="M 443 492.671875 L 431.40625 492.671875 C 430.941406 492.671875 430.558594 492.292969 430.558594 491.832031 L 430.269531 341.230469 C 430.269531 341.007812 430.359375 340.792969 430.515625 340.632812 C 430.675781 340.476562 430.890625 340.386719 431.109375 340.386719 L 642.300781 340.386719 C 642.765625 340.386719 643.144531 340.765625 643.144531 341.226562 L 643.144531 490.371094 C 643.144531 490.835938 642.765625 491.214844 642.300781 491.214844 C 641.835938 491.214844 641.460938 490.835938 641.460938 490.371094 L 641.460938 342.070312 L 431.957031 342.070312 L 432.246094 490.988281 L 443 490.988281 C 443.460938 490.988281 443.839844 491.367188 443.839844 491.828125 C 443.839844 492.292969 443.460938 492.671875 443 492.671875 " fill-opacity="1" fill-rule="nonzero"/><path fill="#6155ff" d="M 603.15625 365.796875 C 607.132812 365.796875 610.816406 367.039062 613.839844 369.15625 L 620.199219 360.398438 C 615.386719 356.992188 609.507812 354.988281 603.15625 354.988281 C 598.296875 354.988281 593.710938 356.160156 589.667969 358.242188 L 594.816406 367.761719 C 597.328125 366.507812 600.15625 365.796875 603.15625 365.796875 " fill-opacity="1" fill-rule="nonzero"/><path fill="#8c7bff" d="M 585.582031 408.066406 L 591.933594 399.3125 C 587.417969 395.914062 584.496094 390.511719 584.496094 384.429688 C 584.496094 378.324219 587.433594 372.90625 591.976562 369.511719 L 586.800781 359.933594 C 578.886719 365.207031 573.671875 374.210938 573.671875 384.429688 C 573.671875 394.113281 578.351562 402.699219 585.582031 408.066406 " fill-opacity="1" fill-rule="nonzero"/><path fill="#fed101" d="M 632.480469 381.296875 C 631.6875 373.839844 628.113281 367.214844 622.804688 362.476562 L 616.398438 371.296875 C 619.359375 374.273438 621.316406 378.246094 621.734375 382.660156 L 632.480469 381.296875 " fill-opacity="1" fill-rule="nonzero"/><path fill="#fcb503" d="M 621.746094 386.007812 C 620.945312 395.558594 612.929688 403.058594 603.15625 403.058594 C 600.136719 403.058594 597.292969 402.339844 594.769531 401.070312 L 588.363281 409.898438 C 592.710938 412.421875 597.765625 413.867188 603.15625 413.867188 C 619.378906 413.867188 632.535156 400.792969 632.644531 384.625 L 621.746094 386.007812 " fill-opacity="1" fill-rule="nonzero"/><path fill="#000000" d="M 626.089844 429.597656 L 573.671875 429.597656 C 573.203125 429.597656 572.824219 429.21875 572.824219 428.75 C 572.824219 428.289062 573.203125 427.910156 573.671875 427.910156 L 626.089844 427.910156 C 626.558594 427.910156 626.933594 428.289062 626.933594 428.75 C 626.933594 429.21875 626.558594 429.597656 626.089844 429.597656 " fill-opacity="1" fill-rule="nonzero"/><path fill="#000000" d="M 626.089844 441.695312 L 610.875 441.695312 C 610.410156 441.695312 610.03125 441.316406 610.03125 440.851562 C 610.03125 440.390625 610.410156 440.011719 610.875 440.011719 L 626.089844 440.011719 C 626.558594 440.011719 626.933594 440.390625 626.933594 440.851562 C 626.933594 441.316406 626.558594 441.695312 626.089844 441.695312 " fill-opacity="1" fill-rule="nonzero"/><path fill="#000000" d="M 606.941406 441.695312 L 573.671875 441.695312 C 573.203125 441.695312 572.824219 441.316406 572.824219 440.851562 C 572.824219 440.390625 573.203125 440.011719 573.671875 440.011719 L 606.941406 440.011719 C 607.40625 440.011719 607.785156 440.390625 607.785156 440.851562 C 607.785156 441.316406 607.40625 441.695312 606.941406 441.695312 " fill-opacity="1" fill-rule="nonzero"/><path fill="#000000" d="M 626.089844 453.796875 L 594.238281 453.796875 C 593.773438 453.796875 593.398438 453.417969 593.398438 452.949219 C 593.398438 452.488281 593.773438 452.109375 594.238281 452.109375 L 626.089844 452.109375 C 626.558594 452.109375 626.933594 452.488281 626.933594 452.949219 C 626.933594 453.417969 626.558594 453.796875 626.089844 453.796875 " fill-opacity="1" fill-rule="nonzero"/><path fill="#000000" d="M 590.304688 453.796875 L 573.671875 453.796875 C 573.203125 453.796875 572.824219 453.417969 572.824219 452.949219 C 572.824219 452.488281 573.203125 452.109375 573.671875 452.109375 L 590.304688 452.109375 C 590.769531 452.109375 591.148438 452.488281 591.148438 452.949219 C 591.148438 453.417969 590.769531 453.796875 590.304688 453.796875 " fill-opacity="1" fill-rule="nonzero"/><path fill="#4ada85" d="M 551.851562 428.191406 L 448.082031 428.191406 L 448.082031 357.34375 L 551.851562 357.34375 L 551.851562 428.191406 " fill-opacity="1" fill-rule="nonzero"/><path fill="#000000" d="M 442.917969 421.199219 C 442.765625 421.199219 442.613281 421.15625 442.472656 421.070312 C 442.082031 420.824219 441.960938 420.304688 442.207031 419.90625 L 469.320312 376.558594 C 469.464844 376.328125 469.707031 376.183594 469.976562 376.164062 C 470.246094 376.144531 470.507812 376.261719 470.679688 376.472656 L 485.28125 394.097656 L 495.367188 379.933594 C 495.527344 379.707031 495.773438 379.574219 496.0625 379.578125 C 496.34375 379.582031 496.601562 379.722656 496.753906 379.953125 L 516.191406 409.027344 L 548.273438 361.167969 C 548.53125 360.777344 549.054688 360.671875 549.441406 360.933594 C 549.828125 361.195312 549.929688 361.714844 549.671875 362.101562 L 516.886719 411.007812 C 516.730469 411.242188 516.46875 411.382812 516.1875 411.382812 C 515.90625 411.382812 515.644531 411.242188 515.488281 411.007812 L 496.03125 381.902344 L 486.015625 395.96875 C 485.867188 396.179688 485.621094 396.3125 485.363281 396.320312 C 485.09375 396.324219 484.851562 396.214844 484.683594 396.015625 L 470.132812 378.441406 L 443.632812 420.800781 C 443.476562 421.054688 443.203125 421.199219 442.917969 421.199219 " fill-opacity="1" fill-rule="nonzero"/><path fill="#000000" d="M 548.070312 373.589844 C 548.046875 373.589844 548.023438 373.589844 548 373.589844 C 547.535156 373.550781 547.191406 373.144531 547.230469 372.683594 L 548.015625 363.007812 L 538.683594 367.339844 C 538.265625 367.535156 537.765625 367.351562 537.570312 366.933594 C 537.371094 366.511719 537.554688 366.007812 537.976562 365.8125 L 548.621094 360.867188 C 548.890625 360.742188 549.207031 360.773438 549.453125 360.941406 C 549.699219 361.113281 549.835938 361.402344 549.8125 361.699219 L 548.90625 372.820312 C 548.871094 373.257812 548.5 373.589844 548.070312 373.589844 " fill-opacity="1" fill-rule="nonzero"/><path fill="#000000" d="M 515.699219 441.695312 L 448.621094 441.695312 C 448.15625 441.695312 447.777344 441.316406 447.777344 440.851562 C 447.777344 440.390625 448.15625 440.011719 448.621094 440.011719 L 515.699219 440.011719 C 516.167969 440.011719 516.542969 440.390625 516.542969 440.851562 C 516.542969 441.316406 516.167969 441.695312 515.699219 441.695312 " fill-opacity="1" fill-rule="nonzero"/><path fill="#000000" d="M 482.160156 453.796875 L 448.621094 453.796875 C 448.15625 453.796875 447.777344 453.417969 447.777344 452.949219 C 447.777344 452.488281 448.15625 452.109375 448.621094 452.109375 L 482.160156 452.109375 C 482.625 452.109375 483.003906 452.488281 483.003906 452.949219 C 483.003906 453.417969 482.625 453.796875 482.160156 453.796875 " fill-opacity="1" fill-rule="nonzero"/><path fill="#fed101" d="M 463.9375 704.796875 C 447.796875 677.160156 368.761719 664.132812 368.761719 664.132812 L 296.367188 659.027344 L 232.890625 659.027344 L 234.328125 697.816406 C 234.328125 709.707031 239.171875 721.085938 247.75 729.332031 C 255.90625 737.175781 284.933594 748.003906 296.253906 748.003906 L 437.484375 755.425781 L 475.605469 755.425781 C 475.179688 745.640625 474.5 722.875 463.9375 704.796875 " fill-opacity="1" fill-rule="nonzero"/><path fill="#000000" d="M 475.605469 756.265625 C 475.136719 756.265625 474.757812 755.886719 474.757812 755.425781 C 474.757812 748.753906 474.035156 714.792969 459.757812 701.1875 C 438.117188 680.5625 375.414062 665.109375 374.785156 664.957031 C 374.335938 664.84375 374.054688 664.390625 374.164062 663.9375 C 374.277344 663.484375 374.734375 663.210938 375.1875 663.316406 C 377.777344 663.949219 438.957031 679.03125 460.921875 699.964844 C 475.695312 714.046875 476.445312 748.632812 476.445312 755.425781 C 476.445312 755.886719 476.066406 756.265625 475.605469 756.265625 " fill-opacity="1" fill-rule="nonzero"/><path fill="#000000" d="M 234.328125 697.816406 L 232.890625 659.027344 L 373.59375 659.027344 Z M 234.328125 697.816406 " fill-opacity="1" fill-rule="nonzero"/><path fill="#fda4ff" d="M 417.957031 454.789062 L 408.527344 479.03125 L 406.320312 464.757812 L 408.59375 458.566406 C 409.871094 455.101562 413.691406 453.296875 417.175781 454.515625 L 417.957031 454.789062 " fill-opacity="1" fill-rule="nonzero"/><path fill="#fda4ff" d="M 454.363281 473.425781 L 450.691406 501.128906 L 416.832031 511.023438 L 406.902344 485.207031 C 404.230469 478.265625 404.171875 470.585938 406.742188 463.605469 L 408.308594 459.335938 L 454.363281 473.425781 " fill-opacity="1" fill-rule="nonzero"/><path fill="#fda4ff" d="M 438.140625 427.355469 L 419.453125 478.394531 L 410.113281 474.96875 L 428.800781 423.929688 C 429.710938 421.457031 432.453125 420.191406 434.929688 421.097656 L 435.308594 421.238281 C 437.78125 422.144531 439.050781 424.882812 438.140625 427.355469 " fill-opacity="1" fill-rule="nonzero"/><path fill="#fda4ff" d="M 440.746094 449.339844 L 429.808594 479.066406 L 420.46875 475.636719 L 431.40625 445.90625 C 432.320312 443.417969 435.078125 442.140625 437.566406 443.058594 L 437.894531 443.179688 C 440.382812 444.089844 441.65625 446.851562 440.746094 449.339844 " fill-opacity="1" fill-rule="nonzero"/><path fill="#fda4ff" d="M 459.40625 456.238281 L 448.644531 485.492188 L 439.308594 482.058594 L 450.066406 452.804688 C 450.992188 450.296875 453.773438 449.011719 456.285156 449.933594 L 456.53125 450.023438 C 459.042969 450.945312 460.332031 453.730469 459.40625 456.238281 " fill-opacity="1" fill-rule="nonzero"/><path fill="#fda4ff" d="M 459.402344 477.777344 L 450.789062 500.917969 L 441.40625 497.472656 L 455.933594 458.257812 L 459.316406 467.039062 C 460.652344 470.488281 460.683594 474.304688 459.402344 477.777344 " fill-opacity="1" fill-rule="nonzero"/><path fill="#fda4ff" d="M 446.03125 448.582031 L 446.542969 448.765625 C 448.980469 449.660156 450.105469 452.710938 449.050781 455.570312 L 438.539062 484.148438 L 429.195312 480.722656 L 439.714844 452.140625 C 440.765625 449.277344 443.59375 447.683594 446.03125 448.582031 " fill-opacity="1" fill-rule="nonzero"/><path fill="#000000" d="M 437.054688 460.210938 C 436.957031 460.210938 436.859375 460.195312 436.761719 460.15625 C 436.328125 459.996094 436.101562 459.515625 436.265625 459.078125 L 439.953125 449.046875 C 440.320312 448.050781 440.273438 446.980469 439.832031 446.019531 C 439.386719 445.0625 438.597656 444.332031 437.601562 443.96875 L 437.277344 443.851562 C 435.230469 443.097656 432.949219 444.148438 432.195312 446.199219 L 428.003906 457.59375 C 427.84375 458.027344 427.359375 458.253906 426.921875 458.089844 C 426.488281 457.933594 426.261719 457.445312 426.421875 457.011719 L 430.613281 445.617188 C 431.6875 442.695312 434.941406 441.195312 437.859375 442.269531 L 438.183594 442.386719 C 439.597656 442.90625 440.726562 443.945312 441.359375 445.3125 C 441.992188 446.679688 442.054688 448.214844 441.535156 449.625 L 437.84375 459.660156 C 437.71875 460 437.398438 460.210938 437.054688 460.210938 " fill-opacity="1" fill-rule="nonzero"/><path fill="#000000" d="M 445.851562 465.113281 C 445.757812 465.113281 445.65625 465.09375 445.5625 465.058594 C 445.121094 464.898438 444.902344 464.417969 445.0625 463.980469 L 448.546875 454.511719 C 448.902344 453.542969 448.859375 452.496094 448.425781 451.558594 C 447.992188 450.625 447.222656 449.914062 446.253906 449.558594 L 445.746094 449.371094 C 443.742188 448.636719 441.519531 449.664062 440.785156 451.660156 L 437.421875 460.796875 C 437.265625 461.234375 436.777344 461.457031 436.34375 461.300781 C 435.90625 461.136719 435.683594 460.652344 435.847656 460.21875 L 439.203125 451.078125 C 440.261719 448.214844 443.453125 446.734375 446.328125 447.789062 L 446.832031 447.976562 C 448.226562 448.488281 449.328125 449.507812 449.953125 450.855469 C 450.574219 452.199219 450.636719 453.703125 450.125 455.089844 L 446.644531 464.5625 C 446.519531 464.902344 446.195312 465.113281 445.851562 465.113281 " fill-opacity="1" fill-rule="nonzero"/><path fill="#fda4ff" d="M 451.105469 498.695312 L 450.105469 540.578125 L 413.976562 529.046875 L 414.804688 485.363281 L 451.105469 498.695312 " fill-opacity="1" fill-rule="nonzero"/><path fill="#000000" d="M 450.765625 512.972656 L 450.105469 540.578125 L 413.976562 529.046875 L 414.207031 516.960938 L 436.632812 514.511719 L 450.765625 512.972656 " fill-opacity="1" fill-rule="nonzero"/><path fill="#000000" d="M 411.070312 473.207031 C 410.976562 473.207031 410.878906 473.1875 410.785156 473.152344 C 410.34375 472.992188 410.121094 472.511719 410.277344 472.074219 L 428.007812 423.640625 C 429.078125 420.734375 432.3125 419.238281 435.21875 420.308594 L 435.597656 420.445312 C 437.003906 420.964844 438.125 421.996094 438.757812 423.355469 C 439.386719 424.71875 439.449219 426.242188 438.933594 427.652344 L 427.257812 459.609375 C 427.105469 460.050781 426.617188 460.269531 426.183594 460.113281 C 425.742188 459.953125 425.523438 459.472656 425.679688 459.035156 L 437.351562 427.070312 C 437.714844 426.085938 437.667969 425.019531 437.230469 424.0625 C 436.789062 423.113281 436.003906 422.390625 435.015625 422.027344 L 434.636719 421.890625 C 432.601562 421.140625 430.339844 422.1875 429.589844 424.21875 L 411.863281 472.652344 C 411.738281 472.992188 411.414062 473.207031 411.070312 473.207031 " fill-opacity="1" fill-rule="nonzero"/><path fill="#000000" d="M 450.105469 541.417969 C 450.019531 541.417969 449.933594 541.40625 449.847656 541.378906 L 413.722656 529.851562 C 413.367188 529.738281 413.128906 529.40625 413.136719 529.03125 L 413.597656 504.957031 L 406.113281 485.507812 C 403.640625 479.082031 403.351562 471.910156 405.292969 465.304688 C 405.425781 464.855469 405.898438 464.601562 406.339844 464.734375 C 406.785156 464.863281 407.042969 465.332031 406.910156 465.78125 C 405.070312 472.03125 405.347656 478.824219 407.6875 484.90625 L 415.222656 504.503906 C 415.265625 504.609375 415.285156 504.714844 415.28125 504.824219 L 414.832031 528.4375 L 449.292969 539.4375 L 450.226562 500.324219 C 450.226562 500.234375 450.246094 500.140625 450.277344 500.054688 L 458.617188 477.480469 C 459.824219 474.203125 459.792969 470.601562 458.535156 467.339844 L 456.605469 462.335938 C 456.53125 462.152344 456.527344 461.945312 456.59375 461.757812 L 458.609375 455.960938 C 458.984375 454.945312 458.945312 453.855469 458.492188 452.890625 C 458.046875 451.917969 457.246094 451.183594 456.242188 450.816406 L 455.996094 450.722656 C 453.925781 449.960938 451.617188 451.027344 450.859375 453.09375 L 446.105469 466.015625 C 445.945312 466.453125 445.460938 466.675781 445.023438 466.519531 C 444.585938 466.355469 444.367188 465.871094 444.527344 465.4375 L 449.28125 452.515625 C 450.359375 449.574219 453.636719 448.058594 456.578125 449.144531 L 456.824219 449.234375 C 458.25 449.757812 459.382812 450.804688 460.019531 452.183594 C 460.660156 453.558594 460.722656 455.101562 460.199219 456.527344 L 458.285156 462.015625 L 460.105469 466.730469 C 461.511719 470.375 461.542969 474.402344 460.191406 478.066406 L 451.90625 500.503906 L 450.945312 540.597656 C 450.941406 540.863281 450.808594 541.109375 450.59375 541.265625 C 450.449219 541.367188 450.277344 541.417969 450.105469 541.417969 " fill-opacity="1" fill-rule="nonzero"/><path fill="#8c7bff" d="M 432.441406 641.550781 C 415.363281 641.257812 401.757812 627.1875 402.050781 610.125 L 403.308594 522.933594 L 465.421875 523.058594 L 463.894531 611.1875 C 463.601562 628.25 449.519531 641.84375 432.441406 641.550781 " fill-opacity="1" fill-rule="nonzero"/><path fill="#000000" d="M 432.457031 640.710938 C 449.050781 641.027344 462.769531 627.742188 463.054688 611.171875 L 464.558594 523.898438 L 404.136719 523.773438 L 402.898438 610.136719 C 402.753906 618.164062 405.753906 625.765625 411.335938 631.539062 C 416.917969 637.316406 424.421875 640.570312 432.457031 640.710938 Z M 432.984375 642.394531 C 432.796875 642.394531 432.613281 642.394531 432.425781 642.390625 C 423.941406 642.246094 416.023438 638.808594 410.125 632.710938 C 404.230469 626.613281 401.066406 618.585938 401.210938 610.109375 L 402.46875 522.917969 C 402.476562 522.460938 402.851562 522.089844 403.308594 522.089844 L 403.3125 522.089844 L 465.421875 522.21875 C 465.644531 522.21875 465.863281 522.308594 466.019531 522.46875 C 466.175781 522.628906 466.265625 522.847656 466.261719 523.070312 L 464.742188 611.199219 C 464.441406 628.515625 450.246094 642.394531 432.984375 642.394531 " fill-opacity="1" fill-rule="nonzero"/><path fill="#8c7bff" d="M 455.175781 589.140625 L 399.871094 533.863281 C 377.40625 511.410156 346.929688 498.792969 315.152344 498.792969 L 279.351562 498.792969 C 254.667969 498.792969 232.167969 512.914062 221.445312 535.125 L 194.199219 591.589844 C 186.691406 607.199219 191.230469 630.160156 206.851562 637.664062 C 217.414062 642.738281 226.242188 642.355469 236.042969 637.65625 L 232.921875 672.746094 L 383.6875 666.445312 L 375.628906 603.46875 L 411.4375 632.839844 L 455.175781 589.140625 " fill-opacity="1" fill-rule="nonzero"/><path fill="#000000" d="M 411.4375 633.683594 C 411.25 633.683594 411.058594 633.621094 410.902344 633.488281 L 344.832031 579.289062 C 344.472656 578.992188 344.421875 578.460938 344.71875 578.105469 C 345.011719 577.746094 345.542969 577.695312 345.902344 577.988281 L 411.972656 632.191406 C 412.332031 632.484375 412.382812 633.015625 412.089844 633.375 C 411.921875 633.578125 411.679688 633.683594 411.4375 633.683594 " fill-opacity="1" fill-rule="nonzero"/><path fill="#000000" d="M 455.175781 589.980469 C 454.957031 589.980469 454.746094 589.902344 454.578125 589.738281 L 399.273438 534.460938 C 376.484375 511.679688 347.054688 499.636719 314.171875 499.636719 C 313.710938 499.636719 313.332031 499.257812 313.332031 498.792969 C 313.332031 498.332031 313.710938 497.953125 314.171875 497.953125 C 347.511719 497.953125 377.351562 510.167969 400.46875 533.269531 L 455.769531 588.542969 C 456.101562 588.871094 456.101562 589.410156 455.769531 589.738281 C 455.609375 589.902344 455.390625 589.980469 455.175781 589.980469 " fill-opacity="1" fill-rule="nonzero"/><path fill="#000000" d="M 232.890625 631.355469 C 232.847656 631.355469 232.800781 631.347656 232.757812 631.34375 C 232.296875 631.269531 231.984375 630.835938 232.058594 630.378906 L 245.671875 545.414062 C 245.742188 544.957031 246.175781 544.644531 246.632812 544.714844 C 247.09375 544.792969 247.40625 545.222656 247.332031 545.683594 L 233.71875 630.644531 C 233.65625 631.058594 233.296875 631.355469 232.890625 631.355469 " fill-opacity="1" fill-rule="nonzero"/><path fill="#000000" d="M 244.636719 552.386719 L 224.785156 641.125 C 224.785156 641.125 227.796875 640.871094 230.953125 639.835938 C 233.203125 639.09375 236.042969 637.65625 236.042969 637.65625 L 244.636719 552.386719 " fill-opacity="1" fill-rule="nonzero"/><path fill="#fda4ff" d="M 326.191406 464.691406 C 326.191406 475.652344 326.898438 490.855469 315.929688 490.855469 C 304.960938 490.855469 286.464844 475.652344 286.464844 464.691406 C 286.464844 453.734375 295.359375 444.847656 306.328125 444.847656 C 317.296875 444.847656 326.191406 453.734375 326.191406 464.691406 " fill-opacity="1" fill-rule="nonzero"/><path fill="#000000" d="M 333.484375 459.835938 C 330.453125 449.730469 321.078125 442.359375 309.972656 442.359375 C 298.871094 442.359375 289.839844 449.136719 287.066406 459.835938 L 333.484375 459.835938 " fill-opacity="1" fill-rule="nonzero"/><path fill="#fda4ff" d="M 313.449219 498.792969 L 290.472656 498.792969 L 290.472656 464.691406 L 313.449219 464.691406 L 313.449219 498.792969 " fill-opacity="1" fill-rule="nonzero"/><path fill="#000000" d="M 313.449219 499.984375 C 312.984375 499.984375 312.605469 499.605469 312.605469 499.140625 L 312.605469 479.929688 C 312.605469 479.46875 312.984375 479.089844 313.449219 479.089844 C 313.914062 479.089844 314.289062 479.46875 314.289062 479.929688 L 314.289062 499.140625 C 314.289062 499.605469 313.914062 499.984375 313.449219 499.984375 " fill-opacity="1" fill-rule="nonzero"/><path fill="#ffffff" d="M 290.472656 756.183594 C 290.472656 756.183594 274.839844 753.109375 271.261719 751.601562 C 237.980469 737.558594 235.398438 718.597656 229.214844 688.648438 L 211.484375 553.65625 L 360.554688 553.65625 L 378.179688 688.582031 C 384.363281 718.535156 396.34375 736.027344 425.140625 750.300781 C 428.621094 752.027344 439.4375 756.113281 439.4375 756.113281 L 292.78125 756.183594 L 290.472656 756.183594 " fill-opacity="1" fill-rule="nonzero"/><g clip-path="url(#654a4aeb71)"><path fill="#000000" d="M 290.476562 757.023438 C 290.433594 757.023438 290.394531 757.019531 290.351562 757.015625 C 289.917969 756.949219 279.667969 755.460938 275.960938 754.199219 C 243.6875 743.21875 235.4375 727.515625 228.386719 688.796875 L 210.648438 553.761719 C 210.617188 553.527344 210.691406 553.28125 210.851562 553.097656 C 211.007812 552.917969 211.238281 552.8125 211.484375 552.8125 L 360.550781 552.8125 C 360.976562 552.8125 361.335938 553.125 361.390625 553.546875 L 379.015625 688.472656 C 385.390625 719.335938 397.992188 735.910156 425.515625 749.550781 C 428.917969 751.234375 439.628906 755.289062 439.734375 755.324219 C 440.171875 755.488281 440.390625 755.980469 440.226562 756.410156 C 440.058594 756.847656 439.574219 757.0625 439.140625 756.90625 C 438.695312 756.734375 428.246094 752.777344 424.769531 751.054688 C 396.710938 737.152344 383.859375 720.265625 377.351562 688.75 L 359.816406 554.496094 L 212.441406 554.496094 L 230.050781 688.535156 C 237.082031 727.132812 244.78125 741.8125 276.503906 752.605469 C 280.0625 753.8125 290.488281 755.332031 290.59375 755.347656 C 291.054688 755.414062 291.375 755.839844 291.304688 756.300781 C 291.246094 756.722656 290.886719 757.023438 290.476562 757.023438 " fill-opacity="1" fill-rule="nonzero"/></g><path fill="#8c7bff" d="M 704.964844 751.046875 C 706.050781 703.503906 719.496094 708.730469 700.886719 660.738281 L 692.527344 639.171875 L 634.164062 647.972656 L 641.910156 751.046875 L 704.964844 751.046875 " fill-opacity="1" fill-rule="nonzero"/><path fill="#8c7bff" d="M 643.070312 756.011719 L 644.851562 643.535156 L 586.050781 643.535156 L 576.929688 686.617188 C 575.660156 691.660156 566.53125 694.917969 559.03125 698.988281 C 530.410156 714.511719 508.300781 721.929688 506.578125 754.875 C 506.554688 755.308594 506.535156 755.777344 506.535156 755.777344 L 643.070312 756.011719 " fill-opacity="1" fill-rule="nonzero"/><path fill="#000000" d="M 695.136719 645.90625 L 586.960938 639.171875 L 581.421875 665.398438 Z M 695.136719 645.90625 " fill-opacity="1" fill-rule="nonzero"/><path fill="#6155ff" d="M 632.472656 713.367188 L 632.484375 713.367188 C 642.324219 710.367188 647.863281 699.960938 644.863281 690.125 L 638.074219 667.875 L 602.441406 678.726562 L 609.234375 700.996094 C 612.238281 710.824219 622.640625 716.363281 632.472656 713.367188 " fill-opacity="1" fill-rule="nonzero"/><path fill="#000000" d="M 587.632812 695.867188 C 587.535156 695.867188 587.429688 695.851562 587.332031 695.8125 L 574.925781 691.070312 C 574.59375 690.941406 574.378906 690.621094 574.386719 690.265625 C 574.390625 689.910156 574.621094 689.597656 574.953125 689.484375 L 585.378906 685.910156 C 585.816406 685.757812 586.292969 685.996094 586.449219 686.433594 C 586.597656 686.875 586.363281 687.355469 585.925781 687.503906 L 577.695312 690.324219 L 587.933594 694.242188 C 588.367188 694.40625 588.585938 694.890625 588.417969 695.328125 C 588.289062 695.660156 587.972656 695.867188 587.632812 695.867188 " fill-opacity="1" fill-rule="nonzero"/><path fill="#4ada85" d="M 532.453125 604.585938 L 537.386719 642.484375 L 605.042969 642.484375 L 608.113281 598.300781 L 532.453125 604.585938 " fill-opacity="1" fill-rule="nonzero"/><path fill="#4ada85" d="M 742.59375 640.148438 C 754.457031 631.007812 756.027344 613.171875 746.105469 600.316406 L 701.367188 542.40625 L 659.75 577.214844 L 703.140625 633.425781 C 713.066406 646.28125 730.730469 649.289062 742.59375 640.148438 " fill-opacity="1" fill-rule="nonzero"/><path fill="#4ada85" d="M 519.234375 589.980469 L 564.910156 548.765625 C 578.761719 537.898438 588.078125 530.21875 602.511719 527.722656 L 642.824219 520.742188 L 677.558594 526.6875 C 693.960938 529.496094 705.945312 543.699219 705.945312 560.320312 L 705.945312 646.746094 L 580.074219 647.824219 L 580.074219 620.207031 C 580.074219 620.207031 568.183594 627.820312 561.222656 632.269531 C 548.007812 640.710938 536.09375 649.871094 515.542969 630.359375 C 504.578125 611.25 510.085938 601.835938 519.234375 589.980469 " fill-opacity="1" fill-rule="nonzero"/><path fill="#000000" d="M 538.929688 642.507812 C 529.828125 642.507812 520.828125 638.476562 514.878906 630.875 C 504.976562 618.234375 506.644531 599.996094 518.675781 589.351562 C 533.5 576.242188 553.148438 558.742188 562.574219 549.792969 C 570.28125 542.480469 585.699219 529.777344 602.371094 526.890625 L 642.679688 519.914062 C 643.136719 519.832031 643.574219 520.136719 643.652344 520.597656 C 643.730469 521.054688 643.421875 521.492188 642.964844 521.570312 L 602.65625 528.550781 C 586.425781 531.359375 571.300781 543.832031 563.730469 551.015625 C 554.289062 559.980469 534.625 577.496094 519.792969 590.613281 C 508.425781 600.667969 506.851562 617.898438 516.207031 629.839844 C 525.417969 641.605469 542.375 644.324219 554.8125 636.035156 L 579.609375 619.511719 C 579.996094 619.25 580.519531 619.359375 580.773438 619.742188 C 581.03125 620.128906 580.929688 620.652344 580.539062 620.910156 L 555.75 637.433594 C 550.613281 640.859375 544.753906 642.507812 538.929688 642.507812 " fill-opacity="1" fill-rule="nonzero"/><path fill="#000000" d="M 580.074219 647.824219 C 579.613281 647.824219 579.234375 647.445312 579.234375 646.984375 L 579.234375 620.207031 C 579.234375 619.742188 579.609375 619.367188 580.074219 619.367188 C 580.539062 619.367188 580.914062 619.742188 580.914062 620.207031 L 580.917969 646.140625 L 674.472656 646.140625 L 705.105469 645.09375 L 705.105469 581.089844 C 705.105469 580.625 705.480469 580.25 705.945312 580.25 C 706.414062 580.25 706.785156 580.625 706.785156 581.089844 L 706.785156 645.90625 C 706.785156 646.355469 706.429688 646.730469 705.976562 646.746094 L 674.5 647.824219 L 580.074219 647.824219 " fill-opacity="1" fill-rule="nonzero"/><path fill="#000000" d="M 580.074219 621.050781 C 579.8125 621.050781 579.550781 620.929688 579.386719 620.695312 C 579.121094 620.316406 579.207031 619.792969 579.589844 619.523438 L 616.628906 593.230469 C 617.007812 592.964844 617.53125 593.054688 617.804688 593.433594 C 618.070312 593.8125 617.980469 594.335938 617.605469 594.609375 L 580.5625 620.898438 C 580.414062 621 580.246094 621.050781 580.074219 621.050781 " fill-opacity="1" fill-rule="nonzero"/><path fill="#955b50" d="M 621.796875 485.613281 C 619.621094 500.175781 626.039062 511.261719 640.394531 512.644531 C 652.765625 513.832031 664.40625 504.152344 666.582031 489.589844 C 668.757812 475.027344 660.558594 461.734375 648.269531 459.902344 C 635.980469 458.074219 623.96875 471.046875 621.796875 485.613281 " fill-opacity="1" fill-rule="nonzero"/><path fill="#000000" d="M 633.066406 484.441406 C 626.726562 477.78125 624.25 469.875 627.523438 464.304688 C 632.007812 456.683594 646.789062 456.195312 657.824219 463.527344 C 681.394531 479.175781 671.210938 496.222656 672.390625 498.945312 C 674.144531 502.996094 681.523438 505.148438 683.332031 509.855469 C 684.964844 514.105469 680.933594 520.609375 682.480469 525.273438 C 683.945312 529.671875 691.085938 532.484375 692.367188 537.148438 C 693.609375 541.675781 688.910156 547.707031 689.886719 552.386719 C 690.859375 557.023438 697.589844 560.707031 698.207031 565.410156 C 698.828125 570.140625 693.273438 575.382812 693.445312 580.089844 C 693.621094 584.886719 699.53125 589.777344 699.140625 594.445312 C 698.742188 599.238281 692.113281 602.988281 691.015625 607.546875 L 621.921875 607.546875 C 619.269531 603.429688 619.949219 598.320312 620.746094 596.054688 C 622.300781 591.613281 629.386719 588.757812 630.539062 584.125 C 631.679688 579.523438 626.753906 573.636719 627.546875 568.96875 C 628.34375 564.253906 634.925781 560.347656 635.421875 555.679688 C 635.929688 550.875 630.308594 545.648438 630.554688 541.019531 C 630.8125 536.117188 636.941406 531.527344 636.976562 526.976562 C 637.011719 521.933594 630.925781 517.238281 630.769531 512.835938 C 630.582031 507.488281 636.28125 502.355469 635.96875 498.292969 C 635.546875 492.804688 634.097656 487.585938 633.066406 484.441406 " fill-opacity="1" fill-rule="nonzero"/><path fill="#ffffff" d="M 717.804688 756.203125 L 744.796875 591.074219 L 604.878906 591.074219 L 574.175781 756.148438 L 717.804688 756.203125 " fill-opacity="1" fill-rule="nonzero"/><path fill="#000000" d="M 718.488281 756.6875 C 718.441406 756.6875 718.398438 756.6875 718.351562 756.679688 C 717.894531 756.605469 717.582031 756.175781 717.65625 755.714844 L 742.957031 597.242188 C 742.957031 597.222656 742.957031 597.210938 742.960938 597.195312 L 743.804688 591.917969 L 605.574219 591.917969 L 586.523438 694.390625 C 586.519531 694.40625 586.515625 694.421875 586.515625 694.4375 L 575.082031 755.890625 C 575 756.347656 574.558594 756.652344 574.101562 756.5625 C 573.644531 756.480469 573.339844 756.039062 573.429688 755.585938 L 584.851562 694.171875 C 584.855469 694.15625 584.859375 694.136719 584.859375 694.121094 L 604.050781 590.921875 C 604.125 590.523438 604.472656 590.234375 604.878906 590.234375 L 744.796875 590.234375 C 745.042969 590.234375 745.277344 590.339844 745.4375 590.527344 C 745.597656 590.71875 745.664062 590.96875 745.625 591.207031 L 744.632812 597.425781 C 744.628906 597.441406 744.628906 597.457031 744.621094 597.46875 L 719.316406 755.980469 C 719.25 756.394531 718.890625 756.6875 718.488281 756.6875 " fill-opacity="1" fill-rule="nonzero"/></svg>