<svg xmlns="http://www.w3.org/2000/svg" xmlns:xlink="http://www.w3.org/1999/xlink" width="1080" zoomAndPan="magnify" viewBox="0 0 810 809.999993" height="1080" preserveAspectRatio="xMidYMid meet" version="1.0"><defs><g/><clipPath id="1206a2bd32"><path d="M 79.363281 389 L 285 389 L 285 587 L 79.363281 587 Z M 79.363281 389 " clip-rule="nonzero"/></clipPath><clipPath id="cf746a1f91"><path d="M 417 49.023438 L 619 49.023438 L 619 254 L 417 254 Z M 417 49.023438 " clip-rule="nonzero"/></clipPath><clipPath id="204ee70b50"><path d="M 188 49.023438 L 386 49.023438 L 386 258 L 188 258 Z M 188 49.023438 " clip-rule="nonzero"/></clipPath><clipPath id="3838db1e45"><path d="M 190 494 L 391 494 L 391 699.273438 L 190 699.273438 Z M 190 494 " clip-rule="nonzero"/></clipPath><clipPath id="3280bba1d1"><path d="M 422 492 L 620 492 L 620 699.273438 L 422 699.273438 Z M 422 492 " clip-rule="nonzero"/></clipPath><clipPath id="f89fb6e9d8"><path d="M 225.800781 195.050781 L 584.199219 195.050781 L 584.199219 553.449219 L 225.800781 553.449219 Z M 225.800781 195.050781 " clip-rule="nonzero"/></clipPath><clipPath id="db473cc7f6"><path d="M 405 195.050781 C 306.03125 195.050781 225.800781 275.28125 225.800781 374.25 C 225.800781 473.21875 306.03125 553.449219 405 553.449219 C 503.96875 553.449219 584.199219 473.21875 584.199219 374.25 C 584.199219 275.28125 503.96875 195.050781 405 195.050781 " clip-rule="nonzero"/></clipPath></defs><g clip-path="url(#1206a2bd32)"><path fill="#3f66b0" d="M 283.417969 461.414062 C 283.6875 461.8125 283.921875 462.234375 284.125 462.671875 C 284.324219 463.109375 284.484375 463.5625 284.605469 464.027344 C 284.726562 464.496094 284.804688 464.96875 284.847656 465.449219 C 284.886719 465.929688 284.886719 466.410156 284.84375 466.890625 C 284.800781 467.371094 284.71875 467.84375 284.59375 468.308594 C 284.46875 468.773438 284.304688 469.226562 284.105469 469.664062 C 283.902344 470.101562 283.664062 470.519531 283.390625 470.914062 C 283.117188 471.3125 282.8125 471.683594 282.476562 472.027344 L 165.378906 584.863281 C 165.058594 585.183594 164.707031 585.464844 164.328125 585.707031 C 163.949219 585.949219 163.546875 586.148438 163.125 586.308594 C 162.703125 586.464844 162.265625 586.578125 161.820312 586.644531 C 161.375 586.707031 160.925781 586.726562 160.476562 586.695312 C 160.027344 586.667969 159.582031 586.589844 159.148438 586.464844 C 158.714844 586.34375 158.300781 586.175781 157.902344 585.960938 C 157.503906 585.75 157.132812 585.5 156.789062 585.207031 C 156.441406 584.917969 156.132812 584.59375 155.855469 584.234375 C 155.855469 584.234375 116.03125 534.355469 98.253906 485.308594 C 84.5 447.371094 79.804688 396.199219 79.804688 396.199219 C 79.753906 395.75 79.75 395.300781 79.796875 394.851562 C 79.839844 394.402344 79.933594 393.960938 80.074219 393.53125 C 80.210938 393.101562 80.394531 392.691406 80.621094 392.300781 C 80.847656 391.910156 81.113281 391.546875 81.417969 391.210938 C 81.722656 390.875 82.054688 390.578125 82.425781 390.3125 C 82.792969 390.050781 83.183594 389.828125 83.597656 389.648438 C 84.011719 389.46875 84.441406 389.335938 84.882812 389.246094 C 85.328125 389.160156 85.773438 389.117188 86.226562 389.125 L 248.839844 389.0625 C 249.324219 389.074219 249.800781 389.128906 250.277344 389.222656 C 250.75 389.320312 251.214844 389.457031 251.664062 389.628906 C 252.117188 389.804688 252.546875 390.019531 252.960938 390.269531 C 253.378906 390.519531 253.765625 390.800781 254.132812 391.117188 C 254.5 391.433594 254.835938 391.78125 255.140625 392.15625 C 255.449219 392.53125 255.71875 392.929688 255.957031 393.351562 C 256.195312 393.769531 256.394531 394.210938 256.558594 394.664062 C 256.71875 395.121094 256.84375 395.589844 256.925781 396.066406 C 256.925781 396.066406 259.441406 413.589844 265.710938 429.378906 C 272.359375 446.15625 283.417969 461.414062 283.417969 461.414062 Z M 283.417969 461.414062 " fill-opacity="1" fill-rule="nonzero"/></g><path fill="#f05623" d="M 525.507812 462.414062 C 525.230469 462.808594 524.992188 463.226562 524.789062 463.664062 C 524.585938 464.101562 524.421875 464.550781 524.296875 465.019531 C 524.171875 465.484375 524.085938 465.957031 524.042969 466.4375 C 524 466.917969 524 467.398438 524.039062 467.878906 C 524.078125 468.359375 524.160156 468.832031 524.28125 469.300781 C 524.40625 469.765625 524.566406 470.21875 524.765625 470.65625 C 524.964844 471.097656 525.203125 471.515625 525.476562 471.910156 C 525.75 472.308594 526.054688 472.679688 526.390625 473.027344 L 643.113281 586.152344 C 643.433594 586.472656 643.78125 586.753906 644.160156 587 C 644.539062 587.246094 644.9375 587.449219 645.359375 587.609375 C 645.78125 587.769531 646.21875 587.882812 646.664062 587.953125 C 647.109375 588.019531 647.558594 588.039062 648.007812 588.011719 C 648.460938 587.984375 648.902344 587.910156 649.335938 587.789062 C 649.773438 587.667969 650.1875 587.5 650.589844 587.289062 C 650.988281 587.082031 651.359375 586.832031 651.707031 586.539062 C 652.054688 586.25 652.363281 585.929688 652.640625 585.570312 C 652.640625 585.570312 693.175781 535.375 711.265625 485.648438 C 725.414062 446.679688 729.960938 394.296875 729.960938 394.296875 C 730.007812 393.847656 730.007812 393.398438 729.960938 392.949219 C 729.914062 392.5 729.816406 392.058594 729.675781 391.632812 C 729.535156 391.203125 729.347656 390.792969 729.121094 390.402344 C 728.890625 390.015625 728.621094 389.652344 728.316406 389.320312 C 728.011719 388.988281 727.675781 388.691406 727.304688 388.429688 C 726.9375 388.167969 726.542969 387.949219 726.128906 387.773438 C 725.710938 387.597656 725.28125 387.464844 724.839844 387.378906 C 724.394531 387.292969 723.949219 387.253906 723.496094 387.265625 L 560.933594 387.675781 C 560.449219 387.6875 559.972656 387.746094 559.5 387.839844 C 559.027344 387.9375 558.566406 388.074219 558.117188 388.253906 C 557.667969 388.429688 557.234375 388.644531 556.824219 388.894531 C 556.410156 389.144531 556.023438 389.429688 555.660156 389.75 C 555.296875 390.066406 554.964844 390.414062 554.660156 390.792969 C 554.355469 391.167969 554.089844 391.566406 553.855469 391.988281 C 553.621094 392.410156 553.421875 392.851562 553.265625 393.308594 C 553.105469 393.761719 552.988281 394.230469 552.910156 394.707031 C 552.910156 394.707031 550.429688 413.164062 543.800781 429.742188 C 536.945312 446.890625 525.507812 462.414062 525.507812 462.414062 Z M 525.507812 462.414062 " fill-opacity="1" fill-rule="nonzero"/><path fill="#f7901e" d="M 522.917969 282.457031 C 522.628906 282.074219 522.378906 281.667969 522.164062 281.242188 C 521.949219 280.816406 521.773438 280.371094 521.636719 279.914062 C 521.5 279.453125 521.40625 278.988281 521.355469 278.511719 C 521.300781 278.035156 521.289062 277.558594 521.324219 277.082031 C 521.355469 276.605469 521.429688 276.136719 521.546875 275.671875 C 521.660156 275.207031 521.816406 274.757812 522.015625 274.320312 C 522.210938 273.882812 522.445312 273.46875 522.714844 273.074219 C 522.984375 272.679688 523.289062 272.3125 523.625 271.972656 L 640.574219 159.3125 C 640.894531 158.992188 641.246094 158.710938 641.628906 158.464844 C 642.011719 158.222656 642.414062 158.019531 642.835938 157.859375 C 643.261719 157.699219 643.695312 157.582031 644.144531 157.515625 C 644.59375 157.445312 645.042969 157.421875 645.496094 157.449219 C 645.949219 157.476562 646.390625 157.546875 646.828125 157.667969 C 647.265625 157.785156 647.6875 157.949219 648.089844 158.15625 C 648.492188 158.363281 648.871094 158.609375 649.222656 158.898438 C 649.570312 159.183594 649.890625 159.503906 650.171875 159.855469 C 650.171875 159.855469 691.105469 209.382812 709.730469 258.515625 C 724.113281 296.4375 729.539062 347.785156 729.539062 347.785156 C 729.59375 348.234375 729.601562 348.679688 729.5625 349.128906 C 729.523438 349.578125 729.433594 350.015625 729.300781 350.445312 C 729.164062 350.875 728.984375 351.285156 728.761719 351.679688 C 728.539062 352.070312 728.273438 352.429688 727.972656 352.765625 C 727.667969 353.097656 727.335938 353.394531 726.96875 353.65625 C 726.601562 353.917969 726.210938 354.136719 725.796875 354.3125 C 725.382812 354.492188 724.953125 354.621094 724.511719 354.703125 C 724.066406 354.789062 723.621094 354.824219 723.171875 354.8125 L 560.304688 354.648438 C 559.816406 354.632812 559.335938 354.574219 558.855469 354.476562 C 558.378906 354.378906 557.910156 354.242188 557.457031 354.070312 C 557 353.894531 556.5625 353.683594 556.144531 353.433594 C 555.722656 353.1875 555.324219 352.90625 554.953125 352.59375 C 554.578125 352.277344 554.234375 351.933594 553.917969 351.5625 C 553.601562 351.191406 553.316406 350.796875 553.066406 350.378906 C 552.816406 349.960938 552.601562 349.523438 552.425781 349.070312 C 552.246094 348.617188 552.105469 348.152344 552.007812 347.671875 C 552.007812 347.671875 548.824219 329.722656 541.761719 313.714844 C 534.496094 297.265625 522.917969 282.457031 522.917969 282.457031 Z M 522.917969 282.457031 " fill-opacity="1" fill-rule="nonzero"/><path fill="#1c907f" d="M 285.929688 283.488281 C 286.210938 283.101562 286.460938 282.695312 286.671875 282.265625 C 286.882812 281.832031 287.054688 281.386719 287.1875 280.925781 C 287.320312 280.464844 287.410156 279.996094 287.460938 279.519531 C 287.511719 279.042969 287.515625 278.566406 287.480469 278.085938 C 287.445312 277.609375 287.371094 277.136719 287.25 276.671875 C 287.132812 276.207031 286.972656 275.757812 286.773438 275.320312 C 286.574219 274.882812 286.339844 274.46875 286.066406 274.074219 C 285.792969 273.679688 285.488281 273.308594 285.148438 272.96875 L 168.257812 160.21875 C 167.9375 159.898438 167.585938 159.617188 167.203125 159.371094 C 166.824219 159.125 166.421875 158.921875 165.996094 158.761719 C 165.574219 158.601562 165.136719 158.488281 164.691406 158.417969 C 164.242188 158.351562 163.792969 158.328125 163.339844 158.355469 C 162.886719 158.382812 162.445312 158.453125 162.007812 158.574219 C 161.570312 158.695312 161.152344 158.859375 160.75 159.066406 C 160.347656 159.277344 159.96875 159.523438 159.621094 159.8125 C 159.269531 160.101562 158.953125 160.421875 158.671875 160.777344 C 158.671875 160.777344 118.292969 209.976562 99.867188 258.636719 C 85.535156 296.488281 80.164062 347.707031 80.164062 347.707031 C 80.105469 348.152344 80.097656 348.601562 80.136719 349.046875 C 80.175781 349.496094 80.261719 349.933594 80.398438 350.363281 C 80.53125 350.792969 80.710938 351.203125 80.933594 351.59375 C 81.152344 351.984375 81.414062 352.347656 81.714844 352.679688 C 82.015625 353.015625 82.347656 353.3125 82.714844 353.574219 C 83.078125 353.835938 83.46875 354.058594 83.878906 354.234375 C 84.292969 354.414062 84.71875 354.546875 85.160156 354.632812 C 85.601562 354.71875 86.046875 354.757812 86.496094 354.746094 L 249.347656 354.746094 C 249.835938 354.734375 250.320312 354.675781 250.796875 354.582031 C 251.273438 354.484375 251.742188 354.347656 252.195312 354.175781 C 252.652344 354 253.089844 353.789062 253.511719 353.542969 C 253.929688 353.292969 254.328125 353.015625 254.699219 352.699219 C 255.074219 352.386719 255.417969 352.042969 255.734375 351.671875 C 256.050781 351.300781 256.335938 350.90625 256.585938 350.488281 C 256.835938 350.070312 257.046875 349.632812 257.226562 349.175781 C 257.402344 348.722656 257.539062 348.257812 257.640625 347.777344 C 257.640625 347.777344 260.722656 330.09375 267.613281 314.320312 C 274.703125 298.105469 285.929688 283.488281 285.929688 283.488281 Z M 285.929688 283.488281 " fill-opacity="1" fill-rule="nonzero"/><g clip-path="url(#cf746a1f91)"><path fill="#fbcd09" d="M 424.855469 225.964844 C 424.382812 225.890625 423.917969 225.777344 423.464844 225.621094 C 423.011719 225.46875 422.574219 225.273438 422.15625 225.042969 C 421.734375 224.808594 421.339844 224.542969 420.96875 224.238281 C 420.597656 223.9375 420.253906 223.605469 419.941406 223.242188 C 419.628906 222.878906 419.347656 222.488281 419.105469 222.078125 C 418.859375 221.664062 418.65625 221.234375 418.488281 220.785156 C 418.320312 220.335938 418.191406 219.875 418.105469 219.402344 C 418.019531 218.933594 417.976562 218.457031 417.972656 217.976562 L 420.972656 55.566406 C 420.976562 55.113281 421.023438 54.667969 421.121094 54.226562 C 421.214844 53.785156 421.359375 53.355469 421.542969 52.945312 C 421.730469 52.53125 421.957031 52.144531 422.226562 51.78125 C 422.492188 51.414062 422.796875 51.082031 423.132812 50.78125 C 423.472656 50.484375 423.839844 50.21875 424.230469 49.996094 C 424.625 49.773438 425.035156 49.59375 425.46875 49.457031 C 425.898438 49.320312 426.339844 49.230469 426.789062 49.1875 C 427.238281 49.144531 427.691406 49.148438 428.140625 49.199219 C 428.140625 49.199219 491.578125 55.460938 539.082031 76.925781 C 576.015625 93.621094 616.046875 126.125 616.046875 126.125 C 616.402344 126.398438 616.726562 126.710938 617.011719 127.054688 C 617.300781 127.402344 617.550781 127.773438 617.757812 128.171875 C 617.964844 128.570312 618.128906 128.988281 618.246094 129.421875 C 618.363281 129.855469 618.433594 130.296875 618.457031 130.746094 C 618.480469 131.195312 618.457031 131.640625 618.382812 132.085938 C 618.3125 132.527344 618.191406 132.960938 618.027344 133.378906 C 617.859375 133.796875 617.652344 134.191406 617.398438 134.5625 C 617.148438 134.9375 616.859375 135.277344 616.535156 135.589844 L 501.417969 250.78125 C 501.066406 251.117188 500.683594 251.417969 500.277344 251.6875 C 499.875 251.960938 499.449219 252.195312 499.003906 252.390625 C 498.558594 252.589844 498.101562 252.75 497.628906 252.871094 C 497.15625 252.996094 496.679688 253.078125 496.191406 253.117188 C 495.707031 253.160156 495.222656 253.160156 494.734375 253.121094 C 494.25 253.078125 493.773438 253 493.300781 252.878906 C 492.828125 252.757812 492.367188 252.601562 491.921875 252.402344 C 491.476562 252.203125 491.050781 251.972656 490.644531 251.703125 C 490.644531 251.703125 475.789062 241.167969 459.425781 234.765625 C 443.066406 228.363281 424.855469 225.964844 424.855469 225.964844 Z M 424.855469 225.964844 " fill-opacity="1" fill-rule="nonzero"/></g><g clip-path="url(#204ee70b50)"><path fill="#8fc741" d="M 313.644531 255.652344 C 313.261719 255.933594 312.851562 256.183594 312.425781 256.398438 C 311.996094 256.609375 311.550781 256.78125 311.089844 256.917969 C 310.628906 257.050781 310.164062 257.140625 309.6875 257.191406 C 309.210938 257.242188 308.734375 257.25 308.253906 257.214844 C 307.777344 257.183594 307.308594 257.105469 306.84375 256.988281 C 306.378906 256.871094 305.929688 256.710938 305.492188 256.511719 C 305.058594 256.316406 304.640625 256.078125 304.246094 255.808594 C 303.855469 255.535156 303.488281 255.230469 303.148438 254.894531 L 190.519531 137.902344 C 190.199219 137.582031 189.917969 137.234375 189.671875 136.851562 C 189.429688 136.472656 189.226562 136.070312 189.066406 135.648438 C 188.90625 135.226562 188.792969 134.789062 188.722656 134.34375 C 188.65625 133.894531 188.636719 133.445312 188.664062 132.996094 C 188.691406 132.542969 188.765625 132.097656 188.886719 131.664062 C 189.007812 131.226562 189.171875 130.808594 189.382812 130.410156 C 189.59375 130.007812 189.84375 129.632812 190.132812 129.285156 C 190.421875 128.9375 190.746094 128.625 191.101562 128.34375 C 191.101562 128.34375 240.824219 87.960938 289.492188 69.496094 C 327.347656 55.136719 378.824219 49.433594 378.824219 49.433594 C 379.269531 49.371094 379.71875 49.359375 380.167969 49.394531 C 380.613281 49.429688 381.054688 49.515625 381.484375 49.644531 C 381.914062 49.777344 382.324219 49.953125 382.71875 50.175781 C 383.109375 50.398438 383.472656 50.65625 383.808594 50.957031 C 384.144531 51.257812 384.441406 51.589844 384.707031 51.957031 C 384.96875 52.320312 385.1875 52.710938 385.367188 53.125 C 385.542969 53.535156 385.675781 53.964844 385.761719 54.40625 C 385.847656 54.847656 385.882812 55.292969 385.871094 55.742188 L 385.808594 218.636719 C 385.792969 219.121094 385.734375 219.605469 385.640625 220.082031 C 385.542969 220.5625 385.40625 221.027344 385.234375 221.480469 C 385.058594 221.9375 384.847656 222.375 384.597656 222.796875 C 384.351562 223.214844 384.070312 223.609375 383.757812 223.984375 C 383.441406 224.355469 383.097656 224.699219 382.726562 225.015625 C 382.355469 225.332031 381.960938 225.613281 381.542969 225.863281 C 381.121094 226.113281 380.683594 226.324219 380.230469 226.5 C 379.777344 226.675781 379.308594 226.8125 378.832031 226.914062 C 378.832031 226.914062 360.976562 229.984375 345.039062 236.929688 C 328.515625 244.117188 313.644531 255.652344 313.644531 255.652344 Z M 313.644531 255.652344 " fill-opacity="1" fill-rule="nonzero"/></g><g clip-path="url(#3838db1e45)"><path fill="#655ca8" d="M 383.601562 522.167969 C 384.074219 522.246094 384.539062 522.363281 384.992188 522.523438 C 385.445312 522.683594 385.878906 522.878906 386.300781 523.117188 C 386.71875 523.351562 387.113281 523.625 387.484375 523.929688 C 387.855469 524.234375 388.195312 524.570312 388.507812 524.9375 C 388.820312 525.300781 389.097656 525.691406 389.339844 526.105469 C 389.582031 526.519531 389.789062 526.953125 389.957031 527.402344 C 390.125 527.855469 390.25 528.316406 390.335938 528.789062 C 390.421875 529.261719 390.46875 529.738281 390.46875 530.21875 L 387.457031 692.65625 C 387.460938 693.109375 387.414062 693.558594 387.324219 694.003906 C 387.230469 694.449219 387.089844 694.878906 386.90625 695.292969 C 386.722656 695.707031 386.496094 696.097656 386.230469 696.464844 C 385.960938 696.832031 385.65625 697.167969 385.316406 697.46875 C 384.980469 697.769531 384.609375 698.03125 384.214844 698.253906 C 383.820312 698.476562 383.40625 698.65625 382.972656 698.789062 C 382.539062 698.925781 382.097656 699.011719 381.644531 699.050781 C 381.191406 699.089844 380.738281 699.082031 380.289062 699.023438 C 380.289062 699.023438 317.144531 692.480469 270.039062 671.113281 C 233.339844 654.488281 193.390625 622.199219 193.390625 622.199219 C 193.035156 621.921875 192.714844 621.613281 192.425781 621.269531 C 192.136719 620.925781 191.890625 620.554688 191.679688 620.15625 C 191.472656 619.757812 191.308594 619.339844 191.1875 618.90625 C 191.070312 618.472656 191 618.03125 190.976562 617.585938 C 190.949219 617.136719 190.976562 616.6875 191.046875 616.246094 C 191.121094 615.800781 191.238281 615.371094 191.402344 614.953125 C 191.570312 614.535156 191.777344 614.140625 192.027344 613.765625 C 192.277344 613.394531 192.566406 613.050781 192.890625 612.738281 L 307.949219 497.3125 C 308.304688 496.980469 308.683594 496.675781 309.089844 496.40625 C 309.492188 496.136719 309.917969 495.902344 310.363281 495.703125 C 310.804688 495.503906 311.265625 495.34375 311.734375 495.21875 C 312.207031 495.097656 312.683594 495.015625 313.171875 494.976562 C 313.65625 494.933594 314.140625 494.933594 314.625 494.976562 C 315.109375 495.015625 315.589844 495.097656 316.0625 495.21875 C 316.53125 495.339844 316.992188 495.5 317.433594 495.699219 C 317.878906 495.894531 318.304688 496.128906 318.710938 496.402344 C 318.710938 496.402344 332.703125 506.371094 347.941406 512.625 C 364.734375 519.519531 383.601562 522.167969 383.601562 522.167969 Z M 383.601562 522.167969 " fill-opacity="1" fill-rule="nonzero"/></g><g clip-path="url(#3280bba1d1)"><path fill="#9f4098" d="M 494.996094 493.675781 C 495.386719 493.398438 495.800781 493.15625 496.234375 492.949219 C 496.671875 492.742188 497.121094 492.574219 497.582031 492.449219 C 498.046875 492.320312 498.519531 492.234375 498.996094 492.191406 C 499.476562 492.144531 499.953125 492.140625 500.433594 492.179688 C 500.914062 492.21875 501.386719 492.300781 501.851562 492.421875 C 502.316406 492.546875 502.769531 492.707031 503.203125 492.90625 C 503.640625 493.109375 504.058594 493.347656 504.453125 493.621094 C 504.847656 493.894531 505.214844 494.203125 505.558594 494.539062 L 617.878906 611.273438 C 618.199219 611.597656 618.480469 611.949219 618.726562 612.328125 C 618.96875 612.710938 619.171875 613.113281 619.332031 613.535156 C 619.492188 613.960938 619.605469 614.394531 619.675781 614.84375 C 619.742188 615.289062 619.761719 615.742188 619.734375 616.191406 C 619.707031 616.644531 619.632812 617.089844 619.511719 617.527344 C 619.394531 617.960938 619.226562 618.382812 619.019531 618.78125 C 618.808594 619.183594 618.5625 619.558594 618.273438 619.910156 C 617.984375 620.257812 617.664062 620.574219 617.308594 620.855469 C 617.308594 620.855469 567.886719 661.351562 518.898438 679.660156 C 480.898438 693.894531 429.574219 699.015625 429.574219 699.015625 C 429.128906 699.070312 428.679688 699.078125 428.234375 699.035156 C 427.785156 698.996094 427.347656 698.90625 426.917969 698.769531 C 426.488281 698.632812 426.082031 698.453125 425.691406 698.230469 C 425.300781 698.003906 424.9375 697.742188 424.605469 697.441406 C 424.273438 697.136719 423.972656 696.804688 423.710938 696.4375 C 423.449219 696.070312 423.230469 695.683594 423.054688 695.269531 C 422.875 694.855469 422.742188 694.429688 422.65625 693.988281 C 422.570312 693.546875 422.535156 693.101562 422.542969 692.648438 L 422.691406 529.828125 C 422.707031 529.34375 422.761719 528.859375 422.859375 528.382812 C 422.953125 527.90625 423.089844 527.441406 423.265625 526.984375 C 423.4375 526.53125 423.648438 526.09375 423.898438 525.675781 C 424.144531 525.257812 424.425781 524.863281 424.742188 524.492188 C 425.058594 524.117188 425.402344 523.777344 425.773438 523.464844 C 426.144531 523.148438 426.542969 522.871094 426.960938 522.625 C 427.382812 522.375 427.820312 522.167969 428.273438 521.996094 C 428.730469 521.820312 429.195312 521.6875 429.675781 521.59375 C 429.675781 521.59375 447.359375 518.644531 463.167969 512.007812 C 479.800781 504.996094 494.996094 493.675781 494.996094 493.675781 Z M 494.996094 493.675781 " fill-opacity="1" fill-rule="nonzero"/></g><g clip-path="url(#f89fb6e9d8)"><g clip-path="url(#db473cc7f6)"><path fill="#ffffff" d="M 225.800781 195.050781 L 584.199219 195.050781 L 584.199219 553.449219 L 225.800781 553.449219 Z M 225.800781 195.050781 " fill-opacity="1" fill-rule="nonzero"/></g></g><g fill="#1f117b" fill-opacity="1"><g transform="translate(98.338349, 763.533636)"><g><path d="M 28.125 0 L 20.71875 -10.546875 C 19.800781 -10.484375 19.078125 -10.453125 18.546875 -10.453125 L 10.0625 -10.453125 L 10.0625 0 L 5.15625 0 L 5.15625 -34.359375 L 18.546875 -34.359375 C 22.992188 -34.359375 26.492188 -33.289062 29.046875 -31.15625 C 31.597656 -29.03125 32.875 -26.101562 32.875 -22.375 C 32.875 -19.726562 32.21875 -17.472656 30.90625 -15.609375 C 29.601562 -13.742188 27.742188 -12.382812 25.328125 -11.53125 L 33.46875 0 Z M 18.40625 -14.625 C 21.507812 -14.625 23.878906 -15.296875 25.515625 -16.640625 C 27.148438 -17.984375 27.96875 -19.894531 27.96875 -22.375 C 27.96875 -24.863281 27.148438 -26.769531 25.515625 -28.09375 C 23.878906 -29.414062 21.507812 -30.078125 18.40625 -30.078125 L 10.0625 -30.078125 L 10.0625 -14.625 Z M 18.40625 -14.625 "/></g></g></g><g fill="#1f117b" fill-opacity="1"><g transform="translate(134.011286, 763.533636)"><g><path d="M 27.96875 -12.859375 C 27.96875 -12.492188 27.9375 -12.019531 27.875 -11.4375 L 6.765625 -11.4375 C 7.066406 -9.144531 8.078125 -7.300781 9.796875 -5.90625 C 11.515625 -4.519531 13.648438 -3.828125 16.203125 -3.828125 C 19.304688 -3.828125 21.804688 -4.875 23.703125 -6.96875 L 26.3125 -3.921875 C 25.132812 -2.546875 23.664062 -1.5 21.90625 -0.78125 C 20.15625 -0.0625 18.203125 0.296875 16.046875 0.296875 C 13.296875 0.296875 10.859375 -0.265625 8.734375 -1.390625 C 6.609375 -2.523438 4.960938 -4.101562 3.796875 -6.125 C 2.640625 -8.15625 2.0625 -10.445312 2.0625 -13 C 2.0625 -15.519531 2.625 -17.796875 3.75 -19.828125 C 4.882812 -21.859375 6.441406 -23.4375 8.421875 -24.5625 C 10.398438 -25.6875 12.628906 -26.25 15.109375 -26.25 C 17.597656 -26.25 19.816406 -25.6875 21.765625 -24.5625 C 23.710938 -23.4375 25.234375 -21.859375 26.328125 -19.828125 C 27.421875 -17.796875 27.96875 -15.472656 27.96875 -12.859375 Z M 15.109375 -22.28125 C 12.859375 -22.28125 10.972656 -21.59375 9.453125 -20.21875 C 7.929688 -18.84375 7.035156 -17.046875 6.765625 -14.828125 L 23.453125 -14.828125 C 23.191406 -17.015625 22.300781 -18.800781 20.78125 -20.1875 C 19.257812 -21.582031 17.367188 -22.28125 15.109375 -22.28125 Z M 15.109375 -22.28125 "/></g></g></g><g fill="#1f117b" fill-opacity="1"><g transform="translate(164.041326, 763.533636)"><g><path d="M 15.796875 0.296875 C 13.148438 0.296875 10.785156 -0.273438 8.703125 -1.421875 C 6.628906 -2.566406 5.003906 -4.144531 3.828125 -6.15625 C 2.648438 -8.164062 2.0625 -10.445312 2.0625 -13 C 2.0625 -15.550781 2.648438 -17.832031 3.828125 -19.84375 C 5.003906 -21.863281 6.628906 -23.4375 8.703125 -24.5625 C 10.785156 -25.6875 13.148438 -26.25 15.796875 -26.25 C 18.160156 -26.25 20.265625 -25.773438 22.109375 -24.828125 C 23.953125 -23.878906 25.382812 -22.507812 26.40625 -20.71875 L 22.828125 -18.40625 C 22.003906 -19.644531 20.988281 -20.578125 19.78125 -21.203125 C 18.570312 -21.828125 17.226562 -22.140625 15.75 -22.140625 C 14.050781 -22.140625 12.519531 -21.757812 11.15625 -21 C 9.800781 -20.25 8.738281 -19.175781 7.96875 -17.78125 C 7.207031 -16.394531 6.828125 -14.800781 6.828125 -13 C 6.828125 -11.164062 7.207031 -9.550781 7.96875 -8.15625 C 8.738281 -6.769531 9.800781 -5.703125 11.15625 -4.953125 C 12.519531 -4.203125 14.050781 -3.828125 15.75 -3.828125 C 17.226562 -3.828125 18.570312 -4.132812 19.78125 -4.75 C 20.988281 -5.375 22.003906 -6.3125 22.828125 -7.5625 L 26.40625 -5.296875 C 25.382812 -3.492188 23.953125 -2.109375 22.109375 -1.140625 C 20.265625 -0.179688 18.160156 0.296875 15.796875 0.296875 Z M 15.796875 0.296875 "/></g></g></g><g fill="#1f117b" fill-opacity="1"><g transform="translate(192.059549, 763.533636)"><g><path d="M 15.609375 0.296875 C 13.023438 0.296875 10.703125 -0.273438 8.640625 -1.421875 C 6.578125 -2.566406 4.960938 -4.144531 3.796875 -6.15625 C 2.640625 -8.164062 2.0625 -10.445312 2.0625 -13 C 2.0625 -15.550781 2.640625 -17.832031 3.796875 -19.84375 C 4.960938 -21.863281 6.578125 -23.4375 8.640625 -24.5625 C 10.703125 -25.6875 13.023438 -26.25 15.609375 -26.25 C 18.191406 -26.25 20.503906 -25.6875 22.546875 -24.5625 C 24.597656 -23.4375 26.203125 -21.863281 27.359375 -19.84375 C 28.523438 -17.832031 29.109375 -15.550781 29.109375 -13 C 29.109375 -10.445312 28.523438 -8.164062 27.359375 -6.15625 C 26.203125 -4.144531 24.597656 -2.566406 22.546875 -1.421875 C 20.503906 -0.273438 18.191406 0.296875 15.609375 0.296875 Z M 15.609375 -3.828125 C 17.273438 -3.828125 18.769531 -4.210938 20.09375 -4.984375 C 21.414062 -5.753906 22.453125 -6.832031 23.203125 -8.21875 C 23.960938 -9.613281 24.34375 -11.207031 24.34375 -13 C 24.34375 -14.800781 23.960938 -16.394531 23.203125 -17.78125 C 22.453125 -19.175781 21.414062 -20.25 20.09375 -21 C 18.769531 -21.757812 17.273438 -22.140625 15.609375 -22.140625 C 13.941406 -22.140625 12.441406 -21.757812 11.109375 -21 C 9.785156 -20.25 8.738281 -19.175781 7.96875 -17.78125 C 7.207031 -16.394531 6.828125 -14.800781 6.828125 -13 C 6.828125 -11.207031 7.207031 -9.613281 7.96875 -8.21875 C 8.738281 -6.832031 9.785156 -5.753906 11.109375 -4.984375 C 12.441406 -4.210938 13.941406 -3.828125 15.609375 -3.828125 Z M 15.609375 -3.828125 "/></g></g></g><g fill="#1f117b" fill-opacity="1"><g transform="translate(223.218168, 763.533636)"><g><path d="M 8.984375 -21.640625 C 9.796875 -23.148438 11.003906 -24.296875 12.609375 -25.078125 C 14.210938 -25.859375 16.160156 -26.25 18.453125 -26.25 L 18.453125 -21.6875 C 18.191406 -21.71875 17.832031 -21.734375 17.375 -21.734375 C 14.820312 -21.734375 12.816406 -20.972656 11.359375 -19.453125 C 9.898438 -17.929688 9.171875 -15.765625 9.171875 -12.953125 L 9.171875 0 L 4.46875 0 L 4.46875 -26.015625 L 8.984375 -26.015625 Z M 8.984375 -21.640625 "/></g></g></g><g fill="#1f117b" fill-opacity="1"><g transform="translate(243.336335, 763.533636)"><g><path d="M 29 -36.421875 L 29 0 L 24.484375 0 L 24.484375 -4.125 C 23.441406 -2.6875 22.117188 -1.585938 20.515625 -0.828125 C 18.910156 -0.078125 17.144531 0.296875 15.21875 0.296875 C 12.695312 0.296875 10.4375 -0.257812 8.4375 -1.375 C 6.445312 -2.488281 4.882812 -4.050781 3.75 -6.0625 C 2.625 -8.070312 2.0625 -10.382812 2.0625 -13 C 2.0625 -15.625 2.625 -17.929688 3.75 -19.921875 C 4.882812 -21.921875 6.445312 -23.472656 8.4375 -24.578125 C 10.4375 -25.691406 12.695312 -26.25 15.21875 -26.25 C 17.082031 -26.25 18.796875 -25.894531 20.359375 -25.1875 C 21.929688 -24.488281 23.242188 -23.453125 24.296875 -22.078125 L 24.296875 -36.421875 Z M 15.609375 -3.828125 C 17.242188 -3.828125 18.726562 -4.210938 20.0625 -4.984375 C 21.40625 -5.753906 22.453125 -6.832031 23.203125 -8.21875 C 23.960938 -9.613281 24.34375 -11.207031 24.34375 -13 C 24.34375 -14.800781 23.960938 -16.394531 23.203125 -17.78125 C 22.453125 -19.175781 21.40625 -20.25 20.0625 -21 C 18.726562 -21.757812 17.242188 -22.140625 15.609375 -22.140625 C 13.941406 -22.140625 12.441406 -21.757812 11.109375 -21 C 9.785156 -20.25 8.738281 -19.175781 7.96875 -17.78125 C 7.207031 -16.394531 6.828125 -14.800781 6.828125 -13 C 6.828125 -11.207031 7.207031 -9.613281 7.96875 -8.21875 C 8.738281 -6.832031 9.785156 -5.753906 11.109375 -4.984375 C 12.441406 -4.210938 13.941406 -3.828125 15.609375 -3.828125 Z M 15.609375 -3.828125 "/></g></g></g><g fill="#1f117b" fill-opacity="1"><g transform="translate(276.801174, 763.533636)"><g/></g></g><g fill="#1f117b" fill-opacity="1"><g transform="translate(290.000663, 763.533636)"><g><path d="M 18.3125 -11.875 L 18.3125 0 L 13.453125 0 L 13.453125 -11.96875 L -0.203125 -34.359375 L 5.0625 -34.359375 L 16.046875 -16.25 L 27.09375 -34.359375 L 31.953125 -34.359375 Z M 18.3125 -11.875 "/></g></g></g><g fill="#1f117b" fill-opacity="1"><g transform="translate(321.748107, 763.533636)"><g><path d="M 15.609375 0.296875 C 13.023438 0.296875 10.703125 -0.273438 8.640625 -1.421875 C 6.578125 -2.566406 4.960938 -4.144531 3.796875 -6.15625 C 2.640625 -8.164062 2.0625 -10.445312 2.0625 -13 C 2.0625 -15.550781 2.640625 -17.832031 3.796875 -19.84375 C 4.960938 -21.863281 6.578125 -23.4375 8.640625 -24.5625 C 10.703125 -25.6875 13.023438 -26.25 15.609375 -26.25 C 18.191406 -26.25 20.503906 -25.6875 22.546875 -24.5625 C 24.597656 -23.4375 26.203125 -21.863281 27.359375 -19.84375 C 28.523438 -17.832031 29.109375 -15.550781 29.109375 -13 C 29.109375 -10.445312 28.523438 -8.164062 27.359375 -6.15625 C 26.203125 -4.144531 24.597656 -2.566406 22.546875 -1.421875 C 20.503906 -0.273438 18.191406 0.296875 15.609375 0.296875 Z M 15.609375 -3.828125 C 17.273438 -3.828125 18.769531 -4.210938 20.09375 -4.984375 C 21.414062 -5.753906 22.453125 -6.832031 23.203125 -8.21875 C 23.960938 -9.613281 24.34375 -11.207031 24.34375 -13 C 24.34375 -14.800781 23.960938 -16.394531 23.203125 -17.78125 C 22.453125 -19.175781 21.414062 -20.25 20.09375 -21 C 18.769531 -21.757812 17.273438 -22.140625 15.609375 -22.140625 C 13.941406 -22.140625 12.441406 -21.757812 11.109375 -21 C 9.785156 -20.25 8.738281 -19.175781 7.96875 -17.78125 C 7.207031 -16.394531 6.828125 -14.800781 6.828125 -13 C 6.828125 -11.207031 7.207031 -9.613281 7.96875 -8.21875 C 8.738281 -6.832031 9.785156 -5.753906 11.109375 -4.984375 C 12.441406 -4.210938 13.941406 -3.828125 15.609375 -3.828125 Z M 15.609375 -3.828125 "/></g></g></g><g fill="#1f117b" fill-opacity="1"><g transform="translate(352.906726, 763.533636)"><g><path d="M 28.703125 -26.015625 L 28.703125 0 L 24.25 0 L 24.25 -3.921875 C 23.300781 -2.578125 22.046875 -1.535156 20.484375 -0.796875 C 18.929688 -0.0664062 17.238281 0.296875 15.40625 0.296875 C 11.9375 0.296875 9.203125 -0.660156 7.203125 -2.578125 C 5.210938 -4.492188 4.21875 -7.316406 4.21875 -11.046875 L 4.21875 -26.015625 L 8.9375 -26.015625 L 8.9375 -11.578125 C 8.9375 -9.054688 9.539062 -7.148438 10.75 -5.859375 C 11.957031 -4.566406 13.691406 -3.921875 15.953125 -3.921875 C 18.441406 -3.921875 20.40625 -4.671875 21.84375 -6.171875 C 23.28125 -7.679688 24 -9.8125 24 -12.5625 L 24 -26.015625 Z M 28.703125 -26.015625 "/></g></g></g><g fill="#1f117b" fill-opacity="1"><g transform="translate(386.126242, 763.533636)"><g><path d="M 8.984375 -21.640625 C 9.796875 -23.148438 11.003906 -24.296875 12.609375 -25.078125 C 14.210938 -25.859375 16.160156 -26.25 18.453125 -26.25 L 18.453125 -21.6875 C 18.191406 -21.71875 17.832031 -21.734375 17.375 -21.734375 C 14.820312 -21.734375 12.816406 -20.972656 11.359375 -19.453125 C 9.898438 -17.929688 9.171875 -15.765625 9.171875 -12.953125 L 9.171875 0 L 4.46875 0 L 4.46875 -26.015625 L 8.984375 -26.015625 Z M 8.984375 -21.640625 "/></g></g></g><g fill="#1f117b" fill-opacity="1"><g transform="translate(406.244409, 763.533636)"><g/></g></g><g fill="#1f117b" fill-opacity="1"><g transform="translate(419.443898, 763.533636)"><g><path d="M 11.96875 -30.078125 L 0.203125 -30.078125 L 0.203125 -34.359375 L 28.609375 -34.359375 L 28.609375 -30.078125 L 16.828125 -30.078125 L 16.828125 0 L 11.96875 0 Z M 11.96875 -30.078125 "/></g></g></g><g fill="#1f117b" fill-opacity="1"><g transform="translate(448.247238, 763.533636)"><g><path d="M 8.984375 -21.640625 C 9.796875 -23.148438 11.003906 -24.296875 12.609375 -25.078125 C 14.210938 -25.859375 16.160156 -26.25 18.453125 -26.25 L 18.453125 -21.6875 C 18.191406 -21.71875 17.832031 -21.734375 17.375 -21.734375 C 14.820312 -21.734375 12.816406 -20.972656 11.359375 -19.453125 C 9.898438 -17.929688 9.171875 -15.765625 9.171875 -12.953125 L 9.171875 0 L 4.46875 0 L 4.46875 -26.015625 L 8.984375 -26.015625 Z M 8.984375 -21.640625 "/></g></g></g><g fill="#1f117b" fill-opacity="1"><g transform="translate(468.365405, 763.533636)"><g><path d="M 13.9375 -26.25 C 17.539062 -26.25 20.296875 -25.363281 22.203125 -23.59375 C 24.117188 -21.832031 25.078125 -19.203125 25.078125 -15.703125 L 25.078125 0 L 20.609375 0 L 20.609375 -3.4375 C 19.828125 -2.226562 18.707031 -1.300781 17.25 -0.65625 C 15.789062 -0.0195312 14.066406 0.296875 12.078125 0.296875 C 9.160156 0.296875 6.828125 -0.40625 5.078125 -1.8125 C 3.328125 -3.21875 2.453125 -5.066406 2.453125 -7.359375 C 2.453125 -9.648438 3.285156 -11.488281 4.953125 -12.875 C 6.617188 -14.269531 9.269531 -14.96875 12.90625 -14.96875 L 20.375 -14.96875 L 20.375 -15.90625 C 20.375 -17.925781 19.78125 -19.476562 18.59375 -20.5625 C 17.414062 -21.644531 15.679688 -22.1875 13.390625 -22.1875 C 11.859375 -22.1875 10.351562 -21.929688 8.875 -21.421875 C 7.40625 -20.910156 6.164062 -20.234375 5.15625 -19.390625 L 3.1875 -22.921875 C 4.53125 -24.003906 6.132812 -24.828125 8 -25.390625 C 9.863281 -25.960938 11.84375 -26.25 13.9375 -26.25 Z M 12.859375 -3.34375 C 14.660156 -3.34375 16.210938 -3.738281 17.515625 -4.53125 C 18.828125 -5.332031 19.78125 -6.472656 20.375 -7.953125 L 20.375 -11.578125 L 13.109375 -11.578125 C 9.109375 -11.578125 7.109375 -10.238281 7.109375 -7.5625 C 7.109375 -6.25 7.613281 -5.21875 8.625 -4.46875 C 9.644531 -3.71875 11.054688 -3.34375 12.859375 -3.34375 Z M 12.859375 -3.34375 "/></g></g></g><g fill="#1f117b" fill-opacity="1"><g transform="translate(497.708489, 763.533636)"><g><path d="M 18.359375 -26.25 C 21.660156 -26.25 24.285156 -25.289062 26.234375 -23.375 C 28.179688 -21.46875 29.15625 -18.664062 29.15625 -14.96875 L 29.15625 0 L 24.4375 0 L 24.4375 -14.421875 C 24.4375 -16.941406 23.832031 -18.835938 22.625 -20.109375 C 21.414062 -21.390625 19.679688 -22.03125 17.421875 -22.03125 C 14.867188 -22.03125 12.851562 -21.285156 11.375 -19.796875 C 9.90625 -18.304688 9.171875 -16.171875 9.171875 -13.390625 L 9.171875 0 L 4.46875 0 L 4.46875 -26.015625 L 8.984375 -26.015625 L 8.984375 -22.078125 C 9.929688 -23.421875 11.210938 -24.453125 12.828125 -25.171875 C 14.453125 -25.890625 16.296875 -26.25 18.359375 -26.25 Z M 18.359375 -26.25 "/></g></g></g><g fill="#1f117b" fill-opacity="1"><g transform="translate(531.124267, 763.533636)"><g><path d="M 11.921875 0.296875 C 9.796875 0.296875 7.75 0.0078125 5.78125 -0.5625 C 3.820312 -1.132812 2.285156 -1.863281 1.171875 -2.75 L 3.140625 -6.484375 C 4.285156 -5.660156 5.675781 -5.003906 7.3125 -4.515625 C 8.945312 -4.023438 10.597656 -3.78125 12.265625 -3.78125 C 16.390625 -3.78125 18.453125 -4.957031 18.453125 -7.3125 C 18.453125 -8.09375 18.171875 -8.710938 17.609375 -9.171875 C 17.054688 -9.628906 16.363281 -9.960938 15.53125 -10.171875 C 14.695312 -10.390625 13.507812 -10.628906 11.96875 -10.890625 C 9.875 -11.222656 8.164062 -11.597656 6.84375 -12.015625 C 5.519531 -12.441406 4.382812 -13.160156 3.4375 -14.171875 C 2.488281 -15.191406 2.015625 -16.617188 2.015625 -18.453125 C 2.015625 -20.804688 2.992188 -22.691406 4.953125 -24.109375 C 6.921875 -25.535156 9.554688 -26.25 12.859375 -26.25 C 14.585938 -26.25 16.316406 -26.035156 18.046875 -25.609375 C 19.785156 -25.191406 21.210938 -24.625 22.328125 -23.90625 L 20.3125 -20.171875 C 18.1875 -21.546875 15.6875 -22.234375 12.8125 -22.234375 C 10.8125 -22.234375 9.285156 -21.90625 8.234375 -21.25 C 7.191406 -20.59375 6.671875 -19.726562 6.671875 -18.65625 C 6.671875 -17.800781 6.960938 -17.128906 7.546875 -16.640625 C 8.140625 -16.148438 8.867188 -15.789062 9.734375 -15.5625 C 10.609375 -15.332031 11.828125 -15.066406 13.390625 -14.765625 C 15.492188 -14.410156 17.191406 -14.023438 18.484375 -13.609375 C 19.773438 -13.203125 20.878906 -12.507812 21.796875 -11.53125 C 22.710938 -10.550781 23.171875 -9.175781 23.171875 -7.40625 C 23.171875 -5.050781 22.160156 -3.175781 20.140625 -1.78125 C 18.128906 -0.394531 15.390625 0.296875 11.921875 0.296875 Z M 11.921875 0.296875 "/></g></g></g><g fill="#1f117b" fill-opacity="1"><g transform="translate(555.707691, 763.533636)"><g><path d="M 13.9375 -26.25 C 17.539062 -26.25 20.296875 -25.363281 22.203125 -23.59375 C 24.117188 -21.832031 25.078125 -19.203125 25.078125 -15.703125 L 25.078125 0 L 20.609375 0 L 20.609375 -3.4375 C 19.828125 -2.226562 18.707031 -1.300781 17.25 -0.65625 C 15.789062 -0.0195312 14.066406 0.296875 12.078125 0.296875 C 9.160156 0.296875 6.828125 -0.40625 5.078125 -1.8125 C 3.328125 -3.21875 2.453125 -5.066406 2.453125 -7.359375 C 2.453125 -9.648438 3.285156 -11.488281 4.953125 -12.875 C 6.617188 -14.269531 9.269531 -14.96875 12.90625 -14.96875 L 20.375 -14.96875 L 20.375 -15.90625 C 20.375 -17.925781 19.78125 -19.476562 18.59375 -20.5625 C 17.414062 -21.644531 15.679688 -22.1875 13.390625 -22.1875 C 11.859375 -22.1875 10.351562 -21.929688 8.875 -21.421875 C 7.40625 -20.910156 6.164062 -20.234375 5.15625 -19.390625 L 3.1875 -22.921875 C 4.53125 -24.003906 6.132812 -24.828125 8 -25.390625 C 9.863281 -25.960938 11.84375 -26.25 13.9375 -26.25 Z M 12.859375 -3.34375 C 14.660156 -3.34375 16.210938 -3.738281 17.515625 -4.53125 C 18.828125 -5.332031 19.78125 -6.472656 20.375 -7.953125 L 20.375 -11.578125 L 13.109375 -11.578125 C 9.109375 -11.578125 7.109375 -10.238281 7.109375 -7.5625 C 7.109375 -6.25 7.613281 -5.21875 8.625 -4.46875 C 9.644531 -3.71875 11.054688 -3.34375 12.859375 -3.34375 Z M 12.859375 -3.34375 "/></g></g></g><g fill="#1f117b" fill-opacity="1"><g transform="translate(585.050776, 763.533636)"><g><path d="M 15.796875 0.296875 C 13.148438 0.296875 10.785156 -0.273438 8.703125 -1.421875 C 6.628906 -2.566406 5.003906 -4.144531 3.828125 -6.15625 C 2.648438 -8.164062 2.0625 -10.445312 2.0625 -13 C 2.0625 -15.550781 2.648438 -17.832031 3.828125 -19.84375 C 5.003906 -21.863281 6.628906 -23.4375 8.703125 -24.5625 C 10.785156 -25.6875 13.148438 -26.25 15.796875 -26.25 C 18.160156 -26.25 20.265625 -25.773438 22.109375 -24.828125 C 23.953125 -23.878906 25.382812 -22.507812 26.40625 -20.71875 L 22.828125 -18.40625 C 22.003906 -19.644531 20.988281 -20.578125 19.78125 -21.203125 C 18.570312 -21.828125 17.226562 -22.140625 15.75 -22.140625 C 14.050781 -22.140625 12.519531 -21.757812 11.15625 -21 C 9.800781 -20.25 8.738281 -19.175781 7.96875 -17.78125 C 7.207031 -16.394531 6.828125 -14.800781 6.828125 -13 C 6.828125 -11.164062 7.207031 -9.550781 7.96875 -8.15625 C 8.738281 -6.769531 9.800781 -5.703125 11.15625 -4.953125 C 12.519531 -4.203125 14.050781 -3.828125 15.75 -3.828125 C 17.226562 -3.828125 18.570312 -4.132812 19.78125 -4.75 C 20.988281 -5.375 22.003906 -6.3125 22.828125 -7.5625 L 26.40625 -5.296875 C 25.382812 -3.492188 23.953125 -2.109375 22.109375 -1.140625 C 20.265625 -0.179688 18.160156 0.296875 15.796875 0.296875 Z M 15.796875 0.296875 "/></g></g></g><g fill="#1f117b" fill-opacity="1"><g transform="translate(613.068989, 763.533636)"><g><path d="M 19.09375 -1.515625 C 18.40625 -0.929688 17.550781 -0.484375 16.53125 -0.171875 C 15.519531 0.140625 14.472656 0.296875 13.390625 0.296875 C 10.773438 0.296875 8.75 -0.40625 7.3125 -1.8125 C 5.875 -3.21875 5.15625 -5.234375 5.15625 -7.859375 L 5.15625 -22.140625 L 0.734375 -22.140625 L 0.734375 -26.015625 L 5.15625 -26.015625 L 5.15625 -31.703125 L 9.859375 -31.703125 L 9.859375 -26.015625 L 17.328125 -26.015625 L 17.328125 -22.140625 L 9.859375 -22.140625 L 9.859375 -8.046875 C 9.859375 -6.640625 10.207031 -5.5625 10.90625 -4.8125 C 11.613281 -4.0625 12.625 -3.6875 13.9375 -3.6875 C 15.375 -3.6875 16.601562 -4.09375 17.625 -4.90625 Z M 19.09375 -1.515625 "/></g></g></g><g fill="#1f117b" fill-opacity="1"><g transform="translate(633.383438, 763.533636)"><g><path d="M 4.46875 -26.015625 L 9.171875 -26.015625 L 9.171875 0 L 4.46875 0 Z M 6.828125 -31.015625 C 5.910156 -31.015625 5.148438 -31.304688 4.546875 -31.890625 C 3.941406 -32.484375 3.640625 -33.207031 3.640625 -34.0625 C 3.640625 -34.914062 3.941406 -35.644531 4.546875 -36.25 C 5.148438 -36.851562 5.910156 -37.15625 6.828125 -37.15625 C 7.742188 -37.15625 8.503906 -36.867188 9.109375 -36.296875 C 9.710938 -35.722656 10.015625 -35.007812 10.015625 -34.15625 C 10.015625 -33.269531 9.710938 -32.523438 9.109375 -31.921875 C 8.503906 -31.316406 7.742188 -31.015625 6.828125 -31.015625 Z M 6.828125 -31.015625 "/></g></g></g><g fill="#1f117b" fill-opacity="1"><g transform="translate(647.073612, 763.533636)"><g><path d="M 15.609375 0.296875 C 13.023438 0.296875 10.703125 -0.273438 8.640625 -1.421875 C 6.578125 -2.566406 4.960938 -4.144531 3.796875 -6.15625 C 2.640625 -8.164062 2.0625 -10.445312 2.0625 -13 C 2.0625 -15.550781 2.640625 -17.832031 3.796875 -19.84375 C 4.960938 -21.863281 6.578125 -23.4375 8.640625 -24.5625 C 10.703125 -25.6875 13.023438 -26.25 15.609375 -26.25 C 18.191406 -26.25 20.503906 -25.6875 22.546875 -24.5625 C 24.597656 -23.4375 26.203125 -21.863281 27.359375 -19.84375 C 28.523438 -17.832031 29.109375 -15.550781 29.109375 -13 C 29.109375 -10.445312 28.523438 -8.164062 27.359375 -6.15625 C 26.203125 -4.144531 24.597656 -2.566406 22.546875 -1.421875 C 20.503906 -0.273438 18.191406 0.296875 15.609375 0.296875 Z M 15.609375 -3.828125 C 17.273438 -3.828125 18.769531 -4.210938 20.09375 -4.984375 C 21.414062 -5.753906 22.453125 -6.832031 23.203125 -8.21875 C 23.960938 -9.613281 24.34375 -11.207031 24.34375 -13 C 24.34375 -14.800781 23.960938 -16.394531 23.203125 -17.78125 C 22.453125 -19.175781 21.414062 -20.25 20.09375 -21 C 18.769531 -21.757812 17.273438 -22.140625 15.609375 -22.140625 C 13.941406 -22.140625 12.441406 -21.757812 11.109375 -21 C 9.785156 -20.25 8.738281 -19.175781 7.96875 -17.78125 C 7.207031 -16.394531 6.828125 -14.800781 6.828125 -13 C 6.828125 -11.207031 7.207031 -9.613281 7.96875 -8.21875 C 8.738281 -6.832031 9.785156 -5.753906 11.109375 -4.984375 C 12.441406 -4.210938 13.941406 -3.828125 15.609375 -3.828125 Z M 15.609375 -3.828125 "/></g></g></g><g fill="#1f117b" fill-opacity="1"><g transform="translate(678.232251, 763.533636)"><g><path d="M 18.359375 -26.25 C 21.660156 -26.25 24.285156 -25.289062 26.234375 -23.375 C 28.179688 -21.46875 29.15625 -18.664062 29.15625 -14.96875 L 29.15625 0 L 24.4375 0 L 24.4375 -14.421875 C 24.4375 -16.941406 23.832031 -18.835938 22.625 -20.109375 C 21.414062 -21.390625 19.679688 -22.03125 17.421875 -22.03125 C 14.867188 -22.03125 12.851562 -21.285156 11.375 -19.796875 C 9.90625 -18.304688 9.171875 -16.171875 9.171875 -13.390625 L 9.171875 0 L 4.46875 0 L 4.46875 -26.015625 L 8.984375 -26.015625 L 8.984375 -22.078125 C 9.929688 -23.421875 11.210938 -24.453125 12.828125 -25.171875 C 14.453125 -25.890625 16.296875 -26.25 18.359375 -26.25 Z M 18.359375 -26.25 "/></g></g></g></svg>