<svg xmlns="http://www.w3.org/2000/svg" xmlns:xlink="http://www.w3.org/1999/xlink" width="1080" zoomAndPan="magnify" viewBox="0 0 810 809.999993" height="1080" preserveAspectRatio="xMidYMid meet" version="1.0"><defs><clipPath id="ef041b9299"><path d="M 419 40.140625 L 645 40.140625 L 645 270 L 419 270 Z M 419 40.140625 " clip-rule="nonzero"/></clipPath><clipPath id="1ffb521e64"><path d="M 162 40.140625 L 384 40.140625 L 384 274 L 162 274 Z M 162 40.140625 " clip-rule="nonzero"/></clipPath><clipPath id="d57fd90558"><path d="M 164 540 L 389 540 L 389 769.890625 L 164 769.890625 Z M 164 540 " clip-rule="nonzero"/></clipPath><clipPath id="0618db6723"><path d="M 424 537 L 647 537 L 647 769.890625 L 424 769.890625 Z M 424 537 " clip-rule="nonzero"/></clipPath><clipPath id="c23614bf56"><path d="M 203.964844 203.964844 L 606.035156 203.964844 L 606.035156 606.035156 L 203.964844 606.035156 Z M 203.964844 203.964844 " clip-rule="nonzero"/></clipPath><clipPath id="0dd41572d8"><path d="M 405 203.964844 C 293.972656 203.964844 203.964844 293.972656 203.964844 405 C 203.964844 516.027344 293.972656 606.035156 405 606.035156 C 516.027344 606.035156 606.035156 516.027344 606.035156 405 C 606.035156 293.972656 516.027344 203.964844 405 203.964844 " clip-rule="nonzero"/></clipPath></defs><path fill="#3f66b0" d="M 268.652344 502.953125 C 268.957031 503.398438 269.21875 503.867188 269.445312 504.359375 C 269.667969 504.855469 269.847656 505.363281 269.984375 505.886719 C 270.121094 506.410156 270.210938 506.941406 270.257812 507.480469 C 270.300781 508.019531 270.300781 508.558594 270.25 509.09375 C 270.203125 509.632812 270.109375 510.164062 269.972656 510.6875 C 269.832031 511.210938 269.648438 511.71875 269.421875 512.207031 C 269.199219 512.699219 268.929688 513.167969 268.625 513.613281 C 268.316406 514.058594 267.976562 514.476562 267.597656 514.863281 L 136.199219 641.496094 C 135.839844 641.851562 135.445312 642.164062 135.019531 642.4375 C 134.59375 642.710938 134.140625 642.9375 133.667969 643.113281 C 133.195312 643.289062 132.707031 643.417969 132.207031 643.488281 C 131.703125 643.5625 131.203125 643.582031 130.695312 643.550781 C 130.191406 643.515625 129.695312 643.429688 129.207031 643.292969 C 128.722656 643.152344 128.253906 642.964844 127.808594 642.726562 C 127.359375 642.488281 126.945312 642.207031 126.558594 641.878906 C 126.171875 641.550781 125.824219 641.1875 125.511719 640.789062 C 125.511719 640.789062 80.820312 584.8125 60.875 529.765625 C 45.441406 487.191406 40.171875 429.761719 40.171875 429.761719 C 40.113281 429.257812 40.113281 428.753906 40.164062 428.25 C 40.214844 427.746094 40.316406 427.25 40.472656 426.769531 C 40.628906 426.285156 40.835938 425.824219 41.089844 425.386719 C 41.34375 424.945312 41.640625 424.539062 41.980469 424.164062 C 42.324219 423.789062 42.699219 423.453125 43.113281 423.15625 C 43.523438 422.863281 43.964844 422.613281 44.429688 422.410156 C 44.894531 422.210938 45.375 422.058594 45.871094 421.960938 C 46.371094 421.859375 46.871094 421.816406 47.378906 421.824219 L 229.851562 421.75 C 230.394531 421.765625 230.929688 421.828125 231.464844 421.933594 C 231.996094 422.042969 232.515625 422.195312 233.019531 422.390625 C 233.527344 422.585938 234.011719 422.824219 234.476562 423.105469 C 234.945312 423.386719 235.382812 423.703125 235.792969 424.058594 C 236.203125 424.414062 236.578125 424.804688 236.921875 425.222656 C 237.265625 425.644531 237.570312 426.089844 237.839844 426.5625 C 238.105469 427.039062 238.332031 427.53125 238.511719 428.042969 C 238.695312 428.554688 238.832031 429.078125 238.925781 429.613281 C 238.925781 429.613281 241.75 449.277344 248.785156 467 C 256.246094 485.824219 268.652344 502.953125 268.652344 502.953125 Z M 268.652344 502.953125 " fill-opacity="1" fill-rule="nonzero"/><path fill="#f05623" d="M 540.308594 504.070312 C 540 504.515625 539.730469 504.984375 539.503906 505.472656 C 539.273438 505.964844 539.089844 506.472656 538.949219 506.996094 C 538.808594 507.515625 538.714844 508.046875 538.667969 508.585938 C 538.617188 509.125 538.617188 509.664062 538.660156 510.203125 C 538.707031 510.746094 538.796875 511.277344 538.933594 511.800781 C 539.070312 512.324219 539.253906 512.832031 539.476562 513.324219 C 539.703125 513.816406 539.96875 514.285156 540.273438 514.730469 C 540.578125 515.175781 540.921875 515.59375 541.300781 515.980469 L 672.277344 642.9375 C 672.636719 643.296875 673.027344 643.613281 673.453125 643.890625 C 673.878906 644.167969 674.328125 644.394531 674.800781 644.574219 C 675.273438 644.753906 675.761719 644.882812 676.261719 644.957031 C 676.761719 645.035156 677.265625 645.058594 677.769531 645.027344 C 678.277344 644.996094 678.773438 644.910156 679.261719 644.777344 C 679.75 644.640625 680.21875 644.453125 680.664062 644.214844 C 681.113281 643.980469 681.53125 643.699219 681.921875 643.375 C 682.308594 643.050781 682.660156 642.6875 682.96875 642.289062 C 682.96875 642.289062 728.457031 585.953125 748.753906 530.144531 C 764.628906 486.414062 769.734375 427.625 769.734375 427.625 C 769.785156 427.121094 769.785156 426.617188 769.730469 426.113281 C 769.675781 425.609375 769.570312 425.117188 769.410156 424.636719 C 769.253906 424.152344 769.042969 423.695312 768.789062 423.257812 C 768.53125 422.820312 768.230469 422.414062 767.886719 422.042969 C 767.542969 421.667969 767.164062 421.335938 766.75 421.042969 C 766.335938 420.75 765.898438 420.503906 765.429688 420.304688 C 764.964844 420.105469 764.484375 419.960938 763.984375 419.863281 C 763.488281 419.765625 762.984375 419.722656 762.476562 419.734375 L 580.0625 420.195312 C 579.519531 420.210938 578.984375 420.273438 578.453125 420.382812 C 577.921875 420.492188 577.402344 420.644531 576.898438 420.84375 C 576.394531 421.042969 575.914062 421.28125 575.449219 421.566406 C 574.988281 421.847656 574.550781 422.167969 574.144531 422.523438 C 573.734375 422.882812 573.363281 423.269531 573.023438 423.691406 C 572.683594 424.113281 572.378906 424.5625 572.117188 425.039062 C 571.855469 425.511719 571.632812 426.003906 571.457031 426.515625 C 571.28125 427.027344 571.148438 427.550781 571.058594 428.085938 C 571.058594 428.085938 568.273438 448.800781 560.835938 467.40625 C 553.144531 486.652344 540.308594 504.070312 540.308594 504.070312 Z M 540.308594 504.070312 " fill-opacity="1" fill-rule="nonzero"/><path fill="#f7901e" d="M 537.402344 302.113281 C 537.082031 301.683594 536.796875 301.230469 536.558594 300.75 C 536.316406 300.269531 536.117188 299.773438 535.964844 299.257812 C 535.8125 298.746094 535.707031 298.21875 535.648438 297.6875 C 535.589844 297.152344 535.578125 296.617188 535.613281 296.082031 C 535.648438 295.546875 535.734375 295.019531 535.863281 294.5 C 535.992188 293.976562 536.167969 293.472656 536.390625 292.984375 C 536.609375 292.492188 536.871094 292.027344 537.175781 291.585938 C 537.480469 291.140625 537.820312 290.730469 538.195312 290.347656 L 669.429688 163.914062 C 669.789062 163.554688 670.183594 163.238281 670.613281 162.964844 C 671.039062 162.6875 671.492188 162.460938 671.96875 162.28125 C 672.441406 162.101562 672.933594 161.972656 673.433594 161.894531 C 673.9375 161.816406 674.441406 161.792969 674.949219 161.824219 C 675.457031 161.851562 675.957031 161.933594 676.449219 162.066406 C 676.9375 162.199219 677.410156 162.382812 677.863281 162.617188 C 678.3125 162.847656 678.738281 163.125 679.132812 163.449219 C 679.527344 163.769531 679.882812 164.128906 680.199219 164.523438 C 680.199219 164.523438 726.128906 220.101562 747.03125 275.246094 C 763.167969 317.804688 769.257812 375.429688 769.257812 375.429688 C 769.320312 375.933594 769.332031 376.433594 769.285156 376.9375 C 769.242188 377.441406 769.140625 377.933594 768.992188 378.417969 C 768.839844 378.898438 768.636719 379.359375 768.386719 379.796875 C 768.132812 380.234375 767.839844 380.644531 767.5 381.015625 C 767.160156 381.390625 766.785156 381.726562 766.371094 382.019531 C 765.960938 382.3125 765.523438 382.558594 765.058594 382.757812 C 764.59375 382.953125 764.113281 383.101562 763.617188 383.195312 C 763.117188 383.289062 762.617188 383.328125 762.113281 383.316406 L 579.355469 383.132812 C 578.808594 383.113281 578.265625 383.046875 577.730469 382.941406 C 577.195312 382.832031 576.671875 382.675781 576.160156 382.480469 C 575.648438 382.285156 575.15625 382.046875 574.6875 381.769531 C 574.214844 381.492188 573.769531 381.175781 573.351562 380.824219 C 572.929688 380.472656 572.542969 380.085938 572.1875 379.671875 C 571.835938 379.253906 571.515625 378.808594 571.234375 378.339844 C 570.953125 377.871094 570.710938 377.382812 570.511719 376.871094 C 570.3125 376.363281 570.15625 375.839844 570.042969 375.304688 C 570.042969 375.304688 566.472656 355.160156 558.550781 337.191406 C 550.398438 318.730469 537.402344 302.113281 537.402344 302.113281 Z M 537.402344 302.113281 " fill-opacity="1" fill-rule="nonzero"/><path fill="#1c907f" d="M 271.46875 303.273438 C 271.789062 302.839844 272.066406 302.378906 272.304688 301.898438 C 272.542969 301.414062 272.734375 300.914062 272.882812 300.398438 C 273.03125 299.878906 273.132812 299.351562 273.191406 298.816406 C 273.246094 298.28125 273.253906 297.746094 273.214844 297.207031 C 273.171875 296.671875 273.085938 296.140625 272.953125 295.621094 C 272.820312 295.097656 272.640625 294.59375 272.417969 294.105469 C 272.195312 293.613281 271.929688 293.148438 271.625 292.703125 C 271.320312 292.261719 270.976562 291.847656 270.597656 291.464844 L 139.429688 164.929688 C 139.066406 164.570312 138.675781 164.253906 138.246094 163.980469 C 137.820312 163.703125 137.367188 163.476562 136.890625 163.296875 C 136.417969 163.117188 135.929688 162.988281 135.425781 162.910156 C 134.921875 162.832031 134.417969 162.808594 133.910156 162.839844 C 133.402344 162.867188 132.902344 162.953125 132.414062 163.085938 C 131.925781 163.222656 131.453125 163.40625 131 163.640625 C 130.550781 163.875 130.128906 164.152344 129.734375 164.476562 C 129.34375 164.796875 128.988281 165.160156 128.671875 165.558594 C 128.671875 165.558594 83.363281 220.769531 62.683594 275.378906 C 46.601562 317.859375 40.574219 375.34375 40.574219 375.34375 C 40.511719 375.84375 40.503906 376.34375 40.546875 376.847656 C 40.589844 377.347656 40.6875 377.839844 40.835938 378.324219 C 40.988281 378.804688 41.1875 379.265625 41.4375 379.703125 C 41.6875 380.140625 41.980469 380.546875 42.316406 380.921875 C 42.65625 381.296875 43.027344 381.632812 43.4375 381.925781 C 43.847656 382.222656 44.28125 382.46875 44.746094 382.667969 C 45.207031 382.867188 45.6875 383.015625 46.183594 383.113281 C 46.675781 383.210938 47.175781 383.253906 47.679688 383.242188 L 230.421875 383.242188 C 230.96875 383.226562 231.511719 383.164062 232.046875 383.054688 C 232.585938 382.949219 233.109375 382.796875 233.621094 382.601562 C 234.128906 382.40625 234.621094 382.167969 235.09375 381.890625 C 235.566406 381.613281 236.011719 381.296875 236.429688 380.945312 C 236.847656 380.59375 237.234375 380.207031 237.589844 379.792969 C 237.945312 379.375 238.261719 378.929688 238.542969 378.460938 C 238.824219 377.992188 239.0625 377.5 239.261719 376.992188 C 239.460938 376.480469 239.613281 375.957031 239.726562 375.421875 C 239.726562 375.421875 243.1875 355.574219 250.917969 337.875 C 258.871094 319.675781 271.46875 303.273438 271.46875 303.273438 Z M 271.46875 303.273438 " fill-opacity="1" fill-rule="nonzero"/><g clip-path="url(#ef041b9299)"><path fill="#fbcd09" d="M 427.367188 238.714844 C 426.832031 238.632812 426.3125 238.503906 425.804688 238.332031 C 425.296875 238.15625 424.804688 237.941406 424.335938 237.679688 C 423.863281 237.417969 423.421875 237.117188 423.003906 236.777344 C 422.585938 236.4375 422.199219 236.066406 421.851562 235.65625 C 421.5 235.25 421.1875 234.816406 420.910156 234.351562 C 420.636719 233.890625 420.40625 233.40625 420.21875 232.902344 C 420.03125 232.398438 419.886719 231.878906 419.789062 231.351562 C 419.695312 230.820312 419.644531 230.289062 419.640625 229.75 L 423.007812 47.484375 C 423.011719 46.976562 423.066406 46.472656 423.171875 45.976562 C 423.28125 45.484375 423.441406 45.003906 423.648438 44.539062 C 423.859375 44.078125 424.113281 43.644531 424.414062 43.234375 C 424.714844 42.824219 425.054688 42.453125 425.433594 42.113281 C 425.8125 41.777344 426.222656 41.484375 426.664062 41.234375 C 427.105469 40.984375 427.566406 40.78125 428.050781 40.628906 C 428.535156 40.476562 429.03125 40.375 429.535156 40.324219 C 430.039062 40.277344 430.542969 40.28125 431.046875 40.335938 C 431.046875 40.335938 502.238281 47.363281 555.542969 71.453125 C 596.984375 90.191406 641.90625 126.667969 641.90625 126.667969 C 642.304688 126.976562 642.667969 127.324219 642.988281 127.714844 C 643.3125 128.101562 643.589844 128.519531 643.824219 128.964844 C 644.058594 129.414062 644.242188 129.878906 644.375 130.367188 C 644.507812 130.855469 644.585938 131.351562 644.613281 131.855469 C 644.636719 132.359375 644.609375 132.859375 644.527344 133.355469 C 644.445312 133.855469 644.3125 134.339844 644.125 134.808594 C 643.941406 135.277344 643.707031 135.722656 643.425781 136.140625 C 643.140625 136.558594 642.820312 136.941406 642.453125 137.292969 L 513.277344 266.566406 C 512.878906 266.941406 512.453125 267.28125 512 267.585938 C 511.542969 267.886719 511.066406 268.148438 510.566406 268.375 C 510.070312 268.597656 509.554688 268.777344 509.023438 268.914062 C 508.496094 269.050781 507.957031 269.140625 507.414062 269.1875 C 506.867188 269.234375 506.324219 269.234375 505.78125 269.191406 C 505.234375 269.144531 504.695312 269.054688 504.167969 268.917969 C 503.636719 268.785156 503.121094 268.605469 502.621094 268.382812 C 502.125 268.164062 501.644531 267.902344 501.1875 267.597656 C 501.1875 267.597656 484.519531 255.777344 466.160156 248.589844 C 447.796875 241.40625 427.367188 238.714844 427.367188 238.714844 Z M 427.367188 238.714844 " fill-opacity="1" fill-rule="nonzero"/></g><g clip-path="url(#1ffb521e64)"><path fill="#8fc741" d="M 302.570312 272.03125 C 302.140625 272.351562 301.683594 272.628906 301.203125 272.867188 C 300.71875 273.105469 300.222656 273.300781 299.707031 273.449219 C 299.1875 273.601562 298.664062 273.703125 298.128906 273.761719 C 297.59375 273.816406 297.058594 273.824219 296.523438 273.789062 C 295.988281 273.75 295.460938 273.664062 294.9375 273.53125 C 294.417969 273.398438 293.914062 273.21875 293.425781 272.996094 C 292.933594 272.773438 292.46875 272.511719 292.027344 272.207031 C 291.585938 271.902344 291.171875 271.558594 290.792969 271.179688 L 164.410156 139.886719 C 164.050781 139.527344 163.734375 139.136719 163.460938 138.707031 C 163.183594 138.28125 162.957031 137.832031 162.777344 137.355469 C 162.597656 136.882812 162.46875 136.394531 162.394531 135.890625 C 162.316406 135.390625 162.292969 134.882812 162.324219 134.378906 C 162.355469 133.871094 162.441406 133.371094 162.574219 132.882812 C 162.710938 132.394531 162.898438 131.925781 163.132812 131.476562 C 163.371094 131.027344 163.648438 130.605469 163.972656 130.214844 C 164.300781 129.824219 164.660156 129.472656 165.0625 129.160156 C 165.0625 129.160156 220.855469 83.839844 275.472656 63.117188 C 317.949219 47 375.710938 40.601562 375.710938 40.601562 C 376.210938 40.53125 376.714844 40.515625 377.21875 40.558594 C 377.722656 40.597656 378.214844 40.691406 378.695312 40.839844 C 379.179688 40.988281 379.640625 41.183594 380.082031 41.433594 C 380.519531 41.683594 380.929688 41.972656 381.304688 42.3125 C 381.679688 42.648438 382.015625 43.019531 382.3125 43.429688 C 382.605469 43.839844 382.851562 44.277344 383.050781 44.742188 C 383.253906 45.207031 383.398438 45.683594 383.496094 46.179688 C 383.589844 46.675781 383.632812 47.175781 383.617188 47.683594 L 383.546875 230.488281 C 383.53125 231.035156 383.46875 231.578125 383.359375 232.113281 C 383.25 232.648438 383.097656 233.171875 382.902344 233.683594 C 382.707031 234.195312 382.46875 234.6875 382.191406 235.15625 C 381.914062 235.628906 381.597656 236.074219 381.246094 236.492188 C 380.894531 236.910156 380.507812 237.296875 380.089844 237.652344 C 379.675781 238.003906 379.230469 238.320312 378.761719 238.601562 C 378.289062 238.878906 377.800781 239.121094 377.289062 239.316406 C 376.78125 239.515625 376.257812 239.667969 375.71875 239.777344 C 375.71875 239.777344 355.683594 243.222656 337.800781 251.019531 C 319.257812 259.089844 302.570312 272.03125 302.570312 272.03125 Z M 302.570312 272.03125 " fill-opacity="1" fill-rule="nonzero"/></g><g clip-path="url(#d57fd90558)"><path fill="#655ca8" d="M 381.070312 571.132812 C 381.601562 571.21875 382.125 571.351562 382.632812 571.53125 C 383.140625 571.710938 383.628906 571.933594 384.097656 572.195312 C 384.570312 572.460938 385.011719 572.765625 385.429688 573.109375 C 385.84375 573.453125 386.226562 573.828125 386.578125 574.238281 C 386.925781 574.648438 387.238281 575.085938 387.511719 575.550781 C 387.785156 576.015625 388.015625 576.503906 388.203125 577.007812 C 388.390625 577.511719 388.53125 578.03125 388.628906 578.5625 C 388.726562 579.09375 388.777344 579.628906 388.777344 580.167969 L 385.398438 762.464844 C 385.402344 762.976562 385.351562 763.480469 385.246094 763.976562 C 385.144531 764.476562 384.988281 764.957031 384.78125 765.425781 C 384.574219 765.890625 384.320312 766.328125 384.019531 766.738281 C 383.71875 767.152344 383.378906 767.527344 383 767.863281 C 382.617188 768.203125 382.203125 768.496094 381.761719 768.746094 C 381.316406 768.996094 380.851562 769.199219 380.367188 769.347656 C 379.878906 769.5 379.382812 769.597656 378.875 769.640625 C 378.367188 769.683594 377.859375 769.675781 377.355469 769.609375 C 377.355469 769.609375 306.5 762.265625 253.640625 738.289062 C 212.457031 719.628906 167.632812 683.394531 167.632812 683.394531 C 167.234375 683.082031 166.871094 682.734375 166.546875 682.347656 C 166.222656 681.960938 165.945312 681.546875 165.710938 681.097656 C 165.476562 680.652344 165.292969 680.1875 165.160156 679.699219 C 165.027344 679.210938 164.945312 678.71875 164.917969 678.214844 C 164.894531 677.710938 164.921875 677.210938 165 676.710938 C 165.082031 676.214844 165.214844 675.730469 165.402344 675.261719 C 165.585938 674.792969 165.820312 674.347656 166.101562 673.929688 C 166.382812 673.511719 166.703125 673.125 167.070312 672.777344 L 296.179688 543.238281 C 296.578125 542.863281 297.003906 542.523438 297.457031 542.21875 C 297.914062 541.917969 298.390625 541.652344 298.886719 541.429688 C 299.386719 541.207031 299.898438 541.027344 300.429688 540.890625 C 300.957031 540.753906 301.496094 540.660156 302.039062 540.617188 C 302.582031 540.570312 303.128906 540.570312 303.671875 540.613281 C 304.21875 540.660156 304.753906 540.75 305.28125 540.886719 C 305.8125 541.023438 306.324219 541.203125 306.824219 541.425781 C 307.324219 541.648438 307.800781 541.910156 308.253906 542.214844 C 308.253906 542.214844 323.957031 553.402344 341.054688 560.421875 C 359.898438 568.160156 381.070312 571.132812 381.070312 571.132812 Z M 381.070312 571.132812 " fill-opacity="1" fill-rule="nonzero"/></g><g clip-path="url(#0618db6723)"><path fill="#9f4098" d="M 506.070312 539.15625 C 506.511719 538.84375 506.976562 538.574219 507.460938 538.339844 C 507.949219 538.109375 508.453125 537.921875 508.972656 537.777344 C 509.496094 537.636719 510.023438 537.539062 510.5625 537.488281 C 511.097656 537.4375 511.636719 537.433594 512.171875 537.480469 C 512.710938 537.523438 513.242188 537.613281 513.761719 537.75 C 514.285156 537.886719 514.792969 538.070312 515.28125 538.292969 C 515.773438 538.519531 516.238281 538.785156 516.683594 539.09375 C 517.125 539.402344 517.539062 539.746094 517.921875 540.125 L 643.964844 671.132812 C 644.320312 671.496094 644.636719 671.886719 644.910156 672.316406 C 645.1875 672.742188 645.414062 673.195312 645.59375 673.671875 C 645.773438 674.144531 645.898438 674.636719 645.976562 675.136719 C 646.050781 675.640625 646.074219 676.144531 646.042969 676.652344 C 646.015625 677.160156 645.929688 677.660156 645.796875 678.148438 C 645.660156 678.636719 645.476562 679.109375 645.242188 679.558594 C 645.003906 680.007812 644.726562 680.429688 644.402344 680.824219 C 644.078125 681.214844 643.71875 681.570312 643.320312 681.882812 C 643.320312 681.882812 587.863281 727.332031 532.894531 747.878906 C 490.25 763.855469 432.660156 769.601562 432.660156 769.601562 C 432.160156 769.664062 431.65625 769.671875 431.15625 769.625 C 430.652344 769.578125 430.160156 769.476562 429.679688 769.324219 C 429.199219 769.171875 428.738281 768.96875 428.300781 768.71875 C 427.863281 768.46875 427.457031 768.171875 427.082031 767.832031 C 426.710938 767.492188 426.375 767.121094 426.082031 766.707031 C 425.789062 766.296875 425.542969 765.859375 425.34375 765.398438 C 425.140625 764.933594 424.996094 764.453125 424.898438 763.957031 C 424.800781 763.460938 424.757812 762.960938 424.769531 762.457031 L 424.9375 579.730469 C 424.953125 579.183594 425.015625 578.644531 425.121094 578.105469 C 425.230469 577.570312 425.382812 577.046875 425.578125 576.539062 C 425.773438 576.027344 426.011719 575.539062 426.289062 575.070312 C 426.566406 574.597656 426.882812 574.15625 427.238281 573.738281 C 427.589844 573.320312 427.976562 572.9375 428.394531 572.585938 C 428.8125 572.234375 429.257812 571.917969 429.726562 571.644531 C 430.199219 571.367188 430.691406 571.132812 431.199219 570.9375 C 431.710938 570.742188 432.234375 570.59375 432.769531 570.488281 C 432.769531 570.488281 452.617188 567.175781 470.359375 559.730469 C 489.019531 551.863281 506.070312 539.15625 506.070312 539.15625 Z M 506.070312 539.15625 " fill-opacity="1" fill-rule="nonzero"/></g><g clip-path="url(#c23614bf56)"><g clip-path="url(#0dd41572d8)"><path fill="#ffffff" d="M 203.964844 203.964844 L 606.035156 203.964844 L 606.035156 606.035156 L 203.964844 606.035156 Z M 203.964844 203.964844 " fill-opacity="1" fill-rule="nonzero"/></g></g></svg>