<svg xmlns="http://www.w3.org/2000/svg" xmlns:xlink="http://www.w3.org/1999/xlink" width="1080" zoomAndPan="magnify" viewBox="0 0 810 809.999993" height="1080" preserveAspectRatio="xMidYMid meet" version="1.0"><defs><clipPath id="4036f02456"><path d="M 79 136.183594 L 731 136.183594 L 731 673.933594 L 79 673.933594 Z M 79 136.183594 " clip-rule="nonzero"/></clipPath></defs><g clip-path="url(#4036f02456)"><path fill="#ffffff" d="M 711.054688 343.628906 C 705.976562 354.210938 696.339844 363.195312 686.546875 366.492188 C 682.476562 367.867188 680.292969 372.277344 681.667969 376.34375 C 682.761719 379.582031 685.777344 381.625 689.015625 381.625 C 689.84375 381.625 690.695312 381.503906 691.503906 381.222656 C 694.113281 380.332031 696.664062 379.136719 699.15625 377.78125 C 670.859375 421.585938 593.238281 478.664062 519.0625 518.746094 C 452.695312 554.621094 314.375 605.144531 216.980469 567.023438 C 175.734375 550.898438 147.113281 520.105469 131.875 475.488281 C 130.820312 472.433594 132.582031 470.472656 133.390625 469.761719 C 134.179688 469.074219 136.285156 467.597656 139.140625 469.015625 C 213.097656 505.535156 351.394531 485.445312 429.296875 426.867188 C 510.417969 365.863281 528.410156 284.445312 544.300781 212.636719 C 545.796875 205.859375 547.273438 199.140625 548.792969 192.484375 C 551.039062 182.710938 558.972656 179.597656 565.855469 180.789062 C 573.222656 182.085938 581.195312 188.742188 579.394531 203.1875 C 577.371094 219.234375 578.648438 255.796875 590.730469 271.65625 C 598.339844 281.652344 607.207031 284.992188 619.511719 282.523438 C 639.042969 278.617188 670.109375 260.976562 682.394531 252.417969 C 688.914062 247.863281 696.261719 250.714844 700.652344 255.550781 C 705.265625 260.609375 708.082031 269.59375 700.792969 278.195312 C 690.53125 290.292969 679.238281 295.65625 667.277344 301.300781 C 664.96875 302.414062 662.640625 303.503906 660.335938 304.636719 C 656.507812 306.539062 654.929688 311.214844 656.832031 315.058594 C 658.734375 318.902344 663.410156 320.480469 667.257812 318.558594 C 669.484375 317.464844 671.710938 316.414062 673.9375 315.34375 C 686.425781 309.433594 699.335938 303.242188 711.398438 289.605469 C 713.34375 294.84375 713.625 299.925781 712.230469 304.902344 C 708.121094 319.46875 690.632812 331.105469 675.65625 337.132812 C 671.667969 338.75 669.746094 343.265625 671.34375 347.25 C 672.578125 350.285156 675.496094 352.125 678.570312 352.125 C 679.523438 352.125 680.515625 351.925781 681.464844 351.539062 C 687.578125 349.089844 703.386719 341.910156 715.042969 329.566406 C 714.4375 335.191406 712.835938 339.964844 711.054688 343.628906 Z M 669.464844 453.355469 C 667.722656 453.71875 666 454.265625 664.320312 455.074219 C 654.425781 459.96875 642.828125 463.792969 630.035156 466.546875 C 648.839844 452.503906 666.691406 437.691406 681.769531 422.761719 C 678.1875 432.957031 674.097656 443.195312 669.464844 453.355469 Z M 678.46875 475.488281 C 663.230469 520.105469 634.589844 550.898438 593.359375 567.023438 C 545.757812 585.660156 488.355469 583.070312 434.378906 571.414062 C 470.726562 559.496094 502.992188 545.113281 526.449219 532.425781 C 548.710938 520.40625 575.550781 504.421875 602.207031 486.3125 C 628.113281 484.1875 651.875 478.566406 671.203125 469.015625 C 674.039062 467.597656 676.164062 469.074219 676.953125 469.761719 C 677.761719 470.472656 679.5 472.433594 678.46875 475.488281 Z M 413.269531 657.082031 C 407.902344 658.15625 402.480469 658.15625 397.117188 657.082031 C 375.519531 652.753906 326.074219 638.550781 263.816406 594.199219 C 274.441406 595.433594 285.25 596.019531 296.179688 596.019531 C 332.59375 596.019531 370.097656 589.585938 405.171875 580.136719 C 440.246094 589.585938 477.75 596.019531 514.164062 596.019531 C 524.992188 596.019531 535.71875 595.433594 546.242188 594.21875 C 484.148438 638.386719 434.824219 652.753906 413.269531 657.082031 Z M 180.386719 466.585938 C 167.554688 463.8125 155.9375 459.96875 146.019531 455.074219 C 144.382812 454.285156 142.703125 453.738281 141.023438 453.375 C 136.425781 443.296875 132.378906 433.140625 128.859375 423.023438 C 143.894531 437.875 161.667969 452.625 180.386719 466.585938 Z M 111.230469 377.800781 C 113.71875 379.136719 116.25 380.351562 118.839844 381.222656 C 119.648438 381.503906 120.5 381.625 121.328125 381.625 C 124.566406 381.625 127.582031 379.582031 128.675781 376.34375 C 130.050781 372.277344 127.867188 367.867188 123.796875 366.492188 C 114.003906 363.195312 104.367188 354.210938 99.265625 343.628906 C 97.507812 339.945312 95.867188 335.171875 95.261719 329.527344 C 106.9375 341.886719 122.765625 349.089844 128.878906 351.539062 C 129.828125 351.925781 130.800781 352.125 131.773438 352.125 C 134.871094 352.125 137.761719 350.285156 139 347.25 C 140.597656 343.265625 138.675781 338.75 134.6875 337.132812 C 119.710938 331.105469 102.222656 319.46875 98.113281 304.902344 C 96.71875 299.925781 97 294.84375 98.945312 289.585938 C 111.007812 303.242188 123.917969 309.433594 136.40625 315.34375 C 138.632812 316.414062 140.859375 317.464844 143.085938 318.558594 C 146.933594 320.460938 151.585938 318.902344 153.511719 315.058594 C 155.414062 311.214844 153.832031 306.539062 150.007812 304.636719 C 147.703125 303.503906 145.375 302.414062 143.066406 301.300781 C 131.105469 295.65625 119.8125 290.292969 109.570312 278.195312 C 102.261719 269.59375 105.078125 260.609375 109.691406 255.550781 C 114.082031 250.714844 121.429688 247.863281 127.945312 252.417969 C 140.234375 260.976562 171.300781 278.617188 190.832031 282.523438 C 203.160156 284.992188 212.003906 281.652344 219.613281 271.65625 C 231.695312 255.796875 232.972656 219.234375 230.949219 203.1875 C 229.144531 188.742188 237.121094 182.085938 244.488281 180.789062 C 251.390625 179.597656 259.304688 182.710938 261.550781 192.484375 C 263.066406 199.140625 264.546875 205.859375 266.042969 212.636719 C 281.929688 284.445312 299.925781 365.863281 381.046875 426.867188 C 384.019531 429.113281 387.117188 431.277344 390.273438 433.402344 C 335.972656 462.984375 268.734375 475.003906 213.722656 471.179688 C 168.46875 439.9375 129.527344 406.109375 111.230469 377.800781 Z M 264.28125 152.21875 C 311.199219 152.21875 356.152344 173.769531 387.582031 211.320312 C 392.015625 216.625 398.433594 219.679688 405.171875 219.679688 C 411.910156 219.679688 418.328125 216.625 422.761719 211.320312 C 454.191406 173.769531 499.144531 152.21875 546.0625 152.21875 C 603.582031 152.21875 651.734375 185.445312 678.003906 237.097656 C 676.464844 237.808594 674.949219 238.65625 673.511719 239.667969 C 661.8125 247.824219 632.726562 264.03125 616.433594 267.308594 C 609.976562 268.601562 607.125 267.511719 603.097656 262.25 C 595.121094 251.789062 592.835938 220.933594 594.820312 205.128906 C 597.773438 181.597656 583.261719 168.082031 568.546875 165.472656 C 554.5 163.003906 537.945312 170.269531 533.652344 189.003906 C 532.117188 195.722656 530.617188 202.480469 529.121094 209.277344 C 513.070312 281.855469 496.472656 356.902344 419.945312 414.445312 C 415.230469 418.007812 410.3125 421.386719 405.253906 424.601562 C 400.152344 421.363281 395.152344 418.027344 390.398438 414.445312 C 313.871094 356.902344 297.273438 281.855469 281.222656 209.277344 C 279.726562 202.480469 278.226562 195.722656 276.691406 189.003906 C 272.398438 170.269531 255.84375 162.984375 241.796875 165.472656 C 227.082031 168.082031 212.570312 181.597656 215.523438 205.128906 C 217.507812 220.933594 215.222656 251.789062 207.246094 262.25 C 203.238281 267.511719 200.363281 268.601562 193.886719 267.308594 C 177.617188 264.03125 148.53125 247.824219 136.832031 239.667969 C 135.375 238.65625 133.878906 237.808594 132.320312 237.097656 C 158.609375 185.445312 206.761719 152.21875 264.28125 152.21875 Z M 727.8125 306.238281 C 730.082031 295.230469 727.53125 284.0625 720.183594 272.933594 C 722.25 262.269531 718.382812 251.929688 712.148438 245.089844 C 707.070312 239.507812 700.773438 236.148438 694.257812 235.035156 C 666.082031 175.449219 611.636719 136.679688 546.0625 136.679688 C 494.53125 136.679688 445.226562 160.253906 410.839844 201.367188 C 407.84375 204.929688 402.5 204.929688 399.503906 201.367188 C 365.117188 160.253906 315.8125 136.679688 264.28125 136.679688 C 198.683594 136.679688 144.117188 175.449219 115.945312 235.074219 C 109.488281 236.210938 103.234375 239.546875 98.195312 245.089844 C 91.960938 251.929688 88.09375 262.269531 90.160156 272.933594 C 82.832031 284.0625 80.261719 295.230469 82.527344 306.238281 C 76.78125 324.042969 80.140625 338.8125 84.53125 348.667969 C 84.878906 363.195312 92.246094 378.996094 104.265625 395.203125 C 109.246094 415.132812 116.269531 435.914062 125.355469 456.390625 C 124.609375 456.914062 123.859375 457.460938 123.128906 458.066406 C 116.753906 463.671875 114.425781 472.472656 117.160156 480.527344 C 133.957031 529.652344 165.632812 563.625 211.316406 581.511719 C 217.082031 583.757812 223.011719 585.679688 229.023438 587.378906 C 305.671875 649.011719 368.457031 667.199219 394.058594 672.320312 C 397.742188 673.066406 401.46875 673.433594 405.191406 673.433594 C 408.917969 673.433594 412.640625 673.066406 416.324219 672.320312 C 441.886719 667.199219 504.628906 648.96875 581.21875 587.398438 C 587.269531 585.699219 593.21875 583.777344 599.027344 581.511719 C 644.710938 563.625 676.40625 529.652344 693.183594 480.507812 C 695.917969 472.472656 693.570312 463.671875 687.214844 458.066406 C 686.484375 457.441406 685.714844 456.894531 684.945312 456.367188 C 694.09375 435.832031 701.179688 414.972656 706.199219 394.980469 C 718.121094 378.855469 725.464844 363.132812 725.808594 348.667969 C 730.203125 338.8125 733.5625 324.042969 727.8125 306.238281 " fill-opacity="1" fill-rule="nonzero"/></g></svg>