<svg xmlns="http://www.w3.org/2000/svg" xmlns:xlink="http://www.w3.org/1999/xlink" width="1080" zoomAndPan="magnify" viewBox="0 0 810 809.999993" height="1080" preserveAspectRatio="xMidYMid meet" version="1.0"><defs><clipPath id="f848ae4875"><path d="M 176 131 L 672.15625 131 L 672.15625 384 L 176 384 Z M 176 131 " clip-rule="nonzero"/></clipPath><clipPath id="7e56c4dce9"><path d="M 195 402 L 654 402 L 654 688.5 L 195 688.5 Z M 195 402 " clip-rule="nonzero"/></clipPath></defs><g clip-path="url(#f848ae4875)"><path fill="#ffffff" d="M 185.851562 383.492188 L 424.246094 383.492188 L 424.246094 288.191406 L 443.316406 288.191406 L 443.316406 383.492188 L 662.640625 383.492188 C 667.902344 383.492188 672.175781 379.222656 672.175781 373.960938 L 672.175781 278.660156 C 672.175781 273.398438 667.902344 269.128906 662.640625 269.128906 L 621.195312 269.128906 C 639.925781 251.785156 650.507812 226.417969 650.507812 209.566406 C 650.507812 183.644531 629.53125 153.378906 570.449219 153.378906 C 521.816406 153.378906 470.417969 205.355469 440.972656 240.824219 C 450.90625 211.511719 473.984375 168.53125 494.734375 147.8125 C 498.433594 144.09375 498.433594 138.054688 494.734375 134.335938 C 491.015625 130.621094 484.949219 130.621094 481.25 134.335938 C 461.109375 154.445312 438.742188 193.195312 426.421875 225.328125 C 414.0625 193.175781 391.691406 154.425781 371.589844 134.335938 C 367.871094 130.621094 361.824219 130.621094 358.105469 134.335938 C 354.386719 138.054688 354.386719 144.09375 358.105469 147.8125 C 378.816406 168.511719 401.933594 211.492188 411.851562 240.804688 C 382.402344 205.335938 331.023438 153.378906 282.375 153.378906 C 223.289062 153.378906 202.3125 183.644531 202.3125 209.566406 C 202.3125 226.417969 212.898438 251.785156 231.625 269.128906 L 185.835938 269.128906 C 180.570312 269.128906 176.296875 273.398438 176.296875 278.660156 L 176.296875 373.960938 C 176.316406 379.222656 180.589844 383.492188 185.851562 383.492188 Z M 570.449219 172.4375 C 615.417969 172.4375 631.4375 191.632812 631.4375 209.566406 C 631.4375 227.769531 610.289062 269.128906 575.40625 269.128906 L 442.726562 269.128906 C 480.355469 219.289062 532.058594 172.4375 570.449219 172.4375 Z M 221.402344 209.566406 C 221.402344 191.632812 237.421875 172.4375 282.394531 172.4375 C 320.785156 172.4375 372.484375 219.289062 410.09375 269.128906 L 277.414062 269.128906 C 242.570312 269.128906 221.402344 227.75 221.402344 209.566406 Z M 221.402344 209.566406 " fill-opacity="1" fill-rule="nonzero"/></g><g clip-path="url(#7e56c4dce9)"><path fill="#ffffff" d="M 443.316406 402.550781 L 443.316406 669.390625 L 424.246094 669.390625 L 424.246094 402.550781 L 195.390625 402.550781 L 195.390625 678.921875 C 195.390625 684.164062 199.660156 688.453125 204.925781 688.453125 L 643.566406 688.453125 C 648.832031 688.453125 653.101562 684.164062 653.101562 678.921875 L 653.101562 402.550781 Z M 443.316406 402.550781 " fill-opacity="1" fill-rule="nonzero"/></g></svg>