<svg xmlns="http://www.w3.org/2000/svg" xmlns:xlink="http://www.w3.org/1999/xlink" width="1080" zoomAndPan="magnify" viewBox="0 0 810 809.999993" height="1080" preserveAspectRatio="xMidYMid meet" version="1.0"><defs><clipPath id="095efece45"><path d="M 105 397 L 257 397 L 257 676.808594 L 105 676.808594 Z M 105 397 " clip-rule="nonzero"/></clipPath></defs><path fill="#ffffff" d="M 234.796875 639.3125 C 231.601562 633.726562 233.542969 626.609375 239.132812 623.414062 L 277.683594 601.382812 C 284.714844 597.363281 292.714844 595.238281 300.8125 595.238281 L 498.425781 595.238281 C 504.578125 595.238281 510.59375 592.738281 514.9375 588.378906 L 667.546875 435.226562 C 679.105469 423.667969 678.964844 404.859375 667.054688 393.507812 C 655.707031 382.6875 637.1875 383.175781 625.769531 394.597656 L 532.535156 487.828125 C 527.984375 492.378906 520.605469 492.378906 516.054688 487.828125 C 511.503906 483.277344 511.503906 475.898438 516.054688 471.347656 L 609.289062 378.113281 C 629.582031 357.824219 662.707031 357.160156 683.136719 376.636719 C 704.605469 397.105469 704.765625 430.964844 684.042969 451.691406 L 531.449219 604.832031 C 522.761719 613.546875 510.726562 618.546875 498.425781 618.546875 L 300.8125 618.546875 C 296.761719 618.546875 292.765625 619.605469 289.25 621.617188 L 250.695312 643.648438 C 245.128906 646.832031 238.003906 644.921875 234.796875 639.3125 Z M 234.796875 639.3125 " fill-opacity="1" fill-rule="nonzero"/><path fill="#ffffff" d="M 483.8125 536.972656 L 408.0625 536.972656 C 401.628906 536.972656 396.410156 531.753906 396.410156 525.316406 C 396.410156 518.882812 401.628906 513.664062 408.0625 513.664062 L 483.8125 513.664062 C 499.875 513.664062 512.945312 500.59375 512.945312 484.53125 C 512.945312 468.464844 499.875 455.398438 483.8125 455.398438 L 373.105469 455.398438 C 366.667969 455.398438 361.449219 450.179688 361.449219 443.742188 C 361.449219 436.957031 367.253906 431.464844 374.175781 432.089844 L 483.8125 432.089844 C 512.726562 432.089844 536.253906 455.613281 536.253906 484.53125 C 536.253906 513.445312 512.726562 536.972656 483.8125 536.972656 Z M 483.8125 536.972656 " fill-opacity="1" fill-rule="nonzero"/><g clip-path="url(#095efece45)"><path fill="#ffffff" d="M 209.953125 676.8125 L 116.726562 676.8125 C 110.289062 676.8125 105.074219 671.59375 105.074219 665.160156 L 105.074219 408.78125 C 105.074219 402.347656 110.289062 397.128906 116.726562 397.128906 L 209.953125 397.128906 C 235.65625 397.128906 256.570312 418.039062 256.570312 443.742188 L 256.570312 630.199219 C 256.570312 655.902344 235.65625 676.8125 209.953125 676.8125 Z M 128.378906 653.503906 L 209.953125 653.503906 C 222.804688 653.503906 233.261719 643.050781 233.261719 630.199219 L 233.261719 443.742188 C 233.261719 430.890625 222.804688 420.4375 209.953125 420.4375 L 128.378906 420.4375 Z M 128.378906 653.503906 " fill-opacity="1" fill-rule="nonzero"/></g><path fill="#ffffff" d="M 234.007812 447.84375 C 231.742188 441.820312 234.789062 435.101562 240.8125 432.835938 C 283.898438 416.636719 332.351562 415.972656 377.203125 432.835938 C 383.226562 435.097656 386.273438 441.820312 384.011719 447.84375 C 381.746094 453.867188 375.023438 456.914062 369 454.652344 C 331.074219 440.390625 288.472656 439.816406 249.015625 454.652344 C 242.964844 456.925781 236.261719 453.847656 234.007812 447.84375 Z M 234.007812 447.84375 " fill-opacity="1" fill-rule="nonzero"/><path fill="#ffffff" d="M 198.300781 630.199219 C 191.863281 630.199219 186.648438 624.980469 186.648438 618.546875 L 186.648438 595.238281 C 186.648438 588.804688 191.863281 583.585938 198.300781 583.585938 C 204.738281 583.585938 209.953125 588.804688 209.953125 595.238281 L 209.953125 618.546875 C 209.953125 624.980469 204.738281 630.199219 198.300781 630.199219 Z M 198.300781 630.199219 " fill-opacity="1" fill-rule="nonzero"/><path fill="#ffffff" d="M 393.878906 393.597656 L 288.847656 285.507812 C 256.074219 251.773438 256.847656 197.65625 290.582031 164.878906 C 321.679688 134.667969 369.480469 133.105469 402.238281 158.578125 C 434.996094 133.101562 482.800781 134.671875 513.890625 164.878906 C 547.625 197.65625 548.402344 251.769531 515.625 285.507812 L 410.59375 393.597656 C 406.023438 398.300781 398.457031 398.308594 393.878906 393.597656 Z M 306.824219 181.59375 C 282.308594 205.417969 281.742188 244.746094 305.566406 269.269531 L 402.238281 368.753906 L 498.910156 269.265625 C 522.730469 244.746094 522.167969 205.417969 497.648438 181.59375 C 473.367188 158.003906 434.515625 158.160156 410.503906 182.328125 C 405.949219 186.914062 398.527344 186.910156 393.96875 182.328125 C 370.007812 158.207031 331.160156 157.953125 306.824219 181.59375 Z M 306.824219 181.59375 " fill-opacity="1" fill-rule="nonzero"/></svg>