<svg xmlns="http://www.w3.org/2000/svg" xmlns:xlink="http://www.w3.org/1999/xlink" width="1080" zoomAndPan="magnify" viewBox="0 0 810 809.999993" height="1080" preserveAspectRatio="xMidYMid meet" version="1.0"><defs><clipPath id="05465e2727"><path d="M 130 102 L 680 102 L 680 708.816406 L 130 708.816406 Z M 130 102 " clip-rule="nonzero"/></clipPath></defs><g clip-path="url(#05465e2727)"><path fill="#ffffff" d="M 639.816406 423.320312 C 604.046875 563.003906 525.039062 652.035156 404.957031 687.980469 C 285.035156 652.082031 206.070312 563.242188 170.21875 423.859375 C 147.765625 336.53125 150.132812 255.378906 151.714844 229.011719 C 263.824219 225.464844 357.367188 159.320312 404.96875 124.777344 C 452.28125 158.992188 546.078125 225.449219 658.1875 229.011719 C 659.773438 255.296875 662.15625 336.066406 639.816406 423.320312 Z M 677.582031 218.0625 C 677.0625 212.910156 672.730469 208.992188 667.554688 208.992188 C 555.699219 208.992188 463.621094 142.335938 414.148438 106.53125 L 410.863281 104.148438 C 407.332031 101.605469 402.558594 101.605469 399.042969 104.160156 L 396.488281 106.015625 C 350.496094 139.4375 254.777344 208.992188 142.339844 208.992188 C 137.167969 208.992188 132.832031 212.910156 132.3125 218.0625 C 131.902344 222.128906 122.554688 318.976562 150.554688 428.324219 C 187.960938 574.410156 274.960938 671.183594 402.144531 708.175781 C 403.058594 708.445312 404.011719 708.582031 404.957031 708.582031 C 405.90625 708.582031 406.855469 708.445312 407.773438 708.175781 C 534.945312 671.183594 621.941406 574.410156 659.34375 428.324219 C 687.339844 318.976562 677.996094 222.128906 677.582031 218.0625 " fill-opacity="1" fill-rule="nonzero"/></g><path fill="#ffffff" d="M 516.261719 326.527344 L 386.980469 494.90625 C 383.609375 499.304688 378.597656 502.140625 373.101562 502.773438 C 372.320312 502.867188 371.535156 502.910156 370.753906 502.910156 C 366.050781 502.910156 361.46875 501.289062 357.789062 498.28125 L 292.65625 444.925781 C 283.917969 437.765625 282.625 424.875 289.785156 416.121094 C 296.945312 407.382812 309.832031 406.09375 318.578125 413.253906 L 367.382812 453.226562 L 483.800781 301.589844 C 490.691406 292.613281 503.53125 290.941406 512.492188 297.824219 C 521.457031 304.710938 523.140625 317.558594 516.261719 326.527344 Z M 404.949219 164.144531 C 361.25 195.675781 281.738281 249.445312 186.0625 255.316406 C 183.546875 322.421875 188.125 582.621094 404.949219 649.683594 C 621.75 582.621094 626.328125 322.421875 623.828125 255.316406 C 528.136719 249.40625 448.40625 195.460938 404.949219 164.144531 " fill-opacity="1" fill-rule="nonzero"/></svg>