<svg xmlns="http://www.w3.org/2000/svg" xmlns:xlink="http://www.w3.org/1999/xlink" width="1080" zoomAndPan="magnify" viewBox="0 0 810 809.999993" height="1080" preserveAspectRatio="xMidYMid meet" version="1.0"><defs><clipPath id="b9712950d9"><path d="M 191.066406 208 L 521 208 L 521 661 L 191.066406 661 Z M 191.066406 208 " clip-rule="nonzero"/></clipPath><clipPath id="7697905c41"><path d="M 331 148.792969 L 381 148.792969 L 381 187 L 331 187 Z M 331 148.792969 " clip-rule="nonzero"/></clipPath><clipPath id="3e87ae9f61"><path d="M 396 174 L 618.566406 174 L 618.566406 389 L 396 389 Z M 396 174 " clip-rule="nonzero"/></clipPath></defs><g clip-path="url(#b9712950d9)"><path fill="#ffffff" d="M 493.6875 660.90625 L 217.542969 660.90625 C 202.941406 660.90625 191.066406 649.570312 191.066406 635.632812 L 191.066406 234.101562 C 191.066406 220.164062 202.941406 208.828125 217.542969 208.828125 L 282.226562 208.828125 C 286.230469 208.828125 289.476562 212.074219 289.476562 216.082031 C 289.476562 220.089844 286.230469 223.335938 282.226562 223.335938 L 217.542969 223.335938 C 210.9375 223.335938 205.566406 228.164062 205.566406 234.101562 L 205.566406 635.632812 C 205.566406 641.570312 210.9375 646.398438 217.542969 646.398438 L 493.6875 646.398438 C 500.292969 646.398438 505.664062 641.570312 505.664062 635.632812 L 505.664062 367.46875 C 505.664062 363.460938 508.910156 360.214844 512.914062 360.214844 C 516.917969 360.214844 520.164062 363.460938 520.164062 367.46875 L 520.164062 635.632812 C 520.164062 649.570312 508.289062 660.90625 493.6875 660.90625 Z M 493.6875 660.90625 " fill-opacity="1" fill-rule="nonzero"/></g><path fill="#ffffff" d="M 428.683594 223.335938 L 271.042969 223.335938 C 267.035156 223.335938 263.792969 220.089844 263.792969 216.082031 L 263.792969 186.75 C 263.792969 182.742188 267.035156 179.496094 271.042969 179.496094 L 440.183594 179.496094 C 444.1875 179.496094 447.433594 182.742188 447.433594 186.75 L 447.433594 214.050781 C 447.433594 218.058594 444.1875 221.304688 440.183594 221.304688 C 438.242188 221.304688 436.480469 220.542969 435.179688 219.304688 C 433.992188 221.695312 431.53125 223.335938 428.683594 223.335938 Z M 278.292969 208.828125 L 428.683594 208.828125 C 430.269531 208.828125 431.738281 209.335938 432.929688 210.203125 L 432.929688 194.003906 L 278.292969 194.003906 Z M 278.292969 208.828125 " fill-opacity="1" fill-rule="nonzero"/><g clip-path="url(#7697905c41)"><path fill="#ffffff" d="M 355.613281 148.929688 C 369.160156 148.929688 380.152344 159.917969 380.152344 173.480469 C 380.152344 178.371094 378.722656 182.921875 376.261719 186.75 L 334.964844 186.75 C 332.503906 182.921875 331.074219 178.371094 331.074219 173.480469 C 331.074219 159.925781 342.054688 148.929688 355.613281 148.929688 Z M 355.613281 148.929688 " fill-opacity="1" fill-rule="evenodd"/></g><path fill="#ffffff" d="M 404.101562 611.136719 L 241.726562 611.136719 C 237.71875 611.136719 234.476562 607.890625 234.476562 603.882812 L 234.476562 246.539062 C 234.476562 242.53125 237.71875 239.285156 241.726562 239.285156 L 427.152344 239.285156 C 431.15625 239.285156 434.402344 242.53125 434.402344 246.539062 C 434.402344 250.546875 431.15625 253.792969 427.152344 253.792969 L 248.976562 253.792969 L 248.976562 596.628906 L 401.386719 596.628906 L 462.253906 543.609375 L 462.253906 376.402344 C 462.253906 372.394531 465.5 369.148438 469.503906 369.148438 C 473.507812 369.148438 476.753906 372.394531 476.753906 376.402344 L 476.753906 546.914062 C 476.753906 549.015625 475.84375 551.007812 474.261719 552.386719 L 408.859375 609.355469 C 407.542969 610.503906 405.851562 611.136719 404.101562 611.136719 Z M 404.101562 611.136719 " fill-opacity="1" fill-rule="nonzero"/><path fill="#ffffff" d="M 404.101562 611.136719 C 400.097656 611.136719 396.851562 607.890625 396.851562 603.882812 L 396.851562 536.757812 C 396.851562 534.714844 397.710938 532.769531 399.222656 531.390625 C 400.734375 530.019531 402.738281 529.347656 404.785156 529.539062 L 470.1875 535.746094 C 474.175781 536.125 477.101562 539.664062 476.71875 543.652344 C 476.34375 547.644531 472.789062 550.597656 468.820312 550.191406 L 411.351562 544.734375 L 411.351562 603.882812 C 411.351562 607.890625 408.105469 611.136719 404.101562 611.136719 Z M 404.101562 611.136719 " fill-opacity="1" fill-rule="nonzero"/><path fill="#ffffff" d="M 373.390625 302.316406 L 273.269531 302.316406 C 269.261719 302.316406 266.015625 299.070312 266.015625 295.0625 C 266.015625 291.054688 269.261719 287.808594 273.269531 287.808594 L 373.390625 287.808594 C 377.398438 287.808594 380.640625 291.054688 380.640625 295.0625 C 380.640625 299.070312 377.398438 302.316406 373.390625 302.316406 Z M 373.390625 302.316406 " fill-opacity="1" fill-rule="nonzero"/><path fill="#ffffff" d="M 373.390625 345.703125 L 273.269531 345.703125 C 269.261719 345.703125 266.015625 342.453125 266.015625 338.449219 C 266.015625 334.441406 269.261719 331.191406 273.269531 331.191406 L 373.390625 331.191406 C 377.398438 331.191406 380.640625 334.441406 380.640625 338.449219 C 380.640625 342.453125 377.398438 345.703125 373.390625 345.703125 Z M 373.390625 345.703125 " fill-opacity="1" fill-rule="nonzero"/><path fill="#ffffff" d="M 368.835938 432.46875 L 273.269531 432.46875 C 269.261719 432.46875 266.015625 429.222656 266.015625 425.214844 C 266.015625 421.210938 269.261719 417.960938 273.269531 417.960938 L 368.835938 417.960938 C 372.839844 417.960938 376.085938 421.210938 376.085938 425.214844 C 376.085938 429.222656 372.839844 432.46875 368.835938 432.46875 Z M 368.835938 432.46875 " fill-opacity="1" fill-rule="nonzero"/><path fill="#ffffff" d="M 435.359375 389.082031 L 273.269531 389.082031 C 269.261719 389.082031 266.015625 385.835938 266.015625 381.828125 C 266.015625 377.824219 269.261719 374.574219 273.269531 374.574219 L 435.359375 374.574219 C 439.363281 374.574219 442.609375 377.824219 442.609375 381.828125 C 442.609375 385.835938 439.363281 389.082031 435.359375 389.082031 Z M 435.359375 389.082031 " fill-opacity="1" fill-rule="nonzero"/><path fill="#ffffff" d="M 481.367188 241.074219 C 491.925781 241.074219 499.816406 247.523438 499.816406 259.867188 C 499.816406 272.210938 491.925781 278.660156 481.367188 278.660156 C 470.808594 278.660156 462.804688 272.210938 462.804688 259.867188 C 462.804688 247.523438 470.808594 241.074219 481.367188 241.074219 Z M 475.921875 259.867188 C 475.921875 265.09375 477.921875 267.425781 481.253906 267.425781 C 484.59375 267.425781 486.703125 265.09375 486.703125 259.867188 C 486.703125 254.53125 484.59375 252.195312 481.253906 252.195312 C 477.921875 252.195312 475.921875 254.53125 475.921875 259.867188 Z M 524.703125 242.296875 C 530.8125 242.296875 534.691406 248.84375 531.761719 254.207031 L 497.769531 316.394531 C 496.359375 318.976562 493.652344 320.582031 490.710938 320.582031 C 484.601562 320.582031 480.722656 314.035156 483.652344 308.671875 L 517.644531 246.484375 C 519.058594 243.902344 521.761719 242.296875 524.703125 242.296875 Z M 534.160156 284.21875 C 544.71875 284.21875 552.609375 290.558594 552.609375 303.011719 C 552.609375 315.355469 544.71875 321.804688 534.160156 321.804688 C 523.601562 321.804688 515.710938 315.355469 515.710938 303.011719 C 515.710938 290.558594 523.601562 284.21875 534.160156 284.21875 Z M 528.714844 303.011719 C 528.714844 308.238281 530.714844 310.574219 534.050781 310.574219 C 537.382812 310.574219 539.496094 308.238281 539.496094 303.011719 C 539.496094 297.785156 537.382812 295.339844 534.050781 295.339844 C 530.714844 295.339844 528.714844 297.785156 528.714844 303.011719 Z M 528.714844 303.011719 " fill-opacity="1" fill-rule="nonzero"/><g clip-path="url(#3e87ae9f61)"><path fill="#ffffff" d="M 481.011719 388.144531 C 478.519531 388.144531 475.976562 387.75 473.449219 386.925781 C 463.257812 383.613281 456.859375 374.542969 457.15625 363.824219 C 457.242188 360.777344 455.875 358 453.410156 356.210938 C 450.945312 354.417969 447.894531 353.976562 445.019531 355 C 434.921875 358.605469 424.324219 355.308594 418.023438 346.632812 C 411.722656 337.957031 411.875 326.859375 418.414062 318.359375 C 420.273438 315.945312 420.796875 312.898438 419.855469 310 C 418.914062 307.101562 416.699219 304.945312 413.777344 304.085938 C 403.496094 301.054688 396.851562 292.164062 396.851562 281.4375 C 396.851562 270.710938 403.496094 261.824219 413.777344 258.796875 C 416.699219 257.933594 418.914062 255.78125 419.855469 252.878906 C 420.796875 249.980469 420.273438 246.933594 418.414062 244.515625 C 411.875 236.019531 411.722656 224.921875 418.023438 216.242188 C 424.324219 207.566406 434.921875 204.285156 445.019531 207.878906 C 447.898438 208.90625 450.949219 208.457031 453.414062 206.667969 C 455.875 204.875 457.242188 202.101562 457.15625 199.054688 C 456.859375 188.335938 463.257812 179.265625 473.449219 175.953125 C 483.648438 172.636719 494.148438 176.214844 500.207031 185.0625 C 501.925781 187.574219 504.660156 189.015625 507.707031 189.019531 C 510.753906 189.019531 513.488281 187.574219 515.210938 185.058594 C 521.269531 176.214844 531.765625 172.636719 541.964844 175.953125 C 552.160156 179.265625 558.554688 188.335938 558.257812 199.054688 C 558.171875 202.101562 559.539062 204.875 562 206.667969 C 564.464844 208.460938 567.523438 208.898438 570.398438 207.878906 C 580.492188 204.28125 591.09375 207.5625 597.394531 216.242188 C 603.695312 224.921875 603.542969 236.019531 597 244.519531 C 595.144531 246.933594 594.617188 249.984375 595.5625 252.882812 C 596.5 255.78125 598.71875 257.933594 601.640625 258.796875 C 611.917969 261.824219 618.566406 270.710938 618.566406 281.4375 C 618.566406 292.164062 611.921875 301.054688 601.640625 304.085938 C 598.71875 304.945312 596.5 307.101562 595.558594 310 C 594.617188 312.898438 595.144531 315.945312 597 318.359375 C 603.542969 326.859375 603.695312 337.957031 597.394531 346.632812 C 591.09375 355.3125 580.5 358.597656 570.398438 355 C 567.535156 353.980469 564.464844 354.417969 562.003906 356.210938 C 559.539062 358.003906 558.171875 360.777344 558.257812 363.824219 C 558.554688 374.542969 552.160156 383.613281 541.964844 386.925781 C 531.765625 390.246094 521.269531 386.664062 515.210938 377.816406 C 511.769531 372.789062 503.652344 372.785156 500.207031 377.816406 C 495.648438 384.472656 488.574219 388.144531 481.011719 388.144531 Z M 448.070312 339.964844 C 452.984375 339.964844 457.847656 341.503906 461.933594 344.472656 C 468.234375 349.050781 471.867188 356.4375 471.652344 364.226562 C 471.511719 369.242188 474.804688 372.113281 477.929688 373.128906 C 481.050781 374.144531 485.40625 373.757812 488.246094 369.621094 C 492.644531 363.191406 499.921875 359.355469 507.707031 359.355469 C 515.496094 359.351562 522.769531 363.1875 527.171875 369.621094 C 530.007812 373.757812 534.355469 374.144531 537.484375 373.128906 C 540.609375 372.113281 543.902344 369.242188 543.761719 364.226562 C 543.546875 356.4375 547.179688 349.054688 553.480469 344.472656 C 559.777344 339.898438 567.914062 338.710938 575.257812 341.332031 C 579.984375 343.015625 583.734375 340.769531 585.660156 338.105469 C 587.59375 335.445312 588.570312 331.1875 585.511719 327.210938 C 580.761719 321.035156 579.363281 312.925781 581.769531 305.515625 C 584.175781 298.105469 590.074219 292.367188 597.542969 290.167969 C 602.351562 288.75 604.066406 284.730469 604.066406 281.4375 C 604.066406 278.148438 602.351562 274.128906 597.542969 272.710938 C 590.074219 270.511719 584.175781 264.773438 581.769531 257.367188 C 579.363281 249.957031 580.761719 241.84375 585.511719 235.671875 C 588.570312 231.695312 587.59375 227.433594 585.660156 224.773438 C 583.730469 222.109375 579.972656 219.863281 575.257812 221.546875 C 567.921875 224.160156 559.785156 222.988281 553.476562 218.40625 C 547.179688 213.824219 543.546875 206.441406 543.761719 198.65625 C 543.902344 193.640625 540.609375 190.765625 537.484375 189.75 C 534.355469 188.738281 530.007812 189.121094 527.171875 193.261719 C 522.769531 199.6875 515.496094 203.527344 507.707031 203.527344 C 499.921875 203.523438 492.644531 199.6875 488.246094 193.261719 C 485.40625 189.121094 481.050781 188.738281 477.929688 189.75 C 474.804688 190.765625 471.511719 193.640625 471.652344 198.65625 C 471.867188 206.441406 468.234375 213.824219 461.9375 218.40625 C 455.636719 222.988281 447.492188 224.167969 440.15625 221.546875 C 435.449219 219.863281 431.6875 222.113281 429.753906 224.773438 C 427.820312 227.433594 426.84375 231.695312 429.902344 235.667969 C 434.65625 241.84375 436.050781 249.953125 433.644531 257.363281 C 431.238281 264.773438 425.34375 270.511719 417.875 272.710938 C 413.0625 274.128906 411.351562 278.148438 411.351562 281.4375 C 411.351562 284.730469 413.0625 288.75 417.875 290.167969 C 425.34375 292.367188 431.238281 298.105469 433.648438 305.515625 C 436.050781 312.925781 434.65625 321.035156 429.902344 327.210938 C 426.847656 331.1875 427.820312 335.445312 429.753906 338.105469 C 431.683594 340.769531 435.425781 343.003906 440.160156 341.332031 C 442.734375 340.414062 445.410156 339.964844 448.070312 339.964844 Z M 521.191406 189.160156 L 521.238281 189.160156 Z M 521.191406 189.160156 " fill-opacity="1" fill-rule="nonzero"/></g><path fill="#ffffff" d="M 305.292969 468.425781 C 305.292969 469.152344 305.265625 469.773438 305.199219 470.285156 C 305.136719 470.800781 305.042969 471.214844 304.917969 471.527344 C 304.796875 471.839844 304.636719 472.070312 304.453125 472.222656 C 304.261719 472.375 304.054688 472.449219 303.828125 472.449219 L 291.65625 472.449219 L 291.65625 511.660156 C 291.65625 511.914062 291.574219 512.136719 291.410156 512.339844 C 291.246094 512.539062 290.980469 512.699219 290.601562 512.828125 C 290.226562 512.953125 289.71875 513.050781 289.082031 513.125 C 288.441406 513.203125 287.648438 513.242188 286.695312 513.242188 C 285.742188 513.242188 284.949219 513.203125 284.308594 513.125 C 283.671875 513.050781 283.164062 512.953125 282.785156 512.828125 C 282.410156 512.699219 282.140625 512.539062 281.980469 512.339844 C 281.816406 512.136719 281.734375 511.914062 281.734375 511.660156 L 281.734375 472.449219 L 269.5625 472.449219 C 269.308594 472.449219 269.097656 472.375 268.921875 472.222656 C 268.746094 472.070312 268.59375 471.839844 268.472656 471.527344 C 268.34375 471.214844 268.25 470.800781 268.191406 470.285156 C 268.125 469.773438 268.097656 469.152344 268.097656 468.425781 C 268.097656 467.671875 268.125 467.03125 268.191406 466.507812 C 268.25 465.980469 268.34375 465.5625 268.472656 465.25 C 268.59375 464.933594 268.746094 464.707031 268.921875 464.570312 C 269.097656 464.433594 269.308594 464.363281 269.5625 464.363281 L 303.828125 464.363281 C 304.054688 464.363281 304.261719 464.433594 304.453125 464.570312 C 304.636719 464.707031 304.796875 464.933594 304.917969 465.25 C 305.042969 465.5625 305.136719 465.980469 305.199219 466.507812 C 305.265625 467.03125 305.292969 467.671875 305.292969 468.425781 Z M 305.292969 468.425781 " fill-opacity="1" fill-rule="nonzero"/><path fill="#ffffff" d="M 344.828125 509.332031 C 345.125 510.230469 345.3125 510.945312 345.390625 511.472656 C 345.46875 511.996094 345.363281 512.394531 345.089844 512.65625 C 344.816406 512.921875 344.324219 513.082031 343.625 513.148438 C 342.925781 513.207031 341.957031 513.242188 340.730469 513.242188 C 339.453125 513.242188 338.457031 513.21875 337.746094 513.183594 C 337.03125 513.148438 336.484375 513.070312 336.109375 512.957031 C 335.734375 512.84375 335.472656 512.6875 335.320312 512.488281 C 335.167969 512.289062 335.042969 512.023438 334.941406 511.699219 L 331.675781 501.921875 L 313.414062 501.921875 L 310.332031 511.4375 C 310.230469 511.785156 310.101562 512.082031 309.9375 512.316406 C 309.773438 512.554688 309.511719 512.746094 309.148438 512.882812 C 308.785156 513.019531 308.273438 513.113281 307.609375 513.164062 C 306.945312 513.214844 306.074219 513.242188 304.996094 513.242188 C 303.84375 513.242188 302.941406 513.203125 302.289062 513.125 C 301.636719 513.050781 301.1875 512.871094 300.9375 512.582031 C 300.6875 512.292969 300.597656 511.886719 300.675781 511.359375 C 300.75 510.835938 300.9375 510.132812 301.238281 509.253906 L 316.230469 466.09375 C 316.382812 465.667969 316.554688 465.324219 316.757812 465.0625 C 316.957031 464.796875 317.277344 464.597656 317.714844 464.460938 C 318.152344 464.320312 318.761719 464.234375 319.539062 464.195312 C 320.3125 464.160156 321.339844 464.140625 322.617188 464.140625 C 324.097656 464.140625 325.273438 464.160156 326.152344 464.195312 C 327.03125 464.234375 327.710938 464.320312 328.199219 464.460938 C 328.6875 464.597656 329.039062 464.804688 329.253906 465.078125 C 329.464844 465.355469 329.644531 465.730469 329.796875 466.207031 Z M 322.507812 473.652344 L 322.46875 473.652344 L 315.59375 494.328125 L 329.382812 494.328125 Z M 322.507812 473.652344 " fill-opacity="1" fill-rule="nonzero"/><path fill="#ffffff" d="M 386.273438 509.292969 C 386.726562 510.171875 387.019531 510.871094 387.15625 511.398438 C 387.296875 511.925781 387.214844 512.324219 386.914062 512.601562 C 386.613281 512.875 386.070312 513.050781 385.277344 513.125 C 384.488281 513.203125 383.394531 513.242188 381.988281 513.242188 C 380.8125 513.242188 379.886719 513.214844 379.210938 513.164062 C 378.535156 513.113281 378.003906 513.03125 377.613281 512.921875 C 377.222656 512.808594 376.941406 512.648438 376.765625 512.449219 C 376.59375 512.25 376.441406 511.996094 376.316406 511.699219 L 367.183594 494.140625 L 358.089844 511.699219 C 357.941406 511.996094 357.777344 512.25 357.601562 512.449219 C 357.425781 512.648438 357.144531 512.808594 356.757812 512.921875 C 356.371094 513.03125 355.828125 513.113281 355.140625 513.164062 C 354.453125 513.214844 353.546875 513.242188 352.417969 513.242188 C 351.113281 513.242188 350.105469 513.203125 349.394531 513.125 C 348.679688 513.050781 348.195312 512.875 347.945312 512.601562 C 347.695312 512.324219 347.644531 511.925781 347.796875 511.398438 C 347.945312 510.871094 348.257812 510.171875 348.734375 509.292969 L 360.382812 488.050781 L 349.5625 468.085938 C 349.109375 467.183594 348.800781 466.464844 348.640625 465.925781 C 348.476562 465.386719 348.542969 464.984375 348.828125 464.71875 C 349.117188 464.460938 349.648438 464.292969 350.425781 464.234375 C 351.203125 464.171875 352.304688 464.140625 353.734375 464.140625 C 354.910156 464.140625 355.84375 464.164062 356.53125 464.214844 C 357.222656 464.265625 357.765625 464.34375 358.167969 464.460938 C 358.566406 464.570312 358.847656 464.730469 359.011719 464.929688 C 359.175781 465.128906 359.332031 465.378906 359.480469 465.679688 L 368.011719 481.773438 L 376.316406 465.679688 C 376.464844 465.378906 376.621094 465.128906 376.785156 464.929688 C 376.949219 464.730469 377.210938 464.570312 377.578125 464.460938 C 377.9375 464.34375 378.441406 464.265625 379.078125 464.214844 C 379.71875 464.164062 380.601562 464.140625 381.726562 464.140625 C 382.980469 464.140625 383.96875 464.171875 384.695312 464.234375 C 385.421875 464.292969 385.921875 464.464844 386.199219 464.742188 C 386.472656 465.015625 386.542969 465.417969 386.40625 465.941406 C 386.269531 466.472656 385.984375 467.183594 385.558594 468.085938 L 374.738281 487.9375 Z M 386.273438 509.292969 " fill-opacity="1" fill-rule="nonzero"/></svg>