<svg xmlns="http://www.w3.org/2000/svg" xmlns:xlink="http://www.w3.org/1999/xlink" width="1080" zoomAndPan="magnify" viewBox="0 0 810 809.999993" height="1080" preserveAspectRatio="xMidYMid meet" version="1.0"><defs><clipPath id="c7e101bcd8"><path d="M 180 238 L 629 238 L 629 699.59375 L 180 699.59375 Z M 180 238 " clip-rule="nonzero"/></clipPath><clipPath id="b4d4767a20"><path d="M 126 110.09375 L 683 110.09375 L 683 431 L 126 431 Z M 126 110.09375 " clip-rule="nonzero"/></clipPath></defs><g clip-path="url(#c7e101bcd8)"><path fill="#ffffff" d="M 180.1875 461.484375 L 180.1875 689.1875 C 180.1875 694.90625 184.832031 699.558594 190.5625 699.558594 L 435.085938 699.558594 L 435.085938 493.375 L 549.953125 493.375 L 549.953125 699.558594 L 618.28125 699.558594 C 624.027344 699.558594 628.65625 694.90625 628.65625 689.1875 L 628.65625 461.484375 L 404.550781 238.46875 Z M 362.542969 589.433594 L 258.890625 589.433594 L 258.890625 493.386719 L 362.542969 493.386719 Z M 362.542969 589.433594 " fill-opacity="1" fill-rule="nonzero"/></g><g clip-path="url(#b4d4767a20)"><path fill="#ffffff" d="M 674.078125 379.605469 L 404.433594 110.128906 L 277.226562 237.25 L 277.226562 181.308594 C 277.226562 168.238281 266.613281 157.632812 253.539062 157.632812 C 240.464844 157.632812 229.851562 168.238281 229.851562 181.308594 L 229.851562 284.597656 L 134.777344 379.605469 C 123.207031 391.171875 123.207031 409.910156 134.777344 421.460938 C 140.558594 427.238281 148.136719 430.128906 155.71875 430.128906 C 163.296875 430.128906 170.867188 427.238281 176.65625 421.476562 L 404.445312 193.84375 L 632.210938 421.460938 C 643.78125 433.027344 662.519531 433.027344 674.078125 421.460938 C 685.640625 409.898438 685.640625 391.160156 674.078125 379.605469 Z M 674.078125 379.605469 " fill-opacity="1" fill-rule="nonzero"/></g></svg>