<svg xmlns="http://www.w3.org/2000/svg" xmlns:xlink="http://www.w3.org/1999/xlink" width="1080" zoomAndPan="magnify" viewBox="0 0 810 809.999993" height="1080" preserveAspectRatio="xMidYMid meet" version="1.0"><defs><clipPath id="95353c876a"><path d="M 90.003906 171.132812 L 719.738281 171.132812 L 719.738281 639.09375 L 90.003906 639.09375 Z M 90.003906 171.132812 " clip-rule="nonzero"/></clipPath></defs><g clip-path="url(#95353c876a)"><path fill="#ffffff" d="M 129.726562 358.953125 C 118.929688 396.328125 109.636719 411.683594 109.464844 457.660156 C 109.371094 497.820312 109.558594 538.007812 109.492188 578.234375 C 109.414062 631.972656 113.226562 638.921875 168.199219 639.09375 C 225.101562 639.296875 218.238281 617.976562 218.425781 567.714844 L 590.785156 567.375 C 591.203125 615.8125 584.578125 639.296875 638.648438 639.09375 C 715.859375 638.921875 699.695312 624.671875 699.765625 460.378906 C 699.789062 416.0625 691.839844 395.484375 679.347656 358.929688 C 715.867188 357.675781 760.015625 273.492188 649.847656 290.703125 C 644.019531 272.515625 636.097656 255.382812 628.457031 237.511719 C 618.886719 214.9375 618.1875 207.457031 602.734375 191.746094 C 589.628906 178.382812 570.925781 172.820312 549.875 171.679688 L 540.359375 171.125 L 256.625 172.027344 C 204.054688 172.488281 192.976562 208.855469 179.269531 241.125 C 173.898438 253.664062 164.625 281.671875 157.078125 290.171875 C 51.042969 274.175781 93.78125 357.574219 129.726562 358.953125 Z M 256.105469 494.429688 L 256.105469 438.824219 L 553.660156 438.824219 L 553.660156 494.429688 Z M 215.269531 475.484375 C 215.269531 493.816406 200.25 508.722656 181.675781 508.738281 C 163.132812 508.738281 148.097656 493.832031 148.097656 475.484375 C 148.097656 457.140625 163.132812 442.140625 181.675781 442.140625 C 200.257812 442.140625 215.269531 457.140625 215.269531 475.484375 Z M 661.691406 475.484375 C 661.691406 493.816406 646.605469 508.722656 628.097656 508.738281 C 609.472656 508.738281 594.460938 493.832031 594.460938 475.484375 C 594.460938 457.140625 609.472656 442.140625 628.097656 442.140625 C 646.605469 442.140625 661.691406 457.140625 661.691406 475.484375 Z M 260.257812 199.433594 C 280.851562 194.140625 382.136719 197.675781 411.765625 197.667969 C 562.378906 197.667969 561.253906 182.308594 589.789062 251.207031 C 597.242188 269.304688 605.097656 287.796875 612.363281 305.625 C 618.292969 320.433594 637.503906 351.226562 622.539062 362.25 C 611.433594 370.410156 271.847656 365.984375 240.144531 365.984375 C 167.585938 365.984375 170.546875 368.957031 201 295.4375 C 218.578125 252.808594 228.972656 207.492188 260.257812 199.433594 " fill-opacity="1" fill-rule="evenodd"/></g></svg>