<svg xmlns="http://www.w3.org/2000/svg" xmlns:xlink="http://www.w3.org/1999/xlink" width="1080" zoomAndPan="magnify" viewBox="0 0 810 809.999993" height="1080" preserveAspectRatio="xMidYMid meet" version="1.0"><defs><clipPath id="00af7c4ac1"><path d="M 135.738281 128.476562 L 674 128.476562 L 674 681.226562 L 135.738281 681.226562 Z M 135.738281 128.476562 " clip-rule="nonzero"/></clipPath></defs><g clip-path="url(#00af7c4ac1)"><path fill="#ffffff" d="M 429.09375 650.109375 C 429.21875 650.054688 429.34375 649.976562 429.453125 649.886719 C 429.523438 649.828125 429.601562 649.785156 429.679688 649.730469 C 429.488281 649.863281 429.296875 650 429.09375 650.109375 Z M 429.050781 650.144531 C 428.667969 650.378906 428.277344 650.570312 427.871094 650.726562 C 428.277344 650.570312 428.667969 650.367188 429.050781 650.144531 Z M 672.800781 347.136719 C 671.363281 344.109375 668.324219 342.183594 664.980469 342.183594 L 581.300781 342.183594 L 635.328125 242.5625 C 636.789062 239.882812 636.722656 236.632812 635.160156 234.019531 C 633.601562 231.40625 630.773438 229.800781 627.734375 229.800781 L 465.140625 229.800781 C 461.359375 229.800781 458.007812 232.257812 456.882812 235.867188 L 437.609375 297.417969 C 388.4375 211.414062 332.90625 133.03125 332.3125 132.203125 C 330.695312 129.914062 328.058594 128.558594 325.265625 128.558594 C 322.472656 128.558594 319.835938 129.914062 318.210938 132.203125 C 310.75 142.6875 135.738281 390.21875 135.738281 491.65625 C 135.738281 596.105469 220.753906 681.09375 325.265625 681.09375 C 362.433594 681.09375 398.421875 670.339844 429.332031 650 C 429.375 649.964844 429.421875 649.941406 429.453125 649.898438 C 429.34375 649.976562 429.21875 650.054688 429.09375 650.121094 C 429.285156 650.007812 429.488281 649.875 429.667969 649.738281 C 429.800781 649.628906 429.960938 649.503906 430.09375 649.394531 C 430.238281 649.269531 430.386719 649.132812 430.519531 649 C 430.667969 648.875 430.800781 648.730469 430.925781 648.597656 C 430.96875 648.539062 431.023438 648.496094 431.070312 648.449219 C 431.113281 648.394531 431.160156 648.339844 431.214844 648.28125 L 431.226562 648.269531 L 431.496094 647.957031 L 671.65625 356.320312 C 673.777344 353.742188 674.226562 350.15625 672.800781 347.136719 Z M 153.046875 491.65625 C 153.046875 406.738281 292.058594 200.414062 325.265625 152.339844 C 342.847656 177.785156 390.121094 247.597656 430.519531 320.058594 L 391.175781 445.746094 C 390.355469 448.382812 390.828125 451.242188 392.464844 453.453125 C 394.09375 455.660156 396.671875 456.984375 399.433594 456.984375 L 457.703125 456.984375 L 416.890625 637.429688 C 389.472656 654.695312 357.867188 663.789062 325.253906 663.789062 C 230.300781 663.789062 153.046875 586.574219 153.046875 491.65625 Z M 441.042969 609.136719 L 476.976562 450.234375 C 477.550781 447.675781 476.933594 444.984375 475.292969 442.933594 C 473.65625 440.882812 471.164062 439.679688 468.53125 439.679688 L 411.214844 439.679688 L 448.054688 321.976562 L 448.246094 321.347656 L 471.492188 247.082031 L 613.160156 247.082031 L 559.132812 346.699219 C 557.671875 349.382812 557.742188 352.632812 559.300781 355.246094 C 560.859375 357.859375 563.6875 359.460938 566.726562 359.460938 L 646.605469 359.460938 Z M 429.050781 650.144531 C 428.667969 650.378906 428.277344 650.570312 427.871094 650.726562 C 428.277344 650.570312 428.667969 650.367188 429.050781 650.144531 Z M 429.09375 650.109375 C 429.285156 650 429.488281 649.863281 429.667969 649.730469 C 429.601562 649.785156 429.523438 649.828125 429.445312 649.886719 C 429.34375 649.976562 429.230469 650.054688 429.09375 650.109375 Z M 430.933594 648.585938 C 430.980469 648.527344 431.035156 648.484375 431.082031 648.441406 C 430.777344 648.785156 430.453125 649.089844 430.117188 649.371094 C 430.261719 649.246094 430.398438 649.125 430.519531 649 C 430.675781 648.867188 430.800781 648.730469 430.933594 648.585938 Z M 430.105469 649.382812 C 430.117188 649.371094 430.117188 649.371094 430.128906 649.359375 C 429.980469 649.480469 429.835938 649.605469 429.679688 649.71875 C 429.8125 649.617188 429.960938 649.492188 430.105469 649.382812 Z M 272.359375 598.910156 C 271.078125 598.910156 269.789062 598.628906 268.566406 598.035156 C 232.507812 580.453125 208.535156 548.617188 204.441406 512.882812 C 203.902344 508.140625 207.300781 503.84375 212.058594 503.304688 C 216.8125 502.765625 221.101562 506.164062 221.636719 510.917969 C 225.050781 540.746094 245.433594 567.5 276.160156 582.484375 C 280.457031 584.578125 282.242188 589.761719 280.144531 594.054688 C 278.640625 597.128906 275.566406 598.910156 272.359375 598.910156 Z M 430.53125 648.988281 C 430.398438 649.125 430.261719 649.246094 430.128906 649.359375 C 430.464844 649.078125 430.789062 648.777344 431.09375 648.429688 C 431.046875 648.472656 430.992188 648.519531 430.945312 648.574219 C 430.800781 648.730469 430.675781 648.867188 430.53125 648.988281 Z M 430.105469 649.382812 C 430.117188 649.371094 430.117188 649.371094 430.128906 649.359375 C 429.980469 649.480469 429.835938 649.605469 429.679688 649.71875 C 429.8125 649.617188 429.960938 649.492188 430.105469 649.382812 Z M 429.453125 649.886719 C 429.523438 649.828125 429.601562 649.785156 429.679688 649.730469 C 429.5 649.863281 429.296875 650 429.105469 650.109375 C 429.230469 650.054688 429.34375 649.976562 429.453125 649.886719 Z M 429.050781 650.144531 C 428.667969 650.378906 428.277344 650.570312 427.871094 650.726562 C 428.277344 650.570312 428.667969 650.367188 429.050781 650.144531 Z M 429.050781 650.144531 " fill-opacity="1" fill-rule="nonzero"/></g></svg>