<svg xmlns="http://www.w3.org/2000/svg" xmlns:xlink="http://www.w3.org/1999/xlink" width="1080" zoomAndPan="magnify" viewBox="0 0 810 809.999993" height="1080" preserveAspectRatio="xMidYMid meet" version="1.0"><defs><clipPath id="73134bca61"><path d="M 115.484375 115.484375 L 694.484375 115.484375 L 694.484375 694.484375 L 115.484375 694.484375 Z M 115.484375 115.484375 " clip-rule="nonzero"/></clipPath></defs><g clip-path="url(#73134bca61)"><path fill="#ffffff" d="M 404.917969 675.289062 C 255.839844 675.289062 134.546875 553.996094 134.546875 404.917969 C 134.546875 255.832031 255.839844 134.546875 404.917969 134.546875 C 554 134.546875 675.28125 255.832031 675.28125 404.917969 C 675.28125 553.996094 554 675.289062 404.917969 675.289062 Z M 404.917969 115.429688 C 245.296875 115.429688 115.429688 245.296875 115.429688 404.917969 C 115.429688 564.539062 245.296875 694.40625 404.917969 694.40625 C 564.539062 694.40625 694.40625 564.539062 694.40625 404.917969 C 694.40625 245.296875 564.539062 115.429688 404.917969 115.429688 " fill-opacity="1" fill-rule="nonzero"/></g><path fill="#ffffff" d="M 336.71875 418.507812 C 332.886719 419.851562 330.320312 423.46875 330.320312 427.527344 L 330.320312 549.792969 C 330.34375 552.214844 329.53125 560 325.710938 563.851562 C 324.625 564.945312 322.691406 566.414062 318.539062 566.414062 C 307.042969 566.414062 306.289062 552.832031 306.257812 550.164062 L 306.257812 427.023438 C 306.257812 422.445312 302.972656 418.5 298.480469 417.632812 C 296.917969 417.328125 260.121094 409.765625 256.867188 373.054688 C 253.175781 331.539062 259.679688 260.136719 260.289062 253.628906 C 260.949219 250.589844 262.796875 246.820312 264.023438 246 C 265.175781 247.242188 266.601562 251.105469 267.085938 254.359375 L 267.085938 347.164062 C 266.738281 352.203125 268.59375 357.230469 272.351562 361.386719 C 277.308594 366.871094 284.84375 370.019531 293.015625 370.019531 C 310.238281 370.019531 316.488281 358.371094 316.488281 350.542969 L 316.488281 255.257812 C 317.09375 250.503906 319.21875 245.429688 320.703125 244.503906 C 321.945312 246.042969 323.160156 251.160156 323.195312 255.203125 L 323.199219 351.355469 C 323.15625 352.785156 323.226562 360.195312 328.941406 366.082031 C 331.714844 368.941406 336.792969 372.355469 345.222656 372.355469 C 353.75 372.355469 360.382812 369.980469 364.933594 365.300781 C 370.289062 359.785156 370.390625 353.355469 370.355469 352.394531 L 370.355469 254.703125 C 370.355469 254.5625 370.347656 254.375 370.347656 254.242188 C 370.195312 250.753906 371.070312 244.453125 373.417969 242.003906 C 373.945312 241.449219 374.675781 240.9375 376.441406 240.9375 C 378.085938 240.9375 380.609375 247.929688 380.796875 254.328125 C 380.8125 255.417969 382.082031 363.375 382.082031 376.570312 C 382.082031 386.636719 369.765625 406.917969 336.71875 418.507812 Z M 376.441406 221.820312 C 369.75 221.820312 363.898438 224.25 359.527344 228.855469 C 351.007812 237.847656 351.128906 252.195312 351.238281 254.910156 L 351.242188 352.667969 C 351.242188 352.652344 351.222656 351.972656 351.222656 351.972656 C 351.171875 352.027344 349.945312 353.230469 345.222656 353.230469 C 342.390625 353.230469 342.359375 352.628906 342.308594 351.640625 L 342.308594 255.203125 C 342.308594 240.316406 335.671875 225.292969 320.835938 225.292969 C 304.609375 225.292969 298.480469 243.175781 297.417969 253.742188 C 297.386719 254.0625 297.371094 254.382812 297.371094 254.703125 L 297.371094 349.984375 C 297.136719 350.304688 295.773438 350.902344 293.015625 350.902344 C 288.847656 350.902344 286.644531 348.957031 286.1875 348.105469 C 286.195312 347.921875 286.203125 347.742188 286.203125 347.554688 L 286.203125 253.730469 C 286.203125 253.367188 286.179688 253.003906 286.136719 252.648438 C 284.675781 239.765625 277.328125 226.769531 264.226562 226.769531 C 249.738281 226.769531 243.074219 241.667969 241.421875 250.46875 C 241.375 250.746094 241.332031 251.03125 241.304688 251.3125 C 240.996094 254.492188 233.8125 329.660156 237.824219 374.746094 C 240.988281 410.492188 268.167969 428.179688 287.136719 434.390625 L 287.136719 550.164062 C 287.136719 564.378906 295.503906 585.53125 318.539062 585.53125 C 326.84375 585.53125 334.050781 582.648438 339.398438 577.199219 C 349.476562 566.925781 349.476562 551.234375 349.445312 549.660156 L 349.445312 434.125 C 384.953125 419.605469 401.203125 394.585938 401.203125 376.570312 C 401.203125 363.261719 399.964844 258.554688 399.914062 254.003906 C 399.554688 237.980469 392.160156 221.820312 376.441406 221.820312 " fill-opacity="1" fill-rule="nonzero"/><path fill="#ffffff" d="M 511.257812 413.304688 C 507.875 414.867188 505.710938 418.257812 505.710938 421.984375 L 505.710938 556.0625 C 505.710938 556.328125 505.730469 556.6875 505.753906 556.953125 C 505.886719 558.554688 505.695312 563.734375 503.175781 566.472656 C 502.621094 567.074219 500.925781 568.910156 495.605469 568.910156 C 483.648438 568.910156 480.007812 560.222656 479.101562 557.15625 L 479.101562 421.964844 C 479.101562 418.238281 476.941406 414.855469 473.5625 413.292969 C 447.996094 401.429688 430.816406 368.300781 430.816406 330.859375 C 430.816406 282.824219 458.460938 243.742188 492.429688 243.742188 C 526.433594 243.742188 554.085938 282.824219 554.085938 330.859375 C 554.085938 368.34375 536.875 401.476562 511.257812 413.304688 Z M 492.429688 224.621094 C 447.917969 224.621094 411.699219 272.28125 411.699219 330.859375 C 411.699219 372.988281 430.867188 410.996094 459.980469 427.765625 L 459.980469 558.34375 C 459.980469 558.992188 460.050781 559.628906 460.175781 560.265625 C 462.144531 569.871094 472.085938 588.03125 495.605469 588.03125 C 507.066406 588.03125 513.789062 583.25 517.410156 579.234375 C 525.296875 570.5 525.039062 558.691406 524.828125 555.675781 L 524.828125 427.796875 C 553.996094 411.054688 573.210938 373.039062 573.210938 330.859375 C 573.210938 272.28125 536.972656 224.621094 492.429688 224.621094 " fill-opacity="1" fill-rule="nonzero"/></svg>