<svg xmlns="http://www.w3.org/2000/svg" xmlns:xlink="http://www.w3.org/1999/xlink" width="1080" zoomAndPan="magnify" viewBox="0 0 810 809.999993" height="1080" preserveAspectRatio="xMidYMid meet" version="1.0"><path fill="#ffffff" d="M 402.167969 486.636719 C 399.101562 486.636719 396.179688 485.421875 394.019531 483.265625 C 311.792969 401.113281 226.75 316.152344 226.75 229.503906 C 226.75 178.003906 268.664062 136.109375 320.183594 136.109375 C 356.210938 136.109375 386.539062 151.542969 402.28125 175.574219 C 417.734375 150.140625 446.15625 136.109375 484.074219 136.109375 C 535.621094 136.109375 577.554688 178.003906 577.554688 229.503906 C 577.554688 316.078125 492.640625 400.957031 410.53125 483.035156 L 410.289062 483.265625 C 408.140625 485.421875 405.210938 486.636719 402.167969 486.636719 Z M 320.183594 159.109375 C 281.371094 159.109375 249.78125 190.679688 249.78125 229.496094 C 249.78125 303.972656 325.871094 382.550781 402.144531 458.859375 C 478.394531 382.550781 554.519531 303.976562 554.519531 229.496094 C 554.519531 190.679688 522.914062 159.109375 484.074219 159.109375 C 455.9375 159.109375 420.847656 168.132812 413.492188 211.15625 C 412.523438 216.859375 407.445312 220.964844 401.675781 220.710938 C 395.890625 220.480469 391.179688 215.984375 390.691406 210.226562 C 387.738281 176.667969 352.996094 159.109375 320.183594 159.109375 Z M 320.183594 159.109375 " fill-opacity="1" fill-rule="nonzero"/><path fill="#ffffff" d="M 441.695312 320.226562 L 361.5625 320.226562 C 353.625 320.226562 347.1875 313.792969 347.1875 305.855469 C 347.1875 297.90625 353.625 291.488281 361.5625 291.488281 L 441.695312 291.488281 C 449.644531 291.488281 456.074219 297.914062 456.074219 305.855469 C 456.074219 313.792969 449.644531 320.226562 441.695312 320.226562 Z M 441.695312 320.226562 " fill-opacity="1" fill-rule="nonzero"/><path fill="#ffffff" d="M 401.621094 360.261719 C 393.671875 360.261719 387.242188 353.820312 387.242188 345.886719 L 387.242188 265.820312 C 387.242188 257.875 393.671875 251.441406 401.621094 251.441406 C 409.566406 251.441406 416.011719 257.875 416.011719 265.820312 L 416.011719 345.886719 C 416.011719 353.820312 409.566406 360.261719 401.621094 360.261719 Z M 401.621094 360.261719 " fill-opacity="1" fill-rule="nonzero"/><path fill="#ffffff" d="M 242.753906 605.019531 C 239.394531 605.019531 236.097656 603.558594 233.851562 600.816406 C 229.898438 596.007812 224.777344 589.898438 218.839844 582.816406 C 199.914062 560.238281 173.988281 529.316406 153.535156 501.976562 C 148.351562 495.101562 134.234375 468.957031 122.246094 439.722656 C 106.519531 401.398438 100.621094 373.179688 104.707031 355.832031 L 128.3125 255.78125 C 130.636719 245.964844 138.363281 239.621094 147.992188 239.621094 C 167.449219 239.621094 188.210938 264.789062 189.261719 306.910156 C 189.277344 307.769531 189.207031 308.625 189.035156 309.46875 L 188.730469 311.039062 C 182.484375 341.984375 179.347656 357.519531 181.519531 370.023438 C 182.078125 373.199219 183.015625 376.386719 184.378906 379.789062 C 189.105469 372.6875 196.71875 368.65625 205.550781 368.65625 C 219.734375 368.65625 236.113281 378.644531 254.203125 398.34375 C 262.109375 406.011719 271.90625 415.75 287.71875 433.964844 C 291.527344 438.355469 294.316406 441.414062 296.554688 443.859375 C 304.699219 452.789062 305.847656 454.605469 307.957031 466.140625 C 308.542969 469.367188 309.335938 473.777344 310.769531 480.171875 L 326.792969 551.890625 C 327.917969 556.921875 325.550781 562.085938 321.007812 564.523438 L 248.222656 603.660156 C 246.480469 604.570312 244.605469 605.019531 242.753906 605.019531 Z M 150.121094 263.578125 L 127.125 361.097656 C 120.347656 389.890625 163.113281 476.425781 171.953125 488.179688 C 192.0625 515.027344 217.738281 545.667969 236.5 568.042969 C 239.796875 571.984375 242.851562 575.621094 245.601562 578.914062 L 302.410156 548.375 L 288.285156 485.171875 C 286.757812 478.320312 285.898438 473.644531 285.296875 470.226562 C 284.839844 467.757812 284.375 465.203125 284.09375 464.664062 C 283.71875 463.941406 281.773438 461.816406 279.535156 459.34375 C 277.328125 456.929688 274.304688 453.628906 270.316406 449.023438 C 254.925781 431.316406 245.519531 421.980469 237.921875 414.613281 C 237.757812 414.453125 237.59375 414.285156 237.441406 414.113281 C 217.863281 392.734375 207.4375 391.652344 205.546875 391.652344 C 204.097656 391.652344 203.839844 392 203.414062 392.730469 C 201.25 396.523438 201.109375 408.042969 209.757812 423.027344 C 210.316406 423.730469 210.960938 424.523438 211.667969 425.390625 L 212.988281 426.953125 C 216.859375 431.515625 224.929688 441.015625 240.734375 460.054688 C 240.824219 460.175781 240.910156 460.292969 241.007812 460.410156 C 244.425781 464.890625 245.101562 469.332031 242.980469 473.617188 C 241.039062 477.539062 237.046875 480.027344 232.648438 480.027344 C 227.203125 480.027344 224.921875 477.339844 220.382812 471.984375 C 218.277344 469.507812 215.402344 466.085938 212.257812 462.304688 C 205.859375 454.617188 198.507812 445.703125 193.945312 440.101562 C 191.957031 437.761719 191.152344 436.78125 190.449219 435.648438 L 188.09375 431.980469 C 153.152344 377.429688 152.53125 373.917969 166.117188 306.496094 L 166.1875 306.230469 C 165.242188 279.488281 155.289062 266.9375 150.121094 263.578125 Z M 150.121094 263.578125 " fill-opacity="1" fill-rule="nonzero"/><path fill="#ffffff" d="M 269.484375 668.421875 C 268.378906 668.421875 267.265625 668.265625 266.179688 667.933594 C 263.257812 667.058594 260.800781 665.054688 259.351562 662.367188 L 226.867188 602.011719 C 225.417969 599.324219 225.085938 596.179688 225.972656 593.253906 C 226.867188 590.332031 228.855469 587.871094 231.5625 586.433594 L 326.394531 535.492188 C 331.980469 532.484375 338.980469 534.578125 341.984375 540.171875 L 374.46875 600.476562 C 375.914062 603.164062 376.242188 606.316406 375.363281 609.25 C 374.488281 612.167969 372.472656 614.617188 369.792969 616.070312 L 274.953125 667.050781 C 273.253906 667.957031 271.375 668.421875 269.484375 668.421875 Z M 252.605469 601.253906 L 274.179688 641.335938 L 348.742188 601.253906 L 327.167969 561.199219 Z M 252.605469 601.253906 " fill-opacity="1" fill-rule="nonzero"/><path fill="#ffffff" d="M 562.089844 610.273438 C 560.234375 610.273438 558.355469 609.828125 556.648438 608.902344 L 483.808594 569.761719 C 479.261719 567.320312 476.886719 562.15625 478.019531 557.121094 L 494.078125 485.410156 C 495.523438 478.976562 496.316406 474.542969 496.894531 471.316406 C 498.984375 459.796875 500.144531 457.972656 508.332031 449.039062 C 510.5625 446.597656 513.34375 443.5625 517.125 439.214844 C 532.945312 421.003906 542.734375 411.257812 550.65625 403.589844 C 568.738281 383.890625 585.117188 373.902344 599.300781 373.902344 C 608.121094 373.902344 615.734375 377.933594 620.449219 385.027344 C 621.824219 381.625 622.765625 378.4375 623.324219 375.253906 C 625.488281 362.765625 622.363281 347.226562 616.121094 316.285156 L 615.816406 314.722656 C 615.644531 313.875 615.570312 313.023438 615.582031 312.164062 C 616.640625 270.035156 637.394531 244.851562 656.855469 244.851562 C 666.480469 244.851562 674.195312 251.1875 676.488281 260.992188 L 700.097656 361.078125 C 709.945312 402.714844 658.671875 497.375 651.332031 507.210938 C 630.847656 534.570312 604.910156 565.496094 585.984375 588.074219 C 580.058594 595.148438 574.933594 601.261719 570.988281 606.0625 C 568.734375 608.804688 565.449219 610.273438 562.089844 610.273438 Z M 502.390625 553.640625 L 559.238281 584.179688 C 561.96875 580.894531 565.027344 577.25 568.324219 573.3125 C 587.085938 550.941406 612.777344 520.300781 632.875 493.453125 C 641.984375 481.226562 684.574219 395.527344 677.671875 366.367188 L 654.691406 268.816406 C 649.554688 272.191406 639.609375 284.75 638.632812 311.476562 L 638.699219 311.742188 C 652.292969 379.160156 651.664062 382.675781 616.6875 437.191406 L 614.328125 440.875 C 613.617188 442.027344 612.730469 443.089844 610.824219 445.347656 C 606.359375 450.867188 599.175781 459.585938 592.527344 467.578125 C 589.378906 471.359375 586.53125 474.773438 584.421875 477.246094 C 579.929688 482.558594 577.664062 485.21875 572.289062 485.273438 C 572.242188 485.273438 572.195312 485.273438 572.167969 485.273438 C 567.804688 485.273438 563.8125 482.816406 561.871094 478.910156 C 559.707031 474.617188 560.371094 470.15625 563.8125 465.65625 C 563.90625 465.539062 563.988281 465.421875 564.089844 465.300781 C 579.078125 447.230469 586.949219 437.933594 591.15625 432.941406 L 593.046875 430.695312 C 593.777344 429.789062 594.445312 428.96875 595.019531 428.253906 C 603.683594 413.273438 603.558594 401.761719 601.394531 397.976562 C 600.972656 397.25 600.707031 396.902344 599.277344 396.902344 C 597.394531 396.902344 586.960938 397.980469 567.382812 419.367188 C 567.230469 419.53125 567.074219 419.707031 566.902344 419.863281 C 559.292969 427.230469 549.890625 436.578125 534.5 454.285156 C 530.515625 458.855469 527.515625 462.148438 525.304688 464.550781 C 523.132812 466.917969 521.09375 469.148438 520.714844 469.871094 C 520.4375 470.390625 519.992188 472.925781 519.535156 475.382812 C 518.929688 478.8125 518.066406 483.519531 516.53125 490.429688 Z M 502.390625 553.640625 " fill-opacity="1" fill-rule="nonzero"/><path fill="#ffffff" d="M 535.359375 673.632812 C 533.46875 673.632812 531.59375 673.171875 529.890625 672.261719 L 435.054688 621.316406 C 432.363281 619.875 430.355469 617.421875 429.488281 614.496094 C 428.601562 611.566406 428.929688 608.421875 430.363281 605.730469 L 462.863281 545.421875 C 465.871094 539.820312 472.855469 537.734375 478.441406 540.734375 L 573.261719 591.683594 C 578.851562 594.691406 580.949219 601.671875 577.9375 607.261719 L 545.5 667.570312 C 544.050781 670.257812 541.59375 672.261719 538.671875 673.144531 C 537.582031 673.46875 536.46875 673.632812 535.359375 673.632812 Z M 456.109375 606.507812 L 530.65625 646.554688 L 552.199219 606.507812 L 477.671875 566.460938 Z M 456.109375 606.507812 " fill-opacity="1" fill-rule="nonzero"/></svg>