<svg xmlns="http://www.w3.org/2000/svg" xmlns:xlink="http://www.w3.org/1999/xlink" width="1080" zoomAndPan="magnify" viewBox="0 0 810 809.999993" height="1080" preserveAspectRatio="xMidYMid meet" version="1.0"><defs><clipPath id="4801486a65"><path d="M 93.390625 254 L 716.640625 254 L 716.640625 710.84375 L 93.390625 710.84375 Z M 93.390625 254 " clip-rule="nonzero"/></clipPath><clipPath id="3d2359167b"><path d="M 394 98.84375 L 416 98.84375 L 416 141 L 394 141 Z M 394 98.84375 " clip-rule="nonzero"/></clipPath></defs><g clip-path="url(#4801486a65)"><path fill="#ffffff" d="M 114.414062 690.097656 L 114.414062 669.351562 L 695.617188 669.351562 L 695.617188 690.097656 Z M 114.414062 337.421875 L 145.550781 337.421875 L 145.550781 593.296875 C 145.550781 599.050781 150.210938 603.671875 155.929688 603.671875 C 252.578125 603.671875 324.945312 629.804688 364.636719 648.605469 L 114.414062 648.605469 Z M 654.101562 603.671875 C 659.820312 603.671875 664.480469 599.050781 664.480469 593.296875 L 664.480469 337.421875 L 695.617188 337.421875 L 695.617188 648.605469 L 445.273438 648.605469 C 484.882812 629.804688 557.128906 603.671875 654.101562 603.671875 Z M 705.996094 316.675781 L 664.480469 316.675781 L 664.480469 264.808594 C 664.480469 259.097656 659.820312 254.4375 654.101562 254.4375 C 625.519531 254.4375 597.0625 256.625 569.453125 260.960938 L 572.695312 281.464844 C 595.886719 277.816406 619.722656 275.75 643.722656 275.304688 L 643.722656 583.046875 C 527.9375 585.152344 448.03125 622.148438 415.394531 640.460938 L 415.394531 607.117188 L 394.636719 607.117188 L 394.636719 640.460938 C 362 622.148438 282.09375 585.152344 166.308594 583.046875 L 166.308594 275.304688 C 190.308594 275.75 214.148438 277.816406 237.335938 281.464844 L 240.578125 261 C 213.011719 256.625 184.511719 254.4375 155.929688 254.4375 C 150.210938 254.4375 145.550781 259.097656 145.550781 264.808594 L 145.550781 316.675781 L 104.035156 316.675781 C 98.320312 316.675781 93.65625 321.335938 93.65625 327.046875 L 93.65625 700.472656 C 93.65625 706.183594 98.320312 710.84375 104.035156 710.84375 L 705.996094 710.84375 C 711.710938 710.84375 716.375 706.183594 716.375 700.472656 L 716.375 327.046875 C 716.375 321.335938 711.710938 316.675781 705.996094 316.675781 " fill-opacity="1" fill-rule="nonzero"/></g><path fill="#ffffff" d="M 405.015625 405.734375 L 357.421875 358.167969 L 373.878906 341.714844 L 397.679688 365.5 C 401.730469 369.550781 408.300781 369.550781 412.355469 365.5 L 436.152344 341.714844 L 452.613281 358.167969 Z M 494.976562 216.148438 C 523.558594 241.753906 539.9375 278.382812 539.9375 316.675781 C 539.9375 366.148438 512.816406 411.570312 469.113281 435.191406 C 455.207031 442.730469 446.53125 456.871094 446.53125 472.105469 L 415.394531 472.144531 L 415.394531 424.699219 L 474.625 365.5 C 478.679688 361.449219 478.679688 354.882812 474.625 350.832031 L 443.488281 319.714844 C 439.4375 315.660156 432.867188 315.660156 428.8125 319.714844 L 405.015625 343.5 L 381.21875 319.714844 C 377.164062 315.660156 370.597656 315.660156 366.542969 319.714844 L 335.40625 350.832031 C 331.351562 354.882812 331.351562 361.449219 335.40625 365.5 L 394.636719 424.699219 L 394.636719 472.1875 L 363.5 472.269531 L 363.5 472.105469 C 363.5 456.871094 354.824219 442.730469 340.878906 435.191406 C 291.09375 408.246094 263.808594 354.398438 271.351562 297.996094 C 279.417969 237.863281 329.121094 189.40625 389.527344 182.679688 C 428.53125 178.34375 465.992188 190.253906 494.976562 216.148438 Z M 363.5 565.625 L 363.5 534.503906 L 446.53125 534.503906 L 446.53125 565.625 Z M 446.53125 493.015625 L 446.53125 513.757812 L 363.5 513.757812 L 363.5 493.015625 Z M 250.796875 295.238281 C 242.039062 360.234375 273.539062 422.347656 331.027344 453.425781 C 338.242188 457.316406 342.746094 464.488281 342.746094 472.105469 L 342.746094 575.996094 C 342.746094 581.710938 347.40625 586.371094 353.121094 586.371094 L 456.910156 586.371094 C 462.625 586.371094 467.289062 581.710938 467.289062 575.996094 L 467.289062 472.105469 C 467.289062 464.488281 471.789062 457.316406 479.003906 453.425781 C 529.398438 426.199219 560.695312 373.765625 560.695312 316.675781 C 560.695312 272.46875 541.761719 230.207031 508.800781 200.710938 C 475.394531 170.804688 432.300781 157.109375 387.21875 162.054688 C 317.488281 169.792969 260.078125 225.789062 250.796875 295.238281 " fill-opacity="1" fill-rule="nonzero"/><g clip-path="url(#3d2359167b)"><path fill="#ffffff" d="M 415.394531 98.84375 L 394.636719 98.84375 L 394.636719 140.335938 L 415.394531 140.335938 L 415.394531 98.84375 " fill-opacity="1" fill-rule="nonzero"/></g><path fill="#ffffff" d="M 563.734375 153.746094 L 532.601562 184.867188 L 547.277344 199.535156 L 578.410156 168.414062 L 563.734375 153.746094 " fill-opacity="1" fill-rule="nonzero"/><path fill="#ffffff" d="M 231.621094 168.414062 L 262.753906 199.535156 L 277.433594 184.867188 L 246.296875 153.746094 L 231.621094 168.414062 " fill-opacity="1" fill-rule="nonzero"/><path fill="#ffffff" d="M 622.96875 337.421875 L 581.453125 337.421875 L 581.453125 316.675781 L 622.96875 316.675781 L 622.96875 337.421875 " fill-opacity="1" fill-rule="nonzero"/><path fill="#ffffff" d="M 228.578125 337.460938 L 187.066406 337.421875 L 187.066406 316.675781 L 228.578125 316.714844 L 228.578125 337.460938 " fill-opacity="1" fill-rule="nonzero"/></svg>