<svg xmlns="http://www.w3.org/2000/svg" xmlns:xlink="http://www.w3.org/1999/xlink" width="1080" zoomAndPan="magnify" viewBox="0 0 810 809.999993" height="1080" preserveAspectRatio="xMidYMid meet" version="1.0"><path fill="#ffffff" d="M 498.109375 479.988281 C 478.5625 479.988281 462.664062 495.898438 462.664062 515.453125 C 462.664062 535.015625 478.5625 550.933594 498.109375 550.933594 C 517.648438 550.933594 533.542969 535.015625 533.542969 515.453125 C 533.542969 495.898438 517.648438 479.988281 498.109375 479.988281 Z M 498.109375 541.769531 C 483.613281 541.769531 471.816406 529.964844 471.816406 515.453125 C 471.816406 500.949219 483.613281 489.148438 498.109375 489.148438 C 512.601562 489.148438 524.390625 500.949219 524.390625 515.453125 C 524.390625 529.964844 512.601562 541.769531 498.109375 541.769531 Z M 498.109375 541.769531 " fill-opacity="1" fill-rule="nonzero"/><path fill="#ffffff" d="M 693.714844 446.101562 L 600.652344 133.300781 C 600.296875 132.105469 599.464844 131.105469 598.355469 130.535156 C 597.246094 129.960938 595.953125 129.871094 594.773438 130.277344 L 413.597656 192.804688 C 411.28125 193.605469 410.003906 196.089844 410.703125 198.441406 L 412.949219 206.003906 C 386.113281 211.3125 360.828125 221.398438 337.671875 236.050781 C 283.3125 201.660156 217.824219 192.882812 142.96875 209.972656 C 140.886719 210.449219 139.40625 212.300781 139.40625 214.4375 L 139.40625 540.6875 C 130.683594 570.757812 122.9375 612.46875 117.960938 642.273438 C 115.75 655.535156 118.75 668.917969 126.410156 679.953125 C 134.074219 690.996094 145.558594 698.476562 158.75 701.015625 C 161.917969 701.628906 165.15625 701.9375 168.378906 701.9375 C 182.390625 701.9375 195.980469 696.058594 205.664062 685.808594 C 225.054688 665.246094 263.097656 630.75 299.988281 630.75 L 447 630.75 C 483.890625 630.75 521.933594 665.246094 541.324219 685.808594 C 551.167969 696.238281 564.585938 701.949219 578.523438 701.945312 C 581.746094 701.945312 585 701.640625 588.238281 701.015625 C 612.28125 696.390625 629.730469 675.257812 629.730469 650.769531 C 629.730469 647.925781 629.496094 645.066406 629.027344 642.273438 C 623.34375 608.230469 614.511719 561.351562 604.710938 531.347656 C 600.164062 517.414062 593.84375 502.703125 586.507812 488.851562 C 596.507812 492.285156 607.425781 494.074219 618.699219 494.074219 C 654.964844 494.074219 686.523438 474.957031 693.742188 448.621094 C 693.96875 447.792969 693.960938 446.917969 693.714844 446.101562 Z M 148.5625 514.304688 L 148.5625 218.113281 C 219.605469 202.628906 281.652344 211.355469 333.089844 244.011719 L 333.089844 437.488281 L 323.046875 437.488281 C 317.457031 430.503906 296.285156 408.171875 254.027344 408.171875 C 231.292969 408.171875 207.574219 422.773438 185.4375 450.394531 C 171.238281 468.117188 158.046875 491.121094 148.5625 514.304688 Z M 220.820312 520.445312 C 219.496094 521.773438 217.734375 522.507812 215.847656 522.507812 L 195.1875 522.507812 C 191.300781 522.507812 188.136719 519.34375 188.136719 515.453125 C 188.136719 513.574219 188.871094 511.804688 190.214844 510.460938 C 191.535156 509.132812 193.300781 508.402344 195.183594 508.402344 L 215.847656 508.402344 C 219.734375 508.402344 222.894531 511.566406 222.894531 515.453125 C 222.898438 517.332031 222.160156 519.101562 220.820312 520.445312 Z M 255.929688 569.199219 C 255.929688 573.09375 252.765625 576.261719 248.878906 576.261719 C 247.003906 576.261719 245.234375 575.527344 243.902344 574.191406 C 242.566406 572.855469 241.832031 571.082031 241.832031 569.199219 L 241.832031 548.515625 C 241.832031 544.625 244.996094 541.460938 248.878906 541.460938 C 250.757812 541.460938 252.527344 542.199219 253.867188 543.539062 C 255.195312 544.863281 255.929688 546.628906 255.929688 548.515625 Z M 255.929688 482.390625 C 255.929688 486.28125 252.765625 489.445312 248.878906 489.445312 C 247.003906 489.445312 245.238281 488.710938 243.894531 487.367188 C 242.566406 486.042969 241.832031 484.277344 241.832031 482.390625 L 241.832031 461.707031 C 241.832031 457.820312 244.996094 454.65625 248.878906 454.65625 C 250.757812 454.65625 252.523438 455.390625 253.867188 456.734375 C 255.195312 458.058594 255.929688 459.824219 255.929688 461.707031 Z M 281.914062 522.507812 C 278.027344 522.507812 274.863281 519.34375 274.863281 515.453125 C 274.863281 513.574219 275.597656 511.804688 276.941406 510.460938 C 278.261719 509.132812 280.027344 508.398438 281.914062 508.398438 L 302.574219 508.398438 C 306.46875 508.398438 309.636719 511.566406 309.636719 515.453125 C 309.636719 517.332031 308.898438 519.101562 307.566406 520.4375 C 306.230469 521.773438 304.460938 522.507812 302.574219 522.507812 Z M 320.765625 600.253906 C 311.65625 600.253906 304.246094 592.84375 304.246094 583.730469 C 304.246094 574.609375 311.65625 567.195312 320.765625 567.195312 C 329.871094 567.195312 337.277344 574.613281 337.277344 583.730469 C 337.277344 592.84375 329.871094 600.253906 320.765625 600.253906 Z M 342.242188 244.015625 C 364.777344 229.707031 389.417969 219.898438 415.585938 214.832031 L 428.453125 258.070312 C 406.417969 261.296875 385.625 269.183594 366.59375 281.554688 C 364.472656 282.929688 363.871094 285.769531 365.246094 287.890625 C 366.125 289.242188 367.589844 289.976562 369.089844 289.976562 C 369.945312 289.976562 370.808594 289.738281 371.578125 289.234375 C 389.871094 277.34375 409.886719 269.867188 431.097656 266.957031 L 442.085938 303.898438 C 414.875 305.539062 389.496094 313.890625 366.59375 328.769531 C 364.472656 330.148438 363.871094 332.984375 365.246094 335.105469 C 366.121094 336.457031 367.589844 337.191406 369.085938 337.191406 C 369.941406 337.191406 370.804688 336.953125 371.574219 336.453125 C 393.730469 322.0625 418.351562 314.167969 444.773438 312.9375 L 457.742188 356.523438 C 453.664062 356.035156 449.535156 355.789062 445.398438 355.789062 C 403.160156 355.789062 368.796875 381.34375 368.796875 412.75 C 368.796875 421.425781 371.378906 429.832031 376.328125 437.488281 L 342.242188 437.488281 Z M 388.800781 553.507812 C 387.480469 554.835938 385.714844 555.570312 383.832031 555.570312 L 363.15625 555.570312 C 359.269531 555.570312 356.109375 552.40625 356.109375 548.515625 C 356.109375 546.632812 356.839844 544.863281 358.179688 543.53125 C 359.511719 542.195312 361.28125 541.460938 363.15625 541.460938 L 383.832031 541.460938 C 387.71875 541.460938 390.878906 544.625 390.878906 548.515625 C 390.878906 550.402344 390.148438 552.167969 388.800781 553.507812 Z M 388.800781 506.128906 C 387.480469 507.460938 385.714844 508.191406 383.832031 508.191406 L 363.15625 508.191406 C 359.269531 508.191406 356.109375 505.027344 356.109375 501.140625 C 356.109375 499.253906 356.84375 497.480469 358.179688 496.144531 C 359.511719 494.808594 361.28125 494.074219 363.15625 494.074219 L 383.832031 494.074219 C 387.71875 494.074219 390.878906 497.242188 390.878906 501.140625 C 390.878906 503.015625 390.144531 504.789062 388.800781 506.128906 Z M 426.222656 600.253906 C 417.117188 600.253906 409.714844 592.84375 409.714844 583.730469 C 409.714844 574.609375 417.117188 567.195312 426.222656 567.195312 C 435.332031 567.195312 442.746094 574.613281 442.746094 583.730469 C 442.742188 592.84375 435.332031 600.253906 426.222656 600.253906 Z M 498.109375 564.421875 C 471.132812 564.421875 449.1875 542.457031 449.1875 515.453125 C 449.1875 488.453125 471.132812 466.484375 498.109375 466.484375 C 525.085938 466.484375 547.03125 488.453125 547.03125 515.453125 C 547.03125 542.457031 525.085938 564.421875 498.109375 564.421875 Z M 506.105469 311.148438 C 499.460938 309.355469 492.765625 307.867188 486.175781 306.695312 L 474.351562 266.945312 C 483.902344 268.140625 493.753906 270.089844 503.726562 272.777344 C 504.125 272.886719 504.523438 272.9375 504.917969 272.9375 C 506.9375 272.9375 508.785156 271.589844 509.335938 269.546875 C 509.992188 267.105469 508.546875 264.589844 506.105469 263.933594 C 494.34375 260.757812 482.71875 258.574219 471.511719 257.398438 L 468.894531 248.601562 L 526.769531 228.628906 L 526.769531 418.488281 C 523.867188 416.734375 520.957031 415.195312 518.066406 413.890625 L 489.113281 316.570312 C 493.964844 317.542969 498.855469 318.683594 503.726562 319.996094 C 504.125 320.101562 504.523438 320.15625 504.917969 320.15625 C 506.9375 320.15625 508.785156 318.808594 509.335938 316.765625 C 509.992188 314.320312 508.546875 311.808594 506.105469 311.148438 Z M 535.921875 424.742188 L 535.921875 225.46875 L 580.253906 210.171875 L 631.042969 380.875 C 626.976562 380.382812 622.847656 380.136719 618.699219 380.136719 C 579.554688 380.136719 547.195312 402.09375 542.664062 430.316406 C 540.429688 428.332031 538.175781 426.46875 535.921875 424.742188 Z M 618.699219 484.910156 C 604.332031 484.910156 590.671875 481.738281 579.097656 475.746094 C 570.429688 461.367188 561.085938 448.914062 551.292969 438.675781 C 551.265625 438.144531 551.253906 437.621094 551.253906 437.109375 C 551.253906 410.746094 581.511719 389.300781 618.699219 389.300781 C 624.777344 389.300781 630.804688 389.878906 636.617188 391.023438 C 638.191406 391.332031 639.808594 390.796875 640.886719 389.609375 C 641.964844 388.421875 642.34375 386.757812 641.886719 385.222656 L 587.664062 202.972656 C 587.308594 201.777344 586.480469 200.777344 585.371094 200.207031 C 584.261719 199.636719 582.964844 199.542969 581.789062 199.949219 L 461.765625 241.371094 C 459.449219 242.171875 458.171875 244.65625 458.871094 247.011719 L 507.378906 410.078125 C 502.539062 408.8125 497.714844 408.171875 492.960938 408.171875 C 450.691406 408.171875 429.527344 430.503906 423.9375 437.488281 L 387.742188 437.488281 C 381.328125 430.027344 377.949219 421.511719 377.949219 412.753906 C 377.949219 386.394531 408.207031 364.953125 445.398438 364.953125 C 451.453125 364.953125 457.484375 365.53125 463.320312 366.667969 C 464.898438 366.96875 466.511719 366.4375 467.585938 365.246094 C 468.660156 364.0625 469.039062 362.398438 468.582031 360.863281 L 423.183594 208.265625 L 418.792969 209.574219 L 418.792969 209.570312 L 423.171875 208.265625 L 420.726562 200.035156 L 593.242188 140.5 L 684.558594 447.417969 C 677.75 469.21875 650.332031 484.910156 618.699219 484.910156 Z M 618.699219 484.910156 " fill-opacity="1" fill-rule="nonzero"/><path fill="#ffffff" d="M 171.601562 272.777344 C 221.722656 259.285156 266.183594 264.820312 303.753906 289.238281 C 304.523438 289.738281 305.390625 289.976562 306.242188 289.976562 C 307.742188 289.976562 309.210938 289.242188 310.085938 287.890625 C 311.460938 285.769531 310.859375 282.933594 308.738281 281.554688 C 268.894531 255.660156 221.957031 249.730469 169.222656 263.933594 C 166.785156 264.589844 165.335938 267.105469 165.992188 269.546875 C 166.648438 271.988281 169.160156 273.4375 171.601562 272.777344 Z M 171.601562 272.777344 " fill-opacity="1" fill-rule="nonzero"/><path fill="#ffffff" d="M 171.601562 319.996094 C 221.722656 306.5 266.183594 312.035156 303.753906 336.453125 C 304.523438 336.953125 305.390625 337.191406 306.242188 337.191406 C 307.742188 337.191406 309.210938 336.457031 310.085938 335.109375 C 311.460938 332.984375 310.859375 330.148438 308.738281 328.769531 C 268.894531 302.875 221.957031 296.949219 169.222656 311.148438 C 166.785156 311.804688 165.335938 314.320312 165.992188 316.761719 C 166.648438 319.203125 169.160156 320.652344 171.601562 319.996094 Z M 171.601562 319.996094 " fill-opacity="1" fill-rule="nonzero"/><path fill="#ffffff" d="M 303.753906 383.667969 C 304.523438 384.171875 305.390625 384.410156 306.242188 384.410156 C 307.742188 384.410156 309.210938 383.675781 310.085938 382.324219 C 311.460938 380.199219 310.859375 377.367188 308.738281 375.988281 C 268.894531 350.09375 221.957031 344.167969 169.222656 358.367188 C 166.785156 359.023438 165.335938 361.535156 165.992188 363.976562 C 166.648438 366.417969 169.160156 367.867188 171.601562 367.210938 C 221.722656 353.71875 266.183594 359.253906 303.753906 383.667969 Z M 303.753906 383.667969 " fill-opacity="1" fill-rule="nonzero"/></svg>