<svg xmlns="http://www.w3.org/2000/svg" xmlns:xlink="http://www.w3.org/1999/xlink" width="1080" zoomAndPan="magnify" viewBox="0 0 810 809.999993" height="1080" preserveAspectRatio="xMidYMid meet" version="1.0"><defs><clipPath id="84647bc818"><path d="M 47.375 47.375 L 762.875 47.375 L 762.875 762.875 L 47.375 762.875 Z M 47.375 47.375 " clip-rule="nonzero"/></clipPath><clipPath id="5dc75c23e6"><path d="M 202 306 L 762.875 306 L 762.875 755 L 202 755 Z M 202 306 " clip-rule="nonzero"/></clipPath></defs><g clip-path="url(#84647bc818)"><path fill="#fdc93b" d="M 763.074219 405.269531 C 763.074219 562.621094 661.542969 696.226562 520.398438 744.117188 C 508.640625 748.140625 496.566406 751.542969 484.296875 754.320312 C 480.078125 755.28125 475.824219 756.160156 471.546875 756.953125 C 471.179688 757.011719 470.808594 757.09375 470.441406 757.152344 C 449.304688 761.0625 427.511719 763.074219 405.269531 763.074219 C 391.296875 763.074219 377.496094 762.28125 363.953125 760.722656 C 185.800781 740.234375 47.460938 588.917969 47.460938 405.269531 C 47.460938 207.648438 207.648438 47.460938 405.269531 47.460938 C 552.335938 47.460938 678.660156 136.15625 733.660156 262.988281 C 734.425781 264.773438 735.191406 266.53125 735.929688 268.316406 C 743.183594 285.855469 749.132812 304.132812 753.554688 322.976562 C 755.707031 332.074219 757.492188 341.285156 758.910156 350.636719 C 759.417969 354.007812 759.902344 357.40625 760.324219 360.835938 C 762.140625 375.371094 763.074219 390.222656 763.074219 405.269531 Z M 763.074219 405.269531 " fill-opacity="1" fill-rule="nonzero"/></g><g clip-path="url(#5dc75c23e6)"><path fill="#f7a739" d="M 763.074219 405.269531 C 763.074219 562.621094 661.542969 696.226562 520.398438 744.117188 C 508.640625 748.140625 496.566406 751.542969 484.296875 754.320312 L 202.492188 557.464844 L 674.410156 306.742188 L 760.324219 360.835938 C 762.140625 375.371094 763.074219 390.222656 763.074219 405.269531 Z M 763.074219 405.269531 " fill-opacity="1" fill-rule="nonzero"/></g><path fill="#3c3f7e" d="M 202.492188 312.238281 L 202.492188 557.464844 C 202.492188 568.316406 289.964844 577.101562 397.84375 577.101562 C 505.722656 577.101562 593.195312 568.316406 593.195312 557.464844 L 593.195312 312.238281 Z M 202.492188 312.238281 " fill-opacity="1" fill-rule="nonzero"/><path fill="#5560a9" d="M 675.457031 332.640625 L 402.40625 429.550781 C 399.457031 430.601562 396.257812 430.601562 393.339844 429.550781 L 120.285156 332.640625 C 107.734375 328.191406 108.441406 310.171875 121.335938 306.742188 L 394.386719 233.886719 C 396.683594 233.265625 399.089844 233.265625 401.386719 233.886719 L 674.4375 306.742188 C 687.273438 310.171875 688.011719 328.164062 675.457031 332.640625 Z M 675.457031 332.640625 " fill-opacity="1" fill-rule="nonzero"/><path fill="#e43626" d="M 594.328125 316.347656 C 615.214844 313.171875 637.089844 320.003906 650.632812 336.75 C 665.792969 355.480469 658.910156 381.125 654.742188 402.6875 C 646.582031 445.050781 647.773438 485.742188 664.207031 526.09375 C 666.25 531.082031 674.464844 528.902344 672.398438 523.828125 C 661.574219 497.21875 656.246094 468.996094 657.859375 440.234375 C 659.417969 412.351562 671.207031 384.183594 667.949219 356.074219 C 663.839844 320.484375 623.773438 303.339844 592.035156 308.15625 C 586.679688 308.953125 588.972656 317.140625 594.328125 316.347656 Z M 594.328125 316.347656 " fill-opacity="1" fill-rule="nonzero"/><path fill="#e43626" d="M 653.863281 564.40625 C 654.601562 562.960938 655.933594 558.425781 657.152344 557.351562 C 657.832031 558.765625 657.972656 563.472656 658.285156 565.03125 C 660.296875 565.226562 667.917969 565.339844 669.707031 565.3125 C 669.675781 563.753906 669.476562 559.503906 669.449219 557.945312 C 670.839844 559.449219 672.398438 563.667969 673.785156 565.171875 C 678.261719 564.804688 682.769531 564.066406 687.1875 563.046875 C 687.132812 562.648438 685.546875 554.660156 685.488281 554.601562 C 685.96875 554.855469 689.03125 560.777344 689.683594 562.421875 C 692.941406 561.574219 696.171875 560.523438 699.316406 559.335938 C 695.320312 550.125 691.636719 540.773438 686.652344 531.988281 C 683.761719 526.917969 680.726562 521.84375 676.902344 517.425781 C 673.585938 513.597656 668.542969 508.527344 663.019531 508.953125 C 659.476562 509.207031 656.640625 511.957031 654.6875 514.957031 C 654.628906 515.070312 654.546875 515.1875 654.488281 515.269531 C 650.210938 522.070312 648.933594 530.261719 647.175781 537.941406 C 646.78125 539.667969 644.089844 555 643.070312 561.6875 C 646.496094 562.875 650.125 563.78125 653.863281 564.40625 Z M 653.863281 564.40625 " fill-opacity="1" fill-rule="nonzero"/></svg>