<svg xmlns="http://www.w3.org/2000/svg" xmlns:xlink="http://www.w3.org/1999/xlink" width="1080" zoomAndPan="magnify" viewBox="0 0 810 809.999993" height="1080" preserveAspectRatio="xMidYMid meet" version="1.0"><defs><clipPath id="e17be23303"><path d="M 58.378906 58.378906 L 751.378906 58.378906 L 751.378906 751.378906 L 58.378906 751.378906 Z M 58.378906 58.378906 " clip-rule="nonzero"/></clipPath></defs><g clip-path="url(#e17be23303)"><path fill="#ee2737" d="M 404.878906 58.378906 C 596.21875 58.378906 751.378906 213.488281 751.378906 404.878906 C 751.378906 596.21875 596.269531 751.378906 404.878906 751.378906 C 213.488281 751.378906 58.378906 596.21875 58.378906 404.878906 C 58.378906 213.488281 213.488281 58.378906 404.878906 58.378906 Z M 404.878906 58.378906 " fill-opacity="1" fill-rule="nonzero"/></g><path fill="#ffffff" d="M 389.710938 285.195312 C 389.355469 282.472656 388.449219 279.855469 386.988281 277.484375 C 385.578125 275.117188 383.613281 273.050781 381.34375 271.386719 C 379.078125 269.726562 376.457031 268.566406 373.683594 267.859375 C 370.914062 267.203125 368.039062 267.054688 365.167969 267.457031 C 359.472656 268.617188 354.433594 271.890625 351.210938 276.527344 C 347.933594 281.164062 346.722656 286.808594 347.78125 292.300781 C 351.863281 314.320312 353.828125 336.644531 353.679688 359.019531 C 353.679688 360.835938 353.324219 362.597656 352.570312 364.3125 C 351.863281 365.976562 350.804688 367.488281 349.445312 368.796875 C 348.085938 370.054688 346.523438 371.113281 344.757812 371.820312 C 342.996094 372.527344 341.132812 372.878906 339.214844 372.878906 C 337.300781 372.878906 335.4375 372.527344 333.671875 371.820312 C 331.910156 371.113281 330.347656 370.105469 328.988281 368.847656 C 327.625 367.585938 326.566406 366.074219 325.863281 364.414062 C 325.105469 362.75 324.753906 360.933594 324.753906 359.171875 L 324.601562 276.828125 C 324.855469 271.691406 323.191406 266.699219 319.964844 262.570312 C 316.742188 258.488281 312.15625 255.5625 306.914062 254.355469 C 303.738281 253.902344 300.515625 254.101562 297.492188 255.011719 C 294.46875 255.917969 291.59375 257.378906 289.226562 259.445312 C 286.859375 261.460938 284.992188 263.980469 283.734375 266.800781 C 282.472656 269.625 281.917969 272.648438 282.070312 275.671875 L 282.222656 359.222656 C 282.273438 363 280.8125 366.679688 278.039062 369.402344 C 275.316406 372.121094 271.539062 373.734375 267.558594 373.886719 C 265.59375 373.835938 263.628906 373.433594 261.8125 372.625 C 260 371.871094 258.386719 370.761719 257.027344 369.351562 C 255.664062 367.992188 254.605469 366.378906 253.953125 364.5625 C 253.246094 362.800781 252.945312 360.933594 253.042969 359.019531 C 252.945312 336.695312 254.910156 314.371094 258.941406 292.351562 C 260 286.859375 258.789062 281.164062 255.515625 276.527344 C 252.289062 271.890625 247.25 268.617188 241.503906 267.457031 C 238.683594 267.003906 235.761719 267.105469 232.988281 267.757812 C 230.214844 268.414062 227.546875 269.625 225.277344 271.238281 C 223.011719 272.847656 221.046875 274.964844 219.632812 277.382812 C 218.222656 279.753906 217.316406 282.421875 217.015625 285.144531 C 211.722656 316.941406 209.503906 349.144531 210.414062 381.34375 C 210.816406 413.394531 227.847656 443.125 255.867188 460.664062 C 268.414062 468.070312 276.375 480.820312 277.183594 494.929688 L 279.5 544.164062 C 279.703125 556.660156 290.132812 566.738281 303.183594 567.140625 C 309.484375 566.941406 315.429688 564.472656 319.867188 560.1875 C 324.300781 555.90625 326.820312 550.210938 326.871094 544.214844 L 329.136719 496.644531 C 330.042969 482.582031 338.257812 469.832031 351.007812 462.777344 C 364.3125 454.816406 375.398438 443.832031 383.207031 430.828125 C 391.019531 417.828125 395.355469 403.164062 395.859375 388.199219 C 397.519531 353.828125 395.402344 319.261719 389.710938 285.195312 Z M 515.289062 254.050781 C 459.199219 254.050781 431.132812 335.234375 431.132812 388.851562 C 431.535156 416.570312 446.046875 442.269531 470.035156 457.6875 C 481.171875 464.695312 488.125 476.285156 488.984375 488.984375 L 491.605469 544.214844 C 491.605469 550.210938 494.074219 555.90625 498.507812 560.136719 C 502.941406 564.371094 508.9375 566.738281 515.1875 566.738281 C 521.4375 566.738281 527.484375 564.371094 531.867188 560.136719 C 536.300781 555.90625 538.769531 550.210938 538.769531 544.214844 L 541.441406 488.984375 C 541.84375 482.734375 543.761719 476.636719 547.035156 471.195312 C 550.3125 465.753906 554.898438 461.117188 560.390625 457.6875 C 572.230469 450.078125 581.90625 439.851562 588.710938 427.855469 C 595.460938 415.863281 599.089844 402.507812 599.292969 388.902344 C 599.394531 335.234375 571.375 254.050781 515.289062 254.050781 Z M 515.289062 254.050781 " fill-opacity="1" fill-rule="nonzero"/></svg>