<svg xmlns="http://www.w3.org/2000/svg" xmlns:xlink="http://www.w3.org/1999/xlink" width="1080" zoomAndPan="magnify" viewBox="0 0 810 809.999993" height="1080" preserveAspectRatio="xMidYMid meet" version="1.0"><defs><clipPath id="064f992e56"><path d="M 85 136 L 725 136 L 725 683.976562 L 85 683.976562 Z M 85 136 " clip-rule="nonzero"/></clipPath></defs><g clip-path="url(#064f992e56)"><path fill="#d76b73" d="M 694.925781 205.363281 C 648.539062 132.242188 551.800781 126.359375 491.355469 147.070312 C 444.457031 163.175781 410.71875 207.917969 404.839844 215.589844 C 398.960938 207.917969 366.503906 164.070312 319.605469 148.09375 C 259.160156 127.382812 161.144531 132.242188 114.757812 205.363281 C 96.355469 234.378906 38.464844 328.210938 163.957031 473.175781 C 163.957031 473.175781 282.671875 610.34375 392.316406 676.6875 C 397.300781 679.628906 403.691406 683.59375 404.203125 683.335938 C 404.714844 683.59375 411.742188 679.757812 416.726562 676.6875 C 526.371094 610.34375 645.726562 473.175781 645.726562 473.175781 C 771.214844 328.210938 713.328125 234.378906 694.925781 205.363281 Z M 694.925781 205.363281 " fill-opacity="1" fill-rule="nonzero"/></g><path fill="#ffffff" d="M 384.777344 546.808594 C 380.433594 546.808594 376.472656 544.125 374.9375 539.90625 L 299.925781 339.589844 L 271.554688 430.734375 C 270.148438 435.082031 266.0625 438.40625 261.460938 438.40625 L 180.953125 438.40625 C 175.074219 438.40625 170.347656 433.417969 170.347656 427.539062 C 170.347656 421.660156 175.074219 416.671875 180.953125 416.671875 L 253.664062 416.671875 L 288.933594 303.796875 C 290.339844 299.449219 294.175781 296.507812 298.773438 296.378906 C 303.375 296.253906 307.335938 299.066406 309 303.285156 L 383.117188 501.171875 L 422.09375 351.605469 C 423.242188 347.257812 426.949219 344.191406 431.292969 343.808594 C 435.640625 343.425781 439.855469 345.726562 441.773438 349.816406 L 472.824219 415.140625 L 506.945312 278.226562 C 508.097656 273.753906 512.058594 270.429688 516.65625 270.300781 C 521.257812 270.046875 525.601562 272.988281 527.136719 277.332031 L 552.183594 348.539062 L 649.175781 348.792969 C 655.054688 348.792969 659.65625 352.753906 659.65625 358.507812 C 659.65625 364.390625 654.925781 368.222656 649.046875 368.222656 L 544.515625 368.734375 C 540.042969 368.734375 536.082031 366.304688 534.546875 362.085938 L 518.703125 317.21875 L 485.859375 448.632812 C 484.839844 452.976562 481.132812 456.175781 476.660156 456.683594 C 472.1875 457.070312 467.96875 454.769531 466.054688 450.675781 L 434.746094 384.96875 L 394.617188 538.882812 C 393.46875 543.359375 389.507812 546.554688 384.90625 546.808594 C 385.160156 546.808594 385.035156 546.808594 384.777344 546.808594 Z M 384.777344 546.808594 " fill-opacity="1" fill-rule="nonzero"/><path fill="#ffffff" d="M 202.675781 425.238281 C 202.675781 425.988281 202.640625 426.734375 202.566406 427.480469 C 202.492188 428.226562 202.382812 428.96875 202.238281 429.703125 C 202.089844 430.4375 201.910156 431.164062 201.691406 431.878906 C 201.472656 432.597656 201.222656 433.300781 200.9375 433.996094 C 200.648438 434.6875 200.328125 435.363281 199.976562 436.023438 C 199.621094 436.6875 199.238281 437.328125 198.820312 437.949219 C 198.40625 438.574219 197.960938 439.175781 197.484375 439.753906 C 197.007812 440.332031 196.507812 440.886719 195.976562 441.417969 C 195.449219 441.949219 194.894531 442.449219 194.3125 442.925781 C 193.734375 443.402344 193.132812 443.847656 192.511719 444.265625 C 191.886719 444.679688 191.246094 445.066406 190.585938 445.417969 C 189.925781 445.773438 189.25 446.09375 188.554688 446.378906 C 187.863281 446.664062 187.160156 446.917969 186.441406 447.136719 C 185.726562 447.351562 185 447.535156 184.265625 447.679688 C 183.53125 447.828125 182.789062 447.9375 182.042969 448.011719 C 181.300781 448.082031 180.550781 448.121094 179.800781 448.121094 C 179.054688 448.121094 178.304688 448.082031 177.558594 448.011719 C 176.816406 447.9375 176.074219 447.828125 175.339844 447.679688 C 174.605469 447.535156 173.878906 447.351562 173.164062 447.136719 C 172.445312 446.917969 171.742188 446.664062 171.046875 446.378906 C 170.355469 446.09375 169.679688 445.773438 169.019531 445.417969 C 168.359375 445.066406 167.71875 444.679688 167.09375 444.265625 C 166.472656 443.847656 165.871094 443.402344 165.289062 442.925781 C 164.710938 442.449219 164.15625 441.949219 163.628906 441.417969 C 163.097656 440.886719 162.59375 440.332031 162.121094 439.753906 C 161.644531 439.175781 161.199219 438.574219 160.78125 437.949219 C 160.367188 437.328125 159.980469 436.6875 159.628906 436.023438 C 159.277344 435.363281 158.957031 434.6875 158.667969 433.996094 C 158.382812 433.300781 158.128906 432.597656 157.914062 431.878906 C 157.695312 431.164062 157.511719 430.4375 157.367188 429.703125 C 157.222656 428.96875 157.113281 428.226562 157.039062 427.480469 C 156.964844 426.734375 156.929688 425.988281 156.929688 425.238281 C 156.929688 424.488281 156.964844 423.742188 157.039062 422.996094 C 157.113281 422.25 157.222656 421.507812 157.367188 420.773438 C 157.511719 420.039062 157.695312 419.3125 157.914062 418.597656 C 158.128906 417.878906 158.382812 417.171875 158.667969 416.480469 C 158.957031 415.789062 159.277344 415.113281 159.628906 414.453125 C 159.980469 413.789062 160.367188 413.148438 160.78125 412.523438 C 161.199219 411.902344 161.644531 411.300781 162.121094 410.722656 C 162.59375 410.140625 163.097656 409.585938 163.628906 409.058594 C 164.15625 408.527344 164.710938 408.023438 165.289062 407.550781 C 165.871094 407.074219 166.472656 406.628906 167.09375 406.210938 C 167.71875 405.796875 168.359375 405.410156 169.019531 405.058594 C 169.679688 404.703125 170.355469 404.382812 171.046875 404.097656 C 171.742188 403.8125 172.445312 403.558594 173.164062 403.339844 C 173.878906 403.125 174.605469 402.941406 175.339844 402.796875 C 176.074219 402.648438 176.816406 402.539062 177.558594 402.464844 C 178.304688 402.390625 179.054688 402.355469 179.800781 402.355469 C 180.550781 402.355469 181.300781 402.390625 182.042969 402.464844 C 182.789062 402.539062 183.53125 402.648438 184.265625 402.796875 C 185 402.941406 185.726562 403.125 186.441406 403.339844 C 187.160156 403.558594 187.863281 403.8125 188.554688 404.097656 C 189.25 404.382812 189.925781 404.703125 190.585938 405.058594 C 191.246094 405.410156 191.886719 405.796875 192.511719 406.210938 C 193.132812 406.628906 193.734375 407.074219 194.3125 407.550781 C 194.894531 408.023438 195.449219 408.527344 195.976562 409.058594 C 196.507812 409.585938 197.007812 410.140625 197.484375 410.722656 C 197.960938 411.300781 198.40625 411.902344 198.820312 412.523438 C 199.238281 413.148438 199.621094 413.789062 199.976562 414.453125 C 200.328125 415.113281 200.648438 415.789062 200.9375 416.480469 C 201.222656 417.171875 201.472656 417.878906 201.691406 418.597656 C 201.910156 419.3125 202.089844 420.039062 202.238281 420.773438 C 202.382812 421.507812 202.492188 422.25 202.566406 422.996094 C 202.640625 423.742188 202.675781 424.488281 202.675781 425.238281 Z M 202.675781 425.238281 " fill-opacity="1" fill-rule="nonzero"/><path fill="#ffffff" d="M 682.019531 358.890625 C 682.019531 359.640625 681.980469 360.390625 681.910156 361.136719 C 681.835938 361.878906 681.726562 362.621094 681.578125 363.355469 C 681.433594 364.089844 681.25 364.816406 681.035156 365.535156 C 680.816406 366.25 680.5625 366.957031 680.277344 367.648438 C 679.992188 368.339844 679.671875 369.019531 679.316406 369.679688 C 678.964844 370.339844 678.578125 370.980469 678.164062 371.605469 C 677.746094 372.226562 677.300781 372.828125 676.828125 373.410156 C 676.351562 373.988281 675.847656 374.542969 675.320312 375.070312 C 674.789062 375.601562 674.234375 376.105469 673.65625 376.582031 C 673.078125 377.054688 672.476562 377.5 671.851562 377.917969 C 671.230469 378.335938 670.585938 378.71875 669.925781 379.074219 C 669.265625 379.425781 668.589844 379.746094 667.898438 380.03125 C 667.207031 380.320312 666.5 380.570312 665.785156 380.789062 C 665.066406 381.007812 664.339844 381.1875 663.605469 381.335938 C 662.871094 381.480469 662.132812 381.589844 661.386719 381.664062 C 660.640625 381.738281 659.894531 381.773438 659.144531 381.773438 C 658.394531 381.773438 657.648438 381.738281 656.902344 381.664062 C 656.15625 381.589844 655.417969 381.480469 654.679688 381.335938 C 653.945312 381.1875 653.222656 381.007812 652.503906 380.789062 C 651.785156 380.570312 651.082031 380.320312 650.390625 380.03125 C 649.699219 379.746094 649.023438 379.425781 648.359375 379.074219 C 647.699219 378.71875 647.058594 378.335938 646.4375 377.917969 C 645.8125 377.5 645.210938 377.054688 644.632812 376.582031 C 644.054688 376.105469 643.5 375.601562 642.96875 375.070312 C 642.441406 374.542969 641.9375 373.988281 641.460938 373.410156 C 640.988281 372.828125 640.539062 372.226562 640.125 371.605469 C 639.707031 370.980469 639.324219 370.339844 638.96875 369.679688 C 638.617188 369.019531 638.296875 368.339844 638.011719 367.648438 C 637.722656 366.957031 637.472656 366.25 637.253906 365.535156 C 637.035156 364.816406 636.855469 364.089844 636.710938 363.355469 C 636.5625 362.621094 636.453125 361.878906 636.378906 361.136719 C 636.304688 360.390625 636.269531 359.640625 636.269531 358.890625 C 636.269531 358.140625 636.304688 357.394531 636.378906 356.648438 C 636.453125 355.902344 636.5625 355.164062 636.710938 354.429688 C 636.855469 353.691406 637.035156 352.964844 637.253906 352.25 C 637.472656 351.53125 637.722656 350.828125 638.011719 350.136719 C 638.296875 349.441406 638.617188 348.765625 638.96875 348.105469 C 639.324219 347.445312 639.707031 346.800781 640.125 346.179688 C 640.539062 345.554688 640.988281 344.953125 641.460938 344.375 C 641.9375 343.796875 642.441406 343.242188 642.96875 342.710938 C 643.5 342.183594 644.054688 341.679688 644.632812 341.203125 C 645.210938 340.726562 645.8125 340.28125 646.4375 339.867188 C 647.058594 339.449219 647.699219 339.066406 648.359375 338.710938 C 649.023438 338.359375 649.699219 338.039062 650.390625 337.75 C 651.082031 337.464844 651.785156 337.210938 652.503906 336.996094 C 653.222656 336.777344 653.945312 336.59375 654.679688 336.449219 C 655.417969 336.304688 656.15625 336.191406 656.902344 336.121094 C 657.648438 336.046875 658.394531 336.007812 659.144531 336.007812 C 659.894531 336.007812 660.640625 336.046875 661.386719 336.121094 C 662.132812 336.191406 662.871094 336.304688 663.605469 336.449219 C 664.339844 336.59375 665.066406 336.777344 665.785156 336.996094 C 666.5 337.210938 667.207031 337.464844 667.898438 337.75 C 668.589844 338.039062 669.265625 338.359375 669.925781 338.710938 C 670.585938 339.066406 671.230469 339.449219 671.851562 339.867188 C 672.476562 340.28125 673.078125 340.726562 673.65625 341.203125 C 674.234375 341.679688 674.789062 342.179688 675.320312 342.710938 C 675.847656 343.242188 676.351562 343.796875 676.828125 344.375 C 677.300781 344.953125 677.746094 345.554688 678.164062 346.179688 C 678.578125 346.800781 678.964844 347.445312 679.316406 348.105469 C 679.671875 348.765625 679.992188 349.441406 680.277344 350.136719 C 680.5625 350.828125 680.816406 351.53125 681.035156 352.25 C 681.25 352.964844 681.433594 353.691406 681.578125 354.429688 C 681.726562 355.164062 681.835938 355.902344 681.910156 356.648438 C 681.980469 357.394531 682.019531 358.140625 682.019531 358.890625 Z M 682.019531 358.890625 " fill-opacity="1" fill-rule="nonzero"/></svg>