<svg xmlns="http://www.w3.org/2000/svg" xmlns:xlink="http://www.w3.org/1999/xlink" width="1080" zoomAndPan="magnify" viewBox="0 0 810 809.999993" height="1080" preserveAspectRatio="xMidYMid meet" version="1.0"><defs><clipPath id="a6009d8e7e"><path d="M 41.566406 41.566406 L 768.316406 41.566406 L 768.316406 768.316406 L 41.566406 768.316406 Z M 41.566406 41.566406 " clip-rule="nonzero"/></clipPath></defs><g clip-path="url(#a6009d8e7e)"><path fill="#0d58cf" d="M 768.316406 404.941406 C 768.316406 410.886719 768.167969 416.832031 767.878906 422.769531 C 767.585938 428.710938 767.148438 434.640625 766.566406 440.558594 C 765.984375 446.476562 765.253906 452.375 764.382812 458.257812 C 763.511719 464.140625 762.492188 470 761.332031 475.832031 C 760.171875 481.664062 758.871094 487.464844 757.425781 493.234375 C 755.980469 499.003906 754.394531 504.730469 752.667969 510.421875 C 750.941406 516.113281 749.078125 521.757812 747.074219 527.359375 C 745.070312 532.957031 742.929688 538.503906 740.65625 544 C 738.378906 549.492188 735.96875 554.925781 733.429688 560.304688 C 730.886719 565.679688 728.210938 570.988281 725.410156 576.234375 C 722.605469 581.480469 719.675781 586.652344 716.617188 591.753906 C 713.558594 596.855469 710.378906 601.875 707.074219 606.820312 C 703.773438 611.765625 700.347656 616.625 696.804688 621.402344 C 693.265625 626.179688 689.605469 630.867188 685.832031 635.464844 C 682.0625 640.058594 678.175781 644.5625 674.183594 648.96875 C 670.191406 653.375 666.089844 657.679688 661.886719 661.886719 C 657.679688 666.089844 653.375 670.191406 648.96875 674.183594 C 644.5625 678.175781 640.058594 682.0625 635.464844 685.832031 C 630.867188 689.605469 626.179688 693.265625 621.402344 696.804688 C 616.625 700.347656 611.765625 703.773438 606.820312 707.074219 C 601.875 710.378906 596.851562 713.5625 591.753906 716.617188 C 586.652344 719.675781 581.480469 722.605469 576.234375 725.410156 C 570.988281 728.210938 565.679688 730.886719 560.304688 733.429688 C 554.925781 735.96875 549.492188 738.378906 544 740.65625 C 538.503906 742.929688 532.957031 745.070312 527.359375 747.074219 C 521.757812 749.078125 516.113281 750.941406 510.421875 752.667969 C 504.730469 754.394531 499.003906 755.980469 493.234375 757.425781 C 487.464844 758.871094 481.664062 760.171875 475.832031 761.332031 C 470 762.492188 464.140625 763.511719 458.257812 764.382812 C 452.375 765.253906 446.476562 765.984375 440.558594 766.566406 C 434.640625 767.148438 428.710938 767.585938 422.769531 767.878906 C 416.832031 768.171875 410.886719 768.316406 404.941406 768.316406 C 398.992188 768.316406 393.050781 768.171875 387.109375 767.878906 C 381.171875 767.585938 375.242188 767.148438 369.324219 766.566406 C 363.40625 765.984375 357.503906 765.253906 351.621094 764.382812 C 345.738281 763.511719 339.882812 762.492188 334.050781 761.332031 C 328.21875 760.171875 322.417969 758.871094 316.648438 757.425781 C 310.878906 755.980469 305.148438 754.394531 299.457031 752.667969 C 293.769531 750.941406 288.121094 749.078125 282.523438 747.074219 C 276.925781 745.070312 271.378906 742.929688 265.882812 740.65625 C 260.390625 738.378906 254.953125 735.96875 249.578125 733.429688 C 244.203125 730.886719 238.890625 728.210938 233.648438 725.410156 C 228.402344 722.605469 223.230469 719.675781 218.128906 716.617188 C 213.027344 713.5625 208.003906 710.378906 203.058594 707.074219 C 198.117188 703.773438 193.253906 700.347656 188.480469 696.804688 C 183.703125 693.265625 179.015625 689.605469 174.417969 685.832031 C 169.820312 682.0625 165.320312 678.175781 160.914062 674.183594 C 156.507812 670.191406 152.199219 666.089844 147.996094 661.886719 C 143.789062 657.679688 139.691406 653.375 135.699219 648.96875 C 131.703125 644.5625 127.820312 640.058594 124.046875 635.464844 C 120.277344 630.867188 116.617188 626.179688 113.074219 621.402344 C 109.53125 616.625 106.109375 611.765625 102.804688 606.820312 C 99.5 601.875 96.320312 596.855469 93.261719 591.753906 C 90.207031 586.652344 87.277344 581.480469 84.472656 576.234375 C 81.667969 570.988281 78.996094 565.679688 76.453125 560.304688 C 73.910156 554.925781 71.5 549.492188 69.226562 544 C 66.949219 538.503906 64.8125 532.957031 62.808594 527.359375 C 60.804688 521.757812 58.9375 516.113281 57.210938 510.421875 C 55.484375 504.730469 53.902344 499.003906 52.457031 493.234375 C 51.011719 487.464844 49.707031 481.664062 48.546875 475.832031 C 47.386719 470 46.371094 464.140625 45.5 458.257812 C 44.625 452.375 43.898438 446.476562 43.316406 440.558594 C 42.734375 434.640625 42.296875 428.710938 42.003906 422.769531 C 41.710938 416.832031 41.566406 410.886719 41.566406 404.941406 C 41.566406 398.992188 41.710938 393.050781 42.003906 387.109375 C 42.296875 381.171875 42.734375 375.242188 43.316406 369.324219 C 43.898438 363.40625 44.625 357.503906 45.5 351.621094 C 46.371094 345.738281 47.386719 339.882812 48.546875 334.050781 C 49.707031 328.21875 51.011719 322.417969 52.457031 316.648438 C 53.902344 310.878906 55.484375 305.148438 57.210938 299.457031 C 58.9375 293.769531 60.804688 288.121094 62.808594 282.523438 C 64.8125 276.925781 66.949219 271.378906 69.226562 265.882812 C 71.5 260.390625 73.910156 254.953125 76.453125 249.578125 C 78.996094 244.203125 81.667969 238.890625 84.472656 233.648438 C 87.277344 228.402344 90.207031 223.230469 93.261719 218.128906 C 96.320312 213.027344 99.5 208.003906 102.804688 203.0625 C 106.109375 198.117188 109.53125 193.253906 113.074219 188.480469 C 116.617188 183.703125 120.277344 179.015625 124.046875 174.417969 C 127.820312 169.820312 131.703125 165.320312 135.699219 160.914062 C 139.691406 156.507812 143.789062 152.199219 147.996094 147.996094 C 152.199219 143.789062 156.507812 139.691406 160.914062 135.699219 C 165.320312 131.703125 169.820312 127.820312 174.417969 124.046875 C 179.015625 120.277344 183.703125 116.617188 188.480469 113.074219 C 193.253906 109.53125 198.117188 106.109375 203.058594 102.804688 C 208.003906 99.5 213.027344 96.320312 218.128906 93.265625 C 223.230469 90.207031 228.402344 87.277344 233.648438 84.472656 C 238.890625 81.667969 244.203125 78.996094 249.578125 76.453125 C 254.953125 73.910156 260.390625 71.503906 265.882812 69.226562 C 271.378906 66.949219 276.925781 64.8125 282.523438 62.808594 C 288.121094 60.804688 293.769531 58.9375 299.457031 57.210938 C 305.148438 55.488281 310.878906 53.902344 316.648438 52.457031 C 322.417969 51.011719 328.21875 49.707031 334.050781 48.546875 C 339.882812 47.386719 345.738281 46.371094 351.621094 45.5 C 357.503906 44.625 363.40625 43.898438 369.324219 43.316406 C 375.242188 42.734375 381.171875 42.296875 387.109375 42.003906 C 393.050781 41.710938 398.992188 41.566406 404.941406 41.566406 C 410.886719 41.566406 416.832031 41.710938 422.769531 42.003906 C 428.710938 42.296875 434.640625 42.734375 440.558594 43.316406 C 446.476562 43.898438 452.375 44.625 458.257812 45.5 C 464.140625 46.371094 470 47.386719 475.832031 48.546875 C 481.664062 49.707031 487.464844 51.011719 493.234375 52.457031 C 499.003906 53.902344 504.730469 55.488281 510.421875 57.210938 C 516.113281 58.9375 521.757812 60.804688 527.359375 62.808594 C 532.957031 64.8125 538.503906 66.949219 544 69.226562 C 549.492188 71.503906 554.925781 73.910156 560.304688 76.453125 C 565.679688 78.996094 570.988281 81.667969 576.234375 84.472656 C 581.480469 87.277344 586.652344 90.207031 591.753906 93.265625 C 596.855469 96.320312 601.875 99.5 606.820312 102.804688 C 611.765625 106.109375 616.625 109.53125 621.402344 113.074219 C 626.179688 116.617188 630.867188 120.277344 635.464844 124.046875 C 640.058594 127.820312 644.5625 131.703125 648.96875 135.699219 C 653.375 139.691406 657.679688 143.789062 661.886719 147.996094 C 666.089844 152.199219 670.191406 156.507812 674.183594 160.914062 C 678.175781 165.320312 682.0625 169.820312 685.832031 174.417969 C 689.605469 179.015625 693.261719 183.703125 696.804688 188.480469 C 700.347656 193.253906 703.773438 198.117188 707.074219 203.0625 C 710.378906 208.003906 713.558594 213.027344 716.617188 218.128906 C 719.675781 223.230469 722.605469 228.402344 725.410156 233.648438 C 728.210938 238.890625 730.886719 244.203125 733.429688 249.578125 C 735.96875 254.953125 738.378906 260.390625 740.65625 265.882812 C 742.929688 271.378906 745.070312 276.925781 747.074219 282.523438 C 749.078125 288.121094 750.941406 293.769531 752.667969 299.457031 C 754.394531 305.148438 755.980469 310.878906 757.425781 316.648438 C 758.871094 322.417969 760.171875 328.21875 761.332031 334.050781 C 762.492188 339.882812 763.511719 345.738281 764.382812 351.621094 C 765.253906 357.503906 765.984375 363.40625 766.566406 369.324219 C 767.148438 375.242188 767.585938 381.171875 767.878906 387.109375 C 768.167969 393.050781 768.316406 398.992188 768.316406 404.941406 Z M 768.316406 404.941406 " fill-opacity="1" fill-rule="nonzero"/></g><path fill="#ffffff" d="M 396.703125 165.015625 L 168.796875 370.152344 C 167.871094 370.976562 167.09375 371.921875 166.457031 372.980469 C 165.820312 374.042969 165.355469 375.171875 165.0625 376.375 C 164.769531 377.578125 164.664062 378.796875 164.742188 380.03125 C 164.820312 381.265625 165.078125 382.460938 165.519531 383.617188 C 165.960938 384.773438 166.5625 385.835938 167.328125 386.808594 C 168.09375 387.78125 168.984375 388.621094 170.003906 389.320312 C 171.023438 390.023438 172.125 390.554688 173.308594 390.921875 C 174.488281 391.289062 175.699219 391.472656 176.933594 391.472656 L 223.058594 391.472656 L 223.058594 587.015625 C 223.054688 587.820312 223.125 588.617188 223.277344 589.40625 C 223.429688 590.195312 223.65625 590.960938 223.960938 591.703125 C 224.265625 592.445312 224.640625 593.152344 225.085938 593.824219 C 225.53125 594.492188 226.039062 595.109375 226.605469 595.679688 C 227.175781 596.246094 227.792969 596.753906 228.460938 597.199219 C 229.132812 597.644531 229.835938 598.019531 230.582031 598.324219 C 231.324219 598.625 232.089844 598.855469 232.878906 599.007812 C 233.667969 599.160156 234.464844 599.230469 235.269531 599.226562 L 352.324219 599.226562 C 353.128906 599.230469 353.921875 599.160156 354.710938 599.007812 C 355.5 598.855469 356.269531 598.625 357.011719 598.320312 C 357.753906 598.019531 358.460938 597.644531 359.128906 597.199219 C 359.800781 596.753906 360.417969 596.246094 360.984375 595.679688 C 361.554688 595.109375 362.0625 594.492188 362.507812 593.824219 C 362.949219 593.152344 363.324219 592.445312 363.628906 591.703125 C 363.933594 590.960938 364.164062 590.195312 364.316406 589.40625 C 364.46875 588.617188 364.539062 587.820312 364.535156 587.015625 L 364.535156 443.410156 L 445.25 443.410156 L 445.25 587.015625 C 445.246094 587.820312 445.316406 588.617188 445.46875 589.40625 C 445.621094 590.195312 445.851562 590.960938 446.15625 591.703125 C 446.457031 592.445312 446.832031 593.152344 447.277344 593.824219 C 447.722656 594.492188 448.230469 595.109375 448.796875 595.679688 C 449.367188 596.246094 449.984375 596.753906 450.652344 597.199219 C 451.324219 597.644531 452.03125 598.019531 452.773438 598.324219 C 453.515625 598.625 454.28125 598.855469 455.070312 599.007812 C 455.859375 599.160156 456.65625 599.230469 457.460938 599.226562 L 574.515625 599.226562 C 575.320312 599.230469 576.117188 599.160156 576.90625 599.007812 C 577.695312 598.855469 578.460938 598.625 579.203125 598.324219 C 579.945312 598.019531 580.652344 597.644531 581.320312 597.199219 C 581.992188 596.753906 582.609375 596.246094 583.179688 595.679688 C 583.746094 595.109375 584.253906 594.492188 584.699219 593.824219 C 585.144531 593.152344 585.515625 592.445312 585.820312 591.703125 C 586.125 590.960938 586.355469 590.195312 586.507812 589.40625 C 586.660156 588.617188 586.730469 587.820312 586.726562 587.015625 L 586.726562 391.472656 L 632.847656 391.472656 C 644.089844 391.472656 649.324219 377.613281 641.085938 370.152344 L 413.082031 165.015625 C 412.527344 164.507812 411.929688 164.054688 411.292969 163.660156 C 410.65625 163.261719 409.984375 162.925781 409.285156 162.65625 C 408.585938 162.382812 407.867188 162.175781 407.128906 162.039062 C 406.390625 161.898438 405.644531 161.828125 404.890625 161.828125 C 404.140625 161.828125 403.394531 161.898438 402.65625 162.039062 C 401.917969 162.175781 401.199219 162.382812 400.5 162.65625 C 399.800781 162.925781 399.128906 163.261719 398.492188 163.660156 C 397.855469 164.054688 397.257812 164.507812 396.703125 165.015625 Z M 396.703125 165.015625 " fill-opacity="1" fill-rule="nonzero"/></svg>