<svg xmlns="http://www.w3.org/2000/svg" xmlns:xlink="http://www.w3.org/1999/xlink" width="1080" zoomAndPan="magnify" viewBox="0 0 810 809.999993" height="1080" preserveAspectRatio="xMidYMid meet" version="1.0"><defs><clipPath id="025a447b3b"><path d="M 51.089844 51.089844 L 758.910156 51.089844 L 758.910156 758.910156 L 51.089844 758.910156 Z M 51.089844 51.089844 " clip-rule="nonzero"/></clipPath><clipPath id="82d6d46ac6"><path d="M 405 51.089844 C 209.539062 51.089844 51.089844 209.539062 51.089844 405 C 51.089844 600.460938 209.539062 758.910156 405 758.910156 C 600.460938 758.910156 758.910156 600.460938 758.910156 405 C 758.910156 209.539062 600.460938 51.089844 405 51.089844 " clip-rule="nonzero"/></clipPath><clipPath id="d0f268935e"><path d="M 167.019531 344 L 239 344 L 239 539 L 167.019531 539 Z M 167.019531 344 " clip-rule="nonzero"/></clipPath><clipPath id="2b30f9a842"><path d="M 571 344 L 643.269531 344 L 643.269531 539 L 571 539 Z M 571 344 " clip-rule="nonzero"/></clipPath><clipPath id="ea09c0e672"><path d="M 360 189.332031 L 450 189.332031 L 450 278 L 360 278 Z M 360 189.332031 " clip-rule="nonzero"/></clipPath><clipPath id="35c6180081"><path d="M 331 306 L 479 306 L 479 620.582031 L 331 620.582031 Z M 331 306 " clip-rule="nonzero"/></clipPath></defs><g clip-path="url(#025a447b3b)"><g clip-path="url(#82d6d46ac6)"><path fill="#fdc93b" d="M 51.089844 51.089844 L 758.910156 51.089844 L 758.910156 758.910156 L 51.089844 758.910156 Z M 51.089844 51.089844 " fill-opacity="1" fill-rule="nonzero"/></g></g><path fill="#c27f23" d="M 212.621094 326.089844 C 213.519531 326.089844 214.414062 326.046875 215.304688 325.957031 C 216.199219 325.867188 217.085938 325.738281 217.964844 325.5625 C 218.84375 325.386719 219.714844 325.167969 220.570312 324.90625 C 221.429688 324.644531 222.273438 324.34375 223.101562 324 C 223.929688 323.65625 224.738281 323.273438 225.53125 322.847656 C 226.320312 322.425781 227.089844 321.964844 227.832031 321.46875 C 228.578125 320.96875 229.296875 320.433594 229.992188 319.867188 C 230.683594 319.296875 231.347656 318.695312 231.980469 318.058594 C 232.613281 317.425781 233.214844 316.761719 233.785156 316.070312 C 234.351562 315.375 234.886719 314.65625 235.382812 313.910156 C 235.882812 313.164062 236.34375 312.398438 236.765625 311.605469 C 237.1875 310.816406 237.570312 310.007812 237.910156 309.179688 C 238.253906 308.351562 238.554688 307.507812 238.816406 306.648438 C 239.074219 305.792969 239.292969 304.921875 239.464844 304.042969 C 239.640625 303.164062 239.773438 302.28125 239.859375 301.386719 C 239.945312 300.496094 239.988281 299.601562 239.988281 298.707031 C 239.988281 297.808594 239.945312 296.914062 239.855469 296.023438 C 239.769531 295.132812 239.636719 294.246094 239.460938 293.367188 C 239.285156 292.488281 239.066406 291.621094 238.804688 290.761719 C 238.542969 289.90625 238.242188 289.0625 237.898438 288.234375 C 237.554688 287.40625 237.171875 286.597656 236.75 285.808594 C 236.324219 285.015625 235.863281 284.25 235.367188 283.503906 C 234.867188 282.757812 234.332031 282.039062 233.761719 281.347656 C 233.195312 280.65625 232.59375 279.992188 231.957031 279.359375 C 231.324219 278.726562 230.660156 278.125 229.964844 277.558594 C 229.273438 276.988281 228.550781 276.457031 227.804688 275.957031 C 227.058594 275.460938 226.292969 275 225.5 274.578125 C 224.707031 274.15625 223.898438 273.773438 223.070312 273.429688 C 222.242188 273.089844 221.398438 272.789062 220.539062 272.527344 C 219.679688 272.269531 218.8125 272.050781 217.933594 271.875 C 217.050781 271.703125 216.164062 271.570312 215.273438 271.484375 C 214.378906 271.394531 213.484375 271.351562 212.589844 271.351562 C 211.691406 271.351562 210.796875 271.398438 209.90625 271.484375 C 209.011719 271.574219 208.125 271.703125 207.246094 271.878906 C 206.367188 272.054688 205.496094 272.273438 204.640625 272.53125 C 203.78125 272.792969 202.9375 273.09375 202.109375 273.4375 C 201.28125 273.78125 200.46875 274.164062 199.679688 274.585938 C 198.890625 275.011719 198.121094 275.46875 197.375 275.96875 C 196.628906 276.464844 195.910156 277 195.214844 277.570312 C 194.523438 278.136719 193.859375 278.738281 193.226562 279.371094 C 192.589844 280.007812 191.988281 280.667969 191.421875 281.363281 C 190.851562 282.054688 190.320312 282.773438 189.820312 283.519531 C 189.320312 284.265625 188.863281 285.03125 188.4375 285.824219 C 188.015625 286.613281 187.632812 287.421875 187.289062 288.25 C 186.945312 289.078125 186.644531 289.921875 186.386719 290.78125 C 186.125 291.636719 185.90625 292.507812 185.730469 293.386719 C 185.558594 294.265625 185.425781 295.148438 185.339844 296.042969 C 185.25 296.933594 185.207031 297.828125 185.207031 298.722656 C 185.207031 299.621094 185.25 300.515625 185.339844 301.40625 C 185.429688 302.300781 185.558594 303.1875 185.734375 304.066406 C 185.910156 304.945312 186.128906 305.8125 186.390625 306.671875 C 186.652344 307.527344 186.953125 308.371094 187.296875 309.199219 C 187.640625 310.027344 188.023438 310.839844 188.449219 311.628906 C 188.871094 312.417969 189.332031 313.1875 189.832031 313.933594 C 190.332031 314.679688 190.867188 315.398438 191.433594 316.089844 C 192.003906 316.785156 192.605469 317.445312 193.242188 318.082031 C 193.878906 318.714844 194.542969 319.316406 195.234375 319.882812 C 195.929688 320.453125 196.648438 320.984375 197.394531 321.484375 C 198.144531 321.980469 198.910156 322.441406 199.703125 322.863281 C 200.496094 323.285156 201.304688 323.667969 202.136719 324.011719 C 202.964844 324.355469 203.808594 324.65625 204.667969 324.914062 C 205.527344 325.175781 206.394531 325.394531 207.277344 325.566406 C 208.15625 325.742188 209.042969 325.875 209.9375 325.960938 C 210.828125 326.046875 211.726562 326.089844 212.621094 326.089844 Z M 212.621094 326.089844 " fill-opacity="1" fill-rule="nonzero"/><path fill="#c27f23" d="M 298.96875 299.761719 C 300.167969 299.761719 301.359375 299.703125 302.550781 299.582031 C 303.742188 299.464844 304.921875 299.289062 306.097656 299.054688 C 307.269531 298.820312 308.429688 298.527344 309.574219 298.179688 C 310.71875 297.832031 311.84375 297.429688 312.949219 296.972656 C 314.054688 296.511719 315.132812 296.003906 316.1875 295.4375 C 317.242188 294.875 318.265625 294.257812 319.261719 293.59375 C 320.253906 292.929688 321.214844 292.21875 322.140625 291.457031 C 323.0625 290.699219 323.949219 289.894531 324.792969 289.050781 C 325.636719 288.203125 326.441406 287.320312 327.199219 286.394531 C 327.957031 285.46875 328.667969 284.511719 329.332031 283.515625 C 329.996094 282.519531 330.609375 281.496094 331.171875 280.441406 C 331.738281 279.386719 332.246094 278.308594 332.703125 277.203125 C 333.160156 276.097656 333.5625 274.972656 333.910156 273.828125 C 334.257812 272.683594 334.546875 271.527344 334.777344 270.355469 C 335.011719 269.183594 335.1875 268 335.300781 266.8125 C 335.417969 265.621094 335.476562 264.429688 335.476562 263.234375 C 335.476562 262.039062 335.414062 260.84375 335.296875 259.65625 C 335.179688 258.464844 335.003906 257.285156 334.769531 256.113281 C 334.535156 254.941406 334.246094 253.78125 333.898438 252.636719 C 333.550781 251.496094 333.144531 250.371094 332.6875 249.265625 C 332.230469 248.160156 331.71875 247.082031 331.152344 246.027344 C 330.589844 244.976562 329.972656 243.949219 329.308594 242.957031 C 328.644531 241.964844 327.929688 241.003906 327.171875 240.082031 C 326.414062 239.15625 325.609375 238.273438 324.761719 237.429688 C 323.917969 236.582031 323.03125 235.78125 322.105469 235.023438 C 321.179688 234.265625 320.21875 233.554688 319.226562 232.890625 C 318.230469 232.226562 317.203125 231.613281 316.148438 231.050781 C 315.09375 230.488281 314.015625 229.976562 312.910156 229.519531 C 311.804688 229.0625 310.675781 228.660156 309.53125 228.316406 C 308.386719 227.96875 307.226562 227.679688 306.054688 227.445312 C 304.882812 227.214844 303.699219 227.039062 302.507812 226.921875 C 301.316406 226.804688 300.125 226.746094 298.929688 226.746094 C 297.730469 226.746094 296.539062 226.804688 295.347656 226.921875 C 294.15625 227.042969 292.972656 227.214844 291.800781 227.449219 C 290.628906 227.683594 289.46875 227.972656 288.324219 228.320312 C 287.179688 228.667969 286.054688 229.070312 284.949219 229.527344 C 283.84375 229.988281 282.761719 230.496094 281.707031 231.0625 C 280.652344 231.625 279.628906 232.238281 278.632812 232.902344 C 277.640625 233.566406 276.679688 234.277344 275.753906 235.039062 C 274.832031 235.796875 273.945312 236.597656 273.097656 237.445312 C 272.253906 238.289062 271.449219 239.175781 270.691406 240.097656 C 269.933594 241.023438 269.222656 241.980469 268.558594 242.976562 C 267.890625 243.96875 267.277344 244.992188 266.714844 246.046875 C 266.152344 247.101562 265.640625 248.183594 265.183594 249.285156 C 264.722656 250.390625 264.320312 251.515625 263.972656 252.660156 C 263.628906 253.804688 263.335938 254.960938 263.105469 256.132812 C 262.871094 257.308594 262.695312 258.488281 262.578125 259.675781 C 262.460938 260.867188 262.402344 262.058594 262.402344 263.253906 C 262.402344 264.453125 262.460938 265.644531 262.578125 266.835938 C 262.699219 268.023438 262.875 269.207031 263.109375 270.378906 C 263.34375 271.554688 263.632812 272.710938 263.980469 273.855469 C 264.328125 275 264.734375 276.125 265.191406 277.230469 C 265.648438 278.335938 266.160156 279.414062 266.726562 280.46875 C 267.292969 281.523438 267.90625 282.546875 268.570312 283.542969 C 269.238281 284.535156 269.949219 285.496094 270.710938 286.421875 C 271.46875 287.34375 272.273438 288.230469 273.121094 289.074219 C 273.96875 289.921875 274.855469 290.722656 275.777344 291.480469 C 276.703125 292.238281 277.664062 292.949219 278.660156 293.613281 C 279.65625 294.277344 280.683594 294.890625 281.738281 295.457031 C 282.792969 296.019531 283.875 296.53125 284.980469 296.988281 C 286.089844 297.445312 287.214844 297.847656 288.359375 298.191406 C 289.503906 298.539062 290.664062 298.828125 291.839844 299.0625 C 293.015625 299.296875 294.195312 299.46875 295.386719 299.585938 C 296.578125 299.703125 297.773438 299.761719 298.96875 299.761719 Z M 298.96875 299.761719 " fill-opacity="1" fill-rule="nonzero"/><g clip-path="url(#d0f268935e)"><path fill="#c27f23" d="M 221.949219 449.523438 L 221.949219 351.628906 C 221.988281 349.117188 222.238281 346.625 222.707031 344.15625 L 187.875 344.15625 C 187.195312 344.15625 186.511719 344.191406 185.832031 344.257812 C 185.152344 344.324219 184.480469 344.421875 183.808594 344.554688 C 183.140625 344.6875 182.476562 344.855469 181.824219 345.050781 C 181.171875 345.25 180.53125 345.476562 179.898438 345.738281 C 179.269531 346 178.652344 346.289062 178.050781 346.613281 C 177.445312 346.933594 176.863281 347.285156 176.292969 347.660156 C 175.726562 348.039062 175.179688 348.445312 174.648438 348.878906 C 174.121094 349.3125 173.617188 349.769531 173.132812 350.25 C 172.652344 350.734375 172.191406 351.238281 171.757812 351.765625 C 171.328125 352.292969 170.921875 352.839844 170.539062 353.40625 C 170.160156 353.972656 169.808594 354.558594 169.488281 355.160156 C 169.164062 355.761719 168.875 356.375 168.613281 357.003906 C 168.351562 357.636719 168.121094 358.277344 167.921875 358.929688 C 167.722656 359.582031 167.558594 360.242188 167.425781 360.914062 C 167.292969 361.582031 167.191406 362.253906 167.125 362.933594 C 167.058594 363.613281 167.023438 364.292969 167.023438 364.976562 L 167.023438 438.367188 C 167.023438 439.015625 167.054688 439.664062 167.117188 440.308594 C 167.179688 440.953125 167.273438 441.597656 167.394531 442.234375 C 167.515625 442.871094 167.667969 443.503906 167.851562 444.125 C 168.03125 444.75 168.242188 445.363281 168.480469 445.964844 C 168.722656 446.570312 168.988281 447.160156 169.28125 447.738281 C 169.578125 448.316406 169.898438 448.878906 170.246094 449.429688 C 170.59375 449.976562 170.964844 450.507812 171.363281 451.023438 C 171.761719 451.535156 172.183594 452.027344 172.625 452.503906 C 173.070312 452.976562 173.535156 453.429688 174.019531 453.859375 C 174.507812 454.289062 175.011719 454.699219 175.539062 455.082031 C 176.0625 455.464844 176.601562 455.820312 177.160156 456.152344 C 177.71875 456.484375 178.292969 456.792969 178.878906 457.070312 C 179.464844 457.347656 180.0625 457.597656 180.675781 457.820312 C 181.285156 458.042969 181.902344 458.238281 182.53125 458.402344 C 183.160156 458.566406 183.796875 458.703125 184.4375 458.808594 C 185.078125 458.914062 185.722656 458.988281 186.371094 459.03125 L 186.371094 521.808594 C 186.371094 522.355469 186.398438 522.90625 186.453125 523.449219 C 186.503906 523.996094 186.585938 524.539062 186.695312 525.078125 C 186.800781 525.617188 186.933594 526.148438 187.09375 526.671875 C 187.253906 527.199219 187.4375 527.714844 187.648438 528.21875 C 187.859375 528.726562 188.09375 529.222656 188.351562 529.707031 C 188.613281 530.191406 188.894531 530.660156 189.199219 531.117188 C 189.503906 531.574219 189.832031 532.011719 190.179688 532.4375 C 190.53125 532.863281 190.898438 533.269531 191.285156 533.65625 C 191.675781 534.042969 192.082031 534.410156 192.507812 534.757812 C 192.929688 535.109375 193.371094 535.433594 193.828125 535.738281 C 194.285156 536.042969 194.757812 536.324219 195.242188 536.582031 C 195.726562 536.84375 196.222656 537.078125 196.730469 537.285156 C 197.238281 537.496094 197.753906 537.679688 198.277344 537.839844 C 198.804688 538 199.335938 538.132812 199.875 538.238281 C 200.414062 538.34375 200.957031 538.425781 201.503906 538.480469 C 202.050781 538.53125 202.597656 538.558594 203.148438 538.558594 L 222.097656 538.558594 C 222.644531 538.558594 223.195312 538.53125 223.742188 538.480469 C 224.289062 538.425781 224.832031 538.34375 225.367188 538.238281 C 225.90625 538.132812 226.441406 538 226.964844 537.839844 C 227.492188 537.679688 228.007812 537.496094 228.515625 537.285156 C 229.023438 537.078125 229.519531 536.84375 230.003906 536.585938 C 230.488281 536.324219 230.957031 536.042969 231.414062 535.738281 C 231.871094 535.433594 232.3125 535.109375 232.738281 534.761719 C 233.164062 534.414062 233.570312 534.042969 233.957031 533.65625 C 234.347656 533.269531 234.714844 532.863281 235.0625 532.4375 C 235.414062 532.015625 235.738281 531.574219 236.042969 531.117188 C 236.351562 530.664062 236.632812 530.191406 236.890625 529.707031 C 237.152344 529.222656 237.386719 528.730469 237.597656 528.222656 C 237.804688 527.714844 237.992188 527.199219 238.152344 526.675781 C 238.3125 526.148438 238.445312 525.617188 238.550781 525.078125 C 238.660156 524.539062 238.738281 524 238.792969 523.453125 C 238.847656 522.90625 238.875 522.359375 238.875 521.808594 L 238.875 483.863281 C 237.570312 482.851562 236.324219 481.765625 235.140625 480.613281 C 233.957031 479.457031 232.839844 478.238281 231.796875 476.960938 C 230.75 475.679688 229.78125 474.34375 228.886719 472.953125 C 227.992188 471.5625 227.179688 470.125 226.449219 468.640625 C 225.71875 467.160156 225.074219 465.640625 224.515625 464.085938 C 223.960938 462.527344 223.492188 460.945312 223.113281 459.335938 C 222.734375 457.730469 222.445312 456.105469 222.253906 454.460938 C 222.058594 452.820312 221.957031 451.175781 221.949219 449.523438 Z M 221.949219 449.523438 " fill-opacity="1" fill-rule="nonzero"/></g><path fill="#c27f23" d="M 597.667969 326.089844 C 596.773438 326.089844 595.875 326.046875 594.984375 325.957031 C 594.089844 325.867188 593.207031 325.738281 592.324219 325.5625 C 591.445312 325.386719 590.578125 325.167969 589.71875 324.90625 C 588.863281 324.644531 588.019531 324.34375 587.191406 324 C 586.363281 323.65625 585.550781 323.273438 584.761719 322.847656 C 583.96875 322.425781 583.203125 321.964844 582.457031 321.46875 C 581.710938 320.96875 580.992188 320.433594 580.300781 319.867188 C 579.605469 319.296875 578.941406 318.695312 578.308594 318.058594 C 577.675781 317.425781 577.074219 316.761719 576.507812 316.070312 C 575.9375 315.375 575.40625 314.65625 574.90625 313.910156 C 574.410156 313.164062 573.949219 312.398438 573.527344 311.605469 C 573.105469 310.816406 572.722656 310.007812 572.378906 309.179688 C 572.035156 308.351562 571.734375 307.507812 571.476562 306.648438 C 571.214844 305.792969 571 304.921875 570.824219 304.042969 C 570.648438 303.164062 570.519531 302.28125 570.429688 301.386719 C 570.34375 300.496094 570.300781 299.601562 570.300781 298.707031 C 570.300781 297.808594 570.347656 296.914062 570.433594 296.023438 C 570.523438 295.132812 570.65625 294.246094 570.832031 293.367188 C 571.007812 292.488281 571.222656 291.621094 571.484375 290.761719 C 571.746094 289.90625 572.046875 289.0625 572.390625 288.234375 C 572.734375 287.40625 573.121094 286.597656 573.542969 285.808594 C 573.964844 285.015625 574.425781 284.25 574.925781 283.503906 C 575.425781 282.757812 575.957031 282.039062 576.527344 281.347656 C 577.097656 280.65625 577.699219 279.992188 578.332031 279.359375 C 578.96875 278.726562 579.632812 278.125 580.324219 277.558594 C 581.019531 276.988281 581.738281 276.457031 582.484375 275.957031 C 583.230469 275.460938 584 275 584.789062 274.578125 C 585.582031 274.15625 586.390625 273.773438 587.222656 273.429688 C 588.050781 273.089844 588.894531 272.789062 589.75 272.527344 C 590.609375 272.269531 591.480469 272.050781 592.359375 271.875 C 593.238281 271.703125 594.125 271.570312 595.019531 271.484375 C 595.910156 271.394531 596.804688 271.351562 597.703125 271.351562 C 598.597656 271.351562 599.492188 271.398438 600.386719 271.484375 C 601.277344 271.574219 602.164062 271.703125 603.042969 271.878906 C 603.925781 272.054688 604.792969 272.273438 605.652344 272.53125 C 606.511719 272.792969 607.351562 273.09375 608.183594 273.4375 C 609.011719 273.78125 609.820312 274.164062 610.609375 274.585938 C 611.402344 275.011719 612.171875 275.46875 612.917969 275.96875 C 613.660156 276.464844 614.382812 277 615.074219 277.570312 C 615.769531 278.136719 616.429688 278.738281 617.066406 279.371094 C 617.699219 280.007812 618.300781 280.667969 618.871094 281.363281 C 619.4375 282.054688 619.972656 282.773438 620.46875 283.519531 C 620.96875 284.265625 621.429688 285.03125 621.851562 285.824219 C 622.273438 286.613281 622.65625 287.421875 623 288.25 C 623.34375 289.078125 623.644531 289.921875 623.90625 290.78125 C 624.167969 291.636719 624.382812 292.507812 624.558594 293.386719 C 624.734375 294.265625 624.863281 295.148438 624.953125 296.042969 C 625.039062 296.933594 625.085938 297.828125 625.085938 298.722656 C 625.082031 299.621094 625.039062 300.515625 624.949219 301.40625 C 624.863281 302.300781 624.730469 303.1875 624.554688 304.066406 C 624.378906 304.945312 624.160156 305.8125 623.898438 306.671875 C 623.640625 307.527344 623.335938 308.371094 622.992188 309.199219 C 622.648438 310.027344 622.265625 310.839844 621.84375 311.628906 C 621.417969 312.417969 620.957031 313.1875 620.457031 313.933594 C 619.960938 314.679688 619.425781 315.398438 618.855469 316.089844 C 618.285156 316.785156 617.683594 317.445312 617.046875 318.082031 C 616.414062 318.714844 615.75 319.316406 615.054688 319.882812 C 614.363281 320.453125 613.640625 320.984375 612.894531 321.484375 C 612.148438 321.980469 611.378906 322.441406 610.585938 322.863281 C 609.796875 323.285156 608.984375 323.667969 608.15625 324.011719 C 607.328125 324.355469 606.484375 324.65625 605.625 324.914062 C 604.765625 325.175781 603.894531 325.394531 603.015625 325.566406 C 602.132812 325.742188 601.246094 325.875 600.355469 325.960938 C 599.460938 326.046875 598.566406 326.089844 597.667969 326.089844 Z M 597.667969 326.089844 " fill-opacity="1" fill-rule="nonzero"/><path fill="#c27f23" d="M 511.320312 299.761719 C 510.125 299.761719 508.929688 299.703125 507.738281 299.582031 C 506.550781 299.464844 505.367188 299.289062 504.195312 299.054688 C 503.019531 298.820312 501.863281 298.527344 500.71875 298.179688 C 499.574219 297.832031 498.449219 297.429688 497.34375 296.972656 C 496.238281 296.511719 495.15625 296.003906 494.101562 295.4375 C 493.046875 294.875 492.023438 294.257812 491.03125 293.59375 C 490.035156 292.929688 489.078125 292.21875 488.152344 291.457031 C 487.226562 290.699219 486.34375 289.894531 485.496094 289.050781 C 484.652344 288.203125 483.851562 287.320312 483.09375 286.394531 C 482.332031 285.46875 481.621094 284.511719 480.957031 283.515625 C 480.292969 282.519531 479.679688 281.496094 479.117188 280.441406 C 478.554688 279.386719 478.042969 278.308594 477.585938 277.203125 C 477.128906 276.097656 476.726562 274.972656 476.382812 273.828125 C 476.035156 272.683594 475.746094 271.527344 475.511719 270.355469 C 475.28125 269.183594 475.105469 268 474.988281 266.8125 C 474.871094 265.621094 474.8125 264.429688 474.816406 263.234375 C 474.816406 262.039062 474.875 260.84375 474.992188 259.65625 C 475.109375 258.464844 475.285156 257.285156 475.519531 256.113281 C 475.753906 254.941406 476.046875 253.78125 476.394531 252.636719 C 476.742188 251.496094 477.144531 250.371094 477.601562 249.265625 C 478.0625 248.160156 478.574219 247.082031 479.136719 246.027344 C 479.703125 244.976562 480.316406 243.949219 480.980469 242.957031 C 481.648438 241.964844 482.359375 241.003906 483.121094 240.082031 C 483.878906 239.15625 484.679688 238.273438 485.527344 237.429688 C 486.375 236.582031 487.261719 235.78125 488.183594 235.023438 C 489.109375 234.265625 490.070312 233.554688 491.066406 232.890625 C 492.0625 232.226562 493.085938 231.613281 494.140625 231.050781 C 495.195312 230.488281 496.277344 229.976562 497.382812 229.519531 C 498.488281 229.0625 499.613281 228.660156 500.757812 228.316406 C 501.902344 227.96875 503.0625 227.679688 504.234375 227.445312 C 505.410156 227.214844 506.589844 227.039062 507.78125 226.921875 C 508.972656 226.804688 510.167969 226.746094 511.363281 226.746094 C 512.558594 226.746094 513.753906 226.804688 514.945312 226.921875 C 516.132812 227.042969 517.316406 227.214844 518.488281 227.449219 C 519.664062 227.683594 520.820312 227.972656 521.96875 228.320312 C 523.113281 228.667969 524.238281 229.070312 525.34375 229.527344 C 526.445312 229.988281 527.527344 230.496094 528.582031 231.0625 C 529.636719 231.625 530.664062 232.238281 531.65625 232.902344 C 532.652344 233.566406 533.609375 234.277344 534.535156 235.039062 C 535.460938 235.796875 536.347656 236.597656 537.191406 237.445312 C 538.039062 238.289062 538.839844 239.175781 539.597656 240.097656 C 540.359375 241.023438 541.070312 241.980469 541.734375 242.976562 C 542.398438 243.96875 543.011719 244.992188 543.578125 246.046875 C 544.140625 247.101562 544.652344 248.183594 545.109375 249.285156 C 545.566406 250.390625 545.96875 251.515625 546.316406 252.660156 C 546.664062 253.804688 546.953125 254.960938 547.1875 256.132812 C 547.421875 257.308594 547.597656 258.488281 547.714844 259.675781 C 547.832031 260.867188 547.890625 262.058594 547.890625 263.253906 C 547.886719 264.453125 547.828125 265.644531 547.710938 266.835938 C 547.59375 268.023438 547.417969 269.207031 547.183594 270.378906 C 546.949219 271.554688 546.65625 272.710938 546.308594 273.855469 C 545.960938 275 545.558594 276.125 545.097656 277.230469 C 544.640625 278.335938 544.128906 279.414062 543.5625 280.46875 C 543 281.523438 542.382812 282.546875 541.71875 283.542969 C 541.054688 284.535156 540.339844 285.496094 539.582031 286.421875 C 538.820312 287.34375 538.015625 288.230469 537.171875 289.074219 C 536.324219 289.921875 535.4375 290.722656 534.511719 291.480469 C 533.585938 292.238281 532.625 292.949219 531.628906 293.613281 C 530.632812 294.277344 529.609375 294.890625 528.550781 295.457031 C 527.496094 296.019531 526.414062 296.53125 525.308594 296.988281 C 524.203125 297.445312 523.078125 297.847656 521.929688 298.191406 C 520.785156 298.539062 519.625 298.828125 518.453125 299.0625 C 517.277344 299.296875 516.09375 299.46875 514.902344 299.585938 C 513.710938 299.703125 512.515625 299.761719 511.320312 299.761719 Z M 511.320312 299.761719 " fill-opacity="1" fill-rule="nonzero"/><g clip-path="url(#2b30f9a842)"><path fill="#c27f23" d="M 622.414062 344.15625 L 587.585938 344.15625 C 588.050781 346.625 588.304688 349.117188 588.339844 351.628906 L 588.339844 449.523438 C 588.332031 451.175781 588.230469 452.820312 588.039062 454.460938 C 587.84375 456.105469 587.558594 457.730469 587.179688 459.335938 C 586.800781 460.945312 586.332031 462.527344 585.773438 464.085938 C 585.214844 465.640625 584.570312 467.160156 583.839844 468.640625 C 583.109375 470.125 582.296875 471.5625 581.40625 472.953125 C 580.511719 474.34375 579.542969 475.679688 578.496094 476.960938 C 577.449219 478.238281 576.335938 479.457031 575.152344 480.613281 C 573.96875 481.765625 572.722656 482.851562 571.417969 483.863281 L 571.417969 521.816406 C 571.417969 522.363281 571.445312 522.910156 571.5 523.457031 C 571.554688 524.003906 571.632812 524.546875 571.742188 525.082031 C 571.847656 525.621094 571.980469 526.152344 572.140625 526.679688 C 572.300781 527.203125 572.484375 527.71875 572.695312 528.226562 C 572.90625 528.734375 573.140625 529.230469 573.402344 529.710938 C 573.660156 530.195312 573.941406 530.667969 574.246094 531.121094 C 574.550781 531.578125 574.878906 532.019531 575.226562 532.441406 C 575.578125 532.867188 575.945312 533.273438 576.332031 533.660156 C 576.722656 534.050781 577.128906 534.417969 577.554688 534.765625 C 577.976562 535.113281 578.417969 535.4375 578.875 535.742188 C 579.332031 536.046875 579.804688 536.332031 580.289062 536.589844 C 580.773438 536.847656 581.269531 537.082031 581.777344 537.289062 C 582.285156 537.5 582.800781 537.683594 583.324219 537.84375 C 583.851562 538.003906 584.382812 538.136719 584.921875 538.242188 C 585.460938 538.351562 586.003906 538.429688 586.550781 538.484375 C 587.097656 538.539062 587.644531 538.5625 588.195312 538.5625 L 607.144531 538.5625 C 607.695312 538.5625 608.242188 538.535156 608.789062 538.484375 C 609.335938 538.429688 609.878906 538.347656 610.417969 538.242188 C 610.957031 538.136719 611.488281 538.003906 612.015625 537.84375 C 612.539062 537.683594 613.054688 537.5 613.5625 537.289062 C 614.070312 537.078125 614.566406 536.84375 615.050781 536.585938 C 615.535156 536.328125 616.007812 536.046875 616.464844 535.742188 C 616.921875 535.4375 617.363281 535.109375 617.785156 534.761719 C 618.210938 534.414062 618.617188 534.046875 619.007812 533.65625 C 619.394531 533.269531 619.761719 532.863281 620.113281 532.441406 C 620.460938 532.015625 620.789062 531.574219 621.09375 531.117188 C 621.398438 530.664062 621.679688 530.191406 621.9375 529.707031 C 622.199219 529.222656 622.433594 528.730469 622.644531 528.222656 C 622.851562 527.714844 623.039062 527.199219 623.199219 526.671875 C 623.355469 526.148438 623.492188 525.617188 623.597656 525.078125 C 623.707031 524.539062 623.785156 523.996094 623.839844 523.449219 C 623.894531 522.90625 623.921875 522.355469 623.921875 521.808594 L 623.921875 459.03125 C 624.570312 458.988281 625.214844 458.914062 625.855469 458.808594 C 626.496094 458.703125 627.128906 458.566406 627.757812 458.402344 C 628.386719 458.238281 629.007812 458.042969 629.617188 457.820312 C 630.226562 457.597656 630.824219 457.347656 631.414062 457.070312 C 632 456.792969 632.570312 456.484375 633.128906 456.152344 C 633.6875 455.820312 634.230469 455.464844 634.753906 455.082031 C 635.277344 454.699219 635.785156 454.289062 636.269531 453.859375 C 636.753906 453.429688 637.222656 452.976562 637.664062 452.503906 C 638.109375 452.027344 638.527344 451.535156 638.925781 451.023438 C 639.324219 450.507812 639.695312 449.976562 640.042969 449.429688 C 640.390625 448.878906 640.714844 448.316406 641.007812 447.738281 C 641.300781 447.160156 641.570312 446.570312 641.808594 445.964844 C 642.046875 445.363281 642.257812 444.75 642.441406 444.125 C 642.621094 443.503906 642.773438 442.871094 642.894531 442.234375 C 643.019531 441.597656 643.109375 440.953125 643.171875 440.308594 C 643.234375 439.664062 643.265625 439.015625 643.269531 438.367188 L 643.269531 364.976562 C 643.269531 364.292969 643.234375 363.613281 643.167969 362.933594 C 643.101562 362.253906 643 361.582031 642.867188 360.914062 C 642.734375 360.242188 642.566406 359.582031 642.367188 358.929688 C 642.167969 358.277344 641.941406 357.636719 641.679688 357.003906 C 641.417969 356.375 641.125 355.761719 640.804688 355.160156 C 640.480469 354.558594 640.128906 353.972656 639.75 353.40625 C 639.371094 352.839844 638.964844 352.292969 638.53125 351.765625 C 638.097656 351.238281 637.640625 350.734375 637.15625 350.25 C 636.671875 349.769531 636.167969 349.3125 635.640625 348.878906 C 635.113281 348.445312 634.566406 348.039062 633.996094 347.660156 C 633.429688 347.285156 632.84375 346.933594 632.242188 346.613281 C 631.640625 346.289062 631.023438 346 630.390625 345.738281 C 629.761719 345.476562 629.121094 345.25 628.464844 345.050781 C 627.8125 344.855469 627.152344 344.6875 626.480469 344.554688 C 625.8125 344.421875 625.136719 344.324219 624.457031 344.257812 C 623.777344 344.191406 623.097656 344.15625 622.414062 344.15625 Z M 622.414062 344.15625 " fill-opacity="1" fill-rule="nonzero"/></g><g clip-path="url(#ea09c0e672)"><path fill="#c27f23" d="M 405.144531 277.675781 C 406.59375 277.675781 408.035156 277.601562 409.476562 277.460938 C 410.917969 277.316406 412.347656 277.105469 413.769531 276.820312 C 415.1875 276.535156 416.589844 276.183594 417.972656 275.765625 C 419.359375 275.34375 420.71875 274.855469 422.058594 274.300781 C 423.394531 273.746094 424.699219 273.128906 425.976562 272.445312 C 427.253906 271.761719 428.492188 271.019531 429.695312 270.214844 C 430.898438 269.410156 432.058594 268.546875 433.179688 267.628906 C 434.296875 266.710938 435.367188 265.738281 436.390625 264.714844 C 437.414062 263.691406 438.382812 262.621094 439.300781 261.503906 C 440.21875 260.382812 441.078125 259.222656 441.882812 258.019531 C 442.6875 256.816406 443.429688 255.578125 444.109375 254.300781 C 444.792969 253.023438 445.410156 251.71875 445.960938 250.382812 C 446.515625 249.046875 447 247.683594 447.421875 246.300781 C 447.839844 244.914062 448.191406 243.515625 448.472656 242.09375 C 448.753906 240.675781 448.964844 239.246094 449.105469 237.808594 C 449.246094 236.367188 449.316406 234.925781 449.316406 233.480469 C 449.316406 232.03125 449.242188 230.589844 449.101562 229.148438 C 448.957031 227.710938 448.746094 226.28125 448.460938 224.863281 C 448.179688 223.445312 447.828125 222.042969 447.40625 220.660156 C 446.984375 219.277344 446.496094 217.914062 445.941406 216.578125 C 445.386719 215.242188 444.769531 213.9375 444.085938 212.664062 C 443.402344 211.386719 442.660156 210.148438 441.855469 208.945312 C 441.050781 207.742188 440.1875 206.582031 439.269531 205.464844 C 438.351562 204.347656 437.378906 203.277344 436.355469 202.257812 C 435.332031 201.234375 434.257812 200.265625 433.140625 199.347656 C 432.019531 198.429688 430.859375 197.570312 429.65625 196.765625 C 428.449219 195.964844 427.210938 195.222656 425.933594 194.539062 C 424.65625 193.859375 423.347656 193.242188 422.011719 192.6875 C 420.675781 192.132812 419.3125 191.648438 417.925781 191.230469 C 416.542969 190.808594 415.140625 190.460938 413.71875 190.175781 C 412.300781 189.894531 410.867188 189.683594 409.429688 189.542969 C 407.988281 189.402344 406.542969 189.332031 405.097656 189.332031 C 403.648438 189.332031 402.203125 189.402344 400.761719 189.546875 C 399.324219 189.6875 397.894531 189.898438 396.472656 190.183594 C 395.054688 190.464844 393.652344 190.816406 392.265625 191.234375 C 390.878906 191.65625 389.519531 192.144531 388.183594 192.695312 C 386.84375 193.25 385.539062 193.867188 384.261719 194.550781 C 382.984375 195.234375 381.746094 195.976562 380.542969 196.78125 C 379.335938 197.582031 378.175781 198.445312 377.058594 199.363281 C 375.9375 200.28125 374.867188 201.25 373.84375 202.273438 C 372.820312 203.296875 371.851562 204.367188 370.929688 205.484375 C 370.011719 206.601562 369.152344 207.765625 368.347656 208.964844 C 367.542969 210.167969 366.800781 211.410156 366.117188 212.683594 C 365.4375 213.960938 364.816406 215.265625 364.265625 216.601562 C 363.710938 217.9375 363.222656 219.300781 362.804688 220.683594 C 362.382812 222.066406 362.03125 223.46875 361.75 224.886719 C 361.46875 226.304688 361.253906 227.734375 361.113281 229.175781 C 360.972656 230.613281 360.898438 232.058594 360.898438 233.503906 C 360.902344 234.949219 360.972656 236.394531 361.113281 237.835938 C 361.257812 239.273438 361.46875 240.707031 361.753906 242.125 C 362.035156 243.542969 362.390625 244.945312 362.808594 246.332031 C 363.230469 247.714844 363.71875 249.078125 364.273438 250.414062 C 364.828125 251.75 365.449219 253.058594 366.132812 254.332031 C 366.816406 255.609375 367.558594 256.847656 368.363281 258.050781 C 369.167969 259.253906 370.03125 260.414062 370.953125 261.535156 C 371.871094 262.652344 372.84375 263.722656 373.867188 264.746094 C 374.890625 265.769531 375.964844 266.738281 377.085938 267.65625 C 378.203125 268.574219 379.367188 269.433594 380.570312 270.238281 C 381.777344 271.042969 383.015625 271.785156 384.296875 272.464844 C 385.574219 273.148438 386.882812 273.765625 388.21875 274.320312 C 389.558594 274.871094 390.921875 275.359375 392.304688 275.777344 C 393.691406 276.199219 395.097656 276.546875 396.515625 276.832031 C 397.9375 277.113281 399.367188 277.324219 400.808594 277.464844 C 402.253906 277.605469 403.695312 277.675781 405.144531 277.675781 Z M 405.144531 277.675781 " fill-opacity="1" fill-rule="nonzero"/></g><g clip-path="url(#35c6180081)"><path fill="#c27f23" d="M 445.082031 306.832031 L 365.207031 306.832031 C 364.105469 306.832031 363.007812 306.886719 361.910156 306.992188 C 360.8125 307.101562 359.722656 307.261719 358.644531 307.476562 C 357.5625 307.6875 356.496094 307.957031 355.441406 308.273438 C 354.386719 308.59375 353.351562 308.964844 352.332031 309.386719 C 351.3125 309.804688 350.320312 310.277344 349.347656 310.792969 C 348.375 311.3125 347.429688 311.878906 346.515625 312.488281 C 345.597656 313.101562 344.714844 313.753906 343.863281 314.453125 C 343.011719 315.152344 342.195312 315.890625 341.414062 316.667969 C 340.636719 317.445312 339.898438 318.257812 339.199219 319.109375 C 338.496094 319.960938 337.84375 320.84375 337.230469 321.757812 C 336.617188 322.675781 336.050781 323.617188 335.53125 324.585938 C 335.011719 325.558594 334.539062 326.550781 334.117188 327.570312 C 333.695312 328.585938 333.324219 329.621094 333.003906 330.675781 C 332.683594 331.726562 332.417969 332.792969 332.203125 333.875 C 331.984375 334.953125 331.824219 336.042969 331.714844 337.136719 C 331.605469 338.230469 331.554688 339.332031 331.550781 340.429688 L 331.550781 458.878906 C 331.554688 459.925781 331.605469 460.972656 331.707031 462.015625 C 331.808594 463.058594 331.957031 464.09375 332.152344 465.121094 C 332.351562 466.148438 332.597656 467.167969 332.890625 468.171875 C 333.183594 469.179688 333.523438 470.167969 333.910156 471.144531 C 334.296875 472.117188 334.726562 473.070312 335.203125 474.003906 C 335.675781 474.9375 336.195312 475.847656 336.757812 476.730469 C 337.316406 477.617188 337.917969 478.472656 338.558594 479.300781 C 339.203125 480.128906 339.878906 480.925781 340.597656 481.691406 C 341.3125 482.457031 342.0625 483.1875 342.847656 483.882812 C 343.632812 484.574219 344.449219 485.234375 345.292969 485.851562 C 346.140625 486.46875 347.015625 487.046875 347.914062 487.582031 C 348.816406 488.117188 349.738281 488.613281 350.683594 489.0625 C 351.632812 489.511719 352.597656 489.917969 353.582031 490.277344 C 354.566406 490.636719 355.566406 490.949219 356.582031 491.214844 C 357.59375 491.480469 358.621094 491.695312 359.652344 491.867188 C 360.6875 492.035156 361.730469 492.15625 362.773438 492.226562 L 362.773438 593.542969 C 362.773438 594.429688 362.820312 595.3125 362.90625 596.195312 C 362.992188 597.078125 363.125 597.953125 363.296875 598.820312 C 363.46875 599.691406 363.683594 600.546875 363.941406 601.394531 C 364.199219 602.242188 364.5 603.074219 364.839844 603.894531 C 365.179688 604.710938 365.558594 605.511719 365.976562 606.292969 C 366.394531 607.074219 366.847656 607.832031 367.339844 608.570312 C 367.835938 609.304688 368.363281 610.015625 368.925781 610.699219 C 369.488281 611.386719 370.082031 612.039062 370.710938 612.667969 C 371.335938 613.292969 371.992188 613.886719 372.679688 614.449219 C 373.363281 615.011719 374.074219 615.535156 374.8125 616.027344 C 375.550781 616.519531 376.308594 616.976562 377.09375 617.390625 C 377.875 617.808594 378.675781 618.1875 379.492188 618.527344 C 380.3125 618.863281 381.148438 619.164062 381.996094 619.417969 C 382.84375 619.675781 383.703125 619.890625 384.574219 620.0625 C 385.441406 620.234375 386.316406 620.367188 387.199219 620.453125 C 388.082031 620.539062 388.96875 620.582031 389.851562 620.582031 L 420.4375 620.582031 C 421.324219 620.582031 422.210938 620.539062 423.089844 620.453125 C 423.972656 620.367188 424.847656 620.234375 425.71875 620.0625 C 426.589844 619.890625 427.445312 619.675781 428.296875 619.417969 C 429.144531 619.164062 429.976562 618.863281 430.796875 618.527344 C 431.617188 618.1875 432.417969 617.808594 433.199219 617.390625 C 433.980469 616.976562 434.738281 616.519531 435.476562 616.027344 C 436.214844 615.539062 436.925781 615.011719 437.609375 614.449219 C 438.296875 613.886719 438.953125 613.292969 439.578125 612.667969 C 440.207031 612.042969 440.800781 611.386719 441.363281 610.703125 C 441.925781 610.015625 442.453125 609.308594 442.949219 608.570312 C 443.441406 607.835938 443.894531 607.074219 444.3125 606.296875 C 444.730469 605.515625 445.109375 604.714844 445.449219 603.894531 C 445.789062 603.078125 446.089844 602.246094 446.347656 601.398438 C 446.605469 600.550781 446.820312 599.691406 446.992188 598.824219 C 447.167969 597.957031 447.296875 597.082031 447.382812 596.199219 C 447.472656 595.316406 447.515625 594.433594 447.515625 593.546875 L 447.515625 492.226562 C 448.5625 492.15625 449.601562 492.035156 450.636719 491.867188 C 451.671875 491.695312 452.695312 491.476562 453.710938 491.210938 C 454.722656 490.945312 455.722656 490.632812 456.707031 490.273438 C 457.691406 489.917969 458.660156 489.511719 459.605469 489.0625 C 460.550781 488.613281 461.476562 488.117188 462.375 487.582031 C 463.277344 487.046875 464.152344 486.46875 464.996094 485.851562 C 465.84375 485.230469 466.660156 484.574219 467.445312 483.878906 C 468.226562 483.1875 468.980469 482.457031 469.695312 481.691406 C 470.410156 480.925781 471.089844 480.128906 471.730469 479.300781 C 472.371094 478.472656 472.972656 477.613281 473.535156 476.730469 C 474.097656 475.84375 474.613281 474.9375 475.089844 474.003906 C 475.566406 473.070312 475.996094 472.113281 476.382812 471.140625 C 476.769531 470.167969 477.109375 469.175781 477.402344 468.171875 C 477.695312 467.164062 477.941406 466.148438 478.136719 465.121094 C 478.335938 464.089844 478.484375 463.054688 478.585938 462.011719 C 478.683594 460.96875 478.734375 459.925781 478.738281 458.875 L 478.738281 340.433594 C 478.738281 339.332031 478.683594 338.234375 478.574219 337.136719 C 478.464844 336.042969 478.304688 334.953125 478.089844 333.875 C 477.875 332.796875 477.605469 331.726562 477.285156 330.675781 C 476.964844 329.621094 476.59375 328.585938 476.171875 327.570312 C 475.75 326.550781 475.277344 325.558594 474.757812 324.589844 C 474.238281 323.617188 473.671875 322.675781 473.0625 321.757812 C 472.449219 320.84375 471.792969 319.960938 471.09375 319.109375 C 470.394531 318.261719 469.652344 317.445312 468.875 316.667969 C 468.09375 315.890625 467.28125 315.152344 466.425781 314.453125 C 465.574219 313.753906 464.691406 313.101562 463.773438 312.488281 C 462.859375 311.878906 461.914062 311.3125 460.941406 310.792969 C 459.96875 310.277344 458.976562 309.804688 457.957031 309.386719 C 456.9375 308.964844 455.902344 308.59375 454.847656 308.273438 C 453.792969 307.957031 452.726562 307.6875 451.644531 307.476562 C 450.566406 307.261719 449.476562 307.101562 448.378906 306.992188 C 447.28125 306.886719 446.183594 306.832031 445.082031 306.832031 Z M 445.082031 306.832031 " fill-opacity="1" fill-rule="nonzero"/></g><path fill="#c27f23" d="M 315.355469 458.878906 L 315.355469 340.429688 C 315.410156 334.730469 316.429688 329.207031 318.410156 323.859375 L 265.964844 323.859375 C 265.054688 323.859375 264.144531 323.902344 263.238281 323.992188 C 262.332031 324.078125 261.433594 324.210938 260.539062 324.390625 C 259.648438 324.566406 258.765625 324.789062 257.894531 325.050781 C 257.023438 325.316406 256.164062 325.621094 255.324219 325.96875 C 254.484375 326.316406 253.660156 326.707031 252.855469 327.132812 C 252.054688 327.5625 251.273438 328.027344 250.515625 328.535156 C 249.757812 329.039062 249.027344 329.582031 248.324219 330.15625 C 247.621094 330.734375 246.945312 331.34375 246.300781 331.988281 C 245.660156 332.628906 245.046875 333.304688 244.46875 334.007812 C 243.890625 334.710938 243.347656 335.441406 242.84375 336.195312 C 242.335938 336.953125 241.871094 337.730469 241.441406 338.535156 C 241.011719 339.335938 240.621094 340.15625 240.273438 340.996094 C 239.921875 341.835938 239.617188 342.691406 239.351562 343.5625 C 239.085938 344.433594 238.867188 345.316406 238.6875 346.207031 C 238.511719 347.101562 238.375 348 238.285156 348.90625 C 238.195312 349.808594 238.152344 350.71875 238.152344 351.628906 L 238.152344 449.523438 C 238.152344 450.386719 238.195312 451.25 238.277344 452.113281 C 238.363281 452.976562 238.484375 453.832031 238.648438 454.679688 C 238.8125 455.53125 239.015625 456.371094 239.257812 457.203125 C 239.5 458.035156 239.78125 458.851562 240.097656 459.65625 C 240.417969 460.464844 240.773438 461.25 241.167969 462.023438 C 241.558594 462.792969 241.988281 463.546875 242.453125 464.277344 C 242.914062 465.007812 243.414062 465.71875 243.941406 466.402344 C 244.472656 467.085938 245.035156 467.746094 245.625 468.378906 C 246.21875 469.011719 246.835938 469.613281 247.484375 470.1875 C 248.132812 470.761719 248.808594 471.304688 249.507812 471.816406 C 250.207031 472.328125 250.929688 472.804688 251.675781 473.246094 C 252.417969 473.691406 253.179688 474.097656 253.964844 474.46875 C 254.746094 474.839844 255.546875 475.175781 256.359375 475.472656 C 257.171875 475.769531 258 476.027344 258.835938 476.246094 C 259.675781 476.46875 260.523438 476.648438 261.378906 476.785156 C 262.230469 476.925781 263.09375 477.027344 263.957031 477.085938 L 263.957031 560.820312 C 263.957031 561.550781 263.992188 562.28125 264.066406 563.011719 C 264.136719 563.738281 264.246094 564.460938 264.386719 565.179688 C 264.53125 565.898438 264.710938 566.605469 264.921875 567.308594 C 265.136719 568.007812 265.382812 568.695312 265.664062 569.371094 C 265.941406 570.050781 266.257812 570.710938 266.601562 571.355469 C 266.949219 572 267.324219 572.628906 267.730469 573.234375 C 268.136719 573.84375 268.574219 574.433594 269.039062 574.996094 C 269.503906 575.5625 269.996094 576.105469 270.515625 576.621094 C 271.03125 577.140625 271.574219 577.628906 272.140625 578.09375 C 272.707031 578.558594 273.296875 578.992188 273.90625 579.398438 C 274.515625 579.808594 275.144531 580.183594 275.789062 580.527344 C 276.433594 580.871094 277.097656 581.183594 277.773438 581.464844 C 278.449219 581.742188 279.140625 581.988281 279.839844 582.203125 C 280.542969 582.414062 281.253906 582.59375 281.972656 582.734375 C 282.691406 582.875 283.414062 582.984375 284.140625 583.054688 C 284.871094 583.125 285.601562 583.164062 286.335938 583.160156 L 311.613281 583.160156 C 312.34375 583.160156 313.074219 583.125 313.804688 583.054688 C 314.535156 582.984375 315.257812 582.875 315.976562 582.734375 C 316.695312 582.589844 317.40625 582.414062 318.105469 582.203125 C 318.808594 581.988281 319.496094 581.742188 320.171875 581.464844 C 320.847656 581.183594 321.511719 580.871094 322.15625 580.527344 C 322.804688 580.179688 323.429688 579.804688 324.039062 579.398438 C 324.648438 578.992188 325.238281 578.558594 325.804688 578.09375 C 326.371094 577.628906 326.914062 577.136719 327.429688 576.621094 C 327.949219 576.101562 328.441406 575.5625 328.90625 574.996094 C 329.371094 574.429688 329.804688 573.84375 330.214844 573.234375 C 330.621094 572.625 330.996094 572 331.34375 571.355469 C 331.6875 570.707031 332 570.046875 332.28125 569.371094 C 332.5625 568.695312 332.808594 568.007812 333.023438 567.308594 C 333.234375 566.605469 333.414062 565.898438 333.554688 565.179688 C 333.699219 564.460938 333.808594 563.738281 333.878906 563.011719 C 333.953125 562.28125 333.988281 561.550781 333.988281 560.820312 L 333.988281 497.472656 C 332.542969 496.316406 331.167969 495.085938 329.859375 493.777344 C 328.554688 492.472656 327.324219 491.09375 326.171875 489.648438 C 325.019531 488.203125 323.949219 486.699219 322.964844 485.132812 C 321.980469 483.570312 321.085938 481.953125 320.28125 480.289062 C 319.480469 478.625 318.769531 476.921875 318.15625 475.179688 C 317.546875 473.433594 317.03125 471.664062 316.617188 469.859375 C 316.203125 468.058594 315.890625 466.242188 315.679688 464.40625 C 315.46875 462.570312 315.359375 460.726562 315.355469 458.878906 Z M 315.355469 458.878906 " fill-opacity="1" fill-rule="nonzero"/><path fill="#c27f23" d="M 544.328125 323.859375 L 491.878906 323.859375 C 493.859375 329.207031 494.878906 334.730469 494.9375 340.433594 L 494.9375 458.878906 C 494.929688 460.726562 494.824219 462.570312 494.613281 464.40625 C 494.402344 466.242188 494.089844 468.058594 493.675781 469.859375 C 493.257812 471.664062 492.746094 473.433594 492.132812 475.179688 C 491.519531 476.921875 490.8125 478.625 490.007812 480.289062 C 489.203125 481.953125 488.308594 483.570312 487.324219 485.132812 C 486.339844 486.699219 485.273438 488.203125 484.121094 489.648438 C 482.96875 491.09375 481.738281 492.472656 480.429688 493.777344 C 479.125 495.085938 477.746094 496.316406 476.304688 497.472656 L 476.304688 560.820312 C 476.304688 561.550781 476.339844 562.28125 476.410156 563.011719 C 476.484375 563.738281 476.589844 564.460938 476.734375 565.179688 C 476.878906 565.898438 477.054688 566.605469 477.269531 567.308594 C 477.480469 568.007812 477.730469 568.695312 478.011719 569.371094 C 478.289062 570.046875 478.605469 570.707031 478.949219 571.355469 C 479.292969 572 479.671875 572.625 480.078125 573.234375 C 480.484375 573.84375 480.921875 574.429688 481.386719 574.996094 C 481.851562 575.5625 482.34375 576.101562 482.863281 576.621094 C 483.378906 577.136719 483.921875 577.628906 484.488281 578.09375 C 485.054688 578.558594 485.644531 578.992188 486.253906 579.398438 C 486.863281 579.804688 487.488281 580.179688 488.136719 580.527344 C 488.78125 580.871094 489.445312 581.183594 490.121094 581.460938 C 490.796875 581.742188 491.488281 581.988281 492.1875 582.199219 C 492.890625 582.414062 493.597656 582.589844 494.316406 582.734375 C 495.035156 582.875 495.761719 582.980469 496.488281 583.054688 C 497.21875 583.125 497.949219 583.160156 498.683594 583.160156 L 523.960938 583.160156 C 524.695312 583.160156 525.425781 583.125 526.152344 583.054688 C 526.882812 582.980469 527.605469 582.875 528.324219 582.730469 C 529.042969 582.589844 529.753906 582.414062 530.453125 582.199219 C 531.15625 581.988281 531.84375 581.742188 532.519531 581.460938 C 533.199219 581.183594 533.859375 580.871094 534.503906 580.523438 C 535.152344 580.179688 535.78125 579.804688 536.390625 579.398438 C 537 578.992188 537.585938 578.554688 538.152344 578.09375 C 538.71875 577.628906 539.261719 577.136719 539.78125 576.621094 C 540.296875 576.101562 540.789062 575.5625 541.253906 574.996094 C 541.71875 574.429688 542.15625 573.84375 542.5625 573.234375 C 542.96875 572.625 543.347656 572 543.691406 571.355469 C 544.039062 570.707031 544.351562 570.046875 544.632812 569.371094 C 544.910156 568.695312 545.160156 568.007812 545.371094 567.308594 C 545.585938 566.605469 545.761719 565.898438 545.90625 565.179688 C 546.050781 564.460938 546.15625 563.738281 546.230469 563.011719 C 546.300781 562.28125 546.335938 561.550781 546.335938 560.820312 L 546.335938 477.085938 C 547.203125 477.027344 548.0625 476.925781 548.917969 476.785156 C 549.773438 476.648438 550.617188 476.46875 551.457031 476.246094 C 552.292969 476.027344 553.121094 475.769531 553.933594 475.472656 C 554.75 475.175781 555.546875 474.839844 556.328125 474.46875 C 557.113281 474.097656 557.875 473.691406 558.621094 473.246094 C 559.363281 472.804688 560.085938 472.328125 560.785156 471.816406 C 561.484375 471.304688 562.160156 470.761719 562.808594 470.1875 C 563.457031 469.613281 564.078125 469.011719 564.667969 468.378906 C 565.261719 467.746094 565.820312 467.085938 566.351562 466.402344 C 566.882812 465.71875 567.378906 465.007812 567.84375 464.277344 C 568.304688 463.546875 568.734375 462.792969 569.128906 462.023438 C 569.519531 461.25 569.875 460.464844 570.195312 459.65625 C 570.515625 458.851562 570.792969 458.035156 571.039062 457.203125 C 571.28125 456.371094 571.480469 455.53125 571.644531 454.679688 C 571.808594 453.832031 571.933594 452.976562 572.015625 452.113281 C 572.097656 451.25 572.140625 450.386719 572.140625 449.523438 L 572.140625 351.628906 C 572.140625 350.71875 572.097656 349.808594 572.007812 348.902344 C 571.917969 348 571.785156 347.101562 571.605469 346.207031 C 571.429688 345.316406 571.207031 344.433594 570.941406 343.5625 C 570.675781 342.691406 570.371094 341.835938 570.023438 340.996094 C 569.671875 340.15625 569.285156 339.335938 568.855469 338.53125 C 568.425781 337.730469 567.957031 336.953125 567.449219 336.195312 C 566.945312 335.4375 566.402344 334.710938 565.824219 334.007812 C 565.246094 333.304688 564.636719 332.628906 563.992188 331.988281 C 563.347656 331.34375 562.671875 330.734375 561.96875 330.15625 C 561.265625 329.578125 560.535156 329.039062 559.777344 328.535156 C 559.019531 328.027344 558.238281 327.5625 557.4375 327.132812 C 556.632812 326.703125 555.8125 326.316406 554.96875 325.96875 C 554.128906 325.621094 553.273438 325.316406 552.398438 325.050781 C 551.527344 324.789062 550.644531 324.566406 549.753906 324.390625 C 548.859375 324.210938 547.960938 324.078125 547.054688 323.992188 C 546.148438 323.902344 545.238281 323.859375 544.328125 323.859375 Z M 544.328125 323.859375 " fill-opacity="1" fill-rule="nonzero"/></svg>