<svg xmlns="http://www.w3.org/2000/svg" xmlns:xlink="http://www.w3.org/1999/xlink" width="1080" zoomAndPan="magnify" viewBox="0 0 810 809.999993" height="1080" preserveAspectRatio="xMidYMid meet" version="1.0"><defs><clipPath id="214e517d2d"><path d="M 47.238281 47.238281 L 762.738281 47.238281 L 762.738281 762.738281 L 47.238281 762.738281 Z M 47.238281 47.238281 " clip-rule="nonzero"/></clipPath><clipPath id="4535abc6bc"><path d="M 762.738281 404.988281 C 762.738281 410.84375 762.59375 416.695312 762.308594 422.542969 C 762.019531 428.390625 761.589844 434.226562 761.015625 440.054688 C 760.441406 445.882812 759.726562 451.691406 758.867188 457.480469 C 758.007812 463.273438 757.007812 469.039062 755.863281 474.78125 C 754.722656 480.523438 753.441406 486.234375 752.015625 491.914062 C 750.59375 497.59375 749.035156 503.234375 747.332031 508.835938 C 745.632812 514.441406 743.796875 520 741.824219 525.511719 C 739.851562 531.023438 737.746094 536.484375 735.507812 541.894531 C 733.265625 547.300781 730.894531 552.652344 728.390625 557.945312 C 725.886719 563.238281 723.253906 568.46875 720.496094 573.628906 C 717.734375 578.792969 714.851562 583.886719 711.839844 588.910156 C 708.832031 593.929688 705.699219 598.875 702.445312 603.742188 C 699.195312 608.613281 695.824219 613.398438 692.335938 618.101562 C 688.847656 622.800781 685.246094 627.417969 681.53125 631.941406 C 677.820312 636.46875 673.996094 640.902344 670.0625 645.238281 C 666.132812 649.578125 662.097656 653.816406 657.957031 657.957031 C 653.816406 662.097656 649.578125 666.132812 645.238281 670.0625 C 640.902344 673.996094 636.46875 677.820312 631.941406 681.53125 C 627.417969 685.246094 622.800781 688.847656 618.101562 692.335938 C 613.398438 695.824219 608.613281 699.195312 603.742188 702.445312 C 598.875 705.699219 593.929688 708.832031 588.910156 711.839844 C 583.886719 714.851562 578.792969 717.734375 573.628906 720.496094 C 568.46875 723.253906 563.238281 725.886719 557.945312 728.390625 C 552.652344 730.894531 547.300781 733.265625 541.894531 735.507812 C 536.484375 737.746094 531.023438 739.851562 525.511719 741.824219 C 520 743.796875 514.441406 745.632812 508.835938 747.332031 C 503.234375 749.035156 497.59375 750.59375 491.914062 752.015625 C 486.234375 753.441406 480.523438 754.722656 474.78125 755.863281 C 469.039062 757.007812 463.273438 758.007812 457.480469 758.867188 C 451.691406 759.726562 445.878906 760.441406 440.054688 761.015625 C 434.226562 761.589844 428.390625 762.019531 422.542969 762.308594 C 416.695312 762.59375 410.84375 762.738281 404.988281 762.738281 C 399.132812 762.738281 393.28125 762.59375 387.433594 762.308594 C 381.585938 762.019531 375.75 761.589844 369.921875 761.015625 C 364.097656 760.441406 358.289062 759.726562 352.496094 758.867188 C 346.703125 758.007812 340.9375 757.007812 335.195312 755.863281 C 329.453125 754.722656 323.742188 753.441406 318.0625 752.015625 C 312.382812 750.59375 306.742188 749.035156 301.140625 747.332031 C 295.535156 745.632812 289.980469 743.796875 284.464844 741.824219 C 278.953125 739.851562 273.492188 737.746094 268.082031 735.507812 C 262.675781 733.265625 257.324219 730.894531 252.03125 728.390625 C 246.738281 725.886719 241.511719 723.253906 236.347656 720.496094 C 231.183594 717.734375 226.089844 714.851562 221.066406 711.839844 C 216.046875 708.832031 211.101562 705.699219 206.234375 702.445312 C 201.363281 699.195312 196.578125 695.824219 191.878906 692.335938 C 187.175781 688.847656 182.558594 685.246094 178.035156 681.53125 C 173.507812 677.820312 169.078125 673.996094 164.738281 670.0625 C 160.398438 666.132812 156.160156 662.097656 152.019531 657.957031 C 147.882812 653.816406 143.84375 649.578125 139.914062 645.238281 C 135.980469 640.902344 132.160156 636.46875 128.445312 631.941406 C 124.730469 627.417969 121.128906 622.800781 117.640625 618.101562 C 114.152344 613.398438 110.78125 608.613281 107.53125 603.742188 C 104.277344 598.875 101.144531 593.929688 98.136719 588.910156 C 95.125 583.886719 92.242188 578.792969 89.480469 573.628906 C 86.722656 568.46875 84.089844 563.238281 81.585938 557.945312 C 79.082031 552.652344 76.710938 547.300781 74.46875 541.894531 C 72.230469 536.484375 70.125 531.023438 68.152344 525.511719 C 66.179688 520 64.34375 514.441406 62.644531 508.835938 C 60.945312 503.234375 59.382812 497.59375 57.960938 491.914062 C 56.539062 486.234375 55.253906 480.523438 54.113281 474.78125 C 52.96875 469.039062 51.96875 463.273438 51.109375 457.480469 C 50.25 451.691406 49.535156 445.882812 48.960938 440.054688 C 48.386719 434.226562 47.957031 428.390625 47.667969 422.542969 C 47.382812 416.695312 47.238281 410.84375 47.238281 404.988281 C 47.238281 399.132812 47.382812 393.28125 47.667969 387.433594 C 47.957031 381.585938 48.386719 375.75 48.960938 369.921875 C 49.535156 364.097656 50.25 358.289062 51.109375 352.496094 C 51.96875 346.703125 52.96875 340.9375 54.113281 335.195312 C 55.253906 329.453125 56.539062 323.742188 57.960938 318.0625 C 59.382812 312.382812 60.945312 306.742188 62.644531 301.140625 C 64.34375 295.535156 66.179688 289.980469 68.152344 284.464844 C 70.125 278.953125 72.230469 273.492188 74.46875 268.082031 C 76.710938 262.675781 79.082031 257.324219 81.585938 252.03125 C 84.089844 246.738281 86.722656 241.511719 89.480469 236.347656 C 92.242188 231.183594 95.125 226.089844 98.136719 221.066406 C 101.144531 216.046875 104.277344 211.101562 107.53125 206.234375 C 110.78125 201.363281 114.152344 196.578125 117.640625 191.878906 C 121.128906 187.175781 124.730469 182.558594 128.445312 178.035156 C 132.160156 173.507812 135.980469 169.078125 139.914062 164.738281 C 143.84375 160.398438 147.882812 156.160156 152.019531 152.019531 C 156.160156 147.882812 160.398438 143.84375 164.738281 139.914062 C 169.078125 135.980469 173.507812 132.160156 178.035156 128.445312 C 182.558594 124.730469 187.175781 121.128906 191.878906 117.640625 C 196.578125 114.152344 201.363281 110.78125 206.234375 107.53125 C 211.101562 104.277344 216.046875 101.144531 221.066406 98.136719 C 226.089844 95.125 231.183594 92.242188 236.347656 89.480469 C 241.511719 86.722656 246.738281 84.089844 252.03125 81.585938 C 257.324219 79.082031 262.675781 76.710938 268.082031 74.46875 C 273.492188 72.230469 278.953125 70.125 284.464844 68.152344 C 289.980469 66.179688 295.535156 64.34375 301.140625 62.644531 C 306.742188 60.945312 312.382812 59.382812 318.0625 57.960938 C 323.742188 56.539062 329.453125 55.253906 335.195312 54.113281 C 340.9375 52.96875 346.703125 51.96875 352.496094 51.109375 C 358.289062 50.25 364.097656 49.535156 369.921875 48.960938 C 375.75 48.386719 381.585938 47.957031 387.433594 47.667969 C 393.28125 47.382812 399.132812 47.238281 404.988281 47.238281 C 410.84375 47.238281 416.695312 47.382812 422.542969 47.667969 C 428.390625 47.957031 434.226562 48.386719 440.054688 48.960938 C 445.878906 49.535156 451.691406 50.25 457.480469 51.109375 C 463.273438 51.96875 469.039062 52.96875 474.78125 54.113281 C 480.523438 55.253906 486.234375 56.539062 491.914062 57.960938 C 497.59375 59.382812 503.234375 60.945312 508.835938 62.644531 C 514.441406 64.34375 520 66.179688 525.511719 68.152344 C 531.023438 70.125 536.484375 72.230469 541.894531 74.46875 C 547.300781 76.710938 552.652344 79.082031 557.945312 81.585938 C 563.238281 84.089844 568.46875 86.722656 573.628906 89.480469 C 578.792969 92.242188 583.886719 95.125 588.910156 98.136719 C 593.929688 101.144531 598.875 104.277344 603.742188 107.53125 C 608.613281 110.78125 613.398438 114.152344 618.101562 117.640625 C 622.800781 121.128906 627.417969 124.730469 631.941406 128.445312 C 636.46875 132.160156 640.902344 135.980469 645.238281 139.914062 C 649.578125 143.84375 653.816406 147.882812 657.957031 152.019531 C 662.097656 156.160156 666.132812 160.398438 670.0625 164.738281 C 673.996094 169.078125 677.820312 173.507812 681.53125 178.035156 C 685.246094 182.558594 688.847656 187.175781 692.335938 191.878906 C 695.824219 196.578125 699.195312 201.363281 702.445312 206.234375 C 705.699219 211.101562 708.832031 216.046875 711.839844 221.066406 C 714.851562 226.089844 717.734375 231.183594 720.496094 236.347656 C 723.253906 241.511719 725.886719 246.738281 728.390625 252.03125 C 730.894531 257.324219 733.265625 262.675781 735.507812 268.082031 C 737.746094 273.492188 739.851562 278.953125 741.824219 284.464844 C 743.796875 289.980469 745.632812 295.535156 747.332031 301.140625 C 749.035156 306.742188 750.59375 312.382812 752.015625 318.0625 C 753.441406 323.742188 754.722656 329.453125 755.863281 335.195312 C 757.007812 340.9375 758.007812 346.703125 758.867188 352.496094 C 759.726562 358.289062 760.441406 364.097656 761.015625 369.921875 C 761.589844 375.75 762.019531 381.585938 762.308594 387.433594 C 762.59375 393.28125 762.738281 399.132812 762.738281 404.988281 Z M 762.738281 404.988281 " clip-rule="nonzero"/></clipPath><linearGradient x1="-0.0000000329413" gradientTransform="matrix(11.179687, 0, 0, 11.179687, 47.238551, 47.23854)" y1="32" x2="63.999997" gradientUnits="userSpaceOnUse" y2="32" id="64185f224e"><stop stop-opacity="1" stop-color="rgb(100%, 100%, 83.499146%)" offset="0"/><stop stop-opacity="1" stop-color="rgb(100%, 99.919128%, 83.319092%)" offset="0.015625"/><stop stop-opacity="1" stop-color="rgb(100%, 99.760437%, 82.957458%)" offset="0.03125"/><stop stop-opacity="1" stop-color="rgb(100%, 99.60022%, 82.595825%)" offset="0.046875"/><stop stop-opacity="1" stop-color="rgb(100%, 99.441528%, 82.235718%)" offset="0.0625"/><stop stop-opacity="1" stop-color="rgb(100%, 99.281311%, 81.874084%)" offset="0.078125"/><stop stop-opacity="1" stop-color="rgb(100%, 99.12262%, 81.513977%)" offset="0.09375"/><stop stop-opacity="1" stop-color="rgb(100%, 98.962402%, 81.152344%)" offset="0.109375"/><stop stop-opacity="1" stop-color="rgb(100%, 98.803711%, 80.792236%)" offset="0.125"/><stop stop-opacity="1" stop-color="rgb(100%, 98.643494%, 80.430603%)" offset="0.140625"/><stop stop-opacity="1" stop-color="rgb(100%, 98.484802%, 80.070496%)" offset="0.15625"/><stop stop-opacity="1" stop-color="rgb(100%, 98.326111%, 79.708862%)" offset="0.171875"/><stop stop-opacity="1" stop-color="rgb(100%, 98.165894%, 79.348755%)" offset="0.1875"/><stop stop-opacity="1" stop-color="rgb(100%, 98.007202%, 78.987122%)" offset="0.203125"/><stop stop-opacity="1" stop-color="rgb(100%, 97.846985%, 78.625488%)" offset="0.21875"/><stop stop-opacity="1" stop-color="rgb(100%, 97.688293%, 78.265381%)" offset="0.234375"/><stop stop-opacity="1" stop-color="rgb(100%, 97.528076%, 77.903748%)" offset="0.25"/><stop stop-opacity="1" stop-color="rgb(100%, 97.369385%, 77.54364%)" offset="0.265625"/><stop stop-opacity="1" stop-color="rgb(100%, 97.209167%, 77.182007%)" offset="0.28125"/><stop stop-opacity="1" stop-color="rgb(100%, 97.050476%, 76.821899%)" offset="0.296875"/><stop stop-opacity="1" stop-color="rgb(100%, 96.891785%, 76.460266%)" offset="0.3125"/><stop stop-opacity="1" stop-color="rgb(100%, 96.731567%, 76.100159%)" offset="0.328125"/><stop stop-opacity="1" stop-color="rgb(100%, 96.572876%, 75.738525%)" offset="0.34375"/><stop stop-opacity="1" stop-color="rgb(100%, 96.412659%, 75.378418%)" offset="0.359375"/><stop stop-opacity="1" stop-color="rgb(100%, 96.253967%, 75.016785%)" offset="0.375"/><stop stop-opacity="1" stop-color="rgb(100%, 96.09375%, 74.655151%)" offset="0.390625"/><stop stop-opacity="1" stop-color="rgb(100%, 95.935059%, 74.295044%)" offset="0.40625"/><stop stop-opacity="1" stop-color="rgb(100%, 95.774841%, 73.933411%)" offset="0.421875"/><stop stop-opacity="1" stop-color="rgb(100%, 95.61615%, 73.573303%)" offset="0.4375"/><stop stop-opacity="1" stop-color="rgb(100%, 95.457458%, 73.21167%)" offset="0.453125"/><stop stop-opacity="1" stop-color="rgb(100%, 95.297241%, 72.851562%)" offset="0.46875"/><stop stop-opacity="1" stop-color="rgb(100%, 95.13855%, 72.489929%)" offset="0.484375"/><stop stop-opacity="1" stop-color="rgb(100%, 94.978333%, 72.129822%)" offset="0.5"/><stop stop-opacity="1" stop-color="rgb(100%, 94.819641%, 71.768188%)" offset="0.515625"/><stop stop-opacity="1" stop-color="rgb(100%, 94.659424%, 71.408081%)" offset="0.53125"/><stop stop-opacity="1" stop-color="rgb(100%, 94.500732%, 71.046448%)" offset="0.546875"/><stop stop-opacity="1" stop-color="rgb(100%, 94.340515%, 70.684814%)" offset="0.5625"/><stop stop-opacity="1" stop-color="rgb(100%, 94.181824%, 70.324707%)" offset="0.578125"/><stop stop-opacity="1" stop-color="rgb(100%, 94.021606%, 69.963074%)" offset="0.59375"/><stop stop-opacity="1" stop-color="rgb(100%, 93.862915%, 69.602966%)" offset="0.609375"/><stop stop-opacity="1" stop-color="rgb(100%, 93.704224%, 69.241333%)" offset="0.625"/><stop stop-opacity="1" stop-color="rgb(100%, 93.544006%, 68.881226%)" offset="0.640625"/><stop stop-opacity="1" stop-color="rgb(100%, 93.385315%, 68.519592%)" offset="0.65625"/><stop stop-opacity="1" stop-color="rgb(100%, 93.225098%, 68.159485%)" offset="0.671875"/><stop stop-opacity="1" stop-color="rgb(100%, 93.066406%, 67.797852%)" offset="0.6875"/><stop stop-opacity="1" stop-color="rgb(100%, 92.906189%, 67.437744%)" offset="0.703125"/><stop stop-opacity="1" stop-color="rgb(100%, 92.747498%, 67.076111%)" offset="0.71875"/><stop stop-opacity="1" stop-color="rgb(100%, 92.58728%, 66.714478%)" offset="0.734375"/><stop stop-opacity="1" stop-color="rgb(100%, 92.428589%, 66.35437%)" offset="0.75"/><stop stop-opacity="1" stop-color="rgb(100%, 92.269897%, 65.992737%)" offset="0.765625"/><stop stop-opacity="1" stop-color="rgb(100%, 92.10968%, 65.632629%)" offset="0.78125"/><stop stop-opacity="1" stop-color="rgb(100%, 91.950989%, 65.270996%)" offset="0.796875"/><stop stop-opacity="1" stop-color="rgb(100%, 91.790771%, 64.910889%)" offset="0.8125"/><stop stop-opacity="1" stop-color="rgb(100%, 91.63208%, 64.549255%)" offset="0.828125"/><stop stop-opacity="1" stop-color="rgb(100%, 91.471863%, 64.189148%)" offset="0.84375"/><stop stop-opacity="1" stop-color="rgb(100%, 91.313171%, 63.827515%)" offset="0.859375"/><stop stop-opacity="1" stop-color="rgb(100%, 91.152954%, 63.467407%)" offset="0.875"/><stop stop-opacity="1" stop-color="rgb(100%, 90.994263%, 63.105774%)" offset="0.890625"/><stop stop-opacity="1" stop-color="rgb(100%, 90.835571%, 62.745667%)" offset="0.90625"/><stop stop-opacity="1" stop-color="rgb(100%, 90.675354%, 62.384033%)" offset="0.921875"/><stop stop-opacity="1" stop-color="rgb(100%, 90.516663%, 62.0224%)" offset="0.9375"/><stop stop-opacity="1" stop-color="rgb(100%, 90.356445%, 61.662292%)" offset="0.953125"/><stop stop-opacity="1" stop-color="rgb(100%, 90.197754%, 61.300659%)" offset="0.96875"/><stop stop-opacity="1" stop-color="rgb(100%, 90.037537%, 60.940552%)" offset="0.984375"/><stop stop-opacity="1" stop-color="rgb(100%, 89.878845%, 60.578918%)" offset="1"/></linearGradient><clipPath id="d7fe66e068"><path d="M 239 181 L 571 181 L 571 629 L 239 629 Z M 239 181 " clip-rule="nonzero"/></clipPath><clipPath id="e6741180cc"><path d="M 569.40625 550.785156 L 546.386719 344.164062 C 546.21875 342.707031 545.996094 341.253906 545.722656 339.808594 C 545.445312 338.363281 545.121094 336.929688 544.742188 335.511719 C 544.359375 334.089844 543.929688 332.683594 543.449219 331.296875 C 542.96875 329.90625 542.4375 328.539062 541.855469 327.1875 C 541.273438 325.835938 540.640625 324.507812 539.964844 323.203125 C 539.285156 321.902344 538.558594 320.621094 537.789062 319.371094 C 537.015625 318.121094 536.199219 316.898438 535.335938 315.707031 C 534.476562 314.515625 533.574219 313.355469 532.628906 312.230469 C 531.679688 311.105469 530.695312 310.015625 529.671875 308.960938 C 528.644531 307.90625 527.582031 306.890625 526.484375 305.914062 C 525.382812 304.941406 524.25 304.003906 523.082031 303.113281 C 521.914062 302.21875 520.714844 301.367188 519.484375 300.5625 C 518.257812 299.757812 517 298.996094 515.714844 298.28125 C 514.429688 297.566406 513.117188 296.902344 511.785156 296.285156 C 510.449219 295.664062 509.097656 295.097656 507.722656 294.578125 C 506.34375 294.058594 504.953125 293.589844 503.542969 293.171875 C 498.324219 291.640625 492.996094 290.894531 487.558594 290.933594 L 487.558594 263.753906 C 483.09375 154.46875 326.964844 154.207031 322.417969 263.757812 L 322.417969 290.933594 L 321.941406 290.933594 C 320.144531 290.972656 318.355469 291.09375 316.570312 291.296875 C 314.785156 291.496094 313.011719 291.777344 311.25 292.140625 C 309.492188 292.5 307.75 292.9375 306.03125 293.457031 C 304.308594 293.972656 302.617188 294.5625 300.949219 295.234375 C 299.28125 295.902344 297.644531 296.644531 296.046875 297.457031 C 294.445312 298.273438 292.882812 299.15625 291.359375 300.113281 C 289.839844 301.066406 288.363281 302.089844 286.933594 303.175781 C 285.503906 304.261719 284.125 305.414062 282.796875 306.625 C 281.46875 307.832031 280.199219 309.101562 278.988281 310.425781 C 277.773438 311.75 276.621094 313.128906 275.53125 314.554688 C 274.441406 315.984375 273.417969 317.457031 272.460938 318.976562 C 271.5 320.496094 270.613281 322.054688 269.792969 323.65625 C 268.976562 325.253906 268.230469 326.886719 267.558594 328.554688 C 266.886719 330.21875 266.292969 331.914062 265.773438 333.632812 C 265.25 335.351562 264.808594 337.089844 264.445312 338.851562 C 264.082031 340.609375 263.796875 342.382812 263.589844 344.164062 L 240.570312 550.785156 C 235.539062 588.949219 259.46875 628.835938 298.761719 628.878906 L 511.214844 628.878906 C 550.5 628.804688 574.4375 588.964844 569.40625 550.785156 Z M 338.40625 263.753906 C 342.589844 174.527344 468.648438 175.894531 471.570312 265.984375 L 471.570312 290.933594 L 354.390625 290.933594 L 354.390625 334.175781 C 354.386719 334.695312 354.332031 335.210938 354.222656 335.722656 C 354.117188 336.234375 353.964844 336.726562 353.761719 337.207031 C 353.554688 337.6875 353.308594 338.144531 353.015625 338.574219 C 352.722656 339.007812 352.390625 339.40625 352.023438 339.773438 C 351.652344 340.140625 351.25 340.464844 350.8125 340.753906 C 350.378906 341.042969 349.921875 341.285156 349.4375 341.484375 C 348.957031 341.683594 348.460938 341.832031 347.949219 341.933594 C 347.4375 342.035156 346.921875 342.085938 346.398438 342.085938 C 345.878906 342.085938 345.363281 342.035156 344.851562 341.933594 C 344.339844 341.832031 343.839844 341.683594 343.359375 341.484375 C 342.878906 341.285156 342.417969 341.042969 341.984375 340.753906 C 341.550781 340.464844 341.148438 340.140625 340.777344 339.773438 C 340.40625 339.40625 340.074219 339.007812 339.78125 338.574219 C 339.488281 338.144531 339.242188 337.6875 339.039062 337.207031 C 338.835938 336.726562 338.679688 336.234375 338.574219 335.722656 C 338.46875 335.210938 338.410156 334.695312 338.40625 334.175781 Z M 420.09375 521.851562 C 418.964844 522.542969 417.789062 523.15625 416.574219 523.6875 C 415.359375 524.21875 414.113281 524.664062 412.835938 525.023438 C 411.558594 525.382812 410.261719 525.652344 408.949219 525.832031 C 407.636719 526.015625 406.316406 526.105469 404.988281 526.105469 C 403.660156 526.105469 402.339844 526.015625 401.027344 525.832031 C 399.714844 525.652344 398.417969 525.382812 397.140625 525.023438 C 395.863281 524.664062 394.617188 524.21875 393.402344 523.6875 C 392.1875 523.15625 391.011719 522.542969 389.882812 521.851562 C 314.261719 475.953125 309.289062 414.648438 357.109375 395.640625 C 359.207031 395.019531 361.335938 394.550781 363.5 394.230469 C 365.660156 393.90625 367.835938 393.738281 370.023438 393.722656 C 372.210938 393.707031 374.386719 393.839844 376.554688 394.128906 C 378.722656 394.417969 380.859375 394.855469 382.964844 395.441406 C 385.070312 396.03125 387.125 396.761719 389.128906 397.636719 C 391.132812 398.511719 393.066406 399.519531 394.929688 400.667969 C 396.792969 401.8125 398.566406 403.082031 400.25 404.476562 C 401.933594 405.871094 403.515625 407.375 404.988281 408.988281 C 406.460938 407.375 408.042969 405.871094 409.726562 404.476562 C 411.410156 403.082031 413.183594 401.8125 415.046875 400.667969 C 416.910156 399.519531 418.84375 398.511719 420.847656 397.636719 C 422.851562 396.761719 424.90625 396.03125 427.011719 395.441406 C 429.117188 394.855469 431.253906 394.417969 433.421875 394.128906 C 435.589844 393.84375 437.765625 393.707031 439.953125 393.722656 C 442.140625 393.738281 444.3125 393.910156 446.476562 394.230469 C 448.640625 394.550781 450.769531 395.023438 452.867188 395.640625 C 500.6875 414.640625 495.714844 475.949219 420.09375 521.851562 Z M 411.703125 508.261719 C 410.695312 508.890625 409.621094 509.367188 408.480469 509.691406 C 407.339844 510.019531 406.175781 510.179688 404.988281 510.179688 C 403.800781 510.179688 402.636719 510.019531 401.496094 509.691406 C 400.355469 509.367188 399.28125 508.890625 398.273438 508.261719 C 343.921875 474.773438 341.203125 445.597656 342.644531 434.566406 C 342.730469 433.726562 342.859375 432.886719 343.023438 432.058594 C 343.1875 431.226562 343.390625 430.40625 343.628906 429.59375 C 343.871094 428.78125 344.148438 427.980469 344.460938 427.195312 C 344.773438 426.40625 345.121094 425.636719 345.503906 424.878906 C 345.886719 424.125 346.304688 423.386719 346.753906 422.671875 C 347.203125 421.953125 347.6875 421.257812 348.199219 420.585938 C 348.714844 419.910156 349.257812 419.261719 349.832031 418.640625 C 350.402344 418.015625 351.003906 417.417969 351.628906 416.851562 C 352.257812 416.28125 352.910156 415.742188 353.585938 415.230469 C 354.261719 414.722656 354.960938 414.246094 355.683594 413.800781 C 356.402344 413.351562 357.140625 412.941406 357.898438 412.5625 C 358.65625 412.183594 359.429688 411.839844 360.21875 411.535156 C 361.007812 411.226562 361.808594 410.953125 362.625 410.71875 C 363.4375 410.484375 364.261719 410.289062 365.09375 410.128906 C 365.921875 409.96875 366.761719 409.847656 367.605469 409.761719 C 368.445312 409.679688 369.292969 409.636719 370.140625 409.628906 C 372.546875 409.710938 374.917969 410.046875 377.253906 410.632812 C 379.589844 411.214844 381.839844 412.039062 384.003906 413.097656 C 386.167969 414.160156 388.195312 415.433594 390.089844 416.925781 C 391.980469 418.414062 393.699219 420.085938 395.238281 421.9375 C 395.875 422.582031 396.570312 423.160156 397.320312 423.667969 C 398.074219 424.175781 398.867188 424.605469 399.703125 424.953125 C 400.539062 425.304688 401.402344 425.566406 402.292969 425.746094 C 403.183594 425.925781 404.082031 426.015625 404.988281 426.015625 C 405.894531 426.015625 406.792969 425.925781 407.683594 425.746094 C 408.574219 425.566406 409.4375 425.304688 410.273438 424.953125 C 411.109375 424.605469 411.90625 424.175781 412.65625 423.667969 C 413.40625 423.160156 414.101562 422.582031 414.738281 421.9375 C 415.699219 420.71875 416.742188 419.574219 417.871094 418.507812 C 419 417.441406 420.199219 416.460938 421.46875 415.570312 C 422.742188 414.679688 424.070312 413.886719 425.457031 413.1875 C 426.84375 412.492188 428.273438 411.898438 429.746094 411.410156 C 431.222656 410.925781 432.722656 410.546875 434.25 410.277344 C 435.78125 410.011719 437.320312 409.855469 438.871094 409.8125 C 440.421875 409.769531 441.96875 409.839844 443.511719 410.023438 C 445.054688 410.207031 446.574219 410.5 448.070312 410.90625 C 482.25 425.148438 473.429688 470.773438 411.703125 508.261719 Z M 411.703125 508.261719 " clip-rule="nonzero"/></clipPath><linearGradient x1="16.843188" gradientTransform="matrix(11.179687, 0, 0, 11.179687, 47.238551, 47.23854)" y1="32.027" x2="47.156736" gradientUnits="userSpaceOnUse" y2="32.027" id="7e90b90a01"><stop stop-opacity="1" stop-color="rgb(100%, 87.098694%, 0%)" offset="0"/><stop stop-opacity="1" stop-color="rgb(99.998474%, 87.025452%, 0%)" offset="0.015625"/><stop stop-opacity="1" stop-color="rgb(99.993896%, 86.743164%, 0%)" offset="0.0195312"/><stop stop-opacity="1" stop-color="rgb(99.990845%, 86.534119%, 0%)" offset="0.0234375"/><stop stop-opacity="1" stop-color="rgb(99.987793%, 86.325073%, 0%)" offset="0.0273438"/><stop stop-opacity="1" stop-color="rgb(99.984741%, 86.116028%, 0%)" offset="0.03125"/><stop stop-opacity="1" stop-color="rgb(99.980164%, 85.905457%, 0%)" offset="0.0351562"/><stop stop-opacity="1" stop-color="rgb(99.977112%, 85.696411%, 0%)" offset="0.0390625"/><stop stop-opacity="1" stop-color="rgb(99.97406%, 85.487366%, 0%)" offset="0.0429688"/><stop stop-opacity="1" stop-color="rgb(99.971008%, 85.27832%, 0%)" offset="0.046875"/><stop stop-opacity="1" stop-color="rgb(99.967957%, 85.069275%, 0%)" offset="0.0507812"/><stop stop-opacity="1" stop-color="rgb(99.964905%, 84.860229%, 0%)" offset="0.0546875"/><stop stop-opacity="1" stop-color="rgb(99.961853%, 84.649658%, 0%)" offset="0.0585938"/><stop stop-opacity="1" stop-color="rgb(99.958801%, 84.440613%, 0%)" offset="0.0625"/><stop stop-opacity="1" stop-color="rgb(99.95575%, 84.231567%, 0%)" offset="0.0664062"/><stop stop-opacity="1" stop-color="rgb(99.952698%, 84.022522%, 0%)" offset="0.0703125"/><stop stop-opacity="1" stop-color="rgb(99.94812%, 83.813477%, 0%)" offset="0.0742187"/><stop stop-opacity="1" stop-color="rgb(99.945068%, 83.604431%, 0%)" offset="0.078125"/><stop stop-opacity="1" stop-color="rgb(99.942017%, 83.39386%, 0%)" offset="0.0820312"/><stop stop-opacity="1" stop-color="rgb(99.938965%, 83.184814%, 0%)" offset="0.0859375"/><stop stop-opacity="1" stop-color="rgb(99.935913%, 82.975769%, 0%)" offset="0.0898437"/><stop stop-opacity="1" stop-color="rgb(99.932861%, 82.766724%, 0%)" offset="0.09375"/><stop stop-opacity="1" stop-color="rgb(99.92981%, 82.557678%, 0%)" offset="0.0976562"/><stop stop-opacity="1" stop-color="rgb(99.926758%, 82.348633%, 0%)" offset="0.101562"/><stop stop-opacity="1" stop-color="rgb(99.923706%, 82.138062%, 0%)" offset="0.105469"/><stop stop-opacity="1" stop-color="rgb(99.920654%, 81.929016%, 0%)" offset="0.109375"/><stop stop-opacity="1" stop-color="rgb(99.916077%, 81.719971%, 0%)" offset="0.113281"/><stop stop-opacity="1" stop-color="rgb(99.913025%, 81.510925%, 0%)" offset="0.117187"/><stop stop-opacity="1" stop-color="rgb(99.909973%, 81.30188%, 0%)" offset="0.121094"/><stop stop-opacity="1" stop-color="rgb(99.906921%, 81.092834%, 0%)" offset="0.125"/><stop stop-opacity="1" stop-color="rgb(99.90387%, 80.882263%, 0%)" offset="0.128906"/><stop stop-opacity="1" stop-color="rgb(99.900818%, 80.673218%, 0%)" offset="0.132812"/><stop stop-opacity="1" stop-color="rgb(99.897766%, 80.464172%, 0%)" offset="0.136719"/><stop stop-opacity="1" stop-color="rgb(99.894714%, 80.255127%, 0%)" offset="0.140625"/><stop stop-opacity="1" stop-color="rgb(99.891663%, 80.046082%, 0%)" offset="0.144531"/><stop stop-opacity="1" stop-color="rgb(99.888611%, 79.837036%, 0%)" offset="0.148438"/><stop stop-opacity="1" stop-color="rgb(99.884033%, 79.626465%, 0%)" offset="0.152344"/><stop stop-opacity="1" stop-color="rgb(99.880981%, 79.417419%, 0%)" offset="0.15625"/><stop stop-opacity="1" stop-color="rgb(99.87793%, 79.208374%, 0%)" offset="0.160156"/><stop stop-opacity="1" stop-color="rgb(99.874878%, 78.999329%, 0%)" offset="0.164062"/><stop stop-opacity="1" stop-color="rgb(99.871826%, 78.790283%, 0%)" offset="0.167969"/><stop stop-opacity="1" stop-color="rgb(99.868774%, 78.581238%, 0%)" offset="0.171875"/><stop stop-opacity="1" stop-color="rgb(99.865723%, 78.370667%, 0%)" offset="0.175781"/><stop stop-opacity="1" stop-color="rgb(99.862671%, 78.161621%, 0%)" offset="0.179688"/><stop stop-opacity="1" stop-color="rgb(99.859619%, 77.952576%, 0%)" offset="0.183594"/><stop stop-opacity="1" stop-color="rgb(99.856567%, 77.74353%, 0%)" offset="0.1875"/><stop stop-opacity="1" stop-color="rgb(99.85199%, 77.534485%, 0%)" offset="0.191406"/><stop stop-opacity="1" stop-color="rgb(99.848938%, 77.325439%, 0%)" offset="0.195312"/><stop stop-opacity="1" stop-color="rgb(99.845886%, 77.114868%, 0%)" offset="0.199219"/><stop stop-opacity="1" stop-color="rgb(99.842834%, 76.905823%, 0%)" offset="0.203125"/><stop stop-opacity="1" stop-color="rgb(99.839783%, 76.696777%, 0%)" offset="0.207031"/><stop stop-opacity="1" stop-color="rgb(99.836731%, 76.487732%, 0%)" offset="0.210938"/><stop stop-opacity="1" stop-color="rgb(99.833679%, 76.278687%, 0%)" offset="0.214844"/><stop stop-opacity="1" stop-color="rgb(99.830627%, 76.069641%, 0%)" offset="0.21875"/><stop stop-opacity="1" stop-color="rgb(99.827576%, 75.85907%, 0%)" offset="0.222656"/><stop stop-opacity="1" stop-color="rgb(99.824524%, 75.650024%, 0%)" offset="0.226562"/><stop stop-opacity="1" stop-color="rgb(99.819946%, 75.440979%, 0%)" offset="0.230469"/><stop stop-opacity="1" stop-color="rgb(99.816895%, 75.231934%, 0%)" offset="0.234375"/><stop stop-opacity="1" stop-color="rgb(99.813843%, 75.022888%, 0%)" offset="0.238281"/><stop stop-opacity="1" stop-color="rgb(99.810791%, 74.813843%, 0%)" offset="0.242188"/><stop stop-opacity="1" stop-color="rgb(99.807739%, 74.603271%, 0%)" offset="0.246094"/><stop stop-opacity="1" stop-color="rgb(99.804688%, 74.394226%, 0%)" offset="0.25"/><stop stop-opacity="1" stop-color="rgb(99.801636%, 74.185181%, 0%)" offset="0.253906"/><stop stop-opacity="1" stop-color="rgb(99.798584%, 73.976135%, 0%)" offset="0.257813"/><stop stop-opacity="1" stop-color="rgb(99.794006%, 73.76709%, 0%)" offset="0.261719"/><stop stop-opacity="1" stop-color="rgb(99.790955%, 73.558044%, 0%)" offset="0.265625"/><stop stop-opacity="1" stop-color="rgb(99.787903%, 73.347473%, 0%)" offset="0.269531"/><stop stop-opacity="1" stop-color="rgb(99.784851%, 73.138428%, 0%)" offset="0.273438"/><stop stop-opacity="1" stop-color="rgb(99.781799%, 72.929382%, 0%)" offset="0.277344"/><stop stop-opacity="1" stop-color="rgb(99.778748%, 72.720337%, 0%)" offset="0.28125"/><stop stop-opacity="1" stop-color="rgb(99.775696%, 72.511292%, 0%)" offset="0.285156"/><stop stop-opacity="1" stop-color="rgb(99.772644%, 72.302246%, 0%)" offset="0.289062"/><stop stop-opacity="1" stop-color="rgb(99.769592%, 72.091675%, 0%)" offset="0.292969"/><stop stop-opacity="1" stop-color="rgb(99.766541%, 71.882629%, 0%)" offset="0.296875"/><stop stop-opacity="1" stop-color="rgb(99.761963%, 71.673584%, 0%)" offset="0.300781"/><stop stop-opacity="1" stop-color="rgb(99.758911%, 71.464539%, 0%)" offset="0.304688"/><stop stop-opacity="1" stop-color="rgb(99.755859%, 71.255493%, 0%)" offset="0.308594"/><stop stop-opacity="1" stop-color="rgb(99.752808%, 71.046448%, 0%)" offset="0.3125"/><stop stop-opacity="1" stop-color="rgb(99.749756%, 70.835876%, 0%)" offset="0.316406"/><stop stop-opacity="1" stop-color="rgb(99.746704%, 70.626831%, 0%)" offset="0.320312"/><stop stop-opacity="1" stop-color="rgb(99.743652%, 70.417786%, 0%)" offset="0.324219"/><stop stop-opacity="1" stop-color="rgb(99.740601%, 70.20874%, 0%)" offset="0.328125"/><stop stop-opacity="1" stop-color="rgb(99.737549%, 69.999695%, 0%)" offset="0.332031"/><stop stop-opacity="1" stop-color="rgb(99.734497%, 69.790649%, 0%)" offset="0.335938"/><stop stop-opacity="1" stop-color="rgb(99.729919%, 69.580078%, 0%)" offset="0.339844"/><stop stop-opacity="1" stop-color="rgb(99.726868%, 69.371033%, 0%)" offset="0.34375"/><stop stop-opacity="1" stop-color="rgb(99.723816%, 69.161987%, 0%)" offset="0.347656"/><stop stop-opacity="1" stop-color="rgb(99.720764%, 68.952942%, 0%)" offset="0.351563"/><stop stop-opacity="1" stop-color="rgb(99.717712%, 68.743896%, 0%)" offset="0.355469"/><stop stop-opacity="1" stop-color="rgb(99.714661%, 68.534851%, 0%)" offset="0.359375"/><stop stop-opacity="1" stop-color="rgb(99.711609%, 68.32428%, 0%)" offset="0.363281"/><stop stop-opacity="1" stop-color="rgb(99.708557%, 68.115234%, 0%)" offset="0.367188"/><stop stop-opacity="1" stop-color="rgb(99.705505%, 67.906189%, 0%)" offset="0.371094"/><stop stop-opacity="1" stop-color="rgb(99.702454%, 67.697144%, 0%)" offset="0.375"/><stop stop-opacity="1" stop-color="rgb(99.697876%, 67.488098%, 0%)" offset="0.378906"/><stop stop-opacity="1" stop-color="rgb(99.694824%, 67.279053%, 0%)" offset="0.382812"/><stop stop-opacity="1" stop-color="rgb(99.691772%, 67.068481%, 0%)" offset="0.386719"/><stop stop-opacity="1" stop-color="rgb(99.688721%, 66.859436%, 0%)" offset="0.390625"/><stop stop-opacity="1" stop-color="rgb(99.685669%, 66.650391%, 0%)" offset="0.394531"/><stop stop-opacity="1" stop-color="rgb(99.682617%, 66.441345%, 0%)" offset="0.398437"/><stop stop-opacity="1" stop-color="rgb(99.679565%, 66.2323%, 0%)" offset="0.402344"/><stop stop-opacity="1" stop-color="rgb(99.676514%, 66.023254%, 0%)" offset="0.40625"/><stop stop-opacity="1" stop-color="rgb(99.673462%, 65.812683%, 0%)" offset="0.410156"/><stop stop-opacity="1" stop-color="rgb(99.67041%, 65.603638%, 0%)" offset="0.414062"/><stop stop-opacity="1" stop-color="rgb(99.665833%, 65.394592%, 0%)" offset="0.417969"/><stop stop-opacity="1" stop-color="rgb(99.662781%, 65.185547%, 0%)" offset="0.421875"/><stop stop-opacity="1" stop-color="rgb(99.659729%, 64.976501%, 0%)" offset="0.425781"/><stop stop-opacity="1" stop-color="rgb(99.656677%, 64.767456%, 0%)" offset="0.429688"/><stop stop-opacity="1" stop-color="rgb(99.653625%, 64.556885%, 0%)" offset="0.433594"/><stop stop-opacity="1" stop-color="rgb(99.650574%, 64.347839%, 0%)" offset="0.4375"/><stop stop-opacity="1" stop-color="rgb(99.647522%, 64.138794%, 0%)" offset="0.441406"/><stop stop-opacity="1" stop-color="rgb(99.64447%, 63.929749%, 0%)" offset="0.445312"/><stop stop-opacity="1" stop-color="rgb(99.641418%, 63.720703%, 0%)" offset="0.449219"/><stop stop-opacity="1" stop-color="rgb(99.638367%, 63.511658%, 0%)" offset="0.453125"/><stop stop-opacity="1" stop-color="rgb(99.633789%, 63.301086%, 0%)" offset="0.457031"/><stop stop-opacity="1" stop-color="rgb(99.630737%, 63.092041%, 0%)" offset="0.460938"/><stop stop-opacity="1" stop-color="rgb(99.627686%, 62.882996%, 0%)" offset="0.464844"/><stop stop-opacity="1" stop-color="rgb(99.624634%, 62.67395%, 0%)" offset="0.46875"/><stop stop-opacity="1" stop-color="rgb(99.621582%, 62.464905%, 0%)" offset="0.472656"/><stop stop-opacity="1" stop-color="rgb(99.61853%, 62.255859%, 0%)" offset="0.476562"/><stop stop-opacity="1" stop-color="rgb(99.615479%, 62.045288%, 0%)" offset="0.480469"/><stop stop-opacity="1" stop-color="rgb(99.612427%, 61.836243%, 0%)" offset="0.484375"/><stop stop-opacity="1" stop-color="rgb(99.609375%, 61.627197%, 0%)" offset="0.488281"/><stop stop-opacity="1" stop-color="rgb(99.606323%, 61.418152%, 0%)" offset="0.492187"/><stop stop-opacity="1" stop-color="rgb(99.601746%, 61.209106%, 0%)" offset="0.496094"/><stop stop-opacity="1" stop-color="rgb(99.598694%, 61.000061%, 0%)" offset="0.5"/><stop stop-opacity="1" stop-color="rgb(99.595642%, 60.78949%, 0%)" offset="0.503906"/><stop stop-opacity="1" stop-color="rgb(99.59259%, 60.580444%, 0%)" offset="0.507812"/><stop stop-opacity="1" stop-color="rgb(99.589539%, 60.371399%, 0%)" offset="0.511719"/><stop stop-opacity="1" stop-color="rgb(99.586487%, 60.162354%, 0%)" offset="0.515625"/><stop stop-opacity="1" stop-color="rgb(99.583435%, 59.951782%, 0%)" offset="0.519531"/><stop stop-opacity="1" stop-color="rgb(99.580383%, 59.742737%, 0%)" offset="0.523438"/><stop stop-opacity="1" stop-color="rgb(99.577332%, 59.533691%, 0%)" offset="0.527344"/><stop stop-opacity="1" stop-color="rgb(99.57428%, 59.324646%, 0%)" offset="0.53125"/><stop stop-opacity="1" stop-color="rgb(99.569702%, 59.115601%, 0%)" offset="0.535156"/><stop stop-opacity="1" stop-color="rgb(99.56665%, 58.906555%, 0%)" offset="0.539062"/><stop stop-opacity="1" stop-color="rgb(99.563599%, 58.695984%, 0%)" offset="0.542969"/><stop stop-opacity="1" stop-color="rgb(99.560547%, 58.486938%, 0%)" offset="0.546875"/><stop stop-opacity="1" stop-color="rgb(99.557495%, 58.277893%, 0%)" offset="0.550781"/><stop stop-opacity="1" stop-color="rgb(99.554443%, 58.068848%, 0%)" offset="0.554688"/><stop stop-opacity="1" stop-color="rgb(99.551392%, 57.859802%, 0%)" offset="0.558594"/><stop stop-opacity="1" stop-color="rgb(99.54834%, 57.650757%, 0%)" offset="0.5625"/><stop stop-opacity="1" stop-color="rgb(99.545288%, 57.440186%, 0%)" offset="0.566406"/><stop stop-opacity="1" stop-color="rgb(99.542236%, 57.23114%, 0%)" offset="0.570312"/><stop stop-opacity="1" stop-color="rgb(99.537659%, 57.022095%, 0%)" offset="0.574219"/><stop stop-opacity="1" stop-color="rgb(99.534607%, 56.813049%, 0%)" offset="0.578125"/><stop stop-opacity="1" stop-color="rgb(99.531555%, 56.604004%, 0%)" offset="0.582031"/><stop stop-opacity="1" stop-color="rgb(99.528503%, 56.394958%, 0%)" offset="0.585937"/><stop stop-opacity="1" stop-color="rgb(99.525452%, 56.184387%, 0%)" offset="0.589844"/><stop stop-opacity="1" stop-color="rgb(99.5224%, 55.975342%, 0%)" offset="0.59375"/><stop stop-opacity="1" stop-color="rgb(99.519348%, 55.766296%, 0%)" offset="0.597656"/><stop stop-opacity="1" stop-color="rgb(99.516296%, 55.557251%, 0%)" offset="0.601562"/><stop stop-opacity="1" stop-color="rgb(99.511719%, 55.348206%, 0%)" offset="0.605469"/><stop stop-opacity="1" stop-color="rgb(99.508667%, 55.13916%, 0%)" offset="0.609375"/><stop stop-opacity="1" stop-color="rgb(99.505615%, 54.928589%, 0%)" offset="0.613281"/><stop stop-opacity="1" stop-color="rgb(99.502563%, 54.719543%, 0%)" offset="0.617187"/><stop stop-opacity="1" stop-color="rgb(99.499512%, 54.510498%, 0%)" offset="0.621094"/><stop stop-opacity="1" stop-color="rgb(99.49646%, 54.301453%, 0%)" offset="0.625"/><stop stop-opacity="1" stop-color="rgb(99.493408%, 54.092407%, 0%)" offset="0.628906"/><stop stop-opacity="1" stop-color="rgb(99.490356%, 53.883362%, 0%)" offset="0.632812"/><stop stop-opacity="1" stop-color="rgb(99.487305%, 53.672791%, 0%)" offset="0.636719"/><stop stop-opacity="1" stop-color="rgb(99.484253%, 53.463745%, 0%)" offset="0.640625"/><stop stop-opacity="1" stop-color="rgb(99.479675%, 53.2547%, 0%)" offset="0.644531"/><stop stop-opacity="1" stop-color="rgb(99.476624%, 53.045654%, 0%)" offset="0.648438"/><stop stop-opacity="1" stop-color="rgb(99.473572%, 52.836609%, 0%)" offset="0.652344"/><stop stop-opacity="1" stop-color="rgb(99.47052%, 52.627563%, 0%)" offset="0.65625"/><stop stop-opacity="1" stop-color="rgb(99.467468%, 52.416992%, 0%)" offset="0.660156"/><stop stop-opacity="1" stop-color="rgb(99.464417%, 52.207947%, 0%)" offset="0.664062"/><stop stop-opacity="1" stop-color="rgb(99.461365%, 51.998901%, 0%)" offset="0.667969"/><stop stop-opacity="1" stop-color="rgb(99.458313%, 51.789856%, 0%)" offset="0.671875"/><stop stop-opacity="1" stop-color="rgb(99.455261%, 51.580811%, 0%)" offset="0.675781"/><stop stop-opacity="1" stop-color="rgb(99.452209%, 51.371765%, 0%)" offset="0.679687"/><stop stop-opacity="1" stop-color="rgb(99.447632%, 51.161194%, 0%)" offset="0.683594"/><stop stop-opacity="1" stop-color="rgb(99.44458%, 50.952148%, 0%)" offset="0.6875"/><stop stop-opacity="1" stop-color="rgb(99.441528%, 50.743103%, 0%)" offset="0.691406"/><stop stop-opacity="1" stop-color="rgb(99.438477%, 50.534058%, 0%)" offset="0.695312"/><stop stop-opacity="1" stop-color="rgb(99.435425%, 50.325012%, 0%)" offset="0.699219"/><stop stop-opacity="1" stop-color="rgb(99.432373%, 50.115967%, 0%)" offset="0.703125"/><stop stop-opacity="1" stop-color="rgb(99.429321%, 49.905396%, 0%)" offset="0.707031"/><stop stop-opacity="1" stop-color="rgb(99.42627%, 49.69635%, 0%)" offset="0.710937"/><stop stop-opacity="1" stop-color="rgb(99.423218%, 49.487305%, 0%)" offset="0.714844"/><stop stop-opacity="1" stop-color="rgb(99.420166%, 49.278259%, 0%)" offset="0.71875"/><stop stop-opacity="1" stop-color="rgb(99.415588%, 49.069214%, 0%)" offset="0.722656"/><stop stop-opacity="1" stop-color="rgb(99.412537%, 48.860168%, 0%)" offset="0.726562"/><stop stop-opacity="1" stop-color="rgb(99.409485%, 48.649597%, 0%)" offset="0.730469"/><stop stop-opacity="1" stop-color="rgb(99.406433%, 48.440552%, 0%)" offset="0.734375"/><stop stop-opacity="1" stop-color="rgb(99.403381%, 48.231506%, 0%)" offset="0.738281"/><stop stop-opacity="1" stop-color="rgb(99.40033%, 48.022461%, 0%)" offset="0.742187"/><stop stop-opacity="1" stop-color="rgb(99.397278%, 47.813416%, 0%)" offset="0.746094"/><stop stop-opacity="1" stop-color="rgb(99.394226%, 47.60437%, 0%)" offset="0.75"/><stop stop-opacity="1" stop-color="rgb(99.391174%, 47.393799%, 0%)" offset="0.753906"/><stop stop-opacity="1" stop-color="rgb(99.388123%, 47.184753%, 0%)" offset="0.757812"/><stop stop-opacity="1" stop-color="rgb(99.383545%, 46.975708%, 0%)" offset="0.761719"/><stop stop-opacity="1" stop-color="rgb(99.380493%, 46.766663%, 0%)" offset="0.765625"/><stop stop-opacity="1" stop-color="rgb(99.377441%, 46.557617%, 0%)" offset="0.769531"/><stop stop-opacity="1" stop-color="rgb(99.37439%, 46.348572%, 0%)" offset="0.773438"/><stop stop-opacity="1" stop-color="rgb(99.371338%, 46.138%, 0%)" offset="0.777344"/><stop stop-opacity="1" stop-color="rgb(99.368286%, 45.928955%, 0%)" offset="0.78125"/><stop stop-opacity="1" stop-color="rgb(99.365234%, 45.71991%, 0%)" offset="0.785156"/><stop stop-opacity="1" stop-color="rgb(99.362183%, 45.510864%, 0%)" offset="0.789062"/><stop stop-opacity="1" stop-color="rgb(99.359131%, 45.301819%, 0%)" offset="0.792969"/><stop stop-opacity="1" stop-color="rgb(99.356079%, 45.092773%, 0%)" offset="0.796875"/><stop stop-opacity="1" stop-color="rgb(99.351501%, 44.882202%, 0%)" offset="0.800781"/><stop stop-opacity="1" stop-color="rgb(99.34845%, 44.673157%, 0%)" offset="0.804687"/><stop stop-opacity="1" stop-color="rgb(99.345398%, 44.464111%, 0%)" offset="0.808594"/><stop stop-opacity="1" stop-color="rgb(99.342346%, 44.255066%, 0%)" offset="0.8125"/><stop stop-opacity="1" stop-color="rgb(99.339294%, 44.046021%, 0%)" offset="0.816406"/><stop stop-opacity="1" stop-color="rgb(99.336243%, 43.836975%, 0%)" offset="0.820312"/><stop stop-opacity="1" stop-color="rgb(99.333191%, 43.626404%, 0%)" offset="0.824219"/><stop stop-opacity="1" stop-color="rgb(99.330139%, 43.417358%, 0%)" offset="0.828125"/><stop stop-opacity="1" stop-color="rgb(99.327087%, 43.208313%, 0%)" offset="0.832031"/><stop stop-opacity="1" stop-color="rgb(99.324036%, 42.999268%, 0%)" offset="0.835937"/><stop stop-opacity="1" stop-color="rgb(99.319458%, 42.790222%, 0%)" offset="0.839844"/><stop stop-opacity="1" stop-color="rgb(99.316406%, 42.581177%, 0%)" offset="0.84375"/><stop stop-opacity="1" stop-color="rgb(99.313354%, 42.370605%, 0%)" offset="0.847656"/><stop stop-opacity="1" stop-color="rgb(99.310303%, 42.16156%, 0%)" offset="0.851562"/><stop stop-opacity="1" stop-color="rgb(99.307251%, 41.952515%, 0%)" offset="0.855469"/><stop stop-opacity="1" stop-color="rgb(99.304199%, 41.743469%, 0%)" offset="0.859375"/><stop stop-opacity="1" stop-color="rgb(99.301147%, 41.534424%, 0%)" offset="0.863281"/><stop stop-opacity="1" stop-color="rgb(99.298096%, 41.325378%, 0%)" offset="0.867188"/><stop stop-opacity="1" stop-color="rgb(99.295044%, 41.114807%, 0%)" offset="0.871094"/><stop stop-opacity="1" stop-color="rgb(99.291992%, 40.905762%, 0%)" offset="0.875"/><stop stop-opacity="1" stop-color="rgb(99.287415%, 40.696716%, 0%)" offset="0.878906"/><stop stop-opacity="1" stop-color="rgb(99.284363%, 40.487671%, 0%)" offset="0.882812"/><stop stop-opacity="1" stop-color="rgb(99.281311%, 40.278625%, 0%)" offset="0.886719"/><stop stop-opacity="1" stop-color="rgb(99.278259%, 40.06958%, 0%)" offset="0.890625"/><stop stop-opacity="1" stop-color="rgb(99.275208%, 39.859009%, 0%)" offset="0.894531"/><stop stop-opacity="1" stop-color="rgb(99.272156%, 39.649963%, 0%)" offset="0.898437"/><stop stop-opacity="1" stop-color="rgb(99.269104%, 39.440918%, 0%)" offset="0.902344"/><stop stop-opacity="1" stop-color="rgb(99.266052%, 39.231873%, 0%)" offset="0.90625"/><stop stop-opacity="1" stop-color="rgb(99.263%, 39.022827%, 0%)" offset="0.910156"/><stop stop-opacity="1" stop-color="rgb(99.259949%, 38.813782%, 0%)" offset="0.914062"/><stop stop-opacity="1" stop-color="rgb(99.255371%, 38.60321%, 0%)" offset="0.917969"/><stop stop-opacity="1" stop-color="rgb(99.252319%, 38.394165%, 0%)" offset="0.921875"/><stop stop-opacity="1" stop-color="rgb(99.249268%, 38.18512%, 0%)" offset="0.925781"/><stop stop-opacity="1" stop-color="rgb(99.246216%, 37.976074%, 0%)" offset="0.929687"/><stop stop-opacity="1" stop-color="rgb(99.243164%, 37.767029%, 0%)" offset="0.933594"/><stop stop-opacity="1" stop-color="rgb(99.240112%, 37.557983%, 0%)" offset="0.9375"/><stop stop-opacity="1" stop-color="rgb(99.237061%, 37.347412%, 0%)" offset="0.941406"/><stop stop-opacity="1" stop-color="rgb(99.234009%, 37.138367%, 0%)" offset="0.945312"/><stop stop-opacity="1" stop-color="rgb(99.230957%, 36.929321%, 0%)" offset="0.949219"/><stop stop-opacity="1" stop-color="rgb(99.227905%, 36.720276%, 0%)" offset="0.953125"/><stop stop-opacity="1" stop-color="rgb(99.223328%, 36.51123%, 0%)" offset="0.957031"/><stop stop-opacity="1" stop-color="rgb(99.220276%, 36.302185%, 0%)" offset="0.960938"/><stop stop-opacity="1" stop-color="rgb(99.217224%, 36.091614%, 0%)" offset="0.964844"/><stop stop-opacity="1" stop-color="rgb(99.214172%, 35.882568%, 0%)" offset="0.96875"/><stop stop-opacity="1" stop-color="rgb(99.211121%, 35.673523%, 0%)" offset="0.972656"/><stop stop-opacity="1" stop-color="rgb(99.208069%, 35.464478%, 0%)" offset="0.976562"/><stop stop-opacity="1" stop-color="rgb(99.205017%, 35.255432%, 0%)" offset="0.980469"/><stop stop-opacity="1" stop-color="rgb(99.201965%, 35.046387%, 0%)" offset="0.984375"/><stop stop-opacity="1" stop-color="rgb(99.200439%, 34.973145%, 0%)" offset="1"/></linearGradient></defs><g clip-path="url(#214e517d2d)"><g clip-path="url(#4535abc6bc)"><path fill="url(#64185f224e)" d="M 47.238281 47.238281 L 47.238281 762.738281 L 762.738281 762.738281 L 762.738281 47.238281 Z M 47.238281 47.238281 " fill-rule="nonzero"/></g></g><g clip-path="url(#d7fe66e068)"><g clip-path="url(#e6741180cc)"><path fill="url(#7e90b90a01)" d="M 235.539062 154.207031 L 235.539062 628.878906 L 574.4375 628.878906 L 574.4375 154.207031 Z M 235.539062 154.207031 " fill-rule="nonzero"/></g></g></svg>