<svg xmlns="http://www.w3.org/2000/svg" xmlns:xlink="http://www.w3.org/1999/xlink" width="1080" zoomAndPan="magnify" viewBox="0 0 810 809.999993" height="1080" preserveAspectRatio="xMidYMid meet" version="1.0"><defs><g/><clipPath id="959fce8f26"><path d="M 191.765625 127 L 616 127 L 616 613 L 191.765625 613 Z M 191.765625 127 " clip-rule="nonzero"/></clipPath></defs><path fill="#000000" d="M 396.132812 367.351562 L 435.265625 328.246094 C 438.832031 324.683594 438.832031 318.917969 435.265625 315.355469 C 431.703125 311.796875 425.933594 311.796875 422.371094 315.355469 L 383.234375 354.464844 L 344.101562 315.355469 C 340.535156 311.796875 334.769531 311.796875 331.203125 315.355469 C 327.640625 318.917969 327.640625 324.683594 331.203125 328.246094 L 370.339844 367.351562 L 331.203125 406.460938 C 327.640625 410.023438 327.640625 415.789062 331.203125 419.347656 C 332.984375 421.128906 335.3125 422.019531 337.640625 422.019531 C 339.964844 422.019531 342.292969 421.128906 344.074219 419.347656 L 383.210938 380.242188 L 422.347656 419.347656 C 424.128906 421.128906 426.457031 422.019531 428.78125 422.019531 C 431.109375 422.019531 433.4375 421.128906 435.21875 419.347656 C 438.78125 415.789062 438.78125 410.023438 435.21875 406.460938 Z M 396.132812 367.351562 " fill-opacity="1" fill-rule="nonzero"/><g clip-path="url(#959fce8f26)"><path fill="#000000" d="M 607.625 548.671875 L 574.703125 515.773438 L 574.703125 247.628906 C 574.703125 240.160156 571.609375 232.960938 566.140625 227.765625 L 467.769531 134.558594 C 462.667969 129.734375 455.910156 127.085938 448.882812 127.085938 L 219.121094 127.085938 C 204.070312 127.085938 191.765625 139.382812 191.765625 154.421875 L 191.765625 585.480469 C 191.765625 600.59375 204.070312 612.8125 219.121094 612.8125 L 547.351562 612.8125 C 558.390625 612.8125 567.871094 606.257812 572.152344 596.859375 C 575.992188 598.761719 580.175781 599.679688 584.285156 599.679688 C 591.386719 599.679688 598.515625 596.957031 603.886719 591.566406 L 607.625 587.828125 C 618.394531 577.019531 618.394531 559.53125 607.625 548.671875 Z M 542.796875 230.683594 L 474.402344 230.683594 C 469.378906 230.683594 465.292969 226.601562 465.292969 221.582031 L 465.292969 157.339844 Z M 547.351562 594.605469 L 219.121094 594.605469 C 214.09375 594.605469 210.011719 590.5 210.011719 585.503906 L 210.011719 154.421875 C 210.011719 149.398438 214.121094 145.320312 219.121094 145.320312 L 447.074219 145.320312 L 447.074219 221.582031 C 447.074219 236.644531 459.351562 248.914062 474.425781 248.914062 L 556.484375 248.914062 L 556.484375 497.664062 L 525.296875 466.496094 C 520.742188 461.945312 513.265625 461.945312 508.710938 466.496094 L 502.273438 472.929688 L 473.460938 444.136719 C 491.136719 423.457031 501.804688 396.59375 501.804688 367.351562 C 501.804688 302.023438 448.660156 248.914062 383.285156 248.914062 C 317.910156 248.914062 264.714844 302.023438 264.714844 367.351562 C 264.714844 432.683594 317.863281 485.792969 383.234375 485.792969 C 412.691406 485.792969 439.746094 474.957031 460.539062 457 L 489.355469 485.792969 L 482.421875 492.71875 C 477.867188 497.269531 477.867188 504.738281 482.421875 509.390625 L 556.460938 583.378906 L 556.460938 585.480469 C 556.484375 590.5 552.375 594.605469 547.351562 594.605469 Z M 383.234375 467.585938 C 327.886719 467.585938 282.933594 422.664062 282.933594 367.351562 C 282.933594 312.042969 327.886719 267.121094 383.234375 267.121094 C 438.585938 267.121094 483.535156 312.042969 483.535156 367.351562 C 483.535156 422.664062 438.585938 467.585938 383.234375 467.585938 Z M 594.777344 575.015625 L 591.042969 578.75 C 587.304688 582.386719 581.289062 582.386719 577.648438 578.75 L 574.730469 575.832031 L 556.484375 557.601562 L 499.875 501.03125 L 517.003906 483.910156 L 556.484375 523.367188 L 574.730469 541.597656 L 594.777344 561.632812 C 598.417969 565.269531 598.417969 571.28125 594.777344 575.015625 Z M 594.777344 575.015625 " fill-opacity="1" fill-rule="nonzero"/></g><g fill="#000000" fill-opacity="1"><g transform="translate(203.593251, 690.30624)"><g><path d="M 36.640625 0 L 31.09375 0 L 9.75 -32.0625 L 9.640625 -32.0625 L 9.640625 0 L 4.515625 0 L 4.515625 -40.84375 L 10.03125 -40.84375 L 31.375 -8.78125 L 31.484375 -8.78125 L 31.484375 -40.84375 L 36.640625 -40.84375 Z M 36.640625 0 "/></g></g><g transform="translate(244.798852, 690.30624)"><g><path d="M 15.859375 -30.234375 C 19.847656 -30.234375 23.15625 -28.929688 25.78125 -26.328125 C 28.414062 -23.722656 29.734375 -20.023438 29.734375 -15.234375 C 29.734375 -9.421875 28.3125 -5.3125 25.46875 -2.90625 C 22.625 -0.5 19.421875 0.703125 15.859375 0.703125 C 12.117188 0.703125 8.875 -0.53125 6.125 -3 C 3.375 -5.476562 2 -9.398438 2 -14.765625 C 2 -19.960938 3.328125 -23.835938 5.984375 -26.390625 C 8.640625 -28.953125 11.929688 -30.234375 15.859375 -30.234375 Z M 15.859375 -3.421875 C 18.710938 -3.421875 20.882812 -4.476562 22.375 -6.59375 C 23.863281 -8.71875 24.609375 -11.507812 24.609375 -14.96875 C 24.609375 -18.65625 23.765625 -21.4375 22.078125 -23.3125 C 20.398438 -25.195312 18.328125 -26.140625 15.859375 -26.140625 C 13.304688 -26.140625 11.210938 -25.1875 9.578125 -23.28125 C 7.953125 -21.375 7.140625 -18.535156 7.140625 -14.765625 C 7.140625 -11.015625 7.96875 -8.1875 9.625 -6.28125 C 11.289062 -4.375 13.367188 -3.421875 15.859375 -3.421875 Z M 15.859375 -3.421875 "/></g></g><g transform="translate(276.531901, 690.30624)"><g/></g><g transform="translate(292.384495, 690.30624)"><g><path d="M 4.5625 -40.84375 L 18.671875 -40.84375 C 21.140625 -40.84375 23.265625 -40.71875 25.046875 -40.46875 C 26.828125 -40.21875 28.53125 -39.601562 30.15625 -38.625 C 31.78125 -37.65625 33.203125 -36.316406 34.421875 -34.609375 C 35.640625 -32.898438 36.597656 -30.929688 37.296875 -28.703125 C 37.992188 -26.484375 38.34375 -23.796875 38.34375 -20.640625 C 38.34375 -14.628906 36.910156 -9.6875 34.046875 -5.8125 C 31.179688 -1.9375 26.257812 0 19.28125 0 L 4.5625 0 Z M 9.96875 -4.84375 L 18.71875 -4.84375 C 20.507812 -4.84375 22.101562 -4.953125 23.5 -5.171875 C 24.90625 -5.398438 26.328125 -6.003906 27.765625 -6.984375 C 29.203125 -7.972656 30.394531 -9.59375 31.34375 -11.84375 C 32.289062 -14.09375 32.765625 -17.0625 32.765625 -20.75 C 32.765625 -22.800781 32.582031 -24.710938 32.21875 -26.484375 C 31.863281 -28.253906 31.195312 -29.867188 30.21875 -31.328125 C 29.238281 -32.785156 28.117188 -33.851562 26.859375 -34.53125 C 25.597656 -35.207031 24.367188 -35.617188 23.171875 -35.765625 C 21.972656 -35.921875 20.4375 -36 18.5625 -36 L 9.96875 -36 Z M 9.96875 -4.84375 "/></g></g><g transform="translate(333.590096, 690.30624)"><g><path d="M 29.453125 0 L 24.1875 0 C 23.695312 -0.925781 23.351562 -2.144531 23.15625 -3.65625 C 19.789062 -0.75 16.160156 0.703125 12.265625 0.703125 C 9.140625 0.703125 6.675781 -0.078125 4.875 -1.640625 C 3.070312 -3.203125 2.171875 -5.265625 2.171875 -7.828125 C 2.171875 -10.273438 3.039062 -12.289062 4.78125 -13.875 C 6.519531 -15.46875 9.53125 -16.523438 13.8125 -17.046875 L 18.5 -17.75 C 20.25 -18.03125 21.6875 -18.375 22.8125 -18.78125 C 22.8125 -20.28125 22.765625 -21.34375 22.671875 -21.96875 C 22.585938 -22.59375 22.316406 -23.238281 21.859375 -23.90625 C 21.398438 -24.570312 20.671875 -25.109375 19.671875 -25.515625 C 18.671875 -25.929688 17.320312 -26.140625 15.625 -26.140625 C 13.476562 -26.140625 11.773438 -25.738281 10.515625 -24.9375 C 9.265625 -24.132812 8.40625 -22.648438 7.9375 -20.484375 L 3.03125 -21.125 C 3.570312 -24.144531 4.957031 -26.414062 7.1875 -27.9375 C 9.414062 -29.46875 12.484375 -30.234375 16.390625 -30.234375 C 19.929688 -30.234375 22.53125 -29.707031 24.1875 -28.65625 C 25.851562 -27.601562 26.875 -26.332031 27.25 -24.84375 C 27.632812 -23.363281 27.828125 -21.453125 27.828125 -19.109375 L 27.828125 -12.375 C 27.828125 -8.269531 27.90625 -5.515625 28.0625 -4.109375 C 28.226562 -2.703125 28.691406 -1.332031 29.453125 0 Z M 22.8125 -13.015625 L 22.8125 -14.828125 C 20.195312 -13.953125 16.992188 -13.257812 13.203125 -12.75 C 9.410156 -12.238281 7.515625 -10.632812 7.515625 -7.9375 C 7.515625 -6.582031 8.023438 -5.460938 9.046875 -4.578125 C 10.078125 -3.703125 11.546875 -3.265625 13.453125 -3.265625 C 15.921875 -3.265625 18.097656 -4 19.984375 -5.46875 C 21.867188 -6.945312 22.8125 -9.460938 22.8125 -13.015625 Z M 22.8125 -13.015625 "/></g></g><g transform="translate(365.323145, 690.30624)"><g><path d="M 15.359375 -0.0625 C 13.867188 0.238281 12.613281 0.390625 11.59375 0.390625 C 9.394531 0.390625 7.796875 0.00390625 6.796875 -0.765625 C 5.796875 -1.535156 5.179688 -2.515625 4.953125 -3.703125 C 4.734375 -4.890625 4.625 -6.546875 4.625 -8.671875 L 4.625 -25.6875 L 0.96875 -25.6875 L 0.96875 -29.5625 L 4.625 -29.5625 L 4.625 -36.921875 L 9.640625 -39.953125 L 9.640625 -29.5625 L 14.65625 -29.5625 L 14.65625 -25.6875 L 9.640625 -25.6875 L 9.640625 -8.390625 C 9.640625 -6.898438 9.789062 -5.84375 10.09375 -5.21875 C 10.40625 -4.601562 11.179688 -4.296875 12.421875 -4.296875 C 13.148438 -4.296875 13.894531 -4.367188 14.65625 -4.515625 Z M 15.359375 -0.0625 "/></g></g><g transform="translate(381.175739, 690.30624)"><g><path d="M 29.453125 0 L 24.1875 0 C 23.695312 -0.925781 23.351562 -2.144531 23.15625 -3.65625 C 19.789062 -0.75 16.160156 0.703125 12.265625 0.703125 C 9.140625 0.703125 6.675781 -0.078125 4.875 -1.640625 C 3.070312 -3.203125 2.171875 -5.265625 2.171875 -7.828125 C 2.171875 -10.273438 3.039062 -12.289062 4.78125 -13.875 C 6.519531 -15.46875 9.53125 -16.523438 13.8125 -17.046875 L 18.5 -17.75 C 20.25 -18.03125 21.6875 -18.375 22.8125 -18.78125 C 22.8125 -20.28125 22.765625 -21.34375 22.671875 -21.96875 C 22.585938 -22.59375 22.316406 -23.238281 21.859375 -23.90625 C 21.398438 -24.570312 20.671875 -25.109375 19.671875 -25.515625 C 18.671875 -25.929688 17.320312 -26.140625 15.625 -26.140625 C 13.476562 -26.140625 11.773438 -25.738281 10.515625 -24.9375 C 9.265625 -24.132812 8.40625 -22.648438 7.9375 -20.484375 L 3.03125 -21.125 C 3.570312 -24.144531 4.957031 -26.414062 7.1875 -27.9375 C 9.414062 -29.46875 12.484375 -30.234375 16.390625 -30.234375 C 19.929688 -30.234375 22.53125 -29.707031 24.1875 -28.65625 C 25.851562 -27.601562 26.875 -26.332031 27.25 -24.84375 C 27.632812 -23.363281 27.828125 -21.453125 27.828125 -19.109375 L 27.828125 -12.375 C 27.828125 -8.269531 27.90625 -5.515625 28.0625 -4.109375 C 28.226562 -2.703125 28.691406 -1.332031 29.453125 0 Z M 22.8125 -13.015625 L 22.8125 -14.828125 C 20.195312 -13.953125 16.992188 -13.257812 13.203125 -12.75 C 9.410156 -12.238281 7.515625 -10.632812 7.515625 -7.9375 C 7.515625 -6.582031 8.023438 -5.460938 9.046875 -4.578125 C 10.078125 -3.703125 11.546875 -3.265625 13.453125 -3.265625 C 15.921875 -3.265625 18.097656 -4 19.984375 -5.46875 C 21.867188 -6.945312 22.8125 -9.460938 22.8125 -13.015625 Z M 22.8125 -13.015625 "/></g></g><g transform="translate(412.908788, 690.30624)"><g/></g><g transform="translate(428.761382, 690.30624)"><g><path d="M 32.125 -36 L 9.96875 -36 L 9.96875 -23.34375 L 29.171875 -23.34375 L 29.171875 -18.5 L 9.96875 -18.5 L 9.96875 0 L 4.5625 0 L 4.5625 -40.84375 L 32.125 -40.84375 Z M 32.125 -36 "/></g></g><g transform="translate(463.614801, 690.30624)"><g><path d="M 15.859375 -30.234375 C 19.847656 -30.234375 23.15625 -28.929688 25.78125 -26.328125 C 28.414062 -23.722656 29.734375 -20.023438 29.734375 -15.234375 C 29.734375 -9.421875 28.3125 -5.3125 25.46875 -2.90625 C 22.625 -0.5 19.421875 0.703125 15.859375 0.703125 C 12.117188 0.703125 8.875 -0.53125 6.125 -3 C 3.375 -5.476562 2 -9.398438 2 -14.765625 C 2 -19.960938 3.328125 -23.835938 5.984375 -26.390625 C 8.640625 -28.953125 11.929688 -30.234375 15.859375 -30.234375 Z M 15.859375 -3.421875 C 18.710938 -3.421875 20.882812 -4.476562 22.375 -6.59375 C 23.863281 -8.71875 24.609375 -11.507812 24.609375 -14.96875 C 24.609375 -18.65625 23.765625 -21.4375 22.078125 -23.3125 C 20.398438 -25.195312 18.328125 -26.140625 15.859375 -26.140625 C 13.304688 -26.140625 11.210938 -25.1875 9.578125 -23.28125 C 7.953125 -21.375 7.140625 -18.535156 7.140625 -14.765625 C 7.140625 -11.015625 7.96875 -8.1875 9.625 -6.28125 C 11.289062 -4.375 13.367188 -3.421875 15.859375 -3.421875 Z M 15.859375 -3.421875 "/></g></g><g transform="translate(495.347849, 690.30624)"><g><path d="M 27.78125 0 L 23.296875 0 L 23.296875 -4.34375 L 23.15625 -4.34375 C 20.882812 -0.976562 17.789062 0.703125 13.875 0.703125 C 11.8125 0.703125 9.898438 0.222656 8.140625 -0.734375 C 6.390625 -1.691406 5.222656 -3.007812 4.640625 -4.6875 C 4.054688 -6.375 3.765625 -8.554688 3.765625 -11.234375 L 3.765625 -29.5625 L 8.78125 -29.5625 L 8.78125 -13.171875 C 8.78125 -10.554688 8.90625 -8.679688 9.15625 -7.546875 C 9.40625 -6.410156 10.054688 -5.476562 11.109375 -4.75 C 12.171875 -4.019531 13.4375 -3.65625 14.90625 -3.65625 C 16.800781 -3.65625 18.582031 -4.304688 20.25 -5.609375 C 21.925781 -6.921875 22.765625 -9.640625 22.765625 -13.765625 L 22.765625 -29.5625 L 27.78125 -29.5625 Z M 27.78125 0 "/></g></g><g transform="translate(527.080898, 690.30624)"><g><path d="M 27.96875 0 L 22.9375 0 L 22.9375 -17.96875 C 22.9375 -21 22.390625 -23.078125 21.296875 -24.203125 C 20.210938 -25.335938 18.703125 -25.90625 16.765625 -25.90625 C 15.285156 -25.90625 13.878906 -25.539062 12.546875 -24.8125 C 11.222656 -24.09375 10.28125 -23.070312 9.71875 -21.75 C 9.164062 -20.4375 8.890625 -18.570312 8.890625 -16.15625 L 8.890625 0 L 3.875 0 L 3.875 -29.5625 L 8.390625 -29.5625 L 8.390625 -25.375 L 8.5 -25.375 C 9.5625 -27 10.863281 -28.210938 12.40625 -29.015625 C 13.957031 -29.828125 15.753906 -30.234375 17.796875 -30.234375 C 19.359375 -30.234375 20.898438 -29.953125 22.421875 -29.390625 C 23.953125 -28.835938 25.148438 -28.003906 26.015625 -26.890625 C 26.878906 -25.773438 27.421875 -24.582031 27.640625 -23.3125 C 27.859375 -22.050781 27.96875 -20.34375 27.96875 -18.1875 Z M 27.96875 0 "/></g></g><g transform="translate(558.813947, 690.30624)"><g><path d="M 27.71875 0 L 23.046875 0 L 23.046875 -3.765625 L 22.9375 -3.765625 C 21.132812 -0.785156 18.410156 0.703125 14.765625 0.703125 C 11.140625 0.703125 8.113281 -0.726562 5.6875 -3.59375 C 3.269531 -6.46875 2.0625 -10.191406 2.0625 -14.765625 C 2.0625 -19.535156 3.203125 -23.304688 5.484375 -26.078125 C 7.773438 -28.847656 10.796875 -30.234375 14.546875 -30.234375 C 18.078125 -30.234375 20.757812 -28.882812 22.59375 -26.1875 L 22.703125 -26.1875 L 22.703125 -40.84375 L 27.71875 -40.84375 Z M 15.296875 -3.421875 C 17.484375 -3.421875 19.335938 -4.320312 20.859375 -6.125 C 22.390625 -7.925781 23.15625 -10.660156 23.15625 -14.328125 C 23.15625 -17.929688 22.457031 -20.800781 21.0625 -22.9375 C 19.664062 -25.070312 17.671875 -26.140625 15.078125 -26.140625 C 12.472656 -26.140625 10.503906 -25.09375 9.171875 -23 C 7.847656 -20.90625 7.1875 -18.160156 7.1875 -14.765625 C 7.1875 -12.316406 7.539062 -10.238281 8.25 -8.53125 C 8.96875 -6.832031 9.96875 -5.554688 11.25 -4.703125 C 12.53125 -3.847656 13.878906 -3.421875 15.296875 -3.421875 Z M 15.296875 -3.421875 "/></g></g><g transform="translate(590.546996, 690.30624)"><g><path d="M 11.0625 -31.796875 L 9.640625 -10.171875 L 6.375 -10.171875 L 4.84375 -31.796875 L 4.84375 -40.84375 L 11.0625 -40.84375 Z M 10.78125 0 L 5.078125 0 L 5.078125 -5.71875 L 10.78125 -5.71875 Z M 10.78125 0 "/></g></g></g></svg>