<svg xmlns="http://www.w3.org/2000/svg" xmlns:xlink="http://www.w3.org/1999/xlink" width="1080" zoomAndPan="magnify" viewBox="0 0 810 809.999993" height="1080" preserveAspectRatio="xMidYMid meet" version="1.0"><defs><clipPath id="8a2f3cea0f"><path d="M 191.765625 162 L 616 162 L 616 648 L 191.765625 648 Z M 191.765625 162 " clip-rule="nonzero"/></clipPath></defs><path fill="#000000" d="M 396.132812 402.351562 L 435.265625 363.246094 C 438.832031 359.683594 438.832031 353.917969 435.265625 350.355469 C 431.703125 346.796875 425.933594 346.796875 422.371094 350.355469 L 383.234375 389.464844 L 344.101562 350.355469 C 340.535156 346.796875 334.769531 346.796875 331.203125 350.355469 C 327.640625 353.917969 327.640625 359.683594 331.203125 363.246094 L 370.339844 402.351562 L 331.203125 441.460938 C 327.640625 445.023438 327.640625 450.789062 331.203125 454.347656 C 332.984375 456.128906 335.3125 457.019531 337.640625 457.019531 C 339.964844 457.019531 342.292969 456.128906 344.074219 454.347656 L 383.210938 415.242188 L 422.347656 454.347656 C 424.128906 456.128906 426.457031 457.019531 428.78125 457.019531 C 431.109375 457.019531 433.4375 456.128906 435.21875 454.347656 C 438.78125 450.789062 438.78125 445.023438 435.21875 441.460938 Z M 396.132812 402.351562 " fill-opacity="1" fill-rule="nonzero"/><g clip-path="url(#8a2f3cea0f)"><path fill="#000000" d="M 607.625 583.671875 L 574.703125 550.773438 L 574.703125 282.628906 C 574.703125 275.15625 571.609375 267.960938 566.140625 262.765625 L 467.769531 169.558594 C 462.667969 164.734375 455.910156 162.085938 448.882812 162.085938 L 219.121094 162.085938 C 204.070312 162.085938 191.765625 174.382812 191.765625 189.421875 L 191.765625 620.480469 C 191.765625 635.59375 204.070312 647.8125 219.121094 647.8125 L 547.351562 647.8125 C 558.390625 647.8125 567.871094 641.257812 572.152344 631.859375 C 575.992188 633.761719 580.175781 634.679688 584.285156 634.679688 C 591.386719 634.679688 598.515625 631.957031 603.886719 626.566406 L 607.625 622.828125 C 618.394531 612.019531 618.394531 594.53125 607.625 583.671875 Z M 542.796875 265.683594 L 474.402344 265.683594 C 469.378906 265.683594 465.292969 261.601562 465.292969 256.582031 L 465.292969 192.339844 Z M 547.351562 629.605469 L 219.121094 629.605469 C 214.09375 629.605469 210.011719 625.5 210.011719 620.503906 L 210.011719 189.421875 C 210.011719 184.398438 214.121094 180.320312 219.121094 180.320312 L 447.074219 180.320312 L 447.074219 256.582031 C 447.074219 271.644531 459.351562 283.914062 474.425781 283.914062 L 556.484375 283.914062 L 556.484375 532.664062 L 525.296875 501.496094 C 520.742188 496.945312 513.265625 496.945312 508.710938 501.496094 L 502.273438 507.929688 L 473.460938 479.136719 C 491.136719 458.457031 501.804688 431.589844 501.804688 402.351562 C 501.804688 337.023438 448.660156 283.914062 383.285156 283.914062 C 317.910156 283.914062 264.714844 337.023438 264.714844 402.351562 C 264.714844 467.683594 317.863281 520.792969 383.234375 520.792969 C 412.691406 520.792969 439.746094 509.957031 460.539062 492 L 489.355469 520.792969 L 482.421875 527.71875 C 477.867188 532.269531 477.867188 539.738281 482.421875 544.390625 L 556.460938 618.378906 L 556.460938 620.480469 C 556.484375 625.5 552.375 629.605469 547.351562 629.605469 Z M 383.234375 502.585938 C 327.886719 502.585938 282.933594 457.664062 282.933594 402.351562 C 282.933594 347.042969 327.886719 302.121094 383.234375 302.121094 C 438.585938 302.121094 483.535156 347.042969 483.535156 402.351562 C 483.535156 457.664062 438.585938 502.585938 383.234375 502.585938 Z M 594.777344 610.015625 L 591.042969 613.75 C 587.304688 617.386719 581.289062 617.386719 577.648438 613.75 L 574.730469 610.832031 L 556.484375 592.601562 L 499.875 536.027344 L 517.003906 518.910156 L 556.484375 558.367188 L 574.730469 576.597656 L 594.777344 596.632812 C 598.417969 600.269531 598.417969 606.28125 594.777344 610.015625 Z M 594.777344 610.015625 " fill-opacity="1" fill-rule="nonzero"/></g></svg>