<svg xmlns="http://www.w3.org/2000/svg" xmlns:xlink="http://www.w3.org/1999/xlink" width="1080" zoomAndPan="magnify" viewBox="0 0 810 809.999993" height="1080" preserveAspectRatio="xMidYMid meet" version="1.0"><defs><g/><clipPath id="cb43422862"><path d="M 169 189.199219 L 641 189.199219 L 641 620.449219 L 169 620.449219 Z M 169 189.199219 " clip-rule="nonzero"/></clipPath></defs><path fill="#000000" d="M 335.4375 394.867188 C 273.484375 456.0625 318.0625 563.441406 405.183594 562.980469 C 406.792969 562.972656 408.40625 562.925781 410.015625 562.839844 C 411.625 562.75 413.230469 562.625 414.835938 562.460938 C 416.4375 562.296875 418.039062 562.09375 419.632812 561.851562 C 421.226562 561.609375 422.8125 561.328125 424.390625 561.007812 C 425.972656 560.6875 427.542969 560.332031 429.105469 559.933594 C 430.667969 559.539062 432.21875 559.105469 433.761719 558.632812 C 435.304688 558.160156 436.832031 557.652344 438.347656 557.105469 C 439.863281 556.558594 441.367188 555.976562 442.855469 555.355469 C 444.34375 554.738281 445.816406 554.082031 447.269531 553.390625 C 448.726562 552.699219 450.164062 551.972656 451.585938 551.210938 C 453.003906 550.449219 454.40625 549.65625 455.789062 548.824219 C 457.167969 547.996094 458.53125 547.132812 459.871094 546.238281 C 461.207031 545.339844 462.527344 544.414062 463.820312 543.453125 C 465.113281 542.492188 466.382812 541.503906 467.628906 540.480469 C 468.875 539.460938 470.09375 538.40625 471.289062 537.328125 C 472.484375 536.246094 473.648438 535.136719 474.789062 533.996094 C 475.929688 532.859375 477.042969 531.695312 478.125 530.5 C 479.207031 529.308594 480.261719 528.089844 481.285156 526.847656 C 482.308594 525.605469 483.300781 524.335938 484.261719 523.042969 C 485.222656 521.75 486.152344 520.4375 487.050781 519.101562 C 487.945312 517.761719 488.8125 516.40625 489.640625 515.023438 C 490.472656 513.644531 491.269531 512.246094 492.03125 510.828125 C 492.792969 509.410156 493.519531 507.972656 494.214844 506.519531 C 494.90625 505.066406 495.5625 503.597656 496.183594 502.113281 C 496.804688 500.625 497.386719 499.125 497.933594 497.613281 C 498.480469 496.097656 498.992188 494.570312 499.464844 493.03125 C 499.9375 491.496094 500.371094 489.945312 500.769531 488.382812 C 501.164062 486.824219 501.523438 485.253906 501.84375 483.679688 C 502.164062 482.101562 502.445312 480.515625 502.6875 478.925781 C 502.929688 477.332031 503.132812 475.738281 503.296875 474.136719 C 503.464844 472.535156 503.589844 470.929688 503.675781 469.324219 C 503.761719 467.714844 503.808594 466.109375 503.816406 464.5 C 504.539062 377.753906 396.511719 333.089844 335.4375 394.867188 Z M 463.015625 522.246094 C 462.070312 523.1875 461.097656 524.109375 460.105469 525.003906 C 459.113281 525.898438 458.101562 526.769531 457.066406 527.617188 C 456.03125 528.464844 454.972656 529.285156 453.898438 530.078125 C 452.824219 530.875 451.730469 531.640625 450.617188 532.382812 C 449.503906 533.125 448.371094 533.839844 447.222656 534.523438 C 446.074219 535.210938 444.910156 535.867188 443.730469 536.496094 C 442.546875 537.125 441.351562 537.726562 440.144531 538.296875 C 438.933594 538.867188 437.710938 539.40625 436.472656 539.917969 C 435.238281 540.425781 433.988281 540.90625 432.726562 541.355469 C 431.46875 541.804688 430.199219 542.222656 428.917969 542.613281 C 427.636719 543 426.347656 543.355469 425.046875 543.679688 C 423.75 544.003906 422.445312 544.292969 421.132812 544.554688 C 419.820312 544.816406 418.5 545.042969 417.179688 545.238281 C 415.855469 545.433594 414.527344 545.597656 413.195312 545.730469 C 411.863281 545.859375 410.527344 545.957031 409.191406 546.023438 C 407.855469 546.089844 406.519531 546.121094 405.179688 546.121094 C 403.84375 546.121094 402.503906 546.089844 401.167969 546.023438 C 399.832031 545.957031 398.496094 545.859375 397.164062 545.730469 C 395.835938 545.597656 394.507812 545.433594 393.183594 545.238281 C 391.859375 545.042969 390.539062 544.816406 389.226562 544.554688 C 387.914062 544.292969 386.609375 544.003906 385.3125 543.679688 C 384.015625 543.355469 382.726562 543 381.445312 542.613281 C 380.164062 542.222656 378.894531 541.804688 377.632812 541.355469 C 376.371094 540.90625 375.125 540.425781 373.886719 539.917969 C 372.652344 539.40625 371.425781 538.867188 370.21875 538.296875 C 369.007812 537.726562 367.8125 537.125 366.632812 536.496094 C 365.449219 535.867188 364.285156 535.210938 363.136719 534.523438 C 361.988281 533.839844 360.859375 533.125 359.746094 532.382812 C 358.632812 531.640625 357.539062 530.875 356.460938 530.078125 C 355.386719 529.285156 354.332031 528.464844 353.296875 527.617188 C 352.261719 526.769531 351.246094 525.898438 350.253906 525.003906 C 349.261719 524.109375 348.292969 523.1875 347.34375 522.246094 C 295.683594 471.742188 333.664062 381.925781 405.183594 382.882812 C 476.695312 381.933594 514.683594 471.746094 463.015625 522.246094 Z M 463.015625 522.246094 " fill-opacity="1" fill-rule="nonzero"/><g clip-path="url(#cb43422862)"><path fill="#000000" d="M 640.917969 335.921875 L 640.917969 268.246094 C 640.914062 267.183594 640.863281 266.128906 640.757812 265.074219 C 640.652344 264.019531 640.496094 262.972656 640.289062 261.933594 C 640.082031 260.894531 639.824219 259.867188 639.511719 258.855469 C 639.203125 257.839844 638.847656 256.84375 638.441406 255.867188 C 638.035156 254.886719 637.582031 253.929688 637.078125 252.996094 C 636.578125 252.0625 636.035156 251.15625 635.445312 250.273438 C 634.855469 249.394531 634.222656 248.542969 633.550781 247.722656 C 632.875 246.90625 632.164062 246.121094 631.414062 245.371094 C 630.664062 244.621094 629.878906 243.910156 629.058594 243.238281 C 628.238281 242.566406 627.386719 241.9375 626.503906 241.347656 C 625.621094 240.757812 624.710938 240.214844 623.777344 239.714844 C 622.839844 239.214844 621.882812 238.761719 620.902344 238.355469 C 619.921875 237.949219 618.925781 237.59375 617.910156 237.285156 C 616.894531 236.976562 615.867188 236.71875 614.824219 236.511719 C 613.785156 236.304688 612.734375 236.148438 611.679688 236.042969 C 610.625 235.9375 609.566406 235.882812 608.503906 235.882812 L 456.445312 235.882812 C 454.386719 235.917969 452.402344 235.546875 450.496094 234.765625 C 448.589844 233.984375 446.914062 232.863281 445.46875 231.394531 L 412.976562 199.089844 C 411.484375 197.558594 409.855469 196.191406 408.089844 194.984375 C 406.320312 193.78125 404.453125 192.769531 402.480469 191.941406 C 400.507812 191.117188 398.472656 190.496094 396.375 190.082031 C 394.277344 189.664062 392.15625 189.464844 390.019531 189.476562 L 237.839844 189.476562 C 236.777344 189.480469 235.722656 189.535156 234.667969 189.640625 C 233.613281 189.75 232.566406 189.90625 231.53125 190.117188 C 230.492188 190.324219 229.464844 190.585938 228.453125 190.894531 C 227.441406 191.203125 226.445312 191.5625 225.46875 191.96875 C 224.488281 192.378906 223.535156 192.832031 222.601562 193.332031 C 221.667969 193.832031 220.761719 194.378906 219.882812 194.96875 C 219.003906 195.558594 218.15625 196.1875 217.335938 196.863281 C 216.519531 197.535156 215.738281 198.246094 214.992188 198.996094 C 214.242188 199.746094 213.535156 200.527344 212.863281 201.347656 C 212.191406 202.167969 211.5625 203.015625 210.976562 203.894531 C 210.390625 204.777344 209.847656 205.683594 209.347656 206.617188 C 208.851562 207.550781 208.402344 208.507812 207.996094 209.484375 C 207.59375 210.460938 207.238281 211.457031 206.929688 212.46875 C 206.625 213.480469 206.371094 214.507812 206.164062 215.542969 C 205.957031 216.582031 205.804688 217.628906 205.703125 218.679688 C 205.597656 219.734375 205.546875 220.789062 205.546875 221.84375 L 205.546875 251.136719 C 204.386719 251.085938 203.226562 251.089844 202.066406 251.152344 C 200.90625 251.21875 199.75 251.339844 198.605469 251.519531 C 197.457031 251.703125 196.320312 251.9375 195.195312 252.234375 C 194.070312 252.53125 192.964844 252.878906 191.875 253.285156 C 190.789062 253.691406 189.722656 254.152344 188.679688 254.667969 C 187.636719 255.179688 186.625 255.746094 185.640625 256.359375 C 184.65625 256.976562 183.703125 257.640625 182.785156 258.351562 C 181.867188 259.0625 180.988281 259.820312 180.148438 260.621094 C 179.304688 261.421875 178.507812 262.261719 177.75 263.144531 C 176.992188 264.023438 176.28125 264.941406 175.617188 265.894531 C 174.957031 266.84375 174.339844 267.828125 173.777344 268.84375 C 173.210938 269.855469 172.699219 270.898438 172.242188 271.964844 C 171.78125 273.027344 171.378906 274.113281 171.027344 275.222656 C 170.679688 276.328125 170.386719 277.449219 170.148438 278.585938 C 169.914062 279.722656 169.734375 280.867188 169.613281 282.019531 C 169.492188 283.175781 169.429688 284.332031 169.429688 285.492188 L 169.429688 586.65625 C 169.429688 587.78125 169.484375 588.902344 169.597656 590.019531 C 169.707031 591.140625 169.875 592.25 170.09375 593.355469 C 170.316406 594.457031 170.589844 595.546875 170.917969 596.621094 C 171.242188 597.699219 171.625 598.757812 172.054688 599.796875 C 172.488281 600.835938 172.96875 601.851562 173.5 602.839844 C 174.03125 603.832031 174.609375 604.796875 175.234375 605.730469 C 175.863281 606.667969 176.53125 607.570312 177.246094 608.4375 C 177.960938 609.308594 178.714844 610.140625 179.511719 610.9375 C 180.308594 611.730469 181.144531 612.484375 182.015625 613.199219 C 182.882812 613.914062 183.789062 614.582031 184.722656 615.207031 C 185.660156 615.832031 186.625 616.410156 187.617188 616.941406 C 188.613281 617.472656 189.628906 617.953125 190.667969 618.386719 C 191.710938 618.816406 192.769531 619.195312 193.847656 619.523438 C 194.925781 619.851562 196.015625 620.125 197.121094 620.34375 C 198.226562 620.566406 199.339844 620.730469 200.460938 620.84375 C 201.578125 620.953125 202.703125 621.011719 203.832031 621.011719 L 606.53125 621.011719 C 607.65625 621.011719 608.78125 620.953125 609.902344 620.84375 C 611.023438 620.730469 612.136719 620.566406 613.242188 620.34375 C 614.34375 620.125 615.4375 619.851562 616.515625 619.523438 C 617.589844 619.195312 618.652344 618.816406 619.691406 618.386719 C 620.730469 617.953125 621.75 617.472656 622.742188 616.941406 C 623.734375 616.410156 624.699219 615.832031 625.636719 615.207031 C 626.574219 614.582031 627.476562 613.914062 628.347656 613.199219 C 629.21875 612.484375 630.050781 611.730469 630.847656 610.9375 C 631.644531 610.140625 632.398438 609.308594 633.113281 608.4375 C 633.828125 607.570312 634.5 606.667969 635.125 605.730469 C 635.75 604.796875 636.328125 603.832031 636.859375 602.839844 C 637.394531 601.851562 637.875 600.835938 638.304688 599.796875 C 638.738281 598.757812 639.117188 597.699219 639.445312 596.621094 C 639.773438 595.546875 640.046875 594.457031 640.265625 593.355469 C 640.488281 592.25 640.652344 591.140625 640.765625 590.019531 C 640.875 588.902344 640.933594 587.78125 640.933594 586.65625 Z M 222.386719 221.84375 C 222.386719 220.828125 222.480469 219.820312 222.675781 218.824219 C 222.871094 217.824219 223.164062 216.855469 223.546875 215.914062 C 223.933594 214.972656 224.410156 214.078125 224.972656 213.230469 C 225.535156 212.382812 226.175781 211.597656 226.890625 210.878906 C 227.609375 210.15625 228.390625 209.511719 229.234375 208.941406 C 230.078125 208.371094 230.96875 207.890625 231.910156 207.496094 C 232.847656 207.105469 233.816406 206.804688 234.8125 206.601562 C 235.8125 206.398438 236.820312 206.292969 237.839844 206.289062 L 390.019531 206.289062 C 392.085938 206.277344 394.074219 206.671875 395.980469 207.472656 C 397.890625 208.277344 399.558594 209.421875 400.996094 210.910156 L 433.480469 243.207031 C 434.976562 244.730469 436.609375 246.089844 438.378906 247.28125 C 440.148438 248.476562 442.019531 249.480469 443.992188 250.296875 C 445.964844 251.113281 448 251.722656 450.097656 252.125 C 452.195312 252.53125 454.3125 252.71875 456.445312 252.695312 L 608.503906 252.695312 C 609.527344 252.699219 610.539062 252.796875 611.539062 253 C 612.542969 253.199219 613.515625 253.496094 614.460938 253.886719 C 615.40625 254.277344 616.300781 254.757812 617.152344 255.324219 C 618 255.890625 618.785156 256.535156 619.507812 257.257812 C 620.234375 257.976562 620.878906 258.761719 621.445312 259.613281 C 622.015625 260.460938 622.496094 261.355469 622.886719 262.296875 C 623.277344 263.242188 623.574219 264.210938 623.773438 265.214844 C 623.976562 266.214844 624.074219 267.222656 624.078125 268.246094 L 624.078125 306.550781 C 621.429688 304.9375 618.617188 303.710938 615.636719 302.863281 C 612.652344 302.019531 609.613281 301.589844 606.515625 301.574219 L 441.195312 301.574219 C 438.863281 301.582031 436.621094 301.140625 434.464844 300.25 C 432.3125 299.359375 430.414062 298.085938 428.769531 296.4375 L 393.480469 261.203125 C 391.886719 259.601562 390.152344 258.171875 388.273438 256.914062 C 386.398438 255.65625 384.414062 254.597656 382.324219 253.734375 C 380.238281 252.871094 378.085938 252.21875 375.867188 251.78125 C 373.648438 251.34375 371.410156 251.128906 369.148438 251.136719 L 222.386719 251.136719 Z M 606.53125 604.199219 L 203.832031 604.199219 C 203.253906 604.199219 202.679688 604.167969 202.109375 604.113281 C 201.535156 604.054688 200.96875 603.96875 200.40625 603.855469 C 199.839844 603.746094 199.285156 603.605469 198.734375 603.4375 C 198.183594 603.269531 197.640625 603.078125 197.109375 602.855469 C 196.578125 602.636719 196.0625 602.390625 195.554688 602.121094 C 195.046875 601.847656 194.554688 601.554688 194.074219 601.234375 C 193.597656 600.914062 193.136719 600.574219 192.691406 600.207031 C 192.246094 599.84375 191.824219 599.457031 191.414062 599.050781 C 191.007812 598.644531 190.625 598.222656 190.257812 597.777344 C 189.894531 597.332031 189.550781 596.871094 189.230469 596.394531 C 188.914062 595.917969 188.617188 595.425781 188.347656 594.917969 C 188.074219 594.414062 187.828125 593.894531 187.609375 593.363281 C 187.386719 592.832031 187.195312 592.292969 187.027344 591.746094 C 186.859375 591.195312 186.71875 590.636719 186.609375 590.074219 C 186.496094 589.511719 186.410156 588.945312 186.351562 588.375 C 186.296875 587.800781 186.269531 587.230469 186.265625 586.65625 L 186.265625 285.492188 C 186.269531 284.917969 186.296875 284.347656 186.351562 283.773438 C 186.410156 283.203125 186.496094 282.636719 186.609375 282.074219 C 186.71875 281.507812 186.859375 280.953125 187.027344 280.402344 C 187.195312 279.855469 187.386719 279.3125 187.609375 278.785156 C 187.828125 278.253906 188.074219 277.734375 188.347656 277.230469 C 188.617188 276.722656 188.914062 276.230469 189.230469 275.753906 C 189.550781 275.277344 189.894531 274.816406 190.257812 274.371094 C 190.625 273.925781 191.007812 273.5 191.414062 273.097656 C 191.824219 272.691406 192.246094 272.304688 192.691406 271.941406 C 193.136719 271.574219 193.597656 271.234375 194.078125 270.914062 C 194.554688 270.59375 195.046875 270.300781 195.554688 270.027344 C 196.0625 269.757812 196.578125 269.511719 197.109375 269.292969 C 197.640625 269.070312 198.183594 268.878906 198.734375 268.710938 C 199.285156 268.542969 199.839844 268.402344 200.40625 268.289062 C 200.96875 268.179688 201.535156 268.09375 202.109375 268.035156 C 202.679688 267.980469 203.253906 267.949219 203.832031 267.949219 L 369.148438 267.949219 C 371.480469 267.941406 373.722656 268.386719 375.878906 269.277344 C 378.03125 270.167969 379.929688 271.4375 381.574219 273.089844 L 416.863281 308.324219 C 418.457031 309.925781 420.191406 311.351562 422.070312 312.609375 C 423.949219 313.867188 425.929688 314.925781 428.019531 315.792969 C 430.105469 316.65625 432.261719 317.304688 434.476562 317.742188 C 436.695312 318.179688 438.933594 318.394531 441.195312 318.386719 L 606.515625 318.386719 C 607.089844 318.390625 607.664062 318.417969 608.234375 318.472656 C 608.808594 318.53125 609.375 318.617188 609.9375 318.726562 C 610.503906 318.839844 611.058594 318.980469 611.609375 319.148438 C 612.160156 319.3125 612.703125 319.507812 613.234375 319.726562 C 613.765625 319.949219 614.28125 320.191406 614.789062 320.464844 C 615.296875 320.734375 615.789062 321.03125 616.269531 321.347656 C 616.746094 321.667969 617.207031 322.007812 617.652344 322.375 C 618.097656 322.738281 618.519531 323.125 618.929688 323.53125 C 619.335938 323.933594 619.71875 324.359375 620.085938 324.804688 C 620.449219 325.246094 620.792969 325.707031 621.113281 326.1875 C 621.429688 326.664062 621.726562 327.15625 622 327.660156 C 622.269531 328.167969 622.515625 328.683594 622.734375 329.214844 C 622.957031 329.746094 623.148438 330.285156 623.316406 330.835938 C 623.484375 331.382812 623.625 331.941406 623.738281 332.503906 C 623.847656 333.066406 623.933594 333.632812 623.992188 334.207031 C 624.046875 334.777344 624.078125 335.347656 624.078125 335.921875 C 624.078125 335.921875 624.082031 586.601562 624.09375 586.65625 C 624.09375 587.230469 624.066406 587.800781 624.007812 588.375 C 623.953125 588.945312 623.867188 589.511719 623.753906 590.074219 C 623.640625 590.640625 623.5 591.195312 623.335938 591.746094 C 623.167969 592.292969 622.972656 592.835938 622.753906 593.363281 C 622.53125 593.894531 622.285156 594.414062 622.015625 594.917969 C 621.746094 595.425781 621.449219 595.917969 621.128906 596.394531 C 620.808594 596.871094 620.46875 597.332031 620.101562 597.777344 C 619.738281 598.222656 619.351562 598.648438 618.945312 599.054688 C 618.539062 599.457031 618.113281 599.84375 617.667969 600.207031 C 617.222656 600.574219 616.761719 600.914062 616.285156 601.234375 C 615.808594 601.554688 615.3125 601.847656 614.808594 602.121094 C 614.300781 602.390625 613.78125 602.636719 613.25 602.855469 C 612.71875 603.078125 612.179688 603.269531 611.628906 603.4375 C 611.078125 603.605469 610.519531 603.746094 609.957031 603.859375 C 609.390625 603.96875 608.824219 604.054688 608.25 604.113281 C 607.679688 604.167969 607.105469 604.199219 606.53125 604.199219 Z M 606.53125 604.199219 " fill-opacity="1" fill-rule="nonzero"/></g><path fill="#000000" d="M 405.179688 484.046875 C 405.734375 484.046875 406.28125 483.992188 406.824219 483.882812 C 407.367188 483.777344 407.890625 483.617188 408.402344 483.40625 C 408.914062 483.195312 409.398438 482.9375 409.859375 482.628906 C 410.320312 482.324219 410.746094 481.976562 411.136719 481.585938 C 411.527344 481.195312 411.875 480.769531 412.183594 480.3125 C 412.488281 479.851562 412.75 479.367188 412.960938 478.855469 C 413.171875 478.347656 413.332031 477.820312 413.4375 477.28125 C 413.546875 476.738281 413.601562 476.191406 413.601562 475.640625 L 413.601562 412.023438 C 413.601562 411.472656 413.546875 410.925781 413.4375 410.382812 C 413.332031 409.84375 413.171875 409.316406 412.960938 408.808594 C 412.746094 408.296875 412.488281 407.8125 412.179688 407.355469 C 411.875 406.894531 411.523438 406.46875 411.132812 406.082031 C 410.742188 405.691406 410.316406 405.339844 409.859375 405.035156 C 409.398438 404.726562 408.914062 404.46875 408.402344 404.257812 C 407.890625 404.046875 407.367188 403.886719 406.824219 403.78125 C 406.28125 403.671875 405.734375 403.617188 405.179688 403.617188 C 404.628906 403.617188 404.078125 403.671875 403.539062 403.78125 C 402.996094 403.886719 402.46875 404.046875 401.957031 404.257812 C 401.449219 404.46875 400.960938 404.726562 400.503906 405.035156 C 400.042969 405.339844 399.617188 405.691406 399.226562 406.082031 C 398.835938 406.46875 398.488281 406.894531 398.179688 407.355469 C 397.871094 407.8125 397.613281 408.296875 397.402344 408.808594 C 397.191406 409.316406 397.03125 409.84375 396.921875 410.382812 C 396.816406 410.925781 396.761719 411.472656 396.761719 412.023438 L 396.761719 475.640625 C 396.761719 476.191406 396.8125 476.738281 396.921875 477.28125 C 397.03125 477.820312 397.1875 478.347656 397.398438 478.855469 C 397.613281 479.367188 397.871094 479.851562 398.179688 480.3125 C 398.484375 480.769531 398.835938 481.195312 399.226562 481.585938 C 399.617188 481.976562 400.042969 482.324219 400.5 482.628906 C 400.960938 482.9375 401.445312 483.195312 401.957031 483.40625 C 402.46875 483.617188 402.996094 483.777344 403.539062 483.882812 C 404.078125 483.992188 404.628906 484.046875 405.179688 484.046875 Z M 405.179688 484.046875 " fill-opacity="1" fill-rule="nonzero"/><path fill="#000000" d="M 405.179688 495.511719 C 404.480469 495.523438 403.789062 495.601562 403.105469 495.746094 C 402.421875 495.890625 401.761719 496.101562 401.117188 496.375 C 400.476562 496.648438 399.863281 496.984375 399.289062 497.375 C 398.710938 497.769531 398.175781 498.214844 397.6875 498.710938 C 397.195312 499.210938 396.757812 499.75 396.371094 500.332031 C 395.988281 500.914062 395.664062 501.527344 395.398438 502.171875 C 395.132812 502.820312 394.933594 503.484375 394.796875 504.167969 C 394.664062 504.855469 394.59375 505.546875 394.59375 506.242188 C 394.59375 506.941406 394.664062 507.632812 394.796875 508.316406 C 394.933594 509 395.132812 509.667969 395.398438 510.3125 C 395.664062 510.957031 395.988281 511.570312 396.375 512.152344 C 396.757812 512.738281 397.195312 513.277344 397.6875 513.773438 C 398.175781 514.269531 398.710938 514.714844 399.289062 515.109375 C 399.867188 515.503906 400.476562 515.835938 401.117188 516.109375 C 401.761719 516.382812 402.421875 516.59375 403.105469 516.738281 C 403.789062 516.886719 404.480469 516.960938 405.179688 516.972656 C 405.878906 516.960938 406.570312 516.886719 407.253906 516.738281 C 407.9375 516.59375 408.601562 516.382812 409.242188 516.109375 C 409.886719 515.835938 410.496094 515.5 411.074219 515.109375 C 411.652344 514.714844 412.183594 514.269531 412.675781 513.773438 C 413.164062 513.277344 413.601562 512.734375 413.988281 512.152344 C 414.375 511.570312 414.699219 510.957031 414.964844 510.3125 C 415.226562 509.664062 415.429688 509 415.5625 508.316406 C 415.699219 507.632812 415.765625 506.941406 415.765625 506.242188 C 415.765625 505.542969 415.699219 504.851562 415.5625 504.167969 C 415.429688 503.484375 415.226562 502.820312 414.964844 502.171875 C 414.699219 501.527344 414.375 500.914062 413.988281 500.332031 C 413.601562 499.75 413.164062 499.210938 412.675781 498.710938 C 412.183594 498.214844 411.652344 497.769531 411.074219 497.375 C 410.496094 496.984375 409.886719 496.648438 409.242188 496.375 C 408.601562 496.101562 407.9375 495.890625 407.253906 495.746094 C 406.570312 495.601562 405.878906 495.523438 405.179688 495.511719 Z M 405.179688 495.511719 " fill-opacity="1" fill-rule="nonzero"/><g fill="#000000" fill-opacity="1"><g transform="translate(203.593251, 690.306528)"><g><path d="M 36.640625 0 L 31.09375 0 L 9.75 -32.0625 L 9.640625 -32.0625 L 9.640625 0 L 4.515625 0 L 4.515625 -40.84375 L 10.03125 -40.84375 L 31.375 -8.78125 L 31.484375 -8.78125 L 31.484375 -40.84375 L 36.640625 -40.84375 Z M 36.640625 0 "/></g></g><g transform="translate(244.798852, 690.306528)"><g><path d="M 15.859375 -30.234375 C 19.847656 -30.234375 23.15625 -28.929688 25.78125 -26.328125 C 28.414062 -23.722656 29.734375 -20.023438 29.734375 -15.234375 C 29.734375 -9.421875 28.3125 -5.3125 25.46875 -2.90625 C 22.625 -0.5 19.421875 0.703125 15.859375 0.703125 C 12.117188 0.703125 8.875 -0.53125 6.125 -3 C 3.375 -5.476562 2 -9.398438 2 -14.765625 C 2 -19.960938 3.328125 -23.835938 5.984375 -26.390625 C 8.640625 -28.953125 11.929688 -30.234375 15.859375 -30.234375 Z M 15.859375 -3.421875 C 18.710938 -3.421875 20.882812 -4.476562 22.375 -6.59375 C 23.863281 -8.71875 24.609375 -11.507812 24.609375 -14.96875 C 24.609375 -18.65625 23.765625 -21.4375 22.078125 -23.3125 C 20.398438 -25.195312 18.328125 -26.140625 15.859375 -26.140625 C 13.304688 -26.140625 11.210938 -25.1875 9.578125 -23.28125 C 7.953125 -21.375 7.140625 -18.535156 7.140625 -14.765625 C 7.140625 -11.015625 7.96875 -8.1875 9.625 -6.28125 C 11.289062 -4.375 13.367188 -3.421875 15.859375 -3.421875 Z M 15.859375 -3.421875 "/></g></g><g transform="translate(276.531901, 690.306528)"><g/></g><g transform="translate(292.384495, 690.306528)"><g><path d="M 4.5625 -40.84375 L 18.671875 -40.84375 C 21.140625 -40.84375 23.265625 -40.71875 25.046875 -40.46875 C 26.828125 -40.21875 28.53125 -39.601562 30.15625 -38.625 C 31.78125 -37.65625 33.203125 -36.316406 34.421875 -34.609375 C 35.640625 -32.898438 36.597656 -30.929688 37.296875 -28.703125 C 37.992188 -26.484375 38.34375 -23.796875 38.34375 -20.640625 C 38.34375 -14.628906 36.910156 -9.6875 34.046875 -5.8125 C 31.179688 -1.9375 26.257812 0 19.28125 0 L 4.5625 0 Z M 9.96875 -4.84375 L 18.71875 -4.84375 C 20.507812 -4.84375 22.101562 -4.953125 23.5 -5.171875 C 24.90625 -5.398438 26.328125 -6.003906 27.765625 -6.984375 C 29.203125 -7.972656 30.394531 -9.59375 31.34375 -11.84375 C 32.289062 -14.09375 32.765625 -17.0625 32.765625 -20.75 C 32.765625 -22.800781 32.582031 -24.710938 32.21875 -26.484375 C 31.863281 -28.253906 31.195312 -29.867188 30.21875 -31.328125 C 29.238281 -32.785156 28.117188 -33.851562 26.859375 -34.53125 C 25.597656 -35.207031 24.367188 -35.617188 23.171875 -35.765625 C 21.972656 -35.921875 20.4375 -36 18.5625 -36 L 9.96875 -36 Z M 9.96875 -4.84375 "/></g></g><g transform="translate(333.590096, 690.306528)"><g><path d="M 29.453125 0 L 24.1875 0 C 23.695312 -0.925781 23.351562 -2.144531 23.15625 -3.65625 C 19.789062 -0.75 16.160156 0.703125 12.265625 0.703125 C 9.140625 0.703125 6.675781 -0.078125 4.875 -1.640625 C 3.070312 -3.203125 2.171875 -5.265625 2.171875 -7.828125 C 2.171875 -10.273438 3.039062 -12.289062 4.78125 -13.875 C 6.519531 -15.46875 9.53125 -16.523438 13.8125 -17.046875 L 18.5 -17.75 C 20.25 -18.03125 21.6875 -18.375 22.8125 -18.78125 C 22.8125 -20.28125 22.765625 -21.34375 22.671875 -21.96875 C 22.585938 -22.59375 22.316406 -23.238281 21.859375 -23.90625 C 21.398438 -24.570312 20.671875 -25.109375 19.671875 -25.515625 C 18.671875 -25.929688 17.320312 -26.140625 15.625 -26.140625 C 13.476562 -26.140625 11.773438 -25.738281 10.515625 -24.9375 C 9.265625 -24.132812 8.40625 -22.648438 7.9375 -20.484375 L 3.03125 -21.125 C 3.570312 -24.144531 4.957031 -26.414062 7.1875 -27.9375 C 9.414062 -29.46875 12.484375 -30.234375 16.390625 -30.234375 C 19.929688 -30.234375 22.53125 -29.707031 24.1875 -28.65625 C 25.851562 -27.601562 26.875 -26.332031 27.25 -24.84375 C 27.632812 -23.363281 27.828125 -21.453125 27.828125 -19.109375 L 27.828125 -12.375 C 27.828125 -8.269531 27.90625 -5.515625 28.0625 -4.109375 C 28.226562 -2.703125 28.691406 -1.332031 29.453125 0 Z M 22.8125 -13.015625 L 22.8125 -14.828125 C 20.195312 -13.953125 16.992188 -13.257812 13.203125 -12.75 C 9.410156 -12.238281 7.515625 -10.632812 7.515625 -7.9375 C 7.515625 -6.582031 8.023438 -5.460938 9.046875 -4.578125 C 10.078125 -3.703125 11.546875 -3.265625 13.453125 -3.265625 C 15.921875 -3.265625 18.097656 -4 19.984375 -5.46875 C 21.867188 -6.945312 22.8125 -9.460938 22.8125 -13.015625 Z M 22.8125 -13.015625 "/></g></g><g transform="translate(365.323145, 690.306528)"><g><path d="M 15.359375 -0.0625 C 13.867188 0.238281 12.613281 0.390625 11.59375 0.390625 C 9.394531 0.390625 7.796875 0.00390625 6.796875 -0.765625 C 5.796875 -1.535156 5.179688 -2.515625 4.953125 -3.703125 C 4.734375 -4.890625 4.625 -6.546875 4.625 -8.671875 L 4.625 -25.6875 L 0.96875 -25.6875 L 0.96875 -29.5625 L 4.625 -29.5625 L 4.625 -36.921875 L 9.640625 -39.953125 L 9.640625 -29.5625 L 14.65625 -29.5625 L 14.65625 -25.6875 L 9.640625 -25.6875 L 9.640625 -8.390625 C 9.640625 -6.898438 9.789062 -5.84375 10.09375 -5.21875 C 10.40625 -4.601562 11.179688 -4.296875 12.421875 -4.296875 C 13.148438 -4.296875 13.894531 -4.367188 14.65625 -4.515625 Z M 15.359375 -0.0625 "/></g></g><g transform="translate(381.175739, 690.306528)"><g><path d="M 29.453125 0 L 24.1875 0 C 23.695312 -0.925781 23.351562 -2.144531 23.15625 -3.65625 C 19.789062 -0.75 16.160156 0.703125 12.265625 0.703125 C 9.140625 0.703125 6.675781 -0.078125 4.875 -1.640625 C 3.070312 -3.203125 2.171875 -5.265625 2.171875 -7.828125 C 2.171875 -10.273438 3.039062 -12.289062 4.78125 -13.875 C 6.519531 -15.46875 9.53125 -16.523438 13.8125 -17.046875 L 18.5 -17.75 C 20.25 -18.03125 21.6875 -18.375 22.8125 -18.78125 C 22.8125 -20.28125 22.765625 -21.34375 22.671875 -21.96875 C 22.585938 -22.59375 22.316406 -23.238281 21.859375 -23.90625 C 21.398438 -24.570312 20.671875 -25.109375 19.671875 -25.515625 C 18.671875 -25.929688 17.320312 -26.140625 15.625 -26.140625 C 13.476562 -26.140625 11.773438 -25.738281 10.515625 -24.9375 C 9.265625 -24.132812 8.40625 -22.648438 7.9375 -20.484375 L 3.03125 -21.125 C 3.570312 -24.144531 4.957031 -26.414062 7.1875 -27.9375 C 9.414062 -29.46875 12.484375 -30.234375 16.390625 -30.234375 C 19.929688 -30.234375 22.53125 -29.707031 24.1875 -28.65625 C 25.851562 -27.601562 26.875 -26.332031 27.25 -24.84375 C 27.632812 -23.363281 27.828125 -21.453125 27.828125 -19.109375 L 27.828125 -12.375 C 27.828125 -8.269531 27.90625 -5.515625 28.0625 -4.109375 C 28.226562 -2.703125 28.691406 -1.332031 29.453125 0 Z M 22.8125 -13.015625 L 22.8125 -14.828125 C 20.195312 -13.953125 16.992188 -13.257812 13.203125 -12.75 C 9.410156 -12.238281 7.515625 -10.632812 7.515625 -7.9375 C 7.515625 -6.582031 8.023438 -5.460938 9.046875 -4.578125 C 10.078125 -3.703125 11.546875 -3.265625 13.453125 -3.265625 C 15.921875 -3.265625 18.097656 -4 19.984375 -5.46875 C 21.867188 -6.945312 22.8125 -9.460938 22.8125 -13.015625 Z M 22.8125 -13.015625 "/></g></g><g transform="translate(412.908788, 690.306528)"><g/></g><g transform="translate(428.761382, 690.306528)"><g><path d="M 32.125 -36 L 9.96875 -36 L 9.96875 -23.34375 L 29.171875 -23.34375 L 29.171875 -18.5 L 9.96875 -18.5 L 9.96875 0 L 4.5625 0 L 4.5625 -40.84375 L 32.125 -40.84375 Z M 32.125 -36 "/></g></g><g transform="translate(463.614801, 690.306528)"><g><path d="M 15.859375 -30.234375 C 19.847656 -30.234375 23.15625 -28.929688 25.78125 -26.328125 C 28.414062 -23.722656 29.734375 -20.023438 29.734375 -15.234375 C 29.734375 -9.421875 28.3125 -5.3125 25.46875 -2.90625 C 22.625 -0.5 19.421875 0.703125 15.859375 0.703125 C 12.117188 0.703125 8.875 -0.53125 6.125 -3 C 3.375 -5.476562 2 -9.398438 2 -14.765625 C 2 -19.960938 3.328125 -23.835938 5.984375 -26.390625 C 8.640625 -28.953125 11.929688 -30.234375 15.859375 -30.234375 Z M 15.859375 -3.421875 C 18.710938 -3.421875 20.882812 -4.476562 22.375 -6.59375 C 23.863281 -8.71875 24.609375 -11.507812 24.609375 -14.96875 C 24.609375 -18.65625 23.765625 -21.4375 22.078125 -23.3125 C 20.398438 -25.195312 18.328125 -26.140625 15.859375 -26.140625 C 13.304688 -26.140625 11.210938 -25.1875 9.578125 -23.28125 C 7.953125 -21.375 7.140625 -18.535156 7.140625 -14.765625 C 7.140625 -11.015625 7.96875 -8.1875 9.625 -6.28125 C 11.289062 -4.375 13.367188 -3.421875 15.859375 -3.421875 Z M 15.859375 -3.421875 "/></g></g><g transform="translate(495.347849, 690.306528)"><g><path d="M 27.78125 0 L 23.296875 0 L 23.296875 -4.34375 L 23.15625 -4.34375 C 20.882812 -0.976562 17.789062 0.703125 13.875 0.703125 C 11.8125 0.703125 9.898438 0.222656 8.140625 -0.734375 C 6.390625 -1.691406 5.222656 -3.007812 4.640625 -4.6875 C 4.054688 -6.375 3.765625 -8.554688 3.765625 -11.234375 L 3.765625 -29.5625 L 8.78125 -29.5625 L 8.78125 -13.171875 C 8.78125 -10.554688 8.90625 -8.679688 9.15625 -7.546875 C 9.40625 -6.410156 10.054688 -5.476562 11.109375 -4.75 C 12.171875 -4.019531 13.4375 -3.65625 14.90625 -3.65625 C 16.800781 -3.65625 18.582031 -4.304688 20.25 -5.609375 C 21.925781 -6.921875 22.765625 -9.640625 22.765625 -13.765625 L 22.765625 -29.5625 L 27.78125 -29.5625 Z M 27.78125 0 "/></g></g><g transform="translate(527.080898, 690.306528)"><g><path d="M 27.96875 0 L 22.9375 0 L 22.9375 -17.96875 C 22.9375 -21 22.390625 -23.078125 21.296875 -24.203125 C 20.210938 -25.335938 18.703125 -25.90625 16.765625 -25.90625 C 15.285156 -25.90625 13.878906 -25.539062 12.546875 -24.8125 C 11.222656 -24.09375 10.28125 -23.070312 9.71875 -21.75 C 9.164062 -20.4375 8.890625 -18.570312 8.890625 -16.15625 L 8.890625 0 L 3.875 0 L 3.875 -29.5625 L 8.390625 -29.5625 L 8.390625 -25.375 L 8.5 -25.375 C 9.5625 -27 10.863281 -28.210938 12.40625 -29.015625 C 13.957031 -29.828125 15.753906 -30.234375 17.796875 -30.234375 C 19.359375 -30.234375 20.898438 -29.953125 22.421875 -29.390625 C 23.953125 -28.835938 25.148438 -28.003906 26.015625 -26.890625 C 26.878906 -25.773438 27.421875 -24.582031 27.640625 -23.3125 C 27.859375 -22.050781 27.96875 -20.34375 27.96875 -18.1875 Z M 27.96875 0 "/></g></g><g transform="translate(558.813947, 690.306528)"><g><path d="M 27.71875 0 L 23.046875 0 L 23.046875 -3.765625 L 22.9375 -3.765625 C 21.132812 -0.785156 18.410156 0.703125 14.765625 0.703125 C 11.140625 0.703125 8.113281 -0.726562 5.6875 -3.59375 C 3.269531 -6.46875 2.0625 -10.191406 2.0625 -14.765625 C 2.0625 -19.535156 3.203125 -23.304688 5.484375 -26.078125 C 7.773438 -28.847656 10.796875 -30.234375 14.546875 -30.234375 C 18.078125 -30.234375 20.757812 -28.882812 22.59375 -26.1875 L 22.703125 -26.1875 L 22.703125 -40.84375 L 27.71875 -40.84375 Z M 15.296875 -3.421875 C 17.484375 -3.421875 19.335938 -4.320312 20.859375 -6.125 C 22.390625 -7.925781 23.15625 -10.660156 23.15625 -14.328125 C 23.15625 -17.929688 22.457031 -20.800781 21.0625 -22.9375 C 19.664062 -25.070312 17.671875 -26.140625 15.078125 -26.140625 C 12.472656 -26.140625 10.503906 -25.09375 9.171875 -23 C 7.847656 -20.90625 7.1875 -18.160156 7.1875 -14.765625 C 7.1875 -12.316406 7.539062 -10.238281 8.25 -8.53125 C 8.96875 -6.832031 9.96875 -5.554688 11.25 -4.703125 C 12.53125 -3.847656 13.878906 -3.421875 15.296875 -3.421875 Z M 15.296875 -3.421875 "/></g></g><g transform="translate(590.546996, 690.306528)"><g><path d="M 11.0625 -31.796875 L 9.640625 -10.171875 L 6.375 -10.171875 L 4.84375 -31.796875 L 4.84375 -40.84375 L 11.0625 -40.84375 Z M 10.78125 0 L 5.078125 0 L 5.078125 -5.71875 L 10.78125 -5.71875 Z M 10.78125 0 "/></g></g></g></svg>