<svg xmlns="http://www.w3.org/2000/svg" xmlns:xlink="http://www.w3.org/1999/xlink" width="1080" zoomAndPan="magnify" viewBox="0 0 810 809.999993" height="1080" preserveAspectRatio="xMidYMid meet" version="1.0"><defs><clipPath id="32a3cfbefc"><path d="M 307.980469 182 L 691 182 L 691 582 L 307.980469 582 Z M 307.980469 182 " clip-rule="nonzero"/></clipPath><clipPath id="a1afabac2a"><path d="M 284.566406 199 L 668 199 L 668 598.691406 L 284.566406 598.691406 Z M 284.566406 199 " clip-rule="nonzero"/></clipPath><clipPath id="0c57448cf3"><path d="M 138.75 253 L 522 253 L 522 652.476562 L 138.75 652.476562 Z M 138.75 253 " clip-rule="nonzero"/></clipPath><clipPath id="d5f38c9440"><path d="M 113.945312 253 L 497 253 L 497 652.476562 L 113.945312 652.476562 Z M 113.945312 253 " clip-rule="nonzero"/></clipPath></defs><g clip-path="url(#32a3cfbefc)"><path fill="#102076" d="M 513.589844 322.171875 C 509.707031 310.757812 506.152344 300.257812 502.601562 289.507812 C 514.832031 280.082031 527.476562 270.488281 540.117188 260.8125 C 539.621094 260.152344 539.210938 259.492188 538.714844 258.828125 C 470.949219 279.914062 411.53125 315.96875 356.242188 360.621094 C 358.226562 357.480469 360.128906 354.253906 362.109375 351.113281 C 383.597656 316.382812 404.007812 280.90625 414.421875 241.050781 C 417.480469 229.390625 423.347656 222.28125 433.429688 216.574219 C 469.378906 195.984375 507.226562 181.511719 549.292969 182.835938 C 607.140625 184.574219 627.71875 226.578125 627.46875 267.925781 C 627.386719 281.074219 620.527344 292.238281 612.761719 302.574219 C 609.371094 307.121094 605.570312 311.339844 601.519531 316.21875 C 603.171875 316.960938 604.414062 317.871094 605.816406 318.121094 C 653.914062 328.621094 678.292969 360.707031 688.457031 406.847656 C 695.730469 439.839844 684.328125 466.46875 663.667969 490.695312 C 644.492188 513.351562 621.023438 530.964844 596.644531 547.421875 C 580.28125 558.417969 563.589844 569.003906 546.976562 579.671875 C 545.738281 580.5 544.332031 581.078125 542.515625 581.988281 C 539.292969 541.21875 529.210938 502.851562 514.167969 465.226562 C 532.101562 451.5 550.367188 437.609375 568.628906 423.632812 C 568.214844 422.804688 567.804688 421.980469 567.390625 421.070312 C 552.019531 426.445312 536.484375 431.324219 521.441406 437.277344 C 505.988281 443.394531 490.78125 450.175781 475.90625 457.453125 C 460.703125 464.8125 445.824219 472.835938 431.199219 481.1875 C 416.820312 489.457031 402.605469 498.136719 388.722656 507.316406 C 374.835938 516.496094 361.285156 526.085938 347.980469 536.09375 C 334.675781 546.097656 321.949219 556.765625 307.980469 566.6875 C 309.304688 564.457031 310.625 562.140625 312.03125 559.90625 C 340.625 514.59375 367.484375 468.285156 384.917969 417.347656 C 388.722656 406.351562 391.28125 394.855469 395.085938 383.859375 C 396.570312 379.558594 399.382812 374.929688 403.019531 372.363281 C 434.089844 350.535156 468.386719 335.320312 504.832031 324.816406 C 507.308594 324.15625 509.789062 323.328125 513.589844 322.171875 Z M 513.589844 322.171875 " fill-opacity="1" fill-rule="nonzero"/></g><g clip-path="url(#a1afabac2a)"><path fill="#ffffff" d="M 490.175781 338.863281 C 486.292969 327.449219 482.738281 316.949219 479.1875 306.199219 C 491.417969 296.773438 504.058594 287.179688 516.703125 277.503906 C 516.207031 276.84375 515.796875 276.183594 515.300781 275.519531 C 447.535156 296.605469 388.117188 332.660156 332.828125 377.3125 C 334.8125 374.171875 336.714844 370.945312 338.695312 367.804688 C 360.183594 333.074219 380.59375 297.597656 391.007812 257.742188 C 394.066406 246.082031 399.933594 238.972656 410.015625 233.265625 C 445.964844 212.675781 483.8125 198.203125 525.878906 199.527344 C 583.726562 201.265625 604.304688 243.269531 604.054688 284.617188 C 603.972656 297.765625 597.113281 308.929688 589.34375 319.265625 C 585.957031 323.8125 582.15625 328.03125 578.105469 332.910156 C 579.757812 333.652344 581 334.5625 582.402344 334.8125 C 630.5 345.3125 654.878906 377.398438 665.042969 423.539062 C 672.316406 456.53125 660.914062 483.160156 640.253906 507.386719 C 621.078125 530.042969 597.609375 547.65625 573.230469 564.113281 C 556.867188 575.109375 540.175781 585.695312 523.5625 596.363281 C 522.324219 597.191406 520.917969 597.769531 519.101562 598.679688 C 515.878906 557.910156 505.796875 519.542969 490.753906 481.917969 C 508.6875 468.191406 526.953125 454.300781 545.214844 440.324219 C 544.800781 439.496094 544.390625 438.671875 543.976562 437.761719 C 528.605469 443.136719 513.066406 448.015625 498.027344 453.96875 C 482.574219 460.085938 467.367188 466.867188 452.492188 474.144531 C 437.285156 481.503906 422.410156 489.527344 407.785156 497.878906 C 393.40625 506.148438 379.191406 514.828125 365.308594 524.007812 C 351.421875 533.1875 337.871094 542.777344 324.566406 552.785156 C 311.261719 562.789062 298.53125 573.457031 284.566406 583.378906 C 285.890625 581.148438 287.210938 578.832031 288.617188 576.597656 C 317.210938 531.285156 344.066406 484.976562 361.503906 434.039062 C 365.308594 423.042969 367.867188 411.546875 371.671875 400.550781 C 373.15625 396.25 375.96875 391.621094 379.605469 389.054688 C 410.675781 367.226562 444.972656 352.011719 481.417969 341.507812 C 483.894531 340.847656 486.375 340.019531 490.175781 338.863281 Z M 490.175781 338.863281 " fill-opacity="1" fill-rule="nonzero"/></g><g clip-path="url(#0c57448cf3)"><path fill="#0d1853" d="M 344.359375 392.644531 C 340.476562 381.234375 336.921875 370.734375 333.367188 359.984375 C 345.597656 350.554688 358.242188 340.964844 370.886719 331.289062 C 370.390625 330.628906 369.976562 329.964844 369.480469 329.304688 C 301.714844 350.390625 242.296875 386.445312 187.011719 431.097656 C 188.996094 427.953125 190.894531 424.730469 192.878906 421.585938 C 214.363281 386.859375 234.777344 351.382812 245.191406 311.527344 C 248.246094 299.867188 254.117188 292.753906 264.199219 287.050781 C 300.144531 266.460938 337.996094 251.988281 380.058594 253.3125 C 437.90625 255.046875 458.484375 297.054688 458.238281 338.402344 C 458.15625 351.546875 451.296875 362.710938 443.527344 373.046875 C 440.140625 377.597656 436.339844 381.8125 432.289062 386.691406 C 433.941406 387.4375 435.179688 388.347656 436.585938 388.59375 C 484.683594 399.097656 509.0625 431.179688 519.226562 477.320312 C 526.5 510.316406 515.09375 536.941406 494.433594 561.171875 C 475.261719 583.828125 451.792969 601.441406 427.414062 617.898438 C 411.050781 628.894531 394.355469 639.480469 377.746094 650.144531 C 376.507812 650.972656 375.101562 651.550781 373.28125 652.460938 C 370.058594 611.695312 359.976562 573.324219 344.9375 535.703125 C 362.871094 521.976562 381.132812 508.082031 399.398438 494.109375 C 398.984375 493.28125 398.570312 492.453125 398.15625 491.542969 C 382.785156 496.917969 367.25 501.796875 352.210938 507.75 C 336.757812 513.871094 321.550781 520.652344 306.675781 527.929688 C 291.46875 535.289062 276.59375 543.308594 261.964844 551.660156 C 247.585938 559.929688 233.371094 568.613281 219.488281 577.792969 C 205.605469 586.96875 192.050781 596.5625 178.746094 606.566406 C 165.441406 616.574219 152.714844 627.242188 138.75 637.164062 C 140.070312 634.929688 141.394531 632.617188 142.796875 630.382812 C 171.390625 585.066406 198.25 538.761719 215.6875 487.824219 C 219.488281 476.824219 222.050781 465.332031 225.851562 454.332031 C 227.339844 450.035156 230.148438 445.402344 233.785156 442.839844 C 264.859375 421.007812 299.15625 405.792969 335.597656 395.292969 C 338.078125 394.628906 340.558594 393.804688 344.359375 392.644531 Z M 344.359375 392.644531 " fill-opacity="1" fill-rule="nonzero"/></g><g clip-path="url(#d5f38c9440)"><path fill="#ffbd59" d="M 319.554688 392.644531 C 315.667969 381.234375 312.117188 370.734375 308.5625 359.984375 C 320.792969 350.554688 333.4375 340.964844 346.082031 331.289062 C 345.585938 330.628906 345.171875 329.964844 344.675781 329.304688 C 276.910156 350.390625 217.492188 386.445312 162.207031 431.097656 C 164.1875 427.953125 166.089844 424.730469 168.074219 421.585938 C 189.558594 386.859375 209.972656 351.382812 220.386719 311.527344 C 223.441406 299.867188 229.308594 292.753906 239.390625 287.050781 C 275.339844 266.460938 313.191406 251.988281 355.253906 253.3125 C 413.101562 255.046875 433.679688 297.054688 433.433594 338.402344 C 433.351562 351.546875 426.492188 362.710938 418.722656 373.046875 C 415.335938 377.597656 411.53125 381.8125 407.484375 386.691406 C 409.136719 387.4375 410.375 388.347656 411.78125 388.59375 C 459.878906 399.097656 484.257812 431.179688 494.421875 477.320312 C 501.695312 510.316406 490.289062 536.941406 469.628906 561.171875 C 450.457031 583.828125 426.988281 601.441406 402.609375 617.898438 C 386.246094 628.894531 369.550781 639.480469 352.941406 650.144531 C 351.699219 650.972656 350.296875 651.550781 348.476562 652.460938 C 345.253906 611.695312 335.171875 573.324219 320.132812 535.703125 C 338.066406 521.976562 356.328125 508.082031 374.59375 494.109375 C 374.179688 493.28125 373.765625 492.453125 373.351562 491.542969 C 357.980469 496.917969 342.445312 501.796875 327.40625 507.75 C 311.949219 513.871094 296.746094 520.652344 281.871094 527.929688 C 266.664062 535.289062 251.789062 543.308594 237.160156 551.660156 C 222.78125 559.929688 208.566406 568.613281 194.683594 577.792969 C 180.800781 586.96875 167.246094 596.5625 153.941406 606.566406 C 140.636719 616.574219 127.910156 627.242188 113.945312 637.164062 C 115.265625 634.929688 116.589844 632.617188 117.992188 630.382812 C 146.585938 585.066406 173.445312 538.761719 190.882812 487.824219 C 194.683594 476.824219 197.246094 465.332031 201.046875 454.332031 C 202.535156 450.035156 205.34375 445.402344 208.980469 442.839844 C 240.054688 421.007812 274.347656 405.792969 310.792969 395.292969 C 313.273438 394.628906 315.753906 393.804688 319.554688 392.644531 Z M 319.554688 392.644531 " fill-opacity="1" fill-rule="nonzero"/></g></svg>