<svg xmlns="http://www.w3.org/2000/svg" xmlns:xlink="http://www.w3.org/1999/xlink" width="1080" zoomAndPan="magnify" viewBox="0 0 810 809.999993" height="1080" preserveAspectRatio="xMidYMid meet" version="1.0"><defs><clipPath id="d03e831183"><path d="M 175 203 L 567 203 L 567 615 L 175 615 Z M 175 203 " clip-rule="nonzero"/></clipPath><clipPath id="63d73b1fbd"><path d="M 258.761719 113.554688 L 649.613281 528.449219 L 470.554688 697.132812 L 79.703125 282.238281 Z M 258.761719 113.554688 " clip-rule="nonzero"/></clipPath><clipPath id="d0e8c7405d"><path d="M 258.761719 113.554688 L 649.613281 528.449219 L 470.554688 697.132812 L 79.703125 282.238281 Z M 258.761719 113.554688 " clip-rule="nonzero"/></clipPath><clipPath id="046cf24a02"><path d="M 258.761719 113.554688 L 649.613281 528.449219 L 470.554688 697.132812 L 79.703125 282.238281 Z M 258.761719 113.554688 " clip-rule="nonzero"/></clipPath><clipPath id="48c5c03ba3"><path d="M 168 191 L 370 191 L 370 399 L 168 399 Z M 168 191 " clip-rule="nonzero"/></clipPath><clipPath id="9d23e2fb53"><path d="M 258.761719 113.554688 L 649.613281 528.449219 L 470.554688 697.132812 L 79.703125 282.238281 Z M 258.761719 113.554688 " clip-rule="nonzero"/></clipPath><clipPath id="b954c41044"><path d="M 258.761719 113.554688 L 649.613281 528.449219 L 470.554688 697.132812 L 79.703125 282.238281 Z M 258.761719 113.554688 " clip-rule="nonzero"/></clipPath><clipPath id="001415eced"><path d="M 258.761719 113.554688 L 649.613281 528.449219 L 470.554688 697.132812 L 79.703125 282.238281 Z M 258.761719 113.554688 " clip-rule="nonzero"/></clipPath><clipPath id="f2eefdc71b"><path d="M 565 613 L 621 613 L 621 669 L 565 669 Z M 565 613 " clip-rule="nonzero"/></clipPath><clipPath id="40b33fd63d"><path d="M 619.84375 613.554688 L 620.335938 668.480469 L 565.410156 668.96875 L 564.921875 614.042969 Z M 619.84375 613.554688 " clip-rule="nonzero"/></clipPath><clipPath id="236cd95ff5"><path d="M 620.089844 641.019531 C 619.953125 625.851562 607.550781 613.664062 592.382812 613.800781 C 577.214844 613.933594 565.03125 626.339844 565.164062 641.507812 C 565.300781 656.675781 577.703125 668.859375 592.871094 668.726562 C 608.039062 668.589844 620.226562 656.183594 620.089844 641.019531 " clip-rule="nonzero"/></clipPath></defs><g clip-path="url(#d03e831183)"><g clip-path="url(#63d73b1fbd)"><g clip-path="url(#d0e8c7405d)"><g clip-path="url(#046cf24a02)"><path stroke-linecap="round" transform="matrix(6.683436, 7.094578, -7.105526, 6.69375, 388.270911, -16.613616)" fill="none" stroke-linejoin="round" d="M 5.038496 31.209215 L 56.143459 31.208956 " stroke="#333333" stroke-width="5" stroke-opacity="1" stroke-miterlimit="4"/></g></g></g></g><g clip-path="url(#48c5c03ba3)"><g clip-path="url(#9d23e2fb53)"><g clip-path="url(#b954c41044)"><g clip-path="url(#001415eced)"><path stroke-linecap="round" transform="matrix(6.683436, 7.094578, -7.105526, 6.69375, 388.270911, -16.613616)" fill="none" stroke-linejoin="round" d="M 16.537008 21.59219 L 3.617971 30.873066 L 16.228939 41.185164 " stroke="#333333" stroke-width="5" stroke-opacity="1" stroke-miterlimit="4"/></g></g></g></g><g clip-path="url(#f2eefdc71b)"><g clip-path="url(#40b33fd63d)"><g clip-path="url(#236cd95ff5)"><path fill="#ff533d" d="M 619.84375 613.554688 L 620.335938 668.480469 L 565.410156 668.96875 L 564.921875 614.042969 Z M 619.84375 613.554688 " fill-opacity="1" fill-rule="nonzero"/></g></g></g></svg>