<svg xmlns="http://www.w3.org/2000/svg" xmlns:xlink="http://www.w3.org/1999/xlink" width="1080" zoomAndPan="magnify" viewBox="0 0 810 809.999993" height="1080" preserveAspectRatio="xMidYMid meet" version="1.0"><defs><clipPath id="7b02628b75"><path d="M 203 227 L 595 227 L 595 639 L 203 639 Z M 203 227 " clip-rule="nonzero"/></clipPath><clipPath id="74e821077b"><path d="M 511.082031 728.996094 L 120.230469 314.101562 L 299.289062 145.421875 L 690.140625 560.3125 Z M 511.082031 728.996094 " clip-rule="nonzero"/></clipPath><clipPath id="b5dc652561"><path d="M 511.082031 728.996094 L 120.230469 314.101562 L 299.289062 145.421875 L 690.140625 560.3125 Z M 511.082031 728.996094 " clip-rule="nonzero"/></clipPath><clipPath id="eec198f525"><path d="M 511.082031 728.996094 L 120.230469 314.101562 L 299.289062 145.421875 L 690.140625 560.3125 Z M 511.082031 728.996094 " clip-rule="nonzero"/></clipPath><clipPath id="df710ef443"><path d="M 400 443 L 602 443 L 602 652 L 400 652 Z M 400 443 " clip-rule="nonzero"/></clipPath><clipPath id="80ca36d52e"><path d="M 511.082031 728.996094 L 120.230469 314.101562 L 299.289062 145.421875 L 690.140625 560.3125 Z M 511.082031 728.996094 " clip-rule="nonzero"/></clipPath><clipPath id="91b202bc25"><path d="M 511.082031 728.996094 L 120.230469 314.101562 L 299.289062 145.421875 L 690.140625 560.3125 Z M 511.082031 728.996094 " clip-rule="nonzero"/></clipPath><clipPath id="f422456738"><path d="M 511.082031 728.996094 L 120.230469 314.101562 L 299.289062 145.421875 L 690.140625 560.3125 Z M 511.082031 728.996094 " clip-rule="nonzero"/></clipPath><clipPath id="e0fbde43f2"><path d="M 149 173 L 205 173 L 205 229 L 149 229 Z M 149 173 " clip-rule="nonzero"/></clipPath><clipPath id="0c7a0cac21"><path d="M 150.007812 228.996094 L 149.515625 174.070312 L 204.441406 173.582031 L 204.929688 228.507812 Z M 150.007812 228.996094 " clip-rule="nonzero"/></clipPath><clipPath id="093c4e68d6"><path d="M 149.761719 201.535156 C 149.898438 216.699219 162.300781 228.886719 177.46875 228.75 C 192.636719 228.617188 204.820312 216.210938 204.6875 201.042969 C 204.550781 185.878906 192.144531 173.691406 176.980469 173.828125 C 161.8125 173.960938 149.625 186.367188 149.761719 201.535156 " clip-rule="nonzero"/></clipPath></defs><g clip-path="url(#7b02628b75)"><g clip-path="url(#74e821077b)"><g clip-path="url(#b5dc652561)"><g clip-path="url(#eec198f525)"><path stroke-linecap="round" transform="matrix(-6.683436, -7.094578, 7.105526, -6.69375, 381.573236, 859.165465)" fill="none" stroke-linejoin="round" d="M 5.038312 31.208986 L 56.143566 31.209002 " stroke="#333333" stroke-width="5" stroke-opacity="1" stroke-miterlimit="4"/></g></g></g></g><g clip-path="url(#df710ef443)"><g clip-path="url(#80ca36d52e)"><g clip-path="url(#91b202bc25)"><g clip-path="url(#f422456738)"><path stroke-linecap="round" transform="matrix(-6.683436, -7.094578, 7.105526, -6.69375, 381.573236, 859.165465)" fill="none" stroke-linejoin="round" d="M 16.536824 21.59196 L 3.618079 30.873111 L 16.229046 41.185209 " stroke="#333333" stroke-width="5" stroke-opacity="1" stroke-miterlimit="4"/></g></g></g></g><g clip-path="url(#e0fbde43f2)"><g clip-path="url(#0c7a0cac21)"><g clip-path="url(#093c4e68d6)"><path fill="#ff533d" d="M 150.007812 228.996094 L 149.515625 174.070312 L 204.441406 173.582031 L 204.929688 228.507812 Z M 150.007812 228.996094 " fill-opacity="1" fill-rule="nonzero"/></g></g></g></svg>