<svg xmlns="http://www.w3.org/2000/svg" xmlns:xlink="http://www.w3.org/1999/xlink" width="1080" zoomAndPan="magnify" viewBox="0 0 810 809.999993" height="1080" preserveAspectRatio="xMidYMid meet" version="1.0"><defs><clipPath id="3cd24e2fa4"><path d="M 77 57 L 735.75 57 L 735.75 716 L 77 716 Z M 77 57 " clip-rule="nonzero"/></clipPath></defs><g clip-path="url(#3cd24e2fa4)"><path fill="#4e3ec8" d="M 715.171875 242.617188 C 703.773438 242.617188 694.59375 233.441406 694.59375 222.039062 L 694.59375 98.570312 L 571.125 98.570312 C 559.722656 98.570312 550.542969 89.390625 550.542969 78.050781 C 550.542969 66.648438 559.722656 57.472656 571.125 57.472656 L 704.941406 57.472656 C 721.894531 57.472656 735.75 71.269531 735.75 88.28125 L 735.75 222.097656 C 735.75 233.441406 726.570312 242.617188 715.171875 242.617188 Z M 715.171875 715.921875 C 703.773438 715.921875 694.59375 706.742188 694.59375 695.339844 L 694.59375 304.351562 C 694.59375 293.011719 703.773438 283.773438 715.171875 283.773438 C 726.570312 283.773438 735.75 293.011719 735.75 304.351562 L 735.75 695.339844 C 735.75 706.742188 726.570312 715.921875 715.171875 715.921875 Z M 612.28125 715.921875 C 600.878906 715.921875 591.703125 706.742188 591.703125 695.339844 L 591.703125 304.351562 C 591.703125 293.011719 600.878906 283.773438 612.28125 283.773438 C 623.679688 283.773438 632.859375 293.011719 632.859375 304.351562 L 632.859375 695.339844 C 632.859375 706.742188 623.679688 715.921875 612.28125 715.921875 Z M 509.386719 715.921875 C 497.988281 715.921875 488.808594 706.742188 488.808594 695.339844 L 488.808594 407.246094 C 488.808594 395.902344 497.988281 386.667969 509.386719 386.667969 C 520.789062 386.667969 529.964844 395.902344 529.964844 407.246094 L 529.964844 695.339844 C 529.964844 706.742188 520.789062 715.921875 509.386719 715.921875 Z M 406.496094 715.921875 C 395.15625 715.921875 385.917969 706.742188 385.917969 695.339844 L 385.917969 427.824219 C 385.917969 416.480469 395.15625 407.246094 406.496094 407.246094 C 417.898438 407.246094 427.074219 416.480469 427.074219 427.824219 L 427.074219 695.339844 C 427.074219 706.742188 417.898438 715.921875 406.496094 715.921875 Z M 303.605469 715.921875 C 292.261719 715.921875 283.027344 706.742188 283.027344 695.339844 L 283.027344 427.824219 C 283.027344 416.480469 292.261719 407.246094 303.605469 407.246094 C 315.003906 407.246094 324.183594 416.480469 324.183594 427.824219 L 324.183594 695.339844 C 324.183594 706.742188 315.003906 715.921875 303.605469 715.921875 Z M 97.820312 715.921875 C 86.480469 715.921875 77.242188 706.742188 77.242188 695.339844 L 77.242188 613.027344 C 77.242188 601.628906 86.480469 592.449219 97.820312 592.449219 C 109.222656 592.449219 118.398438 601.628906 118.398438 613.027344 L 118.398438 695.339844 C 118.398438 706.742188 109.222656 715.921875 97.820312 715.921875 Z M 200.714844 715.921875 C 189.371094 715.921875 180.136719 706.742188 180.136719 695.339844 L 180.136719 520.425781 C 180.136719 509.027344 189.371094 499.847656 200.714844 499.847656 C 212.113281 499.847656 221.292969 509.027344 221.292969 520.425781 L 221.292969 695.339844 C 221.292969 706.742188 212.113281 715.921875 200.714844 715.921875 Z M 97.820312 530.714844 C 92.210938 530.714844 86.597656 528.433594 82.503906 523.933594 C 74.90625 515.457031 75.605469 502.417969 84.023438 494.878906 L 266.363281 330.835938 C 285.304688 313.765625 309.742188 304.351562 335.230469 304.351562 L 434.089844 304.351562 C 450.632812 304.351562 466.128906 297.921875 477.820312 286.230469 L 680.035156 84.070312 C 688.105469 76.003906 701.082031 76.003906 709.148438 84.070312 C 717.21875 92.082031 717.21875 105.117188 709.148438 113.125 L 506.933594 315.34375 C 487.464844 334.8125 461.625 345.511719 434.148438 345.511719 L 335.230469 345.511719 C 319.972656 345.511719 305.300781 351.179688 293.898438 361.410156 L 111.617188 525.453125 C 107.703125 528.960938 102.789062 530.714844 97.820312 530.714844 " fill-opacity="1" fill-rule="nonzero"/></g></svg>