<svg xmlns="http://www.w3.org/2000/svg" xmlns:xlink="http://www.w3.org/1999/xlink" width="1080" zoomAndPan="magnify" viewBox="0 0 810 809.999993" height="1080" preserveAspectRatio="xMidYMid meet" version="1.0"><defs><clipPath id="f011044f65"><path d="M 53 53 L 757.25 53 L 757.25 757.25 L 53 757.25 Z M 53 53 " clip-rule="nonzero"/></clipPath></defs><g clip-path="url(#f011044f65)"><path fill="#4b5aa7" d="M 757.183594 405.097656 C 757.183594 599.550781 599.550781 757.183594 405.097656 757.183594 C 210.640625 757.183594 53 599.550781 53 405.097656 C 53 210.640625 210.640625 53 405.097656 53 C 599.550781 53 757.183594 210.640625 757.183594 405.097656 Z M 757.183594 405.097656 " fill-opacity="1" fill-rule="nonzero"/></g><path fill="#dededf" d="M 679.359375 201.148438 L 130.828125 201.148438 C 125.203125 201.148438 120.515625 205.835938 120.515625 211.46875 L 120.515625 598.722656 C 120.515625 604.347656 125.203125 609.035156 130.828125 609.035156 L 679.359375 609.035156 C 684.984375 609.035156 689.679688 604.347656 689.679688 598.722656 L 689.679688 211.46875 C 689.679688 205.835938 684.984375 201.148438 679.359375 201.148438 Z M 679.359375 201.148438 " fill-opacity="1" fill-rule="nonzero"/><path fill="#f1f3f7" d="M 149.113281 581.375 L 661.074219 581.375 L 661.074219 275.222656 L 149.113281 275.222656 Z M 149.113281 581.375 " fill-opacity="1" fill-rule="nonzero"/><path fill="#f0582f" d="M 176.304688 242.875 C 176.304688 250.386719 170.21875 256.472656 162.707031 256.472656 C 155.195312 256.472656 149.113281 250.386719 149.113281 242.875 C 149.113281 235.371094 155.195312 229.277344 162.707031 229.277344 C 170.21875 229.277344 176.304688 235.371094 176.304688 242.875 Z M 176.304688 242.875 " fill-opacity="1" fill-rule="nonzero"/><path fill="#71d456" d="M 218.964844 242.875 C 218.964844 250.386719 212.878906 256.472656 205.371094 256.472656 C 197.867188 256.472656 191.773438 250.386719 191.773438 242.875 C 191.773438 235.371094 197.867188 229.277344 205.371094 229.277344 C 212.878906 229.277344 218.964844 235.371094 218.964844 242.875 Z M 218.964844 242.875 " fill-opacity="1" fill-rule="nonzero"/><path fill="#4485c5" d="M 261.628906 242.875 C 261.628906 250.386719 255.542969 256.472656 248.03125 256.472656 C 240.527344 256.472656 234.433594 250.386719 234.433594 242.875 C 234.433594 235.371094 240.527344 229.277344 248.03125 229.277344 C 255.542969 229.277344 261.628906 235.371094 261.628906 242.875 Z M 261.628906 242.875 " fill-opacity="1" fill-rule="nonzero"/><path fill="#f1f3f7" d="M 647.476562 229.277344 L 297.730469 229.277344 C 290.230469 229.277344 284.132812 235.378906 284.132812 242.875 C 284.132812 250.378906 290.230469 256.472656 297.730469 256.472656 L 647.476562 256.472656 C 654.980469 256.472656 661.074219 250.378906 661.074219 242.875 C 661.074219 235.378906 654.980469 229.277344 647.476562 229.277344 Z M 647.476562 229.277344 " fill-opacity="1" fill-rule="nonzero"/><path fill="#646b79" d="M 226 523.707031 L 214.746094 513.859375 L 340.398438 377.902344 L 477.757812 465.574219 L 584.191406 332.894531 L 595.90625 342.269531 L 481.042969 485.261719 L 342.738281 397.125 Z M 226 523.707031 " fill-opacity="1" fill-rule="nonzero"/><path fill="#6eb1e1" d="M 251.316406 519.015625 C 251.316406 536.105469 237.460938 549.960938 220.371094 549.960938 C 203.28125 549.960938 189.433594 536.105469 189.433594 519.015625 C 189.433594 501.929688 203.28125 488.078125 220.371094 488.078125 C 237.460938 488.078125 251.316406 501.929688 251.316406 519.015625 Z M 251.316406 519.015625 " fill-opacity="1" fill-rule="nonzero"/><path fill="#fbd303" d="M 372.277344 387.746094 C 372.277344 404.835938 358.421875 418.691406 341.335938 418.691406 C 324.246094 418.691406 310.390625 404.835938 310.390625 387.746094 C 310.390625 370.660156 324.246094 356.804688 341.335938 356.804688 C 358.421875 356.804688 372.277344 370.660156 372.277344 387.746094 Z M 372.277344 387.746094 " fill-opacity="1" fill-rule="nonzero"/><path fill="#71d456" d="M 510.109375 475.417969 C 510.109375 492.507812 496.261719 506.363281 479.171875 506.363281 C 462.082031 506.363281 448.226562 492.507812 448.226562 475.417969 C 448.226562 458.328125 462.082031 444.472656 479.171875 444.472656 C 496.261719 444.472656 510.109375 458.328125 510.109375 475.417969 Z M 510.109375 475.417969 " fill-opacity="1" fill-rule="nonzero"/><path fill="#f0582f" d="M 620.753906 337.582031 C 620.753906 354.671875 606.902344 368.527344 589.816406 368.527344 C 572.726562 368.527344 558.871094 354.671875 558.871094 337.582031 C 558.871094 320.492188 572.726562 306.636719 589.816406 306.636719 C 606.902344 306.636719 620.753906 320.492188 620.753906 337.582031 Z M 620.753906 337.582031 " fill-opacity="1" fill-rule="nonzero"/></svg>