<svg xmlns="http://www.w3.org/2000/svg" xmlns:xlink="http://www.w3.org/1999/xlink" width="1080" zoomAndPan="magnify" viewBox="0 0 810 809.999993" height="1080" preserveAspectRatio="xMidYMid meet" version="1.0"><defs><g/><clipPath id="296bfdf8d1"><path d="M 67 31.332031 L 742.75 31.332031 L 742.75 707.082031 L 67 707.082031 Z M 67 31.332031 " clip-rule="nonzero"/></clipPath></defs><g clip-path="url(#296bfdf8d1)"><path fill="#4b5aa7" d="M 742.6875 369.179688 C 742.6875 555.765625 591.433594 707.019531 404.847656 707.019531 C 218.261719 707.019531 67 555.765625 67 369.179688 C 67 182.59375 218.261719 31.332031 404.847656 31.332031 C 591.433594 31.332031 742.6875 182.59375 742.6875 369.179688 Z M 742.6875 369.179688 " fill-opacity="1" fill-rule="nonzero"/></g><path fill="#dededf" d="M 668.011719 173.488281 L 141.675781 173.488281 C 136.28125 173.488281 131.78125 177.984375 131.78125 183.390625 L 131.78125 554.972656 C 131.78125 560.367188 136.28125 564.867188 141.675781 564.867188 L 668.011719 564.867188 C 673.40625 564.867188 677.914062 560.367188 677.914062 554.972656 L 677.914062 183.390625 C 677.914062 177.984375 673.40625 173.488281 668.011719 173.488281 Z M 668.011719 173.488281 " fill-opacity="1" fill-rule="nonzero"/><path fill="#f1f3f7" d="M 159.222656 538.324219 L 650.464844 538.324219 L 650.464844 244.5625 L 159.222656 244.5625 Z M 159.222656 538.324219 " fill-opacity="1" fill-rule="nonzero"/><path fill="#f0582f" d="M 185.3125 213.523438 C 185.3125 220.730469 179.476562 226.570312 172.269531 226.570312 C 165.0625 226.570312 159.222656 220.730469 159.222656 213.523438 C 159.222656 206.324219 165.0625 200.476562 172.269531 200.476562 C 179.476562 200.476562 185.3125 206.324219 185.3125 213.523438 Z M 185.3125 213.523438 " fill-opacity="1" fill-rule="nonzero"/><path fill="#71d456" d="M 226.25 213.523438 C 226.25 220.730469 220.410156 226.570312 213.203125 226.570312 C 206.003906 226.570312 200.15625 220.730469 200.15625 213.523438 C 200.15625 206.324219 206.003906 200.476562 213.203125 200.476562 C 220.410156 200.476562 226.25 206.324219 226.25 213.523438 Z M 226.25 213.523438 " fill-opacity="1" fill-rule="nonzero"/><path fill="#4485c5" d="M 267.183594 213.523438 C 267.183594 220.730469 261.347656 226.570312 254.136719 226.570312 C 246.9375 226.570312 241.09375 220.730469 241.09375 213.523438 C 241.09375 206.324219 246.9375 200.476562 254.136719 200.476562 C 261.347656 200.476562 267.183594 206.324219 267.183594 213.523438 Z M 267.183594 213.523438 " fill-opacity="1" fill-rule="nonzero"/><path fill="#f1f3f7" d="M 637.417969 200.476562 L 301.824219 200.476562 C 294.632812 200.476562 288.777344 206.332031 288.777344 213.523438 C 288.777344 220.726562 294.632812 226.570312 301.824219 226.570312 L 637.417969 226.570312 C 644.621094 226.570312 650.464844 220.726562 650.464844 213.523438 C 650.464844 206.332031 644.621094 200.476562 637.417969 200.476562 Z M 637.417969 200.476562 " fill-opacity="1" fill-rule="nonzero"/><path fill="#646b79" d="M 233 482.988281 L 222.199219 473.542969 L 342.765625 343.089844 L 474.570312 427.210938 L 576.695312 299.898438 L 587.9375 308.898438 L 477.722656 446.105469 L 345.011719 361.53125 Z M 233 482.988281 " fill-opacity="1" fill-rule="nonzero"/><path fill="#6eb1e1" d="M 257.289062 478.492188 C 257.289062 494.890625 243.996094 508.183594 227.597656 508.183594 C 211.199219 508.183594 197.910156 494.890625 197.910156 478.492188 C 197.910156 462.09375 211.199219 448.804688 227.597656 448.804688 C 243.996094 448.804688 257.289062 462.09375 257.289062 478.492188 Z M 257.289062 478.492188 " fill-opacity="1" fill-rule="nonzero"/><path fill="#fbd303" d="M 373.359375 352.535156 C 373.359375 368.933594 360.0625 382.226562 343.664062 382.226562 C 327.269531 382.226562 313.972656 368.933594 313.972656 352.535156 C 313.972656 336.136719 327.269531 322.839844 343.664062 322.839844 C 360.0625 322.839844 373.359375 336.136719 373.359375 352.535156 Z M 373.359375 352.535156 " fill-opacity="1" fill-rule="nonzero"/><path fill="#71d456" d="M 505.609375 436.65625 C 505.609375 453.054688 492.320312 466.351562 475.925781 466.351562 C 459.527344 466.351562 446.230469 453.054688 446.230469 436.65625 C 446.230469 420.261719 459.527344 406.964844 475.925781 406.964844 C 492.320312 406.964844 505.609375 420.261719 505.609375 436.65625 Z M 505.609375 436.65625 " fill-opacity="1" fill-rule="nonzero"/><path fill="#f0582f" d="M 611.777344 304.398438 C 611.777344 320.796875 598.488281 334.089844 582.089844 334.089844 C 565.691406 334.089844 552.398438 320.796875 552.398438 304.398438 C 552.398438 288 565.691406 274.707031 582.089844 274.707031 C 598.488281 274.707031 611.777344 288 611.777344 304.398438 Z M 611.777344 304.398438 " fill-opacity="1" fill-rule="nonzero"/><g fill="#1f117b" fill-opacity="1"><g transform="translate(98.338349, 766.88934)"><g><path d="M 28.125 0 L 20.71875 -10.546875 C 19.800781 -10.484375 19.078125 -10.453125 18.546875 -10.453125 L 10.0625 -10.453125 L 10.0625 0 L 5.15625 0 L 5.15625 -34.359375 L 18.546875 -34.359375 C 22.992188 -34.359375 26.492188 -33.289062 29.046875 -31.15625 C 31.597656 -29.03125 32.875 -26.101562 32.875 -22.375 C 32.875 -19.726562 32.21875 -17.472656 30.90625 -15.609375 C 29.601562 -13.742188 27.742188 -12.382812 25.328125 -11.53125 L 33.46875 0 Z M 18.40625 -14.625 C 21.507812 -14.625 23.878906 -15.296875 25.515625 -16.640625 C 27.148438 -17.984375 27.96875 -19.894531 27.96875 -22.375 C 27.96875 -24.863281 27.148438 -26.769531 25.515625 -28.09375 C 23.878906 -29.414062 21.507812 -30.078125 18.40625 -30.078125 L 10.0625 -30.078125 L 10.0625 -14.625 Z M 18.40625 -14.625 "/></g></g></g><g fill="#1f117b" fill-opacity="1"><g transform="translate(134.011286, 766.88934)"><g><path d="M 27.96875 -12.859375 C 27.96875 -12.492188 27.9375 -12.019531 27.875 -11.4375 L 6.765625 -11.4375 C 7.066406 -9.144531 8.078125 -7.300781 9.796875 -5.90625 C 11.515625 -4.519531 13.648438 -3.828125 16.203125 -3.828125 C 19.304688 -3.828125 21.804688 -4.875 23.703125 -6.96875 L 26.3125 -3.921875 C 25.132812 -2.546875 23.664062 -1.5 21.90625 -0.78125 C 20.15625 -0.0625 18.203125 0.296875 16.046875 0.296875 C 13.296875 0.296875 10.859375 -0.265625 8.734375 -1.390625 C 6.609375 -2.523438 4.960938 -4.101562 3.796875 -6.125 C 2.640625 -8.15625 2.0625 -10.445312 2.0625 -13 C 2.0625 -15.519531 2.625 -17.796875 3.75 -19.828125 C 4.882812 -21.859375 6.441406 -23.4375 8.421875 -24.5625 C 10.398438 -25.6875 12.628906 -26.25 15.109375 -26.25 C 17.597656 -26.25 19.816406 -25.6875 21.765625 -24.5625 C 23.710938 -23.4375 25.234375 -21.859375 26.328125 -19.828125 C 27.421875 -17.796875 27.96875 -15.472656 27.96875 -12.859375 Z M 15.109375 -22.28125 C 12.859375 -22.28125 10.972656 -21.59375 9.453125 -20.21875 C 7.929688 -18.84375 7.035156 -17.046875 6.765625 -14.828125 L 23.453125 -14.828125 C 23.191406 -17.015625 22.300781 -18.800781 20.78125 -20.1875 C 19.257812 -21.582031 17.367188 -22.28125 15.109375 -22.28125 Z M 15.109375 -22.28125 "/></g></g></g><g fill="#1f117b" fill-opacity="1"><g transform="translate(164.041326, 766.88934)"><g><path d="M 15.796875 0.296875 C 13.148438 0.296875 10.785156 -0.273438 8.703125 -1.421875 C 6.628906 -2.566406 5.003906 -4.144531 3.828125 -6.15625 C 2.648438 -8.164062 2.0625 -10.445312 2.0625 -13 C 2.0625 -15.550781 2.648438 -17.832031 3.828125 -19.84375 C 5.003906 -21.863281 6.628906 -23.4375 8.703125 -24.5625 C 10.785156 -25.6875 13.148438 -26.25 15.796875 -26.25 C 18.160156 -26.25 20.265625 -25.773438 22.109375 -24.828125 C 23.953125 -23.878906 25.382812 -22.507812 26.40625 -20.71875 L 22.828125 -18.40625 C 22.003906 -19.644531 20.988281 -20.578125 19.78125 -21.203125 C 18.570312 -21.828125 17.226562 -22.140625 15.75 -22.140625 C 14.050781 -22.140625 12.519531 -21.757812 11.15625 -21 C 9.800781 -20.25 8.738281 -19.175781 7.96875 -17.78125 C 7.207031 -16.394531 6.828125 -14.800781 6.828125 -13 C 6.828125 -11.164062 7.207031 -9.550781 7.96875 -8.15625 C 8.738281 -6.769531 9.800781 -5.703125 11.15625 -4.953125 C 12.519531 -4.203125 14.050781 -3.828125 15.75 -3.828125 C 17.226562 -3.828125 18.570312 -4.132812 19.78125 -4.75 C 20.988281 -5.375 22.003906 -6.3125 22.828125 -7.5625 L 26.40625 -5.296875 C 25.382812 -3.492188 23.953125 -2.109375 22.109375 -1.140625 C 20.265625 -0.179688 18.160156 0.296875 15.796875 0.296875 Z M 15.796875 0.296875 "/></g></g></g><g fill="#1f117b" fill-opacity="1"><g transform="translate(192.059549, 766.88934)"><g><path d="M 15.609375 0.296875 C 13.023438 0.296875 10.703125 -0.273438 8.640625 -1.421875 C 6.578125 -2.566406 4.960938 -4.144531 3.796875 -6.15625 C 2.640625 -8.164062 2.0625 -10.445312 2.0625 -13 C 2.0625 -15.550781 2.640625 -17.832031 3.796875 -19.84375 C 4.960938 -21.863281 6.578125 -23.4375 8.640625 -24.5625 C 10.703125 -25.6875 13.023438 -26.25 15.609375 -26.25 C 18.191406 -26.25 20.503906 -25.6875 22.546875 -24.5625 C 24.597656 -23.4375 26.203125 -21.863281 27.359375 -19.84375 C 28.523438 -17.832031 29.109375 -15.550781 29.109375 -13 C 29.109375 -10.445312 28.523438 -8.164062 27.359375 -6.15625 C 26.203125 -4.144531 24.597656 -2.566406 22.546875 -1.421875 C 20.503906 -0.273438 18.191406 0.296875 15.609375 0.296875 Z M 15.609375 -3.828125 C 17.273438 -3.828125 18.769531 -4.210938 20.09375 -4.984375 C 21.414062 -5.753906 22.453125 -6.832031 23.203125 -8.21875 C 23.960938 -9.613281 24.34375 -11.207031 24.34375 -13 C 24.34375 -14.800781 23.960938 -16.394531 23.203125 -17.78125 C 22.453125 -19.175781 21.414062 -20.25 20.09375 -21 C 18.769531 -21.757812 17.273438 -22.140625 15.609375 -22.140625 C 13.941406 -22.140625 12.441406 -21.757812 11.109375 -21 C 9.785156 -20.25 8.738281 -19.175781 7.96875 -17.78125 C 7.207031 -16.394531 6.828125 -14.800781 6.828125 -13 C 6.828125 -11.207031 7.207031 -9.613281 7.96875 -8.21875 C 8.738281 -6.832031 9.785156 -5.753906 11.109375 -4.984375 C 12.441406 -4.210938 13.941406 -3.828125 15.609375 -3.828125 Z M 15.609375 -3.828125 "/></g></g></g><g fill="#1f117b" fill-opacity="1"><g transform="translate(223.218168, 766.88934)"><g><path d="M 8.984375 -21.640625 C 9.796875 -23.148438 11.003906 -24.296875 12.609375 -25.078125 C 14.210938 -25.859375 16.160156 -26.25 18.453125 -26.25 L 18.453125 -21.6875 C 18.191406 -21.71875 17.832031 -21.734375 17.375 -21.734375 C 14.820312 -21.734375 12.816406 -20.972656 11.359375 -19.453125 C 9.898438 -17.929688 9.171875 -15.765625 9.171875 -12.953125 L 9.171875 0 L 4.46875 0 L 4.46875 -26.015625 L 8.984375 -26.015625 Z M 8.984375 -21.640625 "/></g></g></g><g fill="#1f117b" fill-opacity="1"><g transform="translate(243.336335, 766.88934)"><g><path d="M 29 -36.421875 L 29 0 L 24.484375 0 L 24.484375 -4.125 C 23.441406 -2.6875 22.117188 -1.585938 20.515625 -0.828125 C 18.910156 -0.078125 17.144531 0.296875 15.21875 0.296875 C 12.695312 0.296875 10.4375 -0.257812 8.4375 -1.375 C 6.445312 -2.488281 4.882812 -4.050781 3.75 -6.0625 C 2.625 -8.070312 2.0625 -10.382812 2.0625 -13 C 2.0625 -15.625 2.625 -17.929688 3.75 -19.921875 C 4.882812 -21.921875 6.445312 -23.472656 8.4375 -24.578125 C 10.4375 -25.691406 12.695312 -26.25 15.21875 -26.25 C 17.082031 -26.25 18.796875 -25.894531 20.359375 -25.1875 C 21.929688 -24.488281 23.242188 -23.453125 24.296875 -22.078125 L 24.296875 -36.421875 Z M 15.609375 -3.828125 C 17.242188 -3.828125 18.726562 -4.210938 20.0625 -4.984375 C 21.40625 -5.753906 22.453125 -6.832031 23.203125 -8.21875 C 23.960938 -9.613281 24.34375 -11.207031 24.34375 -13 C 24.34375 -14.800781 23.960938 -16.394531 23.203125 -17.78125 C 22.453125 -19.175781 21.40625 -20.25 20.0625 -21 C 18.726562 -21.757812 17.242188 -22.140625 15.609375 -22.140625 C 13.941406 -22.140625 12.441406 -21.757812 11.109375 -21 C 9.785156 -20.25 8.738281 -19.175781 7.96875 -17.78125 C 7.207031 -16.394531 6.828125 -14.800781 6.828125 -13 C 6.828125 -11.207031 7.207031 -9.613281 7.96875 -8.21875 C 8.738281 -6.832031 9.785156 -5.753906 11.109375 -4.984375 C 12.441406 -4.210938 13.941406 -3.828125 15.609375 -3.828125 Z M 15.609375 -3.828125 "/></g></g></g><g fill="#1f117b" fill-opacity="1"><g transform="translate(276.801174, 766.88934)"><g/></g></g><g fill="#1f117b" fill-opacity="1"><g transform="translate(290.000663, 766.88934)"><g><path d="M 18.3125 -11.875 L 18.3125 0 L 13.453125 0 L 13.453125 -11.96875 L -0.203125 -34.359375 L 5.0625 -34.359375 L 16.046875 -16.25 L 27.09375 -34.359375 L 31.953125 -34.359375 Z M 18.3125 -11.875 "/></g></g></g><g fill="#1f117b" fill-opacity="1"><g transform="translate(321.748107, 766.88934)"><g><path d="M 15.609375 0.296875 C 13.023438 0.296875 10.703125 -0.273438 8.640625 -1.421875 C 6.578125 -2.566406 4.960938 -4.144531 3.796875 -6.15625 C 2.640625 -8.164062 2.0625 -10.445312 2.0625 -13 C 2.0625 -15.550781 2.640625 -17.832031 3.796875 -19.84375 C 4.960938 -21.863281 6.578125 -23.4375 8.640625 -24.5625 C 10.703125 -25.6875 13.023438 -26.25 15.609375 -26.25 C 18.191406 -26.25 20.503906 -25.6875 22.546875 -24.5625 C 24.597656 -23.4375 26.203125 -21.863281 27.359375 -19.84375 C 28.523438 -17.832031 29.109375 -15.550781 29.109375 -13 C 29.109375 -10.445312 28.523438 -8.164062 27.359375 -6.15625 C 26.203125 -4.144531 24.597656 -2.566406 22.546875 -1.421875 C 20.503906 -0.273438 18.191406 0.296875 15.609375 0.296875 Z M 15.609375 -3.828125 C 17.273438 -3.828125 18.769531 -4.210938 20.09375 -4.984375 C 21.414062 -5.753906 22.453125 -6.832031 23.203125 -8.21875 C 23.960938 -9.613281 24.34375 -11.207031 24.34375 -13 C 24.34375 -14.800781 23.960938 -16.394531 23.203125 -17.78125 C 22.453125 -19.175781 21.414062 -20.25 20.09375 -21 C 18.769531 -21.757812 17.273438 -22.140625 15.609375 -22.140625 C 13.941406 -22.140625 12.441406 -21.757812 11.109375 -21 C 9.785156 -20.25 8.738281 -19.175781 7.96875 -17.78125 C 7.207031 -16.394531 6.828125 -14.800781 6.828125 -13 C 6.828125 -11.207031 7.207031 -9.613281 7.96875 -8.21875 C 8.738281 -6.832031 9.785156 -5.753906 11.109375 -4.984375 C 12.441406 -4.210938 13.941406 -3.828125 15.609375 -3.828125 Z M 15.609375 -3.828125 "/></g></g></g><g fill="#1f117b" fill-opacity="1"><g transform="translate(352.906726, 766.88934)"><g><path d="M 28.703125 -26.015625 L 28.703125 0 L 24.25 0 L 24.25 -3.921875 C 23.300781 -2.578125 22.046875 -1.535156 20.484375 -0.796875 C 18.929688 -0.0664062 17.238281 0.296875 15.40625 0.296875 C 11.9375 0.296875 9.203125 -0.660156 7.203125 -2.578125 C 5.210938 -4.492188 4.21875 -7.316406 4.21875 -11.046875 L 4.21875 -26.015625 L 8.9375 -26.015625 L 8.9375 -11.578125 C 8.9375 -9.054688 9.539062 -7.148438 10.75 -5.859375 C 11.957031 -4.566406 13.691406 -3.921875 15.953125 -3.921875 C 18.441406 -3.921875 20.40625 -4.671875 21.84375 -6.171875 C 23.28125 -7.679688 24 -9.8125 24 -12.5625 L 24 -26.015625 Z M 28.703125 -26.015625 "/></g></g></g><g fill="#1f117b" fill-opacity="1"><g transform="translate(386.126242, 766.88934)"><g><path d="M 8.984375 -21.640625 C 9.796875 -23.148438 11.003906 -24.296875 12.609375 -25.078125 C 14.210938 -25.859375 16.160156 -26.25 18.453125 -26.25 L 18.453125 -21.6875 C 18.191406 -21.71875 17.832031 -21.734375 17.375 -21.734375 C 14.820312 -21.734375 12.816406 -20.972656 11.359375 -19.453125 C 9.898438 -17.929688 9.171875 -15.765625 9.171875 -12.953125 L 9.171875 0 L 4.46875 0 L 4.46875 -26.015625 L 8.984375 -26.015625 Z M 8.984375 -21.640625 "/></g></g></g><g fill="#1f117b" fill-opacity="1"><g transform="translate(406.244409, 766.88934)"><g/></g></g><g fill="#1f117b" fill-opacity="1"><g transform="translate(419.443898, 766.88934)"><g><path d="M 11.96875 -30.078125 L 0.203125 -30.078125 L 0.203125 -34.359375 L 28.609375 -34.359375 L 28.609375 -30.078125 L 16.828125 -30.078125 L 16.828125 0 L 11.96875 0 Z M 11.96875 -30.078125 "/></g></g></g><g fill="#1f117b" fill-opacity="1"><g transform="translate(448.247238, 766.88934)"><g><path d="M 8.984375 -21.640625 C 9.796875 -23.148438 11.003906 -24.296875 12.609375 -25.078125 C 14.210938 -25.859375 16.160156 -26.25 18.453125 -26.25 L 18.453125 -21.6875 C 18.191406 -21.71875 17.832031 -21.734375 17.375 -21.734375 C 14.820312 -21.734375 12.816406 -20.972656 11.359375 -19.453125 C 9.898438 -17.929688 9.171875 -15.765625 9.171875 -12.953125 L 9.171875 0 L 4.46875 0 L 4.46875 -26.015625 L 8.984375 -26.015625 Z M 8.984375 -21.640625 "/></g></g></g><g fill="#1f117b" fill-opacity="1"><g transform="translate(468.365405, 766.88934)"><g><path d="M 13.9375 -26.25 C 17.539062 -26.25 20.296875 -25.363281 22.203125 -23.59375 C 24.117188 -21.832031 25.078125 -19.203125 25.078125 -15.703125 L 25.078125 0 L 20.609375 0 L 20.609375 -3.4375 C 19.828125 -2.226562 18.707031 -1.300781 17.25 -0.65625 C 15.789062 -0.0195312 14.066406 0.296875 12.078125 0.296875 C 9.160156 0.296875 6.828125 -0.40625 5.078125 -1.8125 C 3.328125 -3.21875 2.453125 -5.066406 2.453125 -7.359375 C 2.453125 -9.648438 3.285156 -11.488281 4.953125 -12.875 C 6.617188 -14.269531 9.269531 -14.96875 12.90625 -14.96875 L 20.375 -14.96875 L 20.375 -15.90625 C 20.375 -17.925781 19.78125 -19.476562 18.59375 -20.5625 C 17.414062 -21.644531 15.679688 -22.1875 13.390625 -22.1875 C 11.859375 -22.1875 10.351562 -21.929688 8.875 -21.421875 C 7.40625 -20.910156 6.164062 -20.234375 5.15625 -19.390625 L 3.1875 -22.921875 C 4.53125 -24.003906 6.132812 -24.828125 8 -25.390625 C 9.863281 -25.960938 11.84375 -26.25 13.9375 -26.25 Z M 12.859375 -3.34375 C 14.660156 -3.34375 16.210938 -3.738281 17.515625 -4.53125 C 18.828125 -5.332031 19.78125 -6.472656 20.375 -7.953125 L 20.375 -11.578125 L 13.109375 -11.578125 C 9.109375 -11.578125 7.109375 -10.238281 7.109375 -7.5625 C 7.109375 -6.25 7.613281 -5.21875 8.625 -4.46875 C 9.644531 -3.71875 11.054688 -3.34375 12.859375 -3.34375 Z M 12.859375 -3.34375 "/></g></g></g><g fill="#1f117b" fill-opacity="1"><g transform="translate(497.708489, 766.88934)"><g><path d="M 18.359375 -26.25 C 21.660156 -26.25 24.285156 -25.289062 26.234375 -23.375 C 28.179688 -21.46875 29.15625 -18.664062 29.15625 -14.96875 L 29.15625 0 L 24.4375 0 L 24.4375 -14.421875 C 24.4375 -16.941406 23.832031 -18.835938 22.625 -20.109375 C 21.414062 -21.390625 19.679688 -22.03125 17.421875 -22.03125 C 14.867188 -22.03125 12.851562 -21.285156 11.375 -19.796875 C 9.90625 -18.304688 9.171875 -16.171875 9.171875 -13.390625 L 9.171875 0 L 4.46875 0 L 4.46875 -26.015625 L 8.984375 -26.015625 L 8.984375 -22.078125 C 9.929688 -23.421875 11.210938 -24.453125 12.828125 -25.171875 C 14.453125 -25.890625 16.296875 -26.25 18.359375 -26.25 Z M 18.359375 -26.25 "/></g></g></g><g fill="#1f117b" fill-opacity="1"><g transform="translate(531.124267, 766.88934)"><g><path d="M 11.921875 0.296875 C 9.796875 0.296875 7.75 0.0078125 5.78125 -0.5625 C 3.820312 -1.132812 2.285156 -1.863281 1.171875 -2.75 L 3.140625 -6.484375 C 4.285156 -5.660156 5.675781 -5.003906 7.3125 -4.515625 C 8.945312 -4.023438 10.597656 -3.78125 12.265625 -3.78125 C 16.390625 -3.78125 18.453125 -4.957031 18.453125 -7.3125 C 18.453125 -8.09375 18.171875 -8.710938 17.609375 -9.171875 C 17.054688 -9.628906 16.363281 -9.960938 15.53125 -10.171875 C 14.695312 -10.390625 13.507812 -10.628906 11.96875 -10.890625 C 9.875 -11.222656 8.164062 -11.597656 6.84375 -12.015625 C 5.519531 -12.441406 4.382812 -13.160156 3.4375 -14.171875 C 2.488281 -15.191406 2.015625 -16.617188 2.015625 -18.453125 C 2.015625 -20.804688 2.992188 -22.691406 4.953125 -24.109375 C 6.921875 -25.535156 9.554688 -26.25 12.859375 -26.25 C 14.585938 -26.25 16.316406 -26.035156 18.046875 -25.609375 C 19.785156 -25.191406 21.210938 -24.625 22.328125 -23.90625 L 20.3125 -20.171875 C 18.1875 -21.546875 15.6875 -22.234375 12.8125 -22.234375 C 10.8125 -22.234375 9.285156 -21.90625 8.234375 -21.25 C 7.191406 -20.59375 6.671875 -19.726562 6.671875 -18.65625 C 6.671875 -17.800781 6.960938 -17.128906 7.546875 -16.640625 C 8.140625 -16.148438 8.867188 -15.789062 9.734375 -15.5625 C 10.609375 -15.332031 11.828125 -15.066406 13.390625 -14.765625 C 15.492188 -14.410156 17.191406 -14.023438 18.484375 -13.609375 C 19.773438 -13.203125 20.878906 -12.507812 21.796875 -11.53125 C 22.710938 -10.550781 23.171875 -9.175781 23.171875 -7.40625 C 23.171875 -5.050781 22.160156 -3.175781 20.140625 -1.78125 C 18.128906 -0.394531 15.390625 0.296875 11.921875 0.296875 Z M 11.921875 0.296875 "/></g></g></g><g fill="#1f117b" fill-opacity="1"><g transform="translate(555.707691, 766.88934)"><g><path d="M 13.9375 -26.25 C 17.539062 -26.25 20.296875 -25.363281 22.203125 -23.59375 C 24.117188 -21.832031 25.078125 -19.203125 25.078125 -15.703125 L 25.078125 0 L 20.609375 0 L 20.609375 -3.4375 C 19.828125 -2.226562 18.707031 -1.300781 17.25 -0.65625 C 15.789062 -0.0195312 14.066406 0.296875 12.078125 0.296875 C 9.160156 0.296875 6.828125 -0.40625 5.078125 -1.8125 C 3.328125 -3.21875 2.453125 -5.066406 2.453125 -7.359375 C 2.453125 -9.648438 3.285156 -11.488281 4.953125 -12.875 C 6.617188 -14.269531 9.269531 -14.96875 12.90625 -14.96875 L 20.375 -14.96875 L 20.375 -15.90625 C 20.375 -17.925781 19.78125 -19.476562 18.59375 -20.5625 C 17.414062 -21.644531 15.679688 -22.1875 13.390625 -22.1875 C 11.859375 -22.1875 10.351562 -21.929688 8.875 -21.421875 C 7.40625 -20.910156 6.164062 -20.234375 5.15625 -19.390625 L 3.1875 -22.921875 C 4.53125 -24.003906 6.132812 -24.828125 8 -25.390625 C 9.863281 -25.960938 11.84375 -26.25 13.9375 -26.25 Z M 12.859375 -3.34375 C 14.660156 -3.34375 16.210938 -3.738281 17.515625 -4.53125 C 18.828125 -5.332031 19.78125 -6.472656 20.375 -7.953125 L 20.375 -11.578125 L 13.109375 -11.578125 C 9.109375 -11.578125 7.109375 -10.238281 7.109375 -7.5625 C 7.109375 -6.25 7.613281 -5.21875 8.625 -4.46875 C 9.644531 -3.71875 11.054688 -3.34375 12.859375 -3.34375 Z M 12.859375 -3.34375 "/></g></g></g><g fill="#1f117b" fill-opacity="1"><g transform="translate(585.050776, 766.88934)"><g><path d="M 15.796875 0.296875 C 13.148438 0.296875 10.785156 -0.273438 8.703125 -1.421875 C 6.628906 -2.566406 5.003906 -4.144531 3.828125 -6.15625 C 2.648438 -8.164062 2.0625 -10.445312 2.0625 -13 C 2.0625 -15.550781 2.648438 -17.832031 3.828125 -19.84375 C 5.003906 -21.863281 6.628906 -23.4375 8.703125 -24.5625 C 10.785156 -25.6875 13.148438 -26.25 15.796875 -26.25 C 18.160156 -26.25 20.265625 -25.773438 22.109375 -24.828125 C 23.953125 -23.878906 25.382812 -22.507812 26.40625 -20.71875 L 22.828125 -18.40625 C 22.003906 -19.644531 20.988281 -20.578125 19.78125 -21.203125 C 18.570312 -21.828125 17.226562 -22.140625 15.75 -22.140625 C 14.050781 -22.140625 12.519531 -21.757812 11.15625 -21 C 9.800781 -20.25 8.738281 -19.175781 7.96875 -17.78125 C 7.207031 -16.394531 6.828125 -14.800781 6.828125 -13 C 6.828125 -11.164062 7.207031 -9.550781 7.96875 -8.15625 C 8.738281 -6.769531 9.800781 -5.703125 11.15625 -4.953125 C 12.519531 -4.203125 14.050781 -3.828125 15.75 -3.828125 C 17.226562 -3.828125 18.570312 -4.132812 19.78125 -4.75 C 20.988281 -5.375 22.003906 -6.3125 22.828125 -7.5625 L 26.40625 -5.296875 C 25.382812 -3.492188 23.953125 -2.109375 22.109375 -1.140625 C 20.265625 -0.179688 18.160156 0.296875 15.796875 0.296875 Z M 15.796875 0.296875 "/></g></g></g><g fill="#1f117b" fill-opacity="1"><g transform="translate(613.068989, 766.88934)"><g><path d="M 19.09375 -1.515625 C 18.40625 -0.929688 17.550781 -0.484375 16.53125 -0.171875 C 15.519531 0.140625 14.472656 0.296875 13.390625 0.296875 C 10.773438 0.296875 8.75 -0.40625 7.3125 -1.8125 C 5.875 -3.21875 5.15625 -5.234375 5.15625 -7.859375 L 5.15625 -22.140625 L 0.734375 -22.140625 L 0.734375 -26.015625 L 5.15625 -26.015625 L 5.15625 -31.703125 L 9.859375 -31.703125 L 9.859375 -26.015625 L 17.328125 -26.015625 L 17.328125 -22.140625 L 9.859375 -22.140625 L 9.859375 -8.046875 C 9.859375 -6.640625 10.207031 -5.5625 10.90625 -4.8125 C 11.613281 -4.0625 12.625 -3.6875 13.9375 -3.6875 C 15.375 -3.6875 16.601562 -4.09375 17.625 -4.90625 Z M 19.09375 -1.515625 "/></g></g></g><g fill="#1f117b" fill-opacity="1"><g transform="translate(633.383438, 766.88934)"><g><path d="M 4.46875 -26.015625 L 9.171875 -26.015625 L 9.171875 0 L 4.46875 0 Z M 6.828125 -31.015625 C 5.910156 -31.015625 5.148438 -31.304688 4.546875 -31.890625 C 3.941406 -32.484375 3.640625 -33.207031 3.640625 -34.0625 C 3.640625 -34.914062 3.941406 -35.644531 4.546875 -36.25 C 5.148438 -36.851562 5.910156 -37.15625 6.828125 -37.15625 C 7.742188 -37.15625 8.503906 -36.867188 9.109375 -36.296875 C 9.710938 -35.722656 10.015625 -35.007812 10.015625 -34.15625 C 10.015625 -33.269531 9.710938 -32.523438 9.109375 -31.921875 C 8.503906 -31.316406 7.742188 -31.015625 6.828125 -31.015625 Z M 6.828125 -31.015625 "/></g></g></g><g fill="#1f117b" fill-opacity="1"><g transform="translate(647.073612, 766.88934)"><g><path d="M 15.609375 0.296875 C 13.023438 0.296875 10.703125 -0.273438 8.640625 -1.421875 C 6.578125 -2.566406 4.960938 -4.144531 3.796875 -6.15625 C 2.640625 -8.164062 2.0625 -10.445312 2.0625 -13 C 2.0625 -15.550781 2.640625 -17.832031 3.796875 -19.84375 C 4.960938 -21.863281 6.578125 -23.4375 8.640625 -24.5625 C 10.703125 -25.6875 13.023438 -26.25 15.609375 -26.25 C 18.191406 -26.25 20.503906 -25.6875 22.546875 -24.5625 C 24.597656 -23.4375 26.203125 -21.863281 27.359375 -19.84375 C 28.523438 -17.832031 29.109375 -15.550781 29.109375 -13 C 29.109375 -10.445312 28.523438 -8.164062 27.359375 -6.15625 C 26.203125 -4.144531 24.597656 -2.566406 22.546875 -1.421875 C 20.503906 -0.273438 18.191406 0.296875 15.609375 0.296875 Z M 15.609375 -3.828125 C 17.273438 -3.828125 18.769531 -4.210938 20.09375 -4.984375 C 21.414062 -5.753906 22.453125 -6.832031 23.203125 -8.21875 C 23.960938 -9.613281 24.34375 -11.207031 24.34375 -13 C 24.34375 -14.800781 23.960938 -16.394531 23.203125 -17.78125 C 22.453125 -19.175781 21.414062 -20.25 20.09375 -21 C 18.769531 -21.757812 17.273438 -22.140625 15.609375 -22.140625 C 13.941406 -22.140625 12.441406 -21.757812 11.109375 -21 C 9.785156 -20.25 8.738281 -19.175781 7.96875 -17.78125 C 7.207031 -16.394531 6.828125 -14.800781 6.828125 -13 C 6.828125 -11.207031 7.207031 -9.613281 7.96875 -8.21875 C 8.738281 -6.832031 9.785156 -5.753906 11.109375 -4.984375 C 12.441406 -4.210938 13.941406 -3.828125 15.609375 -3.828125 Z M 15.609375 -3.828125 "/></g></g></g><g fill="#1f117b" fill-opacity="1"><g transform="translate(678.232251, 766.88934)"><g><path d="M 18.359375 -26.25 C 21.660156 -26.25 24.285156 -25.289062 26.234375 -23.375 C 28.179688 -21.46875 29.15625 -18.664062 29.15625 -14.96875 L 29.15625 0 L 24.4375 0 L 24.4375 -14.421875 C 24.4375 -16.941406 23.832031 -18.835938 22.625 -20.109375 C 21.414062 -21.390625 19.679688 -22.03125 17.421875 -22.03125 C 14.867188 -22.03125 12.851562 -21.285156 11.375 -19.796875 C 9.90625 -18.304688 9.171875 -16.171875 9.171875 -13.390625 L 9.171875 0 L 4.46875 0 L 4.46875 -26.015625 L 8.984375 -26.015625 L 8.984375 -22.078125 C 9.929688 -23.421875 11.210938 -24.453125 12.828125 -25.171875 C 14.453125 -25.890625 16.296875 -26.25 18.359375 -26.25 Z M 18.359375 -26.25 "/></g></g></g></svg>