<svg xmlns="http://www.w3.org/2000/svg" xmlns:xlink="http://www.w3.org/1999/xlink" width="1080" zoomAndPan="magnify" viewBox="0 0 810 809.999993" height="1080" preserveAspectRatio="xMidYMid meet" version="1.0"><defs><clipPath id="0561fb3ce1"><path d="M 51.332031 51.332031 L 758.582031 51.332031 L 758.582031 758.582031 L 51.332031 758.582031 Z M 51.332031 51.332031 " clip-rule="nonzero"/></clipPath></defs><g clip-path="url(#0561fb3ce1)"><path fill="#5284ff" d="M 404.957031 51.332031 C 209.488281 51.332031 51.332031 209.488281 51.332031 404.957031 C 51.332031 437.816406 55.789062 469 64.140625 499.074219 C 105.351562 648.875 242.347656 758.582031 404.957031 758.582031 C 567.570312 758.582031 704.566406 648.875 745.773438 499.074219 C 754.128906 469 758.582031 437.816406 758.582031 404.957031 C 758.582031 209.488281 600.425781 51.332031 404.957031 51.332031 Z M 404.957031 51.332031 " fill-opacity="1" fill-rule="nonzero"/></g><path fill="#f4da80" d="M 588.730469 599.871094 L 221.183594 599.871094 C 215.058594 599.871094 210.046875 594.859375 210.046875 588.730469 L 210.046875 221.183594 C 210.046875 215.058594 215.058594 210.046875 221.183594 210.046875 L 588.730469 210.046875 C 594.859375 210.046875 599.871094 215.058594 599.871094 221.183594 L 599.871094 588.730469 C 599.871094 594.859375 594.859375 599.871094 588.730469 599.871094 Z M 588.730469 599.871094 " fill-opacity="1" fill-rule="nonzero"/><path fill="#474f5a" d="M 450.625 538.613281 C 446.726562 538.613281 443.382812 536.941406 441.714844 533.601562 L 339.246094 354.28125 L 275.203125 482.367188 L 256.824219 473.457031 L 329.777344 328.664062 C 331.449219 325.324219 334.789062 323.097656 338.6875 323.097656 C 342.585938 323.097656 345.929688 324.765625 347.597656 328.109375 L 448.953125 505.199219 L 534.15625 278.542969 L 553.089844 285.785156 L 460.089844 531.929688 C 458.417969 535.828125 455.078125 538.054688 451.179688 538.613281 C 451.179688 538.613281 451.179688 538.613281 450.625 538.613281 Z M 450.625 538.613281 " fill-opacity="1" fill-rule="nonzero"/><path fill="#ffffff" d="M 372.660156 332.5625 C 372.660156 333.675781 372.605469 334.785156 372.496094 335.890625 C 372.386719 337 372.222656 338.097656 372.007812 339.191406 C 371.789062 340.28125 371.519531 341.359375 371.195312 342.425781 C 370.871094 343.488281 370.5 344.535156 370.074219 345.5625 C 369.648438 346.589844 369.171875 347.59375 368.648438 348.578125 C 368.125 349.558594 367.550781 350.511719 366.933594 351.4375 C 366.316406 352.359375 365.652344 353.253906 364.949219 354.113281 C 364.242188 354.972656 363.496094 355.796875 362.710938 356.582031 C 361.921875 357.371094 361.097656 358.117188 360.238281 358.820312 C 359.378906 359.527344 358.488281 360.191406 357.5625 360.808594 C 356.636719 361.425781 355.683594 361.996094 354.703125 362.523438 C 353.722656 363.046875 352.714844 363.523438 351.6875 363.945312 C 350.660156 364.371094 349.613281 364.746094 348.550781 365.070312 C 347.484375 365.394531 346.40625 365.664062 345.316406 365.878906 C 344.222656 366.097656 343.125 366.261719 342.019531 366.371094 C 340.910156 366.480469 339.800781 366.53125 338.6875 366.53125 C 337.574219 366.53125 336.464844 366.480469 335.359375 366.371094 C 334.25 366.261719 333.152344 366.097656 332.0625 365.878906 C 330.96875 365.664062 329.890625 365.394531 328.828125 365.070312 C 327.761719 364.746094 326.714844 364.371094 325.6875 363.945312 C 324.660156 363.523438 323.65625 363.046875 322.675781 362.523438 C 321.695312 361.996094 320.742188 361.425781 319.816406 360.808594 C 318.890625 360.191406 317.996094 359.527344 317.136719 358.820312 C 316.277344 358.117188 315.453125 357.371094 314.667969 356.582031 C 313.882812 355.796875 313.136719 354.972656 312.429688 354.113281 C 311.722656 353.253906 311.0625 352.359375 310.441406 351.4375 C 309.824219 350.511719 309.253906 349.558594 308.730469 348.578125 C 308.203125 347.59375 307.730469 346.589844 307.304688 345.5625 C 306.878906 344.535156 306.503906 343.488281 306.179688 342.425781 C 305.859375 341.359375 305.589844 340.28125 305.371094 339.191406 C 305.152344 338.097656 304.992188 337 304.882812 335.890625 C 304.773438 334.785156 304.71875 333.675781 304.71875 332.5625 C 304.71875 331.449219 304.773438 330.339844 304.882812 329.234375 C 304.992188 328.125 305.152344 327.027344 305.371094 325.9375 C 305.589844 324.84375 305.859375 323.765625 306.179688 322.703125 C 306.503906 321.636719 306.878906 320.589844 307.304688 319.5625 C 307.730469 318.535156 308.203125 317.53125 308.730469 316.550781 C 309.253906 315.566406 309.824219 314.613281 310.441406 313.691406 C 311.0625 312.765625 311.722656 311.871094 312.429688 311.011719 C 313.136719 310.152344 313.882812 309.328125 314.667969 308.542969 C 315.453125 307.753906 316.277344 307.007812 317.136719 306.304688 C 317.996094 305.597656 318.890625 304.9375 319.816406 304.316406 C 320.742188 303.699219 321.695312 303.128906 322.675781 302.605469 C 323.65625 302.078125 324.660156 301.605469 325.6875 301.179688 C 326.714844 300.753906 327.761719 300.378906 328.828125 300.054688 C 329.890625 299.730469 330.96875 299.460938 332.0625 299.246094 C 333.152344 299.027344 334.25 298.863281 335.359375 298.757812 C 336.464844 298.648438 337.574219 298.59375 338.6875 298.59375 C 339.800781 298.59375 340.910156 298.648438 342.019531 298.757812 C 343.125 298.863281 344.222656 299.027344 345.316406 299.246094 C 346.40625 299.460938 347.484375 299.730469 348.550781 300.054688 C 349.613281 300.378906 350.660156 300.753906 351.6875 301.179688 C 352.714844 301.605469 353.71875 302.078125 354.703125 302.605469 C 355.683594 303.128906 356.636719 303.699219 357.5625 304.316406 C 358.488281 304.9375 359.378906 305.597656 360.238281 306.304688 C 361.097656 307.007812 361.921875 307.753906 362.710938 308.542969 C 363.496094 309.328125 364.242188 310.152344 364.949219 311.011719 C 365.652344 311.871094 366.316406 312.765625 366.933594 313.691406 C 367.550781 314.613281 368.125 315.566406 368.648438 316.550781 C 369.171875 317.53125 369.648438 318.535156 370.074219 319.5625 C 370.5 320.589844 370.871094 321.636719 371.195312 322.703125 C 371.519531 323.765625 371.789062 324.84375 372.007812 325.9375 C 372.222656 327.027344 372.386719 328.125 372.496094 329.234375 C 372.605469 330.339844 372.660156 331.449219 372.660156 332.5625 Z M 372.660156 332.5625 " fill-opacity="1" fill-rule="nonzero"/><path fill="#5284ff" d="M 356.507812 332.5625 C 356.507812 333.144531 356.480469 333.730469 356.421875 334.308594 C 356.367188 334.890625 356.28125 335.46875 356.167969 336.039062 C 356.050781 336.613281 355.910156 337.175781 355.742188 337.734375 C 355.570312 338.292969 355.375 338.84375 355.152344 339.382812 C 354.929688 339.921875 354.679688 340.449219 354.40625 340.964844 C 354.128906 341.476562 353.828125 341.976562 353.503906 342.464844 C 353.179688 342.949219 352.835938 343.417969 352.464844 343.867188 C 352.09375 344.320312 351.703125 344.75 351.289062 345.164062 C 350.875 345.578125 350.445312 345.96875 349.992188 346.339844 C 349.542969 346.707031 349.074219 347.054688 348.589844 347.378906 C 348.105469 347.703125 347.605469 348.003906 347.089844 348.277344 C 346.574219 348.554688 346.046875 348.804688 345.507812 349.027344 C 344.96875 349.25 344.417969 349.445312 343.863281 349.617188 C 343.304688 349.785156 342.738281 349.925781 342.164062 350.039062 C 341.59375 350.15625 341.015625 350.242188 340.433594 350.296875 C 339.855469 350.355469 339.273438 350.382812 338.6875 350.382812 C 338.105469 350.382812 337.523438 350.355469 336.941406 350.296875 C 336.359375 350.242188 335.785156 350.15625 335.210938 350.039062 C 334.640625 349.925781 334.074219 349.785156 333.515625 349.617188 C 332.957031 349.445312 332.40625 349.25 331.867188 349.027344 C 331.328125 348.804688 330.800781 348.554688 330.289062 348.277344 C 329.773438 348.003906 329.273438 347.703125 328.789062 347.378906 C 328.300781 347.054688 327.835938 346.707031 327.382812 346.339844 C 326.933594 345.96875 326.5 345.578125 326.085938 345.164062 C 325.675781 344.75 325.285156 344.320312 324.914062 343.867188 C 324.542969 343.417969 324.195312 342.949219 323.871094 342.464844 C 323.546875 341.976562 323.246094 341.476562 322.972656 340.964844 C 322.695312 340.449219 322.449219 339.921875 322.222656 339.382812 C 322 338.84375 321.804688 338.292969 321.636719 337.734375 C 321.464844 337.175781 321.324219 336.613281 321.210938 336.039062 C 321.097656 335.46875 321.011719 334.890625 320.953125 334.308594 C 320.898438 333.730469 320.867188 333.144531 320.867188 332.5625 C 320.867188 331.980469 320.898438 331.398438 320.953125 330.816406 C 321.011719 330.234375 321.097656 329.660156 321.210938 329.085938 C 321.324219 328.515625 321.464844 327.949219 321.636719 327.390625 C 321.804688 326.832031 322 326.28125 322.222656 325.742188 C 322.449219 325.203125 322.695312 324.675781 322.972656 324.164062 C 323.246094 323.648438 323.546875 323.148438 323.871094 322.664062 C 324.195312 322.175781 324.542969 321.707031 324.914062 321.257812 C 325.285156 320.804688 325.675781 320.375 326.085938 319.960938 C 326.5 319.550781 326.933594 319.15625 327.382812 318.789062 C 327.835938 318.417969 328.300781 318.070312 328.789062 317.746094 C 329.273438 317.421875 329.773438 317.121094 330.289062 316.847656 C 330.800781 316.570312 331.328125 316.320312 331.867188 316.097656 C 332.40625 315.875 332.957031 315.679688 333.515625 315.507812 C 334.074219 315.339844 334.640625 315.199219 335.210938 315.085938 C 335.785156 314.972656 336.359375 314.886719 336.941406 314.828125 C 337.523438 314.769531 338.105469 314.742188 338.6875 314.742188 C 339.273438 314.742188 339.855469 314.769531 340.433594 314.828125 C 341.015625 314.886719 341.59375 314.972656 342.164062 315.085938 C 342.738281 315.199219 343.304688 315.339844 343.863281 315.507812 C 344.417969 315.679688 344.96875 315.875 345.507812 316.097656 C 346.046875 316.320312 346.574219 316.570312 347.089844 316.847656 C 347.605469 317.121094 348.105469 317.421875 348.589844 317.746094 C 349.074219 318.070312 349.542969 318.417969 349.992188 318.789062 C 350.445312 319.15625 350.875 319.550781 351.289062 319.960938 C 351.703125 320.375 352.09375 320.804688 352.464844 321.257812 C 352.835938 321.707031 353.179688 322.175781 353.503906 322.664062 C 353.828125 323.148438 354.128906 323.648438 354.40625 324.164062 C 354.679688 324.675781 354.929688 325.203125 355.152344 325.742188 C 355.375 326.28125 355.570312 326.832031 355.742188 327.390625 C 355.910156 327.949219 356.050781 328.515625 356.167969 329.085938 C 356.28125 329.660156 356.367188 330.234375 356.421875 330.816406 C 356.480469 331.398438 356.507812 331.980469 356.507812 332.5625 Z M 356.507812 332.5625 " fill-opacity="1" fill-rule="nonzero"/><path fill="#ffffff" d="M 300.261719 477.355469 C 300.261719 478.464844 300.207031 479.578125 300.097656 480.683594 C 299.992188 481.792969 299.828125 482.890625 299.609375 483.980469 C 299.394531 485.074219 299.125 486.152344 298.800781 487.214844 C 298.476562 488.28125 298.101562 489.324219 297.675781 490.355469 C 297.25 491.382812 296.777344 492.386719 296.25 493.367188 C 295.726562 494.347656 295.15625 495.300781 294.539062 496.226562 C 293.917969 497.152344 293.257812 498.042969 292.550781 498.90625 C 291.847656 499.765625 291.101562 500.589844 290.3125 501.375 C 289.527344 502.160156 288.703125 502.90625 287.84375 503.613281 C 286.984375 504.320312 286.089844 504.980469 285.164062 505.597656 C 284.242188 506.21875 283.289062 506.789062 282.304688 507.3125 C 281.324219 507.835938 280.320312 508.3125 279.292969 508.738281 C 278.265625 509.164062 277.21875 509.539062 276.152344 509.863281 C 275.089844 510.183594 274.011719 510.453125 272.921875 510.671875 C 271.828125 510.890625 270.730469 511.050781 269.621094 511.160156 C 268.515625 511.269531 267.40625 511.324219 266.292969 511.324219 C 265.179688 511.324219 264.070312 511.269531 262.964844 511.160156 C 261.855469 511.050781 260.757812 510.890625 259.664062 510.671875 C 258.574219 510.453125 257.496094 510.183594 256.433594 509.863281 C 255.367188 509.539062 254.320312 509.164062 253.292969 508.738281 C 252.265625 508.3125 251.261719 507.835938 250.277344 507.3125 C 249.296875 506.789062 248.34375 506.21875 247.417969 505.597656 C 246.496094 504.980469 245.601562 504.320312 244.742188 503.613281 C 243.882812 502.90625 243.058594 502.160156 242.273438 501.375 C 241.484375 500.589844 240.738281 499.765625 240.035156 498.90625 C 239.328125 498.042969 238.664062 497.152344 238.046875 496.226562 C 237.429688 495.300781 236.859375 494.347656 236.332031 493.367188 C 235.808594 492.386719 235.335938 491.382812 234.910156 490.355469 C 234.484375 489.324219 234.109375 488.28125 233.785156 487.214844 C 233.460938 486.152344 233.191406 485.074219 232.976562 483.980469 C 232.757812 482.890625 232.59375 481.792969 232.484375 480.683594 C 232.378906 479.578125 232.324219 478.464844 232.324219 477.355469 C 232.324219 476.242188 232.378906 475.132812 232.484375 474.023438 C 232.59375 472.917969 232.757812 471.816406 232.976562 470.726562 C 233.191406 469.636719 233.460938 468.558594 233.785156 467.492188 C 234.109375 466.429688 234.484375 465.382812 234.910156 464.355469 C 235.335938 463.328125 235.808594 462.320312 236.332031 461.339844 C 236.859375 460.359375 237.429688 459.40625 238.046875 458.480469 C 238.664062 457.554688 239.328125 456.664062 240.035156 455.804688 C 240.738281 454.945312 241.484375 454.121094 242.273438 453.332031 C 243.058594 452.546875 243.882812 451.800781 244.742188 451.09375 C 245.601562 450.390625 246.496094 449.726562 247.417969 449.109375 C 248.34375 448.492188 249.296875 447.917969 250.28125 447.394531 C 251.261719 446.871094 252.265625 446.394531 253.292969 445.96875 C 254.320312 445.542969 255.367188 445.167969 256.433594 444.847656 C 257.496094 444.523438 258.574219 444.253906 259.664062 444.035156 C 260.757812 443.820312 261.855469 443.65625 262.964844 443.546875 C 264.070312 443.4375 265.179688 443.382812 266.292969 443.382812 C 267.40625 443.382812 268.515625 443.4375 269.621094 443.546875 C 270.730469 443.65625 271.828125 443.820312 272.921875 444.035156 C 274.011719 444.253906 275.089844 444.523438 276.152344 444.847656 C 277.21875 445.167969 278.265625 445.542969 279.292969 445.96875 C 280.320312 446.394531 281.324219 446.871094 282.304688 447.394531 C 283.289062 447.917969 284.242188 448.492188 285.164062 449.109375 C 286.089844 449.726562 286.984375 450.390625 287.84375 451.09375 C 288.703125 451.800781 289.527344 452.546875 290.3125 453.332031 C 291.101562 454.121094 291.847656 454.945312 292.550781 455.804688 C 293.257812 456.664062 293.917969 457.554688 294.539062 458.480469 C 295.15625 459.40625 295.726562 460.359375 296.25 461.339844 C 296.777344 462.320312 297.25 463.328125 297.675781 464.355469 C 298.101562 465.382812 298.476562 466.429688 298.800781 467.492188 C 299.125 468.558594 299.394531 469.636719 299.609375 470.726562 C 299.828125 471.816406 299.992188 472.917969 300.097656 474.023438 C 300.207031 475.132812 300.261719 476.242188 300.261719 477.355469 Z M 300.261719 477.355469 " fill-opacity="1" fill-rule="nonzero"/><path fill="#5284ff" d="M 284.113281 477.355469 C 284.113281 477.9375 284.085938 478.519531 284.027344 479.101562 C 283.96875 479.683594 283.882812 480.257812 283.769531 480.832031 C 283.65625 481.402344 283.515625 481.96875 283.347656 482.527344 C 283.175781 483.085938 282.980469 483.632812 282.757812 484.171875 C 282.535156 484.714844 282.285156 485.238281 282.007812 485.753906 C 281.734375 486.269531 281.433594 486.769531 281.109375 487.253906 C 280.785156 487.738281 280.4375 488.207031 280.066406 488.660156 C 279.699219 489.109375 279.304688 489.542969 278.894531 489.957031 C 278.480469 490.367188 278.050781 490.757812 277.597656 491.128906 C 277.148438 491.5 276.679688 491.847656 276.191406 492.171875 C 275.707031 492.496094 275.207031 492.796875 274.691406 493.070312 C 274.179688 493.34375 273.652344 493.59375 273.113281 493.816406 C 272.574219 494.042969 272.023438 494.238281 271.464844 494.40625 C 270.90625 494.578125 270.339844 494.71875 269.769531 494.832031 C 269.195312 494.945312 268.621094 495.03125 268.039062 495.089844 C 267.457031 495.144531 266.875 495.175781 266.292969 495.175781 C 265.710938 495.175781 265.125 495.144531 264.546875 495.089844 C 263.964844 495.03125 263.386719 494.945312 262.816406 494.832031 C 262.242188 494.71875 261.679688 494.578125 261.121094 494.40625 C 260.5625 494.238281 260.011719 494.042969 259.472656 493.816406 C 258.933594 493.59375 258.40625 493.34375 257.890625 493.070312 C 257.378906 492.796875 256.878906 492.496094 256.390625 492.171875 C 255.90625 491.847656 255.4375 491.5 254.988281 491.128906 C 254.535156 490.757812 254.105469 490.367188 253.691406 489.957031 C 253.277344 489.542969 252.886719 489.109375 252.515625 488.660156 C 252.148438 488.207031 251.800781 487.738281 251.476562 487.253906 C 251.152344 486.769531 250.851562 486.269531 250.578125 485.753906 C 250.300781 485.238281 250.050781 484.714844 249.828125 484.171875 C 249.605469 483.632812 249.410156 483.085938 249.238281 482.527344 C 249.070312 481.96875 248.929688 481.402344 248.816406 480.832031 C 248.699219 480.257812 248.617188 479.683594 248.558594 479.101562 C 248.5 478.519531 248.472656 477.9375 248.472656 477.355469 C 248.472656 476.769531 248.5 476.1875 248.558594 475.609375 C 248.617188 475.027344 248.699219 474.449219 248.816406 473.878906 C 248.929688 473.304688 249.070312 472.738281 249.238281 472.179688 C 249.410156 471.621094 249.605469 471.074219 249.828125 470.535156 C 250.050781 469.996094 250.300781 469.46875 250.578125 468.953125 C 250.851562 468.4375 251.152344 467.9375 251.476562 467.453125 C 251.800781 466.96875 252.148438 466.5 252.515625 466.050781 C 252.886719 465.597656 253.277344 465.164062 253.691406 464.753906 C 254.105469 464.339844 254.535156 463.949219 254.988281 463.578125 C 255.4375 463.207031 255.90625 462.859375 256.390625 462.535156 C 256.878906 462.210938 257.378906 461.914062 257.890625 461.636719 C 258.40625 461.363281 258.933594 461.113281 259.472656 460.890625 C 260.011719 460.667969 260.5625 460.46875 261.121094 460.300781 C 261.679688 460.132812 262.242188 459.988281 262.816406 459.875 C 263.386719 459.761719 263.964844 459.675781 264.546875 459.621094 C 265.125 459.5625 265.710938 459.535156 266.292969 459.535156 C 266.875 459.535156 267.457031 459.5625 268.039062 459.621094 C 268.621094 459.675781 269.195312 459.761719 269.769531 459.875 C 270.339844 459.988281 270.90625 460.132812 271.464844 460.300781 C 272.023438 460.46875 272.574219 460.667969 273.113281 460.890625 C 273.652344 461.113281 274.179688 461.363281 274.691406 461.636719 C 275.207031 461.914062 275.707031 462.210938 276.191406 462.535156 C 276.679688 462.859375 277.148438 463.207031 277.597656 463.578125 C 278.050781 463.949219 278.480469 464.339844 278.894531 464.753906 C 279.304688 465.164062 279.699219 465.597656 280.066406 466.050781 C 280.4375 466.5 280.785156 466.96875 281.109375 467.453125 C 281.433594 467.9375 281.734375 468.4375 282.007812 468.953125 C 282.285156 469.46875 282.535156 469.996094 282.757812 470.535156 C 282.980469 471.074219 283.175781 471.621094 283.347656 472.179688 C 283.515625 472.738281 283.65625 473.304688 283.769531 473.878906 C 283.882812 474.449219 283.96875 475.027344 284.027344 475.609375 C 284.085938 476.1875 284.113281 476.769531 284.113281 477.355469 Z M 284.113281 477.355469 " fill-opacity="1" fill-rule="nonzero"/><path fill="#ffffff" d="M 577.59375 281.328125 C 577.59375 282.441406 577.539062 283.550781 577.429688 284.660156 C 577.320312 285.765625 577.160156 286.863281 576.941406 287.957031 C 576.722656 289.046875 576.453125 290.125 576.132812 291.191406 C 575.808594 292.253906 575.433594 293.300781 575.007812 294.328125 C 574.582031 295.355469 574.105469 296.359375 573.582031 297.34375 C 573.058594 298.324219 572.488281 299.277344 571.867188 300.203125 C 571.25 301.125 570.589844 302.019531 569.882812 302.878906 C 569.175781 303.738281 568.429688 304.5625 567.644531 305.347656 C 566.859375 306.136719 566.035156 306.882812 565.175781 307.589844 C 564.3125 308.292969 563.421875 308.957031 562.496094 309.574219 C 561.570312 310.191406 560.617188 310.761719 559.636719 311.289062 C 558.65625 311.8125 557.652344 312.289062 556.625 312.714844 C 555.597656 313.140625 554.550781 313.511719 553.484375 313.835938 C 552.421875 314.160156 551.34375 314.429688 550.25 314.648438 C 549.160156 314.863281 548.0625 315.027344 546.953125 315.136719 C 545.847656 315.246094 544.738281 315.300781 543.625 315.300781 C 542.511719 315.300781 541.402344 315.246094 540.292969 315.136719 C 539.1875 315.027344 538.085938 314.863281 536.996094 314.648438 C 535.90625 314.429688 534.828125 314.160156 533.761719 313.835938 C 532.699219 313.511719 531.652344 313.140625 530.625 312.714844 C 529.597656 312.289062 528.589844 311.8125 527.609375 311.289062 C 526.628906 310.761719 525.675781 310.191406 524.75 309.574219 C 523.824219 308.957031 522.933594 308.292969 522.074219 307.589844 C 521.214844 306.882812 520.390625 306.136719 519.601562 305.347656 C 518.816406 304.5625 518.070312 303.738281 517.363281 302.878906 C 516.660156 302.019531 515.996094 301.125 515.378906 300.203125 C 514.761719 299.277344 514.1875 298.324219 513.664062 297.34375 C 513.140625 296.359375 512.664062 295.355469 512.238281 294.328125 C 511.8125 293.300781 511.4375 292.253906 511.117188 291.191406 C 510.792969 290.125 510.523438 289.046875 510.304688 287.957031 C 510.089844 286.863281 509.925781 285.765625 509.816406 284.660156 C 509.707031 283.550781 509.652344 282.441406 509.652344 281.328125 C 509.652344 280.214844 509.707031 279.105469 509.816406 278 C 509.925781 276.890625 510.089844 275.792969 510.304688 274.703125 C 510.523438 273.609375 510.792969 272.53125 511.117188 271.46875 C 511.4375 270.402344 511.8125 269.355469 512.238281 268.328125 C 512.664062 267.300781 513.140625 266.296875 513.664062 265.316406 C 514.1875 264.335938 514.761719 263.382812 515.378906 262.457031 C 515.996094 261.53125 516.660156 260.636719 517.363281 259.777344 C 518.070312 258.917969 518.816406 258.09375 519.601562 257.308594 C 520.390625 256.523438 521.214844 255.777344 522.074219 255.070312 C 522.933594 254.363281 523.824219 253.703125 524.75 253.082031 C 525.675781 252.464844 526.628906 251.894531 527.609375 251.371094 C 528.589844 250.84375 529.597656 250.371094 530.625 249.945312 C 531.652344 249.519531 532.699219 249.144531 533.761719 248.820312 C 534.828125 248.5 535.90625 248.226562 536.996094 248.011719 C 538.085938 247.792969 539.1875 247.632812 540.292969 247.523438 C 541.402344 247.414062 542.511719 247.359375 543.625 247.359375 C 544.738281 247.359375 545.847656 247.414062 546.953125 247.523438 C 548.0625 247.632812 549.160156 247.792969 550.25 248.011719 C 551.34375 248.226562 552.421875 248.5 553.484375 248.820312 C 554.550781 249.144531 555.597656 249.519531 556.625 249.945312 C 557.652344 250.371094 558.65625 250.84375 559.636719 251.371094 C 560.617188 251.894531 561.570312 252.464844 562.496094 253.082031 C 563.421875 253.703125 564.3125 254.363281 565.175781 255.070312 C 566.035156 255.777344 566.859375 256.523438 567.644531 257.308594 C 568.429688 258.09375 569.175781 258.917969 569.882812 259.777344 C 570.589844 260.636719 571.25 261.53125 571.867188 262.457031 C 572.488281 263.382812 573.058594 264.335938 573.582031 265.316406 C 574.105469 266.296875 574.582031 267.300781 575.007812 268.328125 C 575.433594 269.355469 575.808594 270.402344 576.132812 271.46875 C 576.453125 272.53125 576.722656 273.609375 576.941406 274.703125 C 577.160156 275.792969 577.320312 276.890625 577.429688 278 C 577.539062 279.105469 577.59375 280.214844 577.59375 281.328125 Z M 577.59375 281.328125 " fill-opacity="1" fill-rule="nonzero"/><path fill="#5284ff" d="M 561.445312 281.328125 C 561.445312 281.914062 561.414062 282.496094 561.359375 283.074219 C 561.300781 283.65625 561.214844 284.234375 561.101562 284.804688 C 560.988281 285.378906 560.847656 285.945312 560.675781 286.503906 C 560.507812 287.058594 560.3125 287.609375 560.085938 288.148438 C 559.863281 288.6875 559.613281 289.214844 559.339844 289.730469 C 559.066406 290.246094 558.765625 290.746094 558.441406 291.230469 C 558.117188 291.714844 557.769531 292.183594 557.398438 292.632812 C 557.027344 293.085938 556.636719 293.515625 556.226562 293.929688 C 555.8125 294.34375 555.378906 294.734375 554.929688 295.105469 C 554.476562 295.476562 554.007812 295.820312 553.523438 296.144531 C 553.039062 296.46875 552.539062 296.769531 552.023438 297.046875 C 551.507812 297.320312 550.984375 297.570312 550.445312 297.792969 C 549.902344 298.015625 549.355469 298.210938 548.796875 298.382812 C 548.238281 298.550781 547.671875 298.691406 547.101562 298.808594 C 546.527344 298.921875 545.953125 299.007812 545.371094 299.0625 C 544.789062 299.121094 544.207031 299.148438 543.625 299.148438 C 543.039062 299.148438 542.457031 299.121094 541.878906 299.0625 C 541.296875 299.007812 540.71875 298.921875 540.148438 298.808594 C 539.574219 298.691406 539.007812 298.550781 538.449219 298.382812 C 537.890625 298.210938 537.34375 298.015625 536.804688 297.792969 C 536.265625 297.570312 535.738281 297.320312 535.222656 297.046875 C 534.707031 296.769531 534.207031 296.46875 533.722656 296.144531 C 533.238281 295.820312 532.769531 295.476562 532.320312 295.105469 C 531.867188 294.734375 531.4375 294.34375 531.023438 293.929688 C 530.609375 293.515625 530.21875 293.085938 529.847656 292.632812 C 529.476562 292.183594 529.132812 291.714844 528.804688 291.230469 C 528.480469 290.746094 528.183594 290.246094 527.90625 289.730469 C 527.632812 289.214844 527.382812 288.6875 527.160156 288.148438 C 526.9375 287.609375 526.738281 287.058594 526.570312 286.503906 C 526.402344 285.945312 526.257812 285.378906 526.144531 284.804688 C 526.03125 284.234375 525.945312 283.65625 525.890625 283.074219 C 525.832031 282.496094 525.804688 281.914062 525.804688 281.328125 C 525.804688 280.746094 525.832031 280.164062 525.890625 279.582031 C 525.945312 279 526.03125 278.425781 526.144531 277.851562 C 526.257812 277.28125 526.402344 276.714844 526.570312 276.15625 C 526.738281 275.597656 526.9375 275.046875 527.160156 274.507812 C 527.382812 273.96875 527.632812 273.441406 527.90625 272.929688 C 528.183594 272.414062 528.480469 271.914062 528.804688 271.429688 C 529.132812 270.941406 529.476562 270.476562 529.847656 270.023438 C 530.21875 269.574219 530.609375 269.140625 531.023438 268.726562 C 531.433594 268.316406 531.867188 267.925781 532.320312 267.554688 C 532.769531 267.183594 533.238281 266.835938 533.722656 266.511719 C 534.207031 266.1875 534.707031 265.886719 535.222656 265.613281 C 535.738281 265.335938 536.265625 265.089844 536.804688 264.863281 C 537.34375 264.640625 537.890625 264.445312 538.449219 264.277344 C 539.007812 264.105469 539.574219 263.964844 540.148438 263.851562 C 540.71875 263.738281 541.296875 263.652344 541.878906 263.59375 C 542.457031 263.539062 543.039062 263.507812 543.625 263.507812 C 544.207031 263.507812 544.789062 263.539062 545.371094 263.59375 C 545.953125 263.652344 546.527344 263.738281 547.101562 263.851562 C 547.671875 263.964844 548.238281 264.105469 548.796875 264.277344 C 549.355469 264.445312 549.902344 264.640625 550.445312 264.863281 C 550.984375 265.089844 551.507812 265.335938 552.023438 265.613281 C 552.539062 265.886719 553.039062 266.1875 553.523438 266.511719 C 554.007812 266.835938 554.476562 267.183594 554.929688 267.554688 C 555.378906 267.925781 555.8125 268.316406 556.226562 268.726562 C 556.636719 269.140625 557.027344 269.574219 557.398438 270.023438 C 557.769531 270.476562 558.117188 270.941406 558.441406 271.429688 C 558.765625 271.914062 559.066406 272.414062 559.339844 272.929688 C 559.613281 273.441406 559.863281 273.96875 560.085938 274.507812 C 560.3125 275.046875 560.507812 275.597656 560.675781 276.15625 C 560.847656 276.714844 560.988281 277.28125 561.101562 277.851562 C 561.214844 278.425781 561.300781 279 561.359375 279.582031 C 561.414062 280.164062 561.445312 280.746094 561.445312 281.328125 Z M 561.445312 281.328125 " fill-opacity="1" fill-rule="nonzero"/><path fill="#ffffff" d="M 484.59375 528.589844 C 484.59375 529.699219 484.539062 530.808594 484.429688 531.917969 C 484.320312 533.023438 484.15625 534.125 483.941406 535.214844 C 483.722656 536.304688 483.453125 537.382812 483.128906 538.449219 C 482.808594 539.511719 482.433594 540.558594 482.007812 541.585938 C 481.582031 542.617188 481.105469 543.621094 480.582031 544.601562 C 480.058594 545.582031 479.488281 546.535156 478.867188 547.460938 C 478.25 548.386719 477.589844 549.277344 476.882812 550.136719 C 476.175781 551 475.429688 551.820312 474.644531 552.609375 C 473.855469 553.394531 473.035156 554.140625 472.171875 554.847656 C 471.3125 555.554688 470.421875 556.214844 469.496094 556.832031 C 468.570312 557.453125 467.617188 558.023438 466.636719 558.546875 C 465.65625 559.070312 464.652344 559.546875 463.625 559.972656 C 462.59375 560.398438 461.550781 560.773438 460.484375 561.09375 C 459.417969 561.417969 458.339844 561.6875 457.25 561.90625 C 456.160156 562.121094 455.058594 562.285156 453.953125 562.394531 C 452.847656 562.503906 451.734375 562.558594 450.625 562.558594 C 449.511719 562.558594 448.402344 562.503906 447.292969 562.394531 C 446.1875 562.285156 445.085938 562.121094 443.996094 561.90625 C 442.90625 561.6875 441.828125 561.417969 440.761719 561.09375 C 439.699219 560.773438 438.652344 560.398438 437.625 559.972656 C 436.59375 559.546875 435.589844 559.070312 434.609375 558.546875 C 433.628906 558.023438 432.675781 557.453125 431.75 556.832031 C 430.824219 556.214844 429.933594 555.554688 429.074219 554.847656 C 428.210938 554.140625 427.390625 553.394531 426.601562 552.609375 C 425.816406 551.820312 425.070312 551 424.363281 550.136719 C 423.65625 549.277344 422.996094 548.386719 422.378906 547.460938 C 421.761719 546.535156 421.1875 545.582031 420.664062 544.601562 C 420.140625 543.621094 419.664062 542.617188 419.238281 541.585938 C 418.8125 540.558594 418.4375 539.511719 418.117188 538.449219 C 417.792969 537.382812 417.523438 536.304688 417.304688 535.214844 C 417.089844 534.125 416.925781 533.023438 416.816406 531.917969 C 416.707031 530.808594 416.652344 529.699219 416.652344 528.589844 C 416.652344 527.476562 416.707031 526.367188 416.816406 525.257812 C 416.925781 524.152344 417.089844 523.050781 417.304688 521.960938 C 417.523438 520.871094 417.792969 519.792969 418.117188 518.726562 C 418.4375 517.664062 418.8125 516.617188 419.238281 515.589844 C 419.664062 514.558594 420.140625 513.554688 420.664062 512.574219 C 421.1875 511.59375 421.761719 510.640625 422.378906 509.714844 C 422.996094 508.789062 423.65625 507.898438 424.363281 507.039062 C 425.070312 506.175781 425.816406 505.355469 426.601562 504.566406 C 427.390625 503.78125 428.210938 503.035156 429.074219 502.328125 C 429.933594 501.621094 430.824219 500.960938 431.75 500.34375 C 432.675781 499.726562 433.628906 499.152344 434.609375 498.628906 C 435.589844 498.105469 436.59375 497.628906 437.625 497.203125 C 438.652344 496.777344 439.699219 496.402344 440.761719 496.082031 C 441.828125 495.757812 442.90625 495.488281 443.996094 495.269531 C 445.085938 495.054688 446.1875 494.890625 447.292969 494.78125 C 448.402344 494.671875 449.511719 494.617188 450.625 494.617188 C 451.734375 494.617188 452.847656 494.671875 453.953125 494.78125 C 455.058594 494.890625 456.160156 495.054688 457.25 495.269531 C 458.339844 495.488281 459.417969 495.757812 460.484375 496.082031 C 461.550781 496.402344 462.59375 496.777344 463.625 497.203125 C 464.652344 497.628906 465.65625 498.105469 466.636719 498.628906 C 467.617188 499.152344 468.570312 499.726562 469.496094 500.34375 C 470.421875 500.960938 471.3125 501.621094 472.171875 502.328125 C 473.035156 503.035156 473.855469 503.78125 474.644531 504.566406 C 475.429688 505.355469 476.175781 506.175781 476.882812 507.039062 C 477.589844 507.898438 478.25 508.789062 478.867188 509.714844 C 479.488281 510.640625 480.058594 511.59375 480.582031 512.574219 C 481.105469 513.554688 481.582031 514.558594 482.007812 515.589844 C 482.433594 516.617188 482.808594 517.664062 483.128906 518.726562 C 483.453125 519.792969 483.722656 520.871094 483.941406 521.960938 C 484.15625 523.050781 484.320312 524.152344 484.429688 525.257812 C 484.539062 526.367188 484.59375 527.476562 484.59375 528.589844 Z M 484.59375 528.589844 " fill-opacity="1" fill-rule="nonzero"/><path fill="#5284ff" d="M 468.445312 528.589844 C 468.445312 529.171875 468.414062 529.753906 468.359375 530.335938 C 468.300781 530.914062 468.214844 531.492188 468.101562 532.066406 C 467.988281 532.636719 467.847656 533.203125 467.675781 533.761719 C 467.507812 534.320312 467.3125 534.867188 467.085938 535.40625 C 466.863281 535.945312 466.613281 536.472656 466.339844 536.988281 C 466.0625 537.503906 465.765625 538.003906 465.441406 538.488281 C 465.117188 538.972656 464.769531 539.441406 464.398438 539.894531 C 464.027344 540.34375 463.636719 540.777344 463.222656 541.1875 C 462.8125 541.601562 462.378906 541.992188 461.929688 542.363281 C 461.476562 542.734375 461.007812 543.082031 460.523438 543.40625 C 460.039062 543.730469 459.539062 544.027344 459.023438 544.304688 C 458.507812 544.578125 457.980469 544.828125 457.441406 545.050781 C 456.902344 545.273438 456.355469 545.472656 455.796875 545.640625 C 455.238281 545.8125 454.671875 545.953125 454.101562 546.066406 C 453.527344 546.179688 452.949219 546.265625 452.371094 546.324219 C 451.789062 546.378906 451.207031 546.410156 450.625 546.410156 C 450.039062 546.410156 449.457031 546.378906 448.875 546.324219 C 448.296875 546.265625 447.71875 546.179688 447.148438 546.066406 C 446.574219 545.953125 446.007812 545.8125 445.449219 545.640625 C 444.890625 545.472656 444.34375 545.273438 443.804688 545.050781 C 443.265625 544.828125 442.738281 544.578125 442.222656 544.304688 C 441.707031 544.027344 441.207031 543.730469 440.722656 543.40625 C 440.238281 543.082031 439.769531 542.734375 439.316406 542.363281 C 438.867188 541.992188 438.433594 541.601562 438.023438 541.1875 C 437.609375 540.777344 437.21875 540.34375 436.847656 539.894531 C 436.476562 539.441406 436.128906 538.972656 435.804688 538.488281 C 435.480469 538.003906 435.183594 537.503906 434.90625 536.988281 C 434.632812 536.472656 434.382812 535.945312 434.160156 535.40625 C 433.9375 534.867188 433.738281 534.320312 433.570312 533.761719 C 433.402344 533.203125 433.257812 532.636719 433.144531 532.066406 C 433.03125 531.492188 432.945312 530.914062 432.886719 530.335938 C 432.832031 529.753906 432.804688 529.171875 432.804688 528.589844 C 432.804688 528.003906 432.832031 527.421875 432.886719 526.839844 C 432.945312 526.261719 433.03125 525.683594 433.144531 525.113281 C 433.257812 524.539062 433.402344 523.972656 433.570312 523.414062 C 433.738281 522.855469 433.9375 522.308594 434.160156 521.769531 C 434.382812 521.230469 434.632812 520.703125 434.90625 520.1875 C 435.183594 519.671875 435.480469 519.171875 435.804688 518.6875 C 436.128906 518.203125 436.476562 517.734375 436.847656 517.28125 C 437.21875 516.832031 437.609375 516.398438 438.023438 515.988281 C 438.433594 515.574219 438.867188 515.183594 439.316406 514.8125 C 439.769531 514.441406 440.238281 514.09375 440.722656 513.769531 C 441.207031 513.445312 441.707031 513.148438 442.222656 512.871094 C 442.738281 512.597656 443.265625 512.347656 443.804688 512.125 C 444.34375 511.902344 444.890625 511.703125 445.449219 511.535156 C 446.007812 511.367188 446.574219 511.222656 447.148438 511.109375 C 447.71875 510.996094 448.296875 510.910156 448.875 510.851562 C 449.457031 510.796875 450.039062 510.769531 450.625 510.765625 C 451.207031 510.769531 451.789062 510.796875 452.371094 510.851562 C 452.949219 510.910156 453.527344 510.996094 454.101562 511.109375 C 454.671875 511.222656 455.238281 511.367188 455.796875 511.535156 C 456.355469 511.703125 456.902344 511.902344 457.441406 512.125 C 457.980469 512.347656 458.507812 512.597656 459.023438 512.871094 C 459.539062 513.148438 460.039062 513.445312 460.523438 513.769531 C 461.007812 514.09375 461.476562 514.441406 461.929688 514.8125 C 462.378906 515.183594 462.8125 515.574219 463.222656 515.988281 C 463.636719 516.398438 464.027344 516.832031 464.398438 517.28125 C 464.769531 517.734375 465.117188 518.203125 465.441406 518.6875 C 465.765625 519.171875 466.0625 519.671875 466.339844 520.1875 C 466.613281 520.703125 466.863281 521.230469 467.085938 521.769531 C 467.308594 522.308594 467.507812 522.855469 467.675781 523.414062 C 467.847656 523.972656 467.988281 524.539062 468.101562 525.113281 C 468.214844 525.683594 468.300781 526.261719 468.359375 526.839844 C 468.414062 527.421875 468.445312 528.003906 468.445312 528.589844 Z M 468.445312 528.589844 " fill-opacity="1" fill-rule="nonzero"/></svg>