<svg xmlns="http://www.w3.org/2000/svg" xmlns:xlink="http://www.w3.org/1999/xlink" width="1080" zoomAndPan="magnify" viewBox="0 0 810 809.999993" height="1080" preserveAspectRatio="xMidYMid meet" version="1.0"><defs><g/><clipPath id="b118739146"><path d="M 78.417969 54.667969 L 731.667969 54.667969 L 731.667969 707.917969 L 78.417969 707.917969 Z M 78.417969 54.667969 " clip-rule="nonzero"/></clipPath></defs><g clip-path="url(#b118739146)"><path fill="#5284ff" d="M 405.042969 54.667969 C 224.496094 54.667969 78.417969 200.746094 78.417969 381.292969 C 78.417969 411.640625 82.53125 440.445312 90.246094 468.21875 C 128.3125 606.585938 254.84375 707.917969 405.042969 707.917969 C 555.238281 707.917969 681.773438 606.585938 719.835938 468.21875 C 727.550781 440.445312 731.667969 411.640625 731.667969 381.292969 C 731.667969 200.746094 585.585938 54.667969 405.042969 54.667969 Z M 405.042969 54.667969 " fill-opacity="1" fill-rule="nonzero"/></g><path fill="#f4da80" d="M 574.785156 561.320312 L 235.300781 561.320312 C 229.640625 561.320312 225.011719 556.691406 225.011719 551.035156 L 225.011719 211.550781 C 225.011719 205.890625 229.640625 201.261719 235.300781 201.261719 L 574.785156 201.261719 C 580.441406 201.261719 585.070312 205.890625 585.070312 211.550781 L 585.070312 551.035156 C 585.070312 556.691406 580.441406 561.320312 574.785156 561.320312 Z M 574.785156 561.320312 " fill-opacity="1" fill-rule="nonzero"/><path fill="#474f5a" d="M 447.21875 504.742188 C 443.621094 504.742188 440.53125 503.199219 438.988281 500.109375 L 344.347656 334.484375 L 285.195312 452.789062 L 268.21875 444.558594 L 335.601562 310.824219 C 337.144531 307.738281 340.230469 305.679688 343.832031 305.679688 C 347.433594 305.679688 350.519531 307.222656 352.0625 310.308594 L 445.675781 473.878906 L 524.375 264.53125 L 541.863281 271.214844 L 455.964844 498.566406 C 454.421875 502.167969 451.335938 504.226562 447.734375 504.742188 C 447.734375 504.742188 447.734375 504.742188 447.21875 504.742188 Z M 447.21875 504.742188 " fill-opacity="1" fill-rule="nonzero"/><path fill="#ffffff" d="M 375.207031 314.421875 C 375.207031 315.453125 375.15625 316.476562 375.058594 317.5 C 374.957031 318.523438 374.804688 319.535156 374.605469 320.542969 C 374.40625 321.550781 374.15625 322.546875 373.855469 323.53125 C 373.558594 324.515625 373.214844 325.480469 372.820312 326.429688 C 372.425781 327.378906 371.988281 328.308594 371.503906 329.214844 C 371.019531 330.121094 370.492188 331 369.921875 331.855469 C 369.347656 332.710938 368.738281 333.535156 368.085938 334.328125 C 367.433594 335.121094 366.746094 335.882812 366.019531 336.609375 C 365.292969 337.335938 364.53125 338.027344 363.738281 338.679688 C 362.941406 339.328125 362.117188 339.941406 361.261719 340.511719 C 360.410156 341.082031 359.527344 341.609375 358.621094 342.09375 C 357.714844 342.578125 356.789062 343.019531 355.839844 343.410156 C 354.890625 343.804688 353.921875 344.152344 352.941406 344.449219 C 351.957031 344.746094 350.960938 344.996094 349.953125 345.195312 C 348.945312 345.398438 347.929688 345.546875 346.90625 345.648438 C 345.882812 345.75 344.859375 345.800781 343.832031 345.800781 C 342.804688 345.800781 341.777344 345.75 340.757812 345.648438 C 339.734375 345.546875 338.71875 345.398438 337.710938 345.195312 C 336.703125 344.996094 335.707031 344.746094 334.722656 344.449219 C 333.738281 344.152344 332.773438 343.804688 331.824219 343.410156 C 330.875 343.019531 329.945312 342.578125 329.039062 342.09375 C 328.132812 341.609375 327.253906 341.082031 326.398438 340.511719 C 325.546875 339.941406 324.722656 339.328125 323.925781 338.679688 C 323.132812 338.027344 322.371094 337.335938 321.644531 336.609375 C 320.917969 335.882812 320.230469 335.121094 319.578125 334.328125 C 318.925781 333.535156 318.3125 332.710938 317.742188 331.855469 C 317.171875 331 316.644531 330.121094 316.160156 329.214844 C 315.675781 328.308594 315.238281 327.378906 314.84375 326.429688 C 314.449219 325.480469 314.105469 324.515625 313.804688 323.53125 C 313.507812 322.546875 313.257812 321.550781 313.058594 320.542969 C 312.859375 319.535156 312.707031 318.523438 312.605469 317.5 C 312.503906 316.476562 312.453125 315.453125 312.453125 314.421875 C 312.453125 313.394531 312.503906 312.371094 312.605469 311.347656 C 312.707031 310.324219 312.859375 309.308594 313.058594 308.300781 C 313.257812 307.292969 313.507812 306.296875 313.804688 305.316406 C 314.105469 304.332031 314.449219 303.367188 314.84375 302.417969 C 315.238281 301.46875 315.675781 300.539062 316.160156 299.632812 C 316.644531 298.726562 317.171875 297.847656 317.742188 296.992188 C 318.3125 296.136719 318.925781 295.3125 319.578125 294.519531 C 320.230469 293.722656 320.917969 292.964844 321.644531 292.238281 C 322.371094 291.511719 323.132812 290.820312 323.925781 290.167969 C 324.722656 289.515625 325.546875 288.90625 326.398438 288.335938 C 327.253906 287.765625 328.132812 287.234375 329.039062 286.75 C 329.945312 286.265625 330.875 285.828125 331.824219 285.433594 C 332.773438 285.042969 333.738281 284.695312 334.722656 284.398438 C 335.707031 284.101562 336.703125 283.851562 337.710938 283.648438 C 338.71875 283.449219 339.734375 283.296875 340.757812 283.199219 C 341.777344 283.097656 342.804688 283.046875 343.832031 283.046875 C 344.859375 283.046875 345.882812 283.097656 346.90625 283.199219 C 347.929688 283.296875 348.945312 283.449219 349.953125 283.648438 C 350.960938 283.851562 351.957031 284.101562 352.941406 284.398438 C 353.921875 284.695312 354.890625 285.042969 355.839844 285.433594 C 356.789062 285.828125 357.714844 286.265625 358.621094 286.75 C 359.527344 287.234375 360.410156 287.765625 361.261719 288.335938 C 362.117188 288.90625 362.941406 289.515625 363.738281 290.167969 C 364.53125 290.820312 365.292969 291.511719 366.019531 292.238281 C 366.746094 292.964844 367.433594 293.722656 368.085938 294.519531 C 368.738281 295.3125 369.347656 296.136719 369.921875 296.992188 C 370.492188 297.847656 371.019531 298.726562 371.503906 299.632812 C 371.988281 300.539062 372.425781 301.46875 372.820312 302.417969 C 373.214844 303.367188 373.558594 304.332031 373.855469 305.316406 C 374.15625 306.296875 374.40625 307.292969 374.605469 308.300781 C 374.804688 309.308594 374.957031 310.324219 375.058594 311.347656 C 375.15625 312.371094 375.207031 313.394531 375.207031 314.421875 Z M 375.207031 314.421875 " fill-opacity="1" fill-rule="nonzero"/><path fill="#5284ff" d="M 360.292969 314.421875 C 360.292969 314.960938 360.265625 315.5 360.210938 316.035156 C 360.160156 316.574219 360.082031 317.105469 359.976562 317.632812 C 359.871094 318.164062 359.738281 318.6875 359.582031 319.203125 C 359.425781 319.71875 359.246094 320.222656 359.039062 320.722656 C 358.832031 321.21875 358.601562 321.707031 358.347656 322.183594 C 358.09375 322.65625 357.816406 323.121094 357.515625 323.566406 C 357.21875 324.015625 356.898438 324.449219 356.554688 324.867188 C 356.214844 325.28125 355.851562 325.679688 355.46875 326.0625 C 355.089844 326.445312 354.691406 326.804688 354.273438 327.148438 C 353.855469 327.488281 353.425781 327.808594 352.976562 328.109375 C 352.527344 328.410156 352.066406 328.6875 351.589844 328.941406 C 351.117188 329.195312 350.628906 329.425781 350.128906 329.628906 C 349.632812 329.835938 349.125 330.019531 348.609375 330.175781 C 348.09375 330.332031 347.570312 330.460938 347.042969 330.566406 C 346.515625 330.671875 345.980469 330.75 345.445312 330.804688 C 344.910156 330.855469 344.371094 330.882812 343.832031 330.882812 C 343.292969 330.882812 342.753906 330.855469 342.21875 330.804688 C 341.683594 330.75 341.148438 330.671875 340.621094 330.566406 C 340.089844 330.460938 339.570312 330.332031 339.054688 330.175781 C 338.539062 330.019531 338.03125 329.835938 337.53125 329.628906 C 337.035156 329.425781 336.546875 329.195312 336.074219 328.941406 C 335.597656 328.6875 335.136719 328.410156 334.6875 328.109375 C 334.238281 327.808594 333.804688 327.488281 333.390625 327.148438 C 332.972656 326.804688 332.574219 326.445312 332.191406 326.0625 C 331.8125 325.679688 331.449219 325.28125 331.109375 324.867188 C 330.765625 324.449219 330.445312 324.015625 330.144531 323.566406 C 329.847656 323.121094 329.570312 322.65625 329.316406 322.183594 C 329.0625 321.707031 328.832031 321.21875 328.625 320.722656 C 328.417969 320.222656 328.238281 319.71875 328.082031 319.203125 C 327.925781 318.6875 327.792969 318.164062 327.6875 317.632812 C 327.582031 317.105469 327.503906 316.574219 327.449219 316.035156 C 327.398438 315.5 327.371094 314.960938 327.371094 314.421875 C 327.371094 313.882812 327.398438 313.347656 327.449219 312.808594 C 327.503906 312.273438 327.582031 311.742188 327.6875 311.210938 C 327.792969 310.683594 327.925781 310.160156 328.082031 309.644531 C 328.238281 309.128906 328.417969 308.621094 328.625 308.125 C 328.832031 307.625 329.0625 307.140625 329.316406 306.664062 C 329.570312 306.1875 329.847656 305.726562 330.144531 305.277344 C 330.445312 304.832031 330.765625 304.398438 331.109375 303.980469 C 331.449219 303.566406 331.8125 303.164062 332.191406 302.785156 C 332.574219 302.402344 332.972656 302.042969 333.390625 301.699219 C 333.804688 301.359375 334.238281 301.039062 334.6875 300.738281 C 335.136719 300.4375 335.597656 300.160156 336.074219 299.90625 C 336.546875 299.652344 337.035156 299.421875 337.53125 299.214844 C 338.03125 299.011719 338.539062 298.828125 339.054688 298.671875 C 339.570312 298.515625 340.089844 298.386719 340.621094 298.28125 C 341.148438 298.175781 341.683594 298.097656 342.21875 298.042969 C 342.753906 297.988281 343.292969 297.964844 343.832031 297.964844 C 344.371094 297.964844 344.910156 297.988281 345.445312 298.042969 C 345.980469 298.097656 346.515625 298.175781 347.042969 298.28125 C 347.570312 298.386719 348.09375 298.515625 348.609375 298.671875 C 349.125 298.828125 349.632812 299.011719 350.128906 299.214844 C 350.628906 299.421875 351.117188 299.652344 351.589844 299.90625 C 352.066406 300.160156 352.527344 300.4375 352.976562 300.738281 C 353.425781 301.039062 353.855469 301.359375 354.273438 301.699219 C 354.691406 302.042969 355.089844 302.402344 355.46875 302.785156 C 355.851562 303.164062 356.214844 303.566406 356.554688 303.980469 C 356.898438 304.398438 357.21875 304.832031 357.515625 305.277344 C 357.816406 305.726562 358.09375 306.1875 358.347656 306.664062 C 358.601562 307.140625 358.832031 307.625 359.039062 308.125 C 359.246094 308.621094 359.425781 309.128906 359.582031 309.644531 C 359.738281 310.160156 359.871094 310.683594 359.976562 311.210938 C 360.082031 311.742188 360.160156 312.273438 360.210938 312.808594 C 360.265625 313.347656 360.292969 313.882812 360.292969 314.421875 Z M 360.292969 314.421875 " fill-opacity="1" fill-rule="nonzero"/><path fill="#ffffff" d="M 308.339844 448.160156 C 308.339844 449.1875 308.289062 450.210938 308.1875 451.234375 C 308.089844 452.257812 307.9375 453.273438 307.738281 454.28125 C 307.535156 455.289062 307.289062 456.285156 306.988281 457.269531 C 306.691406 458.25 306.34375 459.21875 305.953125 460.167969 C 305.558594 461.117188 305.121094 462.042969 304.636719 462.949219 C 304.152344 463.855469 303.625 464.738281 303.050781 465.589844 C 302.480469 466.445312 301.871094 467.269531 301.21875 468.066406 C 300.566406 468.859375 299.875 469.621094 299.148438 470.347656 C 298.421875 471.074219 297.664062 471.761719 296.867188 472.414062 C 296.074219 473.066406 295.25 473.675781 294.394531 474.25 C 293.539062 474.820312 292.660156 475.347656 291.753906 475.832031 C 290.847656 476.316406 289.921875 476.753906 288.972656 477.148438 C 288.019531 477.542969 287.054688 477.886719 286.070312 478.183594 C 285.089844 478.484375 284.09375 478.734375 283.085938 478.933594 C 282.078125 479.132812 281.0625 479.285156 280.039062 479.386719 C 279.015625 479.484375 277.992188 479.535156 276.964844 479.535156 C 275.9375 479.535156 274.910156 479.484375 273.886719 479.386719 C 272.867188 479.285156 271.851562 479.132812 270.84375 478.933594 C 269.835938 478.734375 268.839844 478.484375 267.855469 478.183594 C 266.871094 477.886719 265.90625 477.542969 264.957031 477.148438 C 264.007812 476.753906 263.078125 476.316406 262.171875 475.832031 C 261.265625 475.347656 260.386719 474.820312 259.53125 474.25 C 258.675781 473.675781 257.851562 473.066406 257.058594 472.414062 C 256.265625 471.761719 255.503906 471.074219 254.777344 470.347656 C 254.050781 469.621094 253.359375 468.859375 252.710938 468.066406 C 252.058594 467.269531 251.445312 466.445312 250.875 465.589844 C 250.304688 464.738281 249.777344 463.855469 249.292969 462.949219 C 248.808594 462.042969 248.367188 461.117188 247.976562 460.167969 C 247.582031 459.21875 247.234375 458.25 246.9375 457.269531 C 246.640625 456.285156 246.390625 455.289062 246.191406 454.28125 C 245.988281 453.273438 245.839844 452.257812 245.738281 451.234375 C 245.636719 450.210938 245.585938 449.1875 245.585938 448.160156 C 245.585938 447.132812 245.636719 446.105469 245.738281 445.085938 C 245.839844 444.0625 245.988281 443.046875 246.191406 442.039062 C 246.390625 441.03125 246.640625 440.035156 246.9375 439.050781 C 247.234375 438.066406 247.582031 437.101562 247.976562 436.152344 C 248.367188 435.203125 248.808594 434.273438 249.292969 433.367188 C 249.777344 432.460938 250.304688 431.582031 250.875 430.726562 C 251.445312 429.875 252.058594 429.050781 252.710938 428.253906 C 253.359375 427.460938 254.050781 426.699219 254.777344 425.972656 C 255.503906 425.246094 256.265625 424.558594 257.058594 423.90625 C 257.851562 423.253906 258.675781 422.640625 259.53125 422.070312 C 260.386719 421.5 261.265625 420.972656 262.171875 420.488281 C 263.078125 420.003906 264.007812 419.566406 264.957031 419.171875 C 265.90625 418.777344 266.871094 418.433594 267.855469 418.132812 C 268.839844 417.835938 269.835938 417.585938 270.84375 417.386719 C 271.851562 417.1875 272.867188 417.035156 273.886719 416.933594 C 274.910156 416.832031 275.9375 416.785156 276.964844 416.785156 C 277.992188 416.785156 279.015625 416.832031 280.039062 416.933594 C 281.0625 417.035156 282.078125 417.1875 283.085938 417.386719 C 284.09375 417.585938 285.089844 417.835938 286.070312 418.132812 C 287.054688 418.433594 288.019531 418.777344 288.972656 419.171875 C 289.921875 419.566406 290.847656 420.003906 291.753906 420.488281 C 292.660156 420.972656 293.539062 421.5 294.394531 422.070312 C 295.25 422.640625 296.074219 423.253906 296.867188 423.90625 C 297.664062 424.558594 298.421875 425.246094 299.148438 425.972656 C 299.875 426.699219 300.566406 427.460938 301.21875 428.253906 C 301.871094 429.050781 302.480469 429.875 303.050781 430.726562 C 303.625 431.582031 304.152344 432.460938 304.636719 433.367188 C 305.121094 434.273438 305.558594 435.203125 305.953125 436.152344 C 306.34375 437.101562 306.691406 438.066406 306.988281 439.050781 C 307.289062 440.035156 307.535156 441.03125 307.738281 442.039062 C 307.9375 443.046875 308.089844 444.0625 308.1875 445.085938 C 308.289062 446.105469 308.339844 447.132812 308.339844 448.160156 Z M 308.339844 448.160156 " fill-opacity="1" fill-rule="nonzero"/><path fill="#5284ff" d="M 293.421875 448.160156 C 293.421875 448.699219 293.398438 449.238281 293.34375 449.773438 C 293.292969 450.308594 293.210938 450.84375 293.105469 451.371094 C 293 451.898438 292.871094 452.421875 292.714844 452.9375 C 292.558594 453.453125 292.375 453.960938 292.171875 454.457031 C 291.964844 454.957031 291.734375 455.445312 291.480469 455.917969 C 291.226562 456.394531 290.949219 456.855469 290.648438 457.304688 C 290.351562 457.753906 290.027344 458.183594 289.6875 458.601562 C 289.34375 459.019531 288.984375 459.417969 288.601562 459.796875 C 288.222656 460.179688 287.820312 460.542969 287.40625 460.882812 C 286.988281 461.226562 286.554688 461.546875 286.109375 461.84375 C 285.660156 462.144531 285.199219 462.421875 284.722656 462.675781 C 284.246094 462.929688 283.761719 463.160156 283.261719 463.367188 C 282.765625 463.574219 282.257812 463.753906 281.742188 463.910156 C 281.226562 464.066406 280.703125 464.199219 280.175781 464.304688 C 279.644531 464.410156 279.113281 464.488281 278.578125 464.539062 C 278.039062 464.59375 277.503906 464.621094 276.964844 464.621094 C 276.425781 464.621094 275.886719 464.59375 275.351562 464.539062 C 274.8125 464.488281 274.28125 464.410156 273.753906 464.304688 C 273.222656 464.199219 272.703125 464.066406 272.183594 463.910156 C 271.667969 463.753906 271.164062 463.574219 270.664062 463.367188 C 270.167969 463.160156 269.679688 462.929688 269.203125 462.675781 C 268.730469 462.421875 268.265625 462.144531 267.820312 461.84375 C 267.371094 461.546875 266.9375 461.226562 266.519531 460.882812 C 266.105469 460.542969 265.707031 460.179688 265.324219 459.796875 C 264.945312 459.417969 264.582031 459.019531 264.238281 458.601562 C 263.898438 458.183594 263.578125 457.753906 263.277344 457.304688 C 262.976562 456.855469 262.703125 456.394531 262.445312 455.917969 C 262.191406 455.445312 261.960938 454.957031 261.757812 454.457031 C 261.550781 453.960938 261.367188 453.453125 261.210938 452.9375 C 261.054688 452.421875 260.925781 451.898438 260.820312 451.371094 C 260.714844 450.84375 260.636719 450.308594 260.582031 449.773438 C 260.53125 449.238281 260.503906 448.699219 260.503906 448.160156 C 260.503906 447.621094 260.53125 447.082031 260.582031 446.546875 C 260.636719 446.011719 260.714844 445.476562 260.820312 444.949219 C 260.925781 444.417969 261.054688 443.898438 261.210938 443.382812 C 261.367188 442.867188 261.550781 442.359375 261.757812 441.859375 C 261.960938 441.363281 262.191406 440.875 262.445312 440.402344 C 262.703125 439.925781 262.976562 439.464844 263.277344 439.015625 C 263.578125 438.566406 263.898438 438.132812 264.238281 437.71875 C 264.582031 437.300781 264.945312 436.902344 265.324219 436.519531 C 265.707031 436.140625 266.105469 435.777344 266.519531 435.4375 C 266.9375 435.09375 267.371094 434.773438 267.820312 434.472656 C 268.265625 434.175781 268.730469 433.898438 269.203125 433.644531 C 269.679688 433.390625 270.167969 433.160156 270.664062 432.953125 C 271.164062 432.746094 271.667969 432.566406 272.183594 432.410156 C 272.703125 432.253906 273.222656 432.121094 273.753906 432.015625 C 274.28125 431.910156 274.8125 431.832031 275.351562 431.777344 C 275.886719 431.726562 276.425781 431.699219 276.964844 431.699219 C 277.503906 431.699219 278.039062 431.726562 278.578125 431.777344 C 279.113281 431.832031 279.644531 431.910156 280.175781 432.015625 C 280.703125 432.121094 281.226562 432.253906 281.742188 432.410156 C 282.257812 432.566406 282.765625 432.746094 283.261719 432.953125 C 283.761719 433.160156 284.246094 433.390625 284.722656 433.644531 C 285.199219 433.898438 285.660156 434.175781 286.109375 434.472656 C 286.554688 434.773438 286.988281 435.09375 287.40625 435.4375 C 287.820312 435.777344 288.222656 436.140625 288.601562 436.519531 C 288.984375 436.902344 289.34375 437.300781 289.6875 437.71875 C 290.027344 438.132812 290.351562 438.566406 290.648438 439.015625 C 290.949219 439.464844 291.226562 439.925781 291.480469 440.402344 C 291.734375 440.875 291.964844 441.363281 292.171875 441.859375 C 292.375 442.359375 292.558594 442.867188 292.714844 443.382812 C 292.871094 443.898438 293 444.417969 293.105469 444.949219 C 293.210938 445.476562 293.292969 446.011719 293.34375 446.546875 C 293.398438 447.082031 293.421875 447.621094 293.421875 448.160156 Z M 293.421875 448.160156 " fill-opacity="1" fill-rule="nonzero"/><path fill="#ffffff" d="M 564.496094 267.101562 C 564.496094 268.128906 564.445312 269.15625 564.34375 270.175781 C 564.246094 271.199219 564.09375 272.214844 563.894531 273.222656 C 563.691406 274.230469 563.445312 275.226562 563.144531 276.210938 C 562.847656 277.191406 562.5 278.160156 562.109375 279.109375 C 561.714844 280.058594 561.277344 280.984375 560.792969 281.890625 C 560.308594 282.796875 559.78125 283.679688 559.207031 284.535156 C 558.636719 285.386719 558.027344 286.210938 557.375 287.007812 C 556.722656 287.800781 556.03125 288.5625 555.304688 289.289062 C 554.578125 290.015625 553.820312 290.703125 553.023438 291.355469 C 552.230469 292.007812 551.40625 292.621094 550.550781 293.191406 C 549.695312 293.761719 548.816406 294.289062 547.910156 294.773438 C 547.003906 295.257812 546.078125 295.695312 545.128906 296.089844 C 544.175781 296.484375 543.210938 296.828125 542.226562 297.128906 C 541.246094 297.425781 540.25 297.675781 539.242188 297.875 C 538.234375 298.074219 537.21875 298.226562 536.195312 298.328125 C 535.171875 298.425781 534.148438 298.476562 533.121094 298.476562 C 532.09375 298.476562 531.066406 298.425781 530.042969 298.328125 C 529.023438 298.226562 528.007812 298.074219 527 297.875 C 525.992188 297.675781 524.996094 297.425781 524.011719 297.128906 C 523.027344 296.828125 522.0625 296.484375 521.113281 296.089844 C 520.164062 295.695312 519.234375 295.257812 518.328125 294.773438 C 517.421875 294.289062 516.542969 293.761719 515.6875 293.191406 C 514.832031 292.621094 514.007812 292.007812 513.214844 291.355469 C 512.421875 290.703125 511.660156 290.015625 510.933594 289.289062 C 510.207031 288.5625 509.515625 287.800781 508.867188 287.007812 C 508.214844 286.210938 507.601562 285.386719 507.03125 284.535156 C 506.460938 283.679688 505.933594 282.796875 505.449219 281.890625 C 504.964844 280.984375 504.523438 280.058594 504.132812 279.109375 C 503.738281 278.160156 503.394531 277.191406 503.09375 276.210938 C 502.796875 275.226562 502.546875 274.230469 502.347656 273.222656 C 502.144531 272.214844 501.996094 271.199219 501.894531 270.175781 C 501.792969 269.15625 501.742188 268.128906 501.742188 267.101562 C 501.742188 266.074219 501.792969 265.046875 501.894531 264.027344 C 501.996094 263.003906 502.144531 261.988281 502.347656 260.980469 C 502.546875 259.972656 502.796875 258.976562 503.09375 257.992188 C 503.394531 257.011719 503.738281 256.042969 504.132812 255.09375 C 504.523438 254.144531 504.964844 253.21875 505.449219 252.3125 C 505.933594 251.40625 506.460938 250.523438 507.03125 249.667969 C 507.601562 248.816406 508.214844 247.992188 508.867188 247.195312 C 509.515625 246.402344 510.207031 245.640625 510.933594 244.914062 C 511.660156 244.1875 512.421875 243.5 513.214844 242.847656 C 514.007812 242.195312 514.832031 241.582031 515.6875 241.011719 C 516.542969 240.441406 517.421875 239.914062 518.328125 239.429688 C 519.234375 238.945312 520.164062 238.507812 521.113281 238.113281 C 522.0625 237.71875 523.027344 237.375 524.011719 237.074219 C 524.996094 236.777344 525.992188 236.527344 527 236.328125 C 528.007812 236.128906 529.023438 235.976562 530.042969 235.875 C 531.066406 235.773438 532.09375 235.726562 533.121094 235.726562 C 534.148438 235.726562 535.171875 235.773438 536.195312 235.875 C 537.21875 235.976562 538.234375 236.128906 539.242188 236.328125 C 540.25 236.527344 541.246094 236.777344 542.226562 237.074219 C 543.210938 237.375 544.175781 237.71875 545.128906 238.113281 C 546.078125 238.507812 547.003906 238.945312 547.910156 239.429688 C 548.816406 239.914062 549.695312 240.441406 550.550781 241.011719 C 551.40625 241.582031 552.230469 242.195312 553.023438 242.847656 C 553.820312 243.5 554.578125 244.1875 555.304688 244.914062 C 556.03125 245.640625 556.722656 246.402344 557.375 247.195312 C 558.027344 247.992188 558.636719 248.816406 559.207031 249.667969 C 559.78125 250.523438 560.308594 251.40625 560.792969 252.3125 C 561.277344 253.21875 561.714844 254.144531 562.109375 255.09375 C 562.5 256.042969 562.847656 257.011719 563.144531 257.992188 C 563.445312 258.976562 563.691406 259.972656 563.894531 260.980469 C 564.09375 261.988281 564.246094 263.003906 564.34375 264.027344 C 564.445312 265.046875 564.496094 266.074219 564.496094 267.101562 Z M 564.496094 267.101562 " fill-opacity="1" fill-rule="nonzero"/><path fill="#5284ff" d="M 549.578125 267.101562 C 549.578125 267.640625 549.554688 268.179688 549.5 268.714844 C 549.449219 269.25 549.367188 269.785156 549.261719 270.3125 C 549.15625 270.839844 549.027344 271.363281 548.871094 271.878906 C 548.714844 272.394531 548.53125 272.902344 548.328125 273.402344 C 548.121094 273.898438 547.890625 274.386719 547.636719 274.859375 C 547.382812 275.335938 547.105469 275.796875 546.804688 276.246094 C 546.507812 276.695312 546.183594 277.125 545.84375 277.542969 C 545.5 277.960938 545.140625 278.359375 544.757812 278.742188 C 544.378906 279.121094 543.980469 279.484375 543.5625 279.824219 C 543.144531 280.167969 542.710938 280.488281 542.265625 280.789062 C 541.816406 281.085938 541.355469 281.363281 540.878906 281.617188 C 540.402344 281.871094 539.917969 282.101562 539.417969 282.308594 C 538.921875 282.515625 538.414062 282.695312 537.898438 282.851562 C 537.382812 283.007812 536.859375 283.140625 536.332031 283.246094 C 535.800781 283.351562 535.269531 283.429688 534.734375 283.480469 C 534.195312 283.535156 533.660156 283.5625 533.121094 283.5625 C 532.582031 283.5625 532.042969 283.535156 531.507812 283.480469 C 530.96875 283.429688 530.4375 283.351562 529.910156 283.246094 C 529.378906 283.140625 528.859375 283.007812 528.339844 282.851562 C 527.824219 282.695312 527.320312 282.515625 526.820312 282.308594 C 526.324219 282.101562 525.835938 281.871094 525.359375 281.617188 C 524.886719 281.363281 524.421875 281.085938 523.976562 280.789062 C 523.527344 280.488281 523.09375 280.167969 522.679688 279.824219 C 522.261719 279.484375 521.863281 279.121094 521.480469 278.742188 C 521.101562 278.359375 520.738281 277.960938 520.394531 277.542969 C 520.054688 277.125 519.734375 276.695312 519.433594 276.246094 C 519.132812 275.796875 518.859375 275.335938 518.601562 274.859375 C 518.347656 274.386719 518.121094 273.898438 517.914062 273.402344 C 517.707031 272.902344 517.523438 272.394531 517.367188 271.878906 C 517.210938 271.363281 517.082031 270.839844 516.976562 270.3125 C 516.871094 269.785156 516.792969 269.25 516.738281 268.714844 C 516.6875 268.179688 516.660156 267.640625 516.660156 267.101562 C 516.660156 266.5625 516.6875 266.023438 516.738281 265.488281 C 516.792969 264.953125 516.871094 264.417969 516.976562 263.890625 C 517.082031 263.363281 517.210938 262.839844 517.367188 262.324219 C 517.523438 261.808594 517.707031 261.300781 517.914062 260.800781 C 518.117188 260.304688 518.347656 259.816406 518.601562 259.34375 C 518.859375 258.867188 519.132812 258.40625 519.433594 257.957031 C 519.734375 257.507812 520.054688 257.078125 520.394531 256.660156 C 520.738281 256.242188 521.101562 255.84375 521.480469 255.460938 C 521.863281 255.082031 522.261719 254.71875 522.679688 254.378906 C 523.09375 254.035156 523.527344 253.714844 523.976562 253.414062 C 524.421875 253.117188 524.886719 252.839844 525.359375 252.585938 C 525.835938 252.332031 526.324219 252.101562 526.820312 251.894531 C 527.320312 251.6875 527.824219 251.507812 528.339844 251.351562 C 528.859375 251.195312 529.378906 251.0625 529.910156 250.957031 C 530.4375 250.851562 530.96875 250.773438 531.507812 250.722656 C 532.042969 250.667969 532.582031 250.640625 533.121094 250.640625 C 533.660156 250.640625 534.195312 250.667969 534.734375 250.722656 C 535.269531 250.773438 535.800781 250.851562 536.332031 250.957031 C 536.859375 251.0625 537.382812 251.195312 537.898438 251.351562 C 538.414062 251.507812 538.921875 251.6875 539.417969 251.894531 C 539.917969 252.101562 540.402344 252.332031 540.878906 252.585938 C 541.355469 252.839844 541.816406 253.117188 542.265625 253.414062 C 542.710938 253.714844 543.144531 254.035156 543.5625 254.378906 C 543.980469 254.71875 544.378906 255.082031 544.757812 255.460938 C 545.140625 255.84375 545.5 256.242188 545.84375 256.660156 C 546.183594 257.078125 546.507812 257.507812 546.804688 257.957031 C 547.105469 258.40625 547.382812 258.867188 547.636719 259.34375 C 547.890625 259.816406 548.121094 260.304688 548.328125 260.800781 C 548.53125 261.300781 548.714844 261.808594 548.871094 262.324219 C 549.027344 262.839844 549.15625 263.363281 549.261719 263.890625 C 549.367188 264.417969 549.449219 264.953125 549.5 265.488281 C 549.554688 266.023438 549.578125 266.5625 549.578125 267.101562 Z M 549.578125 267.101562 " fill-opacity="1" fill-rule="nonzero"/><path fill="#ffffff" d="M 478.597656 495.480469 C 478.597656 496.507812 478.546875 497.535156 478.445312 498.558594 C 478.34375 499.578125 478.195312 500.59375 477.992188 501.601562 C 477.792969 502.609375 477.542969 503.605469 477.246094 504.589844 C 476.945312 505.574219 476.601562 506.539062 476.207031 507.488281 C 475.816406 508.4375 475.375 509.367188 474.890625 510.273438 C 474.40625 511.179688 473.878906 512.058594 473.308594 512.914062 C 472.738281 513.769531 472.125 514.59375 471.472656 515.386719 C 470.824219 516.179688 470.132812 516.941406 469.40625 517.667969 C 468.679688 518.394531 467.917969 519.085938 467.125 519.734375 C 466.332031 520.386719 465.507812 521 464.652344 521.570312 C 463.796875 522.140625 462.917969 522.667969 462.011719 523.152344 C 461.105469 523.636719 460.175781 524.078125 459.226562 524.46875 C 458.277344 524.863281 457.3125 525.207031 456.328125 525.507812 C 455.34375 525.804688 454.347656 526.054688 453.339844 526.253906 C 452.332031 526.457031 451.316406 526.605469 450.296875 526.707031 C 449.273438 526.808594 448.246094 526.859375 447.21875 526.859375 C 446.191406 526.859375 445.167969 526.808594 444.144531 526.707031 C 443.121094 526.605469 442.105469 526.457031 441.097656 526.253906 C 440.089844 526.054688 439.09375 525.804688 438.113281 525.507812 C 437.128906 525.210938 436.160156 524.863281 435.210938 524.46875 C 434.261719 524.078125 433.335938 523.636719 432.429688 523.152344 C 431.523438 522.667969 430.640625 522.140625 429.789062 521.570312 C 428.933594 521 428.109375 520.386719 427.316406 519.734375 C 426.519531 519.085938 425.761719 518.394531 425.035156 517.667969 C 424.308594 516.941406 423.617188 516.179688 422.964844 515.386719 C 422.3125 514.59375 421.703125 513.769531 421.132812 512.914062 C 420.558594 512.058594 420.03125 511.179688 419.546875 510.273438 C 419.0625 509.367188 418.625 508.4375 418.230469 507.488281 C 417.839844 506.539062 417.492188 505.574219 417.195312 504.589844 C 416.894531 503.605469 416.648438 502.609375 416.445312 501.601562 C 416.246094 500.59375 416.09375 499.578125 415.996094 498.558594 C 415.894531 497.535156 415.84375 496.507812 415.84375 495.480469 C 415.84375 494.453125 415.894531 493.429688 415.996094 492.40625 C 416.09375 491.382812 416.246094 490.367188 416.445312 489.359375 C 416.648438 488.351562 416.894531 487.355469 417.195312 486.375 C 417.492188 485.390625 417.839844 484.425781 418.230469 483.472656 C 418.625 482.523438 419.0625 481.597656 419.546875 480.691406 C 420.03125 479.785156 420.558594 478.902344 421.132812 478.050781 C 421.703125 477.195312 422.3125 476.371094 422.964844 475.578125 C 423.617188 474.78125 424.308594 474.023438 425.035156 473.296875 C 425.761719 472.570312 426.519531 471.878906 427.316406 471.226562 C 428.109375 470.574219 428.933594 469.964844 429.789062 469.394531 C 430.640625 468.820312 431.523438 468.292969 432.429688 467.808594 C 433.335938 467.324219 434.261719 466.886719 435.210938 466.492188 C 436.160156 466.101562 437.128906 465.753906 438.113281 465.457031 C 439.09375 465.15625 440.089844 464.910156 441.097656 464.707031 C 442.105469 464.507812 443.121094 464.355469 444.144531 464.257812 C 445.167969 464.15625 446.191406 464.105469 447.21875 464.105469 C 448.246094 464.105469 449.273438 464.15625 450.296875 464.257812 C 451.316406 464.355469 452.332031 464.507812 453.339844 464.707031 C 454.347656 464.910156 455.34375 465.15625 456.328125 465.457031 C 457.3125 465.753906 458.277344 466.101562 459.226562 466.492188 C 460.175781 466.886719 461.105469 467.324219 462.011719 467.808594 C 462.917969 468.292969 463.796875 468.820312 464.652344 469.394531 C 465.507812 469.964844 466.332031 470.574219 467.125 471.226562 C 467.917969 471.878906 468.679688 472.570312 469.40625 473.296875 C 470.132812 474.023438 470.824219 474.78125 471.472656 475.578125 C 472.125 476.371094 472.738281 477.195312 473.308594 478.050781 C 473.878906 478.902344 474.40625 479.785156 474.890625 480.691406 C 475.375 481.597656 475.816406 482.523438 476.207031 483.472656 C 476.601562 484.425781 476.945312 485.390625 477.246094 486.375 C 477.542969 487.355469 477.792969 488.351562 477.992188 489.359375 C 478.195312 490.367188 478.34375 491.382812 478.445312 492.40625 C 478.546875 493.429688 478.597656 494.453125 478.597656 495.480469 Z M 478.597656 495.480469 " fill-opacity="1" fill-rule="nonzero"/><path fill="#5284ff" d="M 463.679688 495.480469 C 463.679688 496.019531 463.652344 496.558594 463.601562 497.09375 C 463.546875 497.632812 463.46875 498.164062 463.363281 498.691406 C 463.257812 499.222656 463.128906 499.742188 462.972656 500.261719 C 462.816406 500.777344 462.632812 501.28125 462.425781 501.78125 C 462.21875 502.277344 461.992188 502.765625 461.738281 503.242188 C 461.480469 503.714844 461.207031 504.179688 460.90625 504.625 C 460.605469 505.074219 460.285156 505.507812 459.945312 505.925781 C 459.601562 506.339844 459.238281 506.738281 458.859375 507.121094 C 458.476562 507.5 458.078125 507.863281 457.660156 508.207031 C 457.246094 508.546875 456.8125 508.867188 456.363281 509.167969 C 455.917969 509.46875 455.453125 509.742188 454.980469 510 C 454.503906 510.253906 454.015625 510.480469 453.519531 510.6875 C 453.019531 510.894531 452.515625 511.078125 451.996094 511.234375 C 451.480469 511.390625 450.960938 511.519531 450.429688 511.625 C 449.902344 511.730469 449.371094 511.808594 448.832031 511.863281 C 448.296875 511.914062 447.757812 511.941406 447.21875 511.941406 C 446.679688 511.941406 446.144531 511.914062 445.605469 511.863281 C 445.070312 511.808594 444.539062 511.730469 444.007812 511.625 C 443.480469 511.519531 442.957031 511.390625 442.441406 511.234375 C 441.925781 511.078125 441.417969 510.894531 440.921875 510.6875 C 440.421875 510.480469 439.9375 510.253906 439.460938 510 C 438.984375 509.742188 438.523438 509.46875 438.074219 509.167969 C 437.628906 508.867188 437.195312 508.546875 436.777344 508.207031 C 436.359375 507.863281 435.960938 507.5 435.582031 507.121094 C 435.199219 506.738281 434.839844 506.339844 434.496094 505.925781 C 434.15625 505.507812 433.832031 505.074219 433.535156 504.625 C 433.234375 504.179688 432.957031 503.714844 432.703125 503.242188 C 432.449219 502.765625 432.21875 502.277344 432.011719 501.78125 C 431.808594 501.28125 431.625 500.777344 431.46875 500.261719 C 431.3125 499.742188 431.179688 499.222656 431.078125 498.691406 C 430.972656 498.164062 430.890625 497.632812 430.839844 497.09375 C 430.785156 496.558594 430.761719 496.019531 430.761719 495.480469 C 430.761719 494.941406 430.785156 494.40625 430.839844 493.867188 C 430.890625 493.332031 430.972656 492.800781 431.078125 492.269531 C 431.179688 491.742188 431.3125 491.21875 431.46875 490.703125 C 431.625 490.1875 431.808594 489.679688 432.011719 489.183594 C 432.21875 488.683594 432.449219 488.199219 432.703125 487.722656 C 432.957031 487.246094 433.234375 486.785156 433.535156 486.335938 C 433.832031 485.890625 434.15625 485.457031 434.496094 485.039062 C 434.839844 484.625 435.199219 484.222656 435.582031 483.84375 C 435.960938 483.460938 436.359375 483.101562 436.777344 482.757812 C 437.195312 482.417969 437.628906 482.09375 438.074219 481.796875 C 438.523438 481.496094 438.984375 481.21875 439.460938 480.964844 C 439.9375 480.710938 440.421875 480.480469 440.921875 480.273438 C 441.417969 480.070312 441.925781 479.886719 442.441406 479.730469 C 442.957031 479.574219 443.480469 479.445312 444.007812 479.339844 C 444.539062 479.234375 445.070312 479.152344 445.605469 479.101562 C 446.144531 479.046875 446.679688 479.023438 447.21875 479.023438 C 447.757812 479.023438 448.296875 479.046875 448.832031 479.101562 C 449.371094 479.152344 449.902344 479.234375 450.429688 479.339844 C 450.960938 479.445312 451.480469 479.574219 451.996094 479.730469 C 452.515625 479.886719 453.019531 480.070312 453.519531 480.273438 C 454.015625 480.480469 454.503906 480.710938 454.980469 480.964844 C 455.453125 481.21875 455.917969 481.496094 456.363281 481.796875 C 456.8125 482.09375 457.246094 482.417969 457.660156 482.757812 C 458.078125 483.101562 458.476562 483.460938 458.859375 483.84375 C 459.238281 484.222656 459.601562 484.621094 459.945312 485.039062 C 460.285156 485.457031 460.605469 485.890625 460.90625 486.335938 C 461.207031 486.785156 461.480469 487.246094 461.734375 487.722656 C 461.992188 488.199219 462.21875 488.683594 462.425781 489.183594 C 462.632812 489.679688 462.816406 490.1875 462.972656 490.703125 C 463.128906 491.21875 463.257812 491.742188 463.363281 492.269531 C 463.46875 492.800781 463.546875 493.332031 463.601562 493.867188 C 463.652344 494.40625 463.679688 494.941406 463.679688 495.480469 Z M 463.679688 495.480469 " fill-opacity="1" fill-rule="nonzero"/><g fill="#1f117b" fill-opacity="1"><g transform="translate(98.338349, 760.639212)"><g><path d="M 28.125 0 L 20.71875 -10.546875 C 19.800781 -10.484375 19.078125 -10.453125 18.546875 -10.453125 L 10.0625 -10.453125 L 10.0625 0 L 5.15625 0 L 5.15625 -34.359375 L 18.546875 -34.359375 C 22.992188 -34.359375 26.492188 -33.289062 29.046875 -31.15625 C 31.597656 -29.03125 32.875 -26.101562 32.875 -22.375 C 32.875 -19.726562 32.21875 -17.472656 30.90625 -15.609375 C 29.601562 -13.742188 27.742188 -12.382812 25.328125 -11.53125 L 33.46875 0 Z M 18.40625 -14.625 C 21.507812 -14.625 23.878906 -15.296875 25.515625 -16.640625 C 27.148438 -17.984375 27.96875 -19.894531 27.96875 -22.375 C 27.96875 -24.863281 27.148438 -26.769531 25.515625 -28.09375 C 23.878906 -29.414062 21.507812 -30.078125 18.40625 -30.078125 L 10.0625 -30.078125 L 10.0625 -14.625 Z M 18.40625 -14.625 "/></g></g></g><g fill="#1f117b" fill-opacity="1"><g transform="translate(134.011286, 760.639212)"><g><path d="M 27.96875 -12.859375 C 27.96875 -12.492188 27.9375 -12.019531 27.875 -11.4375 L 6.765625 -11.4375 C 7.066406 -9.144531 8.078125 -7.300781 9.796875 -5.90625 C 11.515625 -4.519531 13.648438 -3.828125 16.203125 -3.828125 C 19.304688 -3.828125 21.804688 -4.875 23.703125 -6.96875 L 26.3125 -3.921875 C 25.132812 -2.546875 23.664062 -1.5 21.90625 -0.78125 C 20.15625 -0.0625 18.203125 0.296875 16.046875 0.296875 C 13.296875 0.296875 10.859375 -0.265625 8.734375 -1.390625 C 6.609375 -2.523438 4.960938 -4.101562 3.796875 -6.125 C 2.640625 -8.15625 2.0625 -10.445312 2.0625 -13 C 2.0625 -15.519531 2.625 -17.796875 3.75 -19.828125 C 4.882812 -21.859375 6.441406 -23.4375 8.421875 -24.5625 C 10.398438 -25.6875 12.628906 -26.25 15.109375 -26.25 C 17.597656 -26.25 19.816406 -25.6875 21.765625 -24.5625 C 23.710938 -23.4375 25.234375 -21.859375 26.328125 -19.828125 C 27.421875 -17.796875 27.96875 -15.472656 27.96875 -12.859375 Z M 15.109375 -22.28125 C 12.859375 -22.28125 10.972656 -21.59375 9.453125 -20.21875 C 7.929688 -18.84375 7.035156 -17.046875 6.765625 -14.828125 L 23.453125 -14.828125 C 23.191406 -17.015625 22.300781 -18.800781 20.78125 -20.1875 C 19.257812 -21.582031 17.367188 -22.28125 15.109375 -22.28125 Z M 15.109375 -22.28125 "/></g></g></g><g fill="#1f117b" fill-opacity="1"><g transform="translate(164.041326, 760.639212)"><g><path d="M 15.796875 0.296875 C 13.148438 0.296875 10.785156 -0.273438 8.703125 -1.421875 C 6.628906 -2.566406 5.003906 -4.144531 3.828125 -6.15625 C 2.648438 -8.164062 2.0625 -10.445312 2.0625 -13 C 2.0625 -15.550781 2.648438 -17.832031 3.828125 -19.84375 C 5.003906 -21.863281 6.628906 -23.4375 8.703125 -24.5625 C 10.785156 -25.6875 13.148438 -26.25 15.796875 -26.25 C 18.160156 -26.25 20.265625 -25.773438 22.109375 -24.828125 C 23.953125 -23.878906 25.382812 -22.507812 26.40625 -20.71875 L 22.828125 -18.40625 C 22.003906 -19.644531 20.988281 -20.578125 19.78125 -21.203125 C 18.570312 -21.828125 17.226562 -22.140625 15.75 -22.140625 C 14.050781 -22.140625 12.519531 -21.757812 11.15625 -21 C 9.800781 -20.25 8.738281 -19.175781 7.96875 -17.78125 C 7.207031 -16.394531 6.828125 -14.800781 6.828125 -13 C 6.828125 -11.164062 7.207031 -9.550781 7.96875 -8.15625 C 8.738281 -6.769531 9.800781 -5.703125 11.15625 -4.953125 C 12.519531 -4.203125 14.050781 -3.828125 15.75 -3.828125 C 17.226562 -3.828125 18.570312 -4.132812 19.78125 -4.75 C 20.988281 -5.375 22.003906 -6.3125 22.828125 -7.5625 L 26.40625 -5.296875 C 25.382812 -3.492188 23.953125 -2.109375 22.109375 -1.140625 C 20.265625 -0.179688 18.160156 0.296875 15.796875 0.296875 Z M 15.796875 0.296875 "/></g></g></g><g fill="#1f117b" fill-opacity="1"><g transform="translate(192.059549, 760.639212)"><g><path d="M 15.609375 0.296875 C 13.023438 0.296875 10.703125 -0.273438 8.640625 -1.421875 C 6.578125 -2.566406 4.960938 -4.144531 3.796875 -6.15625 C 2.640625 -8.164062 2.0625 -10.445312 2.0625 -13 C 2.0625 -15.550781 2.640625 -17.832031 3.796875 -19.84375 C 4.960938 -21.863281 6.578125 -23.4375 8.640625 -24.5625 C 10.703125 -25.6875 13.023438 -26.25 15.609375 -26.25 C 18.191406 -26.25 20.503906 -25.6875 22.546875 -24.5625 C 24.597656 -23.4375 26.203125 -21.863281 27.359375 -19.84375 C 28.523438 -17.832031 29.109375 -15.550781 29.109375 -13 C 29.109375 -10.445312 28.523438 -8.164062 27.359375 -6.15625 C 26.203125 -4.144531 24.597656 -2.566406 22.546875 -1.421875 C 20.503906 -0.273438 18.191406 0.296875 15.609375 0.296875 Z M 15.609375 -3.828125 C 17.273438 -3.828125 18.769531 -4.210938 20.09375 -4.984375 C 21.414062 -5.753906 22.453125 -6.832031 23.203125 -8.21875 C 23.960938 -9.613281 24.34375 -11.207031 24.34375 -13 C 24.34375 -14.800781 23.960938 -16.394531 23.203125 -17.78125 C 22.453125 -19.175781 21.414062 -20.25 20.09375 -21 C 18.769531 -21.757812 17.273438 -22.140625 15.609375 -22.140625 C 13.941406 -22.140625 12.441406 -21.757812 11.109375 -21 C 9.785156 -20.25 8.738281 -19.175781 7.96875 -17.78125 C 7.207031 -16.394531 6.828125 -14.800781 6.828125 -13 C 6.828125 -11.207031 7.207031 -9.613281 7.96875 -8.21875 C 8.738281 -6.832031 9.785156 -5.753906 11.109375 -4.984375 C 12.441406 -4.210938 13.941406 -3.828125 15.609375 -3.828125 Z M 15.609375 -3.828125 "/></g></g></g><g fill="#1f117b" fill-opacity="1"><g transform="translate(223.218168, 760.639212)"><g><path d="M 8.984375 -21.640625 C 9.796875 -23.148438 11.003906 -24.296875 12.609375 -25.078125 C 14.210938 -25.859375 16.160156 -26.25 18.453125 -26.25 L 18.453125 -21.6875 C 18.191406 -21.71875 17.832031 -21.734375 17.375 -21.734375 C 14.820312 -21.734375 12.816406 -20.972656 11.359375 -19.453125 C 9.898438 -17.929688 9.171875 -15.765625 9.171875 -12.953125 L 9.171875 0 L 4.46875 0 L 4.46875 -26.015625 L 8.984375 -26.015625 Z M 8.984375 -21.640625 "/></g></g></g><g fill="#1f117b" fill-opacity="1"><g transform="translate(243.336335, 760.639212)"><g><path d="M 29 -36.421875 L 29 0 L 24.484375 0 L 24.484375 -4.125 C 23.441406 -2.6875 22.117188 -1.585938 20.515625 -0.828125 C 18.910156 -0.078125 17.144531 0.296875 15.21875 0.296875 C 12.695312 0.296875 10.4375 -0.257812 8.4375 -1.375 C 6.445312 -2.488281 4.882812 -4.050781 3.75 -6.0625 C 2.625 -8.070312 2.0625 -10.382812 2.0625 -13 C 2.0625 -15.625 2.625 -17.929688 3.75 -19.921875 C 4.882812 -21.921875 6.445312 -23.472656 8.4375 -24.578125 C 10.4375 -25.691406 12.695312 -26.25 15.21875 -26.25 C 17.082031 -26.25 18.796875 -25.894531 20.359375 -25.1875 C 21.929688 -24.488281 23.242188 -23.453125 24.296875 -22.078125 L 24.296875 -36.421875 Z M 15.609375 -3.828125 C 17.242188 -3.828125 18.726562 -4.210938 20.0625 -4.984375 C 21.40625 -5.753906 22.453125 -6.832031 23.203125 -8.21875 C 23.960938 -9.613281 24.34375 -11.207031 24.34375 -13 C 24.34375 -14.800781 23.960938 -16.394531 23.203125 -17.78125 C 22.453125 -19.175781 21.40625 -20.25 20.0625 -21 C 18.726562 -21.757812 17.242188 -22.140625 15.609375 -22.140625 C 13.941406 -22.140625 12.441406 -21.757812 11.109375 -21 C 9.785156 -20.25 8.738281 -19.175781 7.96875 -17.78125 C 7.207031 -16.394531 6.828125 -14.800781 6.828125 -13 C 6.828125 -11.207031 7.207031 -9.613281 7.96875 -8.21875 C 8.738281 -6.832031 9.785156 -5.753906 11.109375 -4.984375 C 12.441406 -4.210938 13.941406 -3.828125 15.609375 -3.828125 Z M 15.609375 -3.828125 "/></g></g></g><g fill="#1f117b" fill-opacity="1"><g transform="translate(276.801174, 760.639212)"><g/></g></g><g fill="#1f117b" fill-opacity="1"><g transform="translate(290.000663, 760.639212)"><g><path d="M 18.3125 -11.875 L 18.3125 0 L 13.453125 0 L 13.453125 -11.96875 L -0.203125 -34.359375 L 5.0625 -34.359375 L 16.046875 -16.25 L 27.09375 -34.359375 L 31.953125 -34.359375 Z M 18.3125 -11.875 "/></g></g></g><g fill="#1f117b" fill-opacity="1"><g transform="translate(321.748107, 760.639212)"><g><path d="M 15.609375 0.296875 C 13.023438 0.296875 10.703125 -0.273438 8.640625 -1.421875 C 6.578125 -2.566406 4.960938 -4.144531 3.796875 -6.15625 C 2.640625 -8.164062 2.0625 -10.445312 2.0625 -13 C 2.0625 -15.550781 2.640625 -17.832031 3.796875 -19.84375 C 4.960938 -21.863281 6.578125 -23.4375 8.640625 -24.5625 C 10.703125 -25.6875 13.023438 -26.25 15.609375 -26.25 C 18.191406 -26.25 20.503906 -25.6875 22.546875 -24.5625 C 24.597656 -23.4375 26.203125 -21.863281 27.359375 -19.84375 C 28.523438 -17.832031 29.109375 -15.550781 29.109375 -13 C 29.109375 -10.445312 28.523438 -8.164062 27.359375 -6.15625 C 26.203125 -4.144531 24.597656 -2.566406 22.546875 -1.421875 C 20.503906 -0.273438 18.191406 0.296875 15.609375 0.296875 Z M 15.609375 -3.828125 C 17.273438 -3.828125 18.769531 -4.210938 20.09375 -4.984375 C 21.414062 -5.753906 22.453125 -6.832031 23.203125 -8.21875 C 23.960938 -9.613281 24.34375 -11.207031 24.34375 -13 C 24.34375 -14.800781 23.960938 -16.394531 23.203125 -17.78125 C 22.453125 -19.175781 21.414062 -20.25 20.09375 -21 C 18.769531 -21.757812 17.273438 -22.140625 15.609375 -22.140625 C 13.941406 -22.140625 12.441406 -21.757812 11.109375 -21 C 9.785156 -20.25 8.738281 -19.175781 7.96875 -17.78125 C 7.207031 -16.394531 6.828125 -14.800781 6.828125 -13 C 6.828125 -11.207031 7.207031 -9.613281 7.96875 -8.21875 C 8.738281 -6.832031 9.785156 -5.753906 11.109375 -4.984375 C 12.441406 -4.210938 13.941406 -3.828125 15.609375 -3.828125 Z M 15.609375 -3.828125 "/></g></g></g><g fill="#1f117b" fill-opacity="1"><g transform="translate(352.906726, 760.639212)"><g><path d="M 28.703125 -26.015625 L 28.703125 0 L 24.25 0 L 24.25 -3.921875 C 23.300781 -2.578125 22.046875 -1.535156 20.484375 -0.796875 C 18.929688 -0.0664062 17.238281 0.296875 15.40625 0.296875 C 11.9375 0.296875 9.203125 -0.660156 7.203125 -2.578125 C 5.210938 -4.492188 4.21875 -7.316406 4.21875 -11.046875 L 4.21875 -26.015625 L 8.9375 -26.015625 L 8.9375 -11.578125 C 8.9375 -9.054688 9.539062 -7.148438 10.75 -5.859375 C 11.957031 -4.566406 13.691406 -3.921875 15.953125 -3.921875 C 18.441406 -3.921875 20.40625 -4.671875 21.84375 -6.171875 C 23.28125 -7.679688 24 -9.8125 24 -12.5625 L 24 -26.015625 Z M 28.703125 -26.015625 "/></g></g></g><g fill="#1f117b" fill-opacity="1"><g transform="translate(386.126242, 760.639212)"><g><path d="M 8.984375 -21.640625 C 9.796875 -23.148438 11.003906 -24.296875 12.609375 -25.078125 C 14.210938 -25.859375 16.160156 -26.25 18.453125 -26.25 L 18.453125 -21.6875 C 18.191406 -21.71875 17.832031 -21.734375 17.375 -21.734375 C 14.820312 -21.734375 12.816406 -20.972656 11.359375 -19.453125 C 9.898438 -17.929688 9.171875 -15.765625 9.171875 -12.953125 L 9.171875 0 L 4.46875 0 L 4.46875 -26.015625 L 8.984375 -26.015625 Z M 8.984375 -21.640625 "/></g></g></g><g fill="#1f117b" fill-opacity="1"><g transform="translate(406.244409, 760.639212)"><g/></g></g><g fill="#1f117b" fill-opacity="1"><g transform="translate(419.443898, 760.639212)"><g><path d="M 11.96875 -30.078125 L 0.203125 -30.078125 L 0.203125 -34.359375 L 28.609375 -34.359375 L 28.609375 -30.078125 L 16.828125 -30.078125 L 16.828125 0 L 11.96875 0 Z M 11.96875 -30.078125 "/></g></g></g><g fill="#1f117b" fill-opacity="1"><g transform="translate(448.247238, 760.639212)"><g><path d="M 8.984375 -21.640625 C 9.796875 -23.148438 11.003906 -24.296875 12.609375 -25.078125 C 14.210938 -25.859375 16.160156 -26.25 18.453125 -26.25 L 18.453125 -21.6875 C 18.191406 -21.71875 17.832031 -21.734375 17.375 -21.734375 C 14.820312 -21.734375 12.816406 -20.972656 11.359375 -19.453125 C 9.898438 -17.929688 9.171875 -15.765625 9.171875 -12.953125 L 9.171875 0 L 4.46875 0 L 4.46875 -26.015625 L 8.984375 -26.015625 Z M 8.984375 -21.640625 "/></g></g></g><g fill="#1f117b" fill-opacity="1"><g transform="translate(468.365405, 760.639212)"><g><path d="M 13.9375 -26.25 C 17.539062 -26.25 20.296875 -25.363281 22.203125 -23.59375 C 24.117188 -21.832031 25.078125 -19.203125 25.078125 -15.703125 L 25.078125 0 L 20.609375 0 L 20.609375 -3.4375 C 19.828125 -2.226562 18.707031 -1.300781 17.25 -0.65625 C 15.789062 -0.0195312 14.066406 0.296875 12.078125 0.296875 C 9.160156 0.296875 6.828125 -0.40625 5.078125 -1.8125 C 3.328125 -3.21875 2.453125 -5.066406 2.453125 -7.359375 C 2.453125 -9.648438 3.285156 -11.488281 4.953125 -12.875 C 6.617188 -14.269531 9.269531 -14.96875 12.90625 -14.96875 L 20.375 -14.96875 L 20.375 -15.90625 C 20.375 -17.925781 19.78125 -19.476562 18.59375 -20.5625 C 17.414062 -21.644531 15.679688 -22.1875 13.390625 -22.1875 C 11.859375 -22.1875 10.351562 -21.929688 8.875 -21.421875 C 7.40625 -20.910156 6.164062 -20.234375 5.15625 -19.390625 L 3.1875 -22.921875 C 4.53125 -24.003906 6.132812 -24.828125 8 -25.390625 C 9.863281 -25.960938 11.84375 -26.25 13.9375 -26.25 Z M 12.859375 -3.34375 C 14.660156 -3.34375 16.210938 -3.738281 17.515625 -4.53125 C 18.828125 -5.332031 19.78125 -6.472656 20.375 -7.953125 L 20.375 -11.578125 L 13.109375 -11.578125 C 9.109375 -11.578125 7.109375 -10.238281 7.109375 -7.5625 C 7.109375 -6.25 7.613281 -5.21875 8.625 -4.46875 C 9.644531 -3.71875 11.054688 -3.34375 12.859375 -3.34375 Z M 12.859375 -3.34375 "/></g></g></g><g fill="#1f117b" fill-opacity="1"><g transform="translate(497.708489, 760.639212)"><g><path d="M 18.359375 -26.25 C 21.660156 -26.25 24.285156 -25.289062 26.234375 -23.375 C 28.179688 -21.46875 29.15625 -18.664062 29.15625 -14.96875 L 29.15625 0 L 24.4375 0 L 24.4375 -14.421875 C 24.4375 -16.941406 23.832031 -18.835938 22.625 -20.109375 C 21.414062 -21.390625 19.679688 -22.03125 17.421875 -22.03125 C 14.867188 -22.03125 12.851562 -21.285156 11.375 -19.796875 C 9.90625 -18.304688 9.171875 -16.171875 9.171875 -13.390625 L 9.171875 0 L 4.46875 0 L 4.46875 -26.015625 L 8.984375 -26.015625 L 8.984375 -22.078125 C 9.929688 -23.421875 11.210938 -24.453125 12.828125 -25.171875 C 14.453125 -25.890625 16.296875 -26.25 18.359375 -26.25 Z M 18.359375 -26.25 "/></g></g></g><g fill="#1f117b" fill-opacity="1"><g transform="translate(531.124267, 760.639212)"><g><path d="M 11.921875 0.296875 C 9.796875 0.296875 7.75 0.0078125 5.78125 -0.5625 C 3.820312 -1.132812 2.285156 -1.863281 1.171875 -2.75 L 3.140625 -6.484375 C 4.285156 -5.660156 5.675781 -5.003906 7.3125 -4.515625 C 8.945312 -4.023438 10.597656 -3.78125 12.265625 -3.78125 C 16.390625 -3.78125 18.453125 -4.957031 18.453125 -7.3125 C 18.453125 -8.09375 18.171875 -8.710938 17.609375 -9.171875 C 17.054688 -9.628906 16.363281 -9.960938 15.53125 -10.171875 C 14.695312 -10.390625 13.507812 -10.628906 11.96875 -10.890625 C 9.875 -11.222656 8.164062 -11.597656 6.84375 -12.015625 C 5.519531 -12.441406 4.382812 -13.160156 3.4375 -14.171875 C 2.488281 -15.191406 2.015625 -16.617188 2.015625 -18.453125 C 2.015625 -20.804688 2.992188 -22.691406 4.953125 -24.109375 C 6.921875 -25.535156 9.554688 -26.25 12.859375 -26.25 C 14.585938 -26.25 16.316406 -26.035156 18.046875 -25.609375 C 19.785156 -25.191406 21.210938 -24.625 22.328125 -23.90625 L 20.3125 -20.171875 C 18.1875 -21.546875 15.6875 -22.234375 12.8125 -22.234375 C 10.8125 -22.234375 9.285156 -21.90625 8.234375 -21.25 C 7.191406 -20.59375 6.671875 -19.726562 6.671875 -18.65625 C 6.671875 -17.800781 6.960938 -17.128906 7.546875 -16.640625 C 8.140625 -16.148438 8.867188 -15.789062 9.734375 -15.5625 C 10.609375 -15.332031 11.828125 -15.066406 13.390625 -14.765625 C 15.492188 -14.410156 17.191406 -14.023438 18.484375 -13.609375 C 19.773438 -13.203125 20.878906 -12.507812 21.796875 -11.53125 C 22.710938 -10.550781 23.171875 -9.175781 23.171875 -7.40625 C 23.171875 -5.050781 22.160156 -3.175781 20.140625 -1.78125 C 18.128906 -0.394531 15.390625 0.296875 11.921875 0.296875 Z M 11.921875 0.296875 "/></g></g></g><g fill="#1f117b" fill-opacity="1"><g transform="translate(555.707691, 760.639212)"><g><path d="M 13.9375 -26.25 C 17.539062 -26.25 20.296875 -25.363281 22.203125 -23.59375 C 24.117188 -21.832031 25.078125 -19.203125 25.078125 -15.703125 L 25.078125 0 L 20.609375 0 L 20.609375 -3.4375 C 19.828125 -2.226562 18.707031 -1.300781 17.25 -0.65625 C 15.789062 -0.0195312 14.066406 0.296875 12.078125 0.296875 C 9.160156 0.296875 6.828125 -0.40625 5.078125 -1.8125 C 3.328125 -3.21875 2.453125 -5.066406 2.453125 -7.359375 C 2.453125 -9.648438 3.285156 -11.488281 4.953125 -12.875 C 6.617188 -14.269531 9.269531 -14.96875 12.90625 -14.96875 L 20.375 -14.96875 L 20.375 -15.90625 C 20.375 -17.925781 19.78125 -19.476562 18.59375 -20.5625 C 17.414062 -21.644531 15.679688 -22.1875 13.390625 -22.1875 C 11.859375 -22.1875 10.351562 -21.929688 8.875 -21.421875 C 7.40625 -20.910156 6.164062 -20.234375 5.15625 -19.390625 L 3.1875 -22.921875 C 4.53125 -24.003906 6.132812 -24.828125 8 -25.390625 C 9.863281 -25.960938 11.84375 -26.25 13.9375 -26.25 Z M 12.859375 -3.34375 C 14.660156 -3.34375 16.210938 -3.738281 17.515625 -4.53125 C 18.828125 -5.332031 19.78125 -6.472656 20.375 -7.953125 L 20.375 -11.578125 L 13.109375 -11.578125 C 9.109375 -11.578125 7.109375 -10.238281 7.109375 -7.5625 C 7.109375 -6.25 7.613281 -5.21875 8.625 -4.46875 C 9.644531 -3.71875 11.054688 -3.34375 12.859375 -3.34375 Z M 12.859375 -3.34375 "/></g></g></g><g fill="#1f117b" fill-opacity="1"><g transform="translate(585.050776, 760.639212)"><g><path d="M 15.796875 0.296875 C 13.148438 0.296875 10.785156 -0.273438 8.703125 -1.421875 C 6.628906 -2.566406 5.003906 -4.144531 3.828125 -6.15625 C 2.648438 -8.164062 2.0625 -10.445312 2.0625 -13 C 2.0625 -15.550781 2.648438 -17.832031 3.828125 -19.84375 C 5.003906 -21.863281 6.628906 -23.4375 8.703125 -24.5625 C 10.785156 -25.6875 13.148438 -26.25 15.796875 -26.25 C 18.160156 -26.25 20.265625 -25.773438 22.109375 -24.828125 C 23.953125 -23.878906 25.382812 -22.507812 26.40625 -20.71875 L 22.828125 -18.40625 C 22.003906 -19.644531 20.988281 -20.578125 19.78125 -21.203125 C 18.570312 -21.828125 17.226562 -22.140625 15.75 -22.140625 C 14.050781 -22.140625 12.519531 -21.757812 11.15625 -21 C 9.800781 -20.25 8.738281 -19.175781 7.96875 -17.78125 C 7.207031 -16.394531 6.828125 -14.800781 6.828125 -13 C 6.828125 -11.164062 7.207031 -9.550781 7.96875 -8.15625 C 8.738281 -6.769531 9.800781 -5.703125 11.15625 -4.953125 C 12.519531 -4.203125 14.050781 -3.828125 15.75 -3.828125 C 17.226562 -3.828125 18.570312 -4.132812 19.78125 -4.75 C 20.988281 -5.375 22.003906 -6.3125 22.828125 -7.5625 L 26.40625 -5.296875 C 25.382812 -3.492188 23.953125 -2.109375 22.109375 -1.140625 C 20.265625 -0.179688 18.160156 0.296875 15.796875 0.296875 Z M 15.796875 0.296875 "/></g></g></g><g fill="#1f117b" fill-opacity="1"><g transform="translate(613.068989, 760.639212)"><g><path d="M 19.09375 -1.515625 C 18.40625 -0.929688 17.550781 -0.484375 16.53125 -0.171875 C 15.519531 0.140625 14.472656 0.296875 13.390625 0.296875 C 10.773438 0.296875 8.75 -0.40625 7.3125 -1.8125 C 5.875 -3.21875 5.15625 -5.234375 5.15625 -7.859375 L 5.15625 -22.140625 L 0.734375 -22.140625 L 0.734375 -26.015625 L 5.15625 -26.015625 L 5.15625 -31.703125 L 9.859375 -31.703125 L 9.859375 -26.015625 L 17.328125 -26.015625 L 17.328125 -22.140625 L 9.859375 -22.140625 L 9.859375 -8.046875 C 9.859375 -6.640625 10.207031 -5.5625 10.90625 -4.8125 C 11.613281 -4.0625 12.625 -3.6875 13.9375 -3.6875 C 15.375 -3.6875 16.601562 -4.09375 17.625 -4.90625 Z M 19.09375 -1.515625 "/></g></g></g><g fill="#1f117b" fill-opacity="1"><g transform="translate(633.383438, 760.639212)"><g><path d="M 4.46875 -26.015625 L 9.171875 -26.015625 L 9.171875 0 L 4.46875 0 Z M 6.828125 -31.015625 C 5.910156 -31.015625 5.148438 -31.304688 4.546875 -31.890625 C 3.941406 -32.484375 3.640625 -33.207031 3.640625 -34.0625 C 3.640625 -34.914062 3.941406 -35.644531 4.546875 -36.25 C 5.148438 -36.851562 5.910156 -37.15625 6.828125 -37.15625 C 7.742188 -37.15625 8.503906 -36.867188 9.109375 -36.296875 C 9.710938 -35.722656 10.015625 -35.007812 10.015625 -34.15625 C 10.015625 -33.269531 9.710938 -32.523438 9.109375 -31.921875 C 8.503906 -31.316406 7.742188 -31.015625 6.828125 -31.015625 Z M 6.828125 -31.015625 "/></g></g></g><g fill="#1f117b" fill-opacity="1"><g transform="translate(647.073612, 760.639212)"><g><path d="M 15.609375 0.296875 C 13.023438 0.296875 10.703125 -0.273438 8.640625 -1.421875 C 6.578125 -2.566406 4.960938 -4.144531 3.796875 -6.15625 C 2.640625 -8.164062 2.0625 -10.445312 2.0625 -13 C 2.0625 -15.550781 2.640625 -17.832031 3.796875 -19.84375 C 4.960938 -21.863281 6.578125 -23.4375 8.640625 -24.5625 C 10.703125 -25.6875 13.023438 -26.25 15.609375 -26.25 C 18.191406 -26.25 20.503906 -25.6875 22.546875 -24.5625 C 24.597656 -23.4375 26.203125 -21.863281 27.359375 -19.84375 C 28.523438 -17.832031 29.109375 -15.550781 29.109375 -13 C 29.109375 -10.445312 28.523438 -8.164062 27.359375 -6.15625 C 26.203125 -4.144531 24.597656 -2.566406 22.546875 -1.421875 C 20.503906 -0.273438 18.191406 0.296875 15.609375 0.296875 Z M 15.609375 -3.828125 C 17.273438 -3.828125 18.769531 -4.210938 20.09375 -4.984375 C 21.414062 -5.753906 22.453125 -6.832031 23.203125 -8.21875 C 23.960938 -9.613281 24.34375 -11.207031 24.34375 -13 C 24.34375 -14.800781 23.960938 -16.394531 23.203125 -17.78125 C 22.453125 -19.175781 21.414062 -20.25 20.09375 -21 C 18.769531 -21.757812 17.273438 -22.140625 15.609375 -22.140625 C 13.941406 -22.140625 12.441406 -21.757812 11.109375 -21 C 9.785156 -20.25 8.738281 -19.175781 7.96875 -17.78125 C 7.207031 -16.394531 6.828125 -14.800781 6.828125 -13 C 6.828125 -11.207031 7.207031 -9.613281 7.96875 -8.21875 C 8.738281 -6.832031 9.785156 -5.753906 11.109375 -4.984375 C 12.441406 -4.210938 13.941406 -3.828125 15.609375 -3.828125 Z M 15.609375 -3.828125 "/></g></g></g><g fill="#1f117b" fill-opacity="1"><g transform="translate(678.232251, 760.639212)"><g><path d="M 18.359375 -26.25 C 21.660156 -26.25 24.285156 -25.289062 26.234375 -23.375 C 28.179688 -21.46875 29.15625 -18.664062 29.15625 -14.96875 L 29.15625 0 L 24.4375 0 L 24.4375 -14.421875 C 24.4375 -16.941406 23.832031 -18.835938 22.625 -20.109375 C 21.414062 -21.390625 19.679688 -22.03125 17.421875 -22.03125 C 14.867188 -22.03125 12.851562 -21.285156 11.375 -19.796875 C 9.90625 -18.304688 9.171875 -16.171875 9.171875 -13.390625 L 9.171875 0 L 4.46875 0 L 4.46875 -26.015625 L 8.984375 -26.015625 L 8.984375 -22.078125 C 9.929688 -23.421875 11.210938 -24.453125 12.828125 -25.171875 C 14.453125 -25.890625 16.296875 -26.25 18.359375 -26.25 Z M 18.359375 -26.25 "/></g></g></g></svg>