<svg xmlns="http://www.w3.org/2000/svg" xmlns:xlink="http://www.w3.org/1999/xlink" width="1080" zoomAndPan="magnify" viewBox="0 0 810 809.999993" height="1080" preserveAspectRatio="xMidYMid meet" version="1.0"><defs><clipPath id="eb239be200"><path d="M 67.667969 55 L 754.667969 55 L 754.667969 742 L 67.667969 742 Z M 67.667969 55 " clip-rule="nonzero"/></clipPath></defs><g clip-path="url(#eb239be200)"><path fill="#5284ff" d="M 754.667969 398.5 C 754.667969 404.121094 754.527344 409.738281 754.253906 415.355469 C 753.976562 420.96875 753.5625 426.574219 753.011719 432.167969 C 752.460938 437.761719 751.773438 443.339844 750.949219 448.902344 C 750.125 454.460938 749.164062 460 748.066406 465.511719 C 746.96875 471.027344 745.738281 476.511719 744.371094 481.964844 C 743.007812 487.417969 741.507812 492.832031 739.875 498.210938 C 738.242188 503.59375 736.480469 508.929688 734.585938 514.222656 C 732.691406 519.515625 730.671875 524.757812 728.519531 529.953125 C 726.367188 535.144531 724.089844 540.285156 721.6875 545.363281 C 719.285156 550.445312 716.757812 555.46875 714.105469 560.425781 C 711.457031 565.382812 708.6875 570.273438 705.796875 575.09375 C 702.90625 579.917969 699.898438 584.664062 696.777344 589.339844 C 693.652344 594.011719 690.417969 598.605469 687.070312 603.121094 C 683.71875 607.636719 680.261719 612.070312 676.695312 616.414062 C 673.128906 620.757812 669.457031 625.015625 665.683594 629.179688 C 661.90625 633.347656 658.03125 637.417969 654.058594 641.390625 C 650.082031 645.367188 646.011719 649.242188 641.847656 653.015625 C 637.683594 656.792969 633.425781 660.460938 629.082031 664.027344 C 624.734375 667.59375 620.304688 671.054688 615.789062 674.402344 C 611.273438 677.75 606.679688 680.988281 602.003906 684.109375 C 597.332031 687.234375 592.582031 690.238281 587.761719 693.128906 C 582.9375 696.019531 578.050781 698.789062 573.089844 701.441406 C 568.132812 704.089844 563.113281 706.617188 558.03125 709.019531 C 552.949219 711.425781 547.8125 713.703125 542.617188 715.851562 C 537.425781 718.003906 532.179688 720.027344 526.886719 721.921875 C 521.59375 723.8125 516.257812 725.578125 510.878906 727.210938 C 505.5 728.839844 500.082031 730.339844 494.628906 731.707031 C 489.175781 733.070312 483.695312 734.304688 478.179688 735.398438 C 472.667969 736.496094 467.128906 737.457031 461.570312 738.28125 C 456.007812 739.105469 450.429688 739.796875 444.835938 740.347656 C 439.242188 740.898438 433.636719 741.308594 428.019531 741.585938 C 422.40625 741.863281 416.789062 742 411.167969 742 C 405.546875 742 399.925781 741.863281 394.3125 741.585938 C 388.695312 741.308594 383.09375 740.898438 377.496094 740.347656 C 371.902344 739.796875 366.324219 739.105469 360.765625 738.28125 C 355.203125 737.457031 349.667969 736.496094 344.152344 735.398438 C 338.640625 734.304688 333.15625 733.070312 327.703125 731.707031 C 322.25 730.339844 316.832031 728.839844 311.453125 727.210938 C 306.074219 725.578125 300.738281 723.8125 295.445312 721.921875 C 290.152344 720.027344 284.910156 718.003906 279.714844 715.851562 C 274.519531 713.703125 269.382812 711.425781 264.300781 709.019531 C 259.21875 706.617188 254.199219 704.089844 249.242188 701.441406 C 244.285156 698.789062 239.394531 696.019531 234.574219 693.128906 C 229.75 690.238281 225.003906 687.234375 220.328125 684.109375 C 215.652344 680.988281 211.058594 677.75 206.542969 674.402344 C 202.027344 671.054688 197.597656 667.59375 193.253906 664.027344 C 188.90625 660.460938 184.652344 656.792969 180.484375 653.015625 C 176.320312 649.242188 172.25 645.367188 168.277344 641.390625 C 164.300781 637.417969 160.425781 633.347656 156.648438 629.179688 C 152.875 625.015625 149.203125 620.757812 145.636719 616.414062 C 142.070312 612.070312 138.613281 607.636719 135.265625 603.121094 C 131.917969 598.605469 128.679688 594.011719 125.558594 589.339844 C 122.433594 584.664062 119.425781 579.917969 116.535156 575.09375 C 113.648438 570.273438 110.875 565.382812 108.226562 560.425781 C 105.578125 555.46875 103.050781 550.445312 100.644531 545.363281 C 98.242188 540.285156 95.964844 535.144531 93.8125 529.953125 C 91.664062 524.757812 89.640625 519.515625 87.746094 514.222656 C 85.851562 508.929688 84.089844 503.59375 82.457031 498.210938 C 80.824219 492.832031 79.328125 487.417969 77.960938 481.964844 C 76.59375 476.511719 75.363281 471.027344 74.265625 465.511719 C 73.171875 460 72.210938 454.460938 71.382812 448.902344 C 70.558594 443.339844 69.871094 437.761719 69.320312 432.167969 C 68.769531 426.574219 68.355469 420.96875 68.082031 415.355469 C 67.804688 409.738281 67.667969 404.121094 67.667969 398.5 C 67.667969 392.878906 67.804688 387.261719 68.082031 381.644531 C 68.355469 376.03125 68.769531 370.425781 69.320312 364.832031 C 69.871094 359.238281 70.558594 353.660156 71.382812 348.097656 C 72.210938 342.539062 73.171875 337 74.265625 331.488281 C 75.363281 325.972656 76.59375 320.488281 77.960938 315.035156 C 79.328125 309.582031 80.824219 304.167969 82.457031 298.789062 C 84.089844 293.40625 85.851562 288.070312 87.746094 282.777344 C 89.640625 277.484375 91.664062 272.242188 93.8125 267.046875 C 95.964844 261.855469 98.242188 256.71875 100.644531 251.636719 C 103.050781 246.554688 105.578125 241.53125 108.226562 236.574219 C 110.875 231.617188 113.648438 226.726562 116.535156 221.90625 C 119.425781 217.082031 122.433594 212.335938 125.558594 207.660156 C 128.679688 202.988281 131.917969 198.394531 135.265625 193.878906 C 138.613281 189.363281 142.070312 184.929688 145.636719 180.585938 C 149.203125 176.242188 152.875 171.984375 156.648438 167.820312 C 160.425781 163.652344 164.300781 159.585938 168.277344 155.609375 C 172.25 151.632812 176.320312 147.757812 180.484375 143.984375 C 184.652344 140.207031 188.90625 136.539062 193.253906 132.972656 C 197.597656 129.40625 202.027344 125.945312 206.542969 122.597656 C 211.058594 119.25 215.652344 116.011719 220.328125 112.890625 C 225.003906 109.765625 229.75 106.761719 234.574219 103.871094 C 239.394531 100.980469 244.285156 98.210938 249.242188 95.558594 C 254.199219 92.910156 259.21875 90.382812 264.300781 87.980469 C 269.382812 85.578125 274.519531 83.296875 279.714844 81.148438 C 284.910156 78.996094 290.152344 76.972656 295.445312 75.078125 C 300.738281 73.1875 306.074219 71.421875 311.453125 69.792969 C 316.832031 68.160156 322.25 66.660156 327.703125 65.292969 C 333.15625 63.929688 338.640625 62.695312 344.152344 61.601562 C 349.667969 60.503906 355.203125 59.542969 360.765625 58.71875 C 366.324219 57.894531 371.902344 57.207031 377.496094 56.652344 C 383.09375 56.101562 388.695312 55.691406 394.3125 55.414062 C 399.925781 55.136719 405.546875 55 411.167969 55 C 416.789062 55 422.40625 55.136719 428.019531 55.414062 C 433.636719 55.691406 439.242188 56.101562 444.835938 56.652344 C 450.429688 57.207031 456.007812 57.894531 461.570312 58.71875 C 467.128906 59.542969 472.667969 60.503906 478.179688 61.601562 C 483.695312 62.695312 489.175781 63.929688 494.628906 65.292969 C 500.082031 66.660156 505.5 68.160156 510.878906 69.792969 C 516.257812 71.421875 521.59375 73.1875 526.886719 75.078125 C 532.179688 76.972656 537.425781 78.996094 542.617188 81.148438 C 547.8125 83.296875 552.949219 85.578125 558.03125 87.980469 C 563.113281 90.382812 568.132812 92.910156 573.089844 95.558594 C 578.050781 98.210938 582.9375 100.980469 587.761719 103.871094 C 592.582031 106.761719 597.332031 109.765625 602.003906 112.890625 C 606.679688 116.011719 611.273438 119.25 615.789062 122.597656 C 620.304688 125.945312 624.734375 129.40625 629.082031 132.972656 C 633.425781 136.539062 637.683594 140.207031 641.847656 143.984375 C 646.011719 147.757812 650.082031 151.632812 654.058594 155.609375 C 658.03125 159.585938 661.90625 163.652344 665.683594 167.820312 C 669.457031 171.984375 673.128906 176.242188 676.695312 180.585938 C 680.261719 184.929688 683.71875 189.363281 687.070312 193.878906 C 690.417969 198.394531 693.652344 202.988281 696.777344 207.660156 C 699.898438 212.335938 702.90625 217.082031 705.796875 221.90625 C 708.6875 226.726562 711.457031 231.617188 714.105469 236.574219 C 716.757812 241.53125 719.285156 246.554688 721.6875 251.636719 C 724.089844 256.714844 726.367188 261.855469 728.519531 267.046875 C 730.671875 272.242188 732.691406 277.484375 734.585938 282.777344 C 736.480469 288.070312 738.242188 293.40625 739.875 298.789062 C 741.507812 304.167969 743.007812 309.582031 744.371094 315.035156 C 745.738281 320.488281 746.96875 325.972656 748.066406 331.488281 C 749.164062 337 750.125 342.539062 750.949219 348.097656 C 751.773438 353.660156 752.460938 359.238281 753.011719 364.832031 C 753.5625 370.425781 753.976562 376.03125 754.253906 381.644531 C 754.527344 387.261719 754.667969 392.878906 754.667969 398.5 Z M 754.667969 398.5 " fill-opacity="1" fill-rule="nonzero"/></g><path fill="#ffffff" d="M 589.679688 587.832031 L 232.65625 587.832031 C 226.703125 587.832031 221.835938 582.960938 221.835938 577.011719 L 221.835938 219.988281 C 221.835938 214.039062 226.703125 209.167969 232.65625 209.167969 L 589.679688 209.167969 C 595.628906 209.167969 600.496094 214.039062 600.496094 219.988281 L 600.496094 577.011719 C 600.496094 582.960938 595.628906 587.832031 589.679688 587.832031 Z M 589.679688 587.832031 " fill-opacity="1" fill-rule="nonzero"/><path stroke-linecap="round" transform="matrix(5.409449, 0, 0, 5.409449, 64.961938, 52.295372)" fill="none" stroke-linejoin="round" d="M 38.500158 39.799708 L 33.999931 39.799708 " stroke="#01b0c1" stroke-width="2" stroke-opacity="1" stroke-miterlimit="10"/><path stroke-linecap="round" transform="matrix(5.409449, 0, 0, 5.409449, 64.961938, 52.295372)" fill="none" stroke-linejoin="round" d="M 38.500158 48.600137 L 33.999931 48.600137 " stroke="#01b0c1" stroke-width="2" stroke-opacity="1" stroke-miterlimit="10"/><path stroke-linecap="round" transform="matrix(5.409449, 0, 0, 5.409449, 64.961938, 52.295372)" fill="none" stroke-linejoin="round" d="M 38.500158 57.399844 L 33.999931 57.399844 " stroke="#01b0c1" stroke-width="2" stroke-opacity="1" stroke-miterlimit="10"/><path stroke-linecap="round" transform="matrix(5.409449, 0, 0, 5.409449, 64.961938, 52.295372)" fill="none" stroke-linejoin="round" d="M 38.500158 66.200273 L 33.999931 66.200273 " stroke="#01b0c1" stroke-width="2" stroke-opacity="1" stroke-miterlimit="10"/><path stroke-linecap="round" transform="matrix(5.409449, 0, 0, 5.409449, 64.961938, 52.295372)" fill="none" stroke-linejoin="round" d="M 38.500158 74.999981 L 33.999931 74.999981 " stroke="#01b0c1" stroke-width="2" stroke-opacity="1" stroke-miterlimit="10"/><path stroke-linecap="round" transform="matrix(5.409449, 0, 0, 5.409449, 64.961938, 52.295372)" fill="none" stroke-linejoin="round" d="M 38.500158 83.799688 L 33.999931 83.799688 " stroke="#01b0c1" stroke-width="2" stroke-opacity="1" stroke-miterlimit="10"/><path stroke-linecap="round" transform="matrix(5.409449, 0, 0, 5.409449, 64.961938, 52.295372)" fill="none" stroke-linejoin="round" d="M 43.799769 89.10002 L 43.799769 93.499874 " stroke="#01b0c1" stroke-width="2" stroke-opacity="1" stroke-miterlimit="10"/><path stroke-linecap="round" transform="matrix(5.409449, 0, 0, 5.409449, 64.961938, 52.295372)" fill="none" stroke-linejoin="round" d="M 52.600198 89.10002 L 52.600198 93.499874 " stroke="#01b0c1" stroke-width="2" stroke-opacity="1" stroke-miterlimit="10"/><path stroke-linecap="round" transform="matrix(5.409449, 0, 0, 5.409449, 64.961938, 52.295372)" fill="none" stroke-linejoin="round" d="M 61.399905 89.10002 L 61.399905 93.499874 " stroke="#01b0c1" stroke-width="2" stroke-opacity="1" stroke-miterlimit="10"/><path stroke-linecap="round" transform="matrix(5.409449, 0, 0, 5.409449, 64.961938, 52.295372)" fill="none" stroke-linejoin="round" d="M 70.200334 89.10002 L 70.200334 93.499874 " stroke="#01b0c1" stroke-width="2" stroke-opacity="1" stroke-miterlimit="10"/><path stroke-linecap="round" transform="matrix(5.409449, 0, 0, 5.409449, 64.961938, 52.295372)" fill="none" stroke-linejoin="round" d="M 79.000041 89.10002 L 79.000041 93.499874 " stroke="#01b0c1" stroke-width="2" stroke-opacity="1" stroke-miterlimit="10"/><path stroke-linecap="round" transform="matrix(5.409449, 0, 0, 5.409449, 64.961938, 52.295372)" fill="none" stroke-linejoin="round" d="M 87.799748 89.10002 L 87.799748 93.499874 " stroke="#01b0c1" stroke-width="2" stroke-opacity="1" stroke-miterlimit="10"/><path stroke-linecap="round" transform="matrix(5.409449, 0, 0, 5.409449, 64.961938, 52.295372)" fill="none" stroke-linejoin="round" d="M 39.199889 88.099889 L 54.100033 66.000247 L 59.90007 71.69991 L 73.100352 53.499695 L 80.800277 61.299993 L 93.999837 44.40031 " stroke="#ff876c" stroke-width="2" stroke-opacity="1" stroke-miterlimit="10"/><path stroke-linecap="round" transform="matrix(5.409449, 0, 0, 5.409449, 64.961938, 52.295372)" fill="none" stroke-linejoin="round" d="M 93.100081 89.10002 L 38.500158 89.10002 L 38.500158 34.500098 " stroke="#474f5a" stroke-width="2" stroke-opacity="1" stroke-miterlimit="10"/></svg>