<svg xmlns="http://www.w3.org/2000/svg" xmlns:xlink="http://www.w3.org/1999/xlink" width="1080" zoomAndPan="magnify" viewBox="0 0 810 809.999993" height="1080" preserveAspectRatio="xMidYMid meet" version="1.0"><defs><g/><clipPath id="d3dc4ffb39"><path d="M 61.332031 41.667969 L 748.332031 41.667969 L 748.332031 728.667969 L 61.332031 728.667969 Z M 61.332031 41.667969 " clip-rule="nonzero"/></clipPath></defs><g clip-path="url(#d3dc4ffb39)"><path fill="#5284ff" d="M 748.332031 385.167969 C 748.332031 390.789062 748.195312 396.40625 747.917969 402.023438 C 747.644531 407.636719 747.230469 413.242188 746.679688 418.835938 C 746.128906 424.429688 745.441406 430.007812 744.617188 435.570312 C 743.789062 441.128906 742.828125 446.667969 741.734375 452.179688 C 740.636719 457.695312 739.40625 463.175781 738.039062 468.628906 C 736.671875 474.082031 735.175781 479.5 733.542969 484.878906 C 731.910156 490.257812 730.148438 495.59375 728.253906 500.886719 C 726.359375 506.179688 724.335938 511.425781 722.1875 516.617188 C 720.035156 521.8125 717.757812 526.949219 715.355469 532.03125 C 712.949219 537.113281 710.421875 542.132812 707.773438 547.089844 C 705.125 552.050781 702.351562 556.9375 699.464844 561.761719 C 696.574219 566.582031 693.566406 571.332031 690.441406 576.003906 C 687.320312 580.679688 684.082031 585.273438 680.734375 589.789062 C 677.386719 594.304688 673.929688 598.734375 670.363281 603.082031 C 666.796875 607.425781 663.125 611.683594 659.351562 615.847656 C 655.574219 620.011719 651.699219 624.082031 647.722656 628.058594 C 643.75 632.03125 639.679688 635.910156 635.515625 639.683594 C 631.347656 643.457031 627.09375 647.128906 622.746094 650.695312 C 618.402344 654.261719 613.972656 657.71875 609.457031 661.070312 C 604.941406 664.417969 600.347656 667.652344 595.671875 670.777344 C 590.996094 673.898438 586.25 676.90625 581.425781 679.796875 C 576.605469 682.6875 571.714844 685.457031 566.757812 688.105469 C 561.800781 690.757812 556.78125 693.285156 551.699219 695.6875 C 546.617188 698.089844 541.480469 700.367188 536.285156 702.519531 C 531.089844 704.671875 525.847656 706.691406 520.554688 708.585938 C 515.261719 710.480469 509.925781 712.242188 504.546875 713.875 C 499.167969 715.507812 493.75 717.007812 488.296875 718.371094 C 482.84375 719.738281 477.359375 720.96875 471.847656 722.066406 C 466.332031 723.164062 460.796875 724.125 455.234375 724.949219 C 449.675781 725.773438 444.097656 726.460938 438.503906 727.011719 C 432.90625 727.5625 427.304688 727.976562 421.6875 728.253906 C 416.074219 728.527344 410.453125 728.667969 404.832031 728.667969 C 399.210938 728.667969 393.59375 728.527344 387.980469 728.253906 C 382.363281 727.976562 376.757812 727.5625 371.164062 727.011719 C 365.570312 726.460938 359.992188 725.773438 354.429688 724.949219 C 348.871094 724.125 343.332031 723.164062 337.820312 722.066406 C 332.304688 720.96875 326.824219 719.738281 321.371094 718.371094 C 315.917969 717.007812 310.5 715.507812 305.121094 713.875 C 299.742188 712.242188 294.40625 710.480469 289.113281 708.585938 C 283.820312 706.691406 278.574219 704.671875 273.382812 702.519531 C 268.1875 700.367188 263.050781 698.089844 257.96875 695.6875 C 252.886719 693.285156 247.867188 690.757812 242.910156 688.105469 C 237.949219 685.457031 233.0625 682.6875 228.238281 679.796875 C 223.417969 676.90625 218.667969 673.898438 213.996094 670.777344 C 209.320312 667.652344 204.726562 664.417969 200.210938 661.070312 C 195.695312 657.71875 191.265625 654.261719 186.917969 650.695312 C 182.574219 647.128906 178.316406 643.457031 174.152344 639.683594 C 169.988281 635.910156 165.917969 632.03125 161.941406 628.058594 C 157.96875 624.082031 154.09375 620.011719 150.316406 615.847656 C 146.542969 611.683594 142.871094 607.425781 139.304688 603.082031 C 135.738281 598.734375 132.28125 594.304688 128.929688 589.789062 C 125.582031 585.273438 122.347656 580.679688 119.222656 576.003906 C 116.101562 571.332031 113.09375 566.582031 110.203125 561.761719 C 107.3125 556.9375 104.542969 552.050781 101.894531 547.089844 C 99.242188 542.132812 96.714844 537.113281 94.3125 532.03125 C 91.910156 526.949219 89.632812 521.8125 87.480469 516.617188 C 85.328125 511.425781 83.308594 506.179688 81.414062 500.886719 C 79.519531 495.59375 77.757812 490.257812 76.125 484.878906 C 74.492188 479.5 72.992188 474.082031 71.628906 468.628906 C 70.261719 463.175781 69.03125 457.695312 67.933594 452.179688 C 66.835938 446.667969 65.875 441.128906 65.050781 435.570312 C 64.226562 430.007812 63.539062 424.429688 62.988281 418.835938 C 62.4375 413.242188 62.023438 407.636719 61.746094 402.023438 C 61.472656 396.40625 61.332031 390.789062 61.332031 385.167969 C 61.332031 379.546875 61.472656 373.925781 61.746094 368.3125 C 62.023438 362.695312 62.4375 357.09375 62.988281 351.496094 C 63.539062 345.902344 64.226562 340.324219 65.050781 334.765625 C 65.875 329.203125 66.835938 323.667969 67.933594 318.152344 C 69.03125 312.640625 70.261719 307.15625 71.628906 301.703125 C 72.992188 296.25 74.492188 290.832031 76.125 285.453125 C 77.757812 280.074219 79.519531 274.738281 81.414062 269.445312 C 83.308594 264.152344 85.328125 258.910156 87.480469 253.714844 C 89.632812 248.519531 91.910156 243.382812 94.3125 238.300781 C 96.714844 233.21875 99.242188 228.199219 101.894531 223.242188 C 104.542969 218.285156 107.3125 213.394531 110.203125 208.574219 C 113.09375 203.75 116.101562 199.003906 119.222656 194.328125 C 122.347656 189.652344 125.582031 185.058594 128.929688 180.542969 C 132.28125 176.027344 135.738281 171.597656 139.304688 167.253906 C 142.871094 162.90625 146.542969 158.652344 150.316406 154.488281 C 154.09375 150.320312 157.96875 146.25 161.941406 142.277344 C 165.917969 138.300781 169.988281 134.425781 174.152344 130.648438 C 178.316406 126.875 182.574219 123.203125 186.917969 119.636719 C 191.265625 116.070312 195.695312 112.613281 200.210938 109.265625 C 204.726562 105.917969 209.320312 102.679688 213.996094 99.558594 C 218.667969 96.433594 223.417969 93.425781 228.238281 90.535156 C 233.0625 87.648438 237.949219 84.875 242.910156 82.226562 C 247.867188 79.578125 252.886719 77.050781 257.96875 74.648438 C 263.050781 72.242188 268.1875 69.964844 273.382812 67.8125 C 278.574219 65.664062 283.820312 63.640625 289.113281 61.746094 C 294.40625 59.851562 299.742188 58.089844 305.121094 56.457031 C 310.5 54.824219 315.917969 53.328125 321.371094 51.960938 C 326.824219 50.59375 332.304688 49.363281 337.820312 48.265625 C 343.332031 47.171875 348.871094 46.210938 354.429688 45.382812 C 359.992188 44.558594 365.570312 43.871094 371.164062 43.320312 C 376.757812 42.769531 382.363281 42.355469 387.980469 42.082031 C 393.59375 41.804688 399.210938 41.667969 404.832031 41.667969 C 410.453125 41.667969 416.074219 41.804688 421.6875 42.082031 C 427.304688 42.355469 432.90625 42.769531 438.503906 43.320312 C 444.097656 43.871094 449.675781 44.558594 455.234375 45.382812 C 460.796875 46.210938 466.332031 47.171875 471.847656 48.265625 C 477.359375 49.363281 482.84375 50.59375 488.296875 51.960938 C 493.75 53.328125 499.167969 54.824219 504.546875 56.457031 C 509.925781 58.089844 515.261719 59.851562 520.554688 61.746094 C 525.847656 63.640625 531.089844 65.664062 536.285156 67.8125 C 541.480469 69.964844 546.617188 72.242188 551.699219 74.648438 C 556.78125 77.050781 561.800781 79.578125 566.757812 82.226562 C 571.714844 84.875 576.605469 87.648438 581.425781 90.535156 C 586.25 93.425781 590.996094 96.433594 595.671875 99.558594 C 600.347656 102.679688 604.941406 105.917969 609.457031 109.265625 C 613.972656 112.613281 618.402344 116.070312 622.746094 119.636719 C 627.09375 123.203125 631.347656 126.875 635.515625 130.648438 C 639.679688 134.425781 643.75 138.300781 647.722656 142.277344 C 651.699219 146.25 655.574219 150.320312 659.351562 154.488281 C 663.125 158.652344 666.796875 162.90625 670.363281 167.253906 C 673.929688 171.597656 677.386719 176.027344 680.734375 180.542969 C 684.082031 185.058594 687.320312 189.652344 690.441406 194.328125 C 693.566406 199.003906 696.574219 203.75 699.464844 208.574219 C 702.351562 213.394531 705.125 218.285156 707.773438 223.242188 C 710.421875 228.199219 712.949219 233.21875 715.355469 238.300781 C 717.757812 243.382812 720.035156 248.519531 722.1875 253.714844 C 724.335938 258.910156 726.359375 264.152344 728.253906 269.445312 C 730.148438 274.738281 731.910156 280.074219 733.542969 285.453125 C 735.175781 290.832031 736.671875 296.25 738.039062 301.703125 C 739.40625 307.15625 740.636719 312.640625 741.734375 318.152344 C 742.828125 323.667969 743.789062 329.203125 744.617188 334.765625 C 745.441406 340.324219 746.128906 345.902344 746.679688 351.496094 C 747.230469 357.09375 747.644531 362.695312 747.917969 368.3125 C 748.195312 373.925781 748.332031 379.546875 748.332031 385.167969 Z M 748.332031 385.167969 " fill-opacity="1" fill-rule="nonzero"/></g><path fill="#ffffff" d="M 583.34375 574.496094 L 226.320312 574.496094 C 220.371094 574.496094 215.503906 569.628906 215.503906 563.679688 L 215.503906 206.65625 C 215.503906 200.703125 220.371094 195.835938 226.320312 195.835938 L 583.34375 195.835938 C 589.296875 195.835938 594.164062 200.703125 594.164062 206.65625 L 594.164062 563.679688 C 594.164062 569.628906 589.296875 574.496094 583.34375 574.496094 Z M 583.34375 574.496094 " fill-opacity="1" fill-rule="nonzero"/><path stroke-linecap="round" transform="matrix(5.409449, 0, 0, 5.409449, 58.628609, 38.96213)" fill="none" stroke-linejoin="round" d="M 38.499676 39.799932 L 34.00017 39.799932 " stroke="#01b0c1" stroke-width="2" stroke-opacity="1" stroke-miterlimit="10"/><path stroke-linecap="round" transform="matrix(5.409449, 0, 0, 5.409449, 58.628609, 38.96213)" fill="none" stroke-linejoin="round" d="M 38.499676 48.599639 L 34.00017 48.599639 " stroke="#01b0c1" stroke-width="2" stroke-opacity="1" stroke-miterlimit="10"/><path stroke-linecap="round" transform="matrix(5.409449, 0, 0, 5.409449, 58.628609, 38.96213)" fill="none" stroke-linejoin="round" d="M 38.499676 57.400068 L 34.00017 57.400068 " stroke="#01b0c1" stroke-width="2" stroke-opacity="1" stroke-miterlimit="10"/><path stroke-linecap="round" transform="matrix(5.409449, 0, 0, 5.409449, 58.628609, 38.96213)" fill="none" stroke-linejoin="round" d="M 38.499676 66.199775 L 34.00017 66.199775 " stroke="#01b0c1" stroke-width="2" stroke-opacity="1" stroke-miterlimit="10"/><path stroke-linecap="round" transform="matrix(5.409449, 0, 0, 5.409449, 58.628609, 38.96213)" fill="none" stroke-linejoin="round" d="M 38.499676 75.000204 L 34.00017 75.000204 " stroke="#01b0c1" stroke-width="2" stroke-opacity="1" stroke-miterlimit="10"/><path stroke-linecap="round" transform="matrix(5.409449, 0, 0, 5.409449, 58.628609, 38.96213)" fill="none" stroke-linejoin="round" d="M 38.499676 83.799911 L 34.00017 83.799911 " stroke="#01b0c1" stroke-width="2" stroke-opacity="1" stroke-miterlimit="10"/><path stroke-linecap="round" transform="matrix(5.409449, 0, 0, 5.409449, 58.628609, 38.96213)" fill="none" stroke-linejoin="round" d="M 43.800008 89.100244 L 43.800008 93.500097 " stroke="#01b0c1" stroke-width="2" stroke-opacity="1" stroke-miterlimit="10"/><path stroke-linecap="round" transform="matrix(5.409449, 0, 0, 5.409449, 58.628609, 38.96213)" fill="none" stroke-linejoin="round" d="M 52.599715 89.100244 L 52.599715 93.500097 " stroke="#01b0c1" stroke-width="2" stroke-opacity="1" stroke-miterlimit="10"/><path stroke-linecap="round" transform="matrix(5.409449, 0, 0, 5.409449, 58.628609, 38.96213)" fill="none" stroke-linejoin="round" d="M 61.400145 89.100244 L 61.400145 93.500097 " stroke="#01b0c1" stroke-width="2" stroke-opacity="1" stroke-miterlimit="10"/><path stroke-linecap="round" transform="matrix(5.409449, 0, 0, 5.409449, 58.628609, 38.96213)" fill="none" stroke-linejoin="round" d="M 70.199852 89.100244 L 70.199852 93.500097 " stroke="#01b0c1" stroke-width="2" stroke-opacity="1" stroke-miterlimit="10"/><path stroke-linecap="round" transform="matrix(5.409449, 0, 0, 5.409449, 58.628609, 38.96213)" fill="none" stroke-linejoin="round" d="M 79.000281 89.100244 L 79.000281 93.500097 " stroke="#01b0c1" stroke-width="2" stroke-opacity="1" stroke-miterlimit="10"/><path stroke-linecap="round" transform="matrix(5.409449, 0, 0, 5.409449, 58.628609, 38.96213)" fill="none" stroke-linejoin="round" d="M 87.799988 89.100244 L 87.799988 93.500097 " stroke="#01b0c1" stroke-width="2" stroke-opacity="1" stroke-miterlimit="10"/><path stroke-linecap="round" transform="matrix(5.409449, 0, 0, 5.409449, 58.628609, 38.96213)" fill="none" stroke-linejoin="round" d="M 39.200129 88.100113 L 54.100273 65.999749 L 59.900309 71.700134 L 73.09987 53.499919 L 80.799794 61.300217 L 94.000077 44.399812 " stroke="#ff876c" stroke-width="2" stroke-opacity="1" stroke-miterlimit="10"/><path stroke-linecap="round" transform="matrix(5.409449, 0, 0, 5.409449, 58.628609, 38.96213)" fill="none" stroke-linejoin="round" d="M 93.10032 89.100244 L 38.499676 89.100244 L 38.499676 34.500322 " stroke="#474f5a" stroke-width="2" stroke-opacity="1" stroke-miterlimit="10"/><g fill="#1f117b" fill-opacity="1"><g transform="translate(98.338349, 775.056035)"><g><path d="M 28.125 0 L 20.71875 -10.546875 C 19.800781 -10.484375 19.078125 -10.453125 18.546875 -10.453125 L 10.0625 -10.453125 L 10.0625 0 L 5.15625 0 L 5.15625 -34.359375 L 18.546875 -34.359375 C 22.992188 -34.359375 26.492188 -33.289062 29.046875 -31.15625 C 31.597656 -29.03125 32.875 -26.101562 32.875 -22.375 C 32.875 -19.726562 32.21875 -17.472656 30.90625 -15.609375 C 29.601562 -13.742188 27.742188 -12.382812 25.328125 -11.53125 L 33.46875 0 Z M 18.40625 -14.625 C 21.507812 -14.625 23.878906 -15.296875 25.515625 -16.640625 C 27.148438 -17.984375 27.96875 -19.894531 27.96875 -22.375 C 27.96875 -24.863281 27.148438 -26.769531 25.515625 -28.09375 C 23.878906 -29.414062 21.507812 -30.078125 18.40625 -30.078125 L 10.0625 -30.078125 L 10.0625 -14.625 Z M 18.40625 -14.625 "/></g></g></g><g fill="#1f117b" fill-opacity="1"><g transform="translate(134.011286, 775.056035)"><g><path d="M 27.96875 -12.859375 C 27.96875 -12.492188 27.9375 -12.019531 27.875 -11.4375 L 6.765625 -11.4375 C 7.066406 -9.144531 8.078125 -7.300781 9.796875 -5.90625 C 11.515625 -4.519531 13.648438 -3.828125 16.203125 -3.828125 C 19.304688 -3.828125 21.804688 -4.875 23.703125 -6.96875 L 26.3125 -3.921875 C 25.132812 -2.546875 23.664062 -1.5 21.90625 -0.78125 C 20.15625 -0.0625 18.203125 0.296875 16.046875 0.296875 C 13.296875 0.296875 10.859375 -0.265625 8.734375 -1.390625 C 6.609375 -2.523438 4.960938 -4.101562 3.796875 -6.125 C 2.640625 -8.15625 2.0625 -10.445312 2.0625 -13 C 2.0625 -15.519531 2.625 -17.796875 3.75 -19.828125 C 4.882812 -21.859375 6.441406 -23.4375 8.421875 -24.5625 C 10.398438 -25.6875 12.628906 -26.25 15.109375 -26.25 C 17.597656 -26.25 19.816406 -25.6875 21.765625 -24.5625 C 23.710938 -23.4375 25.234375 -21.859375 26.328125 -19.828125 C 27.421875 -17.796875 27.96875 -15.472656 27.96875 -12.859375 Z M 15.109375 -22.28125 C 12.859375 -22.28125 10.972656 -21.59375 9.453125 -20.21875 C 7.929688 -18.84375 7.035156 -17.046875 6.765625 -14.828125 L 23.453125 -14.828125 C 23.191406 -17.015625 22.300781 -18.800781 20.78125 -20.1875 C 19.257812 -21.582031 17.367188 -22.28125 15.109375 -22.28125 Z M 15.109375 -22.28125 "/></g></g></g><g fill="#1f117b" fill-opacity="1"><g transform="translate(164.041326, 775.056035)"><g><path d="M 15.796875 0.296875 C 13.148438 0.296875 10.785156 -0.273438 8.703125 -1.421875 C 6.628906 -2.566406 5.003906 -4.144531 3.828125 -6.15625 C 2.648438 -8.164062 2.0625 -10.445312 2.0625 -13 C 2.0625 -15.550781 2.648438 -17.832031 3.828125 -19.84375 C 5.003906 -21.863281 6.628906 -23.4375 8.703125 -24.5625 C 10.785156 -25.6875 13.148438 -26.25 15.796875 -26.25 C 18.160156 -26.25 20.265625 -25.773438 22.109375 -24.828125 C 23.953125 -23.878906 25.382812 -22.507812 26.40625 -20.71875 L 22.828125 -18.40625 C 22.003906 -19.644531 20.988281 -20.578125 19.78125 -21.203125 C 18.570312 -21.828125 17.226562 -22.140625 15.75 -22.140625 C 14.050781 -22.140625 12.519531 -21.757812 11.15625 -21 C 9.800781 -20.25 8.738281 -19.175781 7.96875 -17.78125 C 7.207031 -16.394531 6.828125 -14.800781 6.828125 -13 C 6.828125 -11.164062 7.207031 -9.550781 7.96875 -8.15625 C 8.738281 -6.769531 9.800781 -5.703125 11.15625 -4.953125 C 12.519531 -4.203125 14.050781 -3.828125 15.75 -3.828125 C 17.226562 -3.828125 18.570312 -4.132812 19.78125 -4.75 C 20.988281 -5.375 22.003906 -6.3125 22.828125 -7.5625 L 26.40625 -5.296875 C 25.382812 -3.492188 23.953125 -2.109375 22.109375 -1.140625 C 20.265625 -0.179688 18.160156 0.296875 15.796875 0.296875 Z M 15.796875 0.296875 "/></g></g></g><g fill="#1f117b" fill-opacity="1"><g transform="translate(192.059549, 775.056035)"><g><path d="M 15.609375 0.296875 C 13.023438 0.296875 10.703125 -0.273438 8.640625 -1.421875 C 6.578125 -2.566406 4.960938 -4.144531 3.796875 -6.15625 C 2.640625 -8.164062 2.0625 -10.445312 2.0625 -13 C 2.0625 -15.550781 2.640625 -17.832031 3.796875 -19.84375 C 4.960938 -21.863281 6.578125 -23.4375 8.640625 -24.5625 C 10.703125 -25.6875 13.023438 -26.25 15.609375 -26.25 C 18.191406 -26.25 20.503906 -25.6875 22.546875 -24.5625 C 24.597656 -23.4375 26.203125 -21.863281 27.359375 -19.84375 C 28.523438 -17.832031 29.109375 -15.550781 29.109375 -13 C 29.109375 -10.445312 28.523438 -8.164062 27.359375 -6.15625 C 26.203125 -4.144531 24.597656 -2.566406 22.546875 -1.421875 C 20.503906 -0.273438 18.191406 0.296875 15.609375 0.296875 Z M 15.609375 -3.828125 C 17.273438 -3.828125 18.769531 -4.210938 20.09375 -4.984375 C 21.414062 -5.753906 22.453125 -6.832031 23.203125 -8.21875 C 23.960938 -9.613281 24.34375 -11.207031 24.34375 -13 C 24.34375 -14.800781 23.960938 -16.394531 23.203125 -17.78125 C 22.453125 -19.175781 21.414062 -20.25 20.09375 -21 C 18.769531 -21.757812 17.273438 -22.140625 15.609375 -22.140625 C 13.941406 -22.140625 12.441406 -21.757812 11.109375 -21 C 9.785156 -20.25 8.738281 -19.175781 7.96875 -17.78125 C 7.207031 -16.394531 6.828125 -14.800781 6.828125 -13 C 6.828125 -11.207031 7.207031 -9.613281 7.96875 -8.21875 C 8.738281 -6.832031 9.785156 -5.753906 11.109375 -4.984375 C 12.441406 -4.210938 13.941406 -3.828125 15.609375 -3.828125 Z M 15.609375 -3.828125 "/></g></g></g><g fill="#1f117b" fill-opacity="1"><g transform="translate(223.218168, 775.056035)"><g><path d="M 8.984375 -21.640625 C 9.796875 -23.148438 11.003906 -24.296875 12.609375 -25.078125 C 14.210938 -25.859375 16.160156 -26.25 18.453125 -26.25 L 18.453125 -21.6875 C 18.191406 -21.71875 17.832031 -21.734375 17.375 -21.734375 C 14.820312 -21.734375 12.816406 -20.972656 11.359375 -19.453125 C 9.898438 -17.929688 9.171875 -15.765625 9.171875 -12.953125 L 9.171875 0 L 4.46875 0 L 4.46875 -26.015625 L 8.984375 -26.015625 Z M 8.984375 -21.640625 "/></g></g></g><g fill="#1f117b" fill-opacity="1"><g transform="translate(243.336335, 775.056035)"><g><path d="M 29 -36.421875 L 29 0 L 24.484375 0 L 24.484375 -4.125 C 23.441406 -2.6875 22.117188 -1.585938 20.515625 -0.828125 C 18.910156 -0.078125 17.144531 0.296875 15.21875 0.296875 C 12.695312 0.296875 10.4375 -0.257812 8.4375 -1.375 C 6.445312 -2.488281 4.882812 -4.050781 3.75 -6.0625 C 2.625 -8.070312 2.0625 -10.382812 2.0625 -13 C 2.0625 -15.625 2.625 -17.929688 3.75 -19.921875 C 4.882812 -21.921875 6.445312 -23.472656 8.4375 -24.578125 C 10.4375 -25.691406 12.695312 -26.25 15.21875 -26.25 C 17.082031 -26.25 18.796875 -25.894531 20.359375 -25.1875 C 21.929688 -24.488281 23.242188 -23.453125 24.296875 -22.078125 L 24.296875 -36.421875 Z M 15.609375 -3.828125 C 17.242188 -3.828125 18.726562 -4.210938 20.0625 -4.984375 C 21.40625 -5.753906 22.453125 -6.832031 23.203125 -8.21875 C 23.960938 -9.613281 24.34375 -11.207031 24.34375 -13 C 24.34375 -14.800781 23.960938 -16.394531 23.203125 -17.78125 C 22.453125 -19.175781 21.40625 -20.25 20.0625 -21 C 18.726562 -21.757812 17.242188 -22.140625 15.609375 -22.140625 C 13.941406 -22.140625 12.441406 -21.757812 11.109375 -21 C 9.785156 -20.25 8.738281 -19.175781 7.96875 -17.78125 C 7.207031 -16.394531 6.828125 -14.800781 6.828125 -13 C 6.828125 -11.207031 7.207031 -9.613281 7.96875 -8.21875 C 8.738281 -6.832031 9.785156 -5.753906 11.109375 -4.984375 C 12.441406 -4.210938 13.941406 -3.828125 15.609375 -3.828125 Z M 15.609375 -3.828125 "/></g></g></g><g fill="#1f117b" fill-opacity="1"><g transform="translate(276.801174, 775.056035)"><g/></g></g><g fill="#1f117b" fill-opacity="1"><g transform="translate(290.000663, 775.056035)"><g><path d="M 18.3125 -11.875 L 18.3125 0 L 13.453125 0 L 13.453125 -11.96875 L -0.203125 -34.359375 L 5.0625 -34.359375 L 16.046875 -16.25 L 27.09375 -34.359375 L 31.953125 -34.359375 Z M 18.3125 -11.875 "/></g></g></g><g fill="#1f117b" fill-opacity="1"><g transform="translate(321.748107, 775.056035)"><g><path d="M 15.609375 0.296875 C 13.023438 0.296875 10.703125 -0.273438 8.640625 -1.421875 C 6.578125 -2.566406 4.960938 -4.144531 3.796875 -6.15625 C 2.640625 -8.164062 2.0625 -10.445312 2.0625 -13 C 2.0625 -15.550781 2.640625 -17.832031 3.796875 -19.84375 C 4.960938 -21.863281 6.578125 -23.4375 8.640625 -24.5625 C 10.703125 -25.6875 13.023438 -26.25 15.609375 -26.25 C 18.191406 -26.25 20.503906 -25.6875 22.546875 -24.5625 C 24.597656 -23.4375 26.203125 -21.863281 27.359375 -19.84375 C 28.523438 -17.832031 29.109375 -15.550781 29.109375 -13 C 29.109375 -10.445312 28.523438 -8.164062 27.359375 -6.15625 C 26.203125 -4.144531 24.597656 -2.566406 22.546875 -1.421875 C 20.503906 -0.273438 18.191406 0.296875 15.609375 0.296875 Z M 15.609375 -3.828125 C 17.273438 -3.828125 18.769531 -4.210938 20.09375 -4.984375 C 21.414062 -5.753906 22.453125 -6.832031 23.203125 -8.21875 C 23.960938 -9.613281 24.34375 -11.207031 24.34375 -13 C 24.34375 -14.800781 23.960938 -16.394531 23.203125 -17.78125 C 22.453125 -19.175781 21.414062 -20.25 20.09375 -21 C 18.769531 -21.757812 17.273438 -22.140625 15.609375 -22.140625 C 13.941406 -22.140625 12.441406 -21.757812 11.109375 -21 C 9.785156 -20.25 8.738281 -19.175781 7.96875 -17.78125 C 7.207031 -16.394531 6.828125 -14.800781 6.828125 -13 C 6.828125 -11.207031 7.207031 -9.613281 7.96875 -8.21875 C 8.738281 -6.832031 9.785156 -5.753906 11.109375 -4.984375 C 12.441406 -4.210938 13.941406 -3.828125 15.609375 -3.828125 Z M 15.609375 -3.828125 "/></g></g></g><g fill="#1f117b" fill-opacity="1"><g transform="translate(352.906726, 775.056035)"><g><path d="M 28.703125 -26.015625 L 28.703125 0 L 24.25 0 L 24.25 -3.921875 C 23.300781 -2.578125 22.046875 -1.535156 20.484375 -0.796875 C 18.929688 -0.0664062 17.238281 0.296875 15.40625 0.296875 C 11.9375 0.296875 9.203125 -0.660156 7.203125 -2.578125 C 5.210938 -4.492188 4.21875 -7.316406 4.21875 -11.046875 L 4.21875 -26.015625 L 8.9375 -26.015625 L 8.9375 -11.578125 C 8.9375 -9.054688 9.539062 -7.148438 10.75 -5.859375 C 11.957031 -4.566406 13.691406 -3.921875 15.953125 -3.921875 C 18.441406 -3.921875 20.40625 -4.671875 21.84375 -6.171875 C 23.28125 -7.679688 24 -9.8125 24 -12.5625 L 24 -26.015625 Z M 28.703125 -26.015625 "/></g></g></g><g fill="#1f117b" fill-opacity="1"><g transform="translate(386.126242, 775.056035)"><g><path d="M 8.984375 -21.640625 C 9.796875 -23.148438 11.003906 -24.296875 12.609375 -25.078125 C 14.210938 -25.859375 16.160156 -26.25 18.453125 -26.25 L 18.453125 -21.6875 C 18.191406 -21.71875 17.832031 -21.734375 17.375 -21.734375 C 14.820312 -21.734375 12.816406 -20.972656 11.359375 -19.453125 C 9.898438 -17.929688 9.171875 -15.765625 9.171875 -12.953125 L 9.171875 0 L 4.46875 0 L 4.46875 -26.015625 L 8.984375 -26.015625 Z M 8.984375 -21.640625 "/></g></g></g><g fill="#1f117b" fill-opacity="1"><g transform="translate(406.244409, 775.056035)"><g/></g></g><g fill="#1f117b" fill-opacity="1"><g transform="translate(419.443898, 775.056035)"><g><path d="M 11.96875 -30.078125 L 0.203125 -30.078125 L 0.203125 -34.359375 L 28.609375 -34.359375 L 28.609375 -30.078125 L 16.828125 -30.078125 L 16.828125 0 L 11.96875 0 Z M 11.96875 -30.078125 "/></g></g></g><g fill="#1f117b" fill-opacity="1"><g transform="translate(448.247238, 775.056035)"><g><path d="M 8.984375 -21.640625 C 9.796875 -23.148438 11.003906 -24.296875 12.609375 -25.078125 C 14.210938 -25.859375 16.160156 -26.25 18.453125 -26.25 L 18.453125 -21.6875 C 18.191406 -21.71875 17.832031 -21.734375 17.375 -21.734375 C 14.820312 -21.734375 12.816406 -20.972656 11.359375 -19.453125 C 9.898438 -17.929688 9.171875 -15.765625 9.171875 -12.953125 L 9.171875 0 L 4.46875 0 L 4.46875 -26.015625 L 8.984375 -26.015625 Z M 8.984375 -21.640625 "/></g></g></g><g fill="#1f117b" fill-opacity="1"><g transform="translate(468.365405, 775.056035)"><g><path d="M 13.9375 -26.25 C 17.539062 -26.25 20.296875 -25.363281 22.203125 -23.59375 C 24.117188 -21.832031 25.078125 -19.203125 25.078125 -15.703125 L 25.078125 0 L 20.609375 0 L 20.609375 -3.4375 C 19.828125 -2.226562 18.707031 -1.300781 17.25 -0.65625 C 15.789062 -0.0195312 14.066406 0.296875 12.078125 0.296875 C 9.160156 0.296875 6.828125 -0.40625 5.078125 -1.8125 C 3.328125 -3.21875 2.453125 -5.066406 2.453125 -7.359375 C 2.453125 -9.648438 3.285156 -11.488281 4.953125 -12.875 C 6.617188 -14.269531 9.269531 -14.96875 12.90625 -14.96875 L 20.375 -14.96875 L 20.375 -15.90625 C 20.375 -17.925781 19.78125 -19.476562 18.59375 -20.5625 C 17.414062 -21.644531 15.679688 -22.1875 13.390625 -22.1875 C 11.859375 -22.1875 10.351562 -21.929688 8.875 -21.421875 C 7.40625 -20.910156 6.164062 -20.234375 5.15625 -19.390625 L 3.1875 -22.921875 C 4.53125 -24.003906 6.132812 -24.828125 8 -25.390625 C 9.863281 -25.960938 11.84375 -26.25 13.9375 -26.25 Z M 12.859375 -3.34375 C 14.660156 -3.34375 16.210938 -3.738281 17.515625 -4.53125 C 18.828125 -5.332031 19.78125 -6.472656 20.375 -7.953125 L 20.375 -11.578125 L 13.109375 -11.578125 C 9.109375 -11.578125 7.109375 -10.238281 7.109375 -7.5625 C 7.109375 -6.25 7.613281 -5.21875 8.625 -4.46875 C 9.644531 -3.71875 11.054688 -3.34375 12.859375 -3.34375 Z M 12.859375 -3.34375 "/></g></g></g><g fill="#1f117b" fill-opacity="1"><g transform="translate(497.708489, 775.056035)"><g><path d="M 18.359375 -26.25 C 21.660156 -26.25 24.285156 -25.289062 26.234375 -23.375 C 28.179688 -21.46875 29.15625 -18.664062 29.15625 -14.96875 L 29.15625 0 L 24.4375 0 L 24.4375 -14.421875 C 24.4375 -16.941406 23.832031 -18.835938 22.625 -20.109375 C 21.414062 -21.390625 19.679688 -22.03125 17.421875 -22.03125 C 14.867188 -22.03125 12.851562 -21.285156 11.375 -19.796875 C 9.90625 -18.304688 9.171875 -16.171875 9.171875 -13.390625 L 9.171875 0 L 4.46875 0 L 4.46875 -26.015625 L 8.984375 -26.015625 L 8.984375 -22.078125 C 9.929688 -23.421875 11.210938 -24.453125 12.828125 -25.171875 C 14.453125 -25.890625 16.296875 -26.25 18.359375 -26.25 Z M 18.359375 -26.25 "/></g></g></g><g fill="#1f117b" fill-opacity="1"><g transform="translate(531.124267, 775.056035)"><g><path d="M 11.921875 0.296875 C 9.796875 0.296875 7.75 0.0078125 5.78125 -0.5625 C 3.820312 -1.132812 2.285156 -1.863281 1.171875 -2.75 L 3.140625 -6.484375 C 4.285156 -5.660156 5.675781 -5.003906 7.3125 -4.515625 C 8.945312 -4.023438 10.597656 -3.78125 12.265625 -3.78125 C 16.390625 -3.78125 18.453125 -4.957031 18.453125 -7.3125 C 18.453125 -8.09375 18.171875 -8.710938 17.609375 -9.171875 C 17.054688 -9.628906 16.363281 -9.960938 15.53125 -10.171875 C 14.695312 -10.390625 13.507812 -10.628906 11.96875 -10.890625 C 9.875 -11.222656 8.164062 -11.597656 6.84375 -12.015625 C 5.519531 -12.441406 4.382812 -13.160156 3.4375 -14.171875 C 2.488281 -15.191406 2.015625 -16.617188 2.015625 -18.453125 C 2.015625 -20.804688 2.992188 -22.691406 4.953125 -24.109375 C 6.921875 -25.535156 9.554688 -26.25 12.859375 -26.25 C 14.585938 -26.25 16.316406 -26.035156 18.046875 -25.609375 C 19.785156 -25.191406 21.210938 -24.625 22.328125 -23.90625 L 20.3125 -20.171875 C 18.1875 -21.546875 15.6875 -22.234375 12.8125 -22.234375 C 10.8125 -22.234375 9.285156 -21.90625 8.234375 -21.25 C 7.191406 -20.59375 6.671875 -19.726562 6.671875 -18.65625 C 6.671875 -17.800781 6.960938 -17.128906 7.546875 -16.640625 C 8.140625 -16.148438 8.867188 -15.789062 9.734375 -15.5625 C 10.609375 -15.332031 11.828125 -15.066406 13.390625 -14.765625 C 15.492188 -14.410156 17.191406 -14.023438 18.484375 -13.609375 C 19.773438 -13.203125 20.878906 -12.507812 21.796875 -11.53125 C 22.710938 -10.550781 23.171875 -9.175781 23.171875 -7.40625 C 23.171875 -5.050781 22.160156 -3.175781 20.140625 -1.78125 C 18.128906 -0.394531 15.390625 0.296875 11.921875 0.296875 Z M 11.921875 0.296875 "/></g></g></g><g fill="#1f117b" fill-opacity="1"><g transform="translate(555.707691, 775.056035)"><g><path d="M 13.9375 -26.25 C 17.539062 -26.25 20.296875 -25.363281 22.203125 -23.59375 C 24.117188 -21.832031 25.078125 -19.203125 25.078125 -15.703125 L 25.078125 0 L 20.609375 0 L 20.609375 -3.4375 C 19.828125 -2.226562 18.707031 -1.300781 17.25 -0.65625 C 15.789062 -0.0195312 14.066406 0.296875 12.078125 0.296875 C 9.160156 0.296875 6.828125 -0.40625 5.078125 -1.8125 C 3.328125 -3.21875 2.453125 -5.066406 2.453125 -7.359375 C 2.453125 -9.648438 3.285156 -11.488281 4.953125 -12.875 C 6.617188 -14.269531 9.269531 -14.96875 12.90625 -14.96875 L 20.375 -14.96875 L 20.375 -15.90625 C 20.375 -17.925781 19.78125 -19.476562 18.59375 -20.5625 C 17.414062 -21.644531 15.679688 -22.1875 13.390625 -22.1875 C 11.859375 -22.1875 10.351562 -21.929688 8.875 -21.421875 C 7.40625 -20.910156 6.164062 -20.234375 5.15625 -19.390625 L 3.1875 -22.921875 C 4.53125 -24.003906 6.132812 -24.828125 8 -25.390625 C 9.863281 -25.960938 11.84375 -26.25 13.9375 -26.25 Z M 12.859375 -3.34375 C 14.660156 -3.34375 16.210938 -3.738281 17.515625 -4.53125 C 18.828125 -5.332031 19.78125 -6.472656 20.375 -7.953125 L 20.375 -11.578125 L 13.109375 -11.578125 C 9.109375 -11.578125 7.109375 -10.238281 7.109375 -7.5625 C 7.109375 -6.25 7.613281 -5.21875 8.625 -4.46875 C 9.644531 -3.71875 11.054688 -3.34375 12.859375 -3.34375 Z M 12.859375 -3.34375 "/></g></g></g><g fill="#1f117b" fill-opacity="1"><g transform="translate(585.050776, 775.056035)"><g><path d="M 15.796875 0.296875 C 13.148438 0.296875 10.785156 -0.273438 8.703125 -1.421875 C 6.628906 -2.566406 5.003906 -4.144531 3.828125 -6.15625 C 2.648438 -8.164062 2.0625 -10.445312 2.0625 -13 C 2.0625 -15.550781 2.648438 -17.832031 3.828125 -19.84375 C 5.003906 -21.863281 6.628906 -23.4375 8.703125 -24.5625 C 10.785156 -25.6875 13.148438 -26.25 15.796875 -26.25 C 18.160156 -26.25 20.265625 -25.773438 22.109375 -24.828125 C 23.953125 -23.878906 25.382812 -22.507812 26.40625 -20.71875 L 22.828125 -18.40625 C 22.003906 -19.644531 20.988281 -20.578125 19.78125 -21.203125 C 18.570312 -21.828125 17.226562 -22.140625 15.75 -22.140625 C 14.050781 -22.140625 12.519531 -21.757812 11.15625 -21 C 9.800781 -20.25 8.738281 -19.175781 7.96875 -17.78125 C 7.207031 -16.394531 6.828125 -14.800781 6.828125 -13 C 6.828125 -11.164062 7.207031 -9.550781 7.96875 -8.15625 C 8.738281 -6.769531 9.800781 -5.703125 11.15625 -4.953125 C 12.519531 -4.203125 14.050781 -3.828125 15.75 -3.828125 C 17.226562 -3.828125 18.570312 -4.132812 19.78125 -4.75 C 20.988281 -5.375 22.003906 -6.3125 22.828125 -7.5625 L 26.40625 -5.296875 C 25.382812 -3.492188 23.953125 -2.109375 22.109375 -1.140625 C 20.265625 -0.179688 18.160156 0.296875 15.796875 0.296875 Z M 15.796875 0.296875 "/></g></g></g><g fill="#1f117b" fill-opacity="1"><g transform="translate(613.068989, 775.056035)"><g><path d="M 19.09375 -1.515625 C 18.40625 -0.929688 17.550781 -0.484375 16.53125 -0.171875 C 15.519531 0.140625 14.472656 0.296875 13.390625 0.296875 C 10.773438 0.296875 8.75 -0.40625 7.3125 -1.8125 C 5.875 -3.21875 5.15625 -5.234375 5.15625 -7.859375 L 5.15625 -22.140625 L 0.734375 -22.140625 L 0.734375 -26.015625 L 5.15625 -26.015625 L 5.15625 -31.703125 L 9.859375 -31.703125 L 9.859375 -26.015625 L 17.328125 -26.015625 L 17.328125 -22.140625 L 9.859375 -22.140625 L 9.859375 -8.046875 C 9.859375 -6.640625 10.207031 -5.5625 10.90625 -4.8125 C 11.613281 -4.0625 12.625 -3.6875 13.9375 -3.6875 C 15.375 -3.6875 16.601562 -4.09375 17.625 -4.90625 Z M 19.09375 -1.515625 "/></g></g></g><g fill="#1f117b" fill-opacity="1"><g transform="translate(633.383438, 775.056035)"><g><path d="M 4.46875 -26.015625 L 9.171875 -26.015625 L 9.171875 0 L 4.46875 0 Z M 6.828125 -31.015625 C 5.910156 -31.015625 5.148438 -31.304688 4.546875 -31.890625 C 3.941406 -32.484375 3.640625 -33.207031 3.640625 -34.0625 C 3.640625 -34.914062 3.941406 -35.644531 4.546875 -36.25 C 5.148438 -36.851562 5.910156 -37.15625 6.828125 -37.15625 C 7.742188 -37.15625 8.503906 -36.867188 9.109375 -36.296875 C 9.710938 -35.722656 10.015625 -35.007812 10.015625 -34.15625 C 10.015625 -33.269531 9.710938 -32.523438 9.109375 -31.921875 C 8.503906 -31.316406 7.742188 -31.015625 6.828125 -31.015625 Z M 6.828125 -31.015625 "/></g></g></g><g fill="#1f117b" fill-opacity="1"><g transform="translate(647.073612, 775.056035)"><g><path d="M 15.609375 0.296875 C 13.023438 0.296875 10.703125 -0.273438 8.640625 -1.421875 C 6.578125 -2.566406 4.960938 -4.144531 3.796875 -6.15625 C 2.640625 -8.164062 2.0625 -10.445312 2.0625 -13 C 2.0625 -15.550781 2.640625 -17.832031 3.796875 -19.84375 C 4.960938 -21.863281 6.578125 -23.4375 8.640625 -24.5625 C 10.703125 -25.6875 13.023438 -26.25 15.609375 -26.25 C 18.191406 -26.25 20.503906 -25.6875 22.546875 -24.5625 C 24.597656 -23.4375 26.203125 -21.863281 27.359375 -19.84375 C 28.523438 -17.832031 29.109375 -15.550781 29.109375 -13 C 29.109375 -10.445312 28.523438 -8.164062 27.359375 -6.15625 C 26.203125 -4.144531 24.597656 -2.566406 22.546875 -1.421875 C 20.503906 -0.273438 18.191406 0.296875 15.609375 0.296875 Z M 15.609375 -3.828125 C 17.273438 -3.828125 18.769531 -4.210938 20.09375 -4.984375 C 21.414062 -5.753906 22.453125 -6.832031 23.203125 -8.21875 C 23.960938 -9.613281 24.34375 -11.207031 24.34375 -13 C 24.34375 -14.800781 23.960938 -16.394531 23.203125 -17.78125 C 22.453125 -19.175781 21.414062 -20.25 20.09375 -21 C 18.769531 -21.757812 17.273438 -22.140625 15.609375 -22.140625 C 13.941406 -22.140625 12.441406 -21.757812 11.109375 -21 C 9.785156 -20.25 8.738281 -19.175781 7.96875 -17.78125 C 7.207031 -16.394531 6.828125 -14.800781 6.828125 -13 C 6.828125 -11.207031 7.207031 -9.613281 7.96875 -8.21875 C 8.738281 -6.832031 9.785156 -5.753906 11.109375 -4.984375 C 12.441406 -4.210938 13.941406 -3.828125 15.609375 -3.828125 Z M 15.609375 -3.828125 "/></g></g></g><g fill="#1f117b" fill-opacity="1"><g transform="translate(678.232251, 775.056035)"><g><path d="M 18.359375 -26.25 C 21.660156 -26.25 24.285156 -25.289062 26.234375 -23.375 C 28.179688 -21.46875 29.15625 -18.664062 29.15625 -14.96875 L 29.15625 0 L 24.4375 0 L 24.4375 -14.421875 C 24.4375 -16.941406 23.832031 -18.835938 22.625 -20.109375 C 21.414062 -21.390625 19.679688 -22.03125 17.421875 -22.03125 C 14.867188 -22.03125 12.851562 -21.285156 11.375 -19.796875 C 9.90625 -18.304688 9.171875 -16.171875 9.171875 -13.390625 L 9.171875 0 L 4.46875 0 L 4.46875 -26.015625 L 8.984375 -26.015625 L 8.984375 -22.078125 C 9.929688 -23.421875 11.210938 -24.453125 12.828125 -25.171875 C 14.453125 -25.890625 16.296875 -26.25 18.359375 -26.25 Z M 18.359375 -26.25 "/></g></g></g></svg>